<?xml version="1.0" encoding="utf-8"?>
<!-- Generator: Adobe Illustrator 15.0.0, SVG Export Plug-In . SVG Version: 6.00 Build 0)  -->
<!DOCTYPE svg PUBLIC "-//W3C//DTD SVG 1.1//EN" "http://www.w3.org/Graphics/SVG/1.1/DTD/svg11.dtd">
<svg version="1.1" id="Capa_6" xmlns="http://www.w3.org/2000/svg" xmlns:xlink="http://www.w3.org/1999/xlink" x="0px" y="0px"
	 width="600px" height="800px" viewBox="0 0 600 800" enable-background="new 0 0 600 800" xml:space="preserve">
<rect fill="#FFFFFF" width="600" height="800"/>
<g>
	<g>
		<g>
			<path fill="#3A2213" d="M316.537,702.13c0.685,7.376-2.527,14.113-4.552,22.112c-1.462,5.784-1.028,10.533,1.328,13.368
				c2.521,3.037,12.119,3.312,18.91,1.703c3.92-0.928,12.223-1.316,16.02-0.516c3.795,0.802,13.678,2.583,19.807,2.457
				c4.948-0.106,9.8-1.07,9.8-1.07s8.175,1.697,12.633,0.496c6.331-1.707,8.174-9.066,6.81-10.604
				c-0.684-0.769-6.576-1.101-13.072-2.964c-6.491-1.865-12.531-6.876-16.086-9.997c-5.08-4.464-15.107-8.764-18.566-14.201
				C341.479,700.399,322.218,702.87,316.537,702.13z"/>
			<linearGradient id="SVGID_1_" gradientUnits="userSpaceOnUse" x1="289.5938" y1="722.29" x2="348.0941" y2="721.79">
				<stop  offset="6.030000e-006" style="stop-color:#5C3B27"/>
				<stop  offset="1" style="stop-color:#7B593A"/>
			</linearGradient>
			<path fill="url(#SVGID_1_)" d="M378.22,737.767c0,0-5.298,1.186-10.23,1.38c-4.936,0.2-10.145-0.725-19.156-2.841
				c-3.143-0.741-11.174-0.325-17.219,0.627c-10.924,1.726-15.5-0.354-16.105-1.08c-1.731-2.08-2.014-6.073-0.779-10.955
				c0.547-2.154,1.191-4.254,1.817-6.287c1.407-4.566,3.138-9.451,3.289-14.09c0.998,0.002,1.788,0.508,3.2,0.462
				c1.313-0.042,2.731-0.101,4.215-0.163c1.6-0.066,3.279-0.137,4.977-0.188c5.27-0.174,10.516-0.725,14.43,0.197
				c2.75,3,8.236,6.757,12.566,9.489c2.695,1.696,5.237,3.304,7.016,4.866c7.377,6.479,15.878,11.232,27.789,12.203
				c1.053,0.191,1.935,2.232-1.486,5.727C388.661,739.948,381.698,738.218,378.22,737.767z"/>
		</g>
		<g>
			<path fill="#3A2213" d="M316.579,584.343c-6.293,7.646-13.423,23.607-13.019,39.057c0.312,11.838,3.61,22.637,7.615,36.352
				c3.728,13.236,5.632,27.752,5.397,45.016c15.445,0,28.971-0.904,33.244-0.904c-6.68-32.144,3.203-108.871,5.199-120.998
				C342.535,582.359,322.071,585.356,316.579,584.343z"/>
			<linearGradient id="SVGID_2_" gradientUnits="userSpaceOnUse" x1="290.481" y1="648.3701" x2="343.9808" y2="646.8701">
				<stop  offset="6.030000e-006" style="stop-color:#5C3B27"/>
				<stop  offset="1" style="stop-color:#7B593A"/>
			</linearGradient>
			<path fill="url(#SVGID_2_)" d="M346.907,705.079c-5.438,1.645-20.392,6.019-27.071-0.559c0.149-16.652-2.542-34.173-5.902-46.693
				c-4.969-15.761-7.438-23.188-7.671-34.92c-0.231-11.838,5.418-26.406,10.455-34.332c0.249,0.006,0.51,0.008,0.785,0.008
				c3.438,0,8.532-0.541,14.434-1.168c6.473-0.688,13.756-1.463,19.612-1.555C349.396,601.095,341.624,664.632,346.907,705.079z"/>
		</g>
		<g>
			<path fill="#3A2213" d="M314.859,567.808c-0.491,7.367-3.11,21.943-4.093,26.197c20.037-5.178,38.084-6.604,42.739-1.801
				c4.421-8.188,6.587-18.124,7.503-22.502c-0.434-5.811-1.473-12.213-1.994-13.729C347.56,556.982,319.767,567.708,314.859,567.808
				z"/>
			<linearGradient id="SVGID_3_" gradientUnits="userSpaceOnUse" x1="285.8496" y1="576.2998" x2="340.8498" y2="577.2998">
				<stop  offset="6.030000e-006" style="stop-color:#5C3B27"/>
				<stop  offset="1" style="stop-color:#7B593A"/>
			</linearGradient>
			<path fill="url(#SVGID_3_)" d="M314.01,593.788c0.933-3.452,1.669-9.607,2.651-14.354c0.681-3.288,1.5-6.726,1.803-9.171
				c2.894-0.584,7.467-2.942,13.807-4.76c8.035-2.303,17.771-5.09,24.269-6.152c0.413,2.529,0.94,6.596,1.253,10.689
				c-0.193,1.873-4.023,11.331-6.58,19.339c-3.245,2.021-9.197,5.587-16.666,5.587C334.546,594.966,318.071,596.105,314.01,593.788z
				"/>
			<linearGradient id="SVGID_4_" gradientUnits="userSpaceOnUse" x1="290.9438" y1="578.2178" x2="340.9443" y2="577.7178">
				<stop  offset="6.030000e-006" style="stop-color:#5C3B27"/>
				<stop  offset="1" style="stop-color:#7B593A"/>
			</linearGradient>
			<path fill="url(#SVGID_4_)" d="M356.539,559.351c-6.497,1.063-16.233,3.85-24.269,6.152c-3.589,1.027-6.547,1.868-8.98,2.518
				c-1.063,5.027-3.682,17.143-2.057,24.369c5.744,1.945,14.75,3.582,14.75,3.582c7.469,0,10.809-0.491,14.247-3.932
				c4.586-6.223,7.368-20.127,7.562-22C357.479,565.946,356.952,561.88,356.539,559.351z"/>
		</g>
		<g>
			<path fill="#3A2213" d="M378.327,384.898c5.446,37.909,3.954,135.321-21.943,178.507c-14.093,8.959-36.197,8.959-41.322,7.678
				c-3.201-24.312-10.709-171.424-11.992-184.221C319.431,386.862,362.101,386.698,378.327,384.898z"/>
			<linearGradient id="SVGID_5_" gradientUnits="userSpaceOnUse" x1="288.1069" y1="482.1904" x2="346.1078" y2="483.6905">
				<stop  offset="6.030000e-006" style="stop-color:#5C3B27"/>
				<stop  offset="1" style="stop-color:#7B593A"/>
			</linearGradient>
			<path fill="url(#SVGID_5_)" d="M316.822,579.4c0.321-4.798,0.726-9.549,0.843-10.812c-2.092-18.736-5.629-81.766-8.241-128.291
				c-1.294-23.054-2.356-41.982-2.929-49.967c23.642-0.125,58.256-1.57,69.34-2.339c5.242,41.667,1.201,135.298-21.563,173.335
				C347.565,572.333,326.255,579.4,316.822,579.4z"/>
		</g>
		<path fill="#3A2213" d="M325.816,700.491c-0.229-3.221,0.778-11.719,1.801-16.159c-0.03-0.12-0.065-0.259-0.093-0.364
			c-2.097,5.549-3.96,15.536-3.728,17.264c0.282,2.085,7.223,5.92,9.786,6.412c-0.018-0.066-0.037-0.143-0.055-0.211
			C330.345,705.863,326.558,701.905,325.816,700.491z"/>
	</g>
	<g>
		<path fill="#3A2213" d="M264.589,346.089c-5.127,9.865-17.918,37.824-20.715,60.023c12.428,2.3,66.486-2.141,69.903-2.469
			c-0.466-9.865-0.933-51.134-0.933-53.764C308.497,350.208,268.007,346.745,264.589,346.089z"/>
		<linearGradient id="SVGID_6_" gradientUnits="userSpaceOnUse" x1="297.2446" y1="378.3706" x2="262.5779" y2="376.3706">
			<stop  offset="0" style="stop-color:#5C3A24"/>
			<stop  offset="0.9952" style="stop-color:#64422D"/>
		</linearGradient>
		<path fill="url(#SVGID_6_)" d="M255.921,403.81c-3.676,0-6.637-0.092-8.855-0.277c3.078-19.707,14.385-43.773,19.816-54.988
			c8.039,1.194,33.729,3.522,43.191,4.201c0.091,9.157,0.438,36.834,0.803,48.18C301.661,401.692,273.397,403.81,255.921,403.81z"/>
	</g>
	<g>
		<path fill="#3A2213" d="M372.651,203.222c-16.932-10.686-31.222-19.892-44.584-30.417c0.02,7.564-0.243,34.28-0.543,39.215
			c11.497,0.296,44.714,0.524,46.576,0.52C374.405,209.251,372.659,205.853,372.651,203.222z"/>
		<linearGradient id="SVGID_7_" gradientUnits="userSpaceOnUse" x1="405.373" y1="193.813" x2="329.4242" y2="197.5405">
			<stop  offset="6.030000e-006" style="stop-color:#5C3B27"/>
			<stop  offset="1" style="stop-color:#7B593A"/>
		</linearGradient>
		<path fill="url(#SVGID_7_)" d="M375.06,215.719c-3.155-0.087-37.869-2.8-43.573-2.96c0.053-0.796-1.585-27.293-1.242-35.678
			c5.747,5.754,35.221,23.479,42.952,28.031C373.208,205.388,375.056,214.945,375.06,215.719z"/>
	</g>
	<g>
		<path fill="#3A2213" d="M239.525,188.262c15.611-1.728,43.495-14.632,52.659-19.237c2.33,5.919,12.738,33.87,14.602,39.789
			c-9.785,0.492-62.445-2.469-65.241-2.469C241.545,199.44,239.992,193.687,239.525,188.262z"/>
		<linearGradient id="SVGID_8_" gradientUnits="userSpaceOnUse" x1="252.4902" y1="186.812" x2="290.816" y2="189.6969">
			<stop  offset="0" style="stop-color:#5C3A24"/>
			<stop  offset="0.9952" style="stop-color:#64422D"/>
		</linearGradient>
		<path fill="url(#SVGID_8_)" d="M302.886,205.904c-10.752-0.065-56.76-2.333-58.676-2.417c-0.293-3.325-2.264-10.672-2.51-11.939
			c9.297-3.15,35.531-12.172,49.58-19.115C293.876,179.486,300.026,197.226,302.886,205.904z"/>
	</g>
	<g>
		<path fill="#3A2213" d="M283.79,129.515c2.702,20.141,2.702,33.159,0.246,47.896c0.982,14.736,4.422,19.648,5.895,21.123
			c6.344,1.192,30.354,1.96,34.389,2.211c2.455-1.474,8.401-6.528,11.461-18.504c-3.93-11.79-1.807-39.85-1.654-53.66
			C326.353,128.728,287.534,129.77,283.79,129.515z"/>
		<linearGradient id="SVGID_9_" gradientUnits="userSpaceOnUse" x1="261.9116" y1="164.2695" x2="313.6577" y2="168.8545">
			<stop  offset="0" style="stop-color:#5C3A24"/>
			<stop  offset="0.9952" style="stop-color:#64422D"/>
		</linearGradient>
		<path fill="url(#SVGID_9_)" d="M340.038,208.44c-2.549,0.019-9.932,2.793-15.146,2.894l-0.585,0.009
			c-11.859,0.23-36.618-5.503-43.711-5.932c2.495-5.887,3.299-14.167,4.422-21.369c4.912-19.649,2.646-42.259,1.795-54.152
			c1.098,0.092,36.913-1.454,46.137-1.15c-0.682,9.896-3.844,39.354,1.56,57.857C335.759,194.819,339.382,201.563,340.038,208.44z"
			/>
		<linearGradient id="SVGID_10_" gradientUnits="userSpaceOnUse" x1="272.3574" y1="167.7813" x2="320.4987" y2="169.7462">
			<stop  offset="6.030000e-006" style="stop-color:#5C3B27"/>
			<stop  offset="1" style="stop-color:#7B593A"/>
		</linearGradient>
		<path fill="url(#SVGID_10_)" d="M334.51,186.597c-5.403-18.504-2.241-47.961-1.56-57.857c-0.151-0.004-0.33-0.01-0.495-0.014
			c-1.316,10.225-4.176,20.019-11.208,29.213c-6.879,7.859-16.703,8.844-26.527,5.896c-0.885,14.156-1.762,29.104-1.93,43.416
			c10.271,1.803,23.697,4.244,31.518,4.092l0.585-0.009c5.214-0.101,12.597-2.875,15.146-2.894
			C339.382,201.563,335.759,194.819,334.51,186.597z"/>
	</g>
	<g>
		<path fill="#3A2213" d="M392.534,310.421c4.66,11.345,6.875,18.18,9.32,30.087c5.797,28.218,5.438,60.505,9.864,76.288
			c-2.485,0.659-22.136,4.277-23.378,4.605c-8.232-45.378-32.465-73-22.834-109.502
			C378.556,307.297,388.497,311.407,392.534,310.421z"/>
		<linearGradient id="SVGID_11_" gradientUnits="userSpaceOnUse" x1="359.9951" y1="369.6328" x2="394.3821" y2="363.0831">
			<stop  offset="0" style="stop-color:#5C3A24"/>
			<stop  offset="0.9952" style="stop-color:#64422D"/>
		</linearGradient>
		<path fill="url(#SVGID_11_)" d="M390.532,417.943c-3.225-16.192-8.445-30.333-13.081-42.892
			c-7.854-21.269-14.664-39.705-9.638-60.813c3.512-1.082,7.113-1.61,10.959-1.61c2.901,0,5.443,0.29,7.688,0.547
			c1.631,0.188,3.046,0.351,4.3,0.364c4.231,10.478,6.179,16.975,8.362,27.598c2.912,14.166,4.367,29.523,5.652,43.072
			c1.129,11.918,2.124,22.41,3.873,30.23c-3.143,0.637-8.18,1.6-12.184,2.365C393.848,417.304,391.917,417.672,390.532,417.943z"/>
		<linearGradient id="SVGID_12_" gradientUnits="userSpaceOnUse" x1="363.7148" y1="368.3633" x2="395.9396" y2="363.0901">
			<stop  offset="6.030000e-006" style="stop-color:#5C3B27"/>
			<stop  offset="1" style="stop-color:#7B593A"/>
		</linearGradient>
		<path fill="url(#SVGID_12_)" d="M399.122,341.138c-2.184-10.623-4.131-17.12-8.362-27.598c-1.254-0.014-1.072-2.799-2.704-2.984
			c-0.826-0.095-3.93,8.679-4.912,10.644c-4.748,9.988-4.663,20.549-4.257,31.931c1.712,17.121,12.117,55.84,14.573,64.189
			c1.383-0.269,0.388-0.016,3.004-0.514c4.004-0.766,9.041-1.729,12.184-2.365c-1.749-7.82-2.744-18.313-3.873-30.23
			C403.489,370.661,402.034,355.304,399.122,341.138z"/>
	</g>
	<g>
		<path fill="#3A2213" d="M389.864,243.218c0.825,23.027,4.73,49.605,4.097,73.947c-1.082,7.574-7.179,8.23-9.146,8.975
			c-4.039,0.043-15.845-5.01-18.499-10.9c-2.171-15.76-3.235-71.752-3.269-75.041C370.86,242.417,387.544,241.927,389.864,243.218z"
			/>
		<linearGradient id="SVGID_13_" gradientUnits="userSpaceOnUse" x1="354.4912" y1="284.5571" x2="379.0531" y2="282.9193">
			<stop  offset="0" style="stop-color:#5C3A24"/>
			<stop  offset="0.9952" style="stop-color:#64422D"/>
		</linearGradient>
		<path fill="url(#SVGID_13_)" d="M388.5,326.841c-2.597,0.027-10.681,1.267-19.602-5.627c-1.762-15.003-2.987-64.139-3.198-77.311
			c4.826-9.11,15.383-5.048,22.547,3.77c0.237,18.231,3.217,50.135,3.146,65.08C391.22,317.192,392.573,322.853,388.5,326.841z"/>
		<linearGradient id="SVGID_14_" gradientUnits="userSpaceOnUse" x1="345.3301" y1="289.9614" x2="383.3213" y2="282.4289">
			<stop  offset="6.030000e-006" style="stop-color:#5C3B27"/>
			<stop  offset="1" style="stop-color:#7B593A"/>
		</linearGradient>
		<path fill="url(#SVGID_14_)" d="M388.5,326.841c4.073-3.988,2.72-9.648,2.893-14.088c0.071-14.945-2.908-46.849-3.146-65.08
			c-5.531-6.807-13.08-10.773-18.457-8.041c0.205,30.883-1.793,85.373,13.6,88.159C385.028,328.118,387.238,327.421,388.5,326.841z"
			/>
	</g>
	<g>
		<path fill="#3A2213" d="M354.884,191.918c27.188,5.304,38.518,29.391,35.77,70.639c-7.25-24.661-43.805-53.433-46.826-56.063
			c1.455-1.385,1.207-7.62,2.9-11.162C347.859,195.084,352.882,192.082,354.884,191.918z"/>
		<linearGradient id="SVGID_15_" gradientUnits="userSpaceOnUse" x1="280.7656" y1="242.1636" x2="381.6435" y2="221.8738">
			<stop  offset="6.030000e-006" style="stop-color:#5C3B27"/>
			<stop  offset="1" style="stop-color:#7B593A"/>
		</linearGradient>
		<path fill="url(#SVGID_15_)" d="M388.569,258.137c-4.008-4.597-12.984-16.54-17.969-20.979
			c-13.602-12.114-25.005-27.048-28.745-31.182c0.454-1.972,2.945-12.577,5.778-14.919
			C361.53,195.659,390.683,201.884,388.569,258.137z"/>
	</g>
	<g>
		<path fill="#3A2213" d="M242.944,192.29c-7.146,57.215,3.727,71.272,14.912,106.786c7.455,21.704,10.834,30.224,4.932,51.601
			c15.845-4.277,22.096,13.506,38.873,46.061c0.467,10.852,6.991,35.021,9.32,35.021c5.281,0,14.135,5.096,21.902,1.479
			c5.592-9.865,41.943-45.873,42.642-64.122c0.741-15.66-8.378-42.58-7.445-66.749c-2.487-17.429-2.806-33.425-2.106-39.462
			c-1.244-25.648-6.596-36.891-6.285-50.37c-1.955,0-52.436-2.243-52.436-2.243S247.603,191.794,242.944,192.29z"/>
		<linearGradient id="SVGID_16_" gradientUnits="userSpaceOnUse" x1="296.0522" y1="312.8848" x2="270.0524" y2="311.5512">
			<stop  offset="0" style="stop-color:#5C3A24"/>
			<stop  offset="0.9952" style="stop-color:#64422D"/>
		</linearGradient>
		<path fill="url(#SVGID_16_)" d="M312.239,429.929c-0.49-10.971-11.51-33.686-11.51-33.686
			c-9.479-18.391-22.393-15.529-30.244-24.119c-5.819-6.365-6.225-15.064-5.111-20.074c5.281-13.482,3.799-33.719-3.078-47.965
			c-5.408-11.203-6.861-21.327-10.562-30.947c-7.368-19.158-10.205-45.057-6.632-79.092c8.598,3.07,37.943,9.815,67.669,12.527
			c33.409,3.049,38.073-3.438,42.495-6.811c1.293,4.268,9.209,23.854,11.475,28.318c4.771,9.405,10.18,20.064,8.273,33.395
			c-0.27,2.326-1.076,6.439-2.095,11.648c-1.571,8.016-3.722,18.994-5.059,29.504l-0.017,0.137l-2.338,1.737
			c-0.611,15.821,3.391,30.909,5.126,43.406c0.897,6.47,2.375,16.489,2.329,19.235c-0.466,27.539-4.721,35.12-22.404,44.118
			c-9.334,4.748-14.246,10.645-19.553,19.584C329.434,430.583,314.026,430.095,312.239,429.929z"/>
		<linearGradient id="SVGID_17_" gradientUnits="userSpaceOnUse" x1="225.1519" y1="309.7456" x2="310.8882" y2="309.081">
			<stop  offset="6.030000e-006" style="stop-color:#5C3B27"/>
			<stop  offset="1" style="stop-color:#7B593A"/>
		</linearGradient>
		<path fill="url(#SVGID_17_)" d="M366.44,286.894c0.529-5.28,8.305-23.092,8.574-25.418c1.906-13.33-3.502-23.989-8.273-33.395
			c-2.266-4.465-10.182-24.051-11.475-28.318c-2.602-0.193-10.766-1.604-14.738-1.789c-5.048-0.23-8.475-1.225-18.791,0
			c-5.404,4.056-7.614,2.826-12.404-0.242c-5.73-3.168-8.965-3.07-20.387-3.686c-7.047-0.377-13.087-3.526-17.685-4.912
			c-13.015-3.92-21.193,0.322-26.456,3.074c-1.979,18.863,5.624,33.373,7.175,48.018c16.241,18.842,21.821,40.811,25.298,66.317
			c2.377,12.2,4.668,24.317,1.721,36.107c-6.879,19.979-3.273,40.935,17.686,52.073c3.614,4.055,9.957,2.105,13.428,8.842
			c0,0,1.637,15.393,2.127,26.363c1.787,0.166,17.194,0.654,18.766,0.917c5.307-8.939,10.219-14.836,19.553-19.584
			c17.684-8.998,21.938-16.579,22.404-44.118c0.046-2.746-1.432-12.766-2.329-19.235c-1.735-12.497-5.737-27.585-5.126-43.406
			C365.507,304.502,365.704,294.261,366.44,286.894z"/>
	</g>
	<ellipse fill="#3A2213" cx="334.399" cy="343.468" rx="1.98" ry="4.934"/>
	<g>
		<g>
			<path fill="#3A2213" d="M216.614,220.159c-9.743,20.555-22.52,47.002-36.602,69.927c10.021,0.739,34.176,8.382,41.02,7.533
				c10.225-24.589,21.896-47.825,29.639-66.647C245.413,223.492,225.606,214.576,216.614,220.159z"/>
			<linearGradient id="SVGID_18_" gradientUnits="userSpaceOnUse" x1="252.8081" y1="278.9072" x2="204.6656" y2="250.906">
				<stop  offset="6.030000e-006" style="stop-color:#5C3B27"/>
				<stop  offset="1" style="stop-color:#7B593A"/>
			</linearGradient>
			<path fill="url(#SVGID_18_)" d="M218.558,295.373c-5.959,0-32.998-4.132-36.17-4.468c14.42-22.723,27.157-49.521,36.434-68.858
				c2.369-1.231,6.161-4.025,10.189-4.025c8.986,0,17.922,3.176,21.392,7.431c-3.64,8.703-8.639,19.576-13.913,31.049
				c-5.98,13.008-12.156,26.441-17.371,38.867c-0.177,0.003-0.362,0.005-0.559,0.005H218.558z"/>
		</g>
		<path fill="#3A2213" d="M265.653,184.689c-27.137-6.456-46.71,11.054-57.661,54.95c15.254-19.729,38.624-10.107,43.333-8.176
			c9.172-5.239,16.5-22.158,18.803-27.42C270.128,196.152,268.688,186.944,265.653,184.689z"/>
		<linearGradient id="SVGID_19_" gradientUnits="userSpaceOnUse" x1="288.4585" y1="242.3252" x2="224.2187" y2="203.197">
			<stop  offset="6.030000e-006" style="stop-color:#5C3B27"/>
			<stop  offset="1" style="stop-color:#7B593A"/>
		</linearGradient>
		<path fill="url(#SVGID_19_)" d="M211.942,236.048c8.436-34.633,28.493-56.248,52.534-48.658c1.479,1.623,2.976,8.088,3.056,15.985
			c-0.352,0.864-0.709,1.831-1.107,2.917c-2.135,5.783-4.418,14.986-12.111,20.914C241.362,237.071,214.604,237.282,211.942,236.048
			z"/>
	</g>
	<g>
		<path fill="#3A2213" d="M253.822,219.345c-3.757,3.514-3.756,8.578-5.28,14.37c1.906,15.728,15.525,39.662,45.686,47.528
			c9.088-18.422,12.526-43.229,13.51-45.934C299.876,231.136,270.365,203.882,253.822,219.345z"/>
		<linearGradient id="SVGID_20_" gradientUnits="userSpaceOnUse" x1="207.0986" y1="195.4097" x2="261.5056" y2="232.4976">
			<stop  offset="6.030000e-006" style="stop-color:#5C3B27"/>
			<stop  offset="1" style="stop-color:#7B593A"/>
		</linearGradient>
		<path fill="url(#SVGID_20_)" d="M293.169,278.915c-25.615-7.354-37.175-25.408-43.276-44.587
			c-3.438-10.808-2.94-22.554,2.578-25.544c5.896-3.192,15.91,1.695,19.159,3.193c12.771,5.895,17.139,10.717,26.461,18.421
			c3.119,2.577,5.557,4.593,7.379,5.826c-0.178,0.806-0.401,1.915-0.713,3.464C303.083,248.024,299.664,265.06,293.169,278.915z"/>
	</g>
	<g>
		<path fill="#3A2213" d="M257.386,692.165c1.921,7.567,5.916,13.785,5.937,19.867c-0.365,4.802-2.487,12.721-1.437,24.367
			C258.394,728.3,256.89,697.015,257.386,692.165z"/>
		<g>
			<path fill="#3A2213" d="M270.155,631.013c1.96-17.227-1.636-28.656-0.654-48.307c-0.999-0.025-30.514-0.041-34.538-0.795
				c-24.739,53.854-3.151,81.516-2.434,143.021c7.916-0.375,28.628,4,31.44,4.358c-2.779-8.624-6.504-37.649-2.901-57.013
				C263.987,653.927,268.59,644.793,270.155,631.013z"/>
			<path fill="#3A2213" d="M237.351,546.024c-0.758,17.509-3.107,37.158-6.212,48.666c5.05,2.102,29.065,11.614,37.053,6.848
				c3.698-12.402,4.272-22.671,5.077-34.877C267.896,564.243,241.399,546.19,237.351,546.024z"/>
			<linearGradient id="SVGID_21_" gradientUnits="userSpaceOnUse" x1="259.084" y1="575.1816" x2="227.6413" y2="574.5262">
				<stop  offset="0" style="stop-color:#5C3A24"/>
				<stop  offset="0.9952" style="stop-color:#64422D"/>
			</linearGradient>
			<path fill="url(#SVGID_21_)" d="M241.39,552.272c-1.791,7.115-4.503,33.018-6.525,41.104c2.486,1.314,9.01,2.3,12.848,4.158
				c3.551-15.129,7.293-30.18,11.977-44.88C253.542,552.38,247.042,552.469,241.39,552.272z"/>
			
				<linearGradient id="SVGID_22_" gradientUnits="userSpaceOnUse" x1="237.6465" y1="575.2197" x2="271.6043" y2="591.1759" gradientTransform="matrix(0.9993 -0.0382 0.0382 0.9993 -18.0535 9.7869)">
				<stop  offset="6.030000e-006" style="stop-color:#5C3B27"/>
				<stop  offset="1" style="stop-color:#7B593A"/>
			</linearGradient>
			<path fill="url(#SVGID_22_)" d="M253.251,568.215c-4.685,14.7-1.988,14.19-5.539,29.319c5.607,0.168,14.045,4.237,18.843,1.059
				c3.11-11.465,3.842-20.715,2.618-30.623C265.639,567.351,259.165,568.479,253.251,568.215z"/>
			<linearGradient id="SVGID_23_" gradientUnits="userSpaceOnUse" x1="242.0469" y1="653.4854" x2="208.6418" y2="644.3157">
				<stop  offset="0" style="stop-color:#5C3A24"/>
				<stop  offset="0.9952" style="stop-color:#64422D"/>
			</linearGradient>
			<path fill="url(#SVGID_23_)" d="M264.917,597.608c-0.09-2.799,1.363-11.648,1.674-12.649c-3.168-0.378-27.257-1.778-28.54-2.153
				c-16.152,32.678-12.064,63.691-6.308,96.391c2.854,16.207,2.1,30.658,2.635,47.446c3.438-0.904,19.761-2.187,25.535-3.203
				c-0.154-3.974,1.113-8.525,0.664-13.704c-0.194-2.253-2.809-6.762-4.176-10.193c-0.727-9.539-0.455-15.76,0.491-26.771
				c1.147-13.756,6.733-28.635,9.008-46.014C267.021,618.188,265.981,605.198,264.917,597.608z"/>
			<linearGradient id="SVGID_24_" gradientUnits="userSpaceOnUse" x1="213.2017" y1="653.3008" x2="244.6416" y2="653.9561">
				<stop  offset="6.030000e-006" style="stop-color:#5C3B27"/>
				<stop  offset="1" style="stop-color:#7B593A"/>
			</linearGradient>
			<path fill="url(#SVGID_24_)" d="M266.963,628.802c1.122-8.568,0.328-24.094-0.737-31.684c-0.337-5.491,0.055-11.158,0.365-12.159
				c-1.804-0.213-13.205,1.114-20.506,0.612c-26.527,51.338-2.947,117.408-8.352,137.472c6.21-0.38,17.818,1.165,22.18,0.396
				c-0.154-3.974,1.113-8.525,0.664-13.704c-0.194-2.253-2.151-7.006-3.52-10.438c-0.727-9.541,0.037-16.008,0.982-27.02
				C259.186,658.522,264.691,646.186,266.963,628.802z"/>
		</g>
		<g>
			<path fill="#3A2213" d="M231.483,698.448c-2.053,5.527-3.774,13.913-3.236,16.199c0.391,2.336,5.177,11.639,6.131,13.062
				C234.287,721.538,234.278,705.685,231.483,698.448z"/>
			<linearGradient id="SVGID_25_" gradientUnits="userSpaceOnUse" x1="230.2979" y1="712.1299" x2="212.6067" y2="710.9013">
				<stop  offset="6.030000e-006" style="stop-color:#5C3B27"/>
				<stop  offset="1" style="stop-color:#7B593A"/>
			</linearGradient>
			<path fill="url(#SVGID_25_)" d="M233.368,720.772c-1.424-3.082-2.443-5.967-2.693-6.947c-0.203-0.859,0.51-5.546,1.906-9.965
				c0.662,2.105,1.863,4.678,2.414,7.165C234.896,712.478,233.808,717.806,233.368,720.772z"/>
		</g>
		<g>
			<path fill="#3A2213" d="M246.577,389.319c-20.633,56.248-11.626,160.147-10.809,185.201c11.186-11.837,26.203-5,35.699,2.619
				c9.496-17.684,53.969-147.379,56.579-167.596C299.096,397.454,258.051,391.578,246.577,389.319z"/>
			<linearGradient id="SVGID_26_" gradientUnits="userSpaceOnUse" x1="264.1855" y1="485.4561" x2="238.6857" y2="482.4561">
				<stop  offset="0" style="stop-color:#5C3A24"/>
				<stop  offset="0.9952" style="stop-color:#64422D"/>
			</linearGradient>
			<path fill="url(#SVGID_26_)" d="M238.226,572.72c0-37.734-8.023-122.32,10.446-179.405c6.183,1.926,57.132,12.695,74.785,19.829
				c-9.754,30.564-40.037,121.34-53.722,162.662C262.051,574.903,246.924,565.812,238.226,572.72z"/>
			<linearGradient id="SVGID_27_" gradientUnits="userSpaceOnUse" x1="222.2979" y1="484.7393" x2="268.1479" y2="488.0139">
				<stop  offset="6.030000e-006" style="stop-color:#5C3B27"/>
				<stop  offset="1" style="stop-color:#7B593A"/>
			</linearGradient>
			<path fill="url(#SVGID_27_)" d="M262.952,399.964c-18.342,49.123-18.832,142.133-17.201,170.199
				c8.282-0.312,18.225,4.967,23.984,5.643c11.965-27.324,45.934-131.609,55.688-162.169
				C312.727,408.503,281.751,404.339,262.952,399.964z"/>
		</g>
		<path fill="#3A2213" d="M267.644,571.839c0.433,3.439-0.613,16.387-4.481,20.627c-8.511,5.969-16.087,2.818-17.979,2.072
			c-2.379-5.664,1.236-22.145,2.803-25.779c3.428-4.088,7.152-4.239,11.916-1.469C261.96,568.358,263.505,569.21,267.644,571.839z"
			/>
		
			<linearGradient id="SVGID_28_" gradientUnits="userSpaceOnUse" x1="216.2427" y1="580.3057" x2="254.4074" y2="582.8165" gradientTransform="matrix(0.9913 -0.1316 0.1316 0.9913 -71.0966 34.3412)">
			<stop  offset="6.030000e-006" style="stop-color:#5C3B27"/>
			<stop  offset="1" style="stop-color:#7B593A"/>
		</linearGradient>
		<path fill="url(#SVGID_28_)" d="M244.61,595.397c-2.411-6.129-1.57-19.162,0.984-25.463c8.105-7.697,17.93-12.855,21.814-0.316
			c0.271,3.942-3.937,19.082-6.965,21.344C252.963,596.626,247.269,595.782,244.61,595.397z"/>
		<g>
			<path fill="#3A2213" d="M231.867,722.421c-1.138,15.257-3.118,25.586-4.169,35.332c12.482,5.826,47.346-2.534,50.293-3.01
				c-6.426-8.291-8.123-14.947-10.764-20.701c-2.055-4.442-4.987-7.359-5.449-15.456C258.966,726.81,238.014,737.36,231.867,722.421
				z"/>
			<linearGradient id="SVGID_29_" gradientUnits="userSpaceOnUse" x1="238.853" y1="739.7441" x2="221.6593" y2="739.2529">
				<stop  offset="6.030000e-006" style="stop-color:#5C3B27"/>
				<stop  offset="1" style="stop-color:#7B593A"/>
			</linearGradient>
			<path fill="url(#SVGID_29_)" d="M230.702,759.18c0.23-8.149,1.872-23.964,3.732-34.007c5.442-6.709,17.156-6.914,25.236-2.641
				c0.279,2.266,0.418,1.874,1.744,5.047c0.856,2.066,1.599,3.729,3.42,7.07c2.146,3.945,4.449,12.574,9.877,20.031
				C263.474,757.675,236.997,761.855,230.702,759.18z"/>
			
				<linearGradient id="SVGID_30_" gradientUnits="userSpaceOnUse" x1="252.2329" y1="784.583" x2="253.4867" y2="739.7649" gradientTransform="matrix(0.9996 -0.0267 0.0267 0.9996 -20.4087 7.1724)">
				<stop  offset="6.030000e-006" style="stop-color:#5C3B27"/>
				<stop  offset="1" style="stop-color:#7B593A"/>
			</linearGradient>
			<path fill="url(#SVGID_30_)" d="M264.835,734.649c-1.821-3.342-2.563-5.004-3.42-7.07c-1.326-3.173-1.477-3.272-1.758-5.537
				c-8.13-5.434-18.609-0.731-22.193,3.052c-2.176,4.481-3.172,9.818-4.355,14.776c-0.971,7.883-2.256,13.988-2.406,19.31
				c6.295,2.676,32.771-1.505,44.01-4.499C269.284,747.224,266.981,738.595,264.835,734.649z"/>
			<path fill="#3A2213" d="M270.999,743.569c1.492,4.64,9.66,11.07,9.828,13.342c-1.094,4.068-2.723,5.675-6.232,7.27
				c-3.615,1.08-10.619,0.953-14.086-0.258c-1.309-2.326-1.856-8.799-2.715-11.368C260.711,752.864,271.405,752.048,270.999,743.569
				z"/>
			
				<linearGradient id="SVGID_31_" gradientUnits="userSpaceOnUse" x1="269.564" y1="769.3877" x2="270.7921" y2="749.4911" gradientTransform="matrix(0.9561 0.0166 -0.0174 0.9998 22.9591 -4.2661)">
				<stop  offset="0" style="stop-color:#5C3A24"/>
				<stop  offset="0.9952" style="stop-color:#64422D"/>
			</linearGradient>
			<path fill="url(#SVGID_31_)" d="M261.189,761.38c-0.845-2.043-2.499-8.156-2.71-8.889c3.715-1.409,8.254-5.295,11.336-5.652
				c2.172,4.805,8.492,8.762,8.611,9.461c-0.559,2.885-1.916,4.229-4.542,5.481C271.282,762.761,263.129,762.801,261.189,761.38z"/>
			
				<linearGradient id="SVGID_32_" gradientUnits="userSpaceOnUse" x1="273.9746" y1="786.7666" x2="269.0624" y2="737.3169" gradientTransform="matrix(1 -1.000000e-004 1.000000e-004 1 -1.4578 -0.088)">
				<stop  offset="6.030000e-006" style="stop-color:#5C3B27"/>
				<stop  offset="1" style="stop-color:#7B593A"/>
			</linearGradient>
			<path fill="url(#SVGID_32_)" d="M275.843,757.616c1.082-0.318,2.634-0.959,2.634-1.201c-0.119-0.697-6.786-5.459-8.958-10.266
				c-2.477,0.289-7.507,1.451-9.49,3.498C263.895,757.792,271.719,758.957,275.843,757.616z"/>
			<path fill="#3A2213" d="M262.702,765.152c-13.469,1.028-31.173,0.483-34.186-3.149c-1.277-1.233-2.346-4.681-1.604-6.311
				c0.85-1.875,1.98-4.049,2.436-6.764c3.931,2.041,24.323,4.836,31.477,2.093c0.455,1.521,0.845,2.664,2.391,4.355
				c1.754,1.472,3.604,2.464,4.112,3.558C267.287,761.319,264.903,764.556,262.702,765.152z"/>
			
				<linearGradient id="SVGID_33_" gradientUnits="userSpaceOnUse" x1="247.6118" y1="768.0303" x2="248.8398" y2="748.1364" gradientTransform="matrix(0.9561 0.0166 -0.0174 0.9998 22.9591 -4.2661)">
				<stop  offset="0" style="stop-color:#5C3A24"/>
				<stop  offset="0.9952" style="stop-color:#64422D"/>
			</linearGradient>
			<path fill="url(#SVGID_33_)" d="M251.082,763.235c-10.685-0.197-18.243-1.516-20.285-2.703c-1.261-1.24-1.443-3.734-1.22-4.791
				c0.703-1.12,1.129-2.096,1.744-6.322c5.551-0.92,18.18-1.821,27.996-0.166c0.432,3.436,2.113,6.549,2.113,6.549
				c0.715,1.248,2.128,1.903,3.233,3.011c0.241,2.042-1.563,3.601-2.939,4.104C258.347,763.253,255.083,763.31,251.082,763.235z"/>
			
				<linearGradient id="SVGID_34_" gradientUnits="userSpaceOnUse" x1="247.7124" y1="780.5469" x2="249.0188" y2="741.9987" gradientTransform="matrix(1 -1.000000e-004 1.000000e-004 1 -1.4578 -0.088)">
				<stop  offset="6.030000e-006" style="stop-color:#5C3B27"/>
				<stop  offset="1" style="stop-color:#7B593A"/>
			</linearGradient>
			<path fill="url(#SVGID_34_)" d="M264.579,759.68c0.843-1.349-2.122-2.077-3.148-3.878c0,0-1.374-3.109-1.806-6.541
				c-9.817-1.656-22.593-1.102-28.144-0.181c-0.615,4.226-1.201,5.541-1.904,6.661c-0.033,0.163-0.107,0.732-0.122,0.953
				c0.739,1.412,4.589,2.789,6.941,1.164c2.152,2.082,6.322,3.071,9.865,1.447c3.396,1.574,7.485,2.27,10.116,0.258
				C258.757,760.456,262.369,761.188,264.579,759.68z"/>
			<path fill="#3A2213" d="M253.642,763.437c0,0,0.643-0.281,0.766-0.424c0.248-0.289,0.467-0.703,0.631-1.148
				c0.168-0.445,0.291-0.932,0.359-1.419c0.069-0.466,0.077-1.017,0.002-1.285l0.023,0.058c-0.219-0.557-0.538-1.076-0.914-1.609
				c-0.371-0.535-1.727-2.806-1.94-3.393c-0.211-0.592-0.37-1.17-0.476-1.814l0.883-0.188c0.119,0.509,0.301,1.057,0.519,1.548
				c0.221,0.497,0.483,0.96,0.795,1.355c0,0,0.755,1.066,1.187,1.596c0.431,0.525,0.869,1.129,1.2,1.828l0.012,0.023l0.009,0.032
				c0.26,0.796,0.22,1.399,0.188,2.037c-0.048,0.63-0.157,1.239-0.338,1.84c-0.183,0.606-0.428,1.21-0.839,1.772
				c-0.206,0.281-0.458,0.553-0.775,0.771c-0.156,0.111-1.033,0.415-1.033,0.415L253.642,763.437z"/>
			<path fill="#3A2213" d="M244.585,763.194c0,0,0.344-0.244,0.428-0.416c0.174-0.344,0.307-0.799,0.398-1.268
				c0.089-0.471,0.141-0.962,0.156-1.45c0.01-0.472-0.002-0.999-0.113-1.337c-0.266-0.869-0.787-1.935-1.029-3.047
				c-0.268-1.107-0.336-2.259-0.282-3.375l0.91-0.277c0.021,1.033,0.171,2.343,0.472,3.286c0.283,0.973,0.773,1.771,1.219,2.894
				c0.246,0.67,0.269,1.244,0.311,1.834c0.021,0.594,0,1.176-0.068,1.766c-0.075,0.588-0.188,1.186-0.439,1.813
				c-0.131,0.311-1.297,1.471-1.451,1.514c-0.08,0.022-0.245,0.058-0.245,0.058L244.585,763.194z"/>
			<path fill="#3A2213" d="M237.228,763.979c-0.484-0.923-0.887-1.934-1.112-3.02c-0.224-1.082-0.251-2.313,0.169-3.43
				c0.101-0.279,0.44-0.881,0.44-0.881l0.002-0.004l0.005-0.01l0.24-0.465c0.19-0.4,0.346-0.83,0.476-1.28
				c0.258-0.895,0.427-1.868,0.499-2.804l0.889,0.018c0,1.061-0.096,2.078-0.305,3.107c-0.105,0.513-0.244,1.025-0.432,1.532
				c-0.048,0.126-0.492,1.113-0.543,1.304c-0.219,0.766-0.147,1.624,0.096,2.454c0.244,0.841,0.639,1.646,1.119,2.397
				L237.228,763.979z"/>
		</g>
	</g>
	<path fill="#3A2213" d="M261.805,184.632c5.731,1.555,17.685,8.678,38.81,9.66c8.842,0.736,8.842,3.357,12.938,5.486
		c-4.177-1.066-7.534-3.029-12.281-3.521c-23.418-0.492-38.646-10.644-39.957-10.971
		C260.987,184.14,261.642,184.957,261.805,184.632z"/>
	<g>
		<g>
			<path fill="#3A2213" d="M388.056,440.572c-1.145,6.798-3.684,13.429-5.238,18.669c-1.883,6.836,3.888,13.836,7.286,6.058
				c2.742-5.776,6.621-22.854,7.038-25.196C394.659,438.931,389.413,440.872,388.056,440.572z"/>
			<linearGradient id="SVGID_35_" gradientUnits="userSpaceOnUse" x1="392.8213" y1="432.0391" x2="389.3379" y2="456.6403">
				<stop  offset="6.030000e-006" style="stop-color:#5C3B27"/>
				<stop  offset="1" style="stop-color:#7B593A"/>
			</linearGradient>
			<path fill="url(#SVGID_35_)" d="M385.968,466.077c-2.087-2.088-1.145-6.35-0.693-7.684c1.641-4.834,3.654-10.246,5.115-17.677
				c1.042,0.364,3.901,0.696,5.037,1.167c-1.041,5.259-5.639,19.597-6.266,21.491C388.112,466.538,386.493,466.601,385.968,466.077z
				"/>
			<path fill="#3A2213" d="M393.495,438.241c-0.031,4.473-0.513,13.495-1.344,20.754c-0.51,2.537-2.375,8.021-3.275,11.545
				c-1.965,6.222,3.93,14.247,6.65,8.405c0.678-1.456,5.783-14.286,6.165-15.5c1.542-4.542,3.138-22.542,2.825-24.381
				C402.106,438.931,395.011,438.579,393.495,438.241z"/>
			<linearGradient id="SVGID_36_" gradientUnits="userSpaceOnUse" x1="399.1016" y1="433.4854" x2="396.4677" y2="459.3854">
				<stop  offset="6.030000e-006" style="stop-color:#5C3B27"/>
				<stop  offset="1" style="stop-color:#7B593A"/>
			</linearGradient>
			<path fill="url(#SVGID_36_)" d="M396.11,475.639c-3.057,8.159-6.268-0.854-5.381-4.501c0.539-2.024,2.182-7.139,3.27-10.606
				c0.336-3.858,1.5-11.628,1.527-19.4c1.062,0.101,6.379,0.478,6.709,0.493c-0.211,7.037-0.559,14.529-1.584,19.074
				C400.413,461.363,396.833,473.523,396.11,475.639z"/>
			<path fill="#3A2213" d="M401.319,439.181c-0.236,5.891-1.435,19.271-1.964,22.844c-1.018,3.475-2.153,7.355-3.317,10.069
				c-4.42,9.581,3.317,16.58,5.773,12.036c1.161-2.715,6.533-17.668,6.533-17.668s4.001-25.576,4.148-26.87
				C409.702,439.398,403.517,439.507,401.319,439.181z"/>
			<linearGradient id="SVGID_37_" gradientUnits="userSpaceOnUse" x1="404.666" y1="430.9521" x2="403.3564" y2="469.8044">
				<stop  offset="6.030000e-006" style="stop-color:#5C3B27"/>
				<stop  offset="1" style="stop-color:#7B593A"/>
			</linearGradient>
			<path fill="url(#SVGID_37_)" d="M397.271,474.425c0.979-2.451,2.761-7.316,3.707-10.356c0.802-6.165,1.929-15.571,1.901-21.443
				c1.566,0.156,6.143-0.222,7.784-0.093c-0.558,4.422-2.616,20.297-2.616,20.297s-6.807,18.711-7.215,19.568
				C399.478,485.235,395.179,480.446,397.271,474.425z"/>
			<path fill="#3A2213" d="M408.197,439.794c-0.002,3.502-0.233,13.842-0.736,21.74c-0.687,2.328-2.271,7.057-3.193,9.823
				c-1.854,8.384,4.423,13.499,7.04,6.226c0.831-1.782,3.973-8.969,5.57-14.495c0.947-10.134,1.498-22.953,1.39-24.151
				C415.757,438.772,410.644,439.964,408.197,439.794z"/>
			<linearGradient id="SVGID_38_" gradientUnits="userSpaceOnUse" x1="411.4561" y1="422.1875" x2="410.6197" y2="465.8888">
				<stop  offset="6.030000e-006" style="stop-color:#5C3B27"/>
				<stop  offset="1" style="stop-color:#7B593A"/>
			</linearGradient>
			<path fill="url(#SVGID_38_)" d="M406.142,470.232c0.879-2.677,2.073-6.167,2.529-7.3c0.715-7.396,0.633-12.309,1.069-20.939
				c0.803-0.068,2.657-0.385,3.487-0.48c0.828-0.094,1.622,1.287,2.4,1.219c0.475,5.072-0.186,13.889-0.871,20.347
				c-1.418,4.935-3.762,11.151-4.594,13.07C407.764,482.683,404.396,475.534,406.142,470.232z"/>
		</g>
		<g>
			<path fill="#3A2213" d="M387.565,412.409c-3.111,6.793-0.695,26.239,0.164,31.111c8.229-2.539,28.061,1.242,31.627,1.535
				c-0.274-10.059-9.113-33.283-9.748-36.846C406.054,413.142,395.942,425.284,387.565,412.409z"/>
			<linearGradient id="SVGID_39_" gradientUnits="userSpaceOnUse" x1="380.582" y1="428.0098" x2="407.6748" y2="428.0098">
				<stop  offset="6.030000e-006" style="stop-color:#5C3B27"/>
				<stop  offset="1" style="stop-color:#7B593A"/>
			</linearGradient>
			<path fill="url(#SVGID_39_)" d="M390.021,443.358c-0.009-0.66-0.884-5.182-0.904-5.926c-0.144-4.754-1.208-18.263,1.075-24.291
				c0.643-0.208,1.777,1.097,4.693,1.508c4.316-2.604,8.71-4.361,13.025-4.742c0.127,6.162,8.455,25.803,7.9,35.967
				C408.362,446.468,401.126,446.063,390.021,443.358z"/>
		</g>
		<g>
			<path fill="#3A2213" d="M410.4,410.386c2.937,4.212,7.345,10.592,8.774,13.811c0.154,1.255,1.539,5.097,2.722,9.44
				c1.854,6.815,5.554,10.923,5.951,12.054c-0.953,3.49-7.521,3.354-10.439,0.244c-2.919-3.106-4.2-7.024-5.259-11.955
				C397.063,428.456,399.355,414.044,410.4,410.386z"/>
			<linearGradient id="SVGID_40_" gradientUnits="userSpaceOnUse" x1="403.749" y1="436.6719" x2="418.2596" y2="426.3072">
				<stop  offset="6.030000e-006" style="stop-color:#5C3B27"/>
				<stop  offset="1" style="stop-color:#7B593A"/>
			</linearGradient>
			<path fill="url(#SVGID_40_)" d="M418.282,444.214c-3.72-4.569-5.074-12.084-5.074-12.084
				c-6.852-1.044-11.497-5.615-11.655-13.014c-0.071-3.293,1.911-8.896,6.36-8.896c2.226,3.563,7.945,11.635,9.85,15.609
				c0.516,2.087,2.074,7.891,4.028,12.876c1.647,4.2,2.753,5.034,3.707,6.78C425.261,446.925,420.401,446.816,418.282,444.214z"/>
		</g>
		<path fill="#3A2213" d="M389.684,443.143c5.71,1.44,17.368,2.754,24.655,2.67C405.087,447.862,395.015,445.712,389.684,443.143z"
			/>
	</g>
	<path fill="#3A2213" d="M352.933,192.204c-1.393,1.188-6.182,4.503-9.743,4.872s-16.457-0.942-18.668-0.327
		c-2.947,0.859-3.847,1.471-5.567,2.947c1.844-0.736,2.395-1.452,4.994-1.598c2.21-0.125,17.807,1.105,19.404,0.861
		c3.48-0.492,9.867-4.34,10.48-4.996C353.466,193.597,353.261,192.491,352.933,192.204z"/>
	<g>
		<path fill="#B3B3B3" d="M377.181,373.085c-14.424,4.689-27.441,6.163-45.164,5.945c-45.158-2.73-67.019-10.837-76.352-15.503
			c-4.668,8.351-12.098,31.169-13.264,37.827c10.563,3.043,50.345,14.533,75.896,44.867c10.809-8.188,43.559-29.229,62.612-42.063
			C381.532,396.269,377.337,375.223,377.181,373.085z"/>
		<path fill="#E8EBED" d="M318.627,443.521c-23.089-26.363-59.863-40.451-72.542-44.375c1.687-8.07,8.197-24.072,11.053-31.935
			c11.299,5.405,38.809,13.511,74.68,14.772l0.102,0.009h0.102c15.998,0.204,27.789-1.271,42.881-5.302
			c0.071,0.424,0.15,0.896,0.237,1.418c1.033,6.104,3.103,18.338,3.036,24.508C358.581,415.028,328.532,435.007,318.627,443.521z"/>
		<path fill="#FFFFFF" d="M375.139,378.108c-0.087-0.522-0.166-0.994-0.237-1.418c-15.092,4.031-26.883,5.506-42.881,5.302h-0.102
			l-0.102-0.009c-25.993-0.914-43.504-3.098-57.73-7.565c-4.094,7.039-8.516,18.667-10.809,27.838
			c18.996,7.533,46.832,31.603,55.02,41.101c2.609-1.563,41.758-29.476,59.877-40.74
			C378.241,396.446,376.172,384.212,375.139,378.108z"/>
	</g>
	<g>
		<path fill="#B3B3B3" d="M362.888,215.182c-3.674-8.837-7.266-17.687-8.566-24.124c-1.322-0.988-9.545-6.167-13.516-8.88
			c0.912,2.444,8.278,20.445,9.711,30.514c-0.465,9.555-6.691,22.646-31.387,17.824c-18.414-3.597-33.248-15.606-41.584-25.506
			c-3.459-6.665-6.592-25.147-6.875-26.53c-3.094,0.951-10.885,3.729-13.594,4.699c0.986,5.51,2.615,22.068,2.977,28.451
			c-2.465,31.475-9.404,42.607-16.488,44.369c3.088,12.824,11.188,38.867,16.457,52.613c14.997-3.617,99.102-2.631,109.1,0.656
			c0.293-2.301-0.148-16.438,0.293-20.715c6.763-4.603,11.471-14.303,11.471-25.648
			C380.181,247.149,367.653,225.337,362.888,215.182z"/>
		<path fill="#E8EBED" d="M366.582,305.729c-10.097-1.562-35.702-2.373-58.59-2.373c-10.821,0-35.798,0.198-46.375,1.939
			c-3.251-7.841-12.851-39.498-15.367-48.285c8.352-3.768,14.154-15.934,16.442-45.121l0.014-0.222l-0.165-2.883
			c-0.258-4.572-2.052-22.979-2.354-24.387c1.092-0.128,6.504-2.296,8.496-2.633c1.168,4.925,2.693,17.604,6.604,24.783l0.145,0.265
			l0.189,0.226c4.252,5.049,19.924,21.878,43.055,26.393c3.662,0.714,7.102,1.078,10.224,1.078c21.538,0,24.015-16.577,24.26-21.656
			l0.015-0.313l-0.043-0.311c-0.915-6.449-5.529-17.362-6.965-23.638c1.309,0.731,5.445,3.213,6.293,3.699
			c0.34,1.754,4.893,16.771,7.875,23.672l0.076,0.313l0.135,0.283c0.866,1.844,1.949,4.001,3.205,6.498
			c5.542,11.021,13.91,27.67,14.49,39.924c-0.021,9.799-4.019,18.84-10.199,23.046l-1.105,0.752l-0.147,1.438
			c-0.262,2.533-0.237,7.748-0.214,12.793C366.582,302.548,366.587,304.275,366.582,305.729z"/>
		<path fill="#FFFFFF" d="M366.77,286.974c-13.101,5.242-22.927-12.854-34.716-12.854c-20.914,0-37.58,17.685-78.109,7.86
			c2.066,6.405,6.558,20.628,7.673,23.314c10.577-1.741,35.554-1.939,46.375-1.939c22.888,0,48.493,0.812,58.59,2.373
			c0.005-1.453,0-3.181-0.009-4.72c-0.023-5.045-0.048-10.26,0.214-12.793L366.77,286.974z"/>
		<path fill="#FFFFFF" d="M326.487,275.513c15.883,2.783,30.375,5.977,41.919,0.328c3.842-1.881,8.597-4.424,9.817-13.027
			c-0.645-12.236-8.957-28.783-14.475-39.758c-1.256-2.497-2.339-4.654-3.205-6.498l-0.135-0.283l-0.076-0.313
			c-2.982-6.9-7.535-21.918-7.875-23.672c-0.848-0.486-4.984-2.968-6.293-3.699c1.436,6.275,6.05,17.188,6.965,23.638l0.043,0.311
			l-0.015,0.313c-0.245,5.079-2.722,21.656-24.26,21.656c-3.122,0-6.562-0.364-10.224-1.078
			c-23.131-4.515-38.803-21.344-43.055-26.393l-0.189-0.226l-0.145-0.265c-3.91-7.179-5.436-19.858-6.604-24.783
			c-1.781,0.432-7.59,2.344-8.965,2.824c0.368,2.026,2.565,19.623,2.823,24.195l0.165,2.883l-0.014,0.222
			c-0.805,10.258-2.195,22.439-2.606,27.845c-2.948,22.106,7.779,33.159,25.054,36.597
			C300.61,279.411,312.157,277.067,326.487,275.513z"/>
	</g>
	<g>
		<path fill="#3A2213" d="M257.384,321.28c-1.965,0-8.255,0.611-14.41,0.901c-22.678,1.064-43.066,3.274-51.09,0.163
			c-5.931-2.3-10.222-5.955-12.609-8.188c-5.412-5.061-7.712-9.156-6.994-13.756c0.767-4.911,10.678-22.352,28.124-18.299
			c9.122,0.154,22.882,6.508,22.882,6.508s14.063,2.703,27.893,3.244C252.395,298.669,257.305,311.367,257.384,321.28z"/>
		<linearGradient id="SVGID_41_" gradientUnits="userSpaceOnUse" x1="214.771" y1="349.1978" x2="212.7768" y2="286.0464">
			<stop  offset="6.030000e-006" style="stop-color:#5C3B27"/>
			<stop  offset="1" style="stop-color:#7B593A"/>
		</linearGradient>
		<path fill="url(#SVGID_41_)" d="M194.013,320.378c-4.939-1.496-10.859-6.496-13.039-8.555c-4.801-4.524-6.385-7.68-5.791-11.094
			c0.445-2.559,7.263-19.123,24.455-19.486c8.318,0.165,22.203,9.086,22.314,9.148c0,0,9.576,2.766,27.207,3.596
			c0.852,5.092,2.533,16.07,2.886,25.137c-0.356,0.051-3.164-0.029-11.036,0.602C221.714,321.268,202.425,322.712,194.013,320.378z"
			/>
	</g>
	<g>
		<path fill="#3A2213" d="M244.233,293.112c1.26-2.698,2.908-7.688,4.185-9.168c0.749-0.863,6.657-7.162,7.738-9.21
			c1.132-1.914,2.372-6.583,3.069-12.036c0.969-3.598,10.004,0.16,10.071,7.736c0.069,7.77-3.155,14.069-4.913,18.055
			C262.474,289.081,245.628,292.591,244.233,293.112z"/>
		
			<linearGradient id="SVGID_42_" gradientUnits="userSpaceOnUse" x1="251.2148" y1="274.3765" x2="261.2898" y2="277.6508" gradientTransform="matrix(0.9986 0.053 -0.053 0.9986 15.5009 -11.6633)">
			<stop  offset="6.030000e-006" style="stop-color:#5C3B27"/>
			<stop  offset="1" style="stop-color:#7B593A"/>
		</linearGradient>
		<path fill="url(#SVGID_42_)" d="M247.601,289.831c0.862-2.244,2.407-4.506,3.246-5.703c0.428-0.609,2.373-2.816,3.631-4.138
			c1.359-1.433,2.498-2.775,2.864-3.306c1.558-2.252,3.069-7.275,3.465-12.383c1.28-1.514,5.708,1.131,6.235,5.497
			c0.478,3.972-0.967,9.701-2.666,13.689c0,0,3.146,0.154,3.271,1.054C267.214,284.659,252.329,288.675,247.601,289.831z"/>
	</g>
	<g>
		<path fill="#3A2213" d="M239.207,291.067c3.192-2.131,9.335-6.55,9.335-6.55s1.638-0.489,2.895-1.086
			c2.973-1.402,5.189-1.21,8.467-1.862c6.881,0.68,10.814-0.926,18.223,0.765c3.039,9.282,2.355,18.813,2.469,32.927
			c0.027,3.35-0.436,7.633-1.352,8.966c-4.256,2.948-14.957,3.593-18.912,3.194c-5.1-0.754-18.424-4.371-20.633-5.404
			C243.384,319.56,248.077,304.309,239.207,291.067z"/>
		<linearGradient id="SVGID_43_" gradientUnits="userSpaceOnUse" x1="277.4912" y1="303.9531" x2="227.8734" y2="300.8945">
			<stop  offset="6.030000e-006" style="stop-color:#5C3B27"/>
			<stop  offset="1" style="stop-color:#7B593A"/>
		</linearGradient>
		<path fill="url(#SVGID_43_)" d="M261.313,324.964c-7.859-1.309-16.553-3.848-19.976-5.074c-3.112-2.947-6.224-19.488-1.312-26.529
			c4.057-3.211,17.826-12.526,19.695-12.511c7,0.602,12.945,0.925,19.647,2.45c1.079,10.295-1.074,34.654-4.145,39.891
			C273.888,323.975,267.017,324.729,261.313,324.964z"/>
		
			<linearGradient id="SVGID_44_" gradientUnits="userSpaceOnUse" x1="283.3755" y1="297.7319" x2="253.5978" y2="303.404" gradientTransform="matrix(0.9986 0.053 -0.053 0.9986 15.5009 -11.6633)">
			<stop  offset="6.030000e-006" style="stop-color:#5C3B27"/>
			<stop  offset="1" style="stop-color:#7B593A"/>
		</linearGradient>
		<path fill="url(#SVGID_44_)" d="M279.369,283.3c-6.702-1.525-10.065-1.334-17.063-1.936c-0.037,0-2.579,1.011-2.617,1.014
			c-1.238,11.494,0.316,20.318,1.299,34.481c-0.655,2.7-1.311,6.142,0.081,8.104c1.925,0.296,13.397-0.199,16.63-2.998
			c0.26-1.798,0.316-2.781,0.273-5.209C277.839,309.198,280.399,293.113,279.369,283.3z"/>
		<path fill="#3A2213" d="M263.046,292.591c1.107,0.449,15.027-1.074,17.218-0.897c1.144,0.354,3.729,1.995,4.466,2.935
			c0.902,2.414,0.287,7.002-0.695,10.194c-0.418,0.572-1.105,1.229-1.105,1.229s0.898,0.662,0.859,1.35
			c-0.021,3.353-1.297,8.748-2.824,9.458c-5.313,1.371-13.605,1.213-16.17,0.819C263.771,315.878,263.165,295.751,263.046,292.591z"
			/>
		
			<linearGradient id="SVGID_45_" gradientUnits="userSpaceOnUse" x1="296.4243" y1="302.877" x2="254.0029" y2="303.7087" gradientTransform="matrix(0.9986 0.053 -0.053 0.9986 15.5009 -11.6633)">
			<stop  offset="6.030000e-006" style="stop-color:#5C3B27"/>
			<stop  offset="1" style="stop-color:#7B593A"/>
		</linearGradient>
		<path fill="url(#SVGID_45_)" d="M261.479,317.269c0.162-4.586-0.391-7.504-0.492-10.645c-0.297-4.289-0.819-8.679-1.474-13.264
			c1.546,0.08,3.527,1.103,3.527,1.103s8.537,0.2,12.52,0.372c1.167,0.535,5.272-0.006,6.129,0.283
			c1.232,2.281,1.321,6.676-0.151,9.622c-0.967,0.499-3.151,0.992-3.151,0.992s1.269,0.458,2.55,0.657
			c0.516,2.391,0.416,7.109-1.242,8.996C275.733,316.892,263.788,317.585,261.479,317.269z"/>
		<path fill="#3A2213" d="M264.507,306.543c-0.654,0.081-0.185,0.615,0.185,0.797c4.912,0,12.281,0.186,16.767-1.024
			c0.252-0.479,0.648-1.215,0.84-1.731C276.604,306.358,269.665,306.543,264.507,306.543z"/>
		<path fill="#3A2213" d="M263.893,294.276c-0.319-0.082-1.384-0.728-1.642-0.74c-0.2,0.971-0.102,2.11,0.107,3.549
			C262.726,295.734,263.218,294.628,263.893,294.276z"/>
		<path fill="#3A2213" d="M259.349,280.917c3.93-1.023,15.229-1.023,19.078-0.492c2.537,0.695,4.563,1.556,4.993,2.047
			c1.306,2.154,2.149,7.921,0.43,11.73c-1.72,1.348-3.924,2.147-5.403,2.147c-1.26,0-14.211-1.232-16.229-1.601
			C260.632,293.025,256.778,288.216,259.349,280.917z"/>
		<linearGradient id="SVGID_46_" gradientUnits="userSpaceOnUse" x1="284.502" y1="288.8892" x2="261.5107" y2="288.0313">
			<stop  offset="6.030000e-006" style="stop-color:#5C3B27"/>
			<stop  offset="1" style="stop-color:#7B593A"/>
		</linearGradient>
		<path fill="url(#SVGID_46_)" d="M278.672,294.671c0,0-14.472,0.203-18.586-0.594c-1.626-3.114-2.842-8.118-0.124-11.729
			c4.014-0.368,15.053-0.3,18.164-0.015c1.391,0.452,2.285,0.812,3.574,1.364c0.731,2.553,1.028,8.221,0.123,9.703
			C280.718,294.141,278.672,294.671,278.672,294.671z"/>
		<linearGradient id="SVGID_47_" gradientUnits="userSpaceOnUse" x1="286.7192" y1="288.9751" x2="280.0368" y2="288.586">
			<stop  offset="6.030000e-006" style="stop-color:#5C3B27"/>
			<stop  offset="1" style="stop-color:#7B593A"/>
		</linearGradient>
		<path fill="url(#SVGID_47_)" d="M281.7,283.698c-1.309-0.818-3.475-1.383-3.52-1.391c1.597,2.292,1.76,9.089,0.41,12.363
			c0.885-0.084,2.127-0.53,3.232-1.27C282.729,291.919,282.432,286.251,281.7,283.698z"/>
	</g>
	<g>
		<path d="M271.9,104.411c0.032-1.545-1.825-5.685-2.243-7.248c-0.572-1.289-0.106-2.877-0.25-4.668
			c-0.514-0.477-1.236-0.939-1.75-1.416c-0.418-1.758,1.2-1.545,0.5-3.25c-0.569-0.503-1.816-0.705-1.824-2.248
			c-0.063-1.607,0.494-3.758,0.982-4.422c-0.127-0.925-0.886-1.912-0.992-2.83c-0.171-1.495,2.578-2.014,0.168-3.584
			c-1.298-0.844-1.773-1.692-1.75-3.082c0.012-0.93,1.633-1.403,1.43-2.293c-0.68-2.957,1.928-3.348,1.152-5.207
			c-1.25-3,0.418-3.584,2.777-4.945c1.57-0.905-1.526-0.889,0.224-2.389c-0.5-1.416,0.458-2.861,1.167-3.416
			c0.876-0.169,1.033-0.689,1.916-0.834c0.519-0.786-0.996-1.725-0.453-2.486c0.582-0.814,2.998-0.627,3.854-1.648
			c0.629-0.238,0.082-1.161,0.725-1.365c0.673-0.727,0.304-1.579,1-2.25c0.889,0.064,1.635,0.352,2.375,0.875
			c2.12,0.979-0.201-1.836,0.767-2.514c0.923-0.648,2.333-0.201,3.56-1.035c0.7-0.478,0.252-2.432,1.008-2.409
			c2.75,0.083,1.833-1.667,3.583-2.583c2.106-1.104,2.937,0.82,4.5,0.416c0.905-0.232,1.681-1.045,1.999-1.916
			c0.629-1.729,2.418-0.334,4.334-0.167c1.255,0.109,1.599-0.866,3.25-1.083c1.822-0.24,0.938,1.258,2.334,1.25
			c1.336-0.01,1.041-1.574,3.083-0.75c0.465,0.188,3.608-0.261,4.083-0.25c2.177,0.049,1.689,1.596,2.917,1.666
			c1.23,0.072,2.531-0.509,3.291-0.424c0.81,0.094,1.425,1.604,2.626,1.84c0.937,0.184,1.85-1.728,2.75-1.5
			c0.42,0.752,0.583,1.334,1.34,1.398c1.761,0.564,1.626-0.652,3.66,0.352c1.388,0.688,4.392,2.158,4.916,4.055
			c0.737,2.68,3.426-0.553,4.928,0.281c1.756,0.977,2.549,4.709,4.936,4.113c2.822-0.705,0.676,2.489,2.832,3.885
			c1.589,1.027,2.227,3.527,2.243,3.484c-0.964,2.446,1.226,1.813,1.812,3.183c1.193,2.753-1.75,3.625,1.5,5.333
			c1.584,0.832-1.563,0.667-0.188,2.625c0.554,0.789,1.252,0.857,1.375,1.813c-1.021,0.75,0.791,1.688,0.438,2.938
			c-0.313,0.75-0.813,0.563-0.813,2c0.25,1.25,0.93,0.477,1.531,1.063c-0.295,0.623-1.023,1.452-1.344,2.063
			c0.004,3.168-1.158,3.072-0.709,5.837c0.094,0.571,1.193,2.155,1.334,2.663c0.625,2.25-1.605,4.348-1.875,6.125
			c-0.229,1.495-1.115,3.587-1.25,4.625c-0.334,2.554-0.337,4.601-1.812,7.057c-0.444,0.743-0.565,4.667-0.654,4.914
			c-0.7,0.35-74.121,8.943-74.562,8.707C273.124,113.948,271.891,104.871,271.9,104.411z"/>
		<path fill="#3A2213" d="M350.601,111.556c-1.832,7.977-6.172,13.827-9.695,13.073c-3.526-0.757-4.902-7.835-3.071-15.815
			c1.829-7.975,6.171-13.827,9.692-13.072C351.054,96.496,352.429,103.577,350.601,111.556z"/>
		<linearGradient id="SVGID_48_" gradientUnits="userSpaceOnUse" x1="338.126" y1="111" x2="349.4775" y2="111">
			<stop  offset="6.030000e-006" style="stop-color:#5C3B27"/>
			<stop  offset="1" style="stop-color:#7B593A"/>
		</linearGradient>
		<path fill="url(#SVGID_48_)" d="M340.917,123.862c2.04,0.061,5.98-4.425,7.764-11.861c0.871-3.627,1.037-7.291,0.455-10.047
			c-0.541-2.57-1.551-3.65-2.248-3.795c-0.066-0.014-0.133-0.02-0.195-0.021c-2.037-0.06-5.979,4.427-7.764,11.861
			c-0.883,3.682-1.043,7.25-0.455,10.047c0.542,2.572,1.551,3.652,2.25,3.797C340.787,123.854,340.853,123.86,340.917,123.862
			L340.917,123.862z"/>
		<path fill="#402414" d="M340.313,109.839c-0.903,4.024-0.099,7.625,1.8,8.039c1.895,0.411,4.168-2.516,5.07-6.545
			c0.904-4.023,0.098-7.627-1.802-8.039C343.487,102.879,341.215,105.81,340.313,109.839z"/>
		<path fill="#3A2213" d="M269.421,112.394c1.609,7.965,5.788,13.891,9.332,13.244c3.547-0.648,5.113-7.627,3.506-15.59
			c-1.609-7.959-5.787-13.89-9.331-13.239C269.382,97.455,267.813,104.435,269.421,112.394z"/>
		<linearGradient id="SVGID_49_" gradientUnits="userSpaceOnUse" x1="275.2319" y1="111.9058" x2="261.6069" y2="110.0308">
			<stop  offset="0" style="stop-color:#5C3A24"/>
			<stop  offset="0.9952" style="stop-color:#64422D"/>
		</linearGradient>
		<path fill="url(#SVGID_49_)" d="M278.763,124.878c-2.039,0-5.855-4.561-7.436-11.984c-0.77-3.619-0.835-7.256-0.178-9.973
			c0.611-2.535,1.648-3.574,2.352-3.697c0.064-0.012,0.131-0.016,0.193-0.016c2.041,0,5.855,4.559,7.436,11.984
			c0.782,3.674,0.846,7.217,0.181,9.973c-0.614,2.533-1.651,3.576-2.356,3.697C278.892,124.875,278.828,124.878,278.763,124.878
			L278.763,124.878z"/>
		<path fill="#402414" d="M279.753,110.99c0.793,4.017-0.113,7.562-2.022,7.919c-1.905,0.355-4.095-2.613-4.888-6.635
			c-0.793-4.017,0.113-7.564,2.021-7.918C276.771,104.001,278.96,106.97,279.753,110.99z"/>
		<g>
			<g>
				<path fill="#3A2213" d="M347.175,83.585c-0.615-22.203-12.93-37.941-34.485-38.521c-18.929-0.508-38.933,10.485-39.921,34.363
					c-0.148,3.555,0.693,5.641,2.253,19.262c0.658,5.758-2.282,16.12,1.009,26.449c4.114,11.179,7.922,18.863,15.378,28.932
					c3.999,5.4,10.888,10.017,19.276,10.256c7.225,0.207,14.819-4.421,21-12.648c9.553-15.105,11.604-21.043,13.471-31.727
					c2.514-12.137,0.266-13.793,1.089-21.583C346.575,92.271,347.339,89.513,347.175,83.585z"/>
				<linearGradient id="SVGID_50_" gradientUnits="userSpaceOnUse" x1="290.645" y1="102.8027" x2="272.645" y2="101.5527">
					<stop  offset="0" style="stop-color:#5C3A24"/>
					<stop  offset="0.9952" style="stop-color:#64422D"/>
				</linearGradient>
				<path fill="url(#SVGID_50_)" d="M310.808,161.992c-5.828,0-12.219-2.694-15.924-7.163c-7.223-8.711-12.248-18.08-16.368-28.41
					c-2.485-6.234-2.401-13.445-2.329-17.422c0.037-2.049,0.018-4.23-0.216-6.271c-1.261-11.035-1.81-18.851-1.627-23.225
					c0.887-21.435,19.765-33,37.077-33c0.346,0,0.691,0.002,1.035,0.013c19.213,0.518,33.053,16.014,33.656,37.687
					c0.084,3.066-0.324,5.615-0.758,8.309c-0.357,2.217-0.726,4.506-0.879,7.275c-0.355,3.428,0.215,5.375,0.18,7.773
					c-0.047,2.969-0.015,4.865-1.418,11.641c-1.518,8.686-4.24,19.357-15.932,34.319
					C323.211,158.759,317.101,161.992,310.808,161.992z"/>
				<linearGradient id="SVGID_51_" gradientUnits="userSpaceOnUse" x1="242.8809" y1="100.3184" x2="302.0329" y2="102.9004">
					<stop  offset="6.030000e-006" style="stop-color:#5C3B27"/>
					<stop  offset="0.1703" style="stop-color:#62412B"/>
					<stop  offset="1" style="stop-color:#7B593A"/>
				</linearGradient>
				<path fill="url(#SVGID_51_)" d="M345.354,92.509c0.434-2.693,0.842-5.242,0.758-8.309
					c-0.604-21.673-14.443-37.169-33.656-37.687c-0.344-0.011-0.689-0.013-1.035-0.013c-6.648,0,3.672,7.981-1.139,15.953
					c-4.375,7.25-15.5,4.75-18,6.875c-3.152,2.68-5.581,5.379-7.5,7.875c-0.875,1.875-2.125,12.625,1,16.5
					c-1,5-2.907,7.883-3.836,13.146c-0.982,3.928-1.965,12.117,0,18.176c3.604,11.297,7.368,16.047,12.281,24.891
					c5.928,11.008,20.632,12.444,27.838,7.695c2.456-1.637,3.111-2.131,5.24-4.095c11.691-14.962,14.414-25.634,15.932-34.319
					c1.403-6.775,1.371-8.672,1.418-11.641c0.035-2.398-0.535-4.346-0.18-7.773C344.629,97.015,344.997,94.726,345.354,92.509z"/>
			</g>
			<g>
				<linearGradient id="SVGID_52_" gradientUnits="userSpaceOnUse" x1="311.6475" y1="135.5928" x2="310.7374" y2="88.4326">
					<stop  offset="0" style="stop-color:#5C3A24"/>
					<stop  offset="0.9952" style="stop-color:#64422D"/>
				</linearGradient>
				<path fill="url(#SVGID_52_)" d="M338.194,95.796c-8.72-3.191-9.211-1.966-15.229-0.983c-1.732,1.097-4.53,1.634-6.264,2.089
					c-3.07,0.614-6.754,1.842-11.545-0.613c-3.194-0.41-8.933-1.921-12.238-2.537c-5.082-0.893-2.646-0.932-4.955-0.657
					c-1.534,0.529-2.947,0.124-5.28,1.966c-1.331,3.219-1.903,5.403,1.964,7.246c2.266-0.273,5.758-3.973,14.81,0.413
					c0.062,1.051-9.804,6.8-9.804,6.8s9.535,2.868,16.447-1.113c-0.123,4.234,0.672,7.93,0.178,13.008
					c-1.287,2.148-5.965,4.922-3.745,7.115c0.464,0.479,1.694,0.407,2.226,0.498c0.977,0.183,0.002-1.278,2.042-0.913
					c2.894,0.519,2.09,2.178,5.324,1.735c1.332-0.184,1.866-0.184,2.931-0.64c1.459-0.625,2.598-0.714,3.459-0.222
					c0.402,0.077,1.381-0.4,1.811-0.83c0.682-2.111-1.375-1.908-2.947-1.566c-2.706,0.596-3.416,0.537-5.695,0.609
					c-1.244,0.038-3.589-0.739-3.945-1.56c-0.354-1.919,1.143-10.074,1.228-11.545c0.125-2.117-0.212-6.627-0.123-7.86
					c0.576-3.386,6.142-2.886,6.142-0.122c0,1.118,0.246,3.07,0.246,3.07c9.852,3.423,16.335,0.197,22.229-4.79
					C338.793,103.019,342.444,97.753,338.194,95.796z"/>
				<g>
					<path fill="#3A2213" d="M305.229,128.124c0.746-0.652,3.33-0.278,4.008,0.139c0.694,0.434,1.487,0.983,2.828,1.007
						c0.635,0.016,2.149-0.605,2.798-0.966c0.694-0.383,3.202-0.871,3.589,0.071c-0.975-0.606-2.955,0.354-3.55,0.742
						c-0.754,0.489-1.75,1.296-2.728,1.368c-1.321,0.101-2.55-0.875-3.283-1.404C308.219,128.598,306.253,127.903,305.229,128.124z"
						/>
					<path fill="#3A2213" d="M306.601,128.97c-6.391,0.959-3.906-3.014-0.178-4.656C303.671,126.778,302.54,128.97,306.601,128.97z"
						/>
					<path fill="#3A2213" d="M317.629,129.169c3.091-0.883,2.56-3.178,0.089-4.945C320.72,125.726,322.927,128.906,317.629,129.169z
						"/>
				</g>
			</g>
		</g>
		<g>
			
				<linearGradient id="SVGID_53_" gradientUnits="userSpaceOnUse" x1="293.2949" y1="104.5083" x2="293.3452" y2="110.2367" gradientTransform="matrix(0.9995 -0.033 0.033 0.9995 -2.7499 9.9547)">
				<stop  offset="0" style="stop-color:#CED5D8"/>
				<stop  offset="1" style="stop-color:#FFFFFF"/>
			</linearGradient>
			<path fill="url(#SVGID_53_)" d="M285.395,102.451c5.53-2.326,14.247,0.103,17.04,1.585c1.248,2.875,0.706,3.315,0.764,4.572
				c-2.246,1.326-13.061,2.915-17.963-0.666c-0.486-0.686-0.643-1.577-0.643-1.577S285.078,103.763,285.395,102.451z"/>
			
				<linearGradient id="SVGID_54_" gradientUnits="userSpaceOnUse" x1="293.8081" y1="101.2529" x2="293.7018" y2="106.301" gradientTransform="matrix(0.9995 -0.033 0.033 0.9995 -2.7499 9.9547)">
				<stop  offset="0" style="stop-color:#CED5D8"/>
				<stop  offset="1" style="stop-color:#FFFFFF"/>
			</linearGradient>
			<path fill="url(#SVGID_54_)" d="M289.536,103.476c-2.355,0.876-4.818,3.355-1.975,5.784c5.906,1.966,11.763,0.841,14.816-0.263
				C301.755,102.557,295.166,101.649,289.536,103.476z"/>
			<g>
				<path fill="#321908" d="M289.94,106.044c0.08,2.486,2.107,4.441,4.53,4.357c2.419-0.083,4.318-2.166,4.237-4.654
					c-0.078-2.49-2.109-4.443-4.526-4.361C291.758,101.47,289.861,103.556,289.94,106.044z"/>
				
					<linearGradient id="SVGID_55_" gradientUnits="userSpaceOnUse" x1="293.7339" y1="101.436" x2="293.7339" y2="108.349" gradientTransform="matrix(0.9995 -0.033 0.033 0.9995 -2.7499 9.9547)">
					<stop  offset="0" style="stop-color:#42210B"/>
					<stop  offset="0.9984" style="stop-color:#94561D"/>
				</linearGradient>
				<path fill="url(#SVGID_55_)" d="M290.269,106.032c0.074,2.303,1.949,4.105,4.191,4.031c2.239-0.077,3.993-2.004,3.92-4.309
					c-0.073-2.299-1.95-4.105-4.188-4.031C291.952,101.801,290.196,103.729,290.269,106.032z"/>
				
					<linearGradient id="SVGID_56_" gradientUnits="userSpaceOnUse" x1="293.9336" y1="101.9077" x2="293.9336" y2="108.6436" gradientTransform="matrix(0.9995 -0.033 0.033 0.9995 -2.7499 9.9547)">
					<stop  offset="0" style="stop-color:#42210B"/>
					<stop  offset="0.9815" style="stop-color:#C46C1B"/>
				</linearGradient>
				<path fill="url(#SVGID_56_)" d="M295.047,105.028c-3.174-1.707-4.956,1.301-4.144,3.077c0.745,1.214,2.062,2.009,3.557,1.958
					c2.239-0.077,3.993-2.004,3.92-4.309c-0.004-0.094-0.025-0.179-0.037-0.271C298.188,106.935,295.511,108.789,295.047,105.028z"
					/>
				<path fill="#211106" d="M292.372,105.962c0.037,1.105,0.938,1.976,2.018,1.938c1.076-0.037,1.922-0.965,1.887-2.072
					s-0.938-1.979-2.015-1.941C293.182,103.927,292.338,104.853,292.372,105.962z"/>
				<path fill="#FFFFFF" d="M289.104,104.732c0.023,0.79,0.671,1.413,1.44,1.386s1.373-0.688,1.348-1.48
					c-0.024-0.793-0.672-1.416-1.438-1.39C289.682,103.276,289.077,103.94,289.104,104.732z"/>
			</g>
			<path d="M303.304,104.169c-0.861-0.73-1.711-1.303-2.74-1.789c-4.616-1.919-8.018-1.914-12.533-1.135
				c-1.705,0.209-3.075,0.541-4.01,0.456c-0.07,1.047,0.264,1.796,0.701,2.288c-0.254,1.094-0.486,2.282-0.471,3.227
				c0.348,0.579,0.518,0.915,2.182,1.57c-0.749-0.629-1.428-1.254-1.52-1.669c-0.104-1.115,1.404-3.279,2.811-3.86
				c5.389-1.704,10.646-0.202,12.344,0.582c1.007,0.484,1.959,1.254,2.211,1.684c0.432,0.767,0.789,2.628,0.932,3.57
				C303.552,107.778,303.671,105.342,303.304,104.169z"/>
		</g>
		<g>
			
				<linearGradient id="SVGID_57_" gradientUnits="userSpaceOnUse" x1="306.9326" y1="104.9585" x2="306.9829" y2="110.6869" gradientTransform="matrix(-0.9995 -0.033 -0.033 0.9995 637.751 9.9547)">
				<stop  offset="0" style="stop-color:#CED5D8"/>
				<stop  offset="1" style="stop-color:#FFFFFF"/>
			</linearGradient>
			<path fill="url(#SVGID_57_)" d="M335.961,102.451c-5.53-2.326-14.247,0.103-17.041,1.585c-1.247,2.875-0.705,3.315-0.764,4.572
				c2.247,1.326,13.062,2.915,17.964-0.666c0.485-0.686,0.643-1.577,0.643-1.577S336.275,103.763,335.961,102.451z"/>
			
				<linearGradient id="SVGID_58_" gradientUnits="userSpaceOnUse" x1="307.4473" y1="101.7036" x2="307.341" y2="106.7517" gradientTransform="matrix(-0.9995 -0.033 -0.033 0.9995 637.751 9.9547)">
				<stop  offset="0" style="stop-color:#CED5D8"/>
				<stop  offset="1" style="stop-color:#FFFFFF"/>
			</linearGradient>
			<path fill="url(#SVGID_58_)" d="M331.819,103.476c2.354,0.876,4.818,3.355,1.977,5.784c-5.908,1.966-11.765,0.841-14.818-0.263
				C319.601,102.557,326.187,101.649,331.819,103.476z"/>
			<g>
				<path fill="#321908" d="M331.413,106.044c-0.079,2.486-2.105,4.441-4.529,4.357c-2.417-0.083-4.318-2.166-4.236-4.654
					c0.078-2.49,2.108-4.443,4.526-4.361C329.596,101.47,331.493,103.556,331.413,106.044z"/>
				
					<linearGradient id="SVGID_59_" gradientUnits="userSpaceOnUse" x1="307.3711" y1="101.8862" x2="307.3711" y2="108.7992" gradientTransform="matrix(-0.9995 -0.033 -0.033 0.9995 637.751 9.9547)">
					<stop  offset="0" style="stop-color:#42210B"/>
					<stop  offset="0.9984" style="stop-color:#94561D"/>
				</linearGradient>
				<path fill="url(#SVGID_59_)" d="M331.087,106.032c-0.075,2.303-1.95,4.105-4.191,4.031c-2.238-0.077-3.993-2.004-3.92-4.309
					c0.072-2.299,1.949-4.105,4.188-4.031C329.403,101.801,331.159,103.729,331.087,106.032z"/>
				
					<linearGradient id="SVGID_60_" gradientUnits="userSpaceOnUse" x1="307.5713" y1="102.3579" x2="307.5713" y2="109.0938" gradientTransform="matrix(-0.9995 -0.033 -0.033 0.9995 637.751 9.9547)">
					<stop  offset="0" style="stop-color:#42210B"/>
					<stop  offset="0.9815" style="stop-color:#C46C1B"/>
				</linearGradient>
				<path fill="url(#SVGID_60_)" d="M326.307,105.028c3.176-1.707,4.958,1.301,4.145,3.077c-0.743,1.214-2.061,2.009-3.556,1.958
					c-2.238-0.077-3.993-2.004-3.92-4.309c0.004-0.094,0.026-0.179,0.035-0.271C323.167,106.935,325.845,108.789,326.307,105.028z"
					/>
				<path fill="#211106" d="M328.981,105.962c-0.035,1.105-0.936,1.976-2.016,1.938c-1.077-0.037-1.922-0.965-1.887-2.072
					s0.938-1.979,2.015-1.941C328.173,103.927,329.019,104.853,328.981,105.962z"/>
				<path fill="#FFFFFF" d="M332.254,104.732c-0.028,0.79-0.672,1.413-1.443,1.386c-0.768-0.027-1.375-0.688-1.347-1.48
					c0.025-0.793,0.672-1.416,1.438-1.39C331.674,103.276,332.278,103.94,332.254,104.732z"/>
			</g>
			<path d="M337.335,101.701c-0.936,0.085-2.307-0.248-4.013-0.456c-4.515-0.779-7.916-0.783-12.53,1.135
				c-1.028,0.486-1.879,1.059-2.741,1.789c-0.366,1.173-0.247,3.609,0.095,4.924c0.14-0.942,0.5-2.804,0.932-3.57
				c0.252-0.43,1.203-1.199,2.211-1.684c1.697-0.784,6.954-2.286,12.344-0.582c1.406,0.581,2.916,2.745,2.811,3.86
				c-0.093,0.415-0.771,1.04-1.52,1.669c1.664-0.655,1.834-0.991,2.182-1.57c0.016-0.944-0.217-2.133-0.471-3.227
				C337.07,103.497,337.404,102.748,337.335,101.701z"/>
		</g>
		<path d="M305.035,95.305c-7.001-0.122-17.808-6.017-24.435,0.225c-0.231,0.22-0.356,1.004,0.184,0.772
			c4.561-1.975,8.242-1.734,13.064-1.006c3.522,0.529,8.029,2.951,11.555,2.342C306.37,97.473,306.456,95.331,305.035,95.305z"/>
		<path d="M316.013,95.487c7.336,0.078,17.467-5.516,23.898,0.762c0.224,0.217,0.348,0.979-0.178,0.751
			c-4.45-1.927-8.045-1.69-12.748-0.98c-3.437,0.517-7.457,2.336-10.896,1.742C315.146,97.599,314.625,95.472,316.013,95.487z"/>
		<path fill="#5C2D0F" d="M293.727,136.345c1.508,0.028,2.979-0.129,3.927-0.21c1.854-0.228,7.178-0.978,13.369-0.912
			c6.426,0.067,13.024,0.975,14.746,1.101c1.498-0.012,2.79,0.289,2.79,0.289s-0.783,0.825-1.473,1.239
			c-1.129,1.624-3.846,5.202-5.233,7.202c-2.674,4.086-15.799,6.445-21.001-0.42c-1.396-1.622-3.714-4.995-4.994-6.645
			C295.308,137.763,294.974,137.179,293.727,136.345z"/>
		<g>
			<path fill="#ADBCC7" d="M312.344,145.616c-3.468,0.189-9.003-1.371-10.313-2.412c-1.847-1.965-3.992-4.137-4.783-5.094
				c5.865,0.481,19.502,0.548,28.252-0.141c-0.559,0.67-3.658,4.406-4.916,5.436C318.696,144.603,315.101,145.462,312.344,145.616z"
				/>
			<linearGradient id="SVGID_61_" gradientUnits="userSpaceOnUse" x1="297.4248" y1="142.25" x2="322.2753" y2="142.25">
				<stop  offset="0.0306" style="stop-color:#C5D3D9"/>
				<stop  offset="0.153" style="stop-color:#C5D3D9"/>
				<stop  offset="0.1924" style="stop-color:#D0DBE0"/>
				<stop  offset="0.308" style="stop-color:#EAEFF1"/>
				<stop  offset="0.4118" style="stop-color:#F9FBFB"/>
				<stop  offset="0.4932" style="stop-color:#FFFFFF"/>
				<stop  offset="0.6822" style="stop-color:#FCFDFE"/>
				<stop  offset="0.8139" style="stop-color:#F3F8FA"/>
				<stop  offset="0.9278" style="stop-color:#E4EFF4"/>
				<stop  offset="0.9537" style="stop-color:#DFECF2"/>
			</linearGradient>
			<path fill="url(#SVGID_61_)" d="M322.624,139.019c0.01-0.275-5.982-0.097-11.764-0.047c-5.199,0.048-10.231-0.06-10.559,0.235
				c0.051,0.582,0.15,1.002,0.284,1.392c1.018,0.75,2.278,1.277,3.5,1.719c-1.192-0.039-2.397-0.393-3.045-0.611
				c0.103,0.236,0.212,0.494,0.329,0.801c0.221,0.234,0.443,0.466,0.66,0.697c1.311,1.041,6.846,2.602,10.313,2.412
				c2.757-0.154,6.353-1.014,8.239-2.211c0.215-0.178,0.485-0.436,0.788-0.741c0.121-0.354,0.231-0.651,0.336-0.924
				c-0.667,0.22-1.786,0.511-2.878,0.649c1.394-0.526,2.558-1.244,3.306-1.74C322.33,140.144,322.49,139.673,322.624,139.019z"/>
		</g>
		<path d="M349.552,73.677c-1.242-15.982-13.67-34.203-38.834-33.244c-21.732,0.826-34.361,14.097-37.281,27.81
			c-2.486,11.669-0.307,25.185-0.033,28.822c0.494-0.183,0.868-0.194,1.163-0.104c0.064,2.773,0.83,6.227,3.218,10.219
			c-0.819-6.716,0.819-6.471,0.49-10.891c-0.407-4.422,1.883-2.949,1.229-9.58c1.108-2.439,0.831-4.769,0.422-7.485
			c0.3-0.876,0.701-1.792,1.167-2.667c0.946-0.396,1.842-0.777,2.565-1.061c1.969-0.77,6.895-6.713,9.75-8.166
			c4.432-2.254,7.342,1.145,16.51-3.261c1.514,1.334,4.221,2.187,5.906,2.428c1.922,0.274,6.668-1.333,9,1.167
			c2.852,3.055,9.48,5.661,11.861,6.54c0.784,1.913,1.205,3.729,2.588,4.482c0.161,0.088,0.342,0.213,0.529,0.354
			c0.14,1.47,0.432,2.763,1.109,3.738c1.473,2.129,3.332,6.695,2.986,8.639c-0.859,4.83,1.105,10.273,1.351,13.713
			c1.065-2.539,1.106-5.013,1.394-7.695c0.038-0.354,0.015-0.703-0.031-1.051c0.25-0.354,0.629-0.588,1.26-0.588
			C347.946,92.159,350.36,84.063,349.552,73.677z"/>
	</g>
</g>
</svg>
