<?xml version="1.0" encoding="utf-8"?>
<!-- Generator: Adobe Illustrator 15.0.0, SVG Export Plug-In . SVG Version: 6.00 Build 0)  -->
<!DOCTYPE svg PUBLIC "-//W3C//DTD SVG 1.1//EN" "http://www.w3.org/Graphics/SVG/1.1/DTD/svg11.dtd">
<svg version="1.1" id="Capa_3_1_" xmlns="http://www.w3.org/2000/svg" xmlns:xlink="http://www.w3.org/1999/xlink" x="0px" y="0px"
	 width="600px" height="800px" viewBox="0 0 600 800" enable-background="new 0 0 600 800" xml:space="preserve">
<rect fill="#FFFFFF" width="600" height="800"/>
<g>
	<g>
		<g>
			<path fill="#B0683A" d="M316.536,702.13c0.685,7.376-2.527,14.113-4.551,22.112c-1.463,5.784-1.029,10.533,1.328,13.368
				c2.521,3.037,12.119,3.312,18.91,1.703c3.92-0.928,12.223-1.316,16.02-0.516c3.794,0.802,13.678,2.583,19.806,2.457
				c4.948-0.106,9.8-1.07,9.8-1.07s8.175,1.697,12.633,0.496c6.332-1.707,8.174-9.066,6.811-10.604
				c-0.684-0.769-6.576-1.101-13.072-2.964c-6.492-1.865-12.531-6.876-16.086-9.997c-5.081-4.464-15.108-8.764-18.566-14.201
				C341.479,700.399,322.217,702.87,316.536,702.13z"/>
			
				<linearGradient id="SVGID_1_" gradientUnits="userSpaceOnUse" x1="269.832" y1="717.4258" x2="360.7481" y2="720.7376" gradientTransform="matrix(0.9995 -0.0304 0.0287 0.9432 -21.0032 52.9344)">
				<stop  offset="6.030000e-006" style="stop-color:#E0905E"/>
				<stop  offset="0.9053" style="stop-color:#FCB576"/>
				<stop  offset="1" style="stop-color:#FFB979"/>
			</linearGradient>
			<path fill="url(#SVGID_1_)" d="M378.219,737.767c0,0-5.298,1.186-10.229,1.38c-4.937,0.2-10.145-0.725-19.157-2.841
				c-3.143-0.741-11.173-0.325-17.218,0.627c-10.925,1.726-15.5-0.354-16.106-1.08c-1.731-2.08-2.013-6.073-0.778-10.955
				c0.546-2.154,1.191-4.254,1.816-6.287c1.407-4.566,3.139-9.451,3.289-14.09c0.998,0.002,1.789,0.508,3.201,0.462
				c1.313-0.042,2.73-0.101,4.214-0.163c1.601-0.066,3.28-0.137,4.978-0.188c5.269-0.174,10.516-0.725,14.43,0.197
				c2.75,3,8.236,6.757,12.566,9.489c2.694,1.696,5.236,3.304,7.016,4.866c7.377,6.479,15.877,11.232,27.789,12.203
				c1.052,0.191,1.934,2.232-1.486,5.727C388.661,739.948,381.698,738.218,378.219,737.767z"/>
		</g>
		<g>
			<path fill="#B0683A" d="M316.579,584.343c-6.293,7.646-13.424,23.607-13.02,39.057c0.312,11.838,3.611,22.637,7.615,36.352
				c3.729,13.236,5.633,27.752,5.397,45.016c15.446,0,28.971-0.904,33.245-0.904c-6.681-32.144,3.202-108.871,5.198-120.998
				C342.534,582.359,322.071,585.356,316.579,584.343z"/>
			<linearGradient id="SVGID_2_" gradientUnits="userSpaceOnUse" x1="296.7949" y1="647.6416" x2="345.6736" y2="646.8781">
				<stop  offset="6.030000e-006" style="stop-color:#E0905E"/>
				<stop  offset="0.9053" style="stop-color:#FCB576"/>
				<stop  offset="1" style="stop-color:#FFB979"/>
			</linearGradient>
			<path fill="url(#SVGID_2_)" d="M346.907,705.079c-5.438,1.645-20.393,6.019-27.072-0.559c0.149-16.652-2.541-34.173-5.902-46.693
				c-4.969-15.761-7.438-23.188-7.67-34.92c-0.232-11.838,5.418-26.406,10.454-34.332c0.249,0.006,0.511,0.008,0.785,0.008
				c3.438,0,8.532-0.541,14.435-1.168c6.473-0.688,13.755-1.463,19.611-1.555C349.395,601.095,341.624,664.632,346.907,705.079z"/>
		</g>
		<g>
			<path fill="#B0683A" d="M314.858,567.808c-0.49,7.367-3.109,21.943-4.092,26.197c20.037-5.178,38.084-6.604,42.738-1.801
				c4.422-8.188,6.588-18.124,7.504-22.502c-0.435-5.811-1.473-12.213-1.994-13.729C347.56,556.982,319.767,567.708,314.858,567.808
				z"/>
			<linearGradient id="SVGID_3_" gradientUnits="userSpaceOnUse" x1="303.418" y1="580.2803" x2="339.751" y2="577.6138">
				<stop  offset="6.030000e-006" style="stop-color:#E0905E"/>
				<stop  offset="0.9053" style="stop-color:#FCB576"/>
				<stop  offset="1" style="stop-color:#FFB979"/>
			</linearGradient>
			<path fill="url(#SVGID_3_)" d="M314.009,593.788c0.933-3.452,1.67-9.607,2.652-14.354c0.68-3.288,1.499-6.726,1.803-9.171
				c2.893-0.584,7.466-2.942,13.807-4.76c8.035-2.303,17.771-5.09,24.268-6.152c0.413,2.529,0.941,6.596,1.254,10.689
				c-0.193,1.873-4.023,11.331-6.58,19.339c-3.246,2.021-9.197,5.587-16.666,5.587C334.546,594.966,318.071,596.105,314.009,593.788
				z"/>
			<linearGradient id="SVGID_4_" gradientUnits="userSpaceOnUse" x1="291.9668" y1="581.1006" x2="348.2503" y2="577.6263">
				<stop  offset="6.030000e-006" style="stop-color:#E0905E"/>
				<stop  offset="0.9053" style="stop-color:#FCB576"/>
				<stop  offset="1" style="stop-color:#FFB979"/>
			</linearGradient>
			<path fill="url(#SVGID_4_)" d="M356.538,559.351c-6.496,1.063-16.232,3.85-24.268,6.152c-3.59,1.027-6.547,1.868-8.98,2.518
				c-1.063,5.027-3.682,17.143-2.057,24.369c5.744,1.945,14.75,3.582,14.75,3.582c7.469,0,10.808-0.491,14.246-3.932
				c4.586-6.223,7.369-20.127,7.563-22C357.479,565.946,356.951,561.88,356.538,559.351z"/>
		</g>
		<g>
			<path fill="#B0683A" d="M378.327,384.898c5.445,37.909,3.953,135.321-21.943,178.507c-14.094,8.959-36.197,8.959-41.322,7.678
				c-3.202-24.312-10.71-171.424-11.992-184.221C319.431,386.862,362.101,386.698,378.327,384.898z"/>
			<linearGradient id="SVGID_5_" gradientUnits="userSpaceOnUse" x1="265.6812" y1="485.2344" x2="353.3367" y2="483.5652">
				<stop  offset="6.030000e-006" style="stop-color:#E0905E"/>
				<stop  offset="0.9053" style="stop-color:#FCB576"/>
				<stop  offset="1" style="stop-color:#FFB979"/>
			</linearGradient>
			<path fill="url(#SVGID_5_)" d="M316.821,579.4c0.322-4.798,0.727-9.549,0.844-10.812c-2.092-18.736-5.63-81.766-8.242-128.291
				c-1.293-23.054-2.355-41.982-2.928-49.967c23.641-0.125,58.256-1.57,69.34-2.339c5.242,41.667,1.2,135.298-21.563,173.335
				C347.564,572.333,326.255,579.4,316.821,579.4z"/>
		</g>
		<path fill="#B0683A" d="M325.815,700.491c-0.229-3.22,0.778-11.719,1.801-16.159c-0.03-0.12-0.064-0.259-0.092-0.364
			c-2.098,5.549-3.961,15.536-3.729,17.264c0.282,2.085,7.223,5.92,9.787,6.412c-0.018-0.067-0.037-0.143-0.055-0.211
			C330.345,705.863,326.558,701.905,325.815,700.491z"/>
	</g>
	<g>
		<path fill="#B0683A" d="M264.589,346.089c-5.128,9.865-17.918,37.824-20.715,60.023c12.428,2.3,66.486-2.141,69.902-2.469
			c-0.466-9.865-0.932-51.134-0.932-53.764C308.496,350.208,268.007,346.745,264.589,346.089z"/>
		<linearGradient id="SVGID_6_" gradientUnits="userSpaceOnUse" x1="290.6187" y1="377.9883" x2="255.9519" y2="375.9883">
			<stop  offset="0" style="stop-color:#E08D58"/>
			<stop  offset="0.9952" style="stop-color:#E89A68"/>
		</linearGradient>
		<path fill="url(#SVGID_6_)" d="M255.921,403.81c-3.676,0-6.638-0.092-8.855-0.277c3.078-19.707,14.385-43.773,19.816-54.988
			c8.038,1.194,33.728,3.522,43.19,4.201c0.091,9.157,0.438,36.834,0.804,48.18C301.661,401.692,273.397,403.81,255.921,403.81z"/>
	</g>
	<g>
		<path fill="#B0683A" d="M372.65,203.222c-16.931-10.686-31.222-19.892-44.583-30.417c0.02,7.564-0.244,34.28-0.543,39.215
			c11.496,0.296,44.713,0.524,46.575,0.52C374.405,209.251,372.658,205.853,372.65,203.222z"/>
		<linearGradient id="SVGID_7_" gradientUnits="userSpaceOnUse" x1="405.374" y1="193.813" x2="329.4235" y2="197.5406">
			<stop  offset="6.030000e-006" style="stop-color:#E0905E"/>
			<stop  offset="0.3546" style="stop-color:#ECA068"/>
			<stop  offset="1" style="stop-color:#FFB979"/>
		</linearGradient>
		<path fill="url(#SVGID_7_)" d="M375.06,215.719c-3.156-0.087-37.869-2.8-43.574-2.96c0.053-0.796-1.585-27.293-1.242-35.678
			c5.748,5.754,35.221,23.479,42.953,28.031C373.208,205.388,375.055,214.945,375.06,215.719z"/>
	</g>
	<g>
		<path fill="#B0683A" d="M239.524,188.262c15.611-1.728,43.496-14.632,52.66-19.237c2.33,5.919,12.738,33.87,14.602,39.789
			c-9.786,0.492-62.446-2.469-65.242-2.469C241.544,199.44,239.991,193.687,239.524,188.262z"/>
		<linearGradient id="SVGID_8_" gradientUnits="userSpaceOnUse" x1="274.3901" y1="188.4604" x2="312.7159" y2="191.3454">
			<stop  offset="6.030000e-006" style="stop-color:#E0905E"/>
			<stop  offset="0.3546" style="stop-color:#ECA068"/>
			<stop  offset="1" style="stop-color:#FFB979"/>
		</linearGradient>
		<path fill="url(#SVGID_8_)" d="M302.885,205.904c-10.752-0.065-56.76-2.333-58.675-2.417c-0.293-3.325-2.265-10.672-2.511-11.939
			c9.298-3.15,35.531-12.172,49.58-19.115C293.876,179.486,300.026,197.226,302.885,205.904z"/>
	</g>
	<g>
		<path fill="#B0683A" d="M283.79,129.515c2.701,20.141,2.701,33.159,0.245,47.896c0.983,14.736,4.422,19.648,5.896,21.123
			c6.344,1.192,30.354,1.96,34.388,2.211c2.456-1.474,8.401-6.528,11.461-18.504c-3.93-11.79-1.807-39.85-1.653-53.66
			C326.352,128.728,287.533,129.77,283.79,129.515z"/>
		<linearGradient id="SVGID_9_" gradientUnits="userSpaceOnUse" x1="261.9116" y1="164.2695" x2="313.6577" y2="168.8545">
			<stop  offset="0" style="stop-color:#E08D58"/>
			<stop  offset="0.9952" style="stop-color:#E89A68"/>
		</linearGradient>
		<path fill="url(#SVGID_9_)" d="M340.038,208.44c-2.549,0.019-9.932,2.793-15.146,2.894l-0.585,0.009
			c-11.859,0.23-36.618-5.503-43.71-5.932c2.494-5.887,3.299-14.167,4.422-21.369c4.912-19.649,2.646-42.259,1.795-54.152
			c1.098,0.092,36.912-1.454,46.136-1.15c-0.681,9.896-3.844,39.354,1.56,57.857C335.759,194.819,339.382,201.563,340.038,208.44z"
			/>
		<linearGradient id="SVGID_10_" gradientUnits="userSpaceOnUse" x1="262.79" y1="170.0376" x2="315.9852" y2="170.0376">
			<stop  offset="6.030000e-006" style="stop-color:#E0905E"/>
			<stop  offset="0.3546" style="stop-color:#ECA068"/>
			<stop  offset="1" style="stop-color:#FFB979"/>
		</linearGradient>
		<path fill="url(#SVGID_10_)" d="M334.509,186.597c-5.403-18.504-2.24-47.961-1.56-57.857c-0.151-0.004-0.329-0.01-0.495-0.014
			c-1.316,10.225-4.176,20.019-11.208,29.213c-6.878,7.859-16.703,8.844-26.527,5.896c-0.885,14.156-1.762,29.104-1.929,43.416
			c10.271,1.803,23.696,4.244,31.517,4.092l0.585-0.009c5.215-0.101,12.598-2.875,15.146-2.894
			C339.382,201.563,335.759,194.819,334.509,186.597z"/>
	</g>
	<g>
		<path fill="#B0683A" d="M392.534,310.421c4.66,11.345,6.874,18.18,9.32,30.087c5.797,28.218,5.437,60.505,9.863,76.288
			c-2.484,0.659-22.135,4.277-23.377,4.605c-8.233-45.378-32.466-73-22.835-109.502
			C378.556,307.297,388.497,311.407,392.534,310.421z"/>
		<linearGradient id="SVGID_11_" gradientUnits="userSpaceOnUse" x1="359.9932" y1="369.6323" x2="394.3813" y2="363.0824">
			<stop  offset="0" style="stop-color:#E08D58"/>
			<stop  offset="0.9952" style="stop-color:#E89A68"/>
		</linearGradient>
		<path fill="url(#SVGID_11_)" d="M390.532,417.943c-3.225-16.192-8.446-30.333-13.082-42.892
			c-7.854-21.269-14.664-39.705-9.638-60.813c3.512-1.082,7.114-1.61,10.96-1.61c2.9,0,5.443,0.29,7.687,0.547
			c1.632,0.188,3.046,0.351,4.3,0.364c4.232,10.478,6.18,16.975,8.363,27.598c2.911,14.166,4.366,29.523,5.651,43.072
			c1.13,11.918,2.124,22.41,3.874,30.23c-3.143,0.637-8.18,1.6-12.185,2.365C393.847,417.304,391.917,417.672,390.532,417.943z"/>
		<linearGradient id="SVGID_12_" gradientUnits="userSpaceOnUse" x1="346.8389" y1="371.125" x2="393.2617" y2="363.5285">
			<stop  offset="6.030000e-006" style="stop-color:#E0905E"/>
			<stop  offset="0.9053" style="stop-color:#FCB576"/>
			<stop  offset="1" style="stop-color:#FFB979"/>
		</linearGradient>
		<path fill="url(#SVGID_12_)" d="M399.122,341.138c-2.184-10.623-4.131-17.12-8.363-27.598c-1.254-0.014-1.072-2.799-2.703-2.984
			c-0.827-0.095-3.93,8.679-4.912,10.644c-4.748,9.988-4.664,20.549-4.258,31.931c1.713,17.121,12.117,55.84,14.574,64.189
			c1.383-0.269,0.387-0.016,3.003-0.514c4.005-0.766,9.042-1.729,12.185-2.365c-1.75-7.82-2.744-18.313-3.874-30.23
			C403.488,370.661,402.033,355.304,399.122,341.138z"/>
	</g>
	<g>
		<path fill="#B0683A" d="M389.864,243.218c0.824,23.027,4.729,49.605,4.096,73.947c-1.082,7.574-7.179,8.23-9.145,8.975
			c-4.039,0.043-15.846-5.01-18.5-10.9c-2.17-15.76-3.234-71.752-3.268-75.041C370.86,242.417,387.543,241.927,389.864,243.218z"/>
		<linearGradient id="SVGID_13_" gradientUnits="userSpaceOnUse" x1="354.4893" y1="284.5576" x2="379.0522" y2="282.9198">
			<stop  offset="0" style="stop-color:#E08D58"/>
			<stop  offset="0.9952" style="stop-color:#E89A68"/>
		</linearGradient>
		<path fill="url(#SVGID_13_)" d="M388.499,326.841c-2.596,0.027-10.681,1.267-19.602-5.627
			c-1.762-15.003-2.986-64.139-3.197-77.311c4.826-9.11,15.383-5.048,22.547,3.77c0.236,18.231,3.217,50.135,3.145,65.08
			C391.22,317.192,392.572,322.853,388.499,326.841z"/>
		<linearGradient id="SVGID_14_" gradientUnits="userSpaceOnUse" x1="345.3291" y1="289.9614" x2="383.321" y2="282.4288">
			<stop  offset="6.030000e-006" style="stop-color:#E0905E"/>
			<stop  offset="0.9053" style="stop-color:#FCB576"/>
			<stop  offset="1" style="stop-color:#FFB979"/>
		</linearGradient>
		<path fill="url(#SVGID_14_)" d="M388.499,326.841c4.073-3.988,2.721-9.648,2.893-14.088c0.072-14.945-2.908-46.849-3.145-65.08
			c-5.532-6.807-13.081-10.773-18.458-8.041c0.205,30.883-1.792,85.373,13.6,88.159
			C385.027,328.118,387.237,327.421,388.499,326.841z"/>
	</g>
	<g>
		<path fill="#B0683A" d="M354.884,191.918c27.187,5.304,38.518,29.391,35.769,70.639c-7.25-24.661-43.804-53.433-46.826-56.063
			c1.456-1.385,1.207-7.62,2.901-11.162C347.858,195.084,352.882,192.082,354.884,191.918z"/>
		<linearGradient id="SVGID_15_" gradientUnits="userSpaceOnUse" x1="280.7637" y1="242.1641" x2="381.6428" y2="221.874">
			<stop  offset="6.030000e-006" style="stop-color:#E0905E"/>
			<stop  offset="0.9053" style="stop-color:#FCB576"/>
			<stop  offset="1" style="stop-color:#FFB979"/>
		</linearGradient>
		<path fill="url(#SVGID_15_)" d="M388.568,258.137c-4.007-4.597-12.983-16.54-17.968-20.979
			c-13.602-12.114-25.006-27.048-28.746-31.182c0.454-1.972,2.945-12.577,5.778-14.919
			C361.53,195.659,390.683,201.884,388.568,258.137z"/>
	</g>
	<g>
		<path fill="#B0683A" d="M242.943,192.29c-7.146,57.215,3.728,71.272,14.913,106.786c7.454,21.704,10.834,30.224,4.931,51.601
			c15.845-4.277,22.097,13.506,38.874,46.061c0.467,10.852,6.99,35.021,9.32,35.021c5.281,0,14.135,5.096,21.902,1.479
			c5.592-9.865,41.943-45.873,42.641-64.122c0.741-15.66-8.377-42.58-7.445-66.749c-2.486-17.429-2.806-33.425-2.106-39.462
			c-1.244-25.648-6.596-36.891-6.284-50.37c-1.955,0-52.436-2.243-52.436-2.243S247.602,191.794,242.943,192.29z"/>
		<linearGradient id="SVGID_16_" gradientUnits="userSpaceOnUse" x1="290.4331" y1="312.5967" x2="264.4331" y2="311.2632">
			<stop  offset="0" style="stop-color:#E08D58"/>
			<stop  offset="0.9952" style="stop-color:#E89A68"/>
		</linearGradient>
		<path fill="url(#SVGID_16_)" d="M312.239,429.929c-0.49-10.971-11.51-33.686-11.51-33.686
			c-9.479-18.391-22.393-15.529-30.245-24.119c-5.819-6.365-6.224-15.064-5.11-20.074c5.28-13.482,3.799-33.719-3.078-47.965
			c-5.408-11.203-6.862-21.327-10.563-30.947c-7.367-19.158-10.205-45.057-6.631-79.092c8.598,3.07,37.943,9.815,67.668,12.527
			c33.41,3.049,38.074-3.438,42.496-6.811c1.292,4.268,9.208,23.854,11.474,28.318c4.772,9.405,10.18,20.064,8.274,33.395
			c-0.271,2.326-1.076,6.439-2.096,11.648c-1.571,8.016-3.721,18.994-5.059,29.504l-0.017,0.137l-2.338,1.737
			c-0.611,15.821,3.391,30.909,5.126,43.406c0.898,6.47,2.375,16.489,2.33,19.235c-0.467,27.539-4.722,35.12-22.404,44.118
			c-9.334,4.748-14.246,10.645-19.554,19.584C329.433,430.583,314.026,430.095,312.239,429.929z"/>
		<linearGradient id="SVGID_17_" gradientUnits="userSpaceOnUse" x1="225.1519" y1="309.7456" x2="310.8876" y2="309.081">
			<stop  offset="6.030000e-006" style="stop-color:#E0905E"/>
			<stop  offset="0.9053" style="stop-color:#FCB576"/>
			<stop  offset="1" style="stop-color:#FFB979"/>
		</linearGradient>
		<path fill="url(#SVGID_17_)" d="M366.44,286.894c0.528-5.28,8.304-23.092,8.574-25.418c1.905-13.33-3.502-23.989-8.274-33.395
			c-2.266-4.465-10.182-24.051-11.474-28.318c-2.603-0.193-10.766-1.604-14.738-1.789c-5.049-0.23-8.476-1.225-18.791,0
			c-5.404,4.056-7.615,2.826-12.404-0.242c-5.73-3.168-8.965-3.07-20.387-3.686c-7.047-0.377-13.088-3.526-17.686-4.912
			c-13.014-3.92-21.193,0.322-26.455,3.074c-1.979,18.863,5.623,33.373,7.174,48.018c16.242,18.842,21.822,40.811,25.299,66.317
			c2.376,12.2,4.667,24.317,1.721,36.107c-6.879,19.979-3.273,40.935,17.686,52.073c3.613,4.055,9.956,2.105,13.428,8.842
			c0,0,1.637,15.393,2.127,26.363c1.787,0.166,17.193,0.654,18.765,0.917c5.308-8.939,10.22-14.836,19.554-19.584
			c17.683-8.998,21.938-16.579,22.404-44.118c0.045-2.746-1.432-12.766-2.33-19.235c-1.735-12.497-5.737-27.585-5.126-43.406
			C365.506,304.502,365.704,294.261,366.44,286.894z"/>
	</g>
	<ellipse fill="#B0683A" cx="334.398" cy="343.468" rx="1.98" ry="4.934"/>
	<g>
		<g>
			<path fill="#B0683A" d="M216.614,220.159c-9.744,20.555-22.52,47.002-36.603,69.927c10.022,0.739,34.177,8.382,41.02,7.533
				c10.226-24.589,21.897-47.825,29.64-66.647C245.413,223.492,225.605,214.576,216.614,220.159z"/>
			<linearGradient id="SVGID_18_" gradientUnits="userSpaceOnUse" x1="252.8081" y1="278.9072" x2="204.6644" y2="250.9052">
				<stop  offset="6.030000e-006" style="stop-color:#E0905E"/>
				<stop  offset="0.3546" style="stop-color:#ECA068"/>
				<stop  offset="1" style="stop-color:#FFB979"/>
			</linearGradient>
			<path fill="url(#SVGID_18_)" d="M218.558,295.373c-5.959,0-32.998-4.132-36.171-4.468c14.421-22.723,27.157-49.521,36.434-68.858
				c2.37-1.231,6.161-4.025,10.189-4.025c8.986,0,17.923,3.176,21.392,7.431c-3.639,8.703-8.639,19.576-13.913,31.049
				c-5.98,13.008-12.155,26.441-17.37,38.867c-0.178,0.003-0.363,0.005-0.559,0.005H218.558z"/>
		</g>
		<path fill="#B0683A" d="M265.652,184.689c-27.136-6.456-46.71,11.054-57.661,54.95c15.254-19.729,38.625-10.107,43.334-8.176
			c9.171-5.239,16.499-22.158,18.802-27.42C270.127,196.152,268.688,186.944,265.652,184.689z"/>
		<linearGradient id="SVGID_19_" gradientUnits="userSpaceOnUse" x1="288.4585" y1="242.3252" x2="224.2187" y2="203.197">
			<stop  offset="6.030000e-006" style="stop-color:#E0905E"/>
			<stop  offset="0.3546" style="stop-color:#ECA068"/>
			<stop  offset="1" style="stop-color:#FFB979"/>
		</linearGradient>
		<path fill="url(#SVGID_19_)" d="M211.942,236.048c8.435-34.633,28.492-56.248,52.533-48.658c1.479,1.623,2.976,8.088,3.057,15.985
			c-0.353,0.864-0.71,1.831-1.108,2.917c-2.134,5.783-4.418,14.986-12.111,20.914C241.362,237.071,214.604,237.282,211.942,236.048z
			"/>
	</g>
	<g>
		<path fill="#B0683A" d="M253.821,219.345c-3.757,3.514-3.756,8.578-5.28,14.37c1.907,15.728,15.526,39.662,45.687,47.528
			c9.088-18.422,12.525-43.229,13.51-45.934C299.876,231.136,270.364,203.882,253.821,219.345z"/>
		<linearGradient id="SVGID_20_" gradientUnits="userSpaceOnUse" x1="207.0981" y1="195.4097" x2="261.5044" y2="232.4971">
			<stop  offset="6.030000e-006" style="stop-color:#E0905E"/>
			<stop  offset="0.9053" style="stop-color:#FCB576"/>
			<stop  offset="1" style="stop-color:#FFB979"/>
		</linearGradient>
		<path fill="url(#SVGID_20_)" d="M293.168,278.915c-25.614-7.354-37.175-25.408-43.276-44.587
			c-3.438-10.808-2.939-22.554,2.578-25.544c5.896-3.192,15.91,1.695,19.16,3.193c12.771,5.895,17.138,10.717,26.46,18.421
			c3.12,2.577,5.558,4.593,7.38,5.826c-0.178,0.806-0.402,1.915-0.714,3.464C303.082,248.024,299.663,265.06,293.168,278.915z"/>
	</g>
	<g>
		<path fill="#B0683A" d="M257.385,692.165c1.921,7.567,5.917,13.785,5.937,19.867c-0.365,4.802-2.486,12.721-1.437,24.367
			C258.394,728.3,256.89,697.015,257.385,692.165z"/>
		<g>
			<path fill="#B0683A" d="M270.155,631.013c1.959-17.227-1.637-28.656-0.654-48.307c-1-0.025-30.515-0.041-34.539-0.795
				c-24.739,53.854-3.15,81.516-2.434,143.021c7.916-0.375,28.628,4,31.44,4.358c-2.778-8.624-6.503-37.649-2.901-57.013
				C263.987,653.927,268.589,644.793,270.155,631.013z"/>
			<path fill="#B0683A" d="M237.351,546.024c-0.759,17.509-3.107,37.158-6.213,48.666c5.051,2.102,29.065,11.614,37.053,6.848
				c3.698-12.402,4.273-22.671,5.078-34.877C267.896,564.243,241.398,546.19,237.351,546.024z"/>
			<linearGradient id="SVGID_21_" gradientUnits="userSpaceOnUse" x1="259.083" y1="575.1816" x2="227.6416" y2="574.5262">
				<stop  offset="0" style="stop-color:#E08D58"/>
				<stop  offset="0.9952" style="stop-color:#E89A68"/>
			</linearGradient>
			<path fill="url(#SVGID_21_)" d="M241.39,552.272c-1.791,7.115-4.504,33.018-6.525,41.104c2.486,1.314,9.01,2.3,12.848,4.158
				c3.55-15.129,7.293-30.18,11.976-44.88C253.541,552.38,247.042,552.469,241.39,552.272z"/>
			
				<linearGradient id="SVGID_22_" gradientUnits="userSpaceOnUse" x1="237.6455" y1="575.2188" x2="271.6033" y2="591.1749" gradientTransform="matrix(0.9993 -0.0382 0.0382 0.9993 -18.0535 9.7869)">
				<stop  offset="6.030000e-006" style="stop-color:#E0905E"/>
				<stop  offset="0.9053" style="stop-color:#FCB576"/>
				<stop  offset="1" style="stop-color:#FFB979"/>
			</linearGradient>
			<path fill="url(#SVGID_22_)" d="M253.25,568.215c-4.685,14.7-1.988,14.19-5.538,29.319c5.606,0.168,14.045,4.237,18.842,1.059
				c3.111-11.465,3.842-20.715,2.619-30.623C265.638,567.351,259.165,568.479,253.25,568.215z"/>
			<linearGradient id="SVGID_23_" gradientUnits="userSpaceOnUse" x1="242.0459" y1="653.4844" x2="208.6403" y2="644.3146">
				<stop  offset="0" style="stop-color:#E08D58"/>
				<stop  offset="0.9952" style="stop-color:#E89A68"/>
			</linearGradient>
			<path fill="url(#SVGID_23_)" d="M264.917,597.608c-0.09-2.799,1.363-11.648,1.674-12.649c-3.169-0.378-27.258-1.778-28.541-2.153
				c-16.152,32.678-12.064,63.691-6.308,96.391c2.854,16.207,2.1,30.658,2.636,47.446c3.438-0.904,19.76-2.187,25.535-3.203
				c-0.154-3.974,1.112-8.525,0.663-13.704c-0.194-2.253-2.808-6.762-4.176-10.193c-0.726-9.539-0.454-15.76,0.491-26.771
				c1.148-13.756,6.733-28.635,9.008-46.014C267.021,618.188,265.98,605.198,264.917,597.608z"/>
			<linearGradient id="SVGID_24_" gradientUnits="userSpaceOnUse" x1="213.2007" y1="653.3008" x2="244.6407" y2="653.9561">
				<stop  offset="6.030000e-006" style="stop-color:#E0905E"/>
				<stop  offset="0.9053" style="stop-color:#FCB576"/>
				<stop  offset="1" style="stop-color:#FFB979"/>
			</linearGradient>
			<path fill="url(#SVGID_24_)" d="M266.962,628.802c1.123-8.568,0.328-24.094-0.736-31.684c-0.338-5.491,0.055-11.158,0.365-12.159
				c-1.805-0.213-13.205,1.114-20.506,0.612c-26.528,51.338-2.948,117.408-8.352,137.472c6.209-0.38,17.818,1.165,22.18,0.396
				c-0.154-3.974,1.112-8.525,0.663-13.704c-0.194-2.253-2.151-7.006-3.519-10.438c-0.728-9.541,0.037-16.008,0.982-27.02
				C259.185,658.522,264.69,646.186,266.962,628.802z"/>
		</g>
		<g>
			<path fill="#B0683A" d="M231.483,698.448c-2.054,5.527-3.775,13.913-3.237,16.199c0.392,2.336,5.177,11.639,6.132,13.062
				C234.286,721.538,234.277,705.685,231.483,698.448z"/>
			<linearGradient id="SVGID_25_" gradientUnits="userSpaceOnUse" x1="230.2988" y1="712.1309" x2="212.6118" y2="710.9026">
				<stop  offset="0" style="stop-color:#E08D58"/>
				<stop  offset="0.9952" style="stop-color:#E89A68"/>
			</linearGradient>
			<path fill="url(#SVGID_25_)" d="M233.367,720.772c-1.423-3.082-2.442-5.967-2.692-6.947c-0.203-0.859,0.51-5.546,1.906-9.965
				c0.662,2.105,1.863,4.678,2.413,7.165C234.896,712.478,233.808,717.806,233.367,720.772z"/>
		</g>
		<g>
			<path fill="#B0683A" d="M246.576,389.319c-20.633,56.248-11.626,160.147-10.808,185.201c11.186-11.837,26.203-5,35.698,2.619
				c9.497-17.684,53.97-147.379,56.579-167.596C299.095,397.454,258.05,391.578,246.576,389.319z"/>
			<linearGradient id="SVGID_26_" gradientUnits="userSpaceOnUse" x1="264.1846" y1="485.4561" x2="238.6847" y2="482.4561">
				<stop  offset="0" style="stop-color:#E08D58"/>
				<stop  offset="0.9952" style="stop-color:#E89A68"/>
			</linearGradient>
			<path fill="url(#SVGID_26_)" d="M238.226,572.72c0-37.734-8.023-122.32,10.445-179.405c6.184,1.926,57.133,12.695,74.785,19.829
				c-9.754,30.564-40.037,121.34-53.721,162.662C262.05,574.903,246.923,565.812,238.226,572.72z"/>
			<linearGradient id="SVGID_27_" gradientUnits="userSpaceOnUse" x1="222.2988" y1="484.7393" x2="268.1482" y2="488.0139">
				<stop  offset="6.030000e-006" style="stop-color:#E0905E"/>
				<stop  offset="0.9053" style="stop-color:#FCB576"/>
				<stop  offset="1" style="stop-color:#FFB979"/>
			</linearGradient>
			<path fill="url(#SVGID_27_)" d="M262.952,399.964c-18.342,49.123-18.832,142.133-17.201,170.199
				c8.281-0.312,18.224,4.967,23.984,5.643c11.965-27.324,45.933-131.609,55.687-162.169
				C312.726,408.503,281.751,404.339,262.952,399.964z"/>
		</g>
		<path fill="#B0683A" d="M267.643,571.839c0.433,3.439-0.612,16.387-4.481,20.627c-8.51,5.969-16.086,2.818-17.979,2.072
			c-2.379-5.664,1.236-22.145,2.802-25.779c3.428-4.088,7.153-4.239,11.917-1.469C261.96,568.358,263.505,569.21,267.643,571.839z"
			/>
		
			<linearGradient id="SVGID_28_" gradientUnits="userSpaceOnUse" x1="216.2437" y1="580.3057" x2="254.4069" y2="582.8164" gradientTransform="matrix(0.9913 -0.1316 0.1316 0.9913 -71.0964 34.3413)">
			<stop  offset="6.030000e-006" style="stop-color:#E0905E"/>
			<stop  offset="0.9053" style="stop-color:#FCB576"/>
			<stop  offset="1" style="stop-color:#FFB979"/>
		</linearGradient>
		<path fill="url(#SVGID_28_)" d="M244.61,595.397c-2.412-6.129-1.57-19.162,0.983-25.463c8.106-7.697,17.931-12.855,21.814-0.316
			c0.272,3.942-3.937,19.082-6.964,21.344C252.962,596.626,247.269,595.782,244.61,595.397z"/>
		<g>
			<path fill="#B0683A" d="M231.866,722.421c-1.137,15.257-3.117,25.586-4.168,35.332c12.482,5.826,47.345-2.534,50.293-3.01
				c-6.427-8.291-8.123-14.947-10.764-20.701c-2.055-4.442-4.988-7.359-5.45-15.456C258.966,726.81,238.013,737.36,231.866,722.421z
				"/>
			<linearGradient id="SVGID_29_" gradientUnits="userSpaceOnUse" x1="238.853" y1="739.7441" x2="221.6593" y2="739.2529">
				<stop  offset="0" style="stop-color:#E08D58"/>
				<stop  offset="0.9952" style="stop-color:#E89A68"/>
			</linearGradient>
			<path fill="url(#SVGID_29_)" d="M230.702,759.18c0.23-8.149,1.871-23.964,3.731-34.007c5.442-6.709,17.157-6.914,25.237-2.641
				c0.278,2.266,0.418,1.874,1.744,5.047c0.855,2.066,1.598,3.729,3.42,7.07c2.146,3.945,4.449,12.574,9.877,20.031
				C263.474,757.675,236.996,761.855,230.702,759.18z"/>
			
				<linearGradient id="SVGID_30_" gradientUnits="userSpaceOnUse" x1="252.2329" y1="784.583" x2="253.4867" y2="739.7649" gradientTransform="matrix(0.9996 -0.0267 0.0267 0.9996 -20.4087 7.1724)">
				<stop  offset="6.030000e-006" style="stop-color:#E0905E"/>
				<stop  offset="0.9053" style="stop-color:#FCB576"/>
				<stop  offset="1" style="stop-color:#FFB979"/>
			</linearGradient>
			<path fill="url(#SVGID_30_)" d="M264.835,734.649c-1.822-3.342-2.564-5.004-3.42-7.07c-1.326-3.173-1.478-3.272-1.758-5.537
				c-8.131-5.434-18.609-0.731-22.193,3.052c-2.176,4.481-3.173,9.818-4.356,14.776c-0.97,7.883-2.256,13.988-2.405,19.31
				c6.294,2.676,32.771-1.505,44.01-4.499C269.284,747.224,266.98,738.595,264.835,734.649z"/>
			<path fill="#B0683A" d="M270.998,743.569c1.492,4.64,9.66,11.07,9.828,13.342c-1.094,4.068-2.722,5.675-6.231,7.27
				c-3.615,1.08-10.62,0.953-14.086-0.258c-1.309-2.326-1.857-8.799-2.715-11.368C260.71,752.864,271.404,752.048,270.998,743.569z"
				/>
			
				<linearGradient id="SVGID_31_" gradientUnits="userSpaceOnUse" x1="269.564" y1="769.3877" x2="270.7922" y2="749.4904" gradientTransform="matrix(0.9561 0.0166 -0.0174 0.9998 22.9591 -4.2661)">
				<stop  offset="0" style="stop-color:#E08D58"/>
				<stop  offset="0.9952" style="stop-color:#E89A68"/>
			</linearGradient>
			<path fill="url(#SVGID_31_)" d="M261.188,761.38c-0.845-2.043-2.498-8.156-2.709-8.889c3.715-1.409,8.254-5.295,11.335-5.652
				c2.173,4.805,8.493,8.762,8.612,9.461c-0.559,2.885-1.916,4.229-4.543,5.481C271.282,762.761,263.128,762.801,261.188,761.38z"/>
			
				<linearGradient id="SVGID_32_" gradientUnits="userSpaceOnUse" x1="274.3726" y1="790.7793" x2="269.46" y2="741.3256" gradientTransform="matrix(1 -1.000000e-004 1.000000e-004 1 -1.4578 -0.0879)">
				<stop  offset="6.030000e-006" style="stop-color:#E0905E"/>
				<stop  offset="0.9053" style="stop-color:#FCB576"/>
				<stop  offset="1" style="stop-color:#FFB979"/>
			</linearGradient>
			<path fill="url(#SVGID_32_)" d="M275.842,757.616c1.082-0.318,2.634-0.959,2.634-1.201c-0.119-0.697-6.786-5.459-8.957-10.266
				c-2.478,0.289-7.508,1.451-9.491,3.498C263.894,757.792,271.718,758.957,275.842,757.616z"/>
			<path fill="#B0683A" d="M262.701,765.152c-13.468,1.028-31.173,0.483-34.185-3.149c-1.277-1.233-2.346-4.681-1.604-6.311
				c0.851-1.875,1.98-4.049,2.436-6.764c3.931,2.041,24.323,4.836,31.478,2.093c0.454,1.521,0.844,2.664,2.39,4.355
				c1.755,1.472,3.604,2.464,4.112,3.558C267.286,761.319,264.902,764.556,262.701,765.152z"/>
			
				<linearGradient id="SVGID_33_" gradientUnits="userSpaceOnUse" x1="247.6108" y1="768.0303" x2="248.8389" y2="748.1364" gradientTransform="matrix(0.9561 0.0166 -0.0174 0.9998 22.9591 -4.2661)">
				<stop  offset="0" style="stop-color:#E08D58"/>
				<stop  offset="0.9952" style="stop-color:#E89A68"/>
			</linearGradient>
			<path fill="url(#SVGID_33_)" d="M251.081,763.235c-10.685-0.197-18.243-1.516-20.285-2.703c-1.261-1.24-1.443-3.734-1.219-4.791
				c0.702-1.12,1.129-2.096,1.744-6.322c5.551-0.92,18.179-1.821,27.996-0.166c0.432,3.436,2.113,6.549,2.113,6.549
				c0.714,1.248,2.127,1.903,3.232,3.011c0.241,2.042-1.563,3.601-2.939,4.104C258.347,763.253,255.083,763.31,251.081,763.235z"/>
			
				<linearGradient id="SVGID_34_" gradientUnits="userSpaceOnUse" x1="247.6094" y1="783.5342" x2="248.9158" y2="744.986" gradientTransform="matrix(1 -1.000000e-004 1.000000e-004 1 -1.4578 -0.0879)">
				<stop  offset="6.030000e-006" style="stop-color:#E0905E"/>
				<stop  offset="0.9053" style="stop-color:#FCB576"/>
				<stop  offset="1" style="stop-color:#FFB979"/>
			</linearGradient>
			<path fill="url(#SVGID_34_)" d="M264.579,759.68c0.842-1.349-2.123-2.077-3.148-3.878c0,0-1.375-3.109-1.807-6.541
				c-9.817-1.656-22.592-1.102-28.143-0.181c-0.616,4.226-1.202,5.541-1.904,6.661c-0.033,0.163-0.108,0.732-0.123,0.953
				c0.74,1.412,4.589,2.789,6.941,1.164c2.152,2.082,6.322,3.071,9.865,1.447c3.396,1.574,7.486,2.27,10.117,0.258
				C258.757,760.456,262.368,761.188,264.579,759.68z"/>
			<path fill="#B0683A" d="M253.642,763.437c0,0,0.643-0.281,0.766-0.424c0.248-0.289,0.466-0.703,0.631-1.148
				c0.167-0.445,0.29-0.932,0.359-1.419c0.068-0.466,0.076-1.017,0.002-1.285l0.022,0.058c-0.218-0.557-0.538-1.076-0.913-1.609
				c-0.372-0.535-1.727-2.806-1.941-3.393c-0.211-0.592-0.369-1.17-0.475-1.814l0.883-0.188c0.119,0.509,0.301,1.057,0.518,1.548
				c0.221,0.497,0.484,0.96,0.795,1.355c0,0,0.756,1.066,1.188,1.596c0.43,0.525,0.869,1.129,1.199,1.828l0.012,0.023l0.01,0.032
				c0.259,0.796,0.219,1.399,0.188,2.037c-0.048,0.63-0.157,1.239-0.338,1.84c-0.182,0.606-0.428,1.21-0.838,1.772
				c-0.207,0.281-0.459,0.553-0.775,0.771c-0.157,0.111-1.034,0.415-1.034,0.415L253.642,763.437z"/>
			<path fill="#B0683A" d="M244.584,763.194c0,0,0.344-0.244,0.429-0.416c0.174-0.344,0.307-0.799,0.398-1.268
				c0.088-0.471,0.141-0.962,0.155-1.45c0.011-0.472-0.001-0.999-0.113-1.337c-0.265-0.869-0.786-1.935-1.028-3.047
				c-0.268-1.107-0.336-2.259-0.283-3.375l0.91-0.277c0.021,1.033,0.172,2.343,0.473,3.286c0.283,0.973,0.773,1.771,1.218,2.894
				c0.247,0.67,0.269,1.244,0.311,1.834c0.022,0.594,0.001,1.176-0.067,1.766c-0.076,0.588-0.188,1.186-0.439,1.813
				c-0.132,0.311-1.298,1.471-1.451,1.514c-0.081,0.022-0.246,0.058-0.246,0.058L244.584,763.194z"/>
			<path fill="#B0683A" d="M237.227,763.979c-0.483-0.923-0.886-1.934-1.112-3.02c-0.223-1.082-0.25-2.313,0.17-3.43
				c0.1-0.279,0.439-0.881,0.439-0.881l0.002-0.004l0.006-0.01l0.24-0.465c0.189-0.4,0.346-0.83,0.475-1.28
				c0.258-0.895,0.428-1.868,0.5-2.804l0.889,0.018c0,1.061-0.096,2.078-0.306,3.107c-0.104,0.513-0.243,1.025-0.432,1.532
				c-0.048,0.126-0.491,1.113-0.543,1.304c-0.219,0.766-0.147,1.624,0.097,2.454c0.243,0.841,0.639,1.646,1.119,2.397
				L237.227,763.979z"/>
		</g>
	</g>
	<path fill="#B0683A" d="M261.804,184.632c5.732,1.555,17.686,8.678,38.81,9.66c8.843,0.736,8.843,3.357,12.938,5.486
		c-4.178-1.066-7.535-3.029-12.282-3.521c-23.417-0.492-38.646-10.644-39.956-10.971
		C260.986,184.14,261.642,184.957,261.804,184.632z"/>
	<g>
		<g>
			<path fill="#B0683A" d="M388.056,440.572c-1.146,6.798-3.685,13.429-5.238,18.669c-1.883,6.836,3.887,13.836,7.285,6.058
				c2.742-5.776,6.621-22.854,7.039-25.196C394.659,438.931,389.412,440.872,388.056,440.572z"/>
			<linearGradient id="SVGID_35_" gradientUnits="userSpaceOnUse" x1="392.8213" y1="432.04" x2="389.338" y2="456.6408">
				<stop  offset="6.030000e-006" style="stop-color:#E0905E"/>
				<stop  offset="0.9053" style="stop-color:#FCB576"/>
				<stop  offset="1" style="stop-color:#FFB979"/>
			</linearGradient>
			<path fill="url(#SVGID_35_)" d="M385.968,466.077c-2.088-2.088-1.145-6.35-0.694-7.684c1.641-4.834,3.654-10.246,5.115-17.677
				c1.042,0.364,3.901,0.696,5.038,1.167c-1.042,5.259-5.639,19.597-6.266,21.491C388.111,466.538,386.492,466.601,385.968,466.077z
				"/>
			<path fill="#B0683A" d="M393.495,438.241c-0.032,4.473-0.514,13.495-1.344,20.754c-0.511,2.537-2.376,8.021-3.275,11.545
				c-1.966,6.222,3.93,14.247,6.65,8.405c0.677-1.456,5.782-14.286,6.164-15.5c1.542-4.542,3.139-22.542,2.826-24.381
				C402.106,438.931,395.011,438.579,393.495,438.241z"/>
			<linearGradient id="SVGID_36_" gradientUnits="userSpaceOnUse" x1="399.1016" y1="433.4854" x2="396.4677" y2="459.3854">
				<stop  offset="6.030000e-006" style="stop-color:#E0905E"/>
				<stop  offset="0.9053" style="stop-color:#FCB576"/>
				<stop  offset="1" style="stop-color:#FFB979"/>
			</linearGradient>
			<path fill="url(#SVGID_36_)" d="M396.109,475.639c-3.057,8.159-6.268-0.854-5.381-4.501c0.54-2.024,2.183-7.139,3.271-10.606
				c0.336-3.858,1.5-11.628,1.527-19.4c1.061,0.101,6.379,0.478,6.708,0.493c-0.21,7.037-0.558,14.529-1.583,19.074
				C400.413,461.363,396.833,473.523,396.109,475.639z"/>
			<path fill="#B0683A" d="M401.319,439.181c-0.237,5.891-1.436,19.271-1.965,22.844c-1.018,3.475-2.153,7.355-3.316,10.069
				c-4.421,9.581,3.316,16.58,5.773,12.036c1.16-2.715,6.533-17.668,6.533-17.668s4-25.576,4.147-26.87
				C409.702,439.398,403.517,439.507,401.319,439.181z"/>
			<linearGradient id="SVGID_37_" gradientUnits="userSpaceOnUse" x1="404.665" y1="430.9521" x2="403.3554" y2="469.8044">
				<stop  offset="6.030000e-006" style="stop-color:#E0905E"/>
				<stop  offset="0.9053" style="stop-color:#FCB576"/>
				<stop  offset="1" style="stop-color:#FFB979"/>
			</linearGradient>
			<path fill="url(#SVGID_37_)" d="M397.271,474.425c0.979-2.451,2.762-7.316,3.707-10.356c0.803-6.165,1.929-15.571,1.902-21.443
				c1.565,0.156,6.142-0.222,7.783-0.093c-0.557,4.422-2.616,20.297-2.616,20.297s-6.806,18.711-7.215,19.568
				C399.478,485.235,395.179,480.446,397.271,474.425z"/>
			<path fill="#B0683A" d="M408.196,439.794c-0.002,3.502-0.233,13.842-0.736,21.74c-0.687,2.328-2.271,7.057-3.193,9.823
				c-1.854,8.384,4.424,13.499,7.041,6.226c0.83-1.782,3.973-8.969,5.569-14.495c0.947-10.134,1.498-22.953,1.39-24.151
				C415.756,438.772,410.644,439.964,408.196,439.794z"/>
			<linearGradient id="SVGID_38_" gradientUnits="userSpaceOnUse" x1="411.4561" y1="422.1875" x2="410.6197" y2="465.8888">
				<stop  offset="6.030000e-006" style="stop-color:#E0905E"/>
				<stop  offset="0.9053" style="stop-color:#FCB576"/>
				<stop  offset="1" style="stop-color:#FFB979"/>
			</linearGradient>
			<path fill="url(#SVGID_38_)" d="M406.141,470.232c0.88-2.677,2.073-6.167,2.53-7.3c0.715-7.396,0.633-12.309,1.068-20.939
				c0.803-0.068,2.657-0.385,3.487-0.48c0.829-0.094,1.622,1.287,2.4,1.219c0.476,5.072-0.185,13.889-0.871,20.347
				c-1.417,4.935-3.761,11.151-4.593,13.07C407.763,482.683,404.396,475.534,406.141,470.232z"/>
		</g>
		<g>
			<path fill="#B0683A" d="M387.564,412.409c-3.11,6.793-0.694,26.239,0.165,31.111c8.229-2.539,28.061,1.242,31.626,1.535
				c-0.274-10.059-9.112-33.283-9.748-36.846C406.054,413.142,395.941,425.284,387.564,412.409z"/>
			<linearGradient id="SVGID_39_" gradientUnits="userSpaceOnUse" x1="374.248" y1="428.0098" x2="401.3418" y2="428.0098">
				<stop  offset="6.030000e-006" style="stop-color:#E0905E"/>
				<stop  offset="0.9053" style="stop-color:#FCB576"/>
				<stop  offset="1" style="stop-color:#FFB979"/>
			</linearGradient>
			<path fill="url(#SVGID_39_)" d="M390.021,443.358c-0.008-0.66-0.883-5.182-0.904-5.926c-0.143-4.754-1.207-18.263,1.075-24.291
				c0.644-0.208,1.778,1.097,4.694,1.508c4.315-2.604,8.709-4.361,13.025-4.742c0.127,6.162,8.455,25.803,7.9,35.967
				C408.362,446.468,401.126,446.063,390.021,443.358z"/>
		</g>
		<g>
			<path fill="#B0683A" d="M410.399,410.386c2.938,4.212,7.346,10.592,8.775,13.811c0.154,1.255,1.539,5.097,2.721,9.44
				c1.854,6.815,5.555,10.923,5.951,12.054c-0.953,3.49-7.52,3.354-10.439,0.244c-2.918-3.106-4.199-7.024-5.259-11.955
				C397.063,428.456,399.354,414.044,410.399,410.386z"/>
			<linearGradient id="SVGID_40_" gradientUnits="userSpaceOnUse" x1="403.748" y1="436.6729" x2="418.2593" y2="426.3077">
				<stop  offset="6.030000e-006" style="stop-color:#E0905E"/>
				<stop  offset="0.9053" style="stop-color:#FCB576"/>
				<stop  offset="1" style="stop-color:#FFB979"/>
			</linearGradient>
			<path fill="url(#SVGID_40_)" d="M418.282,444.214c-3.721-4.569-5.074-12.084-5.074-12.084
				c-6.853-1.044-11.498-5.615-11.656-13.014c-0.071-3.293,1.911-8.896,6.361-8.896c2.225,3.563,7.945,11.635,9.85,15.609
				c0.515,2.087,2.074,7.891,4.027,12.876c1.648,4.2,2.754,5.034,3.707,6.78C425.261,446.925,420.401,446.816,418.282,444.214z"/>
		</g>
		<path fill="#B0683A" d="M389.683,443.143c5.711,1.44,17.369,2.754,24.655,2.67C405.087,447.862,395.014,445.712,389.683,443.143z"
			/>
	</g>
	<path fill="#B0683A" d="M352.932,192.204c-1.392,1.188-6.182,4.503-9.743,4.872c-3.561,0.369-16.457-0.942-18.668-0.327
		c-2.947,0.859-3.846,1.471-5.566,2.947c1.843-0.736,2.394-1.452,4.994-1.598c2.209-0.125,17.807,1.105,19.404,0.861
		c3.479-0.492,9.867-4.34,10.48-4.996C353.465,193.597,353.26,192.491,352.932,192.204z"/>
	<g>
		<path fill="#B3B3B3" d="M377.181,373.085c-14.424,4.689-27.441,6.163-45.164,5.945c-45.158-2.73-67.02-10.837-76.353-15.503
			c-4.667,8.351-12.097,31.169-13.264,37.827c10.563,3.043,50.345,14.533,75.897,44.867c10.808-8.188,43.559-29.229,62.611-42.063
			C381.531,396.269,377.336,375.223,377.181,373.085z"/>
		<path fill="#E8EBED" d="M318.626,443.521c-23.088-26.363-59.863-40.451-72.541-44.375c1.686-8.07,8.197-24.072,11.053-31.935
			c11.299,5.405,38.809,13.511,74.68,14.772l0.102,0.009h0.102c15.998,0.204,27.789-1.271,42.881-5.302
			c0.07,0.424,0.149,0.896,0.236,1.418c1.033,6.104,3.103,18.338,3.037,24.508C358.581,415.028,328.531,435.007,318.626,443.521z"/>
		<path fill="#FFFFFF" d="M375.138,378.108c-0.087-0.522-0.166-0.994-0.236-1.418c-15.092,4.031-26.883,5.506-42.881,5.302h-0.102
			l-0.102-0.009c-25.994-0.914-43.505-3.098-57.731-7.565c-4.094,7.039-8.515,18.667-10.808,27.838
			c18.995,7.533,46.832,31.603,55.02,41.101c2.608-1.563,41.758-29.476,59.877-40.74
			C378.24,396.446,376.171,384.212,375.138,378.108z"/>
	</g>
	<g>
		<path fill="#B3B3B3" d="M362.888,215.182c-3.674-8.837-7.266-17.687-8.567-24.124c-1.321-0.988-9.544-6.167-13.515-8.88
			c0.912,2.444,8.277,20.445,9.71,30.514c-0.465,9.555-6.69,22.646-31.386,17.824c-18.415-3.597-33.248-15.606-41.585-25.506
			c-3.459-6.665-6.591-25.147-6.875-26.53c-3.094,0.951-10.884,3.729-13.594,4.699c0.986,5.51,2.615,22.068,2.977,28.451
			c-2.464,31.475-9.403,42.607-16.487,44.369c3.087,12.824,11.188,38.867,16.457,52.613c14.996-3.617,99.101-2.631,109.1,0.656
			c0.293-2.301-0.148-16.438,0.293-20.715c6.762-4.603,11.47-14.303,11.47-25.648C380.181,247.149,367.653,225.337,362.888,215.182z
			"/>
		<path fill="#E8EBED" d="M366.581,305.729c-10.096-1.562-35.702-2.373-58.59-2.373c-10.821,0-35.797,0.198-46.375,1.939
			c-3.25-7.841-12.85-39.498-15.367-48.285c8.352-3.768,14.154-15.934,16.442-45.121l0.015-0.222l-0.166-2.883
			c-0.258-4.572-2.052-22.979-2.354-24.387c1.092-0.128,6.505-2.296,8.497-2.633c1.168,4.925,2.693,17.604,6.603,24.783l0.145,0.265
			l0.189,0.226c4.252,5.049,19.925,21.878,43.056,26.393c3.661,0.714,7.102,1.078,10.223,1.078c21.539,0,24.015-16.577,24.26-21.656
			l0.016-0.313l-0.044-0.311c-0.915-6.449-5.528-17.362-6.964-23.638c1.309,0.731,5.445,3.213,6.293,3.699
			c0.339,1.754,4.893,16.771,7.875,23.672l0.076,0.313l0.135,0.283c0.865,1.844,1.949,4.001,3.205,6.498
			c5.541,11.021,13.91,27.67,14.49,39.924c-0.021,9.799-4.02,18.84-10.199,23.046l-1.106,0.752l-0.147,1.438
			c-0.262,2.533-0.236,7.748-0.213,12.793C366.581,302.548,366.587,304.275,366.581,305.729z"/>
		<path fill="#FFFFFF" d="M366.769,286.974c-13.1,5.242-22.926-12.854-34.716-12.854c-20.914,0-37.58,17.685-78.108,7.86
			c2.066,6.405,6.557,20.628,7.672,23.314c10.578-1.741,35.554-1.939,46.375-1.939c22.888,0,48.494,0.812,58.59,2.373
			c0.006-1.453,0-3.181-0.008-4.72c-0.023-5.045-0.049-10.26,0.213-12.793L366.769,286.974z"/>
		<path fill="#FFFFFF" d="M326.486,275.513c15.884,2.783,30.375,5.977,41.919,0.328c3.842-1.881,8.598-4.424,9.818-13.027
			c-0.646-12.236-8.958-28.783-14.475-39.758c-1.256-2.497-2.34-4.654-3.205-6.498l-0.135-0.283l-0.076-0.313
			c-2.982-6.9-7.536-21.918-7.875-23.672c-0.848-0.486-4.984-2.968-6.293-3.699c1.436,6.275,6.049,17.188,6.964,23.638l0.044,0.311
			l-0.016,0.313c-0.245,5.079-2.721,21.656-24.26,21.656c-3.121,0-6.562-0.364-10.223-1.078
			c-23.131-4.515-38.804-21.344-43.056-26.393l-0.189-0.226l-0.145-0.265c-3.909-7.179-5.435-19.858-6.603-24.783
			c-1.781,0.432-7.59,2.344-8.966,2.824c0.368,2.026,2.565,19.623,2.823,24.195l0.166,2.883l-0.015,0.222
			c-0.805,10.258-2.195,22.439-2.606,27.845c-2.947,22.106,7.779,33.159,25.055,36.597
			C300.609,279.411,312.157,277.067,326.486,275.513z"/>
	</g>
	<g>
		<path fill="#B0683A" d="M257.383,321.28c-1.964,0-8.255,0.611-14.409,0.901c-22.678,1.064-43.066,3.274-51.09,0.163
			c-5.932-2.3-10.223-5.955-12.609-8.188c-5.413-5.061-7.713-9.156-6.994-13.756c0.766-4.911,10.678-22.352,28.123-18.299
			c9.123,0.154,22.883,6.508,22.883,6.508s14.062,2.703,27.893,3.244C252.394,298.669,257.304,311.367,257.383,321.28z"/>
		<linearGradient id="SVGID_41_" gradientUnits="userSpaceOnUse" x1="214.77" y1="349.1978" x2="212.7758" y2="286.0464">
			<stop  offset="6.030000e-006" style="stop-color:#E0905E"/>
			<stop  offset="0.9053" style="stop-color:#FCB576"/>
			<stop  offset="1" style="stop-color:#FFB979"/>
		</linearGradient>
		<path fill="url(#SVGID_41_)" d="M194.012,320.378c-4.938-1.496-10.858-6.496-13.039-8.555c-4.8-4.524-6.385-7.68-5.791-11.094
			c0.445-2.559,7.263-19.123,24.455-19.486c8.318,0.165,22.204,9.086,22.315,9.148c0,0,9.575,2.766,27.207,3.596
			c0.852,5.092,2.532,16.07,2.885,25.137c-0.355,0.051-3.164-0.029-11.035,0.602C221.714,321.268,202.425,322.712,194.012,320.378z"
			/>
	</g>
	<g>
		<path fill="#B0683A" d="M244.232,293.112c1.26-2.698,2.909-7.688,4.185-9.168c0.75-0.863,6.658-7.162,7.738-9.21
			c1.133-1.914,2.373-6.583,3.07-12.036c0.969-3.598,10.004,0.16,10.07,7.736c0.069,7.77-3.154,14.069-4.912,18.055
			C262.473,289.081,245.628,292.591,244.232,293.112z"/>
		
			<linearGradient id="SVGID_42_" gradientUnits="userSpaceOnUse" x1="251.2134" y1="274.3765" x2="261.2889" y2="277.651" gradientTransform="matrix(0.9986 0.053 -0.053 0.9986 15.5009 -11.6633)">
			<stop  offset="6.030000e-006" style="stop-color:#E0905E"/>
			<stop  offset="0.9053" style="stop-color:#FCB576"/>
			<stop  offset="1" style="stop-color:#FFB979"/>
		</linearGradient>
		<path fill="url(#SVGID_42_)" d="M247.6,289.831c0.862-2.244,2.407-4.506,3.246-5.703c0.429-0.609,2.373-2.816,3.631-4.138
			c1.36-1.433,2.498-2.775,2.864-3.306c1.559-2.252,3.07-7.275,3.465-12.383c1.281-1.514,5.708,1.131,6.235,5.497
			c0.478,3.972-0.966,9.701-2.665,13.689c0,0,3.145,0.154,3.271,1.054C267.214,284.659,252.329,288.675,247.6,289.831z"/>
	</g>
	<g>
		<path fill="#B0683A" d="M239.206,291.067c3.192-2.131,9.335-6.55,9.335-6.55s1.638-0.489,2.896-1.086
			c2.973-1.402,5.189-1.21,8.467-1.862c6.881,0.68,10.814-0.926,18.222,0.765c3.04,9.282,2.356,18.813,2.47,32.927
			c0.026,3.35-0.437,7.633-1.352,8.966c-4.256,2.948-14.957,3.593-18.912,3.194c-5.1-0.754-18.424-4.371-20.633-5.404
			C243.383,319.56,248.077,304.309,239.206,291.067z"/>
		<linearGradient id="SVGID_43_" gradientUnits="userSpaceOnUse" x1="277.4902" y1="303.9536" x2="227.8736" y2="300.895">
			<stop  offset="6.030000e-006" style="stop-color:#E0905E"/>
			<stop  offset="0.9053" style="stop-color:#FCB576"/>
			<stop  offset="1" style="stop-color:#FFB979"/>
		</linearGradient>
		<path fill="url(#SVGID_43_)" d="M261.313,324.964c-7.859-1.309-16.553-3.848-19.977-5.074c-3.111-2.947-6.223-19.488-1.311-26.529
			c4.057-3.211,17.825-12.526,19.694-12.511c7.001,0.602,12.946,0.925,19.647,2.45c1.08,10.295-1.074,34.654-4.145,39.891
			C273.887,323.975,267.017,324.729,261.313,324.964z"/>
		
			<linearGradient id="SVGID_44_" gradientUnits="userSpaceOnUse" x1="283.3745" y1="297.7319" x2="253.5974" y2="303.4039" gradientTransform="matrix(0.9986 0.053 -0.053 0.9986 15.5009 -11.6633)">
			<stop  offset="6.030000e-006" style="stop-color:#E0905E"/>
			<stop  offset="0.9053" style="stop-color:#FCB576"/>
			<stop  offset="1" style="stop-color:#FFB979"/>
		</linearGradient>
		<path fill="url(#SVGID_44_)" d="M279.368,283.3c-6.701-1.525-10.064-1.334-17.063-1.936c-0.036,0-2.579,1.011-2.617,1.014
			c-1.237,11.494,0.316,20.318,1.299,34.481c-0.655,2.7-1.31,6.142,0.081,8.104c1.925,0.296,13.398-0.199,16.63-2.998
			c0.261-1.798,0.317-2.781,0.274-5.209C277.839,309.198,280.399,293.113,279.368,283.3z"/>
		<path fill="#B0683A" d="M263.046,292.591c1.107,0.449,15.026-1.074,17.217-0.897c1.144,0.354,3.73,1.995,4.467,2.935
			c0.902,2.414,0.287,7.002-0.696,10.194c-0.418,0.572-1.104,1.229-1.104,1.229s0.898,0.662,0.859,1.35
			c-0.022,3.353-1.298,8.748-2.824,9.458c-5.313,1.371-13.605,1.213-16.17,0.819C263.771,315.878,263.165,295.751,263.046,292.591z"
			/>
		
			<linearGradient id="SVGID_45_" gradientUnits="userSpaceOnUse" x1="296.4243" y1="302.877" x2="254.002" y2="303.7088" gradientTransform="matrix(0.9986 0.053 -0.053 0.9986 15.5009 -11.6633)">
			<stop  offset="6.030000e-006" style="stop-color:#E0905E"/>
			<stop  offset="0.9053" style="stop-color:#FCB576"/>
			<stop  offset="1" style="stop-color:#FFB979"/>
		</linearGradient>
		<path fill="url(#SVGID_45_)" d="M261.479,317.269c0.163-4.586-0.39-7.504-0.492-10.645c-0.296-4.289-0.819-8.679-1.474-13.264
			c1.547,0.08,3.527,1.103,3.527,1.103s8.537,0.2,12.52,0.372c1.167,0.535,5.273-0.006,6.129,0.283
			c1.232,2.281,1.322,6.676-0.151,9.622c-0.966,0.499-3.151,0.992-3.151,0.992s1.269,0.458,2.551,0.657
			c0.515,2.391,0.415,7.109-1.242,8.996C275.732,316.892,263.788,317.585,261.479,317.269z"/>
		<path fill="#B0683A" d="M264.507,306.543c-0.654,0.081-0.186,0.615,0.184,0.797c4.912,0,12.281,0.186,16.768-1.024
			c0.252-0.479,0.648-1.215,0.839-1.731C276.604,306.358,269.665,306.543,264.507,306.543z"/>
		<path fill="#B0683A" d="M263.892,294.276c-0.319-0.082-1.383-0.728-1.641-0.74c-0.201,0.971-0.103,2.11,0.106,3.549
			C262.726,295.734,263.217,294.628,263.892,294.276z"/>
		<path fill="#B0683A" d="M259.349,280.917c3.93-1.023,15.229-1.023,19.078-0.492c2.537,0.695,4.563,1.556,4.992,2.047
			c1.306,2.154,2.149,7.921,0.43,11.73c-1.719,1.348-3.924,2.147-5.403,2.147c-1.259,0-14.211-1.232-16.228-1.601
			C260.632,293.025,256.778,288.216,259.349,280.917z"/>
		<linearGradient id="SVGID_46_" gradientUnits="userSpaceOnUse" x1="284.501" y1="288.8892" x2="261.5097" y2="288.0313">
			<stop  offset="6.030000e-006" style="stop-color:#E0905E"/>
			<stop  offset="0.9053" style="stop-color:#FCB576"/>
			<stop  offset="1" style="stop-color:#FFB979"/>
		</linearGradient>
		<path fill="url(#SVGID_46_)" d="M278.671,294.671c0,0-14.472,0.203-18.586-0.594c-1.625-3.114-2.842-8.118-0.123-11.729
			c4.013-0.368,15.053-0.3,18.163-0.015c1.392,0.452,2.286,0.812,3.575,1.364c0.73,2.553,1.027,8.221,0.123,9.703
			C280.718,294.141,278.671,294.671,278.671,294.671z"/>
		<linearGradient id="SVGID_47_" gradientUnits="userSpaceOnUse" x1="286.7173" y1="288.9746" x2="280.0363" y2="288.5856">
			<stop  offset="6.030000e-006" style="stop-color:#E0905E"/>
			<stop  offset="0.9053" style="stop-color:#FCB576"/>
			<stop  offset="1" style="stop-color:#FFB979"/>
		</linearGradient>
		<path fill="url(#SVGID_47_)" d="M281.7,283.698c-1.309-0.818-3.476-1.383-3.52-1.391c1.596,2.292,1.76,9.089,0.409,12.363
			c0.885-0.084,2.128-0.53,3.233-1.27C282.728,291.919,282.431,286.251,281.7,283.698z"/>
	</g>
	<g>
		<path d="M271.899,104.411c0.033-1.545-1.824-5.685-2.242-7.248c-0.573-1.289-0.107-2.877-0.25-4.668
			c-0.515-0.477-1.236-0.939-1.75-1.416c-0.418-1.758,1.199-1.545,0.5-3.25c-0.57-0.503-1.816-0.705-1.824-2.248
			c-0.064-1.607,0.493-3.758,0.982-4.422c-0.128-0.925-0.887-1.912-0.992-2.83c-0.172-1.495,2.577-2.014,0.167-3.584
			c-1.298-0.844-1.773-1.692-1.75-3.082c0.013-0.93,1.634-1.403,1.43-2.293c-0.68-2.957,1.929-3.348,1.153-5.207
			c-1.25-3,0.417-3.584,2.777-4.945c1.57-0.905-1.527-0.889,0.223-2.389c-0.5-1.416,0.459-2.861,1.167-3.416
			c0.876-0.169,1.034-0.689,1.917-0.834c0.518-0.786-0.997-1.725-0.454-2.486c0.582-0.814,2.998-0.627,3.854-1.648
			c0.629-0.238,0.081-1.161,0.725-1.365c0.672-0.727,0.303-1.579,1-2.25c0.889,0.064,1.635,0.352,2.375,0.875
			c2.119,0.979-0.201-1.836,0.766-2.514c0.924-0.648,2.334-0.201,3.561-1.035c0.699-0.478,0.251-2.432,1.007-2.409
			c2.75,0.083,1.833-1.667,3.583-2.583c2.107-1.104,2.938,0.82,4.5,0.416c0.905-0.232,1.682-1.045,2-1.916
			c0.629-1.729,2.417-0.334,4.334-0.167c1.254,0.109,1.598-0.866,3.25-1.083c1.822-0.24,0.938,1.258,2.333,1.25
			c1.337-0.01,1.041-1.574,3.083-0.75c0.465,0.188,3.608-0.261,4.084-0.25c2.176,0.049,1.689,1.596,2.916,1.666
			c1.23,0.072,2.531-0.509,3.291-0.424c0.811,0.094,1.425,1.604,2.626,1.84c0.937,0.184,1.85-1.728,2.75-1.5
			c0.421,0.752,0.583,1.334,1.341,1.398c1.76,0.564,1.625-0.652,3.659,0.352c1.388,0.688,4.392,2.158,4.917,4.055
			c0.736,2.68,3.426-0.553,4.928,0.281c1.756,0.977,2.549,4.709,4.936,4.113c2.822-0.705,0.675,2.489,2.832,3.885
			c1.588,1.027,2.227,3.527,2.242,3.484c-0.964,2.446,1.226,1.813,1.813,3.183c1.193,2.753-1.75,3.625,1.5,5.333
			c1.584,0.832-1.563,0.667-0.188,2.625c0.553,0.789,1.252,0.857,1.375,1.813c-1.021,0.75,0.791,1.688,0.438,2.938
			c-0.313,0.75-0.813,0.563-0.813,2c0.25,1.25,0.929,0.477,1.531,1.063c-0.296,0.623-1.023,1.452-1.344,2.063
			c0.004,3.168-1.158,3.072-0.71,5.837c0.094,0.571,1.193,2.155,1.335,2.663c0.625,2.25-1.605,4.348-1.875,6.125
			c-0.229,1.495-1.115,3.587-1.25,4.625c-0.334,2.554-0.338,4.601-1.813,7.057c-0.443,0.743-0.564,4.667-0.654,4.914
			c-0.699,0.35-74.121,8.943-74.562,8.707C273.124,113.948,271.89,104.871,271.899,104.411z"/>
		<path fill="#B0683A" d="M350.601,111.556c-1.832,7.977-6.172,13.827-9.695,13.073c-3.527-0.757-4.903-7.835-3.072-15.815
			c1.829-7.975,6.172-13.827,9.692-13.072C351.053,96.496,352.429,103.577,350.601,111.556z"/>
		<linearGradient id="SVGID_48_" gradientUnits="userSpaceOnUse" x1="338.125" y1="111" x2="349.4775" y2="111">
			<stop  offset="6.030000e-006" style="stop-color:#E0905E"/>
			<stop  offset="0.9053" style="stop-color:#FCB576"/>
			<stop  offset="1" style="stop-color:#FFB979"/>
		</linearGradient>
		<path fill="url(#SVGID_48_)" d="M340.917,123.862c2.039,0.061,5.98-4.425,7.764-11.861c0.87-3.627,1.037-7.291,0.455-10.047
			c-0.541-2.57-1.551-3.65-2.249-3.795c-0.065-0.014-0.132-0.02-0.194-0.021c-2.037-0.06-5.979,4.427-7.764,11.861
			c-0.883,3.682-1.044,7.25-0.456,10.047c0.542,2.572,1.552,3.652,2.25,3.797C340.786,123.854,340.852,123.86,340.917,123.862
			L340.917,123.862z"/>
		<path fill="#B46639" d="M340.312,109.839c-0.902,4.024-0.098,7.625,1.801,8.039c1.895,0.411,4.168-2.516,5.07-6.545
			c0.903-4.023,0.098-7.627-1.803-8.039C343.486,102.879,341.214,105.81,340.312,109.839z"/>
		<path fill="#B0683A" d="M269.421,112.394c1.609,7.965,5.787,13.891,9.332,13.244c3.546-0.648,5.113-7.627,3.506-15.59
			c-1.61-7.959-5.788-13.89-9.332-13.239C269.382,97.455,267.813,104.435,269.421,112.394z"/>
		<linearGradient id="SVGID_49_" gradientUnits="userSpaceOnUse" x1="275.2319" y1="111.9058" x2="261.608" y2="110.0309">
			<stop  offset="0" style="stop-color:#E08D58"/>
			<stop  offset="0.9952" style="stop-color:#E89A68"/>
		</linearGradient>
		<path fill="url(#SVGID_49_)" d="M278.763,124.878c-2.04,0-5.855-4.561-7.437-11.984c-0.769-3.619-0.835-7.256-0.177-9.973
			c0.611-2.535,1.648-3.574,2.352-3.697c0.064-0.012,0.131-0.016,0.193-0.016c2.04,0,5.854,4.559,7.436,11.984
			c0.781,3.674,0.845,7.217,0.18,9.973c-0.613,2.533-1.651,3.576-2.355,3.697C278.891,124.875,278.827,124.878,278.763,124.878
			L278.763,124.878z"/>
		<path fill="#B46639" d="M279.753,110.99c0.793,4.017-0.113,7.562-2.023,7.919c-1.905,0.355-4.095-2.613-4.888-6.635
			c-0.792-4.017,0.114-7.564,2.022-7.918C276.771,104.001,278.96,106.97,279.753,110.99z"/>
		<g>
			<g>
				<path fill="#B0683A" d="M347.175,83.585c-0.615-22.203-12.93-37.941-34.486-38.521c-18.928-0.508-38.933,10.485-39.921,34.363
					c-0.147,3.555,0.694,5.641,2.253,19.262c0.658,5.758-2.281,16.12,1.01,26.449c4.113,11.179,7.921,18.863,15.377,28.932
					c4,5.4,10.889,10.017,19.276,10.256c7.226,0.207,14.819-4.421,21.001-12.648c9.553-15.105,11.604-21.043,13.47-31.727
					c2.514-12.137,0.267-13.793,1.089-21.583C346.574,92.271,347.339,89.513,347.175,83.585z"/>
				<linearGradient id="SVGID_50_" gradientUnits="userSpaceOnUse" x1="261.543" y1="103.3784" x2="299.0421" y2="104.0333">
					<stop  offset="0" style="stop-color:#E08D58"/>
					<stop  offset="0.9952" style="stop-color:#E89A68"/>
				</linearGradient>
				<path fill="url(#SVGID_50_)" d="M310.807,161.992c-5.827,0-12.218-2.694-15.923-7.163c-7.224-8.711-12.249-18.08-16.369-28.41
					c-2.484-6.234-2.4-13.445-2.329-17.422c0.038-2.049,0.019-4.23-0.216-6.271c-1.26-11.035-1.809-18.851-1.627-23.225
					c0.887-21.435,19.766-33,37.078-33c0.346,0,0.691,0.002,1.034,0.013c19.213,0.518,33.054,16.014,33.656,37.687
					c0.085,3.066-0.324,5.615-0.758,8.309c-0.357,2.217-0.726,4.506-0.879,7.275c-0.354,3.428,0.216,5.375,0.181,7.773
					c-0.047,2.969-0.016,4.865-1.419,11.641c-1.517,8.686-4.24,19.357-15.931,34.319C323.21,158.759,317.1,161.992,310.807,161.992z
					"/>
				<linearGradient id="SVGID_51_" gradientUnits="userSpaceOnUse" x1="239.5713" y1="100.1738" x2="298.7224" y2="102.7558">
					<stop  offset="6.030000e-006" style="stop-color:#E0905E"/>
					<stop  offset="0.9053" style="stop-color:#FCB576"/>
					<stop  offset="1" style="stop-color:#FFB979"/>
				</linearGradient>
				<path fill="url(#SVGID_51_)" d="M345.354,92.509c0.434-2.693,0.843-5.242,0.758-8.309
					c-0.603-21.673-14.443-37.169-33.656-37.687c-0.343-0.011-0.688-0.013-1.034-0.013c-6.648,0,3.672,7.981-1.139,15.953
					c-4.375,7.25-15.5,4.75-18,6.875c-3.153,2.68-5.582,5.379-7.5,7.875c-0.875,1.875-2.125,12.625,1,16.5
					c-1,5-2.908,7.883-3.837,13.146c-0.981,3.928-1.964,12.117,0,18.176c3.604,11.297,7.368,16.047,12.282,24.891
					c5.928,11.008,20.631,12.444,27.837,7.695c2.456-1.637,3.111-2.131,5.241-4.095c11.69-14.962,14.414-25.634,15.931-34.319
					c1.403-6.775,1.372-8.672,1.419-11.641c0.035-2.398-0.535-4.346-0.181-7.773C344.628,97.015,344.996,94.726,345.354,92.509z"/>
			</g>
			<g>
				<linearGradient id="SVGID_52_" gradientUnits="userSpaceOnUse" x1="311.6465" y1="135.5928" x2="310.7364" y2="88.4326">
					<stop  offset="0" style="stop-color:#E08D58"/>
					<stop  offset="0.9952" style="stop-color:#E89A68"/>
				</linearGradient>
				<path fill="url(#SVGID_52_)" d="M338.194,95.796c-8.721-3.191-9.211-1.966-15.229-0.983c-1.732,1.097-4.531,1.634-6.265,2.089
					c-3.069,0.614-6.754,1.842-11.544-0.613c-3.195-0.41-8.934-1.921-12.239-2.537c-5.081-0.893-2.646-0.932-4.954-0.657
					c-1.535,0.529-2.947,0.124-5.281,1.966c-1.331,3.219-1.903,5.403,1.965,7.246c2.265-0.273,5.757-3.973,14.809,0.413
					c0.063,1.051-9.803,6.8-9.803,6.8s9.534,2.868,16.446-1.113c-0.123,4.234,0.672,7.93,0.179,13.008
					c-1.287,2.148-5.965,4.922-3.746,7.115c0.465,0.479,1.694,0.407,2.227,0.498c0.977,0.183,0.002-1.278,2.041-0.913
					c2.895,0.519,2.09,2.178,5.324,1.735c1.332-0.184,1.866-0.184,2.932-0.64c1.458-0.625,2.598-0.714,3.458-0.222
					c0.402,0.077,1.382-0.4,1.811-0.83c0.682-2.111-1.374-1.908-2.947-1.566c-2.706,0.596-3.415,0.537-5.695,0.609
					c-1.243,0.038-3.589-0.739-3.944-1.56c-0.354-1.919,1.143-10.074,1.227-11.545c0.125-2.117-0.212-6.627-0.123-7.86
					c0.576-3.386,6.142-2.886,6.142-0.122c0,1.118,0.246,3.07,0.246,3.07c9.852,3.423,16.335,0.197,22.229-4.79
					C338.792,103.019,342.444,97.753,338.194,95.796z"/>
				<g>
					<path fill="#B0683A" d="M305.229,128.124c0.746-0.652,3.331-0.278,4.009,0.139c0.693,0.434,1.486,0.983,2.828,1.007
						c0.635,0.016,2.148-0.605,2.797-0.966c0.694-0.383,3.203-0.871,3.59,0.071c-0.975-0.606-2.956,0.354-3.551,0.742
						c-0.754,0.489-1.75,1.296-2.727,1.368c-1.322,0.101-2.551-0.875-3.283-1.404C308.218,128.598,306.253,127.903,305.229,128.124z
						"/>
					<path fill="#B0683A" d="M306.601,128.97c-6.391,0.959-3.907-3.014-0.178-4.656C303.67,126.778,302.54,128.97,306.601,128.97z"
						/>
					<path fill="#B0683A" d="M317.628,129.169c3.092-0.883,2.561-3.178,0.089-4.945C320.72,125.726,322.927,128.906,317.628,129.169
						z"/>
				</g>
			</g>
		</g>
		<g>
			
				<linearGradient id="SVGID_53_" gradientUnits="userSpaceOnUse" x1="293.2949" y1="104.5083" x2="293.3452" y2="110.2367" gradientTransform="matrix(0.9995 -0.033 0.033 0.9995 -2.7499 9.9547)">
				<stop  offset="0" style="stop-color:#CED5D8"/>
				<stop  offset="1" style="stop-color:#FFFFFF"/>
			</linearGradient>
			<path fill="url(#SVGID_53_)" d="M285.394,102.451c5.531-2.326,14.247,0.103,17.041,1.585c1.247,2.875,0.705,3.315,0.764,4.572
				c-2.247,1.326-13.061,2.915-17.964-0.666c-0.485-0.686-0.642-1.577-0.642-1.577S285.077,103.763,285.394,102.451z"/>
			
				<linearGradient id="SVGID_54_" gradientUnits="userSpaceOnUse" x1="293.8071" y1="101.2529" x2="293.7009" y2="106.301" gradientTransform="matrix(0.9995 -0.033 0.033 0.9995 -2.7499 9.9547)">
				<stop  offset="0" style="stop-color:#CED5D8"/>
				<stop  offset="1" style="stop-color:#FFFFFF"/>
			</linearGradient>
			<path fill="url(#SVGID_54_)" d="M289.536,103.476c-2.355,0.876-4.818,3.355-1.976,5.784c5.907,1.966,11.763,0.841,14.816-0.263
				C301.755,102.557,295.165,101.649,289.536,103.476z"/>
			<g>
				<path fill="#321908" d="M289.94,106.044c0.08,2.486,2.107,4.441,4.529,4.357c2.419-0.083,4.318-2.166,4.238-4.654
					c-0.079-2.49-2.109-4.443-4.527-4.361C291.757,101.47,289.86,103.556,289.94,106.044z"/>
				
					<linearGradient id="SVGID_55_" gradientUnits="userSpaceOnUse" x1="293.7339" y1="101.436" x2="293.7339" y2="108.349" gradientTransform="matrix(0.9995 -0.033 0.033 0.9995 -2.7499 9.9547)">
					<stop  offset="0" style="stop-color:#42210B"/>
					<stop  offset="0.9984" style="stop-color:#94561D"/>
				</linearGradient>
				<path fill="url(#SVGID_55_)" d="M290.269,106.032c0.074,2.303,1.949,4.105,4.19,4.031c2.239-0.077,3.993-2.004,3.921-4.309
					c-0.074-2.299-1.951-4.105-4.188-4.031C291.951,101.801,290.196,103.729,290.269,106.032z"/>
				
					<linearGradient id="SVGID_56_" gradientUnits="userSpaceOnUse" x1="293.9336" y1="101.9077" x2="293.9336" y2="108.6436" gradientTransform="matrix(0.9995 -0.033 0.033 0.9995 -2.7499 9.9547)">
					<stop  offset="0" style="stop-color:#42210B"/>
					<stop  offset="0.9815" style="stop-color:#C46C1B"/>
				</linearGradient>
				<path fill="url(#SVGID_56_)" d="M295.046,105.028c-3.174-1.707-4.955,1.301-4.143,3.077c0.744,1.214,2.061,2.009,3.556,1.958
					c2.239-0.077,3.993-2.004,3.921-4.309c-0.004-0.094-0.026-0.179-0.037-0.271C298.188,106.935,295.511,108.789,295.046,105.028z"
					/>
				<path fill="#211106" d="M292.372,105.962c0.036,1.105,0.938,1.976,2.018,1.938c1.076-0.037,1.922-0.965,1.887-2.072
					c-0.036-1.107-0.938-1.979-2.016-1.941C293.181,103.927,292.337,104.853,292.372,105.962z"/>
				<path fill="#FFFFFF" d="M289.103,104.732c0.023,0.79,0.671,1.413,1.44,1.386s1.374-0.688,1.349-1.48s-0.672-1.416-1.439-1.39
					C289.681,103.276,289.076,103.94,289.103,104.732z"/>
			</g>
			<path d="M303.304,104.169c-0.861-0.73-1.711-1.303-2.74-1.789c-4.617-1.919-8.018-1.914-12.534-1.134
				c-1.704,0.208-3.075,0.54-4.01,0.456c-0.07,1.047,0.265,1.796,0.701,2.289c-0.253,1.093-0.486,2.282-0.47,3.226
				c0.348,0.579,0.518,0.915,2.182,1.57c-0.75-0.629-1.428-1.254-1.52-1.669c-0.104-1.115,1.404-3.279,2.811-3.86
				c5.388-1.704,10.645-0.202,12.343,0.582c1.007,0.484,1.96,1.254,2.212,1.684c0.432,0.767,0.789,2.628,0.932,3.57
				C303.551,107.778,303.67,105.342,303.304,104.169z"/>
		</g>
		<g>
			
				<linearGradient id="SVGID_57_" gradientUnits="userSpaceOnUse" x1="306.9336" y1="104.9585" x2="306.9839" y2="110.6869" gradientTransform="matrix(-0.9995 -0.033 -0.033 0.9995 637.7509 9.9547)">
				<stop  offset="0" style="stop-color:#CED5D8"/>
				<stop  offset="1" style="stop-color:#FFFFFF"/>
			</linearGradient>
			<path fill="url(#SVGID_57_)" d="M335.96,102.451c-5.53-2.326-14.246,0.103-17.041,1.585c-1.246,2.875-0.705,3.315-0.764,4.572
				c2.248,1.326,13.062,2.915,17.964-0.666c0.485-0.686,0.643-1.577,0.643-1.577S336.274,103.763,335.96,102.451z"/>
			
				<linearGradient id="SVGID_58_" gradientUnits="userSpaceOnUse" x1="307.4473" y1="101.7041" x2="307.341" y2="106.7519" gradientTransform="matrix(-0.9995 -0.033 -0.033 0.9995 637.7509 9.9547)">
				<stop  offset="0" style="stop-color:#CED5D8"/>
				<stop  offset="1" style="stop-color:#FFFFFF"/>
			</linearGradient>
			<path fill="url(#SVGID_58_)" d="M331.819,103.476c2.354,0.876,4.818,3.355,1.977,5.784c-5.908,1.966-11.766,0.841-14.818-0.263
				C319.6,102.557,326.187,101.649,331.819,103.476z"/>
			<g>
				<path fill="#321908" d="M331.412,106.044c-0.079,2.486-2.105,4.441-4.528,4.357c-2.418-0.083-4.318-2.166-4.236-4.654
					c0.078-2.49,2.107-4.443,4.525-4.361C329.595,101.47,331.493,103.556,331.412,106.044z"/>
				
					<linearGradient id="SVGID_59_" gradientUnits="userSpaceOnUse" x1="307.3711" y1="101.8862" x2="307.3711" y2="108.7992" gradientTransform="matrix(-0.9995 -0.033 -0.033 0.9995 637.7509 9.9547)">
					<stop  offset="0" style="stop-color:#42210B"/>
					<stop  offset="0.9984" style="stop-color:#94561D"/>
				</linearGradient>
				<path fill="url(#SVGID_59_)" d="M331.087,106.032c-0.076,2.303-1.951,4.105-4.191,4.031c-2.239-0.077-3.994-2.004-3.92-4.309
					c0.072-2.299,1.949-4.105,4.187-4.031C329.403,101.801,331.159,103.729,331.087,106.032z"/>
				
					<linearGradient id="SVGID_60_" gradientUnits="userSpaceOnUse" x1="307.5713" y1="102.3579" x2="307.5713" y2="109.0938" gradientTransform="matrix(-0.9995 -0.033 -0.033 0.9995 637.7509 9.9547)">
					<stop  offset="0" style="stop-color:#42210B"/>
					<stop  offset="0.9815" style="stop-color:#C46C1B"/>
				</linearGradient>
				<path fill="url(#SVGID_60_)" d="M326.306,105.028c3.176-1.707,4.959,1.301,4.145,3.077c-0.742,1.214-2.061,2.009-3.555,1.958
					c-2.239-0.077-3.994-2.004-3.92-4.309c0.003-0.094,0.025-0.179,0.035-0.271C323.167,106.935,325.845,108.789,326.306,105.028z"
					/>
				<path fill="#211106" d="M328.981,105.962c-0.035,1.105-0.937,1.976-2.017,1.938c-1.077-0.037-1.921-0.965-1.887-2.072
					c0.036-1.107,0.938-1.979,2.015-1.941C328.172,103.927,329.018,104.853,328.981,105.962z"/>
				<path fill="#FFFFFF" d="M332.253,104.732c-0.027,0.79-0.672,1.413-1.443,1.386c-0.768-0.027-1.375-0.688-1.346-1.48
					c0.025-0.793,0.671-1.416,1.438-1.39C331.673,103.276,332.278,103.94,332.253,104.732z"/>
			</g>
			<path d="M337.335,101.701c-0.936,0.084-2.307-0.248-4.014-0.456c-4.514-0.779-7.916-0.784-12.529,1.135
				c-1.029,0.486-1.88,1.059-2.742,1.789c-0.365,1.173-0.246,3.609,0.095,4.924c0.14-0.942,0.5-2.804,0.933-3.57
				c0.252-0.43,1.203-1.199,2.211-1.684c1.696-0.784,6.953-2.286,12.343-0.582c1.406,0.581,2.917,2.745,2.812,3.86
				c-0.094,0.415-0.771,1.04-1.52,1.669c1.663-0.655,1.834-0.991,2.182-1.57c0.016-0.944-0.217-2.133-0.471-3.226
				C337.069,103.497,337.403,102.748,337.335,101.701z"/>
		</g>
		<path d="M305.034,95.305c-7-0.122-17.808-6.017-24.434,0.225c-0.232,0.22-0.357,1.004,0.183,0.772
			c4.562-1.975,8.243-1.734,13.065-1.006c3.521,0.529,8.029,2.951,11.555,2.342C306.37,97.473,306.456,95.331,305.034,95.305z"/>
		<path d="M316.013,95.487c7.335,0.078,17.466-5.516,23.898,0.762c0.223,0.217,0.347,0.979-0.179,0.751
			c-4.45-1.927-8.044-1.69-12.747-0.98c-3.438,0.517-7.457,2.336-10.897,1.742C315.146,97.599,314.624,95.472,316.013,95.487z"/>
		<path fill="#C97C65" d="M293.726,136.345c1.508,0.028,2.98-0.129,3.928-0.21c1.854-0.228,7.177-0.978,13.369-0.912
			c6.426,0.067,13.023,0.975,14.746,1.101c1.497-0.012,2.789,0.289,2.789,0.289s-0.783,0.825-1.473,1.239
			c-1.129,1.624-3.846,5.202-5.232,7.202c-2.674,4.086-15.8,6.445-21.002-0.42c-1.395-1.622-3.714-4.995-4.994-6.645
			C295.308,137.763,294.974,137.179,293.726,136.345z"/>
		<g>
			<path fill="#ADBCC7" d="M312.343,145.616c-3.467,0.189-9.002-1.371-10.313-2.412c-1.847-1.965-3.992-4.137-4.782-5.094
				c5.865,0.481,19.502,0.548,28.251-0.141c-0.559,0.67-3.657,4.406-4.915,5.436C318.696,144.603,315.101,145.462,312.343,145.616z"
				/>
			<linearGradient id="SVGID_61_" gradientUnits="userSpaceOnUse" x1="297.4238" y1="142.25" x2="322.2743" y2="142.25">
				<stop  offset="0.0306" style="stop-color:#C5D3D9"/>
				<stop  offset="0.153" style="stop-color:#C5D3D9"/>
				<stop  offset="0.1924" style="stop-color:#D0DBE0"/>
				<stop  offset="0.308" style="stop-color:#EAEFF1"/>
				<stop  offset="0.4118" style="stop-color:#F9FBFB"/>
				<stop  offset="0.4932" style="stop-color:#FFFFFF"/>
				<stop  offset="0.6822" style="stop-color:#FCFDFE"/>
				<stop  offset="0.8139" style="stop-color:#F3F8FA"/>
				<stop  offset="0.9278" style="stop-color:#E4EFF4"/>
				<stop  offset="0.9537" style="stop-color:#DFECF2"/>
			</linearGradient>
			<path fill="url(#SVGID_61_)" d="M322.623,139.019c0.011-0.275-5.981-0.097-11.764-0.047c-5.198,0.048-10.231-0.06-10.559,0.235
				c0.052,0.582,0.151,1.002,0.284,1.392c1.018,0.75,2.278,1.277,3.5,1.718c-1.191-0.039-2.397-0.393-3.045-0.612
				c0.104,0.237,0.213,0.494,0.33,0.801c0.221,0.234,0.442,0.466,0.659,0.697c1.312,1.041,6.847,2.602,10.313,2.412
				c2.758-0.154,6.354-1.014,8.24-2.211c0.215-0.178,0.484-0.436,0.787-0.741c0.121-0.354,0.232-0.651,0.336-0.924
				c-0.666,0.22-1.785,0.51-2.877,0.649c1.393-0.526,2.557-1.244,3.305-1.74C322.329,140.144,322.489,139.673,322.623,139.019z"/>
		</g>
		<path d="M349.552,73.677c-1.243-15.982-13.671-34.203-38.835-33.244c-21.732,0.826-34.36,14.097-37.28,27.81
			c-2.486,11.669-0.307,25.185-0.033,28.822c0.494-0.183,0.867-0.194,1.162-0.104c0.064,2.773,0.83,6.227,3.218,10.219
			c-0.819-6.716,0.819-6.471,0.491-10.891c-0.408-4.422,1.883-2.949,1.229-9.58c1.107-2.439,0.83-4.769,0.421-7.485
			c0.3-0.876,0.702-1.792,1.167-2.667c0.947-0.396,1.842-0.777,2.566-1.061c1.969-0.77,6.895-6.713,9.75-8.166
			c4.432-2.254,7.342,1.145,16.51-3.261c1.514,1.334,4.22,2.187,5.906,2.428c1.922,0.274,6.667-1.333,9,1.167
			c2.851,3.055,9.48,5.661,11.86,6.54c0.784,1.913,1.206,3.729,2.589,4.482c0.16,0.088,0.342,0.213,0.529,0.354
			c0.139,1.47,0.432,2.763,1.108,3.738c1.474,2.129,3.333,6.695,2.987,8.639c-0.859,4.83,1.105,10.273,1.35,13.713
			c1.066-2.539,1.106-5.013,1.395-7.695c0.037-0.354,0.014-0.703-0.031-1.051c0.25-0.354,0.629-0.588,1.26-0.588
			C347.946,92.159,350.36,84.063,349.552,73.677z"/>
	</g>
</g>
</svg>
