<?xml version="1.0" encoding="utf-8"?>
<!-- Generator: Adobe Illustrator 15.0.0, SVG Export Plug-In . SVG Version: 6.00 Build 0)  -->
<!DOCTYPE svg PUBLIC "-//W3C//DTD SVG 1.1//EN" "http://www.w3.org/Graphics/SVG/1.1/DTD/svg11.dtd">
<svg version="1.1" xmlns="http://www.w3.org/2000/svg" xmlns:xlink="http://www.w3.org/1999/xlink" x="0px" y="0px"
	 width="955.272px" height="1099.241px" viewBox="0 0 955.272 1099.241" enable-background="new 0 0 955.272 1099.241"
	 xml:space="preserve">
<g id="Capa_3">
	<g>
		<g>
			<path fill="#93AB20" d="M806.767,109.234c155.775,57.453,141.24,319.549,148.506,404.336
				c-24.225,2.422-154.635,15.422-168.766,16.229c-1.213-10.901-48.049-392.121-49.26-398.984
				C746.937,128.394,801.519,110.851,806.767,109.234z"/>
			<path fill="#DBF74A" d="M799.243,514.162c-7.607-62.238-38.307-312.551-45.969-372.872c11.906-3.622,29.834-9.292,48.244-15.148
				c1.785-0.568,3.389-1.076,4.756-1.511c120.723,49.133,128.168,241.244,132.197,345.041c0.439,11.337,0.84,21.685,1.342,30.835
				C892.937,505.176,827.989,511.571,799.243,514.162z"/>
		</g>
		<g>
			<g>
				<path fill="#93AB20" d="M177.044,81.759C275.559,46.633,402.335,8.478,424.138,0c9.689,117.896,239.828,124.759,239.828,18.168
					c18.168,12.113,142.502,86.321,167.135,102.472c15.16,119.187,62.834,205.553,61.188,320.255
					c-7.166,63.568-52.32,198.132-46.027,254.362c16.957,151.537,42.432,298.007,50.068,340.767
					c-103.365,92.862-495.811,83.172-665.386-27.455c24.225-97.708,68.64-231.752,61.372-311.696
					C263.245,583.017,147.974,231.952,177.044,81.759z"/>
				<path fill="#B7D130" d="M624.401,1084.706c-146.729,0-292.867-32.32-376.784-82.838c4.649-18.228,9.88-37.521,15.362-57.756
					c23.312-85.997,49.729-183.467,43.813-248.554l-0.107-1.156l-0.287-1.125c-5.189-20.326-13.136-48.264-22.336-80.617
					C241.62,463.438,171.212,215.889,189.92,92.613c57.876-20.42,123.919-41.521,172.729-57.115
					c20.742-6.629,37.93-12.121,50.143-16.168c15.734,58.341,81.816,88.733,144.697,88.733c59.91,0,104.621-26.135,117.34-65.917
					c15.33,9.43,37.217,22.7,59.904,36.45c32.871,19.926,66.73,40.452,82.844,50.638c12.936,30.65,36.684,83.565,48.063,125.128
					c16.021,58.516,19.381,128.392,12.123,185.605c-2.783,23.917-11.178,58.76-20.064,95.625
					c-14.75,61.198-29.998,124.479-25.885,161.281c15.605,139.456,38.279,274.234,48.725,333.381
					C836.081,1064.463,741.485,1084.706,624.401,1084.706z"/>
				<path fill="#DBF74A" d="M857.698,535.593c8.887-36.864,17.281-71.707,20.064-95.625c7.258-57.213,3.898-127.09-12.123-185.605
					c-11.379-41.563-35.127-94.479-48.063-125.128c-16.113-10.186-49.973-30.712-82.844-50.638
					c-22.688-13.75-44.574-27.02-59.904-36.45c-12.719,39.782-57.43,65.917-117.34,65.917c-62.881,0-128.963-30.393-144.697-88.733
					c-12.213,4.047-29.4,9.539-50.143,16.168c-45.195,14.439-105.16,33.6-159.74,52.57
					c16.277,126.893,92.766,350.244,120.09,373.014c67.829,56.527,176.037,61.371,277.783,56.527
					c-66.211,48.449-156.658,64.601-219.643,58.14c20.994,125.97-22.609,384.37-42.276,466.46
					c80.903,26.718,183.065,42.497,285.538,42.497c117.084,0,211.68-20.243,256.137-54.452
					c-10.445-59.146-33.119-193.925-48.725-333.381C827.7,660.072,842.948,596.791,857.698,535.593z"/>
				<linearGradient id="SVGID_1_" gradientUnits="userSpaceOnUse" x1="120.7197" y1="885.8384" x2="836.5711" y2="885.8384">
					<stop  offset="0" style="stop-color:#949FA1"/>
					<stop  offset="1" style="stop-color:#B7C6C9"/>
				</linearGradient>
				<path fill="url(#SVGID_1_)" d="M863.62,926.205c-4.551-28.821-9.113-60.783-13.93-94.881
					c-113.248,28.664-408.795,23.819-555.357-16.151c-6.581,31.823-14.789,64.994-23.418,97.304
					C439.278,963.35,742.901,973.04,863.62,926.205z"/>
				<path fill="#868F98" d="M294.333,815.172c-6.581,31.823-14.789,64.994-23.418,97.304c25.924,7.833,57.816,15.203,88.994,21.026
					c6.695-32.938,11.541-80.176,14.599-101.878C345.321,827.066,317.421,821.47,294.333,815.172z"/>
				<linearGradient id="SVGID_2_" gradientUnits="userSpaceOnUse" x1="-127.4893" y1="243.5737" x2="914.1862" y2="340.4738">
					<stop  offset="0" style="stop-color:#949FA1"/>
					<stop  offset="1" style="stop-color:#B7C6C9"/>
				</linearGradient>
				<path fill="url(#SVGID_2_)" d="M848.519,441.71c-3.078-136.106-24.568-255.299-51.518-326.236
					c-17.146-10.516-79-47.75-86.803-52.489c31.625,125.696,53.375,257.796,53.658,386.275
					c-103.199,6.774-207.109,5.099-310.469-2.459c-16.898-150.574-38.807-325.978-95.262-410.463
					c-26.272,8.398-61.166,19.983-92.359,30.281c38.553,47.815,67.357,232.444,77.42,370.002
					c-37.035-4.121-73.947-8.845-110.653-14.148c9.45,38.163,19.466,75.608,29.128,110.593
					c195.98,30.057,398.426,42.79,593.984,14.42c10.773-43.172,22.105-98.111,22.713-109.315
					C868.429,439.467,858.472,440.585,848.519,441.71z"/>
				<path fill="#868F98" d="M304.636,432.107c-22.867-2.834-49.371-6.349-72.103-9.634c9.45,38.163,19.466,75.608,29.128,110.593
					c70.801,10.858,142.447,19.404,214.31,24.621C367.761,526.038,345.052,512.198,304.636,432.107z"/>
			</g>
			<g>
				<path fill="#93AB20" d="M553.761,148.205c-66.552,0.003-119.336-31.567-146.804-61.508
					c-20.122-21.93-29.997-45.683-27.816-66.881l7.229,0.743c-1.966,19.104,7.245,40.848,25.942,61.227
					c26.878,29.294,79.258,60.252,144.805,59.124c98.375-1.623,136.199-57.127,136.932-91.732l7.268,0.156
					c-0.789,37.308-40.605,97.135-144.076,98.844C556.075,148.197,554.911,148.205,553.761,148.205z"/>
			</g>
		</g>
		<g>
			<path fill="#93AB20" d="M177.044,81.759c-47.846,20.819-73.684,103.16-118.906,200.061C38.761,322.195,14.534,365.797,0,390.023
				c40.373,12.921,179.265,77.521,188.954,87.21c22.611-45.221,83.981-172.807,95.285-208.335
				C287.468,186.532,231.954,88.22,177.044,81.759z"/>
			<path fill="#DBF74A" d="M181.687,457.046c-35.464-19.515-119.178-58.736-160.318-74.714
				c15.016-26.07,34.246-61.663,49.875-94.222c9.621-20.618,18.192-40.158,26.479-59.058
				c28.249-64.417,50.784-115.802,81.494-132.208c84.431,8.536,108.979,95.472,91.698,170.843
				C259.804,300.919,207.632,403.542,181.687,457.046z"/>
		</g>
	</g>
</g>
<g id="Capa_4">
	<g>
		<g>
			<path fill="#3A2213" d="M227.226,588.514c6.106-13.081,14.099-37.267,20.285-44.443c3.632-4.185,32.272-34.719,37.514-44.647
				c5.486-9.279,11.499-31.912,14.879-58.347c4.695-17.44,48.495,0.777,48.821,37.503c0.337,37.664-15.295,68.203-23.815,87.523
				C315.648,568.972,233.985,585.986,227.226,588.514z"/>
			
				<linearGradient id="SVGID_3_" gradientUnits="userSpaceOnUse" x1="192.3311" y1="369.1851" x2="241.1722" y2="385.0585" gradientTransform="matrix(0.9986 0.053 -0.053 0.9986 91.5159 124.9686)">
				<stop  offset="6.030000e-006" style="stop-color:#5C3B27"/>
				<stop  offset="1" style="stop-color:#7B593A"/>
			</linearGradient>
			<path fill="url(#SVGID_3_)" d="M243.549,572.607c4.181-10.878,11.67-21.842,15.735-27.646
				c2.074-2.954,11.504-13.653,17.602-20.059c6.59-6.945,12.109-13.454,13.885-16.025c7.551-10.916,14.879-35.269,16.797-60.027
				c6.207-7.337,27.67,5.482,30.227,26.648c2.315,19.253-4.688,47.028-12.924,66.362c0,0,15.249,0.748,15.859,5.108
				C338.628,547.537,266.472,567.002,243.549,572.607z"/>
		</g>
		<g>
			<path fill="#3A2213" d="M202.859,578.601c15.476-10.33,45.253-31.751,45.253-31.751s7.938-2.372,14.031-5.264
				c14.411-6.798,25.158-5.866,41.045-9.028c33.355,3.295,52.424-4.488,88.338,3.707c14.731,44.997,11.418,91.201,11.967,159.618
				c0.133,16.238-2.111,37.001-6.553,43.464c-20.63,14.292-72.506,17.416-91.679,15.485c-24.722-3.655-89.313-21.19-100.021-26.198
				C223.107,716.722,245.858,642.791,202.859,578.601z"/>
			<linearGradient id="SVGID_4_" gradientUnits="userSpaceOnUse" x1="388.4443" y1="641.0664" x2="147.915" y2="626.2391">
				<stop  offset="6.030000e-006" style="stop-color:#5C3B27"/>
				<stop  offset="1" style="stop-color:#7B593A"/>
			</linearGradient>
			<path fill="url(#SVGID_4_)" d="M310.024,742.92c-38.1-6.344-80.242-18.652-96.835-24.598
				c-15.087-14.288-30.171-94.474-6.358-128.605c19.666-15.566,86.416-60.724,95.477-60.648
				c33.934,2.917,62.755,4.484,95.244,11.878c5.232,49.907-5.207,167.993-20.09,193.376
				C370.979,738.125,337.671,741.784,310.024,742.92z"/>
			
				<linearGradient id="SVGID_5_" gradientUnits="userSpaceOnUse" x1="348.2334" y1="482.4038" x2="203.8821" y2="509.8998" gradientTransform="matrix(0.9986 0.053 -0.053 0.9986 91.5159 124.9686)">
				<stop  offset="6.030000e-006" style="stop-color:#5C3B27"/>
				<stop  offset="1" style="stop-color:#7B593A"/>
			</linearGradient>
			<path fill="url(#SVGID_5_)" d="M397.552,540.946c-32.489-7.394-48.794-6.467-82.719-9.383c-0.179,0-12.502,4.9-12.686,4.914
				c-6.004,55.719,1.533,98.496,6.297,167.155c-3.178,13.09-6.354,29.772,0.393,39.288c9.33,1.435,64.946-0.965,80.615-14.533
				c1.259-8.715,1.534-13.483,1.325-25.252C390.134,666.494,402.547,588.519,397.552,540.946z"/>
			<path fill="#3A2213" d="M318.422,585.986c5.37,2.178,72.848-5.208,83.467-4.351c5.544,1.719,18.079,9.671,21.649,14.226
				c4.374,11.703,1.391,33.943-3.371,49.419c-2.027,2.774-5.359,5.96-5.359,5.96s4.355,3.209,4.166,6.542
				c-0.104,16.251-6.287,42.408-13.69,45.849c-25.753,6.646-65.954,5.879-78.387,3.972C321.936,698.875,319,601.306,318.422,585.986
				z"/>
			
				<linearGradient id="SVGID_6_" gradientUnits="userSpaceOnUse" x1="411.4912" y1="507.3447" x2="205.8471" y2="511.377" gradientTransform="matrix(0.9986 0.053 -0.053 0.9986 91.5159 124.9686)">
				<stop  offset="6.030000e-006" style="stop-color:#5C3B27"/>
				<stop  offset="1" style="stop-color:#7B593A"/>
			</linearGradient>
			<path fill="url(#SVGID_6_)" d="M310.829,705.616c0.785-22.231-1.895-36.376-2.385-51.602c-1.44-20.792-3.973-42.071-7.145-64.297
				c7.494,0.388,17.099,5.344,17.099,5.344s41.386,0.971,60.69,1.804c5.657,2.594,25.56-0.028,29.711,1.373
				c5.975,11.059,6.406,32.362-0.734,46.645c-4.686,2.419-15.275,4.81-15.275,4.81s6.15,2.22,12.36,3.186
				c2.499,11.589,2.017,34.464-6.021,43.61C379.927,703.789,322.021,707.149,310.829,705.616z"/>
			<path fill="#3A2213" d="M325.505,653.622c-3.172,0.393-0.895,2.982,0.895,3.863c23.813,0,59.536,0.899,81.279-4.966
				c1.221-2.32,3.144-5.889,4.071-8.394C384.15,652.727,350.51,653.622,325.505,653.622z"/>
			<path fill="#3A2213" d="M322.526,594.158c-1.547-0.398-6.707-3.527-7.957-3.589c-0.971,4.707-0.493,10.23,0.521,17.204
				C316.87,601.225,319.256,595.861,322.526,594.158z"/>
			<path fill="#3A2213" d="M300.5,529.395c19.049-4.961,73.822-4.961,92.483-2.386c12.3,3.371,22.117,7.542,24.205,9.923
				c6.33,10.443,10.42,38.397,2.084,56.865c-8.338,6.534-19.021,10.411-26.193,10.411c-6.107,0-68.891-5.975-78.672-7.759
				C306.72,588.093,288.039,564.778,300.5,529.395z"/>
			<linearGradient id="SVGID_7_" gradientUnits="userSpaceOnUse" x1="422.4307" y1="568.043" x2="310.9767" y2="563.8843">
				<stop  offset="6.030000e-006" style="stop-color:#5C3B27"/>
				<stop  offset="1" style="stop-color:#7B593A"/>
			</linearGradient>
			<path fill="url(#SVGID_7_)" d="M394.172,596.07c0,0-70.153,0.985-90.099-2.878c-7.881-15.097-13.775-39.354-0.602-56.856
				c19.458-1.785,72.972-1.453,88.055-0.071c6.74,2.191,11.076,3.934,17.325,6.613c3.546,12.375,4.985,39.852,0.597,47.038
				C404.09,593.5,394.172,596.07,394.172,596.07z"/>
			<linearGradient id="SVGID_8_" gradientUnits="userSpaceOnUse" x1="433.1758" y1="568.4551" x2="400.7856" y2="566.5693">
				<stop  offset="6.030000e-006" style="stop-color:#5C3B27"/>
				<stop  offset="1" style="stop-color:#7B593A"/>
			</linearGradient>
			<path fill="url(#SVGID_8_)" d="M408.852,542.878c-6.343-3.968-16.843-6.703-17.06-6.741c7.739,11.111,8.53,44.06,1.986,59.933
				c4.289-0.407,10.312-2.57,15.67-6.154C413.837,582.729,412.397,555.252,408.852,542.878z"/>
		</g>
	</g>
</g>
</svg>
