<?xml version="1.0" encoding="utf-8"?>
<!-- Generator: Adobe Illustrator 15.0.0, SVG Export Plug-In . SVG Version: 6.00 Build 0)  -->
<!DOCTYPE svg PUBLIC "-//W3C//DTD SVG 1.1//EN" "http://www.w3.org/Graphics/SVG/1.1/DTD/svg11.dtd">
<svg version="1.1" xmlns="http://www.w3.org/2000/svg" xmlns:xlink="http://www.w3.org/1999/xlink" x="0px" y="0px"
	 width="712.424px" height="1147.844px" viewBox="0 0 712.424 1147.844" enable-background="new 0 0 712.424 1147.844"
	 xml:space="preserve">
<g id="Capa_3">
	<g>
		<path fill="#93AB20" d="M13.531,59.754C30.487,53.698,199.293,3.01,207.734,0c26.733,49.699,180.074,304.428,230.947,343.186
			c9.85,112.953,19.379,695.388,19.379,719.485c-2.424,38.76-45.621,80.27-92.055,84.787
			c-87.211,4.846-273.23-36.281-340.768-102.552c12.112-156.251,8.883-520.03,1.617-599.165
			C83.783,364.99,116.487,177.245,13.531,59.754z"/>
		<path fill="#B7D130" d="M351.238,1133.312c-85.519,0-246.039-36.57-310.984-94.272c11.5-159.453,8.413-499.512,1.59-588.479
			c50.418-75.882,92.813-258.781-1.605-384.094C65.312,58.673,106.5,46.154,141.696,35.45c27.473-8.35,47.374-14.404,59.076-18.016
			c36.721,65.09,169.452,283.926,223.917,332.982c9.676,125.955,18.721,683.562,18.836,711.782
			c-2.334,32.064-41.068,66.948-78.639,70.762C360.631,1133.192,356.041,1133.312,351.238,1133.312z"/>
		<linearGradient id="SVGID_1_" gradientUnits="userSpaceOnUse" x1="44.0869" y1="917.7319" x2="442.5586" y2="917.7319">
			<stop  offset="0" style="stop-color:#949FA1"/>
			<stop  offset="1" style="stop-color:#B7C6C9"/>
		</linearGradient>
		<path fill="url(#SVGID_1_)" d="M442.559,995.799c-0.51-31.155-1.213-71.225-2.072-116.301
			c-116.875,3.907-302.6-8.307-393.646-40.607c-0.705,7.771-3.029,105.38-2.726,113.556
			C170.667,988.661,307.199,999.811,442.559,995.799z"/>
		<linearGradient id="SVGID_2_" gradientUnits="userSpaceOnUse" x1="43.0049" y1="317.1294" x2="433.8359" y2="317.1294">
			<stop  offset="0" style="stop-color:#949FA1"/>
			<stop  offset="1" style="stop-color:#B7C6C9"/>
		</linearGradient>
		<path fill="url(#SVGID_2_)" d="M431.146,493.721c-48.492,2.367-97.074,3.497-145.619,3.044
			c-9.902-161.28-30.231-335.983-100.808-475.166c-11.245,3.433-75.796,23.367-91.854,28.264
			c40.314,69.356,78.831,290.335,80.486,442.848c-43.583-2.787-87.065-7.032-130.347-13.057
			c1.206,25.612,2.476,71.669,3.229,110.628c87.212,24.225,256.714,25.85,387.603,18.574
			C432.748,567.068,432.344,530.263,431.146,493.721z"/>
		<path fill="#DBF74A" d="M424.689,350.416C370.225,301.36,237.493,82.524,200.772,17.434c-11.702,3.612-31.604,9.666-59.076,18.016
			C106.5,46.154,65.312,58.673,40.238,66.467c60.405,80.17,64.774,183.874,46.908,268.083
			c19.529,251.167,29.014,499.164,31.23,749.639c75.068,30.935,172.582,49.123,232.861,49.123c4.803,0,9.393-0.119,13.648-0.352
			c37.57-3.813,76.305-38.697,78.639-70.762C443.41,1033.978,434.365,476.371,424.689,350.416z"/>
		<linearGradient id="SVGID_3_" gradientUnits="userSpaceOnUse" x1="44.0869" y1="917.7319" x2="442.5586" y2="917.7319">
			<stop  offset="0" style="stop-color:#949FA1"/>
			<stop  offset="1" style="stop-color:#B7C6C9"/>
		</linearGradient>
		<path fill="url(#SVGID_3_)" d="M442.559,995.799c-0.51-31.155-1.213-71.225-2.072-116.301
			c-116.875,3.907-302.6-8.307-393.646-40.607c-0.705,7.771-3.029,105.38-2.726,113.556
			C170.667,988.661,307.199,999.811,442.559,995.799z"/>
		<linearGradient id="SVGID_4_" gradientUnits="userSpaceOnUse" x1="43.0049" y1="317.1294" x2="433.8359" y2="317.1294">
			<stop  offset="0" style="stop-color:#949FA1"/>
			<stop  offset="1" style="stop-color:#B7C6C9"/>
		</linearGradient>
		<path fill="url(#SVGID_4_)" d="M431.146,493.721c-48.492,2.367-97.074,3.497-145.619,3.044
			c-9.902-161.28-30.231-335.983-100.808-475.166c-11.245,3.433-75.796,23.367-91.854,28.264
			c40.314,69.356,78.831,290.335,80.486,442.848c-43.583-2.787-87.065-7.032-130.347-13.057
			c1.206,25.612,2.476,71.669,3.229,110.628c87.212,24.225,256.714,25.85,387.603,18.574
			C432.748,567.068,432.344,530.263,431.146,493.721z"/>
		<path fill="#868F98" d="M46.84,838.891c-0.705,7.771-3.029,105.38-2.726,113.556c23.915,6.845,48.188,12.784,72.741,17.906
			c-0.682-38.01-1.545-75.985-2.59-113.938C88.706,851.409,65.717,845.589,46.84,838.891z"/>
		<path fill="#868F98" d="M43.005,479.654c1.206,25.612,2.476,71.669,3.229,110.628c16.64,4.623,36.29,8.415,58.077,11.488
			c-1.959-38.465-4.13-76.958-6.529-115.494C79.494,484.345,61.229,482.19,43.005,479.654z"/>
		<path fill="#93AB20" d="M485.516,19.38c-12.67,88.101-70.328,277.935-87.207,335.919c4.846,67.83,21.303,674.766,23.416,692.836
			c0,43.604,26.645,96.9,77.518,96.9s176.844-33.11,213.182-62.985c-8.451-115.211-39.555-424.084-30.283-506.304
			c23.014-118.702,19.721-372.661-43.604-467.543C592.107,79.134,509.74,35.531,485.516,19.38z"/>
		<path fill="#DBF74A" d="M499.242,1130.501c-42.965,0-62.982-49.148-62.982-82.365v-0.848l-0.104-0.839
			c-0.869-8.401-4.564-129.432-8.477-257.566c-5.553-181.584-11.818-386.899-14.697-431.988c1.77-6.07,3.934-13.394,6.393-21.746
			c20.555-69.703,61.449-208.398,76.934-292.107c12.707,7.447,29.012,16.619,46.818,26.635
			c28.818,16.21,61.334,34.502,84.986,49.158c56.891,89.683,63.408,332.182,39.758,454.146l-0.109,0.563l-0.063,0.573
			c-7.346,65.104,9.492,262.409,21.791,406.474c3.156,37.017,5.928,69.492,7.836,94.497
			C658.357,1100.622,546.498,1130.501,499.242,1130.501z"/>
		<linearGradient id="SVGID_5_" gradientUnits="userSpaceOnUse" x1="-107.5146" y1="356.8145" x2="698.0461" y2="322.845">
			<stop  offset="0" style="stop-color:#949FA1"/>
			<stop  offset="1" style="stop-color:#B7C6C9"/>
		</linearGradient>
		<path fill="url(#SVGID_5_)" d="M634.6,477.118c5.207-120.101-5.658-254.783-28.744-371.654
			c-19.762-11.607-79.137-45.418-88.846-50.959c14.979,139.922,30.994,290.776,27.471,431.494
			c-41.988,3.609-84.016,6.461-126.063,8.318c1.207,35.9,1.977,73.767,3.307,116.156c82.002-3.913,164.508-11.756,245.148-26.809
			c0.23-3.405,0.498-6.65,0.826-9.546l0.063-0.573l0.109-0.563c5.488-28.294,9.324-63.117,11.313-100.977
			C664.338,473.794,649.473,475.48,634.6,477.118z"/>
		<linearGradient id="SVGID_6_" gradientUnits="userSpaceOnUse" x1="-105.8555" y1="918.0664" x2="565.2125" y2="922.9117">
			<stop  offset="0" style="stop-color:#949FA1"/>
			<stop  offset="1" style="stop-color:#B7C6C9"/>
		</linearGradient>
		<path fill="url(#SVGID_6_)" d="M678.611,849.636c-81.258,19.233-166.045,26.501-248.141,30.338
			c1.406,45.59,2.684,86.279,3.688,116.084c85.604-1.989,170.463-16.964,254.039-41.189
			C685.1,918.475,681.701,888.884,678.611,849.636z"/>
	</g>
</g>
<g id="Capa_4">
	<g>
		<g>
			<path fill="#3A2213" d="M32.826,582.861c6.106-13.081,14.1-37.267,20.285-44.443c3.632-4.185,32.273-34.719,37.514-44.647
				c5.486-9.279,11.499-31.912,14.879-58.347c4.695-17.44,48.495,0.777,48.821,37.503c0.337,37.664-15.295,68.203-23.815,87.523
				C121.249,563.319,39.586,580.333,32.826,582.861z"/>
			
				<linearGradient id="SVGID_7_" gradientUnits="userSpaceOnUse" x1="-4.6406" y1="266.8608" x2="44.1999" y2="282.734" gradientTransform="matrix(0.9986 0.053 -0.053 0.9986 88.3906 231.9359)">
				<stop  offset="6.030000e-006" style="stop-color:#5C3B27"/>
				<stop  offset="1" style="stop-color:#7B593A"/>
			</linearGradient>
			<path fill="url(#SVGID_7_)" d="M49.149,566.954c4.181-10.878,11.67-21.842,15.735-27.646
				c2.074-2.954,11.504-13.653,17.602-20.059c6.59-6.945,12.109-13.454,13.885-16.025c7.551-10.916,14.879-35.269,16.797-60.027
				c6.207-7.337,27.67,5.482,30.227,26.648c2.315,19.253-4.688,47.028-12.924,66.362c0,0,15.249,0.748,15.859,5.108
				C144.229,541.883,72.072,561.349,49.149,566.954z"/>
		</g>
		<g>
			<path fill="#3A2213" d="M8.46,572.948c15.476-10.33,45.253-31.751,45.253-31.751s7.938-2.372,14.031-5.264
				c14.411-6.798,25.158-5.866,41.045-9.028c33.355,3.295,52.424-4.488,88.338,3.707c14.731,44.997,11.418,91.201,11.967,159.618
				c0.133,16.238-2.111,37.001-6.553,43.464c-20.63,14.292-72.506,17.416-91.679,15.485c-24.722-3.655-89.312-21.19-100.021-26.198
				C28.708,711.069,51.459,637.137,8.46,572.948z"/>
			<linearGradient id="SVGID_8_" gradientUnits="userSpaceOnUse" x1="194.0449" y1="635.4131" x2="-46.4856" y2="620.5858">
				<stop  offset="6.030000e-006" style="stop-color:#5C3B27"/>
				<stop  offset="1" style="stop-color:#7B593A"/>
			</linearGradient>
			<path fill="url(#SVGID_8_)" d="M115.625,737.267c-38.1-6.344-80.242-18.652-96.835-24.598
				c-15.087-14.288-30.171-94.474-6.358-128.605c19.666-15.566,86.416-60.724,95.477-60.648
				c33.934,2.917,62.755,4.484,95.244,11.878c5.232,49.907-5.207,167.993-20.09,193.376
				C176.58,732.471,143.271,736.13,115.625,737.267z"/>
			
				<linearGradient id="SVGID_9_" gradientUnits="userSpaceOnUse" x1="151.2617" y1="380.0796" x2="6.9092" y2="407.5758" gradientTransform="matrix(0.9986 0.053 -0.053 0.9986 88.3906 231.9359)">
				<stop  offset="6.030000e-006" style="stop-color:#5C3B27"/>
				<stop  offset="1" style="stop-color:#7B593A"/>
			</linearGradient>
			<path fill="url(#SVGID_9_)" d="M203.152,535.293c-32.489-7.394-48.794-6.467-82.719-9.383c-0.179,0-12.502,4.9-12.686,4.914
				c-6.004,55.719,1.533,98.496,6.297,167.155c-3.178,13.09-6.354,29.772,0.393,39.288c9.33,1.435,64.947-0.965,80.615-14.533
				c1.259-8.715,1.534-13.483,1.325-25.252C195.734,660.84,208.147,582.866,203.152,535.293z"/>
			<path fill="#3A2213" d="M124.022,580.333c5.37,2.178,72.848-5.208,83.467-4.351c5.544,1.719,18.079,9.671,21.649,14.226
				c4.374,11.703,1.391,33.943-3.371,49.419c-2.027,2.774-5.359,5.96-5.359,5.96s4.355,3.209,4.166,6.542
				c-0.104,16.251-6.287,42.408-13.689,45.849c-25.754,6.646-65.955,5.879-78.388,3.972
				C127.536,693.221,124.601,595.652,124.022,580.333z"/>
			
				<linearGradient id="SVGID_10_" gradientUnits="userSpaceOnUse" x1="214.5195" y1="405.02" x2="8.8737" y2="409.0523" gradientTransform="matrix(0.9986 0.053 -0.053 0.9986 88.3906 231.9359)">
				<stop  offset="6.030000e-006" style="stop-color:#5C3B27"/>
				<stop  offset="1" style="stop-color:#7B593A"/>
			</linearGradient>
			<path fill="url(#SVGID_10_)" d="M116.43,699.962c0.785-22.231-1.895-36.376-2.385-51.602c-1.44-20.792-3.973-42.071-7.145-64.297
				c7.494,0.388,17.099,5.344,17.099,5.344s41.386,0.971,60.69,1.804c5.657,2.594,25.56-0.028,29.711,1.373
				c5.975,11.059,6.406,32.362-0.734,46.645c-4.686,2.419-15.275,4.81-15.275,4.81s6.15,2.22,12.36,3.186
				c2.499,11.589,2.017,34.464-6.021,43.61C185.527,698.135,127.621,701.496,116.43,699.962z"/>
			<path fill="#3A2213" d="M131.105,647.968c-3.172,0.393-0.895,2.982,0.895,3.863c23.813,0,59.536,0.899,81.279-4.966
				c1.221-2.32,3.144-5.889,4.071-8.394C189.751,647.073,156.11,647.968,131.105,647.968z"/>
			<path fill="#3A2213" d="M128.127,588.504c-1.547-0.398-6.707-3.527-7.957-3.589c-0.971,4.707-0.493,10.23,0.521,17.204
				C122.471,595.572,124.856,590.208,128.127,588.504z"/>
			<path fill="#3A2213" d="M106.101,523.742c19.049-4.961,73.822-4.961,92.483-2.386c12.301,3.371,22.117,7.542,24.205,9.923
				c6.33,10.443,10.42,38.397,2.084,56.865c-8.338,6.534-19.021,10.411-26.193,10.411c-6.107,0-68.891-5.975-78.672-7.759
				C112.32,582.44,93.64,559.125,106.101,523.742z"/>
			<linearGradient id="SVGID_11_" gradientUnits="userSpaceOnUse" x1="228.0313" y1="562.3896" x2="116.5773" y2="558.231">
				<stop  offset="6.030000e-006" style="stop-color:#5C3B27"/>
				<stop  offset="1" style="stop-color:#7B593A"/>
			</linearGradient>
			<path fill="url(#SVGID_11_)" d="M199.772,590.417c0,0-70.153,0.985-90.099-2.878c-7.881-15.097-13.775-39.354-0.602-56.856
				c19.458-1.785,72.972-1.453,88.055-0.071c6.74,2.191,11.076,3.934,17.325,6.613c3.546,12.375,4.985,39.852,0.597,47.038
				C209.69,587.846,199.772,590.417,199.772,590.417z"/>
			<linearGradient id="SVGID_12_" gradientUnits="userSpaceOnUse" x1="238.7764" y1="562.8022" x2="206.3862" y2="560.9164">
				<stop  offset="6.030000e-006" style="stop-color:#5C3B27"/>
				<stop  offset="1" style="stop-color:#7B593A"/>
			</linearGradient>
			<path fill="url(#SVGID_12_)" d="M214.452,537.225c-6.343-3.968-16.843-6.703-17.06-6.741c7.74,11.111,8.53,44.06,1.986,59.933
				c4.289-0.407,10.312-2.57,15.67-6.154C219.438,577.076,217.998,549.599,214.452,537.225z"/>
		</g>
	</g>
</g>
</svg>
