<?xml version="1.0" encoding="utf-8"?>
<!-- Generator: Adobe Illustrator 15.0.0, SVG Export Plug-In . SVG Version: 6.00 Build 0)  -->
<!DOCTYPE svg PUBLIC "-//W3C//DTD SVG 1.1//EN" "http://www.w3.org/Graphics/SVG/1.1/DTD/svg11.dtd">
<svg version="1.1" xmlns="http://www.w3.org/2000/svg" xmlns:xlink="http://www.w3.org/1999/xlink" x="0px" y="0px"
	 width="748.36px" height="1170.596px" viewBox="0 0 748.36 1170.596" enable-background="new 0 0 748.36 1170.596"
	 xml:space="preserve">
<g id="Capa_3">
	<g>
		<g>
			<path fill="#93AB20" d="M30.581,1034.46c-1.435,17.778,3.05,61.745,11.689,77.405c85.539,54.004,495.645,90.496,674.795,8.875
				c13.404-8.448,13.83-69.186,12.445-86.131C647.579,1037.598,84.659,1033.916,30.581,1034.46z"/>
			<path fill="#B7D130" d="M424.374,1153.92c-170.801,1.742-322.877-25.395-370.828-52.26c-4.334-11.148-7.84-35.005-8.574-52.719
				c29.027-0.023,89.896,0.203,163.458,0.482c162.028,0.605,383.935,1.438,481.886,0.439c9.846-0.1,18.281-0.215,25.25-0.351
				c0.176,22.049-2.299,51.146-6.871,59.052C645.567,1136.601,544.767,1152.695,424.374,1153.92z"/>
			<path fill="#DBF74A" d="M715.565,1049.513c-6.969,0.136-15.404,0.251-25.25,0.351c-97.951,0.998-319.857,0.166-481.886-0.439
				c-32.403-0.123-62.331-0.236-88.173-0.322c0.855,27.563,3.607,55.43,14.699,78.846c71.869,15.658,176.541,27.123,289.418,25.973
				c120.393-1.225,221.193-17.319,284.32-45.355C713.267,1100.658,715.741,1071.562,715.565,1049.513z"/>
			<polygon fill="#333333" points="452.782,1103.572 451.571,1150.813 472.161,1149.195 473.372,1104.783 			"/>
			<polygon fill="#333333" points="451.974,1147.178 446.323,1170.596 475.794,1169.789 471.356,1145.967 			"/>
		</g>
		<g>
			<path fill="#93AB20" d="M533.935,92.177c-15.746,70.858-54.191,95.217-96.898,109.013
				c9.084,103.563,16.867,276.854,18.17,390.023c2.771,241.825,1.18,504.061,2.422,513.57
				c98.887-1.494,235.615-21.479,268.898-41.182c18.393-13.002,22.236-64.63,21.803-77.521
				c-4.143-120.337-4.84-342.613-2.449-408.96c2.4-66.359,7.783-289.854-53.27-378.354
				C645.37,167.275,552.104,104.896,533.935,92.177z"/>
			<path fill="#DBF74A" d="M471.39,1089.923c-2.35-57.489-13.762-285.231-13.762-497.499c0-41.787-0.926-91.484-3.029-144.139
				c-3.393-84.686-10.295-168.363-12.717-231.953c35.906-13.121,81.754-41.014,100.766-100.588
				c32.539,22.061,97.25,65.344,139.512,93.523c37.654,57.377,55.574,190.888,49.195,367.328
				c-2.465,68.398-1.613,291.979,2.447,409.984c0.602,17.842-5.426,56.996-15.279,64.859
				C689.171,1068.084,566.702,1086.911,471.39,1089.923z"/>
			<path fill="#93AB20" d="M436.634,222.186c-0.08-24.313-5.654-77.924,0.402-94.882c2.648-7.417,31.676-14.166,39.164-33.511
				c7.268-18.775,7.268-64.399,7.467-93.671c28.063,0.2,58.746,83.98,65.408,104.773
				C549.075,125.486,529.636,198.916,436.634,222.186z"/>
			<path fill="#DBF74A" d="M447.132,210.074c0.119-23.535-4.039-69.849,0.805-76.715c16.955-8.479,35.025-25.287,41.182-41.183
				c5.984-15.464,4.559-49.706,4.844-75.097c14.535,16.15,29.674,56.797,40.502,89.874
				C541.608,133.359,531.923,213.341,447.132,210.074z"/>
			<path fill="#93AB20" d="M2.196,140.627c13.323-9.689,196.105-73.643,204.701-75.098c12.111,38.761,54.104,111.031,174.02,141.313
				c26.84,142.053,83.975,337.537,91.244,897.135c-129.195,11.307-382.533-8.589-438.473-51.275
				c-6.766-6.239-27.859-20.592-27.859-49.662c0-128.461,14.939-436.052,22.208-515.994C70.295,396.971,55.95,312.561,7.041,190.289
				C3.407,181.205-3.56,144.473,2.196,140.627z"/>
			<path fill="#B7D130" d="M42.964,1041.488c-0.756-0.672-1.627-1.422-2.594-2.248c-7.481-6.389-20.006-17.084-20.006-36.201
				c0-126.754,13.448-424.102,20.592-504.688c39.23-85.795,35.001-174.91-20.419-313.461c-2.546-6.359-5.941-25.51-6.054-34.441
				c24.936-11.641,143.34-53.826,183.166-66.926c17.28,47.031,83.198,109.254,185.691,137.854
				c14.152,53.293,58.541,293.527,71.865,358.935c2.422,127.182,14.973,320.102,14.531,507.515
				C313.085,1099.132,86.118,1073.628,42.964,1041.488z"/>
			<path fill="#DBF74A" d="M455.206,580.312c-13.324-65.407-57.713-305.642-71.865-358.935
				c-102.493-28.6-168.411-90.822-185.691-137.854c-39.826,13.1-158.23,55.285-183.166,66.926
				c0.112,8.932,3.508,28.082,6.054,34.441c36.373,90.934,50.694,160.57,45.151,221.952c1.98,193.078-18.4,386.159,9.182,579.238
				c2.111,23.215,6.983,51.021,17.814,74.619c86.373,22.063,253.535,36.041,377.053,27.126
				C470.179,900.413,457.628,707.493,455.206,580.312z"/>
			<linearGradient id="SVGID_1_" gradientUnits="userSpaceOnUse" x1="20.3643" y1="913.6816" x2="732.583" y2="913.6816">
				<stop  offset="0" style="stop-color:#949FA1"/>
				<stop  offset="1" style="stop-color:#B7C6C9"/>
			</linearGradient>
			<path fill="url(#SVGID_1_)" d="M732.583,947.321c-0.688-28.595-0.801-70.544-1.213-103.259
				c-78.732,22.207-162.309,32.2-273.742,33.813c-111.715,1.619-334.045-13.178-433.645-40.19
				c-1.121,33.074-2.984,78.456-3.619,107.214c123.548,31.492,342.014,47.451,442.107,44.414
				C569.062,986.081,651.427,974.777,732.583,947.321z"/>
			<linearGradient id="SVGID_2_" gradientUnits="userSpaceOnUse" x1="336.0781" y1="-199.9756" x2="391.4269" y2="768.6254">
				<stop  offset="0" style="stop-color:#949FA1"/>
				<stop  offset="1" style="stop-color:#B7C6C9"/>
			</linearGradient>
			<path fill="url(#SVGID_2_)" d="M684.452,549.908c4.943-119.094-11.797-298.83-26.363-357.5
				c-30.713-20.506-66.07-44.068-93.268-62.379c15.209,133.121,25.119,288.103,20.156,429.038
				c-45.359,3.099-93.439,5.277-141.885,7.113c-42.758,1.621-103.854-0.765-183.688-5.355
				c-2.459-244.819-58.33-408.944-81.881-470.919c-26.253,9.002-63.511,22.23-96.599,34.369
				c32.798,73.271,69.853,244.877,65.007,428.986c-33.54-2.526-78.99-5.428-108.371-8.141c-1.873,29.537-4.295,70.527-6.295,111.5
				c101.54,18.779,279.396,29.069,421.516,24.225c80.703-2.752,192.508-13.219,277.678-29.828
				c0.203-31.69,0.289-57.608,0.895-74.422c0.412-11.427,0.719-22.664,0.932-33.719
				C717.308,545.506,701.286,547.828,684.452,549.908z"/>
			<path fill="#868F98" d="M23.983,837.685c-1.121,33.074-2.984,78.456-3.619,107.214c15.517,3.955,32.537,7.665,50.627,11.123
				c-4.316-36.545-7.055-73.091-8.672-109.633C48.214,843.645,35.278,840.747,23.983,837.685z"/>
			<path fill="#868F98" d="M37.562,545.121c-1.873,29.537-4.295,70.527-6.295,111.5c9.391,1.736,19.443,3.4,30.055,4.986
				c0.805-38.09,1.945-76.178,2.88-114.269C54.53,546.594,45.456,545.85,37.562,545.121z"/>
			<path fill="#93AB20" d="M388.183,221.377c-5.652-41.18-8.477-64.598-10.498-74.289c-5.359-23.014-31.674-29.846-53.838-37.953
				c-55.213-20.193-68.369-42.392-69.711-58.947c-1.014-12.51,0.447-37.347,0-50.065c-13.852-3.028-48.682,50.874-58.845,75.667
				C197.103,102.48,257.364,206.285,388.183,221.377z"/>
			<path fill="#DBF74A" d="M375.263,208.862c-111.689,16.956-177.75-98.123-164.732-135.259
				c7.268-14.533,21.803-38.756,33.107-54.908c-0.181,7.393-2.045,22.914-1.615,28.262c2.07,25.533,15.969,51.045,72.215,71.615
				c2.408,0.879,4.889,1.758,7.412,2.645c20.945,7.384,41.504,13.756,43.52,25.467C365.444,148.361,372.499,186.688,375.263,208.862
				z"/>
			<path fill="#333333" d="M474.062,613.979c1.539,6.748-3.645,12.279-11.537,12.293l-6.584,0.016
				c-7.896,0.008-13.904-5.593-13.355-12.451l3.006-37.506c0.547-6.862,4.625-12.31,9.064-12.11
				c4.438,0.203,9.336,5.891,10.885,12.636L474.062,613.979z"/>
			<g>
				<path fill="#333333" d="M446.765,585.746c-17.447-142.244-39.977-237.85-56.432-307.658
					c-5.826-24.729-10.861-46.084-14.973-66.237l9.492-1.94c4.086,20.012,9.104,41.303,14.912,65.954
					c16.504,70.028,39.105,165.933,56.611,308.704L446.765,585.746z"/>
			</g>
			<g>
				<path fill="#333333" d="M463.685,580.312h-9.691c0-37.413-9.797-209.213-15.645-311.862
					c-1.471-25.813-2.662-46.664-3.326-58.922l9.684-0.521c0.654,12.25,1.846,33.092,3.314,58.894
					C453.878,370.648,463.685,542.624,463.685,580.312z"/>
			</g>
			<g>
				<path fill="#333333" d="M474.575,1106.002l-19.363-0.822c4.203-99.123-4.621-384.195-10.494-537.012l19.363-0.742
					C469.97,720.531,478.806,1006.261,474.575,1106.002z"/>
			</g>
		</g>
	</g>
</g>
<g id="Capa_4">
	<g>
		<g>
			<path fill="#3A2213" d="M51.772,656.467c6.106-13.08,14.099-37.267,20.285-44.443c3.632-4.186,32.272-34.719,37.514-44.646
				c5.486-9.279,11.499-31.912,14.879-58.348c4.695-17.44,48.495,0.777,48.821,37.504c0.337,37.664-15.295,68.203-23.815,87.522
				C140.195,636.925,58.532,653.939,51.772,656.467z"/>
			
				<linearGradient id="SVGID_3_" gradientUnits="userSpaceOnUse" x1="141.5625" y1="530.5586" x2="190.4036" y2="546.432" gradientTransform="matrix(0.9986 0.053 -0.053 0.9986 -24.6865 34.465)">
				<stop  offset="6.030000e-006" style="stop-color:#5C3B27"/>
				<stop  offset="1" style="stop-color:#7B593A"/>
			</linearGradient>
			<path fill="url(#SVGID_3_)" d="M68.096,640.561c4.181-10.879,11.67-21.843,15.735-27.646
				c2.074-2.955,11.504-13.654,17.602-20.059c6.59-6.945,12.109-13.454,13.885-16.025c7.551-10.916,14.879-35.269,16.797-60.027
				c6.207-7.338,27.67,5.482,30.227,26.648c2.315,19.253-4.688,47.027-12.924,66.361c0,0,15.249,0.748,15.859,5.108
				C163.175,615.489,91.019,634.955,68.096,640.561z"/>
		</g>
		<g>
			<path fill="#3A2213" d="M27.406,646.554c15.476-10.329,45.253-31.751,45.253-31.751s7.938-2.373,14.031-5.265
				c14.411-6.798,25.158-5.866,41.045-9.028c33.355,3.295,52.424-4.487,88.338,3.707c14.731,44.998,11.418,91.201,11.967,159.618
				c0.133,16.238-2.111,37.001-6.553,43.464c-20.63,14.292-72.506,17.416-91.679,15.484c-24.722-3.654-89.313-21.189-100.021-26.197
				C47.654,784.675,70.405,710.743,27.406,646.554z"/>
			<linearGradient id="SVGID_4_" gradientUnits="userSpaceOnUse" x1="212.9912" y1="709.0205" x2="-27.5393" y2="694.1932">
				<stop  offset="6.030000e-006" style="stop-color:#5C3B27"/>
				<stop  offset="1" style="stop-color:#7B593A"/>
			</linearGradient>
			<path fill="url(#SVGID_4_)" d="M134.571,810.873c-38.1-6.344-80.242-18.652-96.835-24.598
				c-15.087-14.288-30.171-94.475-6.358-128.605c19.666-15.566,86.416-60.725,95.477-60.648
				c33.934,2.916,62.755,4.483,95.244,11.877c5.232,49.907-5.207,167.994-20.09,193.377
				C195.526,806.077,162.218,809.736,134.571,810.873z"/>
			
				<linearGradient id="SVGID_5_" gradientUnits="userSpaceOnUse" x1="297.4648" y1="643.7764" x2="153.1129" y2="671.2725" gradientTransform="matrix(0.9986 0.053 -0.053 0.9986 -24.6865 34.465)">
				<stop  offset="6.030000e-006" style="stop-color:#5C3B27"/>
				<stop  offset="1" style="stop-color:#7B593A"/>
			</linearGradient>
			<path fill="url(#SVGID_5_)" d="M222.099,608.898c-32.489-7.394-48.794-6.467-82.719-9.383c-0.179,0-12.502,4.9-12.686,4.914
				c-6.004,55.72,1.533,98.496,6.297,167.155c-3.178,13.09-6.354,29.772,0.393,39.288c9.33,1.434,64.946-0.966,80.615-14.533
				c1.259-8.716,1.534-13.483,1.325-25.252C214.681,734.446,227.094,656.472,222.099,608.898z"/>
			<path fill="#3A2213" d="M142.969,653.939c5.37,2.178,72.848-5.208,83.467-4.352c5.544,1.719,18.079,9.672,21.649,14.227
				c4.374,11.702,1.391,33.942-3.371,49.418c-2.027,2.774-5.359,5.961-5.359,5.961s4.355,3.209,4.166,6.543
				c-0.104,16.251-6.287,42.407-13.69,45.849c-25.753,6.646-65.954,5.88-78.387,3.972
				C146.482,766.827,143.547,669.258,142.969,653.939z"/>
			
				<linearGradient id="SVGID_6_" gradientUnits="userSpaceOnUse" x1="360.7217" y1="668.7178" x2="155.0776" y2="672.75" gradientTransform="matrix(0.9986 0.053 -0.053 0.9986 -24.6865 34.465)">
				<stop  offset="6.030000e-006" style="stop-color:#5C3B27"/>
				<stop  offset="1" style="stop-color:#7B593A"/>
			</linearGradient>
			<path fill="url(#SVGID_6_)" d="M135.376,773.568c0.785-22.231-1.895-36.377-2.385-51.602c-1.44-20.791-3.973-42.07-7.145-64.297
				c7.494,0.388,17.099,5.344,17.099,5.344s41.386,0.971,60.69,1.805c5.657,2.594,25.56-0.029,29.711,1.372
				c5.975,11.06,6.406,32.362-0.734,46.646c-4.686,2.418-15.275,4.809-15.275,4.809s6.15,2.221,12.36,3.187
				c2.499,11.589,2.017,34.464-6.021,43.61C204.474,771.741,146.567,775.102,135.376,773.568z"/>
			<path fill="#3A2213" d="M150.052,721.574c-3.172,0.393-0.895,2.982,0.895,3.863c23.813,0,59.536,0.899,81.279-4.967
				c1.221-2.319,3.144-5.889,4.071-8.393C208.697,720.68,175.057,721.574,150.052,721.574z"/>
			<path fill="#3A2213" d="M147.073,662.11c-1.547-0.397-6.707-3.527-7.957-3.589c-0.971,4.706-0.493,10.23,0.521,17.203
				C141.417,669.178,143.803,663.814,147.073,662.11z"/>
			<path fill="#3A2213" d="M125.047,597.348c19.049-4.961,73.822-4.961,92.483-2.386c12.3,3.371,22.117,7.542,24.205,9.923
				c6.33,10.443,10.42,38.397,2.084,56.865c-8.338,6.533-19.021,10.41-26.193,10.41c-6.107,0-68.891-5.975-78.672-7.76
				C131.267,656.046,112.586,632.73,125.047,597.348z"/>
			<linearGradient id="SVGID_7_" gradientUnits="userSpaceOnUse" x1="246.9775" y1="635.9961" x2="135.5236" y2="631.8374">
				<stop  offset="6.030000e-006" style="stop-color:#5C3B27"/>
				<stop  offset="1" style="stop-color:#7B593A"/>
			</linearGradient>
			<path fill="url(#SVGID_7_)" d="M218.719,664.022c0,0-70.153,0.985-90.099-2.878c-7.881-15.098-13.775-39.355-0.602-56.856
				c19.458-1.784,72.972-1.453,88.055-0.071c6.74,2.191,11.076,3.934,17.325,6.613c3.546,12.375,4.985,39.852,0.597,47.038
				C228.637,661.452,218.719,664.022,218.719,664.022z"/>
			<linearGradient id="SVGID_8_" gradientUnits="userSpaceOnUse" x1="257.7227" y1="636.4092" x2="225.3325" y2="634.5234">
				<stop  offset="6.030000e-006" style="stop-color:#5C3B27"/>
				<stop  offset="1" style="stop-color:#7B593A"/>
			</linearGradient>
			<path fill="url(#SVGID_8_)" d="M233.398,610.83c-6.343-3.967-16.843-6.703-17.06-6.74c7.739,11.11,8.53,44.059,1.986,59.933
				c4.289-0.407,10.312-2.57,15.67-6.154C238.384,650.682,236.944,623.205,233.398,610.83z"/>
		</g>
	</g>
</g>
</svg>
