<?xml version="1.0" encoding="utf-8"?>
<!-- Generator: Adobe Illustrator 15.0.0, SVG Export Plug-In . SVG Version: 6.00 Build 0)  -->
<!DOCTYPE svg PUBLIC "-//W3C//DTD SVG 1.1//EN" "http://www.w3.org/Graphics/SVG/1.1/DTD/svg11.dtd">
<svg version="1.1" xmlns="http://www.w3.org/2000/svg" xmlns:xlink="http://www.w3.org/1999/xlink" x="0px" y="0px"
	 width="942.357px" height="1099.241px" viewBox="0 0 942.357 1099.241" enable-background="new 0 0 942.357 1099.241"
	 xml:space="preserve">
<g id="Capa_3">
	<g>
		<g>
			<path fill="#999999" d="M797.887,109.234c155.775,57.453,137.205,319.549,144.471,404.336
				c-24.225,2.422-150.6,15.422-164.73,16.229c-1.213-10.901-48.049-392.121-49.26-398.984
				C738.057,128.394,792.639,110.851,797.887,109.234z"/>
			<path fill="#FFFFFF" d="M790.363,514.162c-7.607-62.238-38.307-312.551-45.969-372.872c11.906-3.622,29.834-9.292,48.244-15.148
				c1.785-0.568,3.389-1.076,4.756-1.511C918.117,173.765,921.367,366.17,925.4,469.966c0.439,11.337,1.92,21.535,2.422,30.685
				C880.941,505.321,819.109,511.571,790.363,514.162z"/>
		</g>
		<g>
			<g>
				<path fill="#999999" d="M168.164,81.759C266.679,46.633,393.455,8.478,415.258,0c9.689,117.896,239.828,124.759,239.828,18.168
					c18.168,12.113,142.502,86.321,167.135,102.472c15.16,119.187,62.834,205.553,61.188,320.255
					c-7.166,63.568-52.32,198.132-46.027,254.362c16.957,151.537,42.432,298.007,50.068,340.767
					c-103.365,92.862-495.811,83.172-665.386-27.455c24.225-97.708,68.64-231.752,61.372-311.696
					C254.365,583.017,139.094,231.952,168.164,81.759z"/>
				<path fill="#E8EBED" d="M615.521,1084.706c-146.729,0-292.867-32.32-376.784-82.838c4.649-18.228,9.88-37.521,15.362-57.756
					c23.312-85.997,49.729-183.467,43.813-248.554l-0.107-1.156l-0.287-1.125c-5.189-20.326-13.136-48.264-22.336-80.617
					C232.74,463.438,162.332,215.889,181.04,92.613c57.876-20.42,123.919-41.521,172.729-57.115
					c20.742-6.629,37.93-12.121,50.143-16.168c15.734,58.341,81.816,88.733,144.697,88.733c59.91,0,104.621-26.135,117.34-65.917
					c15.33,9.43,37.217,22.7,59.904,36.45c32.871,19.926,66.73,40.452,82.844,50.638c12.936,30.65,36.684,83.565,48.063,125.128
					c16.021,58.516,19.381,128.392,12.123,185.605c-2.783,23.917-11.178,58.76-20.064,95.625
					c-14.75,61.198-29.998,124.479-25.885,161.281c15.605,139.456,38.279,274.234,48.725,333.381
					C827.201,1064.463,732.605,1084.706,615.521,1084.706z"/>
				<path fill="#FFFFFF" d="M848.818,535.593c8.887-36.864,17.281-71.707,20.064-95.625c7.258-57.213,3.898-127.09-12.123-185.605
					c-11.379-41.563-35.127-94.479-48.063-125.128c-16.113-10.186-49.973-30.712-82.844-50.638
					c-22.688-13.75-44.574-27.02-59.904-36.45c-12.719,39.782-57.43,65.917-117.34,65.917c-62.881,0-128.963-30.393-144.697-88.733
					c-12.213,4.047-29.4,9.539-50.143,16.168c-45.195,14.439-105.16,33.6-159.74,52.57
					c16.277,126.893,92.766,350.244,120.09,373.014c67.829,56.527,176.037,61.371,277.783,56.527
					c-66.211,48.449-156.658,64.601-219.643,58.14c20.994,125.97-22.609,384.37-42.276,466.46
					c80.903,26.718,183.065,42.497,285.538,42.497c117.084,0,211.68-20.243,256.137-54.452
					c-10.445-59.146-33.119-193.925-48.725-333.381C818.82,660.072,834.068,596.791,848.818,535.593z"/>
			</g>
			<g>
				<path fill="#999999" d="M544.881,148.205c-66.552,0.003-119.336-31.567-146.804-61.508
					c-20.122-21.93-29.997-45.683-27.816-66.881l7.229,0.743c-1.966,19.104,7.245,40.848,25.942,61.227
					c26.878,29.294,79.258,60.252,144.805,59.124c98.375-1.623,136.199-57.127,136.932-91.732l7.268,0.156
					c-0.789,37.308-40.605,97.135-144.076,98.844C547.195,148.197,546.031,148.205,544.881,148.205z"/>
			</g>
		</g>
		<g>
			<path fill="#999999" d="M168.164,81.759C123.548,98.516,83.486,194.71,50.066,285.855C27.457,336.728,8.078,375.488,0,392.445
				c40.374,12.922,167.153,75.099,176.844,84.789c22.611-45.221,87.212-172.807,98.516-208.335
				C278.588,186.532,223.074,88.22,168.164,81.759z"/>
			<path fill="#FFFFFF" d="M171.082,456.28c-34.277-19.776-111.198-56.179-151.021-71.947c9.664-19.91,25.616-52.816,43.285-92.575
				l0.2-0.443l0.164-0.457c19.156-52.238,63.374-172.835,106.299-194.07c92.43,7.379,103.735,97.82,90.892,169.542
				C249.561,299.71,196.926,404.735,171.082,456.28z"/>
		</g>
	</g>
</g>
<g id="Capa_4">
	<g>
		<g>
			<path fill="#3A2213" d="M218.346,588.514c6.106-13.081,14.099-37.267,20.285-44.443c3.632-4.185,32.272-34.719,37.514-44.647
				c5.486-9.279,11.499-31.912,14.879-58.347c4.695-17.44,48.495,0.777,48.821,37.503c0.337,37.664-15.295,68.203-23.815,87.523
				C306.769,568.972,225.105,585.986,218.346,588.514z"/>
			
				<linearGradient id="SVGID_1_" gradientUnits="userSpaceOnUse" x1="186.0479" y1="466.7036" x2="234.8884" y2="482.5768" gradientTransform="matrix(0.9986 0.053 -0.053 0.9986 94.0796 27.9192)">
				<stop  offset="6.030000e-006" style="stop-color:#5C3B27"/>
				<stop  offset="1" style="stop-color:#7B593A"/>
			</linearGradient>
			<path fill="url(#SVGID_1_)" d="M234.669,572.607c4.181-10.878,11.67-21.842,15.735-27.646
				c2.074-2.954,11.504-13.653,17.602-20.059c6.59-6.945,12.109-13.454,13.885-16.025c7.551-10.916,14.879-35.269,16.797-60.027
				c6.207-7.337,27.67,5.482,30.227,26.648c2.315,19.253-4.688,47.028-12.924,66.362c0,0,15.249,0.748,15.859,5.108
				C329.748,547.537,257.592,567.002,234.669,572.607z"/>
		</g>
		<g>
			<path fill="#3A2213" d="M193.979,578.601c15.476-10.33,45.253-31.751,45.253-31.751s7.938-2.372,14.031-5.264
				c14.411-6.798,25.158-5.866,41.045-9.028c33.355,3.295,52.424-4.488,88.338,3.707c14.731,44.997,11.418,91.201,11.967,159.618
				c0.133,16.238-2.111,37.001-6.553,43.464c-20.63,14.292-72.506,17.416-91.679,15.485c-24.722-3.655-89.313-21.19-100.021-26.198
				C214.228,716.722,236.979,642.791,193.979,578.601z"/>
			<linearGradient id="SVGID_2_" gradientUnits="userSpaceOnUse" x1="379.5645" y1="641.0664" x2="139.0339" y2="626.2391">
				<stop  offset="6.030000e-006" style="stop-color:#5C3B27"/>
				<stop  offset="1" style="stop-color:#7B593A"/>
			</linearGradient>
			<path fill="url(#SVGID_2_)" d="M301.145,742.92c-38.1-6.344-80.242-18.652-96.835-24.598
				c-15.087-14.288-30.171-94.474-6.358-128.605c19.666-15.566,86.416-60.724,95.477-60.648
				c33.934,2.917,62.755,4.484,95.244,11.878c5.232,49.907-5.207,167.993-20.09,193.376
				C362.1,738.125,328.791,741.784,301.145,742.92z"/>
			
				<linearGradient id="SVGID_3_" gradientUnits="userSpaceOnUse" x1="341.9502" y1="579.9233" x2="197.5983" y2="607.4194" gradientTransform="matrix(0.9986 0.053 -0.053 0.9986 94.0796 27.9192)">
				<stop  offset="6.030000e-006" style="stop-color:#5C3B27"/>
				<stop  offset="1" style="stop-color:#7B593A"/>
			</linearGradient>
			<path fill="url(#SVGID_3_)" d="M388.672,540.946c-32.489-7.394-48.794-6.467-82.719-9.383c-0.179,0-12.502,4.9-12.686,4.914
				c-6.004,55.719,1.533,98.496,6.297,167.155c-3.178,13.09-6.354,29.772,0.393,39.288c9.33,1.435,64.946-0.965,80.615-14.533
				c1.259-8.715,1.534-13.483,1.325-25.252C381.254,666.494,393.667,588.519,388.672,540.946z"/>
			<path fill="#3A2213" d="M309.542,585.986c5.37,2.178,72.848-5.208,83.467-4.351c5.544,1.719,18.079,9.671,21.649,14.226
				c4.374,11.703,1.391,33.943-3.371,49.419c-2.027,2.774-5.359,5.96-5.359,5.96s4.355,3.209,4.166,6.542
				c-0.104,16.251-6.287,42.408-13.69,45.849c-25.753,6.646-65.954,5.879-78.387,3.972
				C313.056,698.875,310.12,601.306,309.542,585.986z"/>
			
				<linearGradient id="SVGID_4_" gradientUnits="userSpaceOnUse" x1="405.207" y1="604.8638" x2="199.5629" y2="608.896" gradientTransform="matrix(0.9986 0.053 -0.053 0.9986 94.0796 27.9192)">
				<stop  offset="6.030000e-006" style="stop-color:#5C3B27"/>
				<stop  offset="1" style="stop-color:#7B593A"/>
			</linearGradient>
			<path fill="url(#SVGID_4_)" d="M301.949,705.616c0.785-22.231-1.895-36.376-2.385-51.602c-1.44-20.792-3.973-42.071-7.145-64.297
				c7.494,0.388,17.099,5.344,17.099,5.344s41.386,0.971,60.69,1.804c5.657,2.594,25.56-0.028,29.711,1.373
				c5.975,11.059,6.406,32.362-0.734,46.645c-4.686,2.419-15.275,4.81-15.275,4.81s6.15,2.22,12.36,3.186
				c2.499,11.589,2.017,34.464-6.021,43.61C371.047,703.789,313.141,707.149,301.949,705.616z"/>
			<path fill="#3A2213" d="M316.625,653.622c-3.172,0.393-0.895,2.982,0.895,3.863c23.813,0,59.536,0.899,81.279-4.966
				c1.221-2.32,3.144-5.889,4.071-8.394C375.271,652.727,341.63,653.622,316.625,653.622z"/>
			<path fill="#3A2213" d="M313.646,594.158c-1.547-0.398-6.707-3.527-7.957-3.589c-0.971,4.707-0.493,10.23,0.521,17.204
				C307.99,601.225,310.376,595.861,313.646,594.158z"/>
			<path fill="#3A2213" d="M291.62,529.395c19.049-4.961,73.822-4.961,92.483-2.386c12.3,3.371,22.117,7.542,24.205,9.923
				c6.33,10.443,10.42,38.397,2.084,56.865c-8.338,6.534-19.021,10.411-26.193,10.411c-6.107,0-68.891-5.975-78.672-7.759
				C297.84,588.093,279.159,564.778,291.62,529.395z"/>
			<linearGradient id="SVGID_5_" gradientUnits="userSpaceOnUse" x1="413.5508" y1="568.043" x2="302.0959" y2="563.8842">
				<stop  offset="6.030000e-006" style="stop-color:#5C3B27"/>
				<stop  offset="1" style="stop-color:#7B593A"/>
			</linearGradient>
			<path fill="url(#SVGID_5_)" d="M385.292,596.07c0,0-70.153,0.985-90.099-2.878c-7.881-15.097-13.775-39.354-0.602-56.856
				c19.458-1.785,72.972-1.453,88.055-0.071c6.74,2.191,11.076,3.934,17.325,6.613c3.546,12.375,4.985,39.852,0.597,47.038
				C395.21,593.5,385.292,596.07,385.292,596.07z"/>
			<linearGradient id="SVGID_6_" gradientUnits="userSpaceOnUse" x1="424.2959" y1="568.4551" x2="391.9057" y2="566.5693">
				<stop  offset="6.030000e-006" style="stop-color:#5C3B27"/>
				<stop  offset="1" style="stop-color:#7B593A"/>
			</linearGradient>
			<path fill="url(#SVGID_6_)" d="M399.972,542.878c-6.343-3.968-16.843-6.703-17.06-6.741c7.739,11.111,8.53,44.06,1.986,59.933
				c4.289-0.407,10.312-2.57,15.67-6.154C404.957,582.729,403.518,555.252,399.972,542.878z"/>
		</g>
	</g>
</g>
</svg>
