<svg version="1.1" xmlns="http://www.w3.org/2000/svg">
  <defs>
    <linearGradient x1="50%" y1="50%" x2="-19%" y2="50%" class="color1" id="dust-LG1">
      <stop stop-color="#B4C7CF" offset="0%" class="stop"></stop>
      <stop stop-color="#FFFFFF" offset="100%" data-target="1" class="stop"></stop>
    </linearGradient>
    <linearGradient x1="-116%" y1="50%" x2="50%" y2="50%" class="color1" id="dust-LG2">
      <stop stop-color="#F1F4F6" offset="75%" data-target="0.8" class="stop"></stop>
      <stop stop-color="#FFFFFF" offset="100%" data-target="1" class="stop"></stop>
    </linearGradient>
    <linearGradient x1="50%" y1="503%" x2="50%" y2="-210%" class="color1" id="dust-LG3">
      <stop stop-color="#B4C7CF" offset="0%" class="stop"></stop>
      <stop stop-color="#FFFFFF" offset="100%" data-target="1" class="stop"></stop>
    </linearGradient>
    <linearGradient x1="50%" y1="311%" x2="50%" y2="-33%" class="color1" id="dust-LG4">
      <stop stop-color="#B4C7CF" offset="0%" class="stop"></stop>
      <stop stop-color="#FFFFFF" offset="100%" data-target="1" class="stop"></stop>
    </linearGradient>
    <linearGradient x1="50%" y1="447%" x2="50%" y2="-184%" class="color1" id="dust-LG5">
      <stop stop-color="#B4C7CF" offset="0%" class="stop"></stop>
      <stop stop-color="#FFFFFF" offset="100%" data-target="1" class="stop"></stop>
    </linearGradient>
    <linearGradient x1="50%" y1="395%" x2="50%" y2="-129%" class="color1" id="dust-LG6">
      <stop stop-color="#B4C7CF" offset="0%" class="stop"></stop>
      <stop stop-color="#FFFFFF" offset="100%" data-target="1" class="stop"></stop>
    </linearGradient>
    <linearGradient class="color1" id="dust-LG7">
      <stop stop-color="#B4C7CF" class="stop"></stop>
    </linearGradient>
    <linearGradient class="color2" id="dust-LG9">
      <stop stop-color="#808080" class="stop"></stop>
    </linearGradient>
  </defs>
<g transform="scale(0.346400323307)">
<g>
      <path d="M35.04,91.58 C26.13,86.23 5.2,66.72 1.63,64.58 C-0.51,57.1 0.29,47.38 0.29,44.53 C7.24,50.41 37.98,73.67 41.19,75.8 C39.76,80.08 35.76,88.37 35.04,91.58 L35.04,91.58 L35.04,91.58 Z" fill="url(#dust-LG7)"></path>
      <path d="M309.71,98.86 C318.62,93.52 340.72,69.39 344.29,65.11 C346.42,57.63 345.0,45.87 345.0,43.02 C338.05,48.9 306.77,80.95 303.57,83.09 C304.99,87.37 309.0,95.65 309.71,98.86 L309.71,98.86 L309.71,98.86 Z" fill="url(#dust-LG7)"></path>
      <path d="M331.99,89.36 C329.42,55.18 282.79,48.27 257.68,37.51 C229.0,25.22 213.61,0.26 176.9,0.26 C140.2,0.26 124.22,25.22 95.53,37.51 C70.42,48.27 23.79,55.18 21.23,89.36 C18.02,132.12 91.44,254.0 176.61,254.0 C261.78,254.0 335.19,132.12 331.99,89.36 L331.99,89.36 L331.99,89.36 Z" fill="url(#dust-LG7)"></path>
      <path d="M176.61,247.58 C145.98,247.58 112.64,229.83 82.73,197.59 C47.76,159.91 26.01,111.45 27.63,89.84 C29.34,67.03 56.07,58.04 79.66,50.1 C86.31,47.87 92.59,45.75 98.07,43.41 C108.79,38.81 117.69,32.64 126.31,26.67 C141.15,16.39 155.17,6.67 176.91,6.67 C198.55,6.67 212.33,16.33 226.91,26.55 C235.49,32.56 244.36,38.78 255.16,43.41 C260.63,45.75 266.92,47.86 273.57,50.1 C297.15,58.04 323.88,67.03 325.6,89.84 C327.22,111.45 305.46,159.91 270.49,197.59 C240.58,229.83 207.24,247.58 176.61,247.58 L176.61,247.58 L176.61,247.58 Z" fill="url(#dust-LG1)"></path>
      <path d="M325.59,89.84 C323.88,67.03 297.15,58.04 273.56,50.1 C266.91,47.87 260.62,45.75 255.15,43.41 C244.35,38.78 235.48,32.56 226.9,26.55 C212.32,16.33 198.54,6.67 176.9,6.67 C155.16,6.67 141.14,16.39 126.3,26.67 C117.69,32.64 108.79,38.81 98.06,43.41 C92.83,45.64 86.86,47.67 80.55,49.8 C17.95,98.26 105.62,231.89 160.14,245.91 C165.69,247.0 171.19,247.59 176.6,247.59 C207.23,247.59 240.57,229.84 270.48,197.6 C305.45,159.91 327.21,111.45 325.59,89.84 L325.59,89.84 L325.59,89.84 Z" fill="url(#dust-LG2)"></path>
      <path d="M274.5,137.25 C274.61,137.16 232.11,149.87 178.33,149.81 C124.54,149.88 82.05,137.16 82.15,137.25 C82.2,137.19 126.22,136.76 179.04,136.62 C231.86,136.65 274.45,137.17 274.5,137.25 L274.5,137.25 L274.5,137.25 Z" fill="url(#dust-LG3)"></path>
      <path d="M264.74,167.14 C265.13,166.8 228.64,188.08 178.32,187.95 C128.01,188.08 91.51,166.8 91.91,167.14 C91.95,167.0 131.49,176.69 178.96,176.24 C226.43,176.38 264.68,166.95 264.74,167.14 L264.74,167.14 L264.74,167.14 Z" fill="url(#dust-LG4)"></path>
      <path d="M274.5,105.23 C274.61,105.32 232.11,92.61 178.33,92.67 C124.54,92.6 82.05,105.32 82.15,105.23 C82.2,105.29 126.22,105.72 179.04,105.86 C231.86,105.83 274.45,105.31 274.5,105.23 L274.5,105.23 L274.5,105.23 Z" fill="url(#dust-LG5)"></path>
      <path d="M264.74,75.34 C265.13,75.68 228.64,54.4 178.32,54.53 C128.01,54.4 91.51,75.68 91.91,75.34 C91.95,75.48 131.49,65.79 178.96,66.24 C226.43,66.1 264.68,75.53 264.74,75.34 L264.74,75.34 L264.74,75.34 Z" fill="url(#dust-LG6)"></path>
      <path d="M228.22,42.66 C218.26,42.66 210.02,37.23 202.05,31.97 C194.28,26.84 186.94,22.0 178.32,22.0 C166.99,22.0 157.89,27.34 149.1,32.5 C141.45,37.0 134.23,41.24 126.29,41.24 C123.34,41.24 120.95,38.84 120.95,35.89 C120.95,32.94 123.34,30.55 126.29,30.55 C131.32,30.55 137.05,27.18 143.69,23.28 C152.77,17.95 164.08,11.31 178.32,11.31 C190.15,11.31 199.6,17.54 207.94,23.04 C214.9,27.64 221.47,31.97 228.22,31.97 C231.17,31.97 233.56,34.37 233.56,37.32 C233.56,40.27 231.17,42.66 228.22,42.66 L228.22,42.66 L228.22,42.66 Z" fill="url(#dust-LG9)"></path>
    </g>
  </g>
</svg>
