<svg version="1.1" xmlns="http://www.w3.org/2000/svg">
  <defs>
    <linearGradient class="color1" id="eyes-LG1">
      <stop stop-color="#cccccc" class="stop"></stop>
    </linearGradient>
  </defs>
<g transform="scale(0.342524404864)">
<g>
      <path d="M269.7,159.48 C241.24,159.48 210.1,148.85 203.06,136.74 L202.73,135.98 C198.45,122.88 190.37,116.51 178.03,116.51 C165.7,116.51 157.61,122.88 153.32,135.99 L152.99,136.74 C146.09,148.65 112.02,159.49 81.52,159.49 L81.52,159.49 C60.65,159.49 42.86,154.73 30.07,145.73 C9.39,129.12 3.22,98.07 1.36,81.02 C-1.57,54.12 2.09,25.64 9.68,16.18 C20.01,3.03 103.18,0.26 171.13,0.26 C242.23,0.26 329.17,3.03 339.53,16.21 C346.64,25.07 350.34,50.22 348.29,75.99 C346.83,94.46 341.11,128.06 319.3,145.58 C306.3,154.73 289.22,159.48 269.7,159.48 L269.7,159.48 L269.7,159.48 Z M210.07,133.08 C214.94,140.57 240.71,151.59 269.7,151.59 C282.17,151.59 300.08,149.45 314.56,139.26 C328.6,127.98 338.1,104.63 340.42,75.35 C342.45,49.82 338.33,27.32 333.35,21.12 C328.26,14.65 276.15,8.15 171.12,8.15 C70.88,8.15 20.9,14.65 15.85,21.09 C10.27,28.03 6.28,53.41 9.2,80.16 C10.92,95.99 16.54,124.74 34.81,139.41 C49.08,149.45 68.1,151.58 81.52,151.58 C112.28,151.58 141.0,140.64 145.98,133.07 C151.37,117.06 162.44,108.61 178.03,108.61 C193.62,108.61 204.69,117.07 210.07,133.08 L210.07,133.08 L210.07,133.08 Z" fill="url(#eyes-LG1)"></path>
      <path d="M155.42,118.71 C167.91,98.64 187.64,96.99 201.23,119.7 C183.69,105.88 171.2,106.21 155.42,118.71 L155.42,118.71 L155.42,118.71 Z" fill="#FFFFFF"></path>
      <path d="M178.14,110.98 C192.12,110.98 201.53,118.38 206.18,132.2 C214.84,146.68 278.35,164.61 314.97,139.61 C349.59,112.62 346.26,35.63 334.28,21.15 C323.63,7.99 201.29,7.33 171.34,7.33 C141.38,7.33 25.87,7.99 15.22,21.15 C3.23,35.63 -0.09,112.62 34.53,139.61 C71.15,164.61 141.44,146.68 150.1,132.2 C154.76,118.38 164.16,110.98 178.14,110.98 L178.14,110.98 L178.14,110.98 Z" fill="#FFFFFF" opacity="0.4"></path>
      <path d="M334.12,78.57 C336.76,53.61 332.59,31.29 328.65,26.48 C322.01,21.06 269.96,15.22 171.34,15.22 C76.58,15.22 27.5,20.85 21.06,26.27 C16.9,31.29 12.73,53.6 15.37,78.56 C15.48,79.6 15.61,80.71 15.76,81.86 L333.73,81.86 C333.88,80.71 334.01,79.6 334.12,78.57 L334.12,78.57 L334.12,78.57 Z" fill="#FFFFFF" opacity="0.4"></path>
      <path d="M268.51,154.06 C239.02,154.06 210.41,143.06 204.52,133.23 L204.35,132.84 C199.9,119.65 191.08,112.95 178.14,112.95 C165.19,112.95 156.38,119.65 151.93,132.84 L151.75,133.23 C145.87,143.06 115.22,154.06 83.0,154.06 L83.0,154.06 C68.95,154.06 48.94,151.84 33.44,141.25 C13.46,125.68 7.57,96.08 5.83,79.82 C3.15,54.79 6.62,28.46 13.73,19.87 C23.95,7.24 116.86,5.35 171.33,5.35 C228.35,5.35 325.54,7.24 335.77,19.89 C342.87,28.46 346.34,54.79 343.65,79.83 C341.91,96.09 336.02,125.68 316.15,141.17 C303.77,149.63 287.33,154.06 268.51,154.06 L268.51,154.06 L268.51,154.06 Z M207.94,131.35 C213.44,140.06 240.9,150.11 268.51,150.11 C286.56,150.11 302.25,145.91 313.88,137.96 C332.51,123.44 338.12,95.03 339.8,79.4 C342.64,52.86 338.38,29.16 332.79,22.41 C326.24,14.32 264.38,9.3 171.33,9.3 C82.5,9.3 23.25,14.32 16.71,22.4 C11.12,29.16 6.85,52.86 9.69,79.39 C11.37,95.02 16.97,123.43 35.7,138.04 C50.3,148.0 69.49,150.11 83.0,150.11 C112.78,150.11 142.91,139.89 148.33,131.34 C153.34,116.72 163.64,109.0 178.14,109.0 C192.64,109.0 202.95,116.73 207.94,131.35 L207.94,131.35 L207.94,131.35 Z" fill="#FFFFFF"></path>
    </g>
  </g>
</svg>
