<svg version="1.1" xmlns="http://www.w3.org/2000/svg">
  <defs>
    <linearGradient x1="0%" y1="100%" x2="0%" y2="0%" class="color2" id="helmet_noise-LG1">
      <stop stop-color="#000000" offset="0%" class="stop"></stop>
      <stop stop-color="#404040" offset="80%" data-target="0.2" class="stop"></stop>
      <stop stop-color="#999999" offset="100%" data-target="0.5" class="stop"></stop>
    </linearGradient>
    <linearGradient x1="0%" y1="0%" x2="100%" y2="100%" class="color2" id="helmet_noise-LG3">
      <stop stop-color="#000000" data-target="-0.2" class="stop"></stop>
    </linearGradient>
    <linearGradient x1="50%" y1="0%" x2="50%" y2="100%" class="color1" id="helmet_noise-LG4">
      <stop stop-color="#730E11"  data-target="-0.4" class="stop"></stop>
    </linearGradient>
    <linearGradient x1="50%" y1="0%" x2="50%" y2="100%" class="color1" id="helmet_noise-LG5">
      <stop stop-color="#E6E6E6"  data-target="0.2" class="stop"></stop>
    </linearGradient>
    <linearGradient x1="50%" y1="0%" x2="50%" y2="100%" class="color1" id="helmet_noise-LG6">
      <stop stop-color="#C9181E" class="stop"></stop>
    </linearGradient>
    <linearGradient x1="50%" y1="0%" x2="50%" y2="100%" class="color1" id="helmet_noise-LG7">
      <stop stop-color="#AB181D" data-target="-0.2" class="stop"></stop>
    </linearGradient>
  </defs>
<g transform="scale(0.211033536746)">
<g>
      <path d="M546.04,328.09 C545.76,331.55 542.73,334.14 539.27,333.87 L514.53,331.94 C511.07,331.67 508.48,328.63 508.75,325.17 L511.39,291.36 C511.66,287.89 514.69,285.3 518.16,285.57 L542.9,287.51 C546.36,287.78 548.95,290.81 548.68,294.27 L546.04,328.09 L546.04,328.09 L546.04,328.09 L546.04,328.09 Z" fill="url(#helmet_noise-LG4)"></path>
      <path d="M543.01,283.92 C543.05,283.4 543.65,283.02 544.37,283.07 L560.3,284.28 C561.01,284.33 561.55,284.8 561.51,285.32 L557.39,339.65 C557.35,340.18 556.74,340.56 556.03,340.5 L540.1,339.3 C539.39,339.24 538.84,338.77 538.88,338.25 L543.01,283.92 L543.01,283.92 L543.01,283.92 L543.01,283.92 Z" fill="url(#helmet_noise-LG3)"></path>
      <path d="M24.03,328.09 C24.31,331.55 27.34,334.14 30.8,333.87 L55.54,331.94 C59.0,331.67 61.59,328.63 61.32,325.17 L58.68,291.36 C58.41,287.89 55.38,285.3 51.91,285.57 L27.17,287.51 C23.71,287.78 21.12,290.81 21.39,294.27 L24.03,328.09 L24.03,328.09 L24.03,328.09 L24.03,328.09 Z" fill="url(#helmet_noise-LG4)"></path>
      <path d="M27.06,283.92 C27.02,283.4 26.41,283.02 25.7,283.07 L9.77,284.28 C9.05,284.33 8.51,284.8 8.55,285.32 L12.68,339.65 C12.72,340.18 13.33,340.56 14.04,340.5 L29.97,339.3 C30.68,339.24 31.22,338.77 31.18,338.25 L27.06,283.92 L27.06,283.92 L27.06,283.92 L27.06,283.92 Z" fill="url(#helmet_noise-LG3)"></path>
      <path d="M57.27,97.66 C56.53,84.45 55.8,47.0 57.27,32.31 C63.14,26.44 104.98,1.47 108.65,0.0 C107.19,18.36 104.25,75.64 104.25,80.04 C96.17,82.97 66.81,94.72 57.27,97.66 L57.27,97.66 L57.27,97.66 L57.27,97.66 Z" fill="url(#helmet_noise-LG3)"></path>
      <path d="M18.03,354.47 C17.3,347.14 0.38,174.67 0.38,143.19 L0.38,141.97 L0.9,140.86 C11.75,117.61 51.98,55.47 69.24,35.33 L77.59,42.5 C59.82,63.25 21.97,122.48 11.4,144.41 C11.82,178.53 28.81,351.62 28.98,353.39 L18.03,354.47 L18.03,354.47 L18.03,354.47 L18.03,354.47 Z" fill="url(#helmet_noise-LG3)"></path>
      <path d="M511.74,97.66 C512.48,84.45 513.21,47.0 511.74,32.31 C505.87,26.44 464.03,1.47 460.36,0.0 C461.83,18.36 464.77,75.64 464.77,80.04 C472.84,82.97 502.2,94.72 511.74,97.66 L511.74,97.66 L511.74,97.66 L511.74,97.66 Z" fill="url(#helmet_noise-LG3)"></path>
      <path d="M550.98,354.47 L540.03,353.39 C540.2,351.62 557.18,178.53 557.61,144.41 C547.03,122.48 509.19,63.25 491.41,42.5 L499.77,35.33 C517.02,55.47 557.26,117.6 568.11,140.86 L568.62,141.97 L568.62,143.19 C568.63,174.67 551.71,347.14 550.98,354.47 L550.98,354.47 L550.98,354.47 L550.98,354.47 Z" fill="url(#helmet_noise-LG3)"></path>
      <path d="M485.74,201.01 C497.85,204.87 527.03,224.69 543.91,243.05 C548.31,273.34 532.53,371.56 522.63,389.18 C510.88,395.79 482.99,403.13 467.58,400.93 C468.68,392.66 484.64,207.62 485.74,201.01 L485.74,201.01 L485.74,201.01 L485.74,201.01 Z" fill="url(#helmet_noise-LG4)"></path>
      <path d="M477.27,392.4 C478.56,378.64 480.99,351.2 484.37,313.14 C487.55,277.24 491.32,234.69 493.24,214.29 C505.42,221.26 523.08,234.08 535.52,246.98 C538.48,278.0 524.24,363.12 515.98,382.69 C506.83,387.06 489.98,391.65 477.27,392.4 L477.27,392.4 L477.27,392.4 L477.27,392.4 Z" fill="url(#helmet_noise-LG7)"></path>
      <path d="M535.51,246.98 C523.08,234.08 505.41,221.26 493.24,214.29 C491.32,234.69 487.55,277.24 484.36,313.14 C484.27,314.17 484.18,315.15 484.09,316.16 C499.51,318.42 514.68,319.46 529.83,319.88 C534.12,292.05 537.0,262.63 535.51,246.98 L535.51,246.98 L535.51,246.98 L535.51,246.98 Z" fill="url(#helmet_noise-LG6)"></path>
      <path d="M487.12,399.28 C486.49,404.44 481.69,408.06 476.41,407.39 C472.95,406.95 469.5,406.52 466.04,406.09 C460.75,405.43 456.99,400.78 457.6,395.7 C465.17,332.61 470.06,269.02 472.2,205.09 C472.37,199.96 476.81,195.92 482.13,196.07 C485.61,196.18 489.09,196.29 492.57,196.4 C497.89,196.57 502.09,200.94 501.91,206.15 C499.74,270.92 494.79,335.36 487.12,399.28 L487.12,399.28 L487.12,399.28 L487.12,399.28 Z" fill="url(#helmet_noise-LG3)"></path>
      <path d="M497.51,206.01 C497.55,204.7 497.07,203.44 496.16,202.48 C495.19,201.44 493.87,200.85 492.43,200.81 L481.83,200.48 C478.99,200.48 476.69,202.57 476.6,205.25 C475.74,230.85 474.41,256.55 472.66,282.24 L493.63,282.4 C495.35,256.91 496.66,231.41 497.51,206.01 L497.51,206.01 L497.51,206.01 L497.51,206.01 Z" fill="url(#helmet_noise-LG1)"></path>
      <path d="M89.01,201.01 C76.9,204.87 47.73,224.69 30.85,243.05 C26.44,273.34 42.22,371.56 52.13,389.18 C63.88,395.79 91.77,403.13 107.18,400.93 C106.08,392.66 90.12,207.62 89.01,201.01 L89.01,201.01 L89.01,201.01 L89.01,201.01 Z" fill="url(#helmet_noise-LG4)"></path>
      <path d="M97.48,392.4 C96.2,378.64 93.76,351.2 90.39,313.14 C87.2,277.24 83.43,234.69 81.51,214.29 C69.34,221.26 51.68,234.08 39.24,246.98 C36.28,278.0 50.52,363.12 58.77,382.69 C67.92,387.06 84.77,391.65 97.48,392.4 L97.48,392.4 L97.48,392.4 L97.48,392.4 Z" fill="url(#helmet_noise-LG7)"></path>
      <path d="M39.24,246.98 C51.68,234.08 69.34,221.26 81.52,214.29 C83.44,234.69 87.21,277.24 90.39,313.14 C90.49,314.17 90.57,315.15 90.66,316.16 C75.25,318.42 60.08,319.46 44.93,319.88 C40.64,292.05 37.75,262.63 39.24,246.98 L39.24,246.98 L39.24,246.98 L39.24,246.98 Z" fill="url(#helmet_noise-LG6)"></path>
      <path d="M87.64,399.28 C88.27,404.44 93.07,408.06 98.35,407.39 C101.8,406.95 105.26,406.52 108.71,406.09 C114.0,405.43 117.77,400.78 117.16,395.7 C109.59,332.61 104.7,269.02 102.56,205.09 C102.38,199.96 97.95,195.92 92.63,196.07 C89.15,196.18 85.66,196.29 82.18,196.4 C76.86,196.57 72.67,200.94 72.84,206.15 C75.01,270.92 79.96,335.36 87.64,399.28 L87.64,399.28 L87.64,399.28 L87.64,399.28 Z" fill="url(#helmet_noise-LG3)"></path>
      <path d="M76.7,206.01 C76.65,204.7 77.13,203.44 78.05,202.48 C79.01,201.44 80.34,200.85 81.78,200.81 L92.37,200.48 C95.22,200.48 97.51,202.57 97.61,205.25 C98.47,230.85 99.8,256.55 101.55,282.24 L80.58,282.4 C78.85,256.91 77.55,231.41 76.7,206.01 L76.7,206.01 L76.7,206.01 L76.7,206.01 Z" fill="url(#helmet_noise-LG1)"></path>
    </g>
  </g>
</svg>
