<svg version="1.1" xmlns="http://www.w3.org/2000/svg">
  <defs>
    <linearGradient x1="50%" y1="0%" x2="50%" y2="100%" class="color1" id="helmet_LG1">
      <stop stop-color="#F6B836" offset="60%" data-target="-0.2" class="stop"></stop>
      <stop stop-color="#FDE25B" offset="100%" data-target="0.2" class="stop"></stop>
    </linearGradient>
    <linearGradient x1="50%" y1="0%" x2="50%" y2="100%" class="color1" id="helmet_LG3">
      <stop stop-color="#F6B836" offset="80%" data-target="-0.2" class="stop"></stop>
      <stop stop-color="#FDE25B" offset="100%" data-target="0.2" class="stop"></stop>
    </linearGradient>
    <linearGradient x1="50%" y1="0%" x2="50%" y2="100%" class="color1" id="helmet_LG5">
      <stop stop-color="#F6B836" offset="25%" data-target="-0.2" class="stop"></stop>
      <stop stop-color="#FDE25B" offset="100%" data-target="0.2" class="stop"></stop>
    </linearGradient>
    <linearGradient x1="50%" y1="0%" x2="50%" y2="100%" class="color1" id="helmet_LG6">
      <stop stop-color="#F6B836" offset="10%" data-target="-0.2" class="stop"></stop>
      <stop stop-color="#FDE25B" offset="100%" data-target="0.2" class="stop"></stop>
    </linearGradient>
    <linearGradient x1="50%" y1="0%" x2="50%" y2="100%" class="color1" id="helmet_LG7">
      <stop stop-color="#FFFFAB" offset="100%" class="stop" data-target="0.6"></stop>
    </linearGradient>
    <linearGradient class="color1" id="helmet_LG8">
      <stop stop-color="#BF840E" class="stop" data-target="-0.6"></stop>
    </linearGradient>
  </defs>
<g transform="scale(0.243753808653)">
<g>
      <path d="M14.05,274.51 C13.31,262.24 14.6,225.04 16.43,213.88 C26.7,206.44 41.0,200.86 43.94,200.12 C44.67,206.82 49.07,259.64 49.07,264.85 C45.72,265.22 19.55,273.4 14.05,274.51 L14.05,274.51 L14.05,274.51 L14.05,274.51 L14.05,274.51 L14.05,274.51 L14.05,274.51 Z" id="rightearline" fill="url(#helmet_LG8)"></path>
      <path d="M20.26,263.59 C20.97,249.96 23.03,229.92 24.55,219.11 C28.39,216.65 32.58,214.48 36.26,212.77 C37.42,226.21 39.11,247.05 39.87,257.96 C36.85,258.8 32.79,259.97 27.24,261.58 C25.0,262.23 22.58,262.93 20.26,263.59 L20.26,263.59 L20.26,263.59 L20.26,263.59 L20.26,263.59 L20.26,263.59 L20.26,263.59 Z" id="rightear" fill="url(#helmet_LG1)"></path>
      <path d="M478.08,274.51 C478.82,262.24 477.53,225.04 475.7,213.88 C465.43,206.44 451.13,200.86 448.19,200.12 C447.46,206.82 443.06,259.64 443.06,264.85 C446.41,265.22 472.58,273.4 478.08,274.51 L478.08,274.51 L478.08,274.51 L478.08,274.51 L478.08,274.51 L478.08,274.51 L478.08,274.51 Z" id="leftearline" fill="url(#helmet_LG8)"></path>
      <path d="M471.87,263.59 C471.15,249.96 469.09,229.92 467.58,219.11 C463.73,216.65 459.54,214.48 455.87,212.77 C454.7,226.21 453.01,247.05 452.25,257.96 C455.28,258.8 459.34,259.97 464.88,261.58 C467.13,262.23 469.55,262.93 471.87,263.59 L471.87,263.59 L471.87,263.59 L471.87,263.59 L471.87,263.59 L471.87,263.59 L471.87,263.59 Z" id="leftear" fill="url(#helmet_LG1)"></path>
      <path d="M246.06,313.81 C272.93,313.81 383.92,321.49 419.9,317.65 C449.38,315.94 463.25,307.97 491.43,306.69 C491.86,299.86 492.3,288.35 491.43,284.93 C484.93,279.39 462.96,261.75 461.82,234.9 C459.62,183.57 451.98,15.58 246.06,15.58 C40.13,15.58 31.47,187.79 31.47,228.76 C31.47,255.91 7.19,279.39 0.68,284.93 C-0.18,288.35 0.25,299.86 0.68,306.69 C28.86,307.97 42.73,315.94 72.22,317.65 C108.2,321.49 219.18,313.81 246.06,313.81 L246.06,313.81 L246.06,313.81 L246.06,313.81 L246.06,313.81 L246.06,313.81 L246.06,313.81 Z" id="helmetandcapline" fill="url(#helmet_LG8)"></path>
      <path d="M390.61,309.8 C362.28,309.8 323.97,308.04 293.18,306.63 C271.8,305.66 254.9,304.88 246.06,304.88 C237.21,304.88 220.31,305.65 198.93,306.63 C168.15,308.04 129.83,309.8 101.51,309.8 L101.51,309.8 C89.07,309.8 79.55,309.46 73.19,308.78 C58.85,307.93 48.81,305.71 38.18,303.35 C29.41,301.41 20.39,299.41 9.36,298.35 C9.23,294.44 9.22,291.21 9.31,289.14 C19.22,279.04 38.36,252.45 37.93,225.36 C37.87,221.79 37.19,137.11 95.83,78.48 C131.66,42.66 182.2,24.51 246.06,24.51 C309.92,24.51 360.47,42.66 396.28,78.48 C454.93,137.11 454.24,221.78 454.18,225.36 C453.75,252.45 472.91,279.05 482.81,289.15 C482.89,291.19 482.89,294.43 482.76,298.35 C471.72,299.41 462.7,301.41 453.93,303.35 C443.31,305.71 433.27,307.94 419.37,308.74 C412.57,309.46 403.04,309.8 390.61,309.8 L390.61,309.8 L390.61,309.8 L390.61,309.8 L390.61,309.8 L390.61,309.8 L390.61,309.8 Z" id="helmetandcap" fill="url(#helmet_LG3)"></path>
      <path d="M423.93,303.54 C416.95,304.28 407.18,304.63 394.42,304.63 C365.35,304.63 326.02,302.83 294.43,301.38 C272.48,300.38 255.14,299.58 246.06,299.58 C236.98,299.58 219.64,300.38 197.69,301.38 C166.1,302.83 126.78,304.63 97.71,304.63 L97.7,304.63 C84.95,304.63 75.17,304.28 68.64,303.58 C53.92,302.72 9.31,296.62 9.36,298.36 C20.4,299.41 29.41,301.41 38.19,303.36 C48.82,305.71 58.86,307.94 73.2,308.78 C79.56,309.46 89.08,309.8 101.52,309.8 L101.52,309.8 C129.84,309.8 168.16,308.05 198.94,306.64 C220.32,305.66 237.22,304.88 246.07,304.88 C254.92,304.88 271.81,305.66 293.19,306.64 C323.98,308.05 362.29,309.8 390.62,309.8 C403.05,309.8 412.57,309.46 419.37,308.75 C433.27,307.94 443.31,305.71 453.94,303.36 C462.71,301.41 471.73,299.42 482.76,298.36 C482.82,296.61 438.19,302.72 423.93,303.54 L423.93,303.54 L423.93,303.54 L423.93,303.54 L423.93,303.54 L423.93,303.54 L423.93,303.54 Z" id="capfront" fill="url(#helmet_LG7)"></path>
      <path d="M396.28,78.48 C390.19,72.39 383.63,66.85 376.69,61.78 C376.12,58.28 375.52,55.19 374.89,52.8 C368.85,47.41 345.18,35.86 331.54,30.32 C331.69,32.53 331.77,35.18 331.81,38.11 C306.69,29.06 278.05,24.51 246.06,24.51 C214.07,24.51 185.43,29.06 160.31,38.11 C160.35,35.18 160.43,32.52 160.58,30.32 C146.94,35.85 123.27,47.4 117.24,52.8 C116.6,55.18 116.0,58.27 115.43,61.77 C108.49,66.83 101.94,72.37 95.84,78.47 C37.19,137.11 37.88,221.79 37.93,225.36 C38.01,229.91 34.7,257.4 56.62,261.12 C186.66,244.75 333.21,251.61 433.87,262.61 C454.28,264.84 451.33,232.2 454.19,223.67 C454.08,210.96 451.15,133.33 396.28,78.48 L396.28,78.48 L396.28,78.48 L396.28,78.48 L396.28,78.48 L396.28,78.48 L396.28,78.48 Z" id="helmet" fill="url(#helmet_LG5)"></path>
      <path d="M331.54,30.32 C345.18,35.86 368.85,47.41 374.89,52.8 C378.63,66.88 381.39,103.34 381.4,127.12 C384.94,101.13 385.16,64.59 380.75,45.76 C367.11,34.44 340.68,21.95 323.15,16.07 C318.47,20.68 315.19,26.36 315.19,26.36 C315.19,26.36 320.55,27.64 323.38,28.71 C324.96,45.93 327.91,78.91 329.44,98.81 C331.02,75.72 332.5,44.53 331.54,30.32 L331.54,30.32 L331.54,30.32 L331.54,30.32 L331.54,30.32 L331.54,30.32 L331.54,30.32 Z" id="lefthill" fill="url(#helmet_LG8)"></path>
      <path d="M168.97,16.07 C151.44,21.95 124.51,35.72 110.76,44.79 C106.35,63.63 107.18,101.13 110.72,127.12 C110.73,103.34 113.49,66.88 117.23,52.8 C123.27,47.41 146.94,35.86 160.58,30.32 C159.61,44.53 161.1,75.72 162.68,98.8 C164.2,78.91 167.16,45.93 168.74,28.71 C171.57,27.64 176.93,26.36 176.93,26.36 C176.93,26.36 173.66,20.68 168.97,16.07 L168.97,16.07 L168.97,16.07 L168.97,16.07 L168.97,16.07 L168.97,16.07 L168.97,16.07 Z" id="righthill" fill="url(#helmet_LG8)"></path>
      <path d="M246.06,254.99 C276.94,256.16 333.09,263.55 349.78,259.74 C349.78,215.77 303.83,149.25 300.26,124.5 C296.47,98.2 293.75,33.52 287.66,14.14 C285.38,6.89 259.28576,0 246.06161,0 C232.83746,0 206.74,6.89 204.46,14.14 C198.37,33.52 195.65,98.2 191.86,124.5 C188.28,149.25 142.35,213.68 141.79,259.66 C158.48,263.46 215.18,256.16 246.06,254.99 L246.06,254.99 L246.06,254.99 L246.06,254.99 L246.06,254.99 L246.06,254.99 L246.06,254.99 Z" id="midfrontline" fill="url(#helmet_LG8)"></path>
      <path d="M146.35,260.49 C149.5,236.99 165.34,197.69 178.86,173.1 C189.89,153.04 198.59,137.2 200.23,125.83 C201.69,115.72 202.97,100.32 204.33,84.02 C206.35,59.78 208.86,29.76 212.22,17.89 C216.37,14.28 234.74,8.93 246.06,8.93 C257.38,8.93 275.75,14.28 279.9,17.89 C283.26,29.77 285.76,59.78 287.79,84.03 C289.15,100.32 290.43,115.72 291.9,125.84 C293.54,137.21 302.24,153.05 313.26,173.1 C326.78,197.7 342.62,236.99 345.77,260.5 C328.75,262.69 163.37,262.69 146.35,260.49 L146.35,260.49 L146.35,260.49 L146.35,260.49 L146.35,260.49 L146.35,260.49 L146.35,260.49 Z" id="midfront" fill="url(#helmet_LG6)"></path>
      <path d="M239.26,12.28 C250.58,12.28 268.95,17.63 273.1,21.24 C276.46,33.12 278.97,63.13 280.99,87.38 C282.35,103.67 283.63,119.07 285.09,129.19 C286.73,140.56 296.21,155.13 308.18,174.64 C326.33,204.22 344.35,260.68 345.77,260.5 C342.62,237.0 326.78,197.7 313.26,173.1 C302.24,153.05 293.54,137.21 291.9,125.84 C290.43,115.72 289.15,100.33 287.79,84.03 C285.77,59.78 283.27,29.77 279.9,17.89 C275.75,14.28 257.38,8.93 246.06,8.93 C234.95,8.93 217.07,14.08 212.49,17.69 C220.03,14.89 231.35,12.28 239.26,12.28 L239.26,12.28 L239.26,12.28 L239.26,12.28 L239.26,12.28 L239.26,12.28 L239.26,12.28 Z" id="midfrontleft" fill="url(#helmet_LG7)"></path>
    </g>
  </g>
</svg>
