<svg version="1.1" xmlns="http://www.w3.org/2000/svg">
  <defs>
    <linearGradient x1="0%" y1="50%" x2="100%" y2="50%" class="color1" id="helmet_eyes-LG1">
      <stop stop-color="#333333" offset="0%" class="stop"></stop>
      <stop stop-color="#666666" offset="50%" data-target="0.3" class="stop"></stop>
      <stop stop-color="#333333" offset="100%" class="stop"></stop>
    </linearGradient>
    <linearGradient class="color1" id="helmet_eyes-LG2">
      <stop stop-color="#333333" class="stop"></stop>
    </linearGradient>
    <linearGradient class="color2" id="helmet_eyes-LG4">
      <stop stop-color="#808080" class="stop"></stop>
    </linearGradient>
  </defs>
<g transform="scale(0.275678283443)">
<g>
      <ellipse fill="url(#helmet_eyes-LG2)" cx="13.2003799" cy="26.7182313" rx="12.980057" ry="12.9861496"></ellipse>
      <ellipse fill="url(#helmet_eyes-LG2)" cx="429.261159" cy="26.7182313" rx="12.980057" ry="12.9861496"></ellipse>
      <path d="M418.39,26.73 C416.49,57.74 404.44,241.16 403.18,255.02 C394.95,291.31 303.86,363.89 221.0,363.89 C138.14,363.89 49.91,291.97 41.69,255.68 C40.43,241.82 29.34,57.74 27.44,26.73 L418.39,26.73 L418.39,26.73 L418.39,26.73 Z" fill="#FFFFFF" opacity="0.4"></path>
      <path d="M27.45,26.73 C29.34,57.74 40.43,241.82 41.69,255.68 C45.22,271.27 63.53,293.41 89.81,313.62 L89.81,26.73 L27.45,26.73 L27.45,26.73 L27.45,26.73 Z" fill="#FFFFFF" opacity="0.59"></path>
      <path d="M347.16,26.73 L347.16,318.18 C377.63,296.57 399.35,271.88 403.18,255.02 C404.44,241.16 416.49,57.74 418.39,26.73 L347.16,26.73 L347.16,26.73 L347.16,26.73 Z" fill="#FFFFFF" opacity="0.59"></path>
      <path d="M221.0,367.85 C134.65,367.85 46.51,294.19 37.99,256.59 L37.91,256.05 C36.85,244.4 29.01,115.13 25.24,53.0 L23.65,26.98 L31.23,26.48 L32.82,52.5 C36.55,114.12 44.3,241.85 45.45,255.03 C53.67,289.75 139.68,359.93 221.0,359.93 C302.2,359.93 391.34,288.42 399.42,254.37 C400.78,238.83 412.72,57.19 414.6,26.48 L422.18,26.98 C420.09,61.06 408.21,241.7 406.96,255.39 L406.88,255.93 C398.52,292.78 307.21,367.85 221.0,367.85 L221.0,367.85 L221.0,367.85 Z" fill="url(#helmet_eyes-LG4)"></path>
      <path d="M435.29,48.53 C292.81,56.94 150.09,56.94 7.6,48.53 C8.21,32.45 8.82,16.37 9.42,0.29 C150.69,8.63 292.2,8.63 433.47,0.29 C434.07,16.38 434.68,32.45 435.29,48.53 L435.29,48.53 L435.29,48.53 Z" fill="url(#helmet_eyes-LG2)"></path>
      <path d="M221.44,47.71 C152.44,47.71 82.54,45.7 13.56,41.74 L14.84,7.75 C83.39,11.68 152.87,13.68 221.44,13.68 C290.01,13.68 359.49,11.68 428.04,7.75 L429.32,41.74 C360.35,45.7 290.44,47.71 221.44,47.71 L221.44,47.71 L221.44,47.71 Z" fill="url(#helmet_eyes-LG1)"></path>
    </g>
  </g>
</svg>
