<?xml version="1.0" encoding="utf-8"?>
<!-- Generator: Adobe Illustrator 15.0.0, SVG Export Plug-In . SVG Version: 6.00 Build 0)  -->
<!DOCTYPE svg PUBLIC "-//W3C//DTD SVG 1.1//EN" "http://www.w3.org/Graphics/SVG/1.1/DTD/svg11.dtd">
<svg version="1.1" id="Helmet_eyes" xmlns="http://www.w3.org/2000/svg" xmlns:xlink="http://www.w3.org/1999/xlink" x="0px"
	 y="0px" width="129.028px" height="165.67px" viewBox="0 0 129.028 165.67" enable-background="new 0 0 129.028 165.67"
	 xml:space="preserve">
<g>
	<circle fill="#333333" cx="10.256" cy="65.615" r="3.417"/>
	<circle fill="#333333" cx="119.784" cy="65.615" r="3.417"/>
	<path opacity="0.4" fill="#FFFFFF" d="M116.922,65.617c-0.5,8.16-3.673,56.424-4.005,60.07
		c-2.165,9.549-26.144,28.646-47.958,28.646c-21.813,0-45.039-18.924-47.204-28.473c-0.332-3.646-3.25-52.083-3.75-60.243
		L116.922,65.617z"/>
	<path opacity="0.59" fill="#FFFFFF" d="M14.006,65.618c0.5,8.16,3.418,56.597,3.75,60.243c0.93,4.101,5.75,9.928,12.667,15.245
		V65.618H14.006z"/>
	<path opacity="0.59" fill="#FFFFFF" d="M98.172,65.617v76.69c8.02-5.686,13.739-12.184,14.745-16.62
		c0.332-3.646,3.505-51.91,4.005-60.07H98.172z"/>
	<path fill="#808080" d="M64.96,155.375c-22.733,0-45.934-19.382-48.177-29.274l-0.022-0.142
		c-0.279-3.066-2.344-37.081-3.336-53.428l-0.417-6.847l1.995-0.132L15.42,72.4c0.984,16.214,3.024,49.823,3.325,53.29
		c2.164,9.135,24.807,27.602,46.215,27.602c21.375,0,44.842-18.817,46.969-27.776c0.357-4.088,3.501-51.884,3.996-59.965
		l1.995,0.132c-0.549,8.968-3.679,56.499-4.007,60.102l-0.022,0.141C111.692,135.624,87.655,155.375,64.96,155.375z"/>
	<path fill="#333333" d="M121.37,71.354c-37.508,2.212-75.079,2.212-112.587,0c0.159-4.231,0.319-8.461,0.479-12.692
		c37.189,2.193,74.44,2.193,111.63,0C121.051,62.894,121.21,67.124,121.37,71.354z"/>
	<linearGradient id="SVGID_1_" gradientUnits="userSpaceOnUse" x1="10.3516" y1="65.8804" x2="119.8008" y2="65.8804">
		<stop  offset="0.0095" style="stop-color:#333333"/>
		<stop  offset="0.5333" style="stop-color:#666666"/>
		<stop  offset="1" style="stop-color:#333333"/>
	</linearGradient>
	<path fill="url(#SVGID_1_)" d="M65.076,71.138c-18.164,0-36.567-0.528-54.725-1.57l0.337-8.945
		c18.046,1.036,36.335,1.561,54.387,1.561s36.341-0.525,54.387-1.561l0.337,8.945C101.643,70.61,83.24,71.138,65.076,71.138z"/>
</g>
</svg>
