<?xml version="1.0" encoding="utf-8"?>
<!-- Generator: Adobe Illustrator 15.0.0, SVG Export Plug-In . SVG Version: 6.00 Build 0)  -->
<!DOCTYPE svg PUBLIC "-//W3C//DTD SVG 1.1//EN" "http://www.w3.org/Graphics/SVG/1.1/DTD/svg11.dtd">
<svg version="1.1" id="Helmet_noise" xmlns="http://www.w3.org/2000/svg" xmlns:xlink="http://www.w3.org/1999/xlink" x="0px"
	 y="0px" width="129.028px" height="165.67px" viewBox="0 0 129.028 165.67" enable-background="new 0 0 129.028 165.67"
	 xml:space="preserve">
<g>
	<path fill="#730E11" d="M123.899,102.468c-0.062,0.786-0.75,1.374-1.536,1.313l-5.618-0.439c-0.786-0.062-1.375-0.75-1.313-1.536
		l0.6-7.675c0.062-0.786,0.75-1.375,1.536-1.313l5.618,0.439c0.786,0.062,1.374,0.75,1.312,1.536L123.899,102.468z"/>
	<path d="M123.211,92.442c0.009-0.118,0.147-0.204,0.309-0.192l3.617,0.274c0.162,0.012,0.285,0.119,0.276,0.237l-0.937,12.332
		c-0.009,0.119-0.147,0.205-0.309,0.193l-3.617-0.274c-0.161-0.013-0.285-0.12-0.276-0.238L123.211,92.442z"/>
	<path fill="#730E11" d="M5.37,102.468c0.062,0.786,0.75,1.374,1.536,1.313l5.618-0.439c0.786-0.062,1.375-0.75,1.313-1.536
		l-0.6-7.675c-0.062-0.786-0.75-1.375-1.536-1.313l-5.618,0.439c-0.786,0.062-1.374,0.75-1.312,1.536L5.37,102.468z"/>
	<path d="M6.057,92.442c-0.009-0.118-0.147-0.204-0.309-0.192l-3.617,0.274c-0.162,0.012-0.285,0.119-0.276,0.237l0.937,12.332
		c0.009,0.119,0.147,0.205,0.309,0.193l3.617-0.274c0.161-0.013,0.285-0.12,0.276-0.238L6.057,92.442z"/>
	<path d="M12.917,50.167c-0.167-3-0.333-11.5,0-14.833C14.25,34,23.75,28.333,24.583,28c-0.333,4.167-1,17.167-1,18.167
		C21.75,46.833,15.083,49.5,12.917,50.167z"/>
	<g>
		<path d="M4.006,108.456C3.842,106.793,0,67.646,0,60.5v-0.277l0.117-0.251C2.58,54.693,11.716,40.591,15.634,36.02l1.898,1.627
			c-4.037,4.709-12.63,18.154-15.031,23.131c0.096,7.743,3.953,47.032,3.992,47.433L4.006,108.456z"/>
	</g>
	<path d="M116.112,50.167c0.167-3,0.333-11.5,0-14.833c-1.333-1.333-10.833-7-11.667-7.333c0.333,4.167,1,17.167,1,18.167
		C107.278,46.833,113.945,49.5,116.112,50.167z"/>
	<g>
		<path d="M125.022,108.456l-2.488-0.245c0.04-0.401,3.896-39.69,3.992-47.433c-2.401-4.977-10.994-18.421-15.031-23.131
			l1.898-1.627c3.918,4.571,13.054,18.673,15.517,23.952l0.117,0.251V60.5C129.028,67.646,125.186,106.793,125.022,108.456z"/>
	</g>
	<path fill="#730E11" d="M110.208,73.625c2.75,0.875,9.375,5.375,13.208,9.542c1,6.875-2.583,29.167-4.833,33.167
		c-2.667,1.5-9,3.167-12.5,2.667C106.333,117.125,109.958,75.125,110.208,73.625z"/>
	<path fill="#AB181D" d="M108.285,117.066c0.292-3.125,0.845-9.352,1.611-17.99c0.723-8.15,1.579-17.807,2.015-22.438
		c2.765,1.583,6.775,4.493,9.599,7.421c0.672,7.04-2.561,26.361-4.435,30.803C114.997,115.854,111.171,116.895,108.285,117.066z"/>
	<path fill="#C9181E" d="M121.509,84.059c-2.823-2.928-6.834-5.838-9.599-7.421c-0.436,4.631-1.292,14.288-2.015,22.438
		c-0.021,0.232-0.041,0.456-0.061,0.684c3.5,0.514,6.945,0.75,10.385,0.844C121.193,94.288,121.848,87.611,121.509,84.059z"/>
	<path d="M110.52,118.628c-0.142,1.169-1.232,1.992-2.432,1.839c-0.784-0.099-1.569-0.197-2.353-0.295
		c-1.201-0.15-2.056-1.205-1.918-2.357c1.72-14.32,2.83-28.754,3.316-43.264c0.039-1.166,1.046-2.083,2.255-2.048
		c0.79,0.025,1.581,0.05,2.371,0.076c1.208,0.037,2.16,1.029,2.121,2.213C113.387,89.493,112.263,104.118,110.52,118.628z"/>
	<linearGradient id="SVGID_1_" gradientUnits="userSpaceOnUse" x1="109.7397" y1="89.8564" x2="111.9897" y2="48.1064">
		<stop  offset="0.0095" style="stop-color:#000000"/>
		<stop  offset="0.4394" style="stop-color:#404040"/>
		<stop  offset="0.9994" style="stop-color:#999999"/>
	</linearGradient>
	<path fill="url(#SVGID_1_)" d="M112.88,74.759c0.01-0.296-0.099-0.582-0.307-0.802c-0.219-0.234-0.52-0.368-0.847-0.378
		l-2.406-0.076c-0.646,0-1.167,0.476-1.188,1.083c-0.195,5.811-0.497,11.645-0.895,17.476l4.761,0.037
		C112.39,86.313,112.687,80.525,112.88,74.759z"/>
	<path fill="#730E11" d="M20.125,73.625C17.375,74.5,10.75,79,6.917,83.167c-1,6.875,2.583,29.167,4.833,33.167
		c2.667,1.5,9,3.167,12.5,2.667C24,117.125,20.375,75.125,20.125,73.625z"/>
	<path fill="#AB181D" d="M22.048,117.066c-0.292-3.125-0.845-9.352-1.611-17.99c-0.723-8.15-1.579-17.807-2.015-22.438
		c-2.765,1.583-6.775,4.493-9.599,7.421c-0.672,7.04,2.561,26.361,4.435,30.803C15.336,115.854,19.162,116.895,22.048,117.066z"/>
	<path fill="#C9181E" d="M8.824,84.059c2.823-2.928,6.834-5.838,9.599-7.421c0.436,4.631,1.292,14.288,2.015,22.438
		c0.021,0.232,0.041,0.456,0.061,0.684c-3.5,0.514-6.945,0.75-10.385,0.844C9.14,94.288,8.485,87.611,8.824,84.059z"/>
	<path d="M19.813,118.628c0.142,1.169,1.232,1.992,2.432,1.839c0.784-0.099,1.569-0.197,2.353-0.295
		c1.201-0.15,2.056-1.205,1.918-2.357c-1.72-14.32-2.83-28.754-3.316-43.264c-0.039-1.166-1.046-2.083-2.255-2.048
		c-0.79,0.025-1.581,0.05-2.371,0.076c-1.208,0.037-2.16,1.029-2.121,2.213C16.946,89.493,18.07,104.118,19.813,118.628z"/>
	
		<linearGradient id="SVGID_2_" gradientUnits="userSpaceOnUse" x1="108.8647" y1="89.8564" x2="111.1147" y2="48.1075" gradientTransform="matrix(-1 0 0 1 129.333 0)">
		<stop  offset="0.0095" style="stop-color:#000000"/>
		<stop  offset="0.4394" style="stop-color:#404040"/>
		<stop  offset="0.9994" style="stop-color:#999999"/>
	</linearGradient>
	<path fill="url(#SVGID_2_)" d="M17.328,74.759c-0.01-0.296,0.099-0.582,0.307-0.802c0.219-0.234,0.52-0.368,0.847-0.378
		l2.406-0.076c0.646,0,1.167,0.476,1.188,1.083c0.195,5.811,0.497,11.645,0.895,17.476l-4.761,0.037
		C17.818,86.313,17.521,80.525,17.328,74.759z"/>
	<path fill="#BF840E" d="M11.792,61.5c-0.167-2.75,0.125-11.083,0.542-13.583c2.333-1.667,5.583-2.917,6.25-3.083
		c0.167,1.5,1.167,13.333,1.167,14.5C18.989,59.418,13.042,61.25,11.792,61.5z"/>
	<linearGradient id="SVGID_3_" gradientUnits="userSpaceOnUse" x1="21.1479" y1="57.7017" x2="5.273" y2="46.4517">
		<stop  offset="5.000000e-006" style="stop-color:#F1991B"/>
		<stop  offset="0.636" style="stop-color:#F9C13B"/>
		<stop  offset="1" style="stop-color:#FDD349"/>
	</linearGradient>
	<path fill="url(#SVGID_3_)" d="M13.203,59.053c0.162-3.053,0.631-7.543,0.975-9.966c0.874-0.551,1.826-1.037,2.661-1.42
		c0.264,3.011,0.648,7.681,0.821,10.124c-0.687,0.188-1.61,0.451-2.87,0.811C14.28,58.747,13.73,58.904,13.203,59.053z"/>
	<path fill="#BF840E" d="M117.237,61.5c0.167-2.75-0.125-11.083-0.542-13.583c-2.333-1.667-5.583-2.917-6.25-3.083
		c-0.167,1.5-1.167,13.333-1.167,14.5C110.04,59.418,115.986,61.25,117.237,61.5z"/>
	
		<linearGradient id="SVGID_4_" gradientUnits="userSpaceOnUse" x1="22.1484" y1="57.7021" x2="6.2735" y2="46.4522" gradientTransform="matrix(-1 0 0 1 130.0283 0)">
		<stop  offset="5.000000e-006" style="stop-color:#F1991B"/>
		<stop  offset="0.636" style="stop-color:#F9C13B"/>
		<stop  offset="1" style="stop-color:#FDD349"/>
	</linearGradient>
	<path fill="url(#SVGID_4_)" d="M115.825,59.053c-0.162-3.053-0.631-7.543-0.975-9.966c-0.874-0.551-1.826-1.037-2.661-1.42
		c-0.264,3.011-0.648,7.681-0.821,10.124c0.687,0.188,1.61,0.451,2.87,0.811C114.748,58.747,115.298,58.904,115.825,59.053z"/>
	<path fill="#BF840E" d="M64.513,70.303c6.107,0,31.327,1.72,39.503,0.861c6.699-0.383,9.851-2.168,16.254-2.456
		c0.099-1.529,0.198-4.109,0-4.874c-1.477-1.242-6.468-5.193-6.729-11.209c-0.5-11.5-2.235-49.135-49.028-49.135
		S15.75,42.07,15.75,51.25c0,6.083-5.517,11.342-6.995,12.584c-0.197,0.765-0.098,3.345,0,4.874
		c6.403,0.287,9.555,2.073,16.255,2.456C33.187,72.023,58.405,70.303,64.513,70.303z"/>
	<linearGradient id="SVGID_5_" gradientUnits="userSpaceOnUse" x1="64.5137" y1="30.25" x2="64.5137" y2="80.5">
		<stop  offset="5.000000e-006" style="stop-color:#F1991B"/>
		<stop  offset="0.636" style="stop-color:#F9C13B"/>
		<stop  offset="1" style="stop-color:#FDD349"/>
	</linearGradient>
	<path fill="url(#SVGID_5_)" d="M97.36,69.405c-6.436,0-15.143-0.393-22.139-0.709c-4.859-0.219-8.698-0.393-10.708-0.393
		s-5.85,0.173-10.709,0.393c-6.995,0.316-15.701,0.709-22.137,0.709h-0.001c-2.825,0-4.99-0.077-6.434-0.229
		c-3.259-0.189-5.541-0.688-7.957-1.215c-1.993-0.436-4.041-0.883-6.549-1.12c-0.029-0.876-0.03-1.6-0.01-2.064
		c2.251-2.263,6.601-8.22,6.502-14.288c-0.013-0.802-0.168-19.771,13.159-32.908C38.517,9.558,50.002,5.49,64.513,5.49
		c14.512,0,25.998,4.068,34.136,12.091c13.327,13.137,13.171,32.105,13.158,32.906c-0.099,6.069,4.254,12.029,6.504,14.291
		c0.02,0.458,0.018,1.183-0.011,2.063c-2.508,0.236-4.557,0.684-6.55,1.12c-2.415,0.528-4.696,1.027-7.854,1.207
		C102.35,69.328,100.185,69.405,97.36,69.405z"/>
	<linearGradient id="SVGID_6_" gradientUnits="userSpaceOnUse" x1="64.416" y1="72.791" x2="64.5969" y2="61.764">
		<stop  offset="0.0095" style="stop-color:#FDE25B"/>
		<stop  offset="0.8034" style="stop-color:#FFF99B"/>
		<stop  offset="0.9994" style="stop-color:#FFFFAB"/>
	</linearGradient>
	<path fill="url(#SVGID_6_)" d="M104.933,68.003c-1.586,0.165-3.808,0.244-6.707,0.244c-6.605,0-15.542-0.403-22.722-0.728
		c-4.987-0.225-8.926-0.403-10.99-0.403s-6.003,0.178-10.991,0.403c-7.18,0.324-16.115,0.728-22.72,0.728h-0.001
		c-2.899,0-5.121-0.079-6.604-0.235c-3.345-0.194-13.483-1.559-13.47-1.17c2.508,0.236,4.556,0.684,6.549,1.12
		c2.416,0.528,4.697,1.026,7.957,1.215c1.444,0.152,3.609,0.229,6.434,0.229h0.001c6.436,0,15.142-0.393,22.137-0.709
		c4.859-0.219,8.698-0.393,10.709-0.393s5.849,0.173,10.708,0.393c6.996,0.316,15.703,0.709,22.139,0.709
		c2.825,0,4.989-0.077,6.535-0.237c3.158-0.18,5.439-0.679,7.854-1.207c1.994-0.436,4.042-0.883,6.55-1.12
		C118.313,66.451,108.173,67.818,104.933,68.003z"/>
	<linearGradient id="SVGID_7_" gradientUnits="userSpaceOnUse" x1="64.4976" y1="-19.8335" x2="64.4976" y2="93.6715">
		<stop  offset="5.000000e-006" style="stop-color:#F1991B"/>
		<stop  offset="0.2668" style="stop-color:#F6B836"/>
		<stop  offset="0.5337" style="stop-color:#FACF4A"/>
		<stop  offset="0.784" style="stop-color:#FCDD57"/>
		<stop  offset="0.9994" style="stop-color:#FDE25B"/>
	</linearGradient>
	<path fill="url(#SVGID_7_)" d="M98.649,17.582c-1.385-1.365-2.874-2.606-4.451-3.742c-0.13-0.784-0.266-1.476-0.41-2.01
		c-1.373-1.209-6.75-3.797-9.85-5.037C83.972,7.287,83.991,7.882,84,8.538C78.291,6.511,71.782,5.49,64.513,5.49
		c-7.268,0-13.776,1.021-19.485,3.047c0.009-0.656,0.028-1.251,0.062-1.745c-3.1,1.24-8.478,3.828-9.85,5.037
		c-0.144,0.534-0.28,1.225-0.41,2.009c-1.577,1.135-3.066,2.376-4.452,3.742C17.052,30.717,17.207,49.687,17.22,50.488
		c0.017,1.019-0.736,7.178,4.247,8.012c29.548-3.667,62.851-2.132,85.724,0.333c4.638,0.5,3.967-6.812,4.617-8.724
		C111.784,47.261,111.117,29.871,98.649,17.582z"/>
	<path fill="#BF840E" d="M83.938,6.793c3.1,1.24,8.478,3.828,9.85,5.037c0.85,3.154,1.478,11.321,1.479,16.65
		c0.805-5.824,0.856-14.009-0.146-18.229C92.02,7.716,86.015,4.917,82.031,3.6c-1.064,1.033-1.808,2.306-1.808,2.306
		s1.218,0.287,1.861,0.527c0.359,3.856,1.03,11.246,1.377,15.703C83.819,16.964,84.157,9.977,83.938,6.793z"/>
	<path fill="#BF840E" d="M46.997,3.6c-3.984,1.317-10.104,4.403-13.229,6.434c-1.001,4.221-0.812,12.622-0.008,18.446
		c0.001-5.329,0.629-13.496,1.479-16.65c1.373-1.209,6.75-3.797,9.85-5.037c-0.219,3.184,0.119,10.171,0.477,15.342
		c0.347-4.457,1.018-11.846,1.377-15.703c0.643-0.24,1.861-0.527,1.861-0.527S48.062,4.632,46.997,3.6z"/>
	<path fill="#BF840E" d="M64.514,57.125c7.017,0.264,19.776,1.918,23.568,1.066c0-9.851-10.44-24.754-11.252-30.3
		C75.969,22,75.351,7.51,73.967,3.167C73.449,1.543,67.519,0,64.514,0c-3.005,0-8.936,1.543-9.454,3.167
		C53.676,7.51,53.059,22,52.197,27.891c-0.812,5.546-11.251,19.981-11.378,30.281C44.612,59.024,57.496,57.389,64.514,57.125z"/>
	<linearGradient id="SVGID_8_" gradientUnits="userSpaceOnUse" x1="64.5137" y1="-40.6665" x2="64.5137" y2="73.0091">
		<stop  offset="5.000000e-006" style="stop-color:#F1991B"/>
		<stop  offset="0.1051" style="stop-color:#F2A223"/>
		<stop  offset="0.7008" style="stop-color:#FAD04B"/>
		<stop  offset="0.9994" style="stop-color:#FDE25B"/>
	</linearGradient>
	<path fill="url(#SVGID_8_)" d="M41.857,58.359c0.715-5.265,4.315-14.069,7.387-19.579c2.505-4.493,4.482-8.042,4.855-10.589
		c0.332-2.267,0.624-5.715,0.933-9.367c0.459-5.432,1.029-12.156,1.792-14.816C57.767,3.2,61.941,2,64.514,2
		c2.572,0,6.747,1.2,7.69,2.009c0.763,2.66,1.332,9.384,1.792,14.816c0.309,3.651,0.601,7.1,0.933,9.367
		c0.373,2.547,2.351,6.096,4.855,10.589c3.072,5.51,6.671,14.313,7.387,19.579C83.303,58.851,45.724,58.851,41.857,58.359z"/>
	<linearGradient id="SVGID_9_" gradientUnits="userSpaceOnUse" x1="72.0278" y1="49.5" x2="72.0278" y2="-36.0028">
		<stop  offset="0.0095" style="stop-color:#FDE25B"/>
		<stop  offset="0.8034" style="stop-color:#FFF99B"/>
		<stop  offset="0.9994" style="stop-color:#FFFFAB"/>
	</linearGradient>
	<path fill="url(#SVGID_9_)" d="M62.968,2.75c2.572,0,6.747,1.2,7.691,2.009c0.763,2.66,1.332,9.384,1.791,14.816
		c0.309,3.651,0.601,7.1,0.933,9.367c0.373,2.547,2.526,5.811,5.247,10.184c4.123,6.625,8.218,19.275,8.541,19.234
		c-0.715-5.265-4.315-14.069-7.387-19.579c-2.504-4.493-4.482-8.042-4.855-10.589c-0.332-2.267-0.624-5.715-0.933-9.367
		c-0.459-5.432-1.028-12.156-1.792-14.816C71.261,3.2,67.086,2,64.514,2c-2.525,0-6.587,1.155-7.629,1.963
		C58.599,3.335,61.172,2.75,62.968,2.75z"/>
</g>
</svg>
