<?xml version="1.0" encoding="utf-8"?>
<!-- Generator: Adobe Illustrator 15.0.0, SVG Export Plug-In . SVG Version: 6.00 Build 0)  -->
<!DOCTYPE svg PUBLIC "-//W3C//DTD SVG 1.1//EN" "http://www.w3.org/Graphics/SVG/1.1/DTD/svg11.dtd">
<svg version="1.1" id="Noise_protection" xmlns="http://www.w3.org/2000/svg" xmlns:xlink="http://www.w3.org/1999/xlink" x="0px"
	 y="0px" width="129.028px" height="165.67px" viewBox="0 0 129.028 165.67" enable-background="new 0 0 129.028 165.67"
	 xml:space="preserve">
<g>
	<g>
		<path d="M4.294,108.952c-0.087-1.408-2.122-34.572-1.243-41.729l0.05-0.229c2.227-6.942,21.035-28.374,25.858-32.676l1.664,1.866
			C26.204,40.125,7.716,61.212,5.518,67.647c-0.813,7.194,1.25,40.81,1.271,41.15L4.294,108.952z"/>
	</g>
	<g>
		<path d="M125.975,108.952l-2.495-0.154c0.021-0.341,2.084-33.96,1.271-41.152c-2.248-6.665-19.187-28.553-23.571-32.463
			l1.664-1.866c4.811,4.291,22.117,26.795,24.324,33.676l0.05,0.229C128.097,74.38,126.062,107.544,125.975,108.952z"/>
	</g>
	<path fill="#730E11" d="M124.399,102.468c-0.062,0.786-0.75,1.374-1.536,1.313l-5.618-0.439c-0.786-0.062-1.375-0.75-1.313-1.536
		l0.6-7.675c0.062-0.786,0.75-1.375,1.536-1.313l5.618,0.439c0.786,0.062,1.374,0.75,1.312,1.536L124.399,102.468z"/>
	<path d="M123.711,92.442c0.009-0.118,0.147-0.204,0.309-0.192l3.617,0.274c0.162,0.012,0.285,0.119,0.276,0.237l-0.937,12.332
		c-0.009,0.119-0.147,0.205-0.309,0.193l-3.617-0.274c-0.161-0.013-0.285-0.12-0.276-0.238L123.711,92.442z"/>
	<path fill="#730E11" d="M110.208,73.625c2.75,0.875,9.375,5.375,13.208,9.542c1,6.875-2.583,29.167-4.833,33.167
		c-2.667,1.5-9,3.167-12.5,2.667C106.333,117.125,109.958,75.125,110.208,73.625z"/>
	<path fill="#AB181D" d="M108.285,117.066c0.292-3.125,0.845-9.352,1.611-17.99c0.723-8.15,1.579-17.807,2.015-22.438
		c2.765,1.583,6.775,4.493,9.599,7.421c0.672,7.04-2.561,26.361-4.435,30.803C114.997,115.854,111.171,116.895,108.285,117.066z"/>
	<path fill="#C9181E" d="M121.509,84.059c-2.823-2.928-6.834-5.838-9.599-7.421c-0.436,4.631-1.292,14.288-2.015,22.438
		c-0.021,0.232-0.041,0.456-0.061,0.684c3.5,0.514,6.945,0.75,10.385,0.844C121.193,94.288,121.848,87.611,121.509,84.059z"/>
	<path d="M110.52,118.628c-0.142,1.169-1.232,1.992-2.432,1.839c-0.784-0.099-1.569-0.197-2.353-0.295
		c-1.201-0.15-2.056-1.205-1.918-2.357c1.72-14.32,2.83-28.754,3.316-43.264c0.039-1.166,1.046-2.083,2.255-2.048
		c0.79,0.025,1.581,0.05,2.371,0.076c1.208,0.037,2.16,1.029,2.121,2.213C113.387,89.493,112.263,104.118,110.52,118.628z"/>
	<linearGradient id="SVGID_1_" gradientUnits="userSpaceOnUse" x1="109.7397" y1="89.8564" x2="111.9897" y2="48.1064">
		<stop  offset="0.0095" style="stop-color:#000000"/>
		<stop  offset="0.4394" style="stop-color:#404040"/>
		<stop  offset="0.9994" style="stop-color:#999999"/>
	</linearGradient>
	<path fill="url(#SVGID_1_)" d="M112.88,74.759c0.01-0.296-0.099-0.582-0.307-0.802c-0.219-0.234-0.52-0.368-0.847-0.378
		l-2.406-0.076c-0.646,0-1.167,0.476-1.188,1.083c-0.195,5.811-0.497,11.645-0.895,17.476l4.761,0.037
		C112.39,86.313,112.687,80.525,112.88,74.759z"/>
	<path fill="#730E11" d="M5.87,102.468c0.062,0.786,0.75,1.374,1.536,1.313l5.618-0.439c0.786-0.062,1.375-0.75,1.313-1.536
		l-0.6-7.675c-0.062-0.786-0.75-1.375-1.536-1.313l-5.618,0.439c-0.786,0.062-1.374,0.75-1.312,1.536L5.87,102.468z"/>
	<path fill="#730E11" d="M20.125,73.625C17.375,74.5,10.75,79,6.917,83.167c-1,6.875,2.583,29.167,4.833,33.167
		c2.667,1.5,9,3.167,12.5,2.667C24,117.125,20.375,75.125,20.125,73.625z"/>
	<path fill="#AB181D" d="M22.048,117.066c-0.292-3.125-0.845-9.352-1.611-17.99c-0.723-8.15-1.579-17.807-2.015-22.438
		c-2.765,1.583-6.775,4.493-9.599,7.421c-0.672,7.04,2.561,26.361,4.435,30.803C15.336,115.854,19.162,116.895,22.048,117.066z"/>
	<path fill="#C9181E" d="M8.824,84.059c2.823-2.928,6.834-5.838,9.599-7.421c0.436,4.631,1.292,14.288,2.015,22.438
		c0.021,0.232,0.041,0.456,0.061,0.684c-3.5,0.514-6.945,0.75-10.385,0.844C9.14,94.288,8.485,87.611,8.824,84.059z"/>
	<path d="M19.813,118.628c0.142,1.169,1.232,1.992,2.432,1.839c0.784-0.099,1.569-0.197,2.353-0.295
		c1.201-0.15,2.056-1.205,1.918-2.357c-1.72-14.32-2.83-28.754-3.316-43.264c-0.039-1.166-1.046-2.083-2.255-2.048
		c-0.79,0.025-1.581,0.05-2.371,0.076c-1.208,0.037-2.16,1.029-2.121,2.213C16.946,89.493,18.07,104.118,19.813,118.628z"/>
	
		<linearGradient id="SVGID_2_" gradientUnits="userSpaceOnUse" x1="108.8647" y1="89.8564" x2="111.1147" y2="48.1075" gradientTransform="matrix(-1 0 0 1 129.333 0)">
		<stop  offset="0.0095" style="stop-color:#000000"/>
		<stop  offset="0.4394" style="stop-color:#404040"/>
		<stop  offset="0.9994" style="stop-color:#999999"/>
	</linearGradient>
	<path fill="url(#SVGID_2_)" d="M17.328,74.759c-0.01-0.296,0.099-0.582,0.307-0.802c0.219-0.234,0.52-0.368,0.847-0.378
		l2.406-0.076c0.646,0,1.167,0.476,1.188,1.083c0.195,5.811,0.497,11.645,0.895,17.476l-4.761,0.037
		C17.818,86.313,17.521,80.525,17.328,74.759z"/>
	<g>
		<path d="M24.416,44c-0.731,0-1.463-0.293-2.041-0.886c-1.214-1.246-1.284-3.344-0.157-4.686
			c5.983-7.121,17.12-20.377,42.416-20.678c18.555,0.22,32.756,6.532,43.48,19.296c1.127,1.342,1.057,3.44-0.157,4.687
			c-1.213,1.247-3.112,1.168-4.24-0.173c-6.088-7.248-16.764-16.913-39.084-17.178c-20.898,0.249-30.585,9.71-38.02,18.559
			C26.024,43.644,25.221,44,24.416,44z"/>
		<linearGradient id="SVGID_3_" gradientUnits="userSpaceOnUse" x1="65.1665" y1="16" x2="65.1665" y2="46.5164">
			<stop  offset="0.0095" style="stop-color:#000000"/>
			<stop  offset="0.9995" style="stop-color:#333333"/>
		</linearGradient>
		<path fill="url(#SVGID_3_)" d="M24.416,43c-0.488,0-0.958-0.208-1.325-0.584c-0.849-0.872-0.898-2.403-0.107-3.345
			c5.881-7,16.827-20.026,41.662-20.321c18.202,0.216,32.178,6.411,42.703,18.939c0.791,0.942,0.742,2.474-0.107,3.346
			c-0.367,0.376-0.837,0.584-1.324,0.584c-0.543,0-1.053-0.25-1.434-0.703c-6.215-7.398-17.106-17.265-39.838-17.535
			c-21.351,0.254-31.22,9.897-38.797,18.916C25.468,42.75,24.959,43,24.416,43z"/>
	</g>
	<path d="M6.557,92.442c-0.009-0.118-0.147-0.204-0.309-0.192l-3.617,0.274c-0.162,0.012-0.285,0.119-0.276,0.237l0.937,12.332
		c0.009,0.119,0.147,0.205,0.309,0.193l3.617-0.274c0.161-0.013,0.285-0.12,0.276-0.238L6.557,92.442z"/>
</g>
</svg>
