<?xml version="1.0" encoding="utf-8"?>
<!-- Generator: Adobe Illustrator 15.0.0, SVG Export Plug-In . SVG Version: 6.00 Build 0)  -->
<!DOCTYPE svg PUBLIC "-//W3C//DTD SVG 1.1//EN" "http://www.w3.org/Graphics/SVG/1.1/DTD/svg11.dtd">
<svg version="1.1" id="Skin_x5F_01" xmlns="http://www.w3.org/2000/svg" xmlns:xlink="http://www.w3.org/1999/xlink" x="0px"
	 y="0px" width="795.962px" height="1532.941px" viewBox="0 0 795.962 1532.941" enable-background="new 0 0 795.962 1532.941"
	 xml:space="preserve">
<g id="Fluo_pants">
	<g>
		<path fill="#93AB20" d="M452.948,66.556c8.588,143.133,3.579,675.583-0.715,767.903c2.147,77.291-29.952,147.29-37.215,224.717
			c-8.592,91.605,11.094,205.395,17.534,259.068c2.693,34.099-3.938,76.651-1.073,105.202c1.146,11.416,14.465,17.853,15.511,27.866
			c2.597,24.86,2.623,44.946,3.812,58.012c57.969-6.44,158.876-29.341,227.579-29.341c-3.828-13.672-5.55-32.859-7.514-57.612
			c-0.762-9.583,13.151-24.954,12.882-34.352c-3.085-107.414-5.995-265.204,4.651-358.9c8.588-60.115,22.186-103.055,37.214-145.996
			c42.939-140.268,96.615-511.697,55.821-855.213C712.196,66.556,593.039,86.594,452.948,66.556z"/>
		<path fill="#B7D130" d="M462.593,1490.462c-0.52-11.1-1.163-24.914-2.79-40.49c-0.917-8.767-6.123-14.953-10.305-19.921
			c-2.462-2.927-5.007-5.95-5.202-7.894c-1.325-13.205-0.438-30.201,0.5-48.198c0.992-19.039,2.02-38.727,0.597-56.73l-0.051-0.52
			c-1.085-9.043-2.542-19.776-4.18-31.818c-8.097-59.616-20.334-149.71-13.319-224.512c3.002-32.004,10.571-63.544,17.891-94.048
			c10.119-42.18,20.584-85.789,19.389-131.749c4.441-96.805,8.904-591.773,1.5-753.208c31.959,3.952,63.659,5.951,94.439,5.951
			c81.68,0,155.203-13.93,209.671-39.479c35.124,324.089-12.82,685.528-57.361,831.261c-14.169,40.497-28.741,85.311-37.723,148.189
			c-10.844,95.367-7.917,251.74-4.777,361.092c-0.222,1.601-3.103,6.943-4.824,10.133c-4.284,7.947-8.716,16.164-8.024,24.869
			c1.385,17.426,2.64,31.944,4.57,44.061c-43.209,1.824-94.995,10.458-141.285,18.178c-21.088,3.514-41.258,6.875-58.512,9.221
			C462.731,1493.434,462.662,1491.968,462.593,1490.462z"/>
		<path fill="#DBF74A" d="M513.779,958.983c-19.323,141.701-17.891,415.082,7.984,526.569c46.176-7.699,97.76-16.28,140.832-18.101
			c-1.93-12.116-3.186-26.635-4.57-44.061c-0.691-8.705,3.74-16.922,8.024-24.869c1.721-3.189,4.602-8.532,4.824-10.133
			c-3.14-109.352-7.52-288.419,7.508-384.318C628.286,1054.883,556.719,997.628,513.779,958.983z"/>
		<linearGradient id="SVGID_1_" gradientUnits="userSpaceOnUse" x1="302.3643" y1="1127.4673" x2="695.4619" y2="1113.4281">
			<stop  offset="0" style="stop-color:#949FA1"/>
			<stop  offset="1" style="stop-color:#B7C6C9"/>
		</linearGradient>
		<path fill="url(#SVGID_1_)" d="M668.389,1164.874c0.472-30.453,1.406-59.929,3.022-86.867
			c-81.375,9.836-164.547,6.534-244.335-7.688c-2.076,29.362-1.415,60.688,0.589,91.366
			C506.908,1174.076,588.197,1171.986,668.389,1164.874z"/>
		<path fill="#868F98" d="M502.629,1080.376c-25.409-2.245-50.647-5.619-75.553-10.059c-2.076,29.362-1.415,60.688,0.589,91.366
			c24.607,3.846,48.326,6.364,73.232,7.704C500.528,1139.739,501.26,1110.023,502.629,1080.376z"/>
		<linearGradient id="SVGID_2_" gradientUnits="userSpaceOnUse" x1="307.8545" y1="1329.106" x2="659.9594" y2="1303.3422">
			<stop  offset="0" style="stop-color:#949FA1"/>
			<stop  offset="1" style="stop-color:#B7C6C9"/>
		</linearGradient>
		<path fill="url(#SVGID_2_)" d="M669.619,1340.376c-0.598-25.577-1.097-52.572-1.373-79.999
			c-74.747,15.75-152.629,19.359-228.098,17.006c0.34,2.515,0.686,5.089,1.015,7.508c1.638,12.042,3.095,22.775,4.18,31.818
			l0.051,0.52c0.831,10.519,0.787,21.621,0.441,32.821C520.01,1356.22,596.023,1354.135,669.619,1340.376z"/>
		<path fill="#868F98" d="M501.279,1277.852c-20.479,0.347-40.892,0.162-61.131-0.469c0.34,2.515,0.686,5.089,1.015,7.508
			c1.638,12.042,3.095,22.775,4.18,31.818l0.051,0.52c0.831,10.519,0.787,21.621,0.441,32.821
			c19.247,1.601,39.222,2.831,58.641,3.261C502.277,1327.901,501.176,1302.797,501.279,1277.852z"/>
		<path fill="#DBF74A" d="M770.734,47.847c-52.351,24.554-122.327,38.34-200.205,39.378
			c-27.849,276.715-56.786,551.002-34.14,832.157c29.226,49.79,82.145,127.099,136.087,102.579
			c5.904-2.684,8.589-28.447,11.305-40.627c8.483-40.091,19.14-72.355,29.591-102.227
			C757.914,733.375,805.858,371.936,770.734,47.847z"/>
	</g>
	<g>
		<path fill="#93AB20" d="M236.104,0C142.352,387.887,107.281,625.484,71.501,890.28c-19.323,118.085-40.792,153.866-51.528,216.128
			c-30.772,114.507-16.816,337.436-16.816,337.436s6.799,21.111,11.687,31.808c0.773,17.125,0.473,39.046,1.195,57.29
			c70.85-12.881,154.229-26.121,217.917-9.661c-0.897-22.721-0.823-32.151,0-56.896c0.212-6.341,8.588-32.204,8.588-32.204
			s1.603-74.469,11.809-143.848c12.882-96.612,39.718-187.501,67.629-301.291c85.885-180.348,214.698-579.684,240.461-659.839
			c12.156-3.474,47.233-11.45,47.233-11.45s34.352-134.722,12.882-237.598C434.699,79.438,315.542,36.499,236.104,0z"/>
		<path fill="#B7D130" d="M28.522,1517.613c-0.073-4.313-0.122-8.689-0.169-12.999c-0.116-10.082-0.233-20.51-0.64-29.545
			l-0.113-2.498l-1.041-2.274c-3.792-8.3-9.017-23.934-10.64-28.869c-1.161-20.299-12.019-225.573,16.495-331.674l0.154-0.572
			l0.102-0.583c4.298-24.934,10.42-45.665,17.509-69.67c10.045-34.026,22.549-76.374,34.036-146.567
			c35.856-265.337,70.545-498.599,160.777-874.25c108.458,47.565,224.595,79.04,382.398,65.621
			c13.098,84.445-18.555,195.729-27.587,223.07c-10.98,2.537-31.82,7.42-40.898,10.016l-6.619,1.892l-2.105,6.552
			c-45.975,143.034-161.377,493.505-239.828,658.241l-0.566,1.19l-0.314,1.279c-6.581,26.836-13.104,52.388-19.409,77.1
			c-20.682,81.041-38.541,151.026-48.479,225.56c-9.276,63.053-11.53,131.19-11.869,143.362c-3.371,10.52-8.411,27.259-8.634,33.963
			c-0.595,17.932-0.808,28.101-0.527,41.234c-16.733-2.999-35.098-4.466-55.656-4.466
			C119.693,1502.725,71.613,1509.995,28.522,1517.613z"/>
		<path fill="#DBF74A" d="M127.323,916.044c-70.85,161.023-81.413,427.637-84.066,599.025
			c39.153-6.612,81.521-12.345,121.642-12.345c20.558,0,38.922,1.467,55.656,4.466c-0.281-13.134-0.068-23.303,0.527-41.234
			c0.224-6.704,5.264-23.443,8.634-33.963c0.339-12.172,2.593-80.31,11.869-143.362c9.938-74.533,27.797-144.519,48.479-225.56
			c0.803-3.151,11.882-57.572,19.038-79.757C254.354,1008.005,181.714,981.885,127.323,916.044z"/>
		<linearGradient id="SVGID_3_" gradientUnits="userSpaceOnUse" x1="-6.4092" y1="1058.8296" x2="212.5815" y2="1103.201">
			<stop  offset="0" style="stop-color:#949FA1"/>
			<stop  offset="1" style="stop-color:#B7C6C9"/>
		</linearGradient>
		<path fill="url(#SVGID_3_)" d="M269.207,1146.55c6.002-25.039,12.478-50.638,19.324-77.465
			c-79.641,3.199-160.392-12.231-234.191-44.332c-1.424,4.897-2.816,9.62-4.161,14.175c-6.908,23.397-12.886,43.713-17.166,67.81
			C107.281,1137.78,188.61,1149.326,269.207,1146.55z"/>
		<path fill="#868F98" d="M54.339,1024.753c-1.424,4.897-2.816,9.62-4.161,14.175c-6.908,23.397-12.886,43.713-17.166,67.81
			c12.099,5.056,26.41,10.476,38.848,14.521c4.472-27.565,10.87-61.634,16.102-82.929
			C76.393,1034.213,65.612,1029.657,54.339,1024.753z"/>
		<linearGradient id="SVGID_4_" gradientUnits="userSpaceOnUse" x1="-33.6685" y1="1291.5835" x2="153.834" y2="1313.0533">
			<stop  offset="0" style="stop-color:#949FA1"/>
			<stop  offset="1" style="stop-color:#B7C6C9"/>
		</linearGradient>
		<path fill="url(#SVGID_4_)" d="M233.579,1361.807c1.786-22.695,4.349-48.325,8.005-73.176c0.59-4.413,1.233-8.797,1.878-13.184
			c-77.436,1.816-154.916-7.296-228.881-24.51c-1.369,30.116-1.747,60.037-1.621,87
			C84.22,1356.189,158.741,1363.173,233.579,1361.807z"/>
		<path fill="#868F98" d="M14.582,1250.938c-1.369,30.116-1.747,60.037-1.621,87c11.467,2.937,23.025,5.551,34.649,7.918
			c0.986-28.877,3.545-57.749,6.277-86.625C40.691,1256.723,27.578,1253.962,14.582,1250.938z"/>
		<path fill="#DBF74A" d="M626.854,84.446C500.509,95.19,397.324,76.042,306.954,44.012
			c-10.758,37.556-20.968,87.479-28.664,125.951c-17.176,81.585-42.939,154.583-55.822,236.168
			c-30.284,155.209-58.88,307.08-74.06,458.558c5.722,24.475,15.608,47.88,31.121,69.598c28.471,44.289,72.676,80.159,129.572,52.25
			C387.435,818.683,553.32,322.046,553.32,322.046s37.864-10.881,48.843-13.418C611.196,281.288,641.882,169.611,626.854,84.446z"/>
	</g>
</g>
</svg>
