<?xml version="1.0" encoding="utf-8"?>
<!-- Generator: Adobe Illustrator 15.0.0, SVG Export Plug-In . SVG Version: 6.00 Build 0)  -->
<!DOCTYPE svg PUBLIC "-//W3C//DTD SVG 1.1//EN" "http://www.w3.org/Graphics/SVG/1.1/DTD/svg11.dtd">
<svg version="1.1" id="Skin_x5F_01" xmlns="http://www.w3.org/2000/svg" xmlns:xlink="http://www.w3.org/1999/xlink" x="0px"
	 y="0px" width="784.267px" height="1524.354px" viewBox="0 0 784.267 1524.354" enable-background="new 0 0 784.267 1524.354"
	 xml:space="preserve">
<g id="Pants">
	<path fill="#00395E" d="M443.943,63.694c8.588,143.132,8.588,672.718,4.295,765.04c2.146,77.291-30.669,151.584-37.931,229.011
		c-8.592,91.605,13.599,209.688,20.04,263.364c6.44,81.585,10.732,152.435,13.596,183.922
		c57.969-6.44,152.435-32.205,221.139-32.205c-20.038-71.564-2.862-326.34,11.45-452.294c8.587-60.115,19.323-97.331,34.352-140.271
		c42.94-140.27,100.193-508.298,59.4-851.813C701.044,67.092,584.034,83.731,443.943,63.694z"/>
	<path fill="#004878" d="M455.651,1490.536c-1.167-14.77-2.541-34.32-4.167-57.507c-2.229-31.72-5-71.198-8.295-112.934
		l-0.052-0.522c-1.269-10.573-3.105-23.377-5.233-38.2c-8.581-59.786-21.551-150.135-14.771-222.425
		c2.998-31.957,10.69-64.293,18.131-95.563c10.354-43.518,21.06-88.512,19.864-134.528c4.086-89.119,11.351-583.885,3.748-748.882
		c52.214,5.302,88.802,7.172,123.988,4.293c59.043-4.831,132.754-16.283,168.539-34.888
		c39.531,360.941-25.663,718.582-58.762,826.866c-15.536,44.41-26.224,82.001-34.861,142.463
		c-11.869,104.403-30.473,348.22-14.572,441.64c-41.063,1.997-88.521,11.037-130.972,19.127
		C495.704,1483.77,474.171,1487.871,455.651,1490.536z"/>
	<path fill="#005C99" d="M768.63,212.992c-11.943,1.705-23.394,0.99-31.266-1.872c6.441-7.158,17.176-27.196,21.47-43.657
		c-8.946,2.505-27.911,10.02-42.224,14.313c28.983-19.322,34.352-33.636,46.924-65.915c-1.669-22.109-3.701-44.29-6.131-66.482
		c-35.784,18.605-109.496,30.057-168.539,34.888c-10.344,0.846-20.823,1.271-31.772,1.329
		c17.516,225.709,18.532,501.643,26.816,739.213c14.14,39.89,36.025,76.462,63.999,106.978c-17.513,0-36.772-0.924-54.615-5.482
		c41.852,43.719,80.273,40.602,88.965,5.482c0.529-1.525,15.844-54.005,16.383-55.542
		C726.703,784.431,777.82,513.349,768.63,212.992z"/>
	<path fill="#00395E" d="M229.246,0C141.219,386.455,104.002,619.757,68.223,884.555c-19.323,118.084-42.94,154.581-53.675,216.845
		c-23.617,145.993-12.881,259.782-6.441,422.954c72.282-10.735,152.436-22.185,216.124-5.723
		c-2.147-54.394-4.294-85.881,17.176-231.875c12.881-96.615,40.792-189.648,68.703-303.438
		c85.886-180.349,217.566-578.255,243.33-658.41c12.156-3.474,47.233-11.45,47.233-11.45S652.2,174.442,630.73,71.564
		C439.649,82.299,308.684,36.498,229.246,0z"/>
	<path fill="#004878" d="M20.274,1509.325c-0.789-18.782-1.644-40.354-2.451-57.986c-5.762-126.14-10.312-225.768,9.44-347.883
		c4.271-24.764,10.763-45.63,18.279-69.79c10.651-34.239,23.909-76.854,35.392-147.032C117.8,613.844,155.55,383.316,238.371,17.979
		c74.337,30.458,220.064,85.076,403.81,60.744c-2.921,33.178-8.766,141.342-39.847,221.214
		c-14.417,3.295-43.116,9.921-52.433,12.587l-6.619,1.892l-2.105,6.552c-1.455,4.528-148.181,458.343-242.696,656.811l-0.566,1.191
		l-0.314,1.279c-6.98,28.454-13.964,55.621-20.716,81.898c-20.653,80.354-38.491,149.747-48.245,222.907
		c-18.82,127.962-20.975,173.037-19.43,217.83C185.783,1494.226,56.8,1503.45,20.274,1509.325z"/>
	<path fill="#005C99" d="M305.128,43.106c-4.583,23.755-9.467,48.139-14.539,73.058c23.103,34.84,79.641,53.449,81.071,59.172
		c-5.723,10.735-72.995-0.715-104.484-22.185c7.155,31.488,32.92,53.675,32.92,63.693c-7.156,5.726-12.883,7.158-35.784-10.735
		c-2.103,26.009-4.615,57.532-6.499,81.251c43.713-13.263,120.291-58.35,153.925-98.428
		c-46.516,82.3-156.729,133.831-156.729,133.831l-22.543,7.87l1.074,19.323c0,0,6.44,5.367,24.69-1.074
		c-5.726,33.278-63.487,272.643-71.297,391.356c8.08,66.539,33.724,128.571,73.085,170.078
		c-16.461-2.861-57.568-29.462-77.111-60.077c-0.132,24.377,0.241,48.713,1.251,72.96c4.085,49.023,76.887,47.499,129.582,21.35
		c94.234-211.588,222.575-606.762,223.955-611.055l3.935-21.11c7.175-50.228,11.2-76.115,21.47-139.017
		c2.147,59.579-3.22,81.049-10.199,131.502c12.036-3.111,38.495-10.563,50.991-13.418c31.131-79.439,35.366-179.551,38.287-212.729
		C503.297,97.114,386.161,70.401,305.128,43.106z"/>
	<path fill="#004878" d="M764.168,124.681c-1.784-25.03-4.011-50.156-6.765-75.301c-30.264,15.735-97.443,26.81-150.289,31.131
		C436.429,94.467,309.283,47.034,238.371,17.979c-5.917,26.101-11.578,51.442-17.052,76.229
		c69.116,30.316,223.086,74.382,342.856,70.036C651.989,161.056,721.275,143.667,764.168,124.681z"/>
	<path fill="#00395E" d="M384.542,58.326c-8.587,22.899-14.67,74.786-14.67,96.256c10.735,3.579,35.782,7.156,38.646,8.588
		c3.22-30.058,6.8-72.641,13.24-95.541C411.024,65.482,393.848,61.903,384.542,58.326z"/>
	<path fill="#005C99" d="M375.508,158.607c0.871-21.298,8.278-71.806,14.224-93.125c6.431,1.834,16.369,4.104,23.616,5.636
		c-4.337,20.007-12.16,90.782-12.344,92.587C399.801,163.474,381.027,159.933,375.508,158.607z"/>
	<path fill="#00395E" d="M717.683,54.748c4.294,28.984,9.662,74.07,7.515,98.762c-10.735,3.578-33.634,6.082-36.499,7.513
		c1.074-32.205,0-69.777-4.294-98.761C695.139,60.115,708.378,58.324,717.683,54.748z"/>
	<path fill="#005C99" d="M696.572,162.455c0.539-29.385,0.272-70.101-2.566-93.255c0.059-0.011,0.117-0.021,0.176-0.035
		c5.508-0.998,13.561-3.463,18.85-4.756c3.004,21.748,5.873,69.658,5.01,93.034C712.549,158.715,697.097,162.367,696.572,162.455z"
		/>
	
		<ellipse transform="matrix(-0.9978 -0.0664 0.0664 -0.9978 1165.9407 288.7934)" fill="#4D4D4D" cx="587.769" cy="125.023" rx="21.983" ry="24.691"/>
	<path fill="#B3B3B3" d="M588.023,145.373c-4.619-0.306-8.854-2.65-11.923-6.598c-3.187-4.094-4.739-9.397-4.372-14.926
		c0.717-10.772,8.611-19.211,17.97-19.211c0.342,0,0.688,0.012,1.034,0.035c4.622,0.306,8.856,2.65,11.927,6.598
		c3.186,4.095,4.737,9.398,4.371,14.927c-0.717,10.771-8.611,19.211-17.97,19.211C589.06,145.409,588.37,145.397,588.023,145.373z"
		/>
	<g>
		<path fill="#00395E" d="M600.063,310.304l-7.906-3.354c0.343-0.809,34.345-81.663,36.967-147.708l0.118-2.964l2.814-0.938
			c3.182-1.061,8.778-2.777,12.359-3.865l-6.515-79.56l8.56-0.701l7.082,86.482l-3.33,0.999c-0.089,0.027-7.459,2.239-12.646,3.886
			C634.041,229.554,601.469,306.993,600.063,310.304z"/>
	</g>
	<g>
		<path fill="#00395E" d="M235.669,352.493l-8.553-0.777l2.464-27.109l3.485-0.387c9.544-1.061,43.246-12.28,81.216-38.708
			c33.748-23.488,80.254-65.848,110.161-134.26l7.869,3.44C376.643,282.035,265.063,326.321,237.518,332.16L235.669,352.493z"/>
	</g>
	<g>
		<path fill="#00395E" d="M769.227,295.716c-0.743-0.425-74.566-43.639-94.402-144.06l8.425-1.664
			c15.837,80.177,70.509,126.994,90.238,138.268L769.227,295.716z"/>
	</g>
</g>
</svg>
