<?xml version="1.0" encoding="utf-8"?>
<!-- Generator: Adobe Illustrator 15.0.0, SVG Export Plug-In . SVG Version: 6.00 Build 0)  -->
<!DOCTYPE svg PUBLIC "-//W3C//DTD SVG 1.1//EN" "http://www.w3.org/Graphics/SVG/1.1/DTD/svg11.dtd">
<svg version="1.1" id="Capa_2" xmlns="http://www.w3.org/2000/svg" xmlns:xlink="http://www.w3.org/1999/xlink" x="0px" y="0px"
	 width="775.592px" height="1675.188px" viewBox="0 0 775.592 1675.188" enable-background="new 0 0 775.592 1675.188"
	 xml:space="preserve">
<g>
	<g>
		<path fill="#3C3B40" d="M54.911,62.58C77.521,56.524,226.102,8.074,255.17,0c6.865,81.153,92.934,152.42,176.041,153.423
			c104.727,1.264,134.848-79.942,136.059-133.237c27.048,15.342,133.64,76.714,161.095,94.479
			c25.357,38.265,33.918,208.334,31.494,319.77c-2.121,97.431-2.422,317.35-7.268,416.669
			c14.537,169.576,26.979,725.854,21.805,753.398C667.803,1694.946,167.961,1710.29,0,1581.086
			C0,1497.11,71.062,998.071,103.36,797.81c7.268-104.168,0.808-243.057-12.111-346.418
			C140.908,341.168,155.039,191.782,54.911,62.58z"/>
		<path fill="#806B56" d="M419.012,1660.659c-178.027,0-328.178-32.34-404.336-86.783c3.479-98.598,69.533-566.045,103.035-773.75
			l0.104-0.648l0.046-0.651c6.768-96.984,2.175-232.005-11.691-345.211c29.617-67.469,79.816-228.877-27.332-383.005
			c19.026-5.878,47.518-14.946,77.106-24.366c32.871-10.462,66.584-21.192,87.363-27.557
			c17.014,79.135,101.67,148.233,187.725,149.274l2.586,0.015c89.334,0,135.949-59.043,146.097-123.941
			c39.791,22.827,112.723,65.092,137.979,81.057c19.832,36.166,30.293,186.852,27.639,309.028
			c-0.743,34.05-1.27,83.785-1.827,136.436c-1.072,100.978-2.283,215.427-5.427,279.846l-0.047,0.975l0.08,0.975
			c14.408,168.055,25.471,683.818,22.398,744.641C709.281,1635.221,573.795,1660.659,419.012,1660.659z"/>
		<path fill="#8C785F" d="M738.109,852.348l-0.08-0.975l0.047-0.975c3.144-64.418,4.354-178.869,5.427-279.846
			c0.559-52.65,1.084-102.385,1.827-136.436c2.654-122.176-7.807-272.862-27.639-309.028
			c-25.256-15.964-98.188-58.23-137.979-81.057c-10.146,64.897-56.763,123.941-146.097,123.941l-2.586-0.015
			c-86.053-1.04-170.71-70.138-187.723-149.273c-20.779,6.365-54.492,17.094-87.363,27.557c-29.59,9.419-58.08,18.488-77.106,24.366
			c77.119,110.932,72.726,225.628,53.165,306.365c24.204,144.308,42.823,350.584,68.261,449.91
			c-46.028,236.194-78.732,557.174-97.61,789.958c81.419,28.037,192.078,43.818,316.36,43.818
			c154.783,0,290.27-25.436,341.496-63.67C763.579,1536.167,752.518,1020.401,738.109,852.348z"/>
		<path fill="#806B56" d="M239.971,534.202c137.787,31.118,329.512,22.38,428.106,6.911
			C615.497,588.667,411.879,624.72,239.971,534.202z"/>
		<path fill="#806B56" d="M303.245,562.119c109.841,11.625,270.681,15.624,348.351,5.813
			C589.227,608.258,398.573,617.707,303.245,562.119z"/>
	</g>
	<g>
		<g>
			<path fill="#3C3B40" d="M101.76,738.681c2.897-3.667,8.058-4.906,8.058-4.906s-0.617,14.319-0.222,17.482
				c30.232,36.344,96.248,75.083,192.666,101.037c75.182,20.295,74.955,195.615-19.288,191.59
				c-126.38-4.107-191.515-65.725-207.909-108.723C96.121,873.44,102.123,780.368,101.76,738.681z"/>
			<path fill="#806B56" d="M265.447,1031.54c-93.334-9.777-153.528-52.051-173.681-91.201
				c12.503-43.031,24.038-114.859,26.283-163.433c36.167,35.339,98.331,65.841,180.479,87.957
				c35.658,10.346,48.113,66.266,39.75,112.418C332.652,1008.354,314.368,1036.032,265.447,1031.54z"/>
			<path fill="#8C785F" d="M338.279,977.282c8.363-46.152-4.092-102.072-39.75-112.42c-35.514-9.561-67.213-20.713-94.765-33.128
				c-11.784,17.642-37.88,107.259-45.396,151.607c36.095,22.512,107.371,48.143,151.354,40.441
				C326.654,1013.877,334.85,996.235,338.279,977.282z"/>
		</g>
		<g>
			<path fill="#3C3B40" d="M758.805,766.462c-1.601-3.538-4.748-7.332-4.748-7.332s-0.527,21.521-1.688,24.161
				c-12.646,26.407-32.225,43.593-95.467,56.608c-89.569,15.852-113.592,180.527-23.426,199.623
				c110.145-3.176,130.772-38.514,132.969-82.057C761.323,903.364,756.318,815.809,758.805,766.462z"/>
			<path fill="#8C785F" d="M634.838,1026.389c-41.519-10.014-44.24-57.137-44.08-71.494c0.5-44.309,26.414-94.625,68.889-102.143
				c43.521-8.957,68.316-18.389,84.607-33.321c0.983,48.307,4.813,103.805,8.049,138.18
				C750.477,990.688,739.254,1022.997,634.838,1026.389z"/>
		</g>
	</g>
</g>
<g>
	<g>
		<path fill="#B0683A" d="M99.641,579.631c6.106-13.081,14.104-37.267,20.285-44.442c3.636-4.186,32.276-34.72,37.512-44.647
			c5.492-9.279,11.505-31.912,14.885-58.347c4.696-17.44,48.496,0.776,48.818,37.503c0.336,37.664-15.292,68.203-23.813,87.522
			C188.063,560.089,106.405,577.103,99.641,579.631z"/>
		
			<linearGradient id="SVGID_1_" gradientUnits="userSpaceOnUse" x1="43.3552" y1="1289.106" x2="92.199" y2="1273.2318" gradientTransform="matrix(0.9986 0.053 0.053 -0.9986 24.8094 1779.9503)">
			<stop  offset="6.030000e-006" style="stop-color:#E0905E"/>
			<stop  offset="0.9053" style="stop-color:#FCB576"/>
			<stop  offset="1" style="stop-color:#FFB979"/>
		</linearGradient>
		<path fill="url(#SVGID_1_)" d="M115.964,563.724c4.181-10.878,11.669-21.842,15.735-27.646
			c2.078-2.954,11.504-13.653,17.602-20.06c6.594-6.944,12.109-13.453,13.885-16.024c7.556-10.916,14.885-35.27,16.797-60.027
			c6.211-7.337,27.67,5.482,30.228,26.648c2.313,19.253-4.683,47.027-12.92,66.361c0,0,15.244,0.748,15.859,5.108
			C211.047,538.653,138.891,558.119,115.964,563.724z"/>
	</g>
	<g>
		<path fill="#B0683A" d="M75.274,569.718c15.477-10.33,45.253-31.751,45.253-31.751s7.938-2.372,14.036-5.264
			c14.41-6.798,25.157-5.866,41.045-9.028c33.355,3.295,52.426-4.487,88.331,3.707c14.738,44.997,11.424,91.201,11.975,159.618
			c0.128,16.238-2.116,37.001-6.553,43.464c-20.632,14.292-72.508,17.416-91.681,15.485c-24.722-3.655-89.313-21.19-100.021-26.198
			C95.521,707.839,118.277,633.907,75.274,569.718z"/>
		
			<linearGradient id="SVGID_2_" gradientUnits="userSpaceOnUse" x1="260.8821" y1="1042.1001" x2="20.3557" y2="1056.9272" gradientTransform="matrix(1 0 0 -1 -0.02 1674.2832)">
			<stop  offset="6.030000e-006" style="stop-color:#E0905E"/>
			<stop  offset="0.9053" style="stop-color:#FCB576"/>
			<stop  offset="1" style="stop-color:#FFB979"/>
		</linearGradient>
		<path fill="url(#SVGID_2_)" d="M182.443,734.037c-38.1-6.344-80.241-18.652-96.84-24.599
			c-15.082-14.287-30.166-94.474-6.354-128.604c19.666-15.566,86.41-60.724,95.473-60.648c33.938,2.917,62.76,4.484,95.244,11.878
			c5.236,49.907-5.208,167.993-20.092,193.377C243.395,729.241,210.09,732.9,182.443,734.037z"/>
		
			<linearGradient id="SVGID_3_" gradientUnits="userSpaceOnUse" x1="199.259" y1="1175.8872" x2="54.9077" y2="1148.3912" gradientTransform="matrix(0.9986 0.053 0.053 -0.9986 24.8094 1779.9503)">
			<stop  offset="6.030000e-006" style="stop-color:#E0905E"/>
			<stop  offset="0.9053" style="stop-color:#FCB576"/>
			<stop  offset="1" style="stop-color:#FFB979"/>
		</linearGradient>
		<path fill="url(#SVGID_3_)" d="M269.967,532.063c-32.484-7.395-48.789-6.468-82.719-9.384c-0.175,0-12.502,4.9-12.688,4.914
			c-5.998,55.72,1.535,98.496,6.297,167.155c-3.177,13.09-6.348,29.771,0.394,39.288c9.332,1.435,64.952-0.965,80.617-14.533
			c1.264-8.715,1.538-13.482,1.329-25.252C262.553,657.61,274.966,579.636,269.967,532.063z"/>
		<path fill="#B0683A" d="M190.842,577.103c5.369,2.179,72.843-5.207,83.462-4.351c5.543,1.719,18.084,9.671,21.653,14.226
			c4.373,11.703,1.392,33.943-3.375,49.42c-2.027,2.773-5.355,5.96-5.355,5.96s4.355,3.209,4.167,6.542
			c-0.108,16.251-6.292,42.407-13.69,45.849c-25.754,6.646-65.954,5.879-78.387,3.972
			C194.354,689.991,191.419,592.422,190.842,577.103z"/>
		
			<linearGradient id="SVGID_4_" gradientUnits="userSpaceOnUse" x1="262.5183" y1="1150.9478" x2="56.8707" y2="1146.9154" gradientTransform="matrix(0.9986 0.053 0.053 -0.9986 24.8094 1779.9503)">
			<stop  offset="6.030000e-006" style="stop-color:#E0905E"/>
			<stop  offset="0.9053" style="stop-color:#FCB576"/>
			<stop  offset="1" style="stop-color:#FFB979"/>
		</linearGradient>
		<path fill="url(#SVGID_4_)" d="M183.244,696.732c0.791-22.231-1.89-36.376-2.388-51.603c-1.434-20.792-3.971-42.071-7.143-64.297
			c7.498,0.388,17.099,5.344,17.099,5.344s41.385,0.972,60.69,1.805c5.657,2.594,25.563-0.028,29.711,1.373
			c5.975,11.059,6.41,32.361-0.734,46.645c-4.682,2.419-15.274,4.81-15.274,4.81s6.147,2.221,12.363,3.187
			c2.495,11.589,2.013,34.464-6.021,43.609C252.342,694.905,194.439,698.266,183.244,696.732z"/>
		<path fill="#B0683A" d="M197.924,644.738c-3.172,0.393-0.899,2.981,0.891,3.862c23.813,0,59.535,0.899,81.283-4.966
			c1.222-2.319,3.145-5.889,4.066-8.394C256.564,643.843,222.929,644.738,197.924,644.738z"/>
		<path fill="#B0683A" d="M194.941,585.274c-1.548-0.398-6.703-3.527-7.953-3.59c-0.975,4.707-0.496,10.23,0.517,17.204
			C189.289,592.342,191.671,586.978,194.941,585.274z"/>
		<path fill="#B0683A" d="M172.919,520.512c19.05-4.961,73.823-4.961,92.483-2.386c12.3,3.371,22.117,7.542,24.2,9.923
			c6.33,10.443,10.42,38.397,2.084,56.865c-8.332,6.534-19.021,10.411-26.193,10.411c-6.104,0-68.891-5.976-78.665-7.759
			C179.139,579.21,160.459,555.896,172.919,520.512z"/>
		
			<linearGradient id="SVGID_5_" gradientUnits="userSpaceOnUse" x1="294.8679" y1="1115.1235" x2="183.4139" y2="1119.2822" gradientTransform="matrix(1 0 0 -1 -0.02 1674.2832)">
			<stop  offset="6.030000e-006" style="stop-color:#E0905E"/>
			<stop  offset="0.9053" style="stop-color:#FCB576"/>
			<stop  offset="1" style="stop-color:#FFB979"/>
		</linearGradient>
		<path fill="url(#SVGID_5_)" d="M266.587,587.187c0,0-70.153,0.985-90.1-2.878c-7.877-15.097-13.775-39.354-0.597-56.855
			c19.452-1.785,72.971-1.453,88.048-0.071c6.746,2.191,11.084,3.935,17.332,6.613c3.541,12.375,4.98,39.852,0.598,47.038
			C276.51,584.616,266.587,587.187,266.587,587.187z"/>
		
			<linearGradient id="SVGID_6_" gradientUnits="userSpaceOnUse" x1="305.6111" y1="1114.7114" x2="273.2237" y2="1116.597" gradientTransform="matrix(1 0 0 -1 -0.02 1674.2832)">
			<stop  offset="6.030000e-006" style="stop-color:#E0905E"/>
			<stop  offset="0.9053" style="stop-color:#FCB576"/>
			<stop  offset="1" style="stop-color:#FFB979"/>
		</linearGradient>
		<path fill="url(#SVGID_6_)" d="M281.271,533.995c-6.344-3.968-16.848-6.703-17.061-6.741c7.733,11.111,8.529,44.06,1.981,59.933
			c4.289-0.406,10.316-2.569,15.676-6.153C286.252,573.846,284.813,546.369,281.271,533.995z"/>
	</g>
</g>
</svg>
