<?xml version="1.0" encoding="utf-8"?>
<!-- Generator: Adobe Illustrator 15.0.0, SVG Export Plug-In . SVG Version: 6.00 Build 0)  -->
<!DOCTYPE svg PUBLIC "-//W3C//DTD SVG 1.1//EN" "http://www.w3.org/Graphics/SVG/1.1/DTD/svg11.dtd">
<svg version="1.1" id="Capa_2" xmlns="http://www.w3.org/2000/svg" xmlns:xlink="http://www.w3.org/1999/xlink" x="0px" y="0px"
	 width="712.422px" height="1147.845px" viewBox="0 0 712.422 1147.845" enable-background="new 0 0 712.422 1147.845"
	 xml:space="preserve">
<g>
	<path fill="#93AB20" d="M13.529,59.754C30.485,53.698,199.291,3.01,207.732,0c26.733,49.699,180.074,304.428,230.947,343.187
		c9.85,112.953,19.379,695.388,19.379,719.485c-2.424,38.76-45.621,80.27-92.055,84.787
		c-87.211,4.846-273.23-36.281-340.768-102.553c12.112-156.25,8.883-520.029,1.617-599.164
		C83.781,364.99,116.485,177.246,13.529,59.754z"/>
	<path fill="#B7D130" d="M351.236,1133.313c-85.519,0-246.039-36.57-310.984-94.272c11.5-159.452,8.413-499.512,1.59-588.479
		C92.26,374.68,134.654,191.78,40.236,66.468c25.073-7.794,66.262-20.313,101.458-31.017c27.473-8.351,47.374-14.404,59.076-18.017
		c36.721,65.09,169.452,283.927,223.917,332.981c9.676,125.955,18.721,683.563,18.836,711.783
		c-2.334,32.064-41.068,66.947-78.639,70.762C360.629,1133.193,356.039,1133.313,351.236,1133.313z"/>
	<linearGradient id="SVGID_1_" gradientUnits="userSpaceOnUse" x1="44.085" y1="917.7319" x2="442.5566" y2="917.7319">
		<stop  offset="0" style="stop-color:#949FA1"/>
		<stop  offset="1" style="stop-color:#B7C6C9"/>
	</linearGradient>
	<path fill="url(#SVGID_1_)" d="M442.557,995.799c-0.51-31.154-1.213-71.225-2.072-116.301
		c-116.875,3.907-302.6-8.307-393.646-40.607c-0.705,7.771-3.029,105.381-2.726,113.557
		C170.665,988.662,307.197,999.811,442.557,995.799z"/>
	<linearGradient id="SVGID_2_" gradientUnits="userSpaceOnUse" x1="43.0029" y1="317.1299" x2="433.834" y2="317.1299">
		<stop  offset="0" style="stop-color:#949FA1"/>
		<stop  offset="1" style="stop-color:#B7C6C9"/>
	</linearGradient>
	<path fill="url(#SVGID_2_)" d="M431.145,493.721c-48.492,2.367-97.074,3.498-145.619,3.045
		c-9.902-161.28-30.231-335.982-100.808-475.166c-11.245,3.433-75.796,23.367-91.854,28.264
		c40.314,69.355,78.831,290.336,80.486,442.848c-43.583-2.787-87.065-7.031-130.347-13.057c1.206,25.611,2.476,71.67,3.229,110.629
		c87.212,24.225,256.714,25.85,387.603,18.573C432.746,567.068,432.342,530.264,431.145,493.721z"/>
	<path fill="#DBF74A" d="M424.688,350.416C370.223,301.361,237.491,82.524,200.771,17.435c-11.702,3.612-31.604,9.666-59.076,18.017
		C106.498,46.154,65.31,58.674,40.236,66.468c60.405,80.171,64.774,183.874,46.908,268.083
		c19.529,251.166,29.014,499.163,31.23,749.639c75.068,30.936,172.582,49.123,232.861,49.123c4.803,0,9.393-0.119,13.648-0.352
		c37.57-3.814,76.305-38.697,78.639-70.762C443.408,1033.979,434.363,476.371,424.688,350.416z"/>
	<linearGradient id="SVGID_3_" gradientUnits="userSpaceOnUse" x1="44.085" y1="917.7319" x2="442.5566" y2="917.7319">
		<stop  offset="0" style="stop-color:#949FA1"/>
		<stop  offset="1" style="stop-color:#B7C6C9"/>
	</linearGradient>
	<path fill="url(#SVGID_3_)" d="M442.557,995.799c-0.51-31.154-1.213-71.225-2.072-116.301
		c-116.875,3.907-302.6-8.307-393.646-40.607c-0.705,7.771-3.029,105.381-2.726,113.557
		C170.665,988.662,307.197,999.811,442.557,995.799z"/>
	<linearGradient id="SVGID_4_" gradientUnits="userSpaceOnUse" x1="43.0029" y1="317.1299" x2="433.834" y2="317.1299">
		<stop  offset="0" style="stop-color:#949FA1"/>
		<stop  offset="1" style="stop-color:#B7C6C9"/>
	</linearGradient>
	<path fill="url(#SVGID_4_)" d="M431.145,493.721c-48.492,2.367-97.074,3.498-145.619,3.045
		c-9.902-161.28-30.231-335.982-100.808-475.166c-11.245,3.433-75.796,23.367-91.854,28.264
		c40.314,69.355,78.831,290.336,80.486,442.848c-43.583-2.787-87.065-7.031-130.347-13.057c1.206,25.611,2.476,71.67,3.229,110.629
		c87.212,24.225,256.714,25.85,387.603,18.573C432.746,567.068,432.342,530.264,431.145,493.721z"/>
	<path fill="#868F98" d="M46.838,838.891c-0.705,7.771-3.029,105.381-2.726,113.557c23.915,6.845,48.188,12.783,72.741,17.906
		c-0.682-38.01-1.545-75.984-2.59-113.938C88.704,851.41,65.714,845.59,46.838,838.891z"/>
	<path fill="#868F98" d="M43.003,479.654c1.206,25.611,2.476,71.67,3.229,110.629c16.64,4.623,36.29,8.414,58.077,11.488
		c-1.959-38.465-4.13-76.959-6.529-115.494C79.492,484.346,61.227,482.19,43.003,479.654z"/>
	<path fill="#93AB20" d="M485.514,19.381c-12.67,88.102-70.328,277.936-87.207,335.92c4.846,67.83,21.303,674.766,23.416,692.836
		c0,43.604,26.645,96.9,77.518,96.9s176.844-33.111,213.182-62.986c-8.451-115.211-39.555-424.084-30.283-506.303
		c23.014-118.703,19.721-372.662-43.604-467.543C592.105,79.135,509.738,35.531,485.514,19.381z"/>
	<path fill="#DBF74A" d="M499.24,1130.502c-42.965,0-62.982-49.148-62.982-82.365v-0.848l-0.104-0.84
		c-0.869-8.4-4.564-129.432-8.477-257.565c-5.553-181.584-11.818-386.899-14.697-431.987c1.77-6.07,3.934-13.395,6.393-21.746
		c20.555-69.703,61.449-208.398,76.934-292.107c12.707,7.447,29.012,16.619,46.818,26.635
		c28.818,16.211,61.334,34.503,84.986,49.158c56.891,89.684,63.408,332.183,39.758,454.146l-0.109,0.563l-0.063,0.572
		c-7.346,65.105,9.492,262.41,21.791,406.475c3.156,37.018,5.928,69.492,7.836,94.496
		C658.355,1100.622,546.496,1130.502,499.24,1130.502z"/>
	<linearGradient id="SVGID_5_" gradientUnits="userSpaceOnUse" x1="-107.5146" y1="356.8149" x2="698.0432" y2="322.8456">
		<stop  offset="0" style="stop-color:#949FA1"/>
		<stop  offset="1" style="stop-color:#B7C6C9"/>
	</linearGradient>
	<path fill="url(#SVGID_5_)" d="M634.598,477.118c5.207-120.101-5.658-254.783-28.744-371.654
		c-19.762-11.607-79.137-45.418-88.846-50.959c14.979,139.923,30.994,290.776,27.471,431.493
		c-41.988,3.609-84.016,6.462-126.063,8.318c1.207,35.9,1.977,73.767,3.307,116.156c82.002-3.913,164.508-11.756,245.148-26.809
		c0.23-3.406,0.498-6.65,0.826-9.547l0.063-0.572l0.109-0.563c5.488-28.295,9.324-63.117,11.313-100.977
		C664.336,473.795,649.471,475.48,634.598,477.118z"/>
	<linearGradient id="SVGID_6_" gradientUnits="userSpaceOnUse" x1="-105.8574" y1="918.0664" x2="565.2105" y2="922.9117">
		<stop  offset="0" style="stop-color:#949FA1"/>
		<stop  offset="1" style="stop-color:#B7C6C9"/>
	</linearGradient>
	<path fill="url(#SVGID_6_)" d="M678.609,849.637c-81.258,19.233-166.045,26.502-248.141,30.338
		c1.406,45.591,2.684,86.279,3.688,116.084c85.604-1.988,170.463-16.963,254.039-41.188
		C685.098,918.476,681.699,888.885,678.609,849.637z"/>
</g>
<g>
	<g>
		<path fill="#B0683A" d="M32.822,582.861c6.106-13.08,14.103-37.267,20.285-44.443c3.636-4.186,32.276-34.719,37.512-44.646
			c5.492-9.279,11.505-31.912,14.885-58.348c4.696-17.44,48.496,0.777,48.818,37.504c0.336,37.664-15.292,68.203-23.813,87.522
			C121.244,563.319,39.587,580.334,32.822,582.861z"/>
		
			<linearGradient id="SVGID_7_" gradientUnits="userSpaceOnUse" x1="-3.9678" y1="292.3008" x2="44.8757" y2="308.175" gradientTransform="matrix(0.9986 0.053 -0.053 0.9986 89.0625 206.496)">
			<stop  offset="6.030000e-006" style="stop-color:#E0905E"/>
			<stop  offset="0.9053" style="stop-color:#FCB576"/>
			<stop  offset="1" style="stop-color:#FFB979"/>
		</linearGradient>
		<path fill="url(#SVGID_7_)" d="M49.146,566.955c4.181-10.879,11.669-21.843,15.735-27.646
			c2.079-2.955,11.504-13.654,17.602-20.059c6.594-6.945,12.109-13.454,13.885-16.025c7.555-10.916,14.885-35.269,16.797-60.027
			c6.211-7.338,27.67,5.482,30.227,26.648c2.314,19.253-4.682,47.027-12.92,66.361c0,0,15.244,0.748,15.86,5.108
			C144.229,541.884,72.072,561.35,49.146,566.955z"/>
	</g>
	<g>
		<path fill="#B0683A" d="M8.456,572.948c15.476-10.329,45.253-31.751,45.253-31.751s7.938-2.373,14.036-5.265
			c14.41-6.798,25.157-5.866,41.045-9.028c33.355,3.295,52.425-4.487,88.331,3.707c14.738,44.998,11.424,91.201,11.974,159.618
			c0.128,16.238-2.116,37.001-6.552,43.464c-20.632,14.292-72.508,17.416-91.681,15.484c-24.722-3.654-89.313-21.189-100.021-26.197
			C28.703,711.069,51.459,637.138,8.456,572.948z"/>
		<linearGradient id="SVGID_8_" gradientUnits="userSpaceOnUse" x1="194.043" y1="635.4141" x2="-46.484" y2="620.5869">
			<stop  offset="6.030000e-006" style="stop-color:#E0905E"/>
			<stop  offset="0.9053" style="stop-color:#FCB576"/>
			<stop  offset="1" style="stop-color:#FFB979"/>
		</linearGradient>
		<path fill="url(#SVGID_8_)" d="M115.625,737.268c-38.1-6.344-80.242-18.652-96.84-24.598
			c-15.082-14.288-30.166-94.475-6.354-128.605c19.666-15.566,86.41-60.725,95.473-60.648c33.938,2.916,62.76,4.483,95.244,11.877
			c5.236,49.907-5.208,167.994-20.092,193.377C176.576,732.472,143.271,736.131,115.625,737.268z"/>
		
			<linearGradient id="SVGID_9_" gradientUnits="userSpaceOnUse" x1="151.9346" y1="405.519" x2="7.5845" y2="433.0148" gradientTransform="matrix(0.9986 0.053 -0.053 0.9986 89.0625 206.496)">
			<stop  offset="6.030000e-006" style="stop-color:#E0905E"/>
			<stop  offset="0.9053" style="stop-color:#FCB576"/>
			<stop  offset="1" style="stop-color:#FFB979"/>
		</linearGradient>
		<path fill="url(#SVGID_9_)" d="M203.148,535.293c-32.484-7.394-48.789-6.467-82.719-9.383c-0.175,0-12.502,4.9-12.688,4.914
			c-5.998,55.72,1.535,98.496,6.297,167.155c-3.177,13.09-6.348,29.772,0.393,39.288c9.332,1.434,64.952-0.966,80.617-14.533
			c1.264-8.716,1.539-13.483,1.33-25.252C195.734,660.841,208.147,582.866,203.148,535.293z"/>
		<path fill="#B0683A" d="M124.023,580.334c5.369,2.178,72.843-5.208,83.462-4.352c5.543,1.719,18.084,9.672,21.653,14.227
			c4.374,11.702,1.392,33.942-3.375,49.418c-2.027,2.774-5.355,5.961-5.355,5.961s4.355,3.209,4.167,6.543
			c-0.109,16.251-6.292,42.407-13.691,45.849c-25.753,6.646-65.954,5.88-78.386,3.972
			C127.536,693.222,124.601,595.652,124.023,580.334z"/>
		
			<linearGradient id="SVGID_10_" gradientUnits="userSpaceOnUse" x1="215.1934" y1="430.4604" x2="9.5475" y2="434.4927" gradientTransform="matrix(0.9986 0.053 -0.053 0.9986 89.0625 206.496)">
			<stop  offset="6.030000e-006" style="stop-color:#E0905E"/>
			<stop  offset="0.9053" style="stop-color:#FCB576"/>
			<stop  offset="1" style="stop-color:#FFB979"/>
		</linearGradient>
		<path fill="url(#SVGID_10_)" d="M116.426,699.963c0.791-22.231-1.889-36.377-2.387-51.602c-1.434-20.791-3.971-42.07-7.143-64.297
			c7.498,0.388,17.099,5.344,17.099,5.344s41.385,0.971,60.69,1.805c5.657,2.594,25.564-0.029,29.711,1.372
			c5.975,11.06,6.41,32.362-0.734,46.646c-4.682,2.418-15.275,4.809-15.275,4.809s6.148,2.221,12.364,3.187
			c2.495,11.589,2.012,34.464-6.021,43.61C185.523,698.136,127.621,701.496,116.426,699.963z"/>
		<path fill="#B0683A" d="M131.105,647.969c-3.172,0.393-0.899,2.982,0.891,3.863c23.813,0,59.535,0.899,81.283-4.967
			c1.222-2.319,3.145-5.889,4.066-8.393C189.746,647.074,156.11,647.969,131.105,647.969z"/>
		<path fill="#B0683A" d="M128.123,588.505c-1.548-0.397-6.703-3.527-7.953-3.589c-0.975,4.706-0.496,10.23,0.516,17.203
			C122.471,595.572,124.853,590.209,128.123,588.505z"/>
		<path fill="#B0683A" d="M106.101,523.742c19.05-4.961,73.823-4.961,92.484-2.386c12.299,3.371,22.117,7.542,24.2,9.923
			c6.33,10.443,10.42,38.397,2.084,56.865c-8.332,6.533-19.022,10.41-26.194,10.41c-6.103,0-68.89-5.975-78.665-7.76
			C112.32,582.44,93.641,559.125,106.101,523.742z"/>
		<linearGradient id="SVGID_11_" gradientUnits="userSpaceOnUse" x1="228.0293" y1="562.3901" x2="116.5754" y2="558.2314">
			<stop  offset="6.030000e-006" style="stop-color:#E0905E"/>
			<stop  offset="0.9053" style="stop-color:#FCB576"/>
			<stop  offset="1" style="stop-color:#FFB979"/>
		</linearGradient>
		<path fill="url(#SVGID_11_)" d="M199.769,590.417c0,0-70.153,0.985-90.099-2.878c-7.877-15.098-13.776-39.355-0.597-56.856
			c19.452-1.784,72.971-1.453,88.048-0.071c6.746,2.191,11.084,3.934,17.332,6.613c3.541,12.375,4.98,39.852,0.597,47.038
			C209.691,587.847,199.769,590.417,199.769,590.417z"/>
		<linearGradient id="SVGID_12_" gradientUnits="userSpaceOnUse" x1="238.7725" y1="562.8027" x2="206.3851" y2="560.9171">
			<stop  offset="6.030000e-006" style="stop-color:#E0905E"/>
			<stop  offset="0.9053" style="stop-color:#FCB576"/>
			<stop  offset="1" style="stop-color:#FFB979"/>
		</linearGradient>
		<path fill="url(#SVGID_12_)" d="M214.453,537.225c-6.344-3.967-16.848-6.703-17.061-6.74c7.734,11.11,8.531,44.059,1.982,59.933
			c4.289-0.407,10.316-2.57,15.675-6.154C219.434,577.076,217.994,549.6,214.453,537.225z"/>
	</g>
</g>
</svg>
