<?xml version="1.0" encoding="utf-8"?>
<!-- Generator: Adobe Illustrator 15.0.0, SVG Export Plug-In . SVG Version: 6.00 Build 0)  -->
<!DOCTYPE svg PUBLIC "-//W3C//DTD SVG 1.1//EN" "http://www.w3.org/Graphics/SVG/1.1/DTD/svg11.dtd">
<svg version="1.1" id="Capa_2" xmlns="http://www.w3.org/2000/svg" xmlns:xlink="http://www.w3.org/1999/xlink" x="0px" y="0px"
	 width="1161.275px" height="1158.873px" viewBox="0 0 1161.275 1158.873" enable-background="new 0 0 1161.275 1158.873"
	 xml:space="preserve">
<g>
	<g>
		<g>
			<g>
				<path fill="#93AB20" d="M1092.639,667.398c-2.623-46.133-2.422-164.991-2.422-222.87
					c4.846-167.962-27.859-296.756-155.775-335.294c-5.248,1.615-59.83,19.158-69.52,21.58
					c4.039,37.953,65.408,564.443,71.975,657.199c30.912,117.816,87.393,338.922,98.412,370.752
					c20.992,1.613,92.053-15.344,125.967-29.879C1143.51,1022.295,1144.719,896.326,1092.639,667.398z"/>
				<path fill="#B7D130" d="M1045.871,1143.9c-11.736-39.571-42.463-157.9-67.645-254.876
					c-9.816-37.804-19.164-73.787-26.926-103.399c-5.553-75.87-43.98-411.615-62.504-573.475
					c-3.574-31.217-6.436-56.203-8.082-70.79c11.914-3.62,29.951-9.325,48.479-15.219c2.016-0.638,3.793-1.206,5.273-1.675
					c103.029,33.301,146.627,132.166,141.219,319.643l-0.004,11.922c-0.018,63.029-0.035,168.522,2.443,212.193l0.07,1.213
					l0.271,1.186c34.764,152.803,45.66,259.572,54.412,345.363c3.898,38.168,7.318,71.698,12.203,103.672
					C1114.686,1130.832,1068.777,1141.627,1045.871,1143.9z"/>
				<path fill="#DBF74A" d="M1132.879,1015.986c-8.752-85.791-19.648-192.561-54.412-345.363l-0.271-1.186l-0.07-1.213
					c-2.479-43.671-2.461-149.164-2.443-212.193l0.004-11.922c5.094-176.607-33.318-274.557-123.918-313.16
					c24.516,185.319,39.266,371.104,60.928,552.196c26.283,87.265,42.25,301,73.029,453.603
					c20.113-4.602,42.203-10.787,59.357-17.09C1140.197,1087.685,1136.777,1054.154,1132.879,1015.986z"/>
				<linearGradient id="SVGID_1_" gradientUnits="userSpaceOnUse" x1="917.7559" y1="512.2051" x2="1076.2852" y2="512.2051">
					<stop  offset="0" style="stop-color:#949FA1"/>
					<stop  offset="1" style="stop-color:#B7C6C9"/>
				</linearGradient>
				<path fill="url(#SVGID_1_)" d="M1076.082,448.367c-52.357,8.304-105.482,14.172-158.326,18.674
					c4.152,36.992,8.264,73.917,12.117,109.003c41.842-1.507,96.75-7.159,146.412-16.647
					C1076.053,522.686,1076.082,448.367,1076.082,448.367z"/>
				<linearGradient id="SVGID_2_" gradientUnits="userSpaceOnUse" x1="967.2578" y1="875.1328" x2="1121.2539" y2="875.1328">
					<stop  offset="0" style="stop-color:#949FA1"/>
					<stop  offset="1" style="stop-color:#B7C6C9"/>
				</linearGradient>
				<path fill="url(#SVGID_2_)" d="M1107.02,812.446c-45.568,16.155-92.475,28.668-139.762,34.358
					c3.545,13.645,7.219,27.795,10.969,42.22c4.111,15.841,8.375,32.253,12.676,48.796c43.811-5.162,88.307-14.475,130.352-28.928
					C1117.471,879.347,1112.902,847.319,1107.02,812.446z"/>
				<path fill="#868F98" d="M967.258,846.805c3.545,13.645,7.219,27.795,10.969,42.22c4.111,15.841,8.375,32.253,12.676,48.796
					c20.391-2.404,41.939-5.916,62.232-10.201c-3.619-23.313-10.291-78.189-12.746-94.682
					C1016.498,838.992,991.57,843.879,967.258,846.805z"/>
			</g>
			<g>
				<path fill="#93AB20" d="M304.719,81.758C403.233,46.633,530.01,8.478,551.813,0c9.689,117.896,239.828,124.758,239.828,18.168
					c18.168,12.113,142.502,86.32,167.135,102.472c15.16,119.187,62.398,203.974,58.766,323.889
					c-7.166,63.567-49.898,194.499-43.605,250.729c16.957,151.537,42.432,298.006,50.068,340.766
					c-103.365,92.863-495.811,83.172-665.386-27.455c24.225-97.708,68.64-231.752,61.372-311.695
					C390.92,583.016,275.648,231.951,304.719,81.758z"/>
				<path fill="#B7D130" d="M752.076,1084.705c-146.729,0-292.867-32.319-376.784-82.838c4.649-18.228,9.88-37.52,15.362-57.756
					c23.312-85.997,49.729-183.467,43.813-248.554l-0.107-1.155l-0.287-1.125c-5.189-20.326-13.136-48.265-22.336-80.617
					c-42.441-149.223-112.85-396.771-94.142-520.048c57.876-20.421,123.919-41.521,172.729-57.114
					c20.742-6.63,37.93-12.121,50.143-16.168c15.734,58.34,81.816,88.732,144.697,88.732c59.91,0,104.621-26.135,117.34-65.916
					c15.33,9.43,37.217,22.699,59.904,36.449c32.871,19.926,66.73,40.452,82.844,50.639c12.936,30.649,36.684,83.564,48.063,125.128
					c16.021,58.516,19.381,128.392,12.123,185.605c-2.783,23.917-11.178,58.761-20.064,95.624
					c-14.75,61.199-29.998,124.479-25.885,161.281c15.605,139.456,38.279,274.234,48.725,333.381
					C963.756,1064.463,869.16,1084.705,752.076,1084.705z"/>
				<path fill="#DBF74A" d="M985.373,535.592c8.887-36.863,17.281-71.707,20.064-95.624c7.258-57.214,6.32-127.09-9.699-185.605
					c-11.379-41.563-32.303-93.669-50.486-125.128c-16.113-10.187-49.973-30.713-82.844-50.639
					c-22.688-13.75-44.574-27.02-59.904-36.449c-12.719,39.781-57.43,65.916-117.34,65.916c-62.881,0-128.963-30.393-144.697-88.732
					c-12.213,4.047-29.4,9.538-50.143,16.168c-45.195,14.439-105.16,33.6-159.74,52.57
					c16.277,126.893,92.766,350.243,120.09,373.014c67.829,56.526,176.037,61.371,277.783,56.526
					c-66.211,48.449-156.658,64.601-219.643,58.14c20.994,125.971-22.609,384.369-42.276,466.461
					c80.903,26.717,183.065,42.496,285.538,42.496c117.084,0,211.68-20.242,256.137-54.451
					c-10.445-59.146-33.119-193.925-48.725-333.381C955.375,660.071,970.623,596.791,985.373,535.592z"/>
				<g>
					<path fill="#93AB20" d="M681.436,148.204c-66.552,0.003-119.336-31.567-146.804-61.509
						c-20.122-21.93-29.997-45.683-27.816-66.881l7.229,0.744c-1.966,19.104,7.245,40.848,25.942,61.227
						c26.878,29.295,79.258,60.252,144.805,59.124c98.375-1.623,136.199-57.128,136.932-91.731l7.268,0.156
						c-0.789,37.308-40.605,97.135-144.076,98.844C683.75,148.196,682.586,148.204,681.436,148.204z"/>
				</g>
			</g>
			<g>
				<path fill="#93AB20" d="M304.719,81.758c-53.901,22.409-86.201,105.984-131.422,202.886
					c-19.38,40.376-124.76,268.493-152.618,310.08c24.63-1.211,223.276-1.211,238.617-1.211
					c22.612-45.222,141.314-289.087,152.618-324.615C415.143,186.531,359.629,88.22,304.719,81.758z"/>
				<path fill="#DBF74A" d="M46.321,579.675c30.968-56.735,88.795-179.778,122.175-250.8c8.125-17.289,14.412-30.67,17.904-37.941
					c5.543-11.877,10.831-23.416,15.99-34.676c34.276-74.814,64.02-139.723,104.295-159.443
					c69.696,0.895,111.689,76.799,90.771,169.479C384.5,303.221,283.109,512.787,250.295,578.977
					C209.885,578.987,99.25,579.069,46.321,579.675z"/>
				<linearGradient id="SVGID_3_" gradientUnits="userSpaceOnUse" x1="142.8145" y1="369.0195" x2="357.6631" y2="369.0195">
					<stop  offset="0" style="stop-color:#949FA1"/>
					<stop  offset="1" style="stop-color:#B7C6C9"/>
				</linearGradient>
				<path fill="url(#SVGID_3_)" d="M188.033,286.664c-0.698,1.499-35.953,76.281-45.219,95.89
					c62.988,1.68,128.296,24.388,168.938,70.036c15.732-32.77,31.866-66.684,45.91-96.729
					C323.057,306.432,250.907,279.221,188.033,286.664z"/>
			</g>
		</g>
		<linearGradient id="SVGID_4_" gradientUnits="userSpaceOnUse" x1="248.3945" y1="885.8379" x2="964.2459" y2="885.8379">
			<stop  offset="0" style="stop-color:#949FA1"/>
			<stop  offset="1" style="stop-color:#B7C6C9"/>
		</linearGradient>
		<path fill="url(#SVGID_4_)" d="M991.295,926.205c-4.551-28.822-9.113-60.783-13.93-94.882
			c-113.248,28.664-408.795,23.819-555.357-16.151c-6.581,31.823-14.789,64.994-23.418,97.305
			C566.953,963.35,870.576,973.039,991.295,926.205z"/>
		<linearGradient id="SVGID_5_" gradientUnits="userSpaceOnUse" x1="0.3232" y1="243.5869" x2="1041.6151" y2="340.4514">
			<stop  offset="0" style="stop-color:#949FA1"/>
			<stop  offset="1" style="stop-color:#B7C6C9"/>
		</linearGradient>
		<path fill="url(#SVGID_5_)" d="M976.193,441.709c-3.078-136.105-24.568-255.299-51.518-326.236
			c-17.146-10.516-79-47.75-86.803-52.488c31.625,125.695,53.375,257.795,53.658,386.275c-103.199,6.773-207.109,5.099-310.469-2.46
			c-16.898-150.573-38.807-325.978-95.262-410.463c-26.272,8.397-61.166,19.983-92.359,30.281
			c38.553,47.815,67.357,232.444,77.42,370.002c-37.035-4.121-73.947-8.845-110.653-14.147
			c9.45,38.162,19.466,75.607,29.128,110.592c195.98,30.057,398.426,42.791,593.984,14.421c9.994-36.944,21.5-89.633,22.41-109.315
			C995.799,439.467,986.146,440.584,976.193,441.709z"/>
		<path fill="#868F98" d="M702.615,536.988c-18.486,10.05-41.184,17.764-60.029,23.238c-84.887-4.651-169.674-14.342-253.25-27.18
			c-9.642-34.98-19.672-72.434-29.118-110.563c23.933,3.439,47.966,6.686,72.093,9.594c7.221,14.826,14.758,23.902,18.363,29.02
			C483.378,507.514,600.869,541.833,702.615,536.988z"/>
		<path fill="#868F98" d="M422.008,815.172c-6.581,31.823-14.789,64.994-23.418,97.305c24.862,7.511,59.258,15.357,88.994,21.023
			c2.336-17.502,13.688-92.427,14.596-101.875C475.02,827.242,443.711,821.09,422.008,815.172z"/>
	</g>
	<g>
		<path fill="#B0683A" d="M418.647,725.063c-9.521,0-40.017,2.965-69.851,4.369c-109.936,5.161-208.773,15.873-247.668,0.791
			c-28.754-11.148-49.556-28.868-61.126-39.69c-26.241-24.531-37.39-44.386-33.905-66.685
			C9.81,600.041,57.86,515.496,142.43,535.143c44.225,0.747,110.928,31.547,110.928,31.547s68.166,13.104,135.215,15.727
			C394.461,615.451,418.264,677.008,418.647,725.063z"/>
		<linearGradient id="SVGID_6_" gradientUnits="userSpaceOnUse" x1="212.0752" y1="860.3955" x2="202.4081" y2="554.2637">
			<stop  offset="6.030000e-006" style="stop-color:#E0905E"/>
			<stop  offset="0.9053" style="stop-color:#FCB576"/>
			<stop  offset="1" style="stop-color:#FFB979"/>
		</linearGradient>
		<path fill="url(#SVGID_6_)" d="M111.445,720.688c-23.94-7.253-52.639-31.491-63.21-41.47
			c-23.267-21.934-30.951-37.229-28.072-53.779c2.158-12.403,35.207-92.702,118.55-94.464c40.324,0.8,107.638,44.046,108.178,44.349
			c0,0,46.417,13.408,131.891,17.432c4.129,24.684,12.275,77.903,13.984,121.854c-1.723,0.246-15.338-0.142-53.494,2.917
			C245.735,725.002,152.229,732.003,111.445,720.688z"/>
	</g>
	<g>
		<g>
			<path fill="#B0683A" d="M354.898,588.514c6.106-13.08,14.103-37.267,20.285-44.443c3.636-4.186,32.276-34.719,37.512-44.646
				c5.492-9.279,11.505-31.912,14.885-58.348c4.696-17.44,48.496,0.777,48.818,37.504c0.336,37.664-15.292,68.203-23.813,87.522
				C443.32,568.972,361.663,585.986,354.898,588.514z"/>
			
				<linearGradient id="SVGID_7_" gradientUnits="userSpaceOnUse" x1="455.9834" y1="472.4873" x2="504.8268" y2="488.3615" gradientTransform="matrix(0.9986 0.053 -0.053 0.9986 -38.6188 7.8369)">
				<stop  offset="6.030000e-006" style="stop-color:#E0905E"/>
				<stop  offset="0.9053" style="stop-color:#FCB576"/>
				<stop  offset="1" style="stop-color:#FFB979"/>
			</linearGradient>
			<path fill="url(#SVGID_7_)" d="M371.222,572.607c4.181-10.879,11.669-21.843,15.735-27.646
				c2.079-2.955,11.504-13.654,17.602-20.059c6.594-6.945,12.109-13.454,13.885-16.025c7.555-10.916,14.885-35.269,16.797-60.027
				c6.211-7.338,27.67,5.482,30.227,26.648c2.314,19.253-4.682,47.027-12.92,66.361c0,0,15.244,0.748,15.86,5.108
				C466.305,547.536,394.148,567.002,371.222,572.607z"/>
		</g>
		<g>
			<path fill="#B0683A" d="M330.532,578.601c15.476-10.329,45.253-31.751,45.253-31.751s7.938-2.373,14.036-5.265
				c14.41-6.798,25.157-5.866,41.045-9.028c33.355,3.295,52.425-4.487,88.331,3.707c14.738,44.998,11.424,91.201,11.974,159.618
				c0.128,16.238-2.116,37.001-6.552,43.464c-20.632,14.292-72.508,17.416-91.681,15.484
				c-24.722-3.654-89.313-21.189-100.021-26.197C350.779,716.722,373.535,642.79,330.532,578.601z"/>
			<linearGradient id="SVGID_8_" gradientUnits="userSpaceOnUse" x1="516.1191" y1="641.0664" x2="275.5933" y2="626.2393">
				<stop  offset="6.030000e-006" style="stop-color:#E0905E"/>
				<stop  offset="0.9053" style="stop-color:#FCB576"/>
				<stop  offset="1" style="stop-color:#FFB979"/>
			</linearGradient>
			<path fill="url(#SVGID_8_)" d="M437.701,742.92c-38.1-6.344-80.242-18.652-96.84-24.598
				c-15.082-14.288-30.166-94.475-6.354-128.605c19.666-15.566,86.41-60.725,95.473-60.648c33.938,2.916,62.76,4.483,95.244,11.877
				c5.236,49.907-5.208,167.994-20.092,193.377C498.652,738.124,465.348,741.783,437.701,742.92z"/>
			
				<linearGradient id="SVGID_9_" gradientUnits="userSpaceOnUse" x1="611.8857" y1="585.707" x2="467.5356" y2="613.2028" gradientTransform="matrix(0.9986 0.053 -0.053 0.9986 -38.6188 7.8369)">
				<stop  offset="6.030000e-006" style="stop-color:#E0905E"/>
				<stop  offset="0.9053" style="stop-color:#FCB576"/>
				<stop  offset="1" style="stop-color:#FFB979"/>
			</linearGradient>
			<path fill="url(#SVGID_9_)" d="M525.225,540.945c-32.484-7.394-48.789-6.467-82.719-9.383c-0.175,0-12.502,4.9-12.688,4.914
				c-5.998,55.72,1.535,98.496,6.297,167.155c-3.177,13.09-6.348,29.772,0.393,39.288c9.332,1.434,64.952-0.966,80.617-14.533
				c1.264-8.716,1.539-13.483,1.33-25.252C517.811,666.493,530.224,588.519,525.225,540.945z"/>
			<path fill="#B0683A" d="M446.1,585.986c5.369,2.178,72.843-5.208,83.462-4.352c5.543,1.719,18.084,9.672,21.653,14.227
				c4.374,11.702,1.392,33.942-3.375,49.418c-2.027,2.774-5.355,5.961-5.355,5.961s4.355,3.209,4.167,6.543
				c-0.109,16.251-6.292,42.407-13.691,45.849c-25.753,6.646-65.954,5.88-78.386,3.972
				C449.612,698.874,446.677,601.305,446.1,585.986z"/>
			
				<linearGradient id="SVGID_10_" gradientUnits="userSpaceOnUse" x1="675.1455" y1="610.6475" x2="469.4979" y2="614.6797" gradientTransform="matrix(0.9986 0.053 -0.053 0.9986 -38.6188 7.8369)">
				<stop  offset="6.030000e-006" style="stop-color:#E0905E"/>
				<stop  offset="0.9053" style="stop-color:#FCB576"/>
				<stop  offset="1" style="stop-color:#FFB979"/>
			</linearGradient>
			<path fill="url(#SVGID_10_)" d="M438.502,705.615c0.791-22.231-1.889-36.377-2.387-51.602
				c-1.434-20.791-3.971-42.07-7.143-64.297c7.498,0.388,17.099,5.344,17.099,5.344s41.385,0.971,60.69,1.805
				c5.657,2.594,25.564-0.029,29.711,1.372c5.975,11.06,6.41,32.362-0.734,46.646c-4.682,2.418-15.275,4.809-15.275,4.809
				s6.148,2.221,12.364,3.187c2.495,11.589,2.012,34.464-6.021,43.61C507.6,703.788,449.697,707.148,438.502,705.615z"/>
			<path fill="#B0683A" d="M453.182,653.621c-3.172,0.393-0.899,2.982,0.891,3.863c23.813,0,59.535,0.899,81.283-4.967
				c1.222-2.319,3.144-5.889,4.066-8.393C511.822,652.727,478.187,653.621,453.182,653.621z"/>
			<path fill="#B0683A" d="M450.199,594.157c-1.548-0.397-6.703-3.527-7.953-3.589c-0.975,4.706-0.497,10.23,0.516,17.203
				C444.547,601.225,446.929,595.861,450.199,594.157z"/>
			<path fill="#B0683A" d="M428.177,529.395c19.05-4.961,73.823-4.961,92.484-2.386c12.299,3.371,22.117,7.542,24.2,9.923
				c6.33,10.443,10.42,38.397,2.084,56.865c-8.332,6.533-19.022,10.41-26.194,10.41c-6.103,0-68.89-5.975-78.665-7.76
				C434.396,588.093,415.717,564.777,428.177,529.395z"/>
			<linearGradient id="SVGID_11_" gradientUnits="userSpaceOnUse" x1="550.1045" y1="568.043" x2="438.6505" y2="563.8843">
				<stop  offset="6.030000e-006" style="stop-color:#E0905E"/>
				<stop  offset="0.9053" style="stop-color:#FCB576"/>
				<stop  offset="1" style="stop-color:#FFB979"/>
			</linearGradient>
			<path fill="url(#SVGID_11_)" d="M521.845,596.069c0,0-70.153,0.985-90.099-2.878c-7.877-15.098-13.776-39.355-0.597-56.856
				c19.452-1.784,72.971-1.453,88.048-0.071c6.746,2.191,11.084,3.934,17.332,6.613c3.541,12.375,4.98,39.852,0.597,47.038
				C531.768,593.499,521.845,596.069,521.845,596.069z"/>
			<linearGradient id="SVGID_12_" gradientUnits="userSpaceOnUse" x1="560.8486" y1="568.4541" x2="528.4612" y2="566.5684">
				<stop  offset="6.030000e-006" style="stop-color:#E0905E"/>
				<stop  offset="0.9053" style="stop-color:#FCB576"/>
				<stop  offset="1" style="stop-color:#FFB979"/>
			</linearGradient>
			<path fill="url(#SVGID_12_)" d="M536.529,542.877c-6.344-3.967-16.848-6.703-17.061-6.74c7.734,11.11,8.53,44.059,1.982,59.933
				c4.289-0.407,10.316-2.57,15.675-6.154C541.51,582.729,540.07,555.252,536.529,542.877z"/>
		</g>
	</g>
	<g>
		<path fill="#93AB20" d="M0.088,631.062c-2.423-27.858,45.184-115.069,122.741-115.069c45.22,0,90.438,32.302,123.548,41.992
			c26.244,7.672,81.961,16.148,81.961,16.148c-42.395,44.816-27.859,135.66,3.634,157.463
			C292,737.652,154.74,757.223,98.199,737.652C66.707,726.75,4.934,686.779,0.088,631.062z"/>
		<path fill="#DBF74A" d="M170.912,731.607c-30.353,0-53.217-2.588-67.959-7.691c-25.903-8.967-84.123-45.113-88.385-94.113
			c-0.733-8.434,8.527-35.367,26.702-56.477c12.288-14.275,39.513-41.688,79.942-43.605c33.413-1.584,74.291,21.803,109.012,35.531
			c29.878,8.881,55.221,13.131,74.293,16.148c-12.289,22.732-19.326,55.434-16.108,86.32c2.117,20.334,7.767,38.857,15.829,53.182
			C252.623,727.924,206.916,731.607,170.912,731.607z"/>
		<linearGradient id="SVGID_13_" gradientUnits="userSpaceOnUse" x1="124.3584" y1="843.8223" x2="165.7553" y2="560.1328">
			<stop  offset="0" style="stop-color:#949FA1"/>
			<stop  offset="1" style="stop-color:#B7C6C9"/>
		</linearGradient>
		<path fill="url(#SVGID_13_)" d="M157.146,534.971c-50.243,25.615-85.807,76.997-74.693,140.906
			c4.727,17.332,13.546,35.023,23.922,49.662c14.771,4.6,35.699,6.662,64.5,6.662c9.635,0,20.236-0.389,31.188-0.908
			c-27.257-31.713-28.938-90.025-8.176-128.09c10.651-17.043,26.462-28.482,44.011-35.934c-2.388-0.668-8.254-2.705-10.701-3.433
			C204.08,554.695,181.699,542.453,157.146,534.971z"/>
	</g>
</g>
</svg>
