<?xml version="1.0" encoding="utf-8"?>
<!-- Generator: Adobe Illustrator 15.0.0, SVG Export Plug-In . SVG Version: 6.00 Build 0)  -->
<!DOCTYPE svg PUBLIC "-//W3C//DTD SVG 1.1//EN" "http://www.w3.org/Graphics/SVG/1.1/DTD/svg11.dtd">
<svg version="1.1" id="Capa_2" xmlns="http://www.w3.org/2000/svg" xmlns:xlink="http://www.w3.org/1999/xlink" x="0px" y="0px"
	 width="1195.828px" height="1253.212px" viewBox="0 0 1195.828 1253.212" enable-background="new 0 0 1195.828 1253.212"
	 xml:space="preserve">
<g>
	<g>
		<g>
			<path fill="#93AB20" d="M1035.537,1176.932c4.846,25.844,11.711,68.232,15.746,73.078c21.803,10.498,117.49-6.459,138.082-27.051
				c-1.615-36.338-4.037-69.044-4.846-77.924C1160.295,1147.861,1051.686,1173.702,1035.537,1176.932z"/>
			<path fill="#DBF74A" d="M1073.469,1238.674c-5.162,0-8.781-0.303-11.25-0.664c-2.713-10.232-6.742-32.607-9.328-46.936
				c-0.18-0.992-0.354-1.974-0.533-2.949c5.396-1.217,11.967-2.715,19.48-4.425c29.215-6.655,74.111-16.882,99.438-21.728
				c0.959,13.373,2.201,32.854,3.225,54.158C1156.449,1227.146,1106.457,1238.674,1073.469,1238.674L1073.469,1238.674z"/>
			<path fill="#93AB20" d="M959.227,184.916c97.711,34.723,150.197,139.699,157.465,217.219
				c2.422,87.21,14.535,318.154,24.223,388.407c19.381,92.056,52.49,329.46,54.914,351.263
				c-9.689,48.451-115.475,77.521-160.291,54.508C1027.057,1162.396,966.494,320.576,959.227,184.916z"/>
			<path fill="#DBF74A" d="M1039.172,1185.41c-10.537-81.705-52.725-788.594-64.096-977.943
				c74.873,37.601,120.199,123.736,127.096,195.557c2.51,89.481,14.75,319.941,24.346,389.504l0.07,0.509l0.104,0.501
				c18.477,87.767,51.311,318.102,55.406,351.5C1175.029,1175.796,1090.043,1212.867,1039.172,1185.41z"/>
			<linearGradient id="SVGID_1_" gradientUnits="userSpaceOnUse" x1="838.6357" y1="1019.5752" x2="1101.0675" y2="971.1258">
				<stop  offset="0" style="stop-color:#949FA1"/>
				<stop  offset="1" style="stop-color:#B7C6C9"/>
			</linearGradient>
			<path fill="url(#SVGID_1_)" d="M1148.059,914.391c-42.225,9.777-84.881,17.617-127.656,23.256
				c2.273,34.225,4.455,66.359,6.494,95.544c44.863-9.151,90.896-16.151,135.332-27.311
				C1157.758,976.092,1152.904,944.571,1148.059,914.391z"/>
			<linearGradient id="SVGID_2_" gradientUnits="userSpaceOnUse" x1="862.0967" y1="563.5918" x2="1100.4629" y2="541.8488">
				<stop  offset="0" style="stop-color:#949FA1"/>
				<stop  offset="1" style="stop-color:#B7C6C9"/>
			</linearGradient>
			<path fill="url(#SVGID_2_)" d="M1105.324,483.958c-29.387,5.704-74.492,8.016-112.443,11.995
				c2.102,34.387,4.287,76.113,6.516,112.132c37.947-1.978,74.957-7.812,111.525-16.028
				C1108.617,552.049,1106.896,518.994,1105.324,483.958z"/>
		</g>
		<g>
			<g>
				<path fill="#93AB20" d="M350.494,1049.679c-1.435,17.778,3.05,61.745,11.689,77.405c85.539,54.004,495.645,90.496,674.795,8.875
					c13.404-8.448,13.83-69.186,12.445-86.131C967.492,1052.816,404.572,1049.135,350.494,1049.679z"/>
				<path fill="#B7D130" d="M744.287,1169.139c-170.801,1.742-322.877-25.395-370.828-52.26c-4.334-11.148-7.84-35.005-8.574-52.719
					c29.027-0.023,89.896,0.203,163.458,0.482c162.028,0.605,383.935,1.438,481.886,0.439c9.846-0.1,18.281-0.215,25.25-0.351
					c0.176,22.049-2.299,51.146-6.871,59.052C965.48,1151.819,864.68,1167.914,744.287,1169.139z"/>
				<path fill="#DBF74A" d="M1035.479,1064.731c-6.969,0.136-15.404,0.251-25.25,0.351c-97.951,0.998-319.857,0.166-481.886-0.439
					c-32.403-0.123-62.331-0.236-88.173-0.322c0.855,27.563,3.607,55.43,14.699,78.846c71.869,15.658,176.541,27.123,289.418,25.973
					c120.393-1.225,221.193-17.319,284.32-45.355C1033.18,1115.877,1035.654,1086.78,1035.479,1064.731z"/>
			</g>
			<path fill="#93AB20" d="M853.848,107.396c-15.746,70.858-52.98,175.159-95.688,188.956
				c9.084,103.563,15.656,196.911,16.959,310.08c2.771,241.825,1.18,504.061,2.422,513.57
				c98.887-1.494,235.615-21.479,268.898-41.182c18.393-13.002,22.236-64.63,21.803-77.521
				c-4.143-120.337-4.84-342.613-2.449-408.96c2.4-66.359,7.783-289.854-53.27-378.354
				C965.283,182.494,872.018,120.114,853.848,107.396z"/>
			<path fill="#DBF74A" d="M791.303,1105.142c-2.35-57.489-13.762-285.231-13.762-497.499c0-41.787-0.926-91.484-3.029-144.139
				c-3.393-84.686-10.695-87.41-13.119-151.002c61.365-30.686,86.398-127.586,101.168-181.539
				c32.539,22.061,97.25,65.344,139.512,93.523c37.654,57.377,55.574,190.888,49.195,367.328
				c-2.465,68.398-1.613,291.979,2.447,409.984c0.602,17.842-5.426,56.996-15.279,64.859
				C1009.084,1083.303,886.615,1102.13,791.303,1105.142z"/>
			<path fill="#93AB20" d="M322.109,155.846c13.323-9.689,196.105-73.643,204.701-75.098
				c19.54,26.647,131.32,160.383,204.549,229.703c26.844,142.053,53.445,249.146,60.715,808.744
				c-129.195,11.307-382.533-8.589-438.473-51.275c-6.766-6.239-27.859-20.592-27.859-49.662
				c0-128.461,14.939-436.052,22.208-515.994c42.258-90.074,27.913-174.484-20.996-296.756
				C323.32,196.424,316.354,159.691,322.109,155.846z"/>
			<path fill="#B7D130" d="M362.877,1056.707c-0.756-0.672-1.627-1.422-2.594-2.248c-7.481-6.389-20.006-17.084-20.006-36.201
				c0-126.754,13.448-424.102,20.592-504.688c39.23-85.795,35.001-174.91-20.419-313.461c-2.546-6.359-5.941-25.51-6.054-34.441
				c24.936-11.641,143.34-53.826,183.166-66.926c17.28,47.031,92.079,195.658,194.57,224.256
				c14.156,53.293,49.662,207.125,62.986,272.532c2.422,127.182,14.973,320.102,14.531,507.515
				C632.998,1114.351,406.031,1088.847,362.877,1056.707z"/>
			<path fill="#DBF74A" d="M775.119,595.53c-13.324-65.407-47.24-257.392-64.803-310.687
				c-80.754-82.367-158.07-153.223-192.754-186.102c-39.826,13.1-158.23,55.285-183.166,66.926
				c0.112,8.932,3.508,28.082,6.054,34.441c36.373,90.934,50.694,160.57,45.151,221.952c1.98,193.078-18.4,386.159,9.182,579.238
				c2.111,23.215,6.983,51.021,17.814,74.619c86.373,22.063,253.535,38.463,377.053,29.548
				C790.092,918.055,777.541,722.712,775.119,595.53z"/>
			<linearGradient id="SVGID_3_" gradientUnits="userSpaceOnUse" x1="354.8125" y1="359.8037" x2="1052.5322" y2="359.8037">
				<stop  offset="0" style="stop-color:#949FA1"/>
				<stop  offset="1" style="stop-color:#B7C6C9"/>
			</linearGradient>
			<path fill="url(#SVGID_3_)" d="M1051.982,481.57c-11.273,1.739-22.566,3.339-33.857,4.922
				c-1.041-99.244-18.354-231.156-38.492-276.98c-32.186-21.491-59.506-38.897-87.428-57.704
				c19.57,116.183,36.354,223.034,37.076,345.566c-114.619,12.017-229.951,16.622-345.322,15.862
				c2.934-165.25-12.957-303.055-66.453-414.951c-25.5,8.725-62.521,21.609-95.67,33.74
				c56.404,97.634,53.395,255.506,52.932,378.928c-36.861-1.255-73.705-2.936-110.504-5.084c-1.096,2.568-2.223,5.14-3.395,7.701
				c-1.854,20.9-3.699,50.766-6.057,94.072c230.057,20.2,465.402,20.081,696.402-14.291c0.02-0.494,0.035-1.06,0.053-1.537
				C1052.678,552.851,1052.896,515.99,1051.982,481.57z"/>
			<path fill="#868F98" d="M385.252,506.963c-7.54-0.402-13.454-0.652-20.988-1.094c-1.096,2.568-2.223,5.14-3.395,7.701
				c-1.854,20.9-3.699,50.766-6.057,94.072c9.184,0.807,18.391,1.524,27.592,2.265C383.579,576.453,385.607,541.494,385.252,506.963
				z"/>
			<path fill="#93AB20" d="M731.107,307.658c0.807,8.883,0,0,2.02,12.111C653.559,258.674,467.87,126.104,411.741,88.016
				C457.77,46.834,542.557,5.651,573.241,0c0.808,22.608-1.935,90.154-1.211,101.744
				C603.561,161.45,674.758,224.864,731.107,307.658z"/>
			<path fill="#DBF74A" d="M707.723,291.289c-81.976-64.652-211.568-161.734-271.965-204.301
				C474.1,57.39,527.74,30.506,558.811,19.311c-0.125,11.969-0.466,26.529-0.782,39.998c-0.544,23.156-0.86,37.641-0.504,43.342
				l0.194,3.118l1.459,2.763c16.629,31.488,41.127,57.876,69.496,88.432C653.225,223.404,680.715,253.011,707.723,291.289z"/>
			<linearGradient id="SVGID_4_" gradientUnits="userSpaceOnUse" x1="340.2891" y1="987.002" x2="1054.3369" y2="987.002">
				<stop  offset="0" style="stop-color:#949FA1"/>
				<stop  offset="1" style="stop-color:#B7C6C9"/>
			</linearGradient>
			<path fill="url(#SVGID_4_)" d="M1053.1,1019.469c0.742-6.854,1.371-14.279,1.213-19.076c-0.789-22.902-1.275-48.881-1.816-77.825
				c-176.439,39.973-509.131,49.662-711.007-8.476c-0.862,33.703-1.14,74.833-1.2,99.406
				C571.771,1072.234,821.244,1076.32,1053.1,1019.469z"/>
			<path fill="#868F98" d="M341.489,914.092c-0.862,33.703-1.14,74.833-1.2,99.406c19.435,4.932,38.182,9.269,57.852,13.426
				c-5.691-32.822-9.076-67.221-11.883-101.486C371.602,922.133,355.052,917.995,341.489,914.092z"/>
			<path fill="#93AB20" d="M721.822,456.236c14.535-55.717,89.631-150.194,89.631-150.194
				c29.07,351.263,24.225,690.413,21.803,872.101c-21.803,4.846-79.941,12.113-96.898,12.113
				C738.781,928.625,729.09,606.432,721.822,456.236z"/>
			<path fill="#DBF74A" d="M751.02,1174.875c1.932-261.113-9.086-627.934-15.873-769.51c20.592-18.17,43.74-56.492,69.85-77.521
				c25.043,329.354,23.334,662.34,20.992,838.188C806.816,1169.354,770.195,1173.225,751.02,1174.875z"/>
			<path fill="#93AB20" d="M722.395,468.35c-14.121-151.729,95.713-271.064,84.121-378.979c-2.936-23.156-2.936-66.013-2.936-86.143
				c38.379,16.658,123.166,72.387,152.131,133.224c-24.262,67.353-89.873,138.624-161.215,220.462
				C762.01,394.182,724.926,415.477,722.395,468.35z"/>
			<path fill="#DBF74A" d="M741.297,392.23c7.527-48.801,25.07-94.402,42.23-138.986c22.197-57.683,43.162-112.164,37.438-165.426
				c-1.973-15.59-2.578-40.471-2.764-60.994c39.328,21.953,97.176,64.939,121.65,110.48
				c-22.691,57.389-76.395,118.736-138.262,189.411c-5.963,6.809-11.984,13.69-18.051,20.647
				c-7.004,8.037-14.271,15.43-21.297,22.578C754.994,377.316,747.861,384.576,741.297,392.23z"/>
			<g>
				<path fill="#1A1A1A" d="M777.568,1132.865c-0.076,8.393,6.672,15.264,15.064,15.34c8.412,0.074,15.281-6.672,15.357-15.064
					c0.076-8.404-6.68-15.273-15.072-15.35C784.516,1117.716,777.652,1124.453,777.568,1132.865z"/>
				<path fill="#1A1A1A" d="M769.553,900.296c-0.076,8.394,6.672,15.263,15.064,15.349c8.404,0.075,15.285-6.672,15.35-15.075
					c0.074-8.402-6.662-15.272-15.066-15.349C776.498,885.146,769.637,891.893,769.553,900.296z"/>
				<path fill="#1A1A1A" d="M763.949,668.469c-0.084,8.4,6.664,15.27,15.066,15.351c8.395,0.073,15.264-6.672,15.34-15.071
					c0.074-8.402-6.662-15.275-15.066-15.346C770.896,653.322,764.018,660.07,763.949,668.469z"/>
				<path fill="#1A1A1A" d="M758.471,474.309c-0.074,8.405,6.674,15.275,15.066,15.354c8.404,0.074,15.281-6.674,15.35-15.072
					c0.074-8.398-6.672-15.27-15.064-15.347C765.428,459.165,758.547,465.91,758.471,474.309z"/>
			</g>
			<g>
				<path fill="#808080" d="M789.457,279.209c-0.061,6.605,5.248,12.008,11.854,12.07c6.6,0.059,12.002-5.248,12.061-11.852
					c0.064-6.605-5.236-12.008-11.844-12.07C794.924,267.299,789.516,272.605,789.457,279.209z"/>
				<path fill="#1A1A1A" d="M801.344,286.936c-4.191-0.039-7.58-3.487-7.543-7.688c0.035-4.162,3.453-7.543,7.613-7.543
					c4.271,0.037,7.656,3.486,7.617,7.688c-0.041,4.156-3.453,7.542-7.617,7.542H801.344z"/>
			</g>
			<g>
				<path fill="#808080" d="M869.75,139.125c-0.061,6.605,5.244,12.008,11.848,12.074c6.605,0.058,12.014-5.25,12.066-11.854
					c0.057-6.605-5.248-12.007-11.844-12.071C875.211,127.216,869.814,132.521,869.75,139.125z"/>
				<path fill="#1A1A1A" d="M881.631,146.854c-4.195-0.037-7.578-3.49-7.535-7.69c0.031-4.157,3.451-7.542,7.611-7.542
					c4.266,0.035,7.65,3.484,7.619,7.686c-0.043,4.162-3.457,7.547-7.619,7.547H881.631z"/>
			</g>
			<g>
				<path fill="#C3E02D" d="M427.059,850.253c4.115,12.335,37.014,71.972,37.014,71.972
					c59.627-30.854,164.494-98.702,203.561-131.598c-14.393-28.791-43.182-74.026-47.291-80.192
					C546.318,772.115,499.024,805.016,427.059,850.253z"/>
				<path fill="#DBF74A" d="M467.391,911.184c-10.723-19.625-24.307-45.162-30.068-57.672
					c63.91-40.334,111.255-73.02,181.125-130.82c8.895,14.023,27.047,43.338,38.832,65.792
					C616.708,821.174,524.92,880.486,467.391,911.184z"/>
			</g>
			<g>
				<path fill="#C3E02D" d="M1039.461,835.877c-2.756,13.035-24.734,80.754-24.734,80.754
					c-37.553-42.008-111.068-112.261-141.479-141.229c10.133-20.278,43.963-72.786,46.709-79.304
					C961.961,736.656,1004.697,791.697,1039.461,835.877z"/>
				<path fill="#DBF74A" d="M1011.305,899.924c-36.133-39.34-94.178-97.045-125.021-126.693c5.451-10.416,35.85-61.926,35.85-61.926
					c36.73,35.367,77.775,88.95,108.639,127.473C1027.539,850.457,1017.754,881.113,1011.305,899.924z"/>
			</g>
			<g>
				<path fill="#808080" d="M477.377,87.557c-0.064,6.605,5.24,12.012,11.847,12.07c6.604,0.059,12.011-5.25,12.069-11.85
					c0.061-6.607-5.242-12.012-11.847-12.068C482.838,75.643,477.436,80.951,477.377,87.557z"/>
				<path fill="#1A1A1A" d="M489.262,95.283c-4.197-0.04-7.58-3.484-7.54-7.689c0.033-4.155,3.448-7.541,7.613-7.541
					c4.265,0.041,7.65,3.484,7.612,7.684c-0.037,4.162-3.455,7.547-7.612,7.547H489.262z"/>
			</g>
		</g>
		<g>
			<path fill="#93AB20" d="M323.725,153.424c-71.06,19.38-91.805,97.359-142.121,192.187
				C110.277,480.035,47.154,629.445,28.984,662.148c32.878,6.574,224.082,50.874,245.885,58.141
				c14.535-35.125,123.953-280.605,136.064-313.311C442.428,320.98,408.512,132.832,323.725,153.424z"/>
			<path fill="#DBF74A" d="M266.5,702.828c-42.726-11.283-164.565-39.614-216.008-50.943c6.981-14.438,16.281-34.689,27.68-59.505
				c30.014-65.358,71.123-154.868,116.271-239.956c10.921-20.584,20.283-40,29.333-58.774
				c31.55-65.44,54.344-112.722,103.772-126.202c2.755-0.664,5.854-1.053,8.816-1.053c13.473,0,26.008,8.164,37.258,24.266
				c33.46,47.887,45.182,152.559,23.663,211.32c-7.241,19.552-51.536,120.256-87.129,201.175
				C291.707,645.104,275.264,682.48,266.5,702.828z"/>
			<linearGradient id="SVGID_5_" gradientUnits="userSpaceOnUse" x1="-6.9463" y1="369.3516" x2="362.0727" y2="524.7283">
				<stop  offset="0" style="stop-color:#949FA1"/>
				<stop  offset="1" style="stop-color:#B7C6C9"/>
			</linearGradient>
			<path fill="url(#SVGID_5_)" d="M169.643,399.309c-15.836,31.263-31.188,62.986-45.271,92.66
				c72.1,5.568,149.53,29.711,200.978,76.637c14.204-32.313,28.746-65.462,41.078-93.816
				C311.383,429.752,238.799,399.251,169.643,399.309z"/>
		</g>
	</g>
	<g>
		<path fill="#B0683A" d="M435.433,808.234c-9.521,0-40.017,2.965-69.851,4.369c-109.936,5.161-208.773,15.873-247.668,0.791
			c-28.754-11.148-49.556-28.868-61.126-39.69c-26.241-24.531-37.39-44.386-33.905-66.685
			c3.712-23.807,51.763-108.352,136.332-88.705c44.225,0.747,110.928,31.547,110.928,31.547s68.166,13.104,135.215,15.727
			C411.246,698.623,435.049,760.18,435.433,808.234z"/>
		<linearGradient id="SVGID_6_" gradientUnits="userSpaceOnUse" x1="228.8613" y1="943.5674" x2="219.1942" y2="637.4356">
			<stop  offset="6.030000e-006" style="stop-color:#E0905E"/>
			<stop  offset="0.9053" style="stop-color:#FCB576"/>
			<stop  offset="1" style="stop-color:#FFB979"/>
		</linearGradient>
		<path fill="url(#SVGID_6_)" d="M128.23,803.86c-23.94-7.253-52.639-31.491-63.21-41.47
			c-23.267-21.934-30.951-37.229-28.072-53.779c2.158-12.403,35.207-92.702,118.55-94.464c40.324,0.8,107.638,44.046,108.178,44.349
			c0,0,46.417,13.408,131.891,17.432c4.129,24.684,12.275,77.903,13.984,121.854c-1.723,0.246-15.338-0.142-53.494,2.917
			C262.521,808.174,169.014,815.175,128.23,803.86z"/>
	</g>
	<g>
		<g>
			<path fill="#B0683A" d="M371.684,671.686c6.106-13.08,14.103-37.267,20.285-44.443c3.636-4.186,32.276-34.719,37.512-44.646
				c5.492-9.279,11.505-31.912,14.885-58.348c4.696-17.44,48.496,0.777,48.818,37.504c0.336,37.664-15.292,68.203-23.813,87.522
				C460.105,652.144,378.448,669.158,371.684,671.686z"/>
			
				<linearGradient id="SVGID_7_" gradientUnits="userSpaceOnUse" x1="467.9609" y1="375.0371" x2="516.8044" y2="390.9113" gradientTransform="matrix(0.9986 0.053 -0.053 0.9986 -38.9585 187.6877)">
				<stop  offset="6.030000e-006" style="stop-color:#E0905E"/>
				<stop  offset="0.9053" style="stop-color:#FCB576"/>
				<stop  offset="1" style="stop-color:#FFB979"/>
			</linearGradient>
			<path fill="url(#SVGID_7_)" d="M388.007,655.779c4.181-10.879,11.669-21.843,15.735-27.646
				c2.079-2.955,11.504-13.654,17.602-20.059c6.594-6.945,12.109-13.454,13.885-16.025c7.555-10.916,14.885-35.269,16.797-60.027
				c6.211-7.338,27.67,5.482,30.227,26.648c2.314,19.253-4.682,47.027-12.92,66.361c0,0,15.244,0.748,15.86,5.108
				C483.09,630.708,410.934,650.174,388.007,655.779z"/>
		</g>
		<g>
			<path fill="#B0683A" d="M347.317,661.772c15.476-10.329,45.253-31.751,45.253-31.751s7.938-2.373,14.036-5.265
				c14.41-6.798,25.157-5.866,41.045-9.028c33.355,3.295,52.425-4.487,88.331,3.707c14.738,44.998,11.424,91.201,11.974,159.618
				c0.128,16.238-2.116,37.001-6.552,43.464c-20.632,14.292-72.508,17.416-91.681,15.484
				c-24.722-3.654-89.313-21.189-100.021-26.197C367.564,799.894,390.32,725.962,347.317,661.772z"/>
			<linearGradient id="SVGID_8_" gradientUnits="userSpaceOnUse" x1="532.9053" y1="724.2383" x2="292.3783" y2="709.4111">
				<stop  offset="6.030000e-006" style="stop-color:#E0905E"/>
				<stop  offset="0.9053" style="stop-color:#FCB576"/>
				<stop  offset="1" style="stop-color:#FFB979"/>
			</linearGradient>
			<path fill="url(#SVGID_8_)" d="M454.486,826.092c-38.1-6.344-80.242-18.652-96.84-24.598
				c-15.082-14.288-30.166-94.475-6.354-128.605c19.666-15.566,86.41-60.725,95.473-60.648c33.938,2.916,62.76,4.483,95.244,11.877
				c5.236,49.907-5.208,167.994-20.092,193.377C515.438,821.296,482.133,824.955,454.486,826.092z"/>
			
				<linearGradient id="SVGID_9_" gradientUnits="userSpaceOnUse" x1="623.8623" y1="488.2559" x2="479.5122" y2="515.7516" gradientTransform="matrix(0.9986 0.053 -0.053 0.9986 -38.9585 187.6877)">
				<stop  offset="6.030000e-006" style="stop-color:#E0905E"/>
				<stop  offset="0.9053" style="stop-color:#FCB576"/>
				<stop  offset="1" style="stop-color:#FFB979"/>
			</linearGradient>
			<path fill="url(#SVGID_9_)" d="M542.01,624.117c-32.484-7.394-48.789-6.467-82.719-9.383c-0.175,0-12.502,4.9-12.688,4.914
				c-5.998,55.72,1.535,98.496,6.297,167.155c-3.177,13.09-6.348,29.772,0.393,39.288c9.332,1.434,64.952-0.966,80.617-14.533
				c1.264-8.716,1.539-13.483,1.33-25.252C534.596,749.665,547.009,671.69,542.01,624.117z"/>
			<path fill="#B0683A" d="M462.885,669.158c5.369,2.178,72.843-5.208,83.462-4.352c5.543,1.719,18.084,9.672,21.653,14.227
				c4.374,11.702,1.392,33.942-3.375,49.418c-2.027,2.774-5.355,5.961-5.355,5.961s4.355,3.209,4.167,6.543
				c-0.109,16.251-6.292,42.407-13.691,45.849c-25.753,6.646-65.954,5.88-78.386,3.972
				C466.397,782.046,463.462,684.477,462.885,669.158z"/>
			
				<linearGradient id="SVGID_10_" gradientUnits="userSpaceOnUse" x1="687.1221" y1="513.1973" x2="481.4744" y2="517.2296" gradientTransform="matrix(0.9986 0.053 -0.053 0.9986 -38.9585 187.6877)">
				<stop  offset="6.030000e-006" style="stop-color:#E0905E"/>
				<stop  offset="0.9053" style="stop-color:#FCB576"/>
				<stop  offset="1" style="stop-color:#FFB979"/>
			</linearGradient>
			<path fill="url(#SVGID_10_)" d="M455.287,788.787c0.791-22.231-1.889-36.377-2.387-51.602
				c-1.434-20.791-3.971-42.07-7.143-64.297c7.498,0.388,17.099,5.344,17.099,5.344s41.385,0.971,60.69,1.805
				c5.657,2.594,25.564-0.029,29.711,1.372c5.975,11.06,6.41,32.362-0.734,46.646c-4.682,2.418-15.275,4.809-15.275,4.809
				s6.148,2.221,12.364,3.187c2.495,11.589,2.012,34.464-6.021,43.61C524.385,786.96,466.482,790.32,455.287,788.787z"/>
			<path fill="#B0683A" d="M469.967,736.793c-3.172,0.393-0.899,2.982,0.891,3.863c23.813,0,59.535,0.899,81.283-4.967
				c1.222-2.319,3.145-5.889,4.066-8.393C528.607,735.898,494.972,736.793,469.967,736.793z"/>
			<path fill="#B0683A" d="M466.984,677.329c-1.548-0.397-6.703-3.527-7.953-3.589c-0.975,4.706-0.496,10.23,0.516,17.203
				C461.332,684.396,463.714,679.033,466.984,677.329z"/>
			<path fill="#B0683A" d="M444.962,612.566c19.05-4.961,73.823-4.961,92.484-2.386c12.299,3.371,22.117,7.542,24.2,9.923
				c6.33,10.443,10.42,38.397,2.084,56.865c-8.332,6.533-19.022,10.41-26.194,10.41c-6.103,0-68.89-5.975-78.665-7.76
				C451.182,671.265,432.502,647.949,444.962,612.566z"/>
			<linearGradient id="SVGID_11_" gradientUnits="userSpaceOnUse" x1="566.8906" y1="651.2139" x2="455.4367" y2="647.0552">
				<stop  offset="6.030000e-006" style="stop-color:#E0905E"/>
				<stop  offset="0.9053" style="stop-color:#FCB576"/>
				<stop  offset="1" style="stop-color:#FFB979"/>
			</linearGradient>
			<path fill="url(#SVGID_11_)" d="M538.63,679.241c0,0-70.153,0.985-90.099-2.878c-7.877-15.098-13.776-39.355-0.597-56.856
				c19.452-1.784,72.971-1.453,88.048-0.071c6.746,2.191,11.084,3.934,17.332,6.613c3.541,12.375,4.98,39.852,0.597,47.038
				C548.553,676.671,538.63,679.241,538.63,679.241z"/>
			<linearGradient id="SVGID_12_" gradientUnits="userSpaceOnUse" x1="577.6338" y1="651.627" x2="545.2464" y2="649.7413">
				<stop  offset="6.030000e-006" style="stop-color:#E0905E"/>
				<stop  offset="0.9053" style="stop-color:#FCB576"/>
				<stop  offset="1" style="stop-color:#FFB979"/>
			</linearGradient>
			<path fill="url(#SVGID_12_)" d="M553.314,626.049c-6.344-3.967-16.848-6.703-17.061-6.74c7.734,11.11,8.531,44.059,1.982,59.933
				c4.289-0.407,10.316-2.57,15.675-6.154C558.295,665.9,556.855,638.424,553.314,626.049z"/>
		</g>
	</g>
	<g>
		<g>
			<path fill="#93AB20" d="M0.056,708.348c-2.253-27.116,64.552-114.068,148.466-123.849c57.828-6.737,125.662,16.441,154.91,33.679
				c13.193,7.771,22.475,22.188,19.889,27.62c-51.637,33.677,13.93,156.856-1.819,198.889
				C287.938,856.639,18.134,925.62,0.056,708.348z"/>
			<path fill="#B7D130" d="M192.114,851.459c-109.237,0-168.653-48.456-176.606-144.021c-1.52-18.304,56.43-100.857,135.138-110.025
				c6.108-0.712,12.6-1.071,19.302-1.071c50.57,0,103.264,19.943,124.598,32.512c5.354,3.156,8.934,6.375,11.029,8.73
				c-26.486,22.779-33.844,61.416-35.848,83.6c-3.406,37.712,3.958,85.273,26.717,117.016
				C273.061,844.093,234.07,851.459,192.114,851.459z"/>
			<path fill="#DBF74A" d="M280.878,808.327c-10.433-27.775-13.603-59.999-11.151-87.144c2.004-22.184,12.572-57.451,39.059-80.232
				c-2.096-2.354-8.886-8.941-14.24-12.098c-21.334-12.568-74.027-32.512-124.598-32.512c-6.702,0-13.193,0.359-19.302,1.071
				c-78.708,9.168-136.657,91.722-135.138,110.025c0.188,2.251,0.434,4.453,0.68,6.653c10.591,21.67,25.37,41.629,43.252,58.355
				C119.24,819.168,203.764,821.285,280.878,808.327z"/>
			<linearGradient id="SVGID_13_" gradientUnits="userSpaceOnUse" x1="135.4111" y1="931.2627" x2="146.3591" y2="609.3967">
				<stop  offset="0" style="stop-color:#949FA1"/>
				<stop  offset="1" style="stop-color:#B7C6C9"/>
			</linearGradient>
			<path fill="url(#SVGID_13_)" d="M121.405,624.695c-75.704,46.335-88.677,133.352-48.192,197.72
				c26.664,18.995,63.591,28.116,108.441,29.695c-11.074-11.403-22.249-24.407-29.264-36.21
				c-36.146-65.186-36.146-147.746,46.473-195.551c11.897-5.839,26.221-10.568,38.727-14.486
				c-16.338-4.39-35.297-8.97-53.358-10.137C163.004,602.445,141.361,612.484,121.405,624.695z"/>
			<path fill="#868F98" d="M52.109,765.169c2.826,19.923,9.911,39.452,21.104,57.246c26.664,18.995,63.591,28.116,108.441,29.695
				c-11.074-11.403-22.249-24.407-29.264-36.21c-0.965-1.748-1.893-3.506-2.813-5.271c-32.986-5.836-63.938-17.711-90.139-38.182
				C56.927,770.092,54.5,767.648,52.109,765.169z"/>
		</g>
		<g>
			<path fill="#93AB20" d="M378.23,828.091c-36.795-19.619-52.422-127.236-15.415-182.827c-11.835-0.656-41.314-3.681-55.083-4.336
				c-6.885-1.146-21.73,2.372-25.172,5.232c-65.244,54.195-55.512,152.404,6.975,187.502c3.137,1.77,10.023,3.16,17.767,3.814
				C323.656,836.497,366.615,830.053,378.23,828.091z"/>
			<path fill="#B7D130" d="M307.602,825.645c-5.232-0.525-8.258-1.306-9.166-1.622c-24.355-13.83-41.057-40.665-44.707-71.874
				c-4.363-37.295,10.375-73.636,39.441-97.377c2.232-0.933,8.077-2.297,11.395-2.297c8.455,1.343,21.426,1.783,33.972,2.211
				c0.472,0.014,0.944,0.033,1.421,0.045c-22.74,51.646-13.646,127.016,12.838,164.881
				C336.476,821.141,317.985,824.982,307.602,825.645z"/>
			<path fill="#DBF74A" d="M342.157,655.074c-0.468-0.021-26.944-3.293-36.144-3.436c-5.006-0.343-9.682,0.984-12.844,3.133
				c-29.066,23.741-43.805,60.082-39.441,97.377c2.49,21.299,11.07,40.556,24.001,55.032c21.821-1.481,43.908-2.882,65.957-3.615
				C325.193,762.525,322.646,699.4,342.157,655.074z"/>
		</g>
	</g>
</g>
</svg>
