<?xml version="1.0" encoding="utf-8"?>
<!-- Generator: Adobe Illustrator 15.0.0, SVG Export Plug-In . SVG Version: 6.00 Build 0)  -->
<!DOCTYPE svg PUBLIC "-//W3C//DTD SVG 1.1//EN" "http://www.w3.org/Graphics/SVG/1.1/DTD/svg11.dtd">
<svg version="1.1" id="Capa_2" xmlns="http://www.w3.org/2000/svg" xmlns:xlink="http://www.w3.org/1999/xlink" x="0px" y="0px"
	 width="955.272px" height="1099.241px" viewBox="0 0 955.272 1099.241" enable-background="new 0 0 955.272 1099.241"
	 xml:space="preserve">
<g>
	<g>
		<path fill="#93AB20" d="M806.767,109.234c155.775,57.453,141.24,319.549,148.506,404.336
			c-24.225,2.422-154.635,15.422-168.766,16.229c-1.213-10.901-48.049-392.121-49.26-398.984
			C746.937,128.394,801.519,110.851,806.767,109.234z"/>
		<path fill="#DBF74A" d="M799.243,514.162c-7.607-62.238-38.307-312.551-45.969-372.872c11.906-3.622,29.834-9.292,48.244-15.148
			c1.785-0.568,3.389-1.076,4.756-1.511c120.723,49.133,128.168,241.244,132.197,345.041c0.439,11.337,0.84,21.685,1.342,30.835
			C892.937,505.176,827.989,511.571,799.243,514.162z"/>
	</g>
	<g>
		<g>
			<path fill="#93AB20" d="M177.044,81.759C275.559,46.633,402.335,8.478,424.138,0c9.689,117.896,239.828,124.759,239.828,18.168
				c18.168,12.113,142.502,86.321,167.135,102.472c15.16,119.187,62.834,205.553,61.188,320.255
				c-7.166,63.568-52.32,198.132-46.027,254.362c16.957,151.537,42.432,298.007,50.068,340.767
				c-103.365,92.862-495.811,83.172-665.386-27.455c24.225-97.708,68.64-231.752,61.372-311.696
				C263.245,583.017,147.974,231.952,177.044,81.759z"/>
			<path fill="#B7D130" d="M624.401,1084.706c-146.729,0-292.867-32.32-376.784-82.838c4.649-18.228,9.88-37.521,15.362-57.756
				c23.312-85.997,49.729-183.467,43.813-248.554l-0.107-1.156l-0.287-1.125c-5.189-20.326-13.136-48.264-22.336-80.617
				C241.62,463.438,171.212,215.889,189.92,92.613c57.876-20.42,123.919-41.521,172.729-57.115
				c20.742-6.629,37.93-12.121,50.143-16.168c15.734,58.341,81.816,88.733,144.697,88.733c59.91,0,104.621-26.135,117.34-65.917
				c15.33,9.43,37.217,22.7,59.904,36.45c32.871,19.926,66.73,40.452,82.844,50.638c12.936,30.65,36.684,83.565,48.063,125.128
				c16.021,58.516,19.381,128.392,12.123,185.605c-2.783,23.917-11.178,58.76-20.064,95.625
				c-14.75,61.198-29.998,124.479-25.885,161.281c15.605,139.456,38.279,274.234,48.725,333.381
				C836.081,1064.463,741.485,1084.706,624.401,1084.706z"/>
			<path fill="#DBF74A" d="M857.698,535.593c8.887-36.864,17.281-71.707,20.064-95.625c7.258-57.213,3.898-127.09-12.123-185.605
				c-11.379-41.563-35.127-94.479-48.063-125.128c-16.113-10.186-49.973-30.712-82.844-50.638
				c-22.688-13.75-44.574-27.02-59.904-36.45c-12.719,39.782-57.43,65.917-117.34,65.917c-62.881,0-128.963-30.393-144.697-88.733
				c-12.213,4.047-29.4,9.539-50.143,16.168c-45.195,14.439-105.16,33.6-159.74,52.57c16.277,126.893,92.766,350.244,120.09,373.014
				c67.829,56.527,176.037,61.371,277.783,56.527c-66.211,48.449-156.658,64.601-219.643,58.14
				c20.994,125.97-22.609,384.37-42.276,466.46c80.903,26.718,183.065,42.497,285.538,42.497
				c117.084,0,211.68-20.243,256.137-54.452c-10.445-59.146-33.119-193.925-48.725-333.381
				C827.7,660.072,842.948,596.791,857.698,535.593z"/>
			<linearGradient id="SVGID_1_" gradientUnits="userSpaceOnUse" x1="120.7197" y1="885.8384" x2="836.5711" y2="885.8384">
				<stop  offset="0" style="stop-color:#949FA1"/>
				<stop  offset="1" style="stop-color:#B7C6C9"/>
			</linearGradient>
			<path fill="url(#SVGID_1_)" d="M863.62,926.205c-4.551-28.821-9.113-60.783-13.93-94.881
				c-113.248,28.664-408.795,23.819-555.357-16.151c-6.581,31.823-14.789,64.994-23.418,97.304
				C439.278,963.35,742.901,973.04,863.62,926.205z"/>
			<path fill="#868F98" d="M294.333,815.172c-6.581,31.823-14.789,64.994-23.418,97.304c25.924,7.833,57.816,15.203,88.994,21.026
				c6.695-32.938,11.541-80.176,14.599-101.878C345.321,827.066,317.421,821.47,294.333,815.172z"/>
			<linearGradient id="SVGID_2_" gradientUnits="userSpaceOnUse" x1="-127.4883" y1="243.5747" x2="914.1871" y2="340.4748">
				<stop  offset="0" style="stop-color:#949FA1"/>
				<stop  offset="1" style="stop-color:#B7C6C9"/>
			</linearGradient>
			<path fill="url(#SVGID_2_)" d="M848.519,441.71c-3.078-136.106-24.568-255.299-51.518-326.236
				c-17.146-10.516-79-47.75-86.803-52.489c31.625,125.696,53.375,257.796,53.658,386.275
				c-103.199,6.774-207.109,5.099-310.469-2.459c-16.898-150.574-38.807-325.978-95.262-410.463
				c-26.272,8.398-61.166,19.983-92.359,30.281c38.553,47.815,67.357,232.444,77.42,370.002
				c-37.035-4.121-73.947-8.845-110.653-14.148c9.45,38.163,19.466,75.608,29.128,110.593
				c195.98,30.057,398.426,42.79,593.984,14.42c10.773-43.172,22.105-98.111,22.713-109.315
				C868.429,439.467,858.472,440.585,848.519,441.71z"/>
			<path fill="#868F98" d="M304.636,432.107c-22.867-2.834-49.371-6.349-72.103-9.634c9.45,38.163,19.466,75.608,29.128,110.593
				c70.801,10.858,142.447,19.404,214.31,24.621C367.761,526.038,345.052,512.198,304.636,432.107z"/>
		</g>
		<g>
			<path fill="#93AB20" d="M553.761,148.205c-66.552,0.003-119.336-31.567-146.804-61.508
				c-20.122-21.93-29.997-45.683-27.816-66.881l7.229,0.743c-1.966,19.104,7.245,40.848,25.942,61.227
				c26.878,29.294,79.258,60.252,144.805,59.124c98.375-1.623,136.199-57.127,136.932-91.732l7.268,0.156
				c-0.789,37.308-40.605,97.135-144.076,98.844C556.075,148.197,554.911,148.205,553.761,148.205z"/>
		</g>
	</g>
	<g>
		<path fill="#93AB20" d="M177.044,81.759c-47.846,20.819-73.684,103.16-118.906,200.061C38.761,322.195,14.534,365.797,0,390.023
			c40.373,12.921,179.265,77.521,188.954,87.21c22.611-45.221,83.981-172.807,95.285-208.335
			C287.468,186.532,231.954,88.22,177.044,81.759z"/>
		<path fill="#DBF74A" d="M181.687,457.046c-35.464-19.515-119.178-58.736-160.318-74.714c15.016-26.07,34.246-61.663,49.875-94.222
			c9.621-20.618,18.192-40.158,26.479-59.058c28.249-64.417,50.784-115.802,81.494-132.208
			c84.431,8.536,108.979,95.472,91.698,170.843C259.804,300.919,207.632,403.542,181.687,457.046z"/>
	</g>
</g>
<g>
	<g>
		<path fill="#B0683A" d="M227.224,588.514c6.106-13.081,14.103-37.267,20.285-44.443c3.636-4.185,32.276-34.719,37.512-44.647
			c5.492-9.279,11.505-31.912,14.885-58.347c4.696-17.44,48.496,0.777,48.818,37.503c0.336,37.664-15.292,68.203-23.813,87.523
			C315.646,568.972,233.988,585.986,227.224,588.514z"/>
		
			<linearGradient id="SVGID_3_" gradientUnits="userSpaceOnUse" x1="195.2188" y1="477.7275" x2="244.0628" y2="493.6019" gradientTransform="matrix(0.9986 0.053 -0.053 0.9986 94.3833 16.4246)">
			<stop  offset="6.030000e-006" style="stop-color:#E0905E"/>
			<stop  offset="0.9053" style="stop-color:#FCB576"/>
			<stop  offset="1" style="stop-color:#FFB979"/>
		</linearGradient>
		<path fill="url(#SVGID_3_)" d="M243.547,572.607c4.181-10.878,11.669-21.842,15.735-27.646
			c2.079-2.954,11.504-13.653,17.602-20.059c6.594-6.945,12.109-13.454,13.885-16.025c7.555-10.916,14.885-35.269,16.797-60.027
			c6.211-7.337,27.67,5.482,30.227,26.648c2.314,19.253-4.682,47.028-12.92,66.362c0,0,15.244,0.748,15.86,5.108
			C338.63,547.537,266.474,567.002,243.547,572.607z"/>
	</g>
	<g>
		<path fill="#B0683A" d="M202.857,578.601c15.476-10.33,45.253-31.751,45.253-31.751s7.938-2.372,14.036-5.264
			c14.41-6.798,25.157-5.866,41.045-9.028c33.355,3.295,52.425-4.488,88.331,3.707c14.738,44.997,11.424,91.201,11.974,159.618
			c0.128,16.238-2.116,37.001-6.552,43.464c-20.632,14.292-72.508,17.416-91.681,15.485c-24.722-3.655-89.313-21.19-100.021-26.198
			C223.104,716.722,245.86,642.791,202.857,578.601z"/>
		<linearGradient id="SVGID_4_" gradientUnits="userSpaceOnUse" x1="388.4443" y1="641.0664" x2="147.9173" y2="626.2393">
			<stop  offset="6.030000e-006" style="stop-color:#E0905E"/>
			<stop  offset="0.9053" style="stop-color:#FCB576"/>
			<stop  offset="1" style="stop-color:#FFB979"/>
		</linearGradient>
		<path fill="url(#SVGID_4_)" d="M310.026,742.92c-38.1-6.344-80.242-18.652-96.84-24.598
			c-15.082-14.288-30.166-94.474-6.354-128.605c19.666-15.566,86.41-60.724,95.473-60.648c33.938,2.917,62.76,4.484,95.244,11.878
			c5.236,49.907-5.208,167.993-20.092,193.376C370.978,738.125,337.673,741.784,310.026,742.92z"/>
		
			<linearGradient id="SVGID_5_" gradientUnits="userSpaceOnUse" x1="351.1211" y1="590.9463" x2="206.771" y2="618.4421" gradientTransform="matrix(0.9986 0.053 -0.053 0.9986 94.3833 16.4246)">
			<stop  offset="6.030000e-006" style="stop-color:#E0905E"/>
			<stop  offset="0.9053" style="stop-color:#FCB576"/>
			<stop  offset="1" style="stop-color:#FFB979"/>
		</linearGradient>
		<path fill="url(#SVGID_5_)" d="M397.55,540.946c-32.484-7.394-48.789-6.467-82.719-9.383c-0.175,0-12.502,4.9-12.688,4.914
			c-5.998,55.719,1.535,98.496,6.297,167.155c-3.177,13.09-6.348,29.772,0.393,39.288c9.332,1.435,64.952-0.965,80.617-14.533
			c1.264-8.715,1.539-13.483,1.33-25.252C390.136,666.494,402.549,588.519,397.55,540.946z"/>
		<path fill="#B0683A" d="M318.425,585.986c5.369,2.178,72.843-5.208,83.462-4.351c5.543,1.719,18.084,9.671,21.653,14.226
			c4.374,11.703,1.392,33.943-3.375,49.419c-2.027,2.774-5.355,5.96-5.355,5.96s4.355,3.209,4.167,6.542
			c-0.109,16.251-6.292,42.408-13.691,45.849c-25.753,6.646-65.954,5.879-78.386,3.972
			C321.938,698.875,319.002,601.306,318.425,585.986z"/>
		
			<linearGradient id="SVGID_6_" gradientUnits="userSpaceOnUse" x1="414.3818" y1="615.8872" x2="208.7342" y2="619.9195" gradientTransform="matrix(0.9986 0.053 -0.053 0.9986 94.3833 16.4246)">
			<stop  offset="6.030000e-006" style="stop-color:#E0905E"/>
			<stop  offset="0.9053" style="stop-color:#FCB576"/>
			<stop  offset="1" style="stop-color:#FFB979"/>
		</linearGradient>
		<path fill="url(#SVGID_6_)" d="M310.827,705.616c0.791-22.231-1.889-36.376-2.387-51.602c-1.434-20.792-3.971-42.071-7.143-64.297
			c7.498,0.388,17.099,5.344,17.099,5.344s41.385,0.971,60.69,1.804c5.657,2.594,25.564-0.028,29.711,1.373
			c5.975,11.059,6.41,32.362-0.734,46.645c-4.682,2.419-15.275,4.81-15.275,4.81s6.148,2.22,12.364,3.186
			c2.495,11.589,2.012,34.464-6.021,43.61C379.925,703.789,322.022,707.149,310.827,705.616z"/>
		<path fill="#B0683A" d="M325.507,653.622c-3.172,0.393-0.899,2.982,0.891,3.863c23.813,0,59.535,0.899,81.283-4.966
			c1.222-2.32,3.144-5.889,4.066-8.394C384.147,652.727,350.512,653.622,325.507,653.622z"/>
		<path fill="#B0683A" d="M322.524,594.158c-1.548-0.398-6.703-3.527-7.953-3.589c-0.975,4.707-0.497,10.23,0.516,17.204
			C316.872,601.225,319.254,595.861,322.524,594.158z"/>
		<path fill="#B0683A" d="M300.502,529.395c19.05-4.961,73.823-4.961,92.484-2.386c12.299,3.371,22.117,7.542,24.2,9.923
			c6.33,10.443,10.42,38.397,2.084,56.865c-8.332,6.534-19.022,10.411-26.194,10.411c-6.103,0-68.89-5.975-78.665-7.759
			C306.722,588.093,288.042,564.778,300.502,529.395z"/>
		<linearGradient id="SVGID_7_" gradientUnits="userSpaceOnUse" x1="422.4307" y1="568.043" x2="310.9758" y2="563.8842">
			<stop  offset="6.030000e-006" style="stop-color:#E0905E"/>
			<stop  offset="0.9053" style="stop-color:#FCB576"/>
			<stop  offset="1" style="stop-color:#FFB979"/>
		</linearGradient>
		<path fill="url(#SVGID_7_)" d="M394.17,596.07c0,0-70.153,0.985-90.099-2.878c-7.877-15.097-13.776-39.354-0.597-56.856
			c19.452-1.785,72.971-1.453,88.048-0.071c6.746,2.191,11.084,3.934,17.332,6.613c3.541,12.375,4.98,39.852,0.597,47.038
			C404.093,593.5,394.17,596.07,394.17,596.07z"/>
		<linearGradient id="SVGID_8_" gradientUnits="userSpaceOnUse" x1="433.1729" y1="568.4556" x2="400.7855" y2="566.5699">
			<stop  offset="6.030000e-006" style="stop-color:#E0905E"/>
			<stop  offset="0.9053" style="stop-color:#FCB576"/>
			<stop  offset="1" style="stop-color:#FFB979"/>
		</linearGradient>
		<path fill="url(#SVGID_8_)" d="M408.854,542.878c-6.344-3.968-16.848-6.703-17.061-6.741c7.734,11.111,8.53,44.06,1.982,59.933
			c4.289-0.407,10.316-2.57,15.675-6.154C413.835,582.729,412.396,555.252,408.854,542.878z"/>
	</g>
</g>
</svg>
