<?xml version="1.0" encoding="utf-8"?>
<!-- Generator: Adobe Illustrator 15.0.0, SVG Export Plug-In . SVG Version: 6.00 Build 0)  -->
<!DOCTYPE svg PUBLIC "-//W3C//DTD SVG 1.1//EN" "http://www.w3.org/Graphics/SVG/1.1/DTD/svg11.dtd">
<svg version="1.1" id="Capa_2" xmlns="http://www.w3.org/2000/svg" xmlns:xlink="http://www.w3.org/1999/xlink" x="0px" y="0px"
	 width="1161.275px" height="1158.873px" viewBox="0 0 1161.275 1158.873" enable-background="new 0 0 1161.275 1158.873"
	 xml:space="preserve">
<g>
	<g>
		<g>
			<path fill="#999999" d="M1092.639,667.398c-2.623-46.133-18.168-162.568-18.168-220.447
				c4.844-167.962-37.551-302.813-140.029-337.717c-5.248,1.615-59.83,19.158-69.52,21.58
				c4.039,37.953,65.408,564.443,71.975,657.199c30.912,117.816,87.393,338.922,98.412,370.752
				c20.992,1.613,92.053-15.344,125.967-29.879C1143.51,1022.295,1144.719,896.326,1092.639,667.398z"/>
			<path fill="#E8EBED" d="M1045.871,1143.9c-11.736-39.571-42.463-157.9-67.645-254.876
				c-9.816-37.804-19.164-73.787-26.926-103.399c-5.553-75.87-43.98-411.615-62.504-573.475c-3.574-31.217-6.436-56.203-8.082-70.79
				c11.914-3.62,29.951-9.325,48.479-15.219c1.871-0.593,3.535-1.123,4.947-1.569c84.988,32.301,130.785,149.2,125.799,321.96
				c-0.006,37.396,6.031,96.058,11.363,147.817c3.014,29.287,5.861,56.948,6.822,73.875l0.07,1.213l0.271,1.186
				c34.764,152.803,45.66,259.572,54.412,345.363c3.898,38.168,7.318,71.698,12.203,103.672
				C1114.686,1130.832,1068.777,1141.627,1045.871,1143.9z"/>
			<path fill="#FFFFFF" d="M1132.879,1015.986c-8.752-85.791-19.648-192.561-54.412-345.363l-0.271-1.186l-0.07-1.213
				c-0.961-16.927-3.809-44.588-6.822-73.875c-5.332-51.76-11.369-110.422-11.363-147.817
				c4.803-166.438-37.543-280.993-116.645-318.041c20.922,339.132,49.42,679.735,141.928,1008.366
				c20.246-4.611,42.566-10.84,59.859-17.199C1140.197,1087.685,1136.777,1054.154,1132.879,1015.986z"/>
		</g>
		<g>
			<path fill="#999999" d="M304.719,81.758C403.233,46.633,530.01,8.478,551.813,0c9.689,117.896,239.828,124.758,239.828,18.168
				c18.168,12.113,142.502,86.32,167.135,102.472c15.16,119.187,62.834,205.553,61.188,320.255
				c-7.166,63.568-52.32,198.133-46.027,254.363c16.957,151.537,42.432,298.006,50.068,340.766
				c-103.365,92.863-495.811,83.172-665.386-27.455c24.225-97.708,68.64-231.752,61.372-311.695
				C390.92,583.016,275.648,231.951,304.719,81.758z"/>
			<path fill="#E8EBED" d="M752.076,1084.705c-146.729,0-292.867-32.319-376.784-82.838c4.649-18.228,9.88-37.52,15.362-57.756
				c23.312-85.997,49.729-183.467,43.813-248.554l-0.107-1.155l-0.287-1.125c-5.189-20.326-13.136-48.265-22.336-80.617
				c-42.441-149.223-112.85-396.771-94.142-520.048c57.876-20.421,123.919-41.521,172.729-57.114
				c20.742-6.63,37.93-12.121,50.143-16.168c15.734,58.34,81.816,88.732,144.697,88.732c59.91,0,104.621-26.135,117.34-65.916
				c15.33,9.43,37.217,22.699,59.904,36.449c32.871,19.926,66.73,40.452,82.844,50.639c12.936,30.649,36.684,83.564,48.063,125.128
				c16.021,58.516,19.381,128.392,12.123,185.605c-2.783,23.917-11.178,58.761-20.064,95.624
				c-14.75,61.199-29.998,124.479-25.885,161.281c15.605,139.456,38.279,274.234,48.725,333.381
				C963.756,1064.463,869.16,1084.705,752.076,1084.705z"/>
			<path fill="#FFFFFF" d="M985.373,535.592c8.887-36.863,15.949-71.898,20.064-95.624c14.525-83.86,3.898-129.511-12.123-188.028
				c-11.379-41.563-25.438-88.422-48.063-122.705c-16.113-10.187-49.973-30.713-82.844-50.639
				c-22.688-13.75-44.574-27.02-59.904-36.449c-12.719,39.781-57.43,65.916-117.34,65.916c-62.881,0-128.963-30.393-144.697-88.732
				c-12.213,4.047-29.4,9.538-50.143,16.168c-45.195,14.439-105.16,33.6-159.74,52.57c16.277,126.893,92.766,350.243,120.09,373.014
				c67.829,56.526,176.037,61.371,277.783,56.526c-66.211,48.449-156.658,64.601-219.643,58.14
				c20.994,125.971-22.609,384.369-42.276,466.461c80.903,26.717,183.065,42.496,285.538,42.496
				c117.084,0,211.68-20.242,256.137-54.451c-10.445-59.146-33.119-193.925-48.725-333.381
				C955.375,660.071,970.623,596.791,985.373,535.592z"/>
			<g>
				<path fill="#999999" d="M681.436,148.204c-66.552,0.003-119.336-31.567-146.804-61.509
					c-20.122-21.93-29.997-45.683-27.816-66.881l7.229,0.744c-1.966,19.104,7.245,40.848,25.942,61.227
					c26.878,29.295,79.258,60.252,144.805,59.124c98.375-1.623,136.199-57.128,136.932-91.731l7.268,0.156
					c-0.789,37.308-40.605,97.135-144.076,98.844C683.75,148.196,682.586,148.204,681.436,148.204z"/>
			</g>
		</g>
		<g>
			<path fill="#999999" d="M304.719,81.758c-45.423,24.832-84.184,112.041-118.098,205.308
				C167.24,327.441,48.537,553.137,20.679,594.724c24.63-1.211,223.276-1.211,238.617-1.211
				c22.612-45.222,141.314-289.087,152.618-324.615C415.143,186.531,359.629,88.22,304.719,81.758z"/>
			<path fill="#FFFFFF" d="M46.92,579.669c42.455-72.746,136.996-253.378,152.805-286.313l0.311-0.646l0.246-0.675
				c25.783-70.903,64.6-167.062,107.254-195.024c48.66,4.734,118.914,65.297,89.921,169.283
				C384.5,303.221,283.109,512.787,250.295,578.977C210.036,578.987,100.078,579.069,46.92,579.669z"/>
		</g>
	</g>
	<g>
		<path fill="#B0683A" d="M418.647,725.063c-9.521,0-40.017,2.965-69.851,4.369c-109.936,5.161-208.773,15.873-247.668,0.791
			c-28.754-11.148-49.556-28.868-61.126-39.69c-26.241-24.531-37.39-44.386-33.905-66.685
			C9.81,600.041,57.86,515.496,142.43,535.143c44.225,0.747,110.928,31.547,110.928,31.547s68.166,13.104,135.215,15.727
			C394.461,615.451,418.264,677.008,418.647,725.063z"/>
		<linearGradient id="SVGID_1_" gradientUnits="userSpaceOnUse" x1="212.0762" y1="860.3955" x2="202.409" y2="554.2637">
			<stop  offset="6.030000e-006" style="stop-color:#E0905E"/>
			<stop  offset="0.9053" style="stop-color:#FCB576"/>
			<stop  offset="1" style="stop-color:#FFB979"/>
		</linearGradient>
		<path fill="url(#SVGID_1_)" d="M111.445,720.688c-23.94-7.253-52.639-31.491-63.21-41.47
			c-23.267-21.934-30.951-37.229-28.072-53.779c2.158-12.403,35.207-92.702,118.55-94.464c40.324,0.8,107.638,44.046,108.178,44.349
			c0,0,46.417,13.408,131.891,17.432c4.129,24.684,12.275,77.903,13.984,121.854c-1.723,0.246-15.338-0.142-53.494,2.917
			C245.735,725.002,152.229,732.003,111.445,720.688z"/>
	</g>
	<g>
		<g>
			<path fill="#B0683A" d="M354.898,588.514c6.106-13.08,14.103-37.267,20.285-44.443c3.636-4.186,32.276-34.719,37.512-44.646
				c5.492-9.279,11.505-31.912,14.885-58.348c4.696-17.44,48.496,0.777,48.818,37.504c0.336,37.664-15.292,68.203-23.813,87.522
				C443.32,568.972,361.663,585.986,354.898,588.514z"/>
			
				<linearGradient id="SVGID_2_" gradientUnits="userSpaceOnUse" x1="453.5908" y1="382.6006" x2="502.4343" y2="398.4748" gradientTransform="matrix(0.9986 0.053 -0.053 0.9986 -40.9934 97.7249)">
				<stop  offset="6.030000e-006" style="stop-color:#E0905E"/>
				<stop  offset="0.9053" style="stop-color:#FCB576"/>
				<stop  offset="1" style="stop-color:#FFB979"/>
			</linearGradient>
			<path fill="url(#SVGID_2_)" d="M371.222,572.607c4.181-10.879,11.669-21.843,15.735-27.646
				c2.079-2.955,11.504-13.654,17.602-20.059c6.594-6.945,12.109-13.454,13.885-16.025c7.555-10.916,14.885-35.269,16.797-60.027
				c6.211-7.338,27.67,5.482,30.227,26.648c2.314,19.253-4.682,47.027-12.92,66.361c0,0,15.244,0.748,15.86,5.108
				C466.305,547.536,394.148,567.002,371.222,572.607z"/>
		</g>
		<g>
			<path fill="#B0683A" d="M330.532,578.601c15.476-10.329,45.253-31.751,45.253-31.751s7.938-2.373,14.036-5.265
				c14.41-6.798,25.157-5.866,41.045-9.028c33.355,3.295,52.425-4.487,88.331,3.707c14.738,44.998,11.424,91.201,11.974,159.618
				c0.128,16.238-2.116,37.001-6.552,43.464c-20.632,14.292-72.508,17.416-91.681,15.484
				c-24.722-3.654-89.313-21.189-100.021-26.197C350.779,716.722,373.535,642.79,330.532,578.601z"/>
			<linearGradient id="SVGID_3_" gradientUnits="userSpaceOnUse" x1="516.1191" y1="641.0674" x2="275.5921" y2="626.2402">
				<stop  offset="6.030000e-006" style="stop-color:#E0905E"/>
				<stop  offset="0.9053" style="stop-color:#FCB576"/>
				<stop  offset="1" style="stop-color:#FFB979"/>
			</linearGradient>
			<path fill="url(#SVGID_3_)" d="M437.701,742.92c-38.1-6.344-80.242-18.652-96.84-24.598
				c-15.082-14.288-30.166-94.475-6.354-128.605c19.666-15.566,86.41-60.725,95.473-60.648c33.938,2.916,62.76,4.483,95.244,11.877
				c5.236,49.907-5.208,167.994-20.092,193.377C498.652,738.124,465.348,741.783,437.701,742.92z"/>
			
				<linearGradient id="SVGID_4_" gradientUnits="userSpaceOnUse" x1="609.4932" y1="495.8184" x2="465.1418" y2="523.3144" gradientTransform="matrix(0.9986 0.053 -0.053 0.9986 -40.9934 97.7249)">
				<stop  offset="6.030000e-006" style="stop-color:#E0905E"/>
				<stop  offset="0.9053" style="stop-color:#FCB576"/>
				<stop  offset="1" style="stop-color:#FFB979"/>
			</linearGradient>
			<path fill="url(#SVGID_4_)" d="M525.225,540.945c-32.484-7.394-48.789-6.467-82.719-9.383c-0.175,0-12.502,4.9-12.688,4.914
				c-5.998,55.72,1.535,98.496,6.297,167.155c-3.177,13.09-6.348,29.772,0.393,39.288c9.332,1.434,64.952-0.966,80.617-14.533
				c1.264-8.716,1.539-13.483,1.33-25.252C517.811,666.493,530.224,588.519,525.225,540.945z"/>
			<path fill="#B0683A" d="M446.1,585.986c5.369,2.178,72.843-5.208,83.462-4.352c5.543,1.719,18.084,9.672,21.653,14.227
				c4.374,11.702,1.392,33.942-3.375,49.418c-2.027,2.774-5.355,5.961-5.355,5.961s4.355,3.209,4.167,6.543
				c-0.109,16.251-6.292,42.407-13.691,45.849c-25.753,6.646-65.954,5.88-78.386,3.972
				C449.612,698.874,446.677,601.305,446.1,585.986z"/>
			
				<linearGradient id="SVGID_5_" gradientUnits="userSpaceOnUse" x1="672.7529" y1="520.7607" x2="467.1053" y2="524.793" gradientTransform="matrix(0.9986 0.053 -0.053 0.9986 -40.9934 97.7249)">
				<stop  offset="6.030000e-006" style="stop-color:#E0905E"/>
				<stop  offset="0.9053" style="stop-color:#FCB576"/>
				<stop  offset="1" style="stop-color:#FFB979"/>
			</linearGradient>
			<path fill="url(#SVGID_5_)" d="M438.502,705.615c0.791-22.231-1.889-36.377-2.387-51.602c-1.434-20.791-3.971-42.07-7.143-64.297
				c7.498,0.388,17.099,5.344,17.099,5.344s41.385,0.971,60.69,1.805c5.657,2.594,25.564-0.029,29.711,1.372
				c5.975,11.06,6.41,32.362-0.734,46.646c-4.682,2.418-15.275,4.809-15.275,4.809s6.148,2.221,12.364,3.187
				c2.495,11.589,2.012,34.464-6.021,43.61C507.6,703.788,449.697,707.148,438.502,705.615z"/>
			<path fill="#B0683A" d="M453.182,653.621c-3.172,0.393-0.899,2.982,0.891,3.863c23.813,0,59.535,0.899,81.283-4.967
				c1.222-2.319,3.144-5.889,4.066-8.393C511.822,652.727,478.187,653.621,453.182,653.621z"/>
			<path fill="#B0683A" d="M450.199,594.157c-1.548-0.397-6.703-3.527-7.953-3.589c-0.975,4.706-0.497,10.23,0.516,17.203
				C444.547,601.225,446.929,595.861,450.199,594.157z"/>
			<path fill="#B0683A" d="M428.177,529.395c19.05-4.961,73.823-4.961,92.484-2.386c12.299,3.371,22.117,7.542,24.2,9.923
				c6.33,10.443,10.42,38.397,2.084,56.865c-8.332,6.533-19.022,10.41-26.194,10.41c-6.103,0-68.89-5.975-78.665-7.76
				C434.396,588.093,415.717,564.777,428.177,529.395z"/>
			<linearGradient id="SVGID_6_" gradientUnits="userSpaceOnUse" x1="550.1055" y1="568.042" x2="438.6515" y2="563.8833">
				<stop  offset="6.030000e-006" style="stop-color:#E0905E"/>
				<stop  offset="0.9053" style="stop-color:#FCB576"/>
				<stop  offset="1" style="stop-color:#FFB979"/>
			</linearGradient>
			<path fill="url(#SVGID_6_)" d="M521.845,596.069c0,0-70.153,0.985-90.099-2.878c-7.877-15.098-13.776-39.355-0.597-56.856
				c19.452-1.784,72.971-1.453,88.048-0.071c6.746,2.191,11.084,3.934,17.332,6.613c3.541,12.375,4.98,39.852,0.597,47.038
				C531.768,593.499,521.845,596.069,521.845,596.069z"/>
			<linearGradient id="SVGID_7_" gradientUnits="userSpaceOnUse" x1="560.8486" y1="568.4551" x2="528.4612" y2="566.5694">
				<stop  offset="6.030000e-006" style="stop-color:#E0905E"/>
				<stop  offset="0.9053" style="stop-color:#FCB576"/>
				<stop  offset="1" style="stop-color:#FFB979"/>
			</linearGradient>
			<path fill="url(#SVGID_7_)" d="M536.529,542.877c-6.344-3.967-16.848-6.703-17.061-6.74c7.734,11.11,8.53,44.059,1.982,59.933
				c4.289-0.407,10.316-2.57,15.675-6.154C541.51,582.729,540.07,555.252,536.529,542.877z"/>
		</g>
	</g>
	<g>
		<path fill="#999999" d="M0.088,631.062c-2.423-27.858,45.184-115.069,122.741-115.069c45.22,0,90.438,32.302,123.548,41.992
			c26.244,7.672,81.961,16.148,81.961,16.148c-42.395,44.816-27.859,135.66,3.634,157.463
			C292,737.652,154.74,757.223,98.199,737.652C66.707,726.75,4.934,686.779,0.088,631.062z"/>
		<path fill="#FFFFFF" d="M170.912,731.607c-30.353,0-53.217-2.588-67.959-7.691c-25.903-8.967-84.123-45.113-88.385-94.113
			c-0.733-8.434,8.527-35.367,26.702-56.477c12.288-14.275,39.513-41.688,79.942-43.605c33.413-1.584,74.291,21.803,109.012,35.531
			c29.878,8.881,55.221,13.131,74.293,16.148c-12.289,22.732-19.326,55.434-16.108,86.32c2.117,20.334,7.767,38.857,15.829,53.182
			C252.623,727.924,206.916,731.607,170.912,731.607z"/>
	</g>
</g>
</svg>
