<?xml version="1.0" encoding="utf-8"?>
<!-- Generator: Adobe Illustrator 15.0.0, SVG Export Plug-In . SVG Version: 6.00 Build 0)  -->
<!DOCTYPE svg PUBLIC "-//W3C//DTD SVG 1.1//EN" "http://www.w3.org/Graphics/SVG/1.1/DTD/svg11.dtd">
<svg version="1.1" id="Capa_4" xmlns="http://www.w3.org/2000/svg" xmlns:xlink="http://www.w3.org/1999/xlink" x="0px" y="0px"
	 width="775.592px" height="1675.189px" viewBox="0 0 775.592 1675.189" enable-background="new 0 0 775.592 1675.189"
	 xml:space="preserve">
<g>
	<g>
		<path fill="#3C3B40" d="M54.911,62.58C77.521,56.523,226.102,8.074,255.17,0c6.865,81.152,92.934,152.42,176.041,153.424
			c104.727,1.264,134.848-79.942,136.059-133.238C594.318,35.528,700.91,96.9,728.365,114.664
			c25.357,38.266,33.918,208.335,31.494,319.771c-2.121,97.43-2.422,317.349-7.268,416.67
			c14.537,169.575,26.98,725.853,21.805,753.397C667.803,1694.945,167.961,1710.289,0,1581.086
			c0-83.977,71.062-583.016,103.36-783.275c7.267-104.168,0.807-243.057-12.112-346.418
			C140.908,341.168,155.039,191.782,54.911,62.58z"/>
		<path fill="#806B56" d="M419.012,1660.658c-178.027,0-328.178-32.34-404.336-86.783c3.479-98.598,69.533-566.045,103.035-773.751
			l0.104-0.648l0.046-0.652c6.767-96.983,2.174-232.005-11.692-345.212c29.617-67.469,79.817-228.877-27.332-383.004
			c19.027-5.879,47.518-14.947,77.107-24.366c32.871-10.462,66.584-21.192,87.363-27.557
			c17.014,79.136,101.67,148.233,187.725,149.274l2.586,0.016c89.334,0,135.949-59.044,146.096-123.941
			c39.791,22.826,112.723,65.092,137.979,81.057c19.832,36.166,30.293,186.852,27.639,309.027
			c-0.744,34.051-1.27,83.785-1.828,136.436c-1.072,100.977-2.283,215.427-5.426,279.846l-0.047,0.975l0.08,0.975
			c14.408,168.054,25.471,683.818,22.398,744.641C709.281,1635.223,573.795,1660.658,419.012,1660.658z"/>
		<path fill="#8C785F" d="M738.109,852.348l-0.08-0.975l0.047-0.975c3.143-64.419,4.354-178.869,5.426-279.846
			c0.559-52.65,1.084-102.385,1.828-136.436c2.654-122.176-7.807-272.861-27.639-309.027
			c-25.256-15.965-98.188-58.23-137.979-81.057c-10.146,64.897-56.762,123.941-146.096,123.941l-2.586-0.016
			C344.977,166.918,260.32,97.82,243.307,18.685c-20.779,6.364-54.492,17.095-87.363,27.557
			c-29.59,9.419-58.08,18.487-77.107,24.366c77.119,110.932,72.726,225.627,53.165,306.364
			c24.204,144.308,42.823,350.585,68.261,449.909c-46.028,236.193-78.732,557.174-97.61,789.957
			c81.419,28.037,192.078,43.82,316.36,43.82c154.783,0,290.27-25.436,341.496-63.67
			C763.58,1536.166,752.518,1020.401,738.109,852.348z"/>
		<path fill="#806B56" d="M239.971,534.201c137.787,31.118,329.512,22.381,428.107,6.911
			C615.498,588.666,411.879,624.72,239.971,534.201z"/>
		<path fill="#806B56" d="M303.246,562.119c109.84,11.625,270.68,15.623,348.35,5.813
			C589.227,608.258,398.574,617.707,303.246,562.119z"/>
	</g>
	<g>
		<g>
			<path fill="#3C3B40" d="M101.759,738.682c2.898-3.667,8.059-4.907,8.059-4.907s-0.618,14.319-0.222,17.483
				c30.232,36.344,96.248,75.083,192.666,101.037c75.182,20.294,74.955,195.615-19.288,191.589
				c-126.38-4.107-191.515-65.726-207.909-108.722C96.121,873.439,102.123,780.368,101.759,738.682z"/>
			<path fill="#806B56" d="M265.447,1031.539c-93.334-9.777-153.529-52.051-173.681-91.201
				c12.503-43.03,24.038-114.857,26.283-163.432c36.167,35.339,98.331,65.84,180.479,87.955
				c35.658,10.348,48.113,66.268,39.75,112.42C332.652,1008.355,314.369,1036.031,265.447,1031.539z"/>
			<path fill="#8C785F" d="M338.279,977.281c8.363-46.152-4.092-102.072-39.75-112.42c-35.514-9.561-67.213-20.714-94.765-33.129
				c-11.784,17.643-37.88,107.26-45.396,151.607c36.095,22.512,107.372,48.143,151.354,40.44
				C326.654,1013.879,334.85,996.234,338.279,977.281z"/>
		</g>
		<g>
			<path fill="#3C3B40" d="M758.805,766.463c-1.6-3.538-4.748-7.332-4.748-7.332s-0.527,21.521-1.688,24.16
				c-12.646,26.407-32.225,43.594-95.467,56.607c-89.57,15.853-113.592,180.529-23.426,199.625
				c110.145-3.176,130.773-38.514,132.969-82.058C761.324,903.363,756.318,815.809,758.805,766.463z"/>
			<path fill="#8C785F" d="M634.838,1026.39c-41.518-10.015-44.24-57.138-44.08-71.495c0.5-44.308,26.414-94.625,68.889-102.143
				c43.521-8.956,68.316-18.389,84.607-33.32c0.984,48.307,4.813,103.805,8.049,138.181
				C750.477,990.688,739.254,1022.997,634.838,1026.39z"/>
		</g>
	</g>
</g>
<g>
	<g>
		<path fill="#B0683A" d="M99.643,579.631c6.106-13.08,14.103-37.267,20.287-44.443c3.632-4.186,32.272-34.719,37.514-44.646
			c5.489-9.279,11.499-31.912,14.881-58.348c4.696-17.44,48.494,0.777,48.82,37.504c0.334,37.664-15.293,68.203-23.816,87.522
			C188.065,560.089,106.405,577.104,99.643,579.631z"/>
		
			<linearGradient id="SVGID_1_" gradientUnits="userSpaceOnUse" x1="285.5635" y1="653.9766" x2="334.4069" y2="669.8507" gradientTransform="matrix(0.9986 0.053 -0.053 0.9986 -114.074 -173.2485)">
			<stop  offset="6.030000e-006" style="stop-color:#EAAD60"/>
			<stop  offset="0.2746" style="stop-color:#EEB66B"/>
			<stop  offset="0.7532" style="stop-color:#F9CC88"/>
			<stop  offset="1" style="stop-color:#FFDA99"/>
		</linearGradient>
		<path fill="url(#SVGID_1_)" d="M115.966,563.725c4.183-10.879,11.672-21.843,15.735-27.646
			c2.077-2.955,11.504-13.654,17.602-20.059c6.592-6.945,12.109-13.454,13.888-16.025c7.554-10.916,14.882-35.269,16.796-60.027
			c6.207-7.338,27.668,5.482,30.225,26.648c2.317,19.253-4.684,47.027-12.918,66.361c0,0,15.245,0.748,15.858,5.108
			C211.05,538.653,138.893,558.119,115.966,563.725z"/>
	</g>
	<g>
		<path fill="#B0683A" d="M75.279,569.718c15.473-10.329,45.25-31.751,45.25-31.751s7.941-2.373,14.034-5.265
			c14.413-6.798,25.157-5.866,41.047-9.028c33.355,3.295,52.425-4.487,88.333,3.707c14.734,44.998,11.423,91.201,11.972,159.618
			c0.128,16.238-2.116,37.001-6.552,43.464c-20.631,14.292-72.51,17.416-91.68,15.484c-24.721-3.654-89.315-21.189-100.021-26.197
			C95.524,707.839,118.277,633.907,75.279,569.718z"/>
		<linearGradient id="SVGID_2_" gradientUnits="userSpaceOnUse" x1="260.8643" y1="632.1836" x2="20.3343" y2="617.3563">
			<stop  offset="6.030000e-006" style="stop-color:#EAAD60"/>
			<stop  offset="0.2746" style="stop-color:#EEB66B"/>
			<stop  offset="0.7532" style="stop-color:#F9CC88"/>
			<stop  offset="1" style="stop-color:#FFDA99"/>
		</linearGradient>
		<path fill="url(#SVGID_2_)" d="M182.445,734.037c-38.102-6.344-80.241-18.652-96.837-24.598
			c-15.087-14.288-30.171-94.475-6.354-128.605c19.664-15.566,86.41-60.725,95.471-60.648c33.937,2.916,62.76,4.483,95.246,11.877
			c5.234,49.907-5.207,167.994-20.09,193.377C243.396,729.241,210.09,732.9,182.445,734.037z"/>
		
			<linearGradient id="SVGID_3_" gradientUnits="userSpaceOnUse" x1="441.4673" y1="767.1953" x2="297.1157" y2="794.6913" gradientTransform="matrix(0.9986 0.053 -0.053 0.9986 -114.074 -173.2485)">
			<stop  offset="6.030000e-006" style="stop-color:#EAAD60"/>
			<stop  offset="0.2746" style="stop-color:#EEB66B"/>
			<stop  offset="0.7532" style="stop-color:#F9CC88"/>
			<stop  offset="1" style="stop-color:#FFDA99"/>
		</linearGradient>
		<path fill="url(#SVGID_3_)" d="M269.971,532.063c-32.486-7.394-48.791-6.467-82.721-9.383c-0.174,0-12.5,4.9-12.686,4.914
			c-5.998,55.72,1.533,98.496,6.297,167.155c-3.176,13.09-6.352,29.772,0.395,39.288c9.328,1.434,64.948-0.966,80.613-14.533
			c1.262-8.716,1.537-13.483,1.33-25.252C262.556,657.61,274.966,579.636,269.971,532.063z"/>
		<path fill="#B0683A" d="M190.844,577.104c5.367,2.178,72.843-5.208,83.465-4.352c5.541,1.719,18.081,9.672,21.651,14.227
			c4.371,11.702,1.389,33.942-3.376,49.418c-2.027,2.774-5.357,5.961-5.357,5.961s4.355,3.209,4.167,6.543
			c-0.107,16.251-6.29,42.407-13.691,45.849c-25.751,6.646-65.952,5.88-78.386,3.972
			C194.354,689.991,191.422,592.422,190.844,577.104z"/>
		
			<linearGradient id="SVGID_4_" gradientUnits="userSpaceOnUse" x1="504.7256" y1="792.1367" x2="299.0806" y2="796.1689" gradientTransform="matrix(0.9986 0.053 -0.053 0.9986 -114.074 -173.2485)">
			<stop  offset="6.030000e-006" style="stop-color:#EAAD60"/>
			<stop  offset="0.2746" style="stop-color:#EEB66B"/>
			<stop  offset="0.7532" style="stop-color:#F9CC88"/>
			<stop  offset="1" style="stop-color:#FFDA99"/>
		</linearGradient>
		<path fill="url(#SVGID_4_)" d="M183.246,696.732c0.791-22.231-1.891-36.377-2.385-51.602c-1.438-20.791-3.971-42.07-7.143-64.297
			c7.496,0.388,17.1,5.344,17.1,5.344s41.385,0.971,60.69,1.805c5.654,2.594,25.562-0.029,29.712,1.372
			c5.973,11.06,6.406,32.362-0.738,46.646c-4.68,2.418-15.273,4.809-15.273,4.809s6.148,2.221,12.36,3.187
			c2.497,11.589,2.015,34.464-6.019,43.61C252.344,694.905,194.441,698.266,183.246,696.732z"/>
		<path fill="#B0683A" d="M197.924,644.738c-3.172,0.393-0.895,2.982,0.896,3.863c23.812,0,59.535,0.899,81.28-4.967
			c1.22-2.319,3.145-5.889,4.067-8.393C256.567,643.844,222.929,644.738,197.924,644.738z"/>
		<path fill="#B0683A" d="M194.945,585.274c-1.549-0.397-6.705-3.527-7.955-3.589c-0.973,4.706-0.497,10.23,0.517,17.203
			C189.291,592.342,191.673,586.979,194.945,585.274z"/>
		<path fill="#B0683A" d="M172.919,520.512c19.052-4.961,73.823-4.961,92.486-2.386c12.297,3.371,22.118,7.542,24.204,9.923
			c6.326,10.443,10.416,38.397,2.082,56.865c-8.336,6.533-19.021,10.41-26.195,10.41c-6.105,0-68.891-5.975-78.668-7.76
			C179.139,579.21,160.461,555.895,172.919,520.512z"/>
		<linearGradient id="SVGID_5_" gradientUnits="userSpaceOnUse" x1="294.8516" y1="559.1602" x2="183.3972" y2="555.0014">
			<stop  offset="6.030000e-006" style="stop-color:#EAAD60"/>
			<stop  offset="0.2746" style="stop-color:#EEB66B"/>
			<stop  offset="0.7532" style="stop-color:#F9CC88"/>
			<stop  offset="1" style="stop-color:#FFDA99"/>
		</linearGradient>
		<path fill="url(#SVGID_5_)" d="M266.592,587.187c0,0-70.156,0.985-90.099-2.878c-7.88-15.098-13.776-39.355-0.6-56.856
			c19.453-1.784,72.972-1.453,88.05-0.071c6.742,2.191,11.08,3.934,17.33,6.613c3.544,12.375,4.983,39.852,0.595,47.038
			C276.51,584.616,266.592,587.187,266.592,587.187z"/>
		<linearGradient id="SVGID_6_" gradientUnits="userSpaceOnUse" x1="305.5938" y1="559.5723" x2="273.205" y2="557.6865">
			<stop  offset="6.030000e-006" style="stop-color:#EAAD60"/>
			<stop  offset="0.2746" style="stop-color:#EEB66B"/>
			<stop  offset="0.7532" style="stop-color:#F9CC88"/>
			<stop  offset="1" style="stop-color:#FFDA99"/>
		</linearGradient>
		<path fill="url(#SVGID_6_)" d="M281.273,533.994c-6.344-3.967-16.848-6.703-17.061-6.74c7.737,11.11,8.53,44.059,1.982,59.933
			c4.289-0.407,10.314-2.57,15.673-6.154C286.257,573.846,284.817,546.369,281.273,533.994z"/>
	</g>
</g>
</svg>
