<?xml version="1.0" encoding="utf-8"?>
<!-- Generator: Adobe Illustrator 15.0.0, SVG Export Plug-In . SVG Version: 6.00 Build 0)  -->
<!DOCTYPE svg PUBLIC "-//W3C//DTD SVG 1.1//EN" "http://www.w3.org/Graphics/SVG/1.1/DTD/svg11.dtd">
<svg version="1.1" id="Capa_4" xmlns="http://www.w3.org/2000/svg" xmlns:xlink="http://www.w3.org/1999/xlink" x="0px" y="0px"
	 width="712.42px" height="1147.844px" viewBox="0 0 712.42 1147.844" enable-background="new 0 0 712.42 1147.844"
	 xml:space="preserve">
<g>
	<path fill="#93AB20" d="M13.527,59.754C30.483,53.698,199.289,3.01,207.73,0c26.733,49.699,180.074,304.428,230.947,343.186
		c9.85,112.953,19.379,695.388,19.379,719.485c-2.424,38.76-45.621,80.27-92.055,84.787
		c-87.211,4.846-273.23-36.281-340.768-102.552c12.112-156.251,8.883-520.03,1.617-599.165
		C83.779,364.99,116.483,177.245,13.527,59.754z"/>
	<path fill="#B7D130" d="M351.234,1133.312c-85.519,0-246.039-36.57-310.984-94.272c11.5-159.453,8.413-499.512,1.59-588.479
		c50.418-75.882,92.813-258.781-1.605-384.094c25.073-7.794,66.262-20.313,101.458-31.017c27.473-8.35,47.374-14.404,59.076-18.016
		c36.721,65.09,169.452,283.926,223.917,332.982c9.676,125.955,18.721,683.562,18.836,711.782
		c-2.334,32.064-41.068,66.948-78.639,70.762C360.627,1133.192,356.037,1133.312,351.234,1133.312z"/>
	<linearGradient id="SVGID_1_" gradientUnits="userSpaceOnUse" x1="44.083" y1="917.7319" x2="442.5547" y2="917.7319">
		<stop  offset="0" style="stop-color:#949FA1"/>
		<stop  offset="1" style="stop-color:#B7C6C9"/>
	</linearGradient>
	<path fill="url(#SVGID_1_)" d="M442.555,995.799c-0.51-31.155-1.213-71.225-2.072-116.301
		c-116.875,3.907-302.6-8.307-393.646-40.607c-0.705,7.771-3.029,105.38-2.726,113.556
		C170.663,988.661,307.195,999.811,442.555,995.799z"/>
	<linearGradient id="SVGID_2_" gradientUnits="userSpaceOnUse" x1="43.001" y1="317.1294" x2="433.832" y2="317.1294">
		<stop  offset="0" style="stop-color:#949FA1"/>
		<stop  offset="1" style="stop-color:#B7C6C9"/>
	</linearGradient>
	<path fill="url(#SVGID_2_)" d="M431.143,493.721c-48.492,2.367-97.074,3.497-145.619,3.044
		c-9.902-161.28-30.231-335.983-100.808-475.166c-11.245,3.433-75.796,23.367-91.854,28.264
		c40.314,69.356,78.831,290.335,80.486,442.848c-43.583-2.787-87.065-7.032-130.347-13.057c1.206,25.612,2.476,71.669,3.229,110.628
		c87.212,24.225,256.714,25.85,387.603,18.574C432.744,567.068,432.34,530.263,431.143,493.721z"/>
	<path fill="#DBF74A" d="M424.686,350.416C370.221,301.36,237.489,82.524,200.769,17.434c-11.702,3.612-31.604,9.666-59.076,18.016
		C106.496,46.154,65.308,58.673,40.234,66.467c60.405,80.17,64.774,183.874,46.908,268.083
		c19.529,251.167,29.014,499.164,31.23,749.639c75.068,30.935,172.582,49.123,232.861,49.123c4.803,0,9.393-0.119,13.648-0.352
		c37.57-3.813,76.305-38.697,78.639-70.762C443.406,1033.978,434.361,476.371,424.686,350.416z"/>
	<linearGradient id="SVGID_3_" gradientUnits="userSpaceOnUse" x1="44.083" y1="917.7319" x2="442.5547" y2="917.7319">
		<stop  offset="0" style="stop-color:#949FA1"/>
		<stop  offset="1" style="stop-color:#B7C6C9"/>
	</linearGradient>
	<path fill="url(#SVGID_3_)" d="M442.555,995.799c-0.51-31.155-1.213-71.225-2.072-116.301
		c-116.875,3.907-302.6-8.307-393.646-40.607c-0.705,7.771-3.029,105.38-2.726,113.556
		C170.663,988.661,307.195,999.811,442.555,995.799z"/>
	<linearGradient id="SVGID_4_" gradientUnits="userSpaceOnUse" x1="43.001" y1="317.1294" x2="433.832" y2="317.1294">
		<stop  offset="0" style="stop-color:#949FA1"/>
		<stop  offset="1" style="stop-color:#B7C6C9"/>
	</linearGradient>
	<path fill="url(#SVGID_4_)" d="M431.143,493.721c-48.492,2.367-97.074,3.497-145.619,3.044
		c-9.902-161.28-30.231-335.983-100.808-475.166c-11.245,3.433-75.796,23.367-91.854,28.264
		c40.314,69.356,78.831,290.335,80.486,442.848c-43.583-2.787-87.065-7.032-130.347-13.057c1.206,25.612,2.476,71.669,3.229,110.628
		c87.212,24.225,256.714,25.85,387.603,18.574C432.744,567.068,432.34,530.263,431.143,493.721z"/>
	<path fill="#868F98" d="M46.836,838.891c-0.705,7.771-3.029,105.38-2.726,113.556c23.915,6.845,48.188,12.784,72.741,17.906
		c-0.682-38.01-1.545-75.985-2.59-113.938C88.702,851.409,65.712,845.589,46.836,838.891z"/>
	<path fill="#868F98" d="M43.001,479.654c1.206,25.612,2.476,71.669,3.229,110.628c16.64,4.623,36.29,8.415,58.077,11.488
		c-1.959-38.465-4.13-76.958-6.529-115.494C79.49,484.345,61.225,482.19,43.001,479.654z"/>
	<path fill="#93AB20" d="M485.512,19.38c-12.67,88.101-70.328,277.935-87.207,335.919c4.846,67.83,21.303,674.766,23.416,692.836
		c0,43.604,26.645,96.9,77.518,96.9s176.844-33.11,213.182-62.985c-8.451-115.211-39.555-424.084-30.283-506.304
		c23.014-118.702,19.721-372.661-43.604-467.543C592.104,79.134,509.736,35.531,485.512,19.38z"/>
	<path fill="#DBF74A" d="M499.238,1130.501c-42.965,0-62.982-49.148-62.982-82.365v-0.848l-0.104-0.839
		c-0.869-8.401-4.564-129.432-8.477-257.566c-5.553-181.584-11.818-386.899-14.697-431.988c1.77-6.07,3.934-13.394,6.393-21.746
		c20.555-69.703,61.449-208.398,76.934-292.107c12.707,7.447,29.012,16.619,46.818,26.635c28.818,16.21,61.334,34.502,84.986,49.158
		c56.891,89.683,63.408,332.182,39.758,454.146l-0.109,0.563l-0.063,0.573c-7.346,65.104,9.492,262.409,21.791,406.474
		c3.156,37.017,5.928,69.492,7.836,94.497C658.354,1100.622,546.494,1130.501,499.238,1130.501z"/>
	<linearGradient id="SVGID_5_" gradientUnits="userSpaceOnUse" x1="-107.5186" y1="356.8145" x2="698.0422" y2="322.845">
		<stop  offset="0" style="stop-color:#949FA1"/>
		<stop  offset="1" style="stop-color:#B7C6C9"/>
	</linearGradient>
	<path fill="url(#SVGID_5_)" d="M634.596,477.118c5.207-120.101-5.658-254.783-28.744-371.654
		c-19.762-11.607-79.137-45.418-88.846-50.959C531.984,194.427,548,345.281,544.477,485.998
		c-41.988,3.609-84.016,6.461-126.063,8.318c1.207,35.9,1.977,73.767,3.307,116.156c82.002-3.913,164.508-11.756,245.148-26.809
		c0.23-3.405,0.498-6.65,0.826-9.546l0.063-0.573l0.109-0.563c5.488-28.294,9.324-63.117,11.313-100.977
		C664.334,473.794,649.469,475.48,634.596,477.118z"/>
	<linearGradient id="SVGID_6_" gradientUnits="userSpaceOnUse" x1="-105.8574" y1="918.0659" x2="565.2079" y2="922.9111">
		<stop  offset="0" style="stop-color:#949FA1"/>
		<stop  offset="1" style="stop-color:#B7C6C9"/>
	</linearGradient>
	<path fill="url(#SVGID_6_)" d="M678.607,849.636c-81.258,19.233-166.045,26.501-248.141,30.338
		c1.406,45.59,2.684,86.279,3.688,116.084c85.604-1.989,170.463-16.964,254.039-41.189
		C685.096,918.475,681.697,888.884,678.607,849.636z"/>
</g>
<g>
	<g>
		<path fill="#B0683A" d="M32.822,582.861c6.106-13.081,14.103-37.267,20.287-44.443c3.632-4.185,32.272-34.719,37.514-44.647
			c5.489-9.279,11.499-31.912,14.881-58.347c4.696-17.44,48.494,0.777,48.82,37.503c0.334,37.664-15.293,68.203-23.816,87.523
			C121.245,563.319,39.585,580.333,32.822,582.861z"/>
		
			<linearGradient id="SVGID_7_" gradientUnits="userSpaceOnUse" x1="0.5693" y1="462.7461" x2="49.4128" y2="478.6203" gradientTransform="matrix(0.9986 0.053 -0.053 0.9986 93.5651 36.0481)">
			<stop  offset="6.030000e-006" style="stop-color:#EAAD60"/>
			<stop  offset="0.2746" style="stop-color:#EEB66B"/>
			<stop  offset="0.7532" style="stop-color:#F9CC88"/>
			<stop  offset="1" style="stop-color:#FFDA99"/>
		</linearGradient>
		<path fill="url(#SVGID_7_)" d="M49.146,566.954c4.183-10.878,11.672-21.842,15.735-27.646
			c2.077-2.954,11.504-13.653,17.602-20.059c6.592-6.945,12.109-13.454,13.888-16.025c7.554-10.916,14.882-35.269,16.796-60.027
			c6.207-7.337,27.668,5.482,30.225,26.648c2.317,19.253-4.684,47.028-12.918,66.362c0,0,15.245,0.748,15.858,5.108
			C144.229,541.883,72.072,561.349,49.146,566.954z"/>
	</g>
	<g>
		<path fill="#B0683A" d="M8.459,572.948c15.473-10.33,45.25-31.751,45.25-31.751s7.941-2.372,14.034-5.264
			c14.413-6.798,25.157-5.866,41.047-9.028c33.355,3.295,52.425-4.488,88.333,3.707c14.734,44.997,11.423,91.201,11.972,159.618
			c0.128,16.238-2.116,37.001-6.552,43.464c-20.631,14.292-72.51,17.416-91.68,15.485c-24.721-3.655-89.315-21.19-100.021-26.198
			C28.704,711.069,51.457,637.137,8.459,572.948z"/>
		<linearGradient id="SVGID_8_" gradientUnits="userSpaceOnUse" x1="194.0439" y1="635.4136" x2="-46.4854" y2="620.5863">
			<stop  offset="6.030000e-006" style="stop-color:#EAAD60"/>
			<stop  offset="0.2746" style="stop-color:#EEB66B"/>
			<stop  offset="0.7532" style="stop-color:#F9CC88"/>
			<stop  offset="1" style="stop-color:#FFDA99"/>
		</linearGradient>
		<path fill="url(#SVGID_8_)" d="M115.625,737.267c-38.102-6.344-80.241-18.652-96.837-24.598
			c-15.087-14.288-30.171-94.474-6.354-128.605c19.664-15.566,86.41-60.724,95.471-60.648c33.937,2.917,62.76,4.484,95.246,11.878
			c5.234,49.907-5.207,167.993-20.09,193.376C176.576,732.471,143.27,736.13,115.625,737.267z"/>
		
			<linearGradient id="SVGID_9_" gradientUnits="userSpaceOnUse" x1="156.4736" y1="575.9653" x2="12.1223" y2="603.4614" gradientTransform="matrix(0.9986 0.053 -0.053 0.9986 93.5651 36.0481)">
			<stop  offset="6.030000e-006" style="stop-color:#EAAD60"/>
			<stop  offset="0.2746" style="stop-color:#EEB66B"/>
			<stop  offset="0.7532" style="stop-color:#F9CC88"/>
			<stop  offset="1" style="stop-color:#FFDA99"/>
		</linearGradient>
		<path fill="url(#SVGID_9_)" d="M203.15,535.293c-32.486-7.394-48.791-6.467-82.721-9.383c-0.174,0-12.5,4.9-12.686,4.914
			c-5.998,55.719,1.533,98.496,6.297,167.155c-3.176,13.09-6.352,29.772,0.395,39.288c9.328,1.435,64.948-0.965,80.613-14.533
			c1.262-8.715,1.537-13.483,1.33-25.252C195.735,660.84,208.146,582.866,203.15,535.293z"/>
		<path fill="#B0683A" d="M124.023,580.333c5.367,2.178,72.843-5.208,83.465-4.351c5.541,1.719,18.081,9.671,21.651,14.226
			c4.371,11.703,1.389,33.943-3.376,49.419c-2.027,2.774-5.357,5.96-5.357,5.96s4.355,3.209,4.167,6.542
			c-0.107,16.251-6.29,42.408-13.691,45.849c-25.751,6.646-65.952,5.879-78.386,3.972
			C127.534,693.221,124.602,595.652,124.023,580.333z"/>
		
			<linearGradient id="SVGID_10_" gradientUnits="userSpaceOnUse" x1="219.7324" y1="600.9058" x2="14.0866" y2="604.938" gradientTransform="matrix(0.9986 0.053 -0.053 0.9986 93.5651 36.0481)">
			<stop  offset="6.030000e-006" style="stop-color:#EAAD60"/>
			<stop  offset="0.2746" style="stop-color:#EEB66B"/>
			<stop  offset="0.7532" style="stop-color:#F9CC88"/>
			<stop  offset="1" style="stop-color:#FFDA99"/>
		</linearGradient>
		<path fill="url(#SVGID_10_)" d="M116.426,699.962c0.791-22.231-1.891-36.376-2.385-51.602
			c-1.438-20.792-3.971-42.071-7.143-64.297c7.496,0.388,17.1,5.344,17.1,5.344s41.385,0.971,60.69,1.804
			c5.654,2.594,25.562-0.028,29.712,1.373c5.973,11.059,6.406,32.362-0.738,46.645c-4.68,2.419-15.273,4.81-15.273,4.81
			s6.148,2.22,12.36,3.186c2.497,11.589,2.015,34.464-6.019,43.61C185.523,698.135,127.621,701.496,116.426,699.962z"/>
		<path fill="#B0683A" d="M131.104,647.968c-3.172,0.393-0.895,2.982,0.896,3.863c23.812,0,59.535,0.899,81.28-4.966
			c1.22-2.32,3.145-5.889,4.067-8.394C189.747,647.073,156.108,647.968,131.104,647.968z"/>
		<path fill="#B0683A" d="M128.125,588.504c-1.549-0.398-6.705-3.527-7.955-3.589c-0.973,4.707-0.497,10.23,0.517,17.204
			C122.471,595.572,124.853,590.208,128.125,588.504z"/>
		<path fill="#B0683A" d="M106.099,523.742c19.052-4.961,73.823-4.961,92.486-2.386c12.297,3.371,22.118,7.542,24.204,9.923
			c6.326,10.443,10.416,38.397,2.082,56.865c-8.336,6.534-19.021,10.411-26.195,10.411c-6.105,0-68.891-5.975-78.668-7.759
			C112.318,582.44,93.641,559.125,106.099,523.742z"/>
		<linearGradient id="SVGID_11_" gradientUnits="userSpaceOnUse" x1="228.0313" y1="562.3896" x2="116.5764" y2="558.2309">
			<stop  offset="6.030000e-006" style="stop-color:#EAAD60"/>
			<stop  offset="0.2746" style="stop-color:#EEB66B"/>
			<stop  offset="0.7532" style="stop-color:#F9CC88"/>
			<stop  offset="1" style="stop-color:#FFDA99"/>
		</linearGradient>
		<path fill="url(#SVGID_11_)" d="M199.771,590.417c0,0-70.156,0.985-90.099-2.878c-7.88-15.097-13.776-39.354-0.6-56.856
			c19.453-1.785,72.972-1.453,88.05-0.071c6.742,2.191,11.08,3.934,17.33,6.613c3.544,12.375,4.983,39.852,0.595,47.038
			C209.689,587.846,199.771,590.417,199.771,590.417z"/>
		<linearGradient id="SVGID_12_" gradientUnits="userSpaceOnUse" x1="238.7734" y1="562.8018" x2="206.3847" y2="560.916">
			<stop  offset="6.030000e-006" style="stop-color:#EAAD60"/>
			<stop  offset="0.2746" style="stop-color:#EEB66B"/>
			<stop  offset="0.7532" style="stop-color:#F9CC88"/>
			<stop  offset="1" style="stop-color:#FFDA99"/>
		</linearGradient>
		<path fill="url(#SVGID_12_)" d="M214.453,537.225c-6.344-3.968-16.848-6.703-17.061-6.741c7.737,11.111,8.53,44.06,1.982,59.933
			c4.289-0.407,10.314-2.57,15.673-6.154C219.437,577.076,217.997,549.599,214.453,537.225z"/>
	</g>
</g>
</svg>
