<?xml version="1.0" encoding="utf-8"?>
<!-- Generator: Adobe Illustrator 15.0.0, SVG Export Plug-In . SVG Version: 6.00 Build 0)  -->
<!DOCTYPE svg PUBLIC "-//W3C//DTD SVG 1.1//EN" "http://www.w3.org/Graphics/SVG/1.1/DTD/svg11.dtd">
<svg version="1.1" xmlns="http://www.w3.org/2000/svg" xmlns:xlink="http://www.w3.org/1999/xlink" x="0px" y="0px"
	 width="1372.606px" height="3204.716px" viewBox="0 0 1372.606 3204.716" enable-background="new 0 0 1372.606 3204.716"
	 xml:space="preserve">
<g id="Skin_x5F_03">
	<g>
		<g>
			<path fill="#944D09" d="M1173.908,1223.297c21.067,48.458,52.14,100.833,63.202,151.69
				c26.208,120.523,14.961,249.354,28.792,297.754c-11.239,2.81-111.525,4.285-117.137,5.69
				c-46.353-155.899-120.222-238.838-139.889-407.381C1067.868,1251.392,1155.65,1227.515,1173.908,1223.297z"/>
			<linearGradient id="SVGID_1_" gradientUnits="userSpaceOnUse" x1="925.8032" y1="1453.7129" x2="1153.7021" y2="1453.7129">
				<stop  offset="0" style="stop-color:#CF7B46"/>
				<stop  offset="1" style="stop-color:#E0905E"/>
			</linearGradient>
			<path fill="url(#SVGID_1_)" d="M1159.299,1669.306c-18.183-58.361-37.95-107.546-59.613-154.813
				c-33.085-72.179-64.4-140.498-76.973-234.683c50.672-16.434,116.457-34.608,143.957-41.69
				c5.233,11.502,10.902,23.214,16.42,34.616c16.816,34.712,34.201,70.607,41.666,104.934
				c14.785,68.002,17.486,139.276,19.649,196.544c1.358,36.033,2.491,65.949,6.207,87.779c-15.196,1.464-40.507,3.313-57.6,4.559
				C1177.875,1667.659,1165.613,1668.782,1159.299,1669.306z"/>
			<linearGradient id="SVGID_2_" gradientUnits="userSpaceOnUse" x1="1037.4976" y1="1464.167" x2="1252.7186" y2="1446.9493">
				<stop  offset="6.030000e-006" style="stop-color:#E0905E"/>
				<stop  offset="0.5527" style="stop-color:#F3A96F"/>
				<stop  offset="1" style="stop-color:#FFB979"/>
			</linearGradient>
			<path fill="url(#SVGID_2_)" d="M1253.305,1661.839c-3.708-21.827-7.541-51.592-8.899-87.625
				c-2.163-57.268-4.864-128.542-19.649-196.544c-7.465-34.327-24.85-70.221-41.666-104.934
				c-5.519-11.402-11.188-23.114-16.42-34.616c-7.523,1.938-6.323,61.097-25.286,94.807c-33.706,5.615-44.239,67.412-38.973,99.013
				c14.048,105.335,41.43,189.605,58.288,235.958C1170.527,1670.703,1238.116,1663.305,1253.305,1661.839z"/>
		</g>
		<g>
			<path fill="#944D09" d="M1128.519,1768.767c-5.728,36.071-22.207,83.036-33.262,109.022
				c-5.728,30.942,33.404,49.25,43.369,22.614c15.883-29.612,34.242-112.648,36.649-124.637
				C1160.892,1769.749,1136.386,1770.302,1128.519,1768.767z"/>
			<linearGradient id="SVGID_3_" gradientUnits="userSpaceOnUse" x1="1148.7251" y1="1736.5205" x2="1131.8712" y2="1855.551">
				<stop  offset="6.030000e-006" style="stop-color:#E0905E"/>
				<stop  offset="0.1377" style="stop-color:#E69763"/>
				<stop  offset="0.6726" style="stop-color:#F8B073"/>
				<stop  offset="1" style="stop-color:#FFB979"/>
			</linearGradient>
			<path fill="url(#SVGID_3_)" d="M1109.784,1897.649c-4.587-4.571-6.852-12.131-4.226-18.975
				c9.493-24.782,23.625-61.981,32.086-100.073c6.04,1.87,21.118,3.878,27.702,6.281c-6.03,26.963-30.325,104.782-35.903,113.522
				C1123.865,1907.143,1112.627,1900.479,1109.784,1897.649z"/>
			<path fill="#944D09" d="M1158.594,1766.21c-0.193,22.933-0.705,71.63-5.619,108.854c-5.619,13.339-19.659,40.725-25.277,55.473
				c-9.837,34.411,35.811,54.077,44.248,38.726c4.134-7.515,32.825-67.63,35.106-73.836c9.108-23.29,18.535-115.572,16.689-124.989
				C1209.501,1769.749,1167.551,1767.937,1158.594,1766.21z"/>
			<linearGradient id="SVGID_4_" gradientUnits="userSpaceOnUse" x1="1187.417" y1="1743.7061" x2="1174.7764" y2="1868.0057">
				<stop  offset="6.030000e-006" style="stop-color:#E0905E"/>
				<stop  offset="0.1377" style="stop-color:#E69763"/>
				<stop  offset="0.6726" style="stop-color:#F8B073"/>
				<stop  offset="1" style="stop-color:#FFB979"/>
			</linearGradient>
			<path fill="url(#SVGID_4_)" d="M1174.042,1957.924c-21.771,11.942-40.347-5.871-35.115-24.578
				c3.204-10.375,11.951-30.851,21.772-53.373c1.988-19.784,8.085-60.232,8.252-100.065c6.265,0.516,39.358,3.569,41.305,3.652
				c-1.25,36.067-3.296,74.473-9.36,97.776C1199.496,1884.742,1178.32,1947.08,1174.042,1957.924z"/>
			<path fill="#944D09" d="M1207.052,1769.723c-1.408,30.197-7.732,96.207-10.86,114.512c-6.021,17.816-13.721,30.854-27.769,62.455
				c-18.173,38.016,32.507,62.148,47.754,38.62c3.513-9.716,30.199-74.435,30.199-74.435s23.66-131.104,24.516-137.738
				C1254.395,1772.152,1220.034,1771.396,1207.052,1769.723z"/>
			<linearGradient id="SVGID_5_" gradientUnits="userSpaceOnUse" x1="1222.4736" y1="1732.0444" x2="1216.1533" y2="1919.5463">
				<stop  offset="6.030000e-006" style="stop-color:#E0905E"/>
				<stop  offset="0.1377" style="stop-color:#E69763"/>
				<stop  offset="0.6726" style="stop-color:#F8B073"/>
				<stop  offset="1" style="stop-color:#FFB979"/>
			</linearGradient>
			<path fill="url(#SVGID_5_)" d="M1177.572,1950.346c3.146-11.879,18.3-34.816,27.542-61.239
				c4.738-31.604,9.108-70.326,8.956-100.421c9.251,0.817,36.315-1.132,46.01-0.469c-3.279,22.66-15.466,104.048-15.466,104.048
				s-34.083,80.797-36.164,85.326C1200.728,1994.443,1166.108,1977.54,1177.572,1950.346z"/>
			<path fill="#944D09" d="M1245.168,1771.086c-0.024,17.948-3.547,77.53-6.524,118.021c-7.724,18.958-15.801,36.163-19.306,45.292
				c-11.238,37.571,30.544,69.877,51.611,27.038c4.923-9.128,19.667-34.41,30.2-61.797c5.619-51.968,4.151-123.074,3.514-129.217
				C1289.819,1769.577,1259.627,1771.946,1245.168,1771.086z"/>
			<linearGradient id="SVGID_6_" gradientUnits="userSpaceOnUse" x1="1265.7588" y1="1685.5229" x2="1261.5454" y2="1905.6787">
				<stop  offset="6.030000e-006" style="stop-color:#E0905E"/>
				<stop  offset="0.1377" style="stop-color:#E69763"/>
				<stop  offset="0.6726" style="stop-color:#F8B073"/>
				<stop  offset="1" style="stop-color:#FFB979"/>
			</linearGradient>
			<path fill="url(#SVGID_6_)" d="M1228.815,1936.857c5.267-13.696,8.78-22.292,19.49-44.063
				c4.21-37.924,5.233-81.816,3.162-107.975c4.747-0.352,18.869-1.341,23.776-1.824c4.905-0.478,14.986,1.111,19.582,0.771
				c2.818,25.986,1.585,74.612-4.209,113.061c-13.167,30.024-25.99,53.373-30.905,63.206
				C1247.777,1987.419,1222.055,1954.443,1228.815,1936.857z"/>
			<path fill="#944D09" d="M1142.441,1634.192c-23.172,31.6-16.152,126.403-15.675,149.588
				c53.087,15.17,164.361,14.596,184.079,16.114c-1.51-51.565-50.429-170.617-53.934-188.88
				C1237.244,1636.296,1188.786,1700.203,1142.441,1634.192z"/>
			<linearGradient id="SVGID_7_" gradientUnits="userSpaceOnUse" x1="1083.418" y1="1712.2729" x2="1255.9868" y2="1712.2729">
				<stop  offset="6.030000e-006" style="stop-color:#E0905E"/>
				<stop  offset="0.1377" style="stop-color:#E69763"/>
				<stop  offset="0.6726" style="stop-color:#F8B073"/>
				<stop  offset="1" style="stop-color:#FFB979"/>
			</linearGradient>
			<path fill="url(#SVGID_7_)" d="M1286.75,1804.834c-35.082-0.965-109.069-5.43-151.338-14.748
				c-0.042-3.375,1.535-24.271,1.41-28.087c-0.797-24.362,0-94.802,12.638-125.703c3.564-1.081,9.838,5.62,25.982,7.724
				c23.876-13.343,48.198-22.358,72.074-24.313c0.705,31.596,85.763,145.672,52.928,181.969
				C1298.802,1803.488,1289.602,1804.914,1286.75,1804.834z"/>
			<path fill="#944D09" d="M1261.473,1625.763c19.49,21.591,48.978,54.073,58.463,70.574c1.006,6.423,7.792,26.543,15.624,48.806
				c12.286,34.939,34.411,53.373,37.044,59.167c-6.323,17.905-42.285,34.361-61.625,18.435
				c-19.331-15.927-33.001-50.564-40.029-75.846C1175.443,1720.217,1185.381,1628.103,1261.473,1625.763z"/>
			<linearGradient id="SVGID_8_" gradientUnits="userSpaceOnUse" x1="1217.0962" y1="1773.3994" x2="1305.4792" y2="1710.2686">
				<stop  offset="6.030000e-006" style="stop-color:#E0905E"/>
				<stop  offset="0.1377" style="stop-color:#E69763"/>
				<stop  offset="0.6726" style="stop-color:#F8B073"/>
				<stop  offset="1" style="stop-color:#FFB979"/>
			</linearGradient>
			<path fill="url(#SVGID_8_)" d="M1316.246,1813.263c-24.64-23.412-38.268-75.845-38.268-75.845
				c-45.422-5.346-76.201-28.791-77.25-66.712c-0.468-16.877,17.822-45.731,47.31-45.731c14.752,18.253,47.493,59.775,60.131,80.138
				c3.414,10.71,13.738,40.457,26.687,66.016c10.911,21.533,18.258,25.806,24.581,34.762
				C1357.851,1813.263,1330.293,1826.605,1316.246,1813.263z"/>
			<path fill="#944D09" d="M1146.651,1790.086c31.602,7.376,109.026,13.694,130.093,14.748
				C1249.354,1814.844,1176.147,1803.257,1146.651,1790.086z"/>
		</g>
	</g>
</g>
<g id="Body_coberage">
	<path fill="#BA7C29" d="M1067.047,738.026c58,0,112,80,124,122s10,152,14,178s12,90,12,112s14,104,20,124s12.898,91.389,16,110
		c8.301,49.805,8.858,85.136,6,118c-0.714,8.215,30,78,20,104c-8,26-54,22-76,28s-68.96,11.564-76,10c-18-4-32-12-58-30
		C1063.047,1560.026,1059.047,820.026,1067.047,738.026z"/>
	<path fill="#E9BD40" d="M1131.01,1633.293c-1.058,0-1.599-0.037-1.8-0.055c-14.198-3.189-25.833-9.062-49.64-25.325
		c-2.566-38.114-5.002-213.835-5.772-421.428c-0.809-217.945,0.524-384.125,3.419-436.474
		c17.331,14.515,40.771,17.776,60.828,40.537c22.195,25.188,37.301,54.562,42.426,72.5c7.406,25.923,9.32,82.22,10.718,123.327
		c0.827,24.32,1.48,43.529,2.987,53.324c4.186,27.206,11.872,89.758,11.872,110.328c0,24.067,14.37,106.848,20.464,127.161
		c3.764,12.546,8.242,49.537,11.511,76.546c1.673,13.824,3.119,25.763,4.175,32.102c7.33,43.978,9.092,78.442,5.892,115.238
		c-0.389,4.472,1.34,10.056,6.398,25.543c6.456,19.771,19.891,60.91,14.294,75.461l-0.136,0.353l-0.111,0.361
		c-3.72,12.091-26.512,14.723-44.825,16.838c-8.636,0.998-16.793,1.94-23.555,3.784
		C1181.474,1628.508,1143.392,1633.293,1131.01,1633.293z"/>
	<path fill="#F6D973" d="M1248.089,1501.073c3.2-36.796,1.438-71.26-5.892-115.238c-1.056-6.339-2.501-18.277-4.175-32.102
		c-3.269-27.009-7.747-64-11.511-76.546c-6.094-20.313-20.464-103.093-20.464-127.161c0-20.57-7.687-83.122-11.872-110.328
		c-1.507-9.794-2.16-29.003-2.987-53.324c-1.397-41.106-3.312-97.404-10.718-123.327c-5.125-17.938-20.231-47.312-42.426-72.5
		c-12.453-14.132-34.497-31.022-47.497-36.022c7.8,4.328,11.187,109.343,13.601,123.147c4.855,27.757,20.173,55.403,26.999,82.496
		c7.226,28.686,5.205,45.164,3.9,73.857c-1.694,37.276,2.225,74.668-0.786,111.884c-3.035,37.52-13.6,76.793-0.357,113.565
		c7.016,19.482,7.082,39.114,12.242,59.176c6.361,24.731,2.597,46.276,1.5,71.996c-1.426,33.414-0.408,49.165,1.5,82.496
		c2.241,39.2-17.787,109.27,29.999,118.494c10.881,2.1,86.996,19.499,90.042-9.916c1.89-18.25-10.292-41.609-14.7-55.106
		C1249.429,1511.128,1247.7,1505.545,1248.089,1501.073z"/>
	<path fill="#BA7C29" d="M631.047,616.026c-48,20-110.464,42.841-135.333,50c-13.454,3.873-68,14.667-90,20.667
		c8,38,27.968,345.473,26.468,406.97c35.999,103.495,38.865,173.365,38.865,212.363c0,27.203-6,118-8,152s-6,108-8,126
		s-54,284-58,324s-10,118-10,136s-4,48-10,70s-12,46-8,56s-16,52-16,60s-10,48-16,74s-76,304-76,354s6.143,76.052,12.143,126.052
		s13,49.996,9,77.996s-11.5,36.997-7.5,56.997s14.5,39.997,10.5,53.997s-9,46.497-9,64.497s-4.5,59.995,1.5,89.995
		s44.997,71.497,62.997,73.497s41.496,5,79.496,3s82.865-8.031,102.865-6.031s62.748-1.062,70.748-9.062
		s24.002-32.371,24.002-54.005c0-34.498-41.122-83.395-49.122-103.395s-23.999-58.994-23.999-104.994s-5-98.494,3-124.494
		s9.5-63.495,13.5-97.495s24.999-101.992,29.999-149.992c2.931-28.132,35.873-69.563,49.873-101.563s36-113,44-133s34-106,34-106
		s8-26,22-49c4,41,3,96,3,116s-16,48-22,86s-25,107-27,171s0,156-4,194s24,96,30,136s8,70,0,102s-14,50-12,70
		s9.764,65.931,43.764,67.931s397.835-1.395,397.835-1.395c38.998-1.5,51.21-26.61,55.21-46.61s-3.004-52.007-39.004-72.007
		c-35.659-19.811-73.009-34.005-87.009-48.005s-48.796-37.914-54.796-53.914s4-56,0-72s0-40-8-78s-6-64-6-96s-2-54,6-96
		s18-92,24-144s-4-88,10-144s38-218,40-244s8-164,16-210s12-74,2-146s4-312,0-346s8-212,10-244s-25.898-87.355-29.898-143.355
		s13.5-158.491,7.5-178.491c-46.498-20.999-80.996-58.497-92.996-64.497s-40.498-34.498-64.497-62.997
		C899.157,688.686,723.047,718.026,631.047,616.026z"/>
	<path fill="#E9BD40" d="M395.925,3193.717c-22.018,0-38.094-1.806-51.012-3.256l-3.012-0.337
		c-4.111-0.457-15.822-7.775-28.984-22.615c-12.758-14.385-22.124-30.519-24.441-42.106c-4.217-21.082-2.889-49.141-1.92-69.627
		c0.34-7.188,0.634-13.396,0.634-18.211c0-16.647,4.796-48.244,8.576-61.476c3.542-12.396-0.641-25.871-5.068-40.136
		c-1.954-6.296-3.975-12.806-5.221-19.04c-2.045-10.224-0.409-16.733,2.302-27.517c1.67-6.646,3.75-14.918,5.3-25.768
		c2.641-18.483,0.862-26.673-2.085-40.241c-1.893-8.713-4.485-20.647-6.881-40.621c-1.619-13.49-3.214-25.004-4.756-36.139
		c-4.083-29.473-7.308-52.752-7.308-88.603c0-41.414,52.26-255.302,69.433-325.587c3.134-12.827,5.398-22.095,6.286-25.939
		c1.32-5.719,2.833-12.116,4.392-18.701c7.283-30.783,11.75-50.152,11.887-57.437c0.384-2.497,3.413-10.819,5.635-16.926
		c8.471-23.278,13.343-38.091,9.582-47.495c-1.961-4.902,0.865-21.396,8.399-49.021c5.922-21.714,10.388-53.052,10.388-72.895
		c0-17.117,5.837-93.823,9.945-134.905c2.412-24.123,23.5-136.728,38.896-218.949c11.671-62.327,18.313-97.931,19.091-104.931
		c1.646-14.819,4.565-65.855,6.697-103.121c0.506-8.845,0.966-16.891,1.352-23.448c0.386-6.564,0.922-15.247,1.534-25.181
		c2.582-41.885,6.485-105.181,6.485-127.465c0-43.727-4.04-113.384-38.829-214.109c0.972-61.755-16.358-331.717-25.07-397.036
		c11.672-2.82,27.292-6.217,41.468-9.301c17.43-3.792,32.483-7.066,39.141-8.983c25.405-7.313,84.232-28.934,129.471-47.502
		c40.294,41.302,286.667,7.216,309.819,5.931c20.839,23.634,47.735,48.02,60.687,54.495c2.708,1.354,9.516,7.065,16.1,12.589
		c16.769,14.067,54.214,42.276,84.815,57.069c3.048,17.706-7.218,59.138-5.351,99.06c1.232,26.343,2.396,51.224,3.777,70.571
		c1.453,20.334,3.385,39.454,5.253,57.944c3.2,31.664,5.964,59.011,4.74,78.586c-0.17,2.724-0.413,6.507-0.712,11.171
		c-5.585,87.019-12.618,206.034-9.234,234.8c1.471,12.502,0.269,57.848-1.122,110.353c-2.257,85.147-5.065,191.115,1.151,235.875
		c9.698,69.825,6.003,96.917-1.942,142.602c-6.184,35.558-11.098,123.391-14.034,175.87c-0.907,16.217-1.624,29.027-2.097,35.171
		c-1.854,24.106-25.5,185.358-39.704,242.176c-8.735,34.942-8.487,62.776-8.248,89.694c0.156,17.488,0.316,35.571-2.007,55.713
		c-5.375,46.58-13.948,91.338-21.513,130.827c-0.803,4.196-1.594,8.323-2.366,12.375c-6.836,35.89-6.592,57.477-6.31,82.473
		c0.057,4.999,0.115,10.168,0.115,15.586c0,5.359-0.058,10.621-0.113,15.709c-0.281,25.616-0.545,49.813,6.349,82.557
		c4.46,21.186,5.03,37.952,5.487,51.423c0.35,10.283,0.651,19.164,2.605,26.979c1.393,5.569,0.261,18.053-0.738,29.066
		c-1.545,17.048-3.006,33.151,1.11,44.128c5.129,13.678,22.933,28.509,40.15,42.851c6.739,5.613,13.104,10.915,17.168,14.979
		c10.193,10.193,29.337,19.568,51.503,30.423c12.387,6.065,25.196,12.339,37.942,19.419c30.295,16.831,37.013,42.967,33.559,60.234
		c-4.879,24.396-19.5,36.752-44.691,37.77c-7.059,0.065-219.506,2.023-331.288,2.023c-36.649,0-58.731-0.206-65.634-0.612
		c-3.839-0.226-15.521-0.912-24.506-20.77c-4.393-9.706-7.49-22.595-8.958-37.274c-1.487-14.868,2.107-28.798,8.062-51.875
		c1.154-4.474,2.384-9.24,3.665-14.362c8.443-33.772,6.469-64.55,0.207-106.3c-2.458-16.383-8.151-34.766-14.178-54.228
		c-8.834-28.522-17.968-58.016-15.761-78.989c2.467-23.439,2.699-65.802,2.943-110.65c0.158-28.938,0.321-58.859,1.112-84.157
		c1.388-44.418,11.139-91.284,18.974-128.941c3.278-15.758,6.109-29.365,7.897-40.687c2.858-18.101,8.151-33.979,12.82-47.987
		c4.998-14.994,9.314-27.943,9.314-39.729c0-2.789,0.02-6.262,0.042-10.285c0.14-24.803-1.884-81.568-5.378-117.381
		c0,0,20.75-61.625,32.667-90.667s70.669-138.667,70.669-138.667l-23.385-5.405l-86.615,108.405l-11.396,132.28
		c-14.546,23.898-22.774,50.37-23.117,51.484c-0.274,0.907-25.968,85.82-33.7,105.15c-3.375,8.436-8.874,26.394-15.242,47.186
		c-9.126,29.801-20.485,66.889-28.623,85.49c-4.995,11.416-12.584,24.187-20.62,37.707c-13.785,23.193-28.039,47.177-30.116,67.126
		c-2.71,26.013-10.456,58.955-17.29,88.019c-5.577,23.721-10.846,46.125-12.693,61.828c-1.101,9.36-2.022,19.056-2.913,28.433
		c-2.301,24.214-4.68,49.252-10.175,67.112c-6.276,20.397-5.303,53.366-4.272,88.271c0.387,13.092,0.786,26.63,0.786,39.458
		c0,47.177,15.798,86.632,24.285,107.828l0.5,1.251c2.909,7.271,9.024,16.917,16.106,28.085
		c13.602,21.452,32.229,50.831,32.229,71.225c0,16.812-13.117,38.431-20.606,46.051c-4.035,2.722-24.892,6.609-49.03,6.609
		c-4.99,0-9.492-0.187-13.019-0.539c-3.065-0.307-6.595-0.456-10.793-0.456c-13.42,0-31.613,1.565-50.874,3.222
		c-14.279,1.229-29.044,2.499-42.871,3.227C411.48,3193.5,403.514,3193.717,395.925,3193.717z"/>
	<path fill="#F3C91F" d="M427.047,790.026c-0.016,0-0.036,0-0.052,0c0.097,1.253,0.194,2.514,0.291,3.78
		C427.379,792.546,427.362,791.286,427.047,790.026z"/>
	<path fill="#F6D973" d="M1161.511,2997.56c-12.746-7.08-25.555-13.354-37.942-19.419c-22.166-10.854-41.31-20.229-51.503-30.423
		c-4.064-4.064-10.429-9.366-17.168-14.979c-17.217-14.342-35.021-29.173-40.15-42.851c-4.116-10.977-2.656-27.08-1.11-44.128
		c0.999-11.014,2.131-23.497,0.738-29.066c-1.954-7.815-2.255-16.696-2.605-26.979c-0.458-13.471-1.027-30.237-5.487-51.423
		c-6.894-32.744-6.629-56.94-6.349-82.557c0.055-5.088,0.113-10.35,0.113-15.709c0-5.418-0.059-10.587-0.115-15.586
		c-0.282-24.996-0.526-46.583,6.31-82.473c0.772-4.052,1.563-8.179,2.366-12.375c7.564-39.489,16.138-84.247,21.513-130.827
		c2.324-20.142,2.163-38.225,2.007-55.713c-0.239-26.918-0.487-54.752,8.248-89.694c14.205-56.817,37.85-218.069,39.704-242.176
		c0.473-6.144,1.189-18.954,2.097-35.171c2.936-52.479,7.85-140.313,14.034-175.87c7.945-45.686,11.64-72.777,1.942-142.602
		c-6.216-44.76-3.408-150.728-1.151-235.875c1.391-52.505,2.593-97.851,1.122-110.353c-3.384-28.767,3.649-147.781,9.234-234.8
		c0.299-4.664,0.542-8.447,0.712-11.171c1.224-19.575,6.779-48.008,3.579-79.672c-1.869-18.49-0.047-36.663-1.5-56.997
		c-1.382-19.347-1.768-36.654-3-62.997c-1.867-39.921-4.451-88.789-7.499-106.495c-30.601-14.793-68.047-43.002-84.815-57.069
		c-6.584-5.524-13.392-11.235-16.1-12.589c-12.951-6.476-39.847-30.861-60.687-54.495c-18.947,1.051-187.385,24.069-270.034,9.76
		c-0.306,0.417-0.625,0.832-0.966,1.24c-1.999,2.998,279.942,33.24,267.609,48.656c-12,15-169.491,0-309.609,11.344
		c-7.678,0.622-45.463-2.203-53.372,0.656c-8.697,3.144-32.128,9.299-40.628,10.344c-40.667,5-50.667,17.667-54,67
		c-2.701,39.977-5.418,80.277-4,98c3,37.498,16.021,58.173,20,90c6,48,6.976,47.435,16,84c2.417,9.794,29.612,58.321,64,88
		c30.024,25.913,77.406,52.159,74,76c-4,28-93.958,3.885-92,20c1.852,15.245,40.394,92.247,40,104
		c-1.358,40.541-43.649,28.239-49.999,79.989c-5.063,41.262-0.634,79.544,8.341,119.828c5.959,26.747,6.976,49.523,2.859,76.343
		c-1.674,10.903-5.598,27.065,0.32,37.377c8.416,14.667-7.664,57.469-5.522,72.463c4,28,15.82,70.044,20,80
		c7.713,18.37,87.381,94.259,76,112c-12.03,18.753-42,10-72,2c-24.134-6.436,27.915,76.219,20,92c-4.667,9.307-74.031-53.308-74-40
		c0.045,19.152,23.81,60.855,24,80c0.918,92.586-48.79,104.204-75.704,190.575c-13.758,44.15-45.225,160.51-50.296,207.425
		c-8,74,43.473,126.687,34,148c-8,18-97.278,32.192-88,114c4.98,43.916-6.695,125.685,6,168c6.168,20.563,69.604,55.932,68,74
		c-1.986,22.378-70.646,10.969-82,28c-28,42-1.584,75.047,22,102c14,16,115.141,18.477,154,12c36-6,70,18,63.479,1.213
		c-5.277-13.584-14.888-26.353-21.958-37.504c-7.082-11.168-13.197-20.813-16.106-28.085l-0.5-1.251
		c-8.487-21.196-24.285-60.651-24.285-107.828c0-12.828-0.399-26.366-0.786-39.458c-1.03-34.905-2.003-67.874,4.272-88.271
		c5.496-17.86,7.875-42.898,10.175-67.112c0.891-9.377,1.812-19.072,2.913-28.433c1.847-15.703,7.116-38.107,12.693-61.828
		c6.834-29.063,14.58-62.006,17.29-88.019c2.078-19.949,16.332-43.933,30.116-67.126c8.035-13.521,15.625-26.291,20.62-37.707
		c8.138-18.602,19.496-55.689,28.623-85.49c6.368-20.792,11.867-38.75,15.242-47.186c7.732-19.33,33.425-104.243,33.7-105.15
		c0.343-1.114,8.571-27.586,23.117-51.484c0,0,19.846-50.915,32.396-83.28s78-157,83-157c1.655,0-15.544,42.354-19.1,51.957
		c-1.105,2.983,17.47,9.901,9.1,25.71c-6,11.333-14.667,8.667-16.667,17.333c-2.667,10.667,56,51.833,51.667,60
		c-2.576,4.856-57.22-6.15-34.333,11.334c21.248,16.231,40,38.666,36,48s-75.667-45.335-71.667-27.335
		c3.594,16.176,0.746,35.276,2.682,51.897c6.456,55.456,35.09,70.944,29.09,142.952c-6.244,74.93-49.347,117.079-6,189.019
		c14.519,24.096,66.006,138.013,63.006,162.016c-5.015,40.115-43.623,41.892-60.006,72.008
		c-23.013,42.317,17.213,64.487,18.002,111.011c0.726,42.821-47.27,143.238-5.659,165.14
		c56.997,29.999,154.625,51.252,244.488,53.997c36.829,1.125,97.495,0,101.14-30.706
		C1183.432,3013.995,1174.711,3004.894,1161.511,2997.56z"/>
	<path fill="#BA7C29" d="M607.047,634.026c9-59,24.173-170.482,21-195c56.992,2.219,260.016,20.858,297,25
		c-5.362,63.924,17.633,145.473,25,180C848.047,654.026,664.047,650.026,607.047,634.026z"/>
	<path fill="#E9BD40" d="M781.907,685.221c-66.972,0-128.489-20.509-161.952-53.748c3.092-22.447,7.092-52.447,11.092-80.447
		c5.366-37.562,9.759-79.621,8.854-100.526c79.24,3.138,219.895,19.455,273.361,23.52c-3.922,58.167,18.446,127.818,24.711,165.309
		C897.003,668.968,841.889,685.221,781.907,685.221z"/>
	<path fill="#F6D973" d="M937.974,639.329c-6.265-37.491-28.633-107.142-24.711-165.309c-21.208-1.613-42.084-10.146-89.228-12.375
		c0.005,0.127,0.007,0.254,0.012,0.381c1,25-1,53-12,78c-9,21-16,48-36,57c-32,16-77-9-115-19c-17,24-5,56,8.123,67.159
		c25,25,69.268,21.841,113.877,21.841C843.029,667.026,902.047,673.026,937.974,639.329z"/>
	<path fill="#BA7C29" d="M432.182,682.683c-62.467,0.677-136.467,50.01-152.467,76.01s-42.667,77.333-54.667,89.333s-44,76-58,90
		s-64,58-72,88c-2.775,10.407-72,118-86,140c44,12,286,42,336,48c32-42,72-142,94-166s21.333-83.333,27.333-101.333
		C476.381,866.692,454.381,770.692,432.182,682.683z"/>
	<path fill="#E9BD40" d="M339.963,1202.333c-72.179-8.731-251.533-31.48-313.205-43.606
		c63.242-99.021,77.139-123.195,78.917-129.867c6.054-22.703,43.122-58.104,60.936-75.117c3.28-3.133,6.113-5.838,8.214-7.939
		c8.273-8.273,20.171-28.64,32.768-50.202c9.593-16.421,20.467-35.033,25.232-39.798c8.494-8.494,20.653-29.401,38.233-60.328
		c6.632-11.666,12.896-22.685,18.024-31.019c5.992-9.736,25.686-27.546,54.767-43.642c27.744-15.355,69.072-27.754,93.198-29.79
		c21.537,86.09,42.059,170.371,33,245c-3.866,12.792-4.858,28.164-6,37c-3.015,23.331-20.195,53.479-33.109,67.567
		c-11.782,12.854-26.637,42.345-43.836,76.494C371.927,1147.215,354.881,1181.057,339.963,1202.333z"/>
	<path fill="#F6D973" d="M307.69,1086.164c16-18-3-23.998,3-44.998c7.493-19.483,27.965-19.998,29.994-20.997
		c12.492-6.147,11.862-13.956,18.439-25.238c9.86-16.914,26.996-19.291,42.449-28.538c22.051-13.196,11.867-27.518,15.192-48.789
		c2.616-16.737,17.342-25.844,23.718-40.511c2.978-6.849,7.265-32.417,13.565-67.068c4.62-25.409,12.8-66.848,13-92
		c0.117-14.741-28.634-24.156-42-23c-18.311,1.583-53.454,10.435-81.198,25.79c-29.082,16.096-48.775,33.906-54.767,43.642
		c-5.128,8.333-11.392,19.353-18.024,31.019c-17.58,30.927-29.739,51.834-38.233,60.328c-4.765,4.765-15.639,23.377-25.232,39.798
		c-12.597,21.562-24.495,41.929-32.768,50.202c-2.101,2.101-4.934,4.806-8.214,7.939c-17.814,17.013-54.882,52.414-60.936,75.117
		c-1.779,6.672-15.676,30.846-78.917,129.867c40.232,7.911,130.545,20.342,208.516,30.453c2.259-23.809,0.005-48.657,15.773-69.154
		C265.047,1103.026,292.69,1103.164,307.69,1086.164z"/>
	<path fill="#BA7C29" d="M833.822,1867.831c-0.217,0-0.433-0.004-0.651-0.015c-3.722-0.168-7.169-1.781-9.691-4.542
		c-2.522-2.761-3.818-6.339-3.649-10.075c6.754-149.504-1.776-392.338-7.42-553.027c-2.568-73.083-4.595-130.782-4.595-160.412
		c0-23.422-2.311-63.993-5.235-115.356c-3.268-57.375-7.33-128.706-9.411-200.32c-0.202-6.926-0.487-15.823-0.804-25.664
		c-0.98-30.477-2.201-68.407-2.201-87.238V547.689c0-7.72,6.28-14,14-14s14,6.28,14,14v163.492c0,18.361,1.212,56.027,2.186,86.292
		c0.319,9.918,0.606,18.846,0.808,25.795c2.07,71.252,6.121,142.359,9.375,199.495c2.952,51.831,5.283,92.769,5.283,116.995
		c0,29.127,2.02,86.614,4.576,159.395c5.662,161.139,14.217,404.654,7.41,555.309
		C847.463,1861.959,841.322,1867.831,833.822,1867.831z"/>
	<path fill="#FFFFFF" d="M833.822,1861.831c-0.122,0-0.244-0.002-0.367-0.008c-4.414-0.199-7.831-3.939-7.631-8.353
		c6.766-149.756-1.771-392.75-7.419-553.543c-2.565-73-4.59-130.661-4.59-160.167c0-23.6-2.316-64.263-5.248-115.744
		c-3.262-57.282-7.322-128.571-9.401-200.107c-0.202-6.931-0.488-15.835-0.805-25.682c-0.979-30.439-2.198-68.321-2.198-87.045
		V547.689c0-4.418,3.582-8,8-8c4.418,0,8,3.582,8,8v163.492c0,18.467,1.214,56.206,2.19,86.53
		c0.317,9.866,0.604,18.788,0.806,25.732c2.072,71.313,6.125,142.479,9.382,199.662c2.946,51.735,5.273,92.599,5.273,116.654
		c0,29.225,2.021,86.762,4.58,159.605c5.658,161.049,14.208,404.429,7.413,554.827
		C841.614,1858.483,838.074,1861.831,833.822,1861.831z"/>
</g>
<g id="Head_x5F_03">
	<g>
		<g>
			<path fill="#944D09" d="M567.646,361.042c7.46,38.802,26.989,67.664,43.611,64.469c16.63-3.2,24.065-37.245,16.605-76.041
				c-7.464-38.802-26.988-67.663-43.61-64.469C567.622,288.201,560.187,322.246,567.646,361.042z"/>
			<linearGradient id="SVGID_9_" gradientUnits="userSpaceOnUse" x1="646.2373" y1="359.4785" x2="521.9341" y2="354.2115">
				<stop  offset="6.030000e-006" style="stop-color:#E0905E"/>
				<stop  offset="1" style="stop-color:#FFB979"/>
			</linearGradient>
			<path fill="url(#SVGID_9_)" d="M612.658,417.237c-9.226-0.004-26.469-21.193-33.609-55.708
				c-3.485-16.832-3.778-33.735-0.81-46.361c2.768-11.78,7.46-16.623,10.638-17.185c0.289-0.055,0.583-0.08,0.876-0.08
				c9.217,0,26.468,21.193,33.609,55.712c3.536,17.083,3.821,33.546,0.814,46.361c-2.772,11.774-7.469,16.618-10.646,17.188
				C613.245,417.215,612.952,417.237,612.658,417.237L612.658,417.237z"/>
			<path fill="#B46639" d="M588.772,362.846c4.723,18.668,15.449,32.062,23.969,29.906c8.505-2.151,11.591-19.033,6.865-37.707
				c-4.718-18.677-15.444-32.07-23.965-29.916C587.133,327.277,584.051,344.164,588.772,362.846z"/>
		</g>
		<g>
			<path fill="#944D09" d="M991.814,361.751c-7.465,38.797-26.989,67.659-43.616,64.464c-16.63-3.196-24.061-37.241-16.606-76.042
				c7.465-38.797,26.989-67.663,43.61-64.468C991.833,288.904,999.27,322.951,991.814,361.751z"/>
			<path fill="#FFB979" d="M946.798,417.945c9.225-0.004,26.468-21.192,33.614-55.712c3.48-16.832,3.778-33.732,0.814-46.362
				c-2.772-11.775-7.465-16.618-10.643-17.184c-0.294-0.05-0.586-0.076-0.877-0.076c-9.221,0-26.464,21.193-33.608,55.708
				c-3.535,17.088-3.825,33.55-0.813,46.361c2.767,11.779,7.464,16.619,10.642,17.188
				C946.211,417.92,946.504,417.945,946.798,417.945L946.798,417.945z"/>
			<path fill="#B46639" d="M942.328,353.386c-3.586,18.676,0.502,35.156,9.137,36.808c8.609,1.652,18.513-12.147,22.09-30.829
				c3.59-18.677-0.507-35.165-9.137-36.817C955.801,320.896,945.905,334.7,942.328,353.386z"/>
		</g>
		<g>
			<g>
				<path fill="#944D09" d="M971.794,251.849c0-108.813-84.885-197.019-189.605-197.019c-104.72,0-189.609,88.207-189.609,197.019
					c0,6.013,16.72,54.597,15.801,107.759c-0.528,30.544-1.405,73.207,2.105,94.274c11.847,30.733,99.818,152.98,110.607,160.114
					c31.077,20.543,98.069,26.544,136.413,0c21.763-28.791,86.198-130.089,92.521-152.561
					c10.534-63.164,4.822-149.497,6.323-172.051C956.233,289.383,971.794,262.717,971.794,251.849z"/>
				<linearGradient id="SVGID_10_" gradientUnits="userSpaceOnUse" x1="719.9028" y1="136.0776" x2="926.3653" y2="715.4371">
					<stop  offset="0" style="stop-color:#CF7B46"/>
					<stop  offset="1" style="stop-color:#E0905E"/>
				</linearGradient>
				<path fill="url(#SVGID_10_)" d="M793.805,622.03c-25.516-0.003-50.978-6.504-66.61-16.987
					c-11.197-10.081-92.236-122.838-104.255-152.301c-4.226-18.525-7.12-50.831-9.993-85.409
					c-4.391-52.819-7.729-109.127-7.729-115.483c0-101.667,79.389-184.38,176.971-184.38c97.583,0,176.966,82.713,176.966,184.38
					c0,7.523-1.236,21.293-1.761,27.176c-0.13,1.43-0.248,2.755-0.282,4.013l-0.033-0.113
					c-1.308,19.57-8.857,112.301-19.461,176.086c-4.727,20.258-63.172,122.16-87.179,148.674
					c-14.019,9.258-34.054,14.345-56.631,14.345H793.805z"/>
				<linearGradient id="SVGID_11_" gradientUnits="userSpaceOnUse" x1="576.9219" y1="366.6816" x2="778.7135" y2="373.1316">
					<stop  offset="6.030000e-006" style="stop-color:#E0905E"/>
					<stop  offset="0.475" style="stop-color:#F0A56C"/>
					<stop  offset="1" style="stop-color:#FFB979"/>
				</linearGradient>
				<path fill="url(#SVGID_11_)" d="M791.67,159.989c-47.577,15.281-110.988-25.05-142.208,3.69
					c-14.513,13.729-25.282,65.308-8.424,116.927c-13.695,34.759,7.372,73.735,7.372,112.708c0,31.76-3.821,73.97,12.638,94.803
					c39.678,50.21,58.641,84.269,71.279,103.231c14.751,21.067,93.402,27.391,118.688,3.514
					c27.214-36.943,82.418-117.912,86.604-135.851c20.835-61.483,12.333-140.925,13.636-160.499c0,0,6.009-18.057,6.139-19.487
					c0.524-5.883,1.761-19.653,1.761-27.176C959.155,150.182,935.98,113.645,791.67,159.989z"/>
			</g>
			<linearGradient id="SVGID_12_" gradientUnits="userSpaceOnUse" x1="785.6553" y1="545.4922" x2="736.9131" y2="544.0999">
				<stop  offset="0" style="stop-color:#CF7B46"/>
				<stop  offset="1" style="stop-color:#E0905E"/>
			</linearGradient>
			<path fill="url(#SVGID_12_)" d="M748.479,538.68c21.067,9.481,63.73,11.59,87.784-0.701
				C820.109,555.536,774.818,563.961,748.479,538.68z"/>
		</g>
		<linearGradient id="SVGID_13_" gradientUnits="userSpaceOnUse" x1="796.3926" y1="274.1187" x2="794.5153" y2="363.2989">
			<stop  offset="6.030000e-006" style="stop-color:#E0905E"/>
			<stop  offset="0.371" style="stop-color:#E99C66"/>
			<stop  offset="1" style="stop-color:#FFB979"/>
		</linearGradient>
		<path fill="url(#SVGID_13_)" d="M789.561,441.772c-7.636-2.084-31.076-10.534-31.076-16.329s8.957-42.663,9.485-50.563
			c0.524-7.901-2.398-32.31-2.633-37.044c-0.704-14.04-1.316-18.259,2.365-26.159c16.858-5.007,41.086,0,45.561,2.105
			c-0.524,10.009-0.877,51.268-0.877,61.272c0,6.147,7.373,33.706,12.991,42.486c7.725,12.815-3.686,15.801-12.114,17.907
			C801.676,439.138,795.352,443.349,789.561,441.772z"/>
		<g>
			<linearGradient id="SVGID_14_" gradientUnits="userSpaceOnUse" x1="807.085" y1="549.0103" x2="790.375" y2="330.7346">
				<stop  offset="0" style="stop-color:#CF7B46"/>
				<stop  offset="1" style="stop-color:#E0905E"/>
			</linearGradient>
			<path fill="url(#SVGID_14_)" d="M918.778,293.597c-30.548-27.391-71.806-27.214-98.141-19.842
				c-6.848,4.218-11.062,7.899-15.976,10.01c-9.31,3.337-27.744,3.157-30.901-9.481c-8.953-4.211-46.525-12.463-57.935-12.111
				c-20.015,2.634-31.077,6.315-39.501,10.534c-5.795,7.372-6.848,7.372-13.867,17.376c-6.324,10.006-5.619,27.392-1.057,49.158
				c8.957-1.053,55.477-33.006,91.292-16.147c0.239,4.042-49.159,32.301-49.159,32.301s36.164,5.267,52.668-1.405
				c0.167,14.924,2.433,34.628,1.405,45.648c-5.087,8.253-30.548,30.196-21.768,38.62c1.845,1.846,6.673,2.458,8.781,2.81
				c5.611-1.404,12.287-2.457,20.362-1.053c11.439,1.993,12.027,10.706,24.93,10.182c13.167-0.537,11.938-2.458,16.149-4.214
				c5.774-2.402,7.376-3.162,16.857-4.209c1.585,0.293,7.372,5.266,12.991-0.705c0.528-5.355-8.429-11.234-14.748-10.181
				c-11.947,1.991-24.93,5.971-30.548,6.144c-4.914,0.154-24.229-5.792-25.982-10.01c-1.405-7.372,8.776-42.835,9.128-50.035
				c0.302-6.193-0.356-46.872,0-51.611c0.792-14.752,37.661-13.167,38.184-1.581c0.448,9.842,0.793,28.175,0.793,28.175
				c38.973,13.167,77.283,4.696,100.598-14.484c-1.405-4.034-4.567-12.288-6.147-17.553
				C912.102,316.77,916.673,304.835,918.778,293.597z"/>
			<path fill="#944D09" d="M748.479,438.257c5.393-3.37,16.824-1.706,21.73,0.495c5.044,2.265,10.807,7.247,20.505,7.422
				c4.604,0.084,15.541-5.2,20.212-7.053c4.998-1.979,17.26-3.321,20.068,1.593c-7.07-3.178-15.481,0.646-19.78,2.634
				c-5.438,2.52-13.75,7.422-20.82,7.775c-9.568,0.477-17.342-5.36-22.66-8.127C762.85,440.455,755.901,437.134,748.479,438.257z"/>
			<path fill="#944D09" d="M750.413,441.772c-25.282,3.681-18.435-15.277,4.038-25.286
				C740.403,428.076,734.348,441.772,750.413,441.772z"/>
			<path fill="#944D09" d="M830.115,444.229c14.749-7.372,0.529-24.758-4.214-28.968
				C836.434,423.162,853.807,438.434,830.115,444.229z"/>
		</g>
		<g>
			<g>
				<linearGradient id="SVGID_15_" gradientUnits="userSpaceOnUse" x1="706.8008" y1="328.3462" x2="707.0641" y2="358.3668">
					<stop  offset="0" style="stop-color:#CED5D8"/>
					<stop  offset="1" style="stop-color:#FFFFFF"/>
				</linearGradient>
				<path fill="url(#SVGID_15_)" d="M667.406,316.165c25.433-10.165,69.638-4.487,82.101,3.007
					c5.246,13.854,4.34,23.897,4.424,29.869c-10.399,5.938-69.743,16.673-91.037-6.109c-2.105-3.342-3.036-7.242-3.036-7.242
					S665.783,322.338,667.406,316.165z"/>
				<linearGradient id="SVGID_16_" gradientUnits="userSpaceOnUse" x1="709.957" y1="312.8896" x2="709.4304" y2="337.9066">
					<stop  offset="0" style="stop-color:#CED5D8"/>
					<stop  offset="1" style="stop-color:#FFFFFF"/>
				</linearGradient>
				<path fill="url(#SVGID_16_)" d="M685.278,321.684c-11.377,3.791-22.669,17.822-9.469,29.807
					c22.753,9.418,58.144,4.419,72.875-0.328C746.709,320.476,712.434,313.927,685.278,321.684z"/>
			</g>
			<g>
				<path fill="#321908" d="M683.13,333.693c0,12.908,10.458,23.37,23.37,23.37c12.907,0,23.369-10.462,23.369-23.37
					c0-12.907-10.462-23.373-23.369-23.373C693.589,310.32,683.13,320.786,683.13,333.693z"/>
				<linearGradient id="SVGID_17_" gradientUnits="userSpaceOnUse" x1="706.5" y1="311.6777" x2="706.5" y2="347.4936">
					<stop  offset="0" style="stop-color:#42210B"/>
					<stop  offset="0.9984" style="stop-color:#94561D"/>
				</linearGradient>
				<path fill="url(#SVGID_17_)" d="M684.883,333.693c0,11.939,9.679,21.612,21.617,21.612s21.616-9.673,21.616-21.612
					c0-11.942-9.678-21.616-21.616-21.616S684.883,321.751,684.883,333.693z"/>
				<linearGradient id="SVGID_18_" gradientUnits="userSpaceOnUse" x1="707.5664" y1="314.1064" x2="707.5664" y2="349.0159">
					<stop  offset="0" style="stop-color:#42210B"/>
					<stop  offset="0.9815" style="stop-color:#C46C1B"/>
				</linearGradient>
				<path fill="url(#SVGID_18_)" d="M710.496,329.341c-16.613-9.41-26.619,5.862-22.589,15.205
					c3.753,6.407,10.629,10.76,18.593,10.76c11.938,0,21.616-9.673,21.616-21.612c0-0.49-0.108-0.947-0.142-1.425
					C726.884,339.769,712.315,348.898,710.496,329.341z"/>
				<path fill="#211106" d="M696.097,333.693c0,5.741,4.658,10.4,10.403,10.4c5.74,0,10.4-4.659,10.4-10.4
					c0-5.744-4.66-10.399-10.4-10.399C700.755,323.294,696.097,327.949,696.097,333.693z"/>
				<path fill="#FFFFFF" d="M678.887,326.758c0,4.101,3.329,7.434,7.438,7.434c4.101,0,7.431-3.333,7.431-7.434
					c0-4.11-3.33-7.44-7.431-7.44C682.216,319.318,678.887,322.648,678.887,326.758z"/>
			</g>
			<path d="M754.535,322.028c0.499-1.477,0.977-2.977,1.451-4.294c-2.382-0.843-6.685-2.064-12.153-3.288
				c-23.906-9.452-61.692-8.638-73.303-4.084c-2.256,3.212-10.798,16.589-11.85,25.806c0.868,5.326,5.266,8.165,11.585,12.907
				c-3.958-6.273-6.21-10.399-6.583-12.378c1.4-5.599,6.168-14.409,13.432-18.699c12.475-2.863,31.164-2.042,47.203,0.952
				c7.331,1.552,14.157,3.426,19.822,5.494c1.698,0.687,3.3,1.4,4.676,2.147c2.038,5.527,5.116,18.157,4.789,23.772
				C757.185,341.693,756.379,329.869,754.535,322.028z"/>
		</g>
		<g>
			<g>
				<linearGradient id="SVGID_19_" gradientUnits="userSpaceOnUse" x1="868.0566" y1="320.249" x2="867.5309" y2="363.8853">
					<stop  offset="0" style="stop-color:#CED5D8"/>
					<stop  offset="1" style="stop-color:#FFFFFF"/>
				</linearGradient>
				<path fill="url(#SVGID_19_)" d="M906.978,316.693c-25.428-10.165-69.634-4.491-82.096,3.003
					c-5.25,13.858-4.068,23.76-1.611,29.73c10.399,5.938,66.93,16.811,88.219-5.97c2.105-3.339,3.036-7.239,3.036-7.239
					S908.601,322.866,906.978,316.693z"/>
				<path fill="#FFFFFF" d="M893.14,326.25c-20.517-8.206-72.678-8.076-63.901,25.281c16.72,4.894,52.253,10.156,73.773-1.652
					C906.76,337.962,906.568,329.609,893.14,326.25z"/>
			</g>
			<g>
				<path fill="#321908" d="M840.875,333.693c0,12.908,10.458,23.37,23.369,23.37c12.903,0,23.361-10.462,23.361-23.37
					c0-12.907-10.458-23.373-23.361-23.373C851.333,310.32,840.875,320.786,840.875,333.693z"/>
				<linearGradient id="SVGID_20_" gradientUnits="userSpaceOnUse" x1="863.7192" y1="317.0801" x2="864.7727" y2="350.4399">
					<stop  offset="0" style="stop-color:#42210B"/>
					<stop  offset="0.9984" style="stop-color:#94561D"/>
				</linearGradient>
				<path fill="url(#SVGID_20_)" d="M842.627,333.693c0,11.939,9.678,21.612,21.617,21.612c11.939,0,21.616-9.673,21.616-21.612
					c0-11.942-9.677-21.616-21.616-21.616C852.306,312.077,842.627,321.751,842.627,333.693z"/>
				<linearGradient id="SVGID_21_" gradientUnits="userSpaceOnUse" x1="865.3076" y1="317.0913" x2="865.3076" y2="352.0008">
					<stop  offset="0" style="stop-color:#42210B"/>
					<stop  offset="0.9815" style="stop-color:#C46C1B"/>
				</linearGradient>
				<path fill="url(#SVGID_21_)" d="M868.236,329.341c-16.61-9.41-26.62,5.862-22.59,15.205c3.749,6.407,10.635,10.76,18.598,10.76
					c11.939,0,21.616-9.673,21.616-21.612c0-0.49-0.113-0.947-0.146-1.425C884.628,339.769,870.06,348.898,868.236,329.341z"/>
				<path fill="#211106" d="M853.841,333.693c0,5.741,4.659,10.4,10.403,10.4c5.744,0,10.395-4.659,10.395-10.4
					c0-5.744-4.651-10.399-10.395-10.399C858.5,323.294,853.841,327.949,853.841,333.693z"/>
				<circle fill="#FFFFFF" cx="845.391" cy="330.113" r="7.435"/>
			</g>
			<path d="M904.642,311.15c-12.139-2.487-51.983-5.019-78.729,5.787c-4.235,1.082-7.535,2.079-9.489,2.776
				c1.404,1.89,2.423,4.139,3.459,5.9c-1.023,8.173-0.566,18.95,3.741,24.863c-0.332-5.611-0.089-17.83,1.949-23.357
				c1.477-0.805,3.208-1.561,5.057-2.281c3.561-1.279,7.544-2.483,11.83-3.585c17.537-4.14,40.793-5.541,55.335-2.201
				c7.267,4.294,11.506,12.839,12.907,18.434c-0.374,1.983-2.357,5.317-6.324,11.59c5.267-3.161,8.923-7.305,10.886-11.767
				C915.088,334.327,909.763,318.422,904.642,311.15z"/>
		</g>
		<path d="M641.563,297.455c1.376-6.868,0.978-6.643,7.376-20.01c4.914-7.373,18.958-16.858,32.125-21.067
			c41.081,4.209,78.83,14.391,91.645,20.01c0.7,9.133,1.052,21.067,0.352,24.582c-11.938-4.919-45.824-17.376-92.521-19.315
			C668.949,283.764,650.515,286.397,641.563,297.455z"/>
		<path d="M935.284,303.073c-2.634-5.794-6.324-17.905-6.324-17.905c-4.915-7.376-22.128-15.801-34.059-21.42
			c-38.976,3.162-65.838,10.006-80.058,14.748c-4.214,9.481-4.738,17.91-2.458,24.93c11.935-4.915,36.164-12.287,80.059-19.662
			C901.099,285.336,922.485,295.878,935.284,303.073z"/>
		<path d="M973.904,146.823c-13.876-58.28-88.123-113.987-182.233-115.87c-105.341-2.104-155.975,41.404-185.395,95.859
			c-23.202,42.943-19.314,131.322-13.431,159.32c2.076,1.216,5.003,3.422,7.637,5.007l6.847,68.468l12.375,12.378l-6.315-77.688
			c0.789-9.217,6.408-16.152,6.584-44.244c-12.644-41.43,7.02-83.564,15.449-93.393c28.085-35.116,96.207,9.125,148.174,7.019
			c50.538-2.05,123.296-31.994,149.224-5.267c17.125,17.65,18.752,57.994,11.589,87.431c2.634,25.805,5.456,34.822,5.91,50.757
			c-1.406,17.368-3.804,60.375-5.91,74.946c3.951,0.173,13.957-8.252,13.957-8.252l7.342-75.723
			c3.375-1.774,4.771-2.315,8.985-1.966C977.854,270.508,989.704,213.186,973.904,146.823z"/>
		<g>
			<path fill="#B46639" d="M683.873,467.401c5.112,0.784,11.411,2.281,15.625,2.281c53.02,5.619,159.937,6.848,189.013,6.495
				c-4.268,1.758-6.398,3.863-10.314,4.916c-9.607,11.233-28.473,30.901-37.724,41.434c-17.075,13.343-79.748,17.029-103.231-2.633
				c-17.611-16.982-27.025-29.08-36.515-39.5C694.323,476.526,689.14,471.612,683.873,467.401z"/>
			<path fill="#B46639" d="M700.265,483.554c-6.676-2.634-19.512-14.668-18.149-18.257c0.801-2.109,16.01-2.986,20.278-1.409
				c-6.403,1.58-8.449,3.773-8.982,5.883C692.876,471.88,697.594,480.657,700.265,483.554z"/>
			<path fill="#B46639" d="M868.14,472.014c6.936-1.853,24.523,0.168,25.613,3.846c0.646,2.159-10.987,11.871-15.357,13.142
				c4.161-5.061,4.458-8.03,3.603-10.031C881.148,476.97,872.032,472.744,868.14,472.014z"/>
		</g>
		<g>
			<path fill="#ADBCC7" d="M792.459,524.305c-16.95,0-33.656-3.112-46.622-9.501c-16.949-12.388-33.227-30.033-40.557-37.572
				c30.422,6.319,155.433,4.868,165.619,5.267c-11.489,12.433-29.219,28.916-40.004,35.55
				C819.225,522.145,805.952,524.305,792.459,524.305z"/>
			<linearGradient id="SVGID_22_" gradientUnits="userSpaceOnUse" x1="706.021" y1="504.2817" x2="870.5526" y2="504.2817">
				<stop  offset="0.145" style="stop-color:#C5D3D9"/>
				<stop  offset="0.2249" style="stop-color:#DEE6E9"/>
				<stop  offset="0.3087" style="stop-color:#F0F4F5"/>
				<stop  offset="0.3963" style="stop-color:#FBFCFD"/>
				<stop  offset="0.4932" style="stop-color:#FFFFFF"/>
				<stop  offset="0.6635" style="stop-color:#FCFDFE"/>
				<stop  offset="0.7679" style="stop-color:#F4F8FB"/>
				<stop  offset="0.8543" style="stop-color:#E6F0F5"/>
				<stop  offset="0.8826" style="stop-color:#DFECF2"/>
			</linearGradient>
			<path fill="url(#SVGID_22_)" d="M825.641,506.29c7.791-1.837,18.303-4.604,27.034-9.338c1.736-3.317,3.183-6.558,3.25-10.94
				c-29.643-0.026-98.668,1.405-131.675-1.753c0.596,4.747,0.944,6.532,3.426,12.286c13.608,7.078,32.654,11.591,32.654,11.591
				s-15.129-0.44-27.114-3.615c4.088,3.59,8.298,7.121,12.622,10.283c12.966,6.39,29.672,9.501,46.622,9.501
				c13.493,0,26.765-2.16,38.435-6.256c5.066-3.115,11.674-8.437,18.442-14.462c0.093-0.21,0.189-0.399,0.286-0.608
				C843.072,505.175,833.625,506.29,825.641,506.29z"/>
		</g>
	</g>
</g>
<g id="Coberage_head">
	<path fill="#BA7C29" d="M627.547,485.026c-3.5-65-1.5-90-4.5-119s-2.795-53.116,1-64.5c4-12,10.356-17.562,12.5-46.5
		c4-54,70.5-78,148.5-78c67.067,0,156,32,157,73c0.794,32.563,4.333,60.333,5,73s-4,37-6,61c-1.733,20.802,2,50.5,1,94
		c12-1,22.952-24.404,29.5-37.5c12-24,18.851-32.029,22-42c6-19,6.5-41.167,6.5-60.5s-1-93.333-1-104c0-18.243-12.501-80.382-14-89
		c-2.667-15.333-24.784-58.623-43-78c-8.079-8.594-86.333-49-93-53s-46.765-14.617-73-14c-27.805,0.654-83.667,26-95,32
		s-49.749,22.378-65,42c-7.238,9.313-45.59,60.299-48,106c-2.853,54.089-4.667,143.667-4,161s7.29,35.103,23,77
		C593.047,434.026,605.047,477.026,627.547,485.026z"/>
	<path fill="#E9BD40" d="M621.547,470.026c-11-11.5-17.894-36.948-21.167-46.978c-1.028-3.151-2-6.128-3.033-8.884
		c-14.903-39.744-21.705-57.884-22.309-73.561c-0.656-17.042,1.141-105.924,3.993-159.998c2.209-41.897,38.457-90.509,45.7-99.829
		c11.191-14.398,38.796-27.878,53.626-35.12c3.125-1.526,5.823-2.844,7.835-3.909c11.509-6.093,65.306-30.141,90.112-30.725
		c0.653-0.016,1.313-0.023,1.984-0.023c24.375,0,59.839,9.563,65.151,12.489c1.723,1.035,6.387,3.53,15.926,8.624
		c18.723,9.996,68.411,36.524,74.716,42.501c16.784,17.893,37.864,59.286,40.126,72.296c0.265,1.522,0.821,4.45,1.591,8.501
		c3.35,17.627,12.247,64.451,12.247,78.614c0,4.608,0.181,20.611,0.391,39.141c0.286,25.231,0.609,53.828,0.609,64.859
		c0,18.492-0.463,39.687-5.989,57.188c-1.343,4.253-3.849,8.589-7.642,15.151c-3.591,6.213-8.06,13.946-13.708,25.242l-1.146,2.301
		c-2.148,4.324-11.76,24.324-14.516,29.119c-0.164-11.419,4.343-36.046,4-45c-0.576-15.058-0.8-28.401,0-38
		c0.792-9.497,1.833-20.856,3-30c1.773-13.886,2.448-21.483,2-30c-0.225-4.273,2.253-11.44,1.611-18.516
		c-1.302-14.35-6.081-35.735-6.611-57.484c-0.571-23.417-22.62-41.614-61-58c-32.278-13.781-66.906-21-102-21
		c-42.494,0-80.681,5.039-108,18c-32.335,15.341-51.293,37.796-53.47,67.188c-1.438,19.402-4.795,26.894-8.043,34.139
		c-1.326,2.959-2.697,6.019-3.923,9.695c-5.747,17.24-0.969,50.068,0.936,68.479c1.47,14.216,3.182,29.693,3.5,48
		C618.254,426.466,620.902,452.622,621.547,470.026z"/>
	<path fill="#F6D973" d="M988.438,273.167c-0.209-18.53-0.391-34.532-0.391-39.141c0-14.163-8.897-60.986-12.247-78.614
		c-0.77-4.052-1.326-6.979-1.591-8.501c-2.263-13.011-23.342-54.403-40.126-72.296c-6.305-5.977-55.993-32.506-74.716-42.501
		c-9.539-5.093-14.203-7.588-15.926-8.624C838.13,20.563,802.666,11,778.291,11c-0.672,0-1.332,0.007-1.984,0.023
		c-21.021,0.494-62.858,17.839-82.141,26.828c10.611-0.785,23.135-0.193,26.882,9.175c3,9-1,23,6,28
		c17,12,40.667,29.333,28.667,46.333c-8,10-6.667,23.333-20.667,30.001c-18.667,9.333-44,17.333-64,26.666
		c-23.333,13.333-38,25.334-46,49.334c-6,18-8.667,33.333-12.667,51.333c-3,13-8.333,29.333-5.333,42.333
		c0.831,4.569,2.525,8.792,4.293,12.957c-0.862-13.38-0.764-26.831,2.271-35.936c1.226-3.676,2.597-6.736,3.923-9.695
		c3.248-7.245,6.605-14.737,8.043-34.139c2.177-29.391,21.134-51.847,53.47-67.188c27.319-12.961,65.506-18,108-18
		c35.094,0,69.722,3.219,102,17c17.79,7.595,19.5,11,33.5,14.5c7.5-3,15.908-13.217,26.5-17c2,9-7,18-2,21.5c4,1.5,18.5-10,21-5
		c1.5,7-13,14.5-21,23c10,0,19-3,29-2c-1,4-5,6-8,7c-4.716,2.358-8.857,5.404-12.744,8.704
		c16.176,49.476,5.723,100.83-5.602,153.051c-0.359,8.886-0.124,19.998,0.345,32.245c0.343,8.954-4.164,33.581-4,45
		c2.756-4.794,12.367-24.794,14.516-29.119l1.146-2.301c5.648-11.295,10.117-19.028,13.708-25.242
		c3.792-6.563,6.298-10.898,7.642-15.151c5.526-17.501,5.989-38.695,5.989-57.188C989.047,326.995,988.724,298.397,988.438,273.167z
		"/>
</g>
<g id="_x30_3">
	<g>
		<path fill="#944D09" d="M415.614,1278.149c-29.731,3.715-36.993-0.206-75.839,7.025c-90.593,16.849-182.284,36.234-242.282,3.51
			c-63.202-42.139-82.944-106.884-70.574-132.727c15.801-33.005,65.836-110.25,144.837-103.228
			c39.33,4.916,74.263,37.393,74.263,37.393s130.095,37.392,157.481,43.187C405.608,1162.804,419.828,1236.011,415.614,1278.149z"/>
		<linearGradient id="SVGID_23_" gradientUnits="userSpaceOnUse" x1="311.8599" y1="1316.6934" x2="239.5292" y2="1220.4849">
			<stop  offset="0" style="stop-color:#CF7B46"/>
			<stop  offset="1" style="stop-color:#E0905E"/>
		</linearGradient>
		<path fill="url(#SVGID_23_)" d="M199.674,1294.474c-40.763,0-68.199-2.474-94.806-16.854
			c-39.715-26.644-61.763-64.145-65.835-86.901c-1.908-10.647-2.059-25.021,1.581-30.021c0,0,48.454-107.269,132.727-97.435
			c54.773,22.467,69.517,35.811,69.517,35.811s115.875,35.819,123.603,37.22c-5.619,16.857-16.857,120.088-19.314,136.588
			C302.369,1281.479,242.857,1291.664,199.674,1294.474z"/>
		<linearGradient id="SVGID_24_" gradientUnits="userSpaceOnUse" x1="178.9346" y1="1394.4087" x2="205.9724" y2="1135.2948">
			<stop  offset="6.030000e-006" style="stop-color:#E0905E"/>
			<stop  offset="0.3012" style="stop-color:#E59763"/>
			<stop  offset="0.7338" style="stop-color:#F4AA6F"/>
			<stop  offset="1" style="stop-color:#FFB979"/>
		</linearGradient>
		<path fill="url(#SVGID_24_)" d="M355.575,1250.763c4.436-36.339,7.246-103.567,10.885-114.469
			c-7.728-1.4-123.603-37.22-123.603-37.22s-33.178-29.496-69.517-35.811c-84.273-9.834-130.622,94.802-130.622,94.802
			c-2.105,8.424-9.133,23.173,34.411,51.26C128.745,1266.563,205.294,1291.488,355.575,1250.763z"/>
		<path fill="#944D09" d="M302.907,1114.875c-23.177-5.616-83.574-22.821-130.622-30.544c42.134,0,66.363,7.547,71.982,7.723
			C248.477,1095.564,291.667,1109.96,302.907,1114.875z"/>
	</g>
	<g>
		<g>
			<path fill="#944D09" d="M302.907,1120.67c6.842-14.749,19.309-51.263,26.682-59.516c4.314-4.826,35.814-30.548,41.786-41.787
				c6.32-10.533,10.006-37.391,12.463-66.712c4.739-19.486,64.283-13.43,67.592,25.635c3.509,41.43-14.396,85.673-23.877,107.44
				C415.965,1089.421,311.331,1117.508,302.907,1120.67z"/>
			<linearGradient id="SVGID_25_" gradientUnits="userSpaceOnUse" x1="341.938" y1="1019.1948" x2="405.1406" y2="1039.7357">
				<stop  offset="0" style="stop-color:#CF7B46"/>
				<stop  offset="1" style="stop-color:#E0905E"/>
			</linearGradient>
			<path fill="url(#SVGID_25_)" d="M322.564,1102.236c4.537-12.228,10.16-28.145,14.929-34.763
				c2.418-3.363,16.924-14.718,24.223-22.119c7.905-8.021,14.363-13.053,16.443-15.989c8.839-12.454,15.511-45.107,16.211-72.494
				c7.372-8.429,41.611-3.69,46.348,19.485c4.315,21.084-7.724,65.66-16.852,87.432c0,0,19.46-0.03,20.539,4.743
				C441.771,1069.264,351.331,1094.78,322.564,1102.236z"/>
			<linearGradient id="SVGID_26_" gradientUnits="userSpaceOnUse" x1="369.8867" y1="1018.832" x2="504.2685" y2="1057.1475">
				<stop  offset="6.030000e-006" style="stop-color:#E0905E"/>
				<stop  offset="0.1536" style="stop-color:#F1A66D"/>
				<stop  offset="0.3012" style="stop-color:#FBB476"/>
				<stop  offset="0.43" style="stop-color:#FFB979"/>
			</linearGradient>
			<path fill="url(#SVGID_26_)" d="M396.651,964.242c1.057,13.167-2.104,46.877-6.318,69.524
				c-14.22,15.273-26.008,28.725-32.654,59.512c36.188-9.997,84.923-24.245,86.727-24.749c-1.078-4.773-20.539-4.743-20.539-4.743
				c9.128-21.772,21.167-66.348,16.852-87.432c-3.216-15.729-20.014-22.945-32.783-23.334
				C402.976,952.655,396.651,957.923,396.651,964.242z"/>
		</g>
		<g>
			<path fill="#944D09" d="M292.896,1105.397c18.958-5.266,43.716-13.166,43.716-13.166s8.952-12.643,23.7-25.286
				c15.248-13.071,27.81-19.8,35.287-22.292c37.567,1.753,58.283-1.057,99.016,5.967c19.298,48.748,30.959,112.641,21.067,187.5
				c-2.457,18.61-11.233,38.625-15.799,45.997c-20.363,14.747-65.836,20.019-87.431,18.962
				c-27.911-2.634-68.82-12.639-81.107-17.558C335.555,1273.583,345.04,1173.689,292.896,1105.397z"/>
			<linearGradient id="SVGID_27_" gradientUnits="userSpaceOnUse" x1="303.4536" y1="1313.2729" x2="374.6454" y2="1224.0795">
				<stop  offset="0" style="stop-color:#CF7B46"/>
				<stop  offset="1" style="stop-color:#E0905E"/>
			</linearGradient>
			<path fill="url(#SVGID_27_)" d="M421.232,1292.898c-41.903,0-81.458-15.449-100.421-21.067
				c-20.014-20.019-42.135-100.074-20.367-155.199c21.066-18.262,83.955-59.964,94.102-60.392c38.192,1.3,70.59,1.396,107.441,7.724
				c8.957,54.685,4.571,185.391-10.534,214.186C484.435,1282.716,452.129,1290.088,421.232,1292.898z"/>
			<linearGradient id="SVGID_28_" gradientUnits="userSpaceOnUse" x1="434.3218" y1="1173.2256" x2="201.4253" y2="1154.101">
				<stop  offset="6.030000e-006" style="stop-color:#E0905E"/>
				<stop  offset="0.5233" style="stop-color:#EFA36B"/>
				<stop  offset="1" style="stop-color:#FFB979"/>
			</linearGradient>
			<path fill="url(#SVGID_28_)" d="M469.7,1285.19c10.642-2.47,18.659-5.033,21.754-7.042
				c15.105-28.794,19.491-159.5,10.534-214.186c-36.851-6.328-69.249-6.424-107.441-7.724c-10.147,0.428-73.036,42.13-94.102,60.392
				c-19.662,49.858,7.728,125.704,25.633,146.77c12.639,7.373,55.125,22.82,93.05,24.929
				C439.49,1288.684,453.392,1287.413,469.7,1285.19z"/>
			<linearGradient id="SVGID_29_" gradientUnits="userSpaceOnUse" x1="523.1343" y1="1149.043" x2="372.3308" y2="1177.7679">
				<stop  offset="6.030000e-006" style="stop-color:#E0905E"/>
				<stop  offset="1" style="stop-color:#FFB979"/>
			</linearGradient>
			<path fill="url(#SVGID_29_)" d="M501.988,1063.963c-36.851-6.328-67.668-14.152-105.86-15.453
				c-0.188,0.009-0.419,0.05-0.633,0.084c-3.271,61.726,39.958,145.986,23.634,193.388c3.51,23.524,3.51,36.867,0.7,46.001
				c10.534,1.047,58.635-3.515,72.684-9.486c3.862-7.724,9.828-22.82,11.938-35.463
				C511.096,1203.152,510.53,1116.099,501.988,1063.963z"/>
			<path fill="#944D09" d="M416.143,1118.037c6.143,2.104,81.283-9.834,93.222-9.481c6.318,1.58,17.029,8.248,21.418,10.18
				c5.62,12.643,6.672,40.559,0.701,59.869c-2.104,3.162-4.738,5.794-4.738,5.794s3.686,3.162,3.686,6.844
				c0.876,17.91-3.51,46.176-11.586,50.387c-28.439,8.78-72.33,11.942-86.378,10.533
				C428.253,1241.63,417.719,1134.89,416.143,1118.037z"/>
			<linearGradient id="SVGID_30_" gradientUnits="userSpaceOnUse" x1="594.0269" y1="1182.4292" x2="366.9589" y2="1186.8815">
				<stop  offset="6.030000e-006" style="stop-color:#E0905E"/>
				<stop  offset="0.2859" style="stop-color:#EA9D66"/>
				<stop  offset="0.9989" style="stop-color:#FFB979"/>
			</linearGradient>
			<path fill="url(#SVGID_30_)" d="M420.528,1250.763c-11.233-18.261-11.233-45.648-10.709-58.992
				c-7.373-17.905-14.568-44.944-9.653-66.711c8.428,0,16.5,2.981,16.5,2.981s48.194-8.429,69.874-8.601
				c6.5,2.545,26.862,5.708,31.601,7.023c7.376,11.851,6.323,32.301,2.109,49.86c-2.806,4.562-16.853,7.724-16.853,7.724
				s7.02,2.104,14.047,2.809c3.51,12.638,2.105,37.924-6.324,48.458C490.054,1244.439,433.167,1251.812,420.528,1250.763z"/>
			<path fill="#944D09" d="M430.538,1188.086c-2.462,0.524,0.524,2.108,3.334,2.805c28.791,3.162,70.225-0.696,86.378-4.562
				c1.229-2.629,3.158-6.668,4.038-9.477C508.664,1182.819,460.206,1188.257,430.538,1188.086z"/>
			<path fill="#944D09" d="M421.232,1126.817c-1.757-0.353-7.723-3.515-9.132-3.515c0.964,4.038-0.524,10.27,1.057,17.905
				C415.965,1134.189,420.176,1128.922,421.232,1126.817z"/>
			<path fill="#944D09" d="M392.442,1045.706c18.958-4.567,76.544-5.62,94.097-4.215c10.274,2.106,28.356,7.02,34.939,11.238
				c7.727,11.146,10.709,53.717,2.281,72.68c-10.445,4.302-32.477,9.128-39.325,9.128c-6.844,0-61.097-3.334-72.159-4.739
				C403.151,1121.021,380.676,1085.383,392.442,1045.706z"/>
			<linearGradient id="SVGID_31_" gradientUnits="userSpaceOnUse" x1="592.752" y1="1092.8145" x2="372.9398" y2="1088.3678">
				<stop  offset="6.030000e-006" style="stop-color:#E0905E"/>
				<stop  offset="1" style="stop-color:#FFB979"/>
			</linearGradient>
			<path fill="url(#SVGID_31_)" d="M487.773,1125.409c0,0-71.983,2.104-86.907,1.056c-4.038-14.571-15.1-50.21-1.405-70.225
				c22.124-3.162,76.721-4.567,84.621-2.721c5.794,1.845,22.913,8.16,28.179,11.851c4.739,13.426,0.528,46.344-3.95,54.512
				C502.78,1121.986,487.773,1125.409,487.773,1125.409z"/>
			<linearGradient id="SVGID_32_" gradientUnits="userSpaceOnUse" x1="625.3472" y1="1082.0166" x2="499.3899" y2="1088.4575">
				<stop  offset="6.030000e-006" style="stop-color:#E0905E"/>
				<stop  offset="1" style="stop-color:#FFB979"/>
			</linearGradient>
			<path fill="url(#SVGID_32_)" d="M512.521,1062.911c-5.266-3.69-19.222-8.076-28.967-9.658
				c14.923,14.22,10.71,61.269,4.395,71.803c8.953-0.524,19.307-2.81,25.629-4.915
				C518.845,1104.694,519.307,1075.197,512.521,1062.911z"/>
		</g>
	</g>
</g>
<g id="coberage_arm">
	<path fill="#BA7C29" d="M0.047,1168.026c-1.934-20.304,56-87,76-103s72.333-15,92.333-15s52.667-4,75.667,5s75,24,75,24
		c-3,9-12,29-16,40s-4,39-3,57s6,43,8,51s16,41,21,47s14,15,23,18c-5,11-28,24-44,37s-74,30-105,22c-30.62-7.902-46,2-77-4
		s-57-26-68-38s-29-28-36-45S2.047,1189.026,0.047,1168.026z"/>
	<path fill="#E9BD40" d="M221.833,1342.085c-6.243,0-11.638-0.575-16.037-1.71c-9.438-2.436-18.419-3.57-28.264-3.57
		c-5.39,0-10.467,0.33-15.377,0.649c-4.908,0.319-9.543,0.62-14.502,0.62c-6.803,0-13.004-0.587-19.515-1.847
		c-29.074-5.627-53.256-25.115-61.981-34.634c-2.379-2.595-4.999-5.295-7.773-8.154c-9.542-9.833-21.416-22.07-26.165-33.601
		c-6.32-15.35-19.211-71.757-21.221-92.855c-0.145-3.453,5.495-17.519,27.889-45.8c17.32-21.872,35.613-40.832,44.032-47.567
		c17.393-13.914,71.002-29.589,89.128-29.589c14.975,0,37.603,9.081,57.566,17.093c3.572,1.434,7.063,2.834,10.426,4.15
		c16.721,6.543,47.672,15.966,64.465,20.953c-1.204,2.949-2.522,6.11-3.822,9.229c-2.956,7.089-6.011,14.42-7.973,19.815
		c-5.825,16.018-4.059,53.932-3.645,61.37c1.08,19.435,6.47,45.692,8.312,53.058c1.989,7.958,16.45,43.249,23.221,51.374
		c3.14,3.768,8.23,9.299,14.459,13.987c-4.949,4.207-11.545,8.917-16.96,12.783c-5.739,4.098-11.674,8.335-16.985,12.65
		C290.657,1328.983,251.903,1342.083,221.833,1342.085z"/>
	<path fill="#F6D973" d="M44.381,1233.359c11.313,5.657,17.319-22.203,26.319-18.203c7,4,16.999,43.497,23.999,52.497
		c25.499,12,21.498-37.498,37.498-37.498c5,0,26.999,9,29.999,26.999c9,13,31.498,21.999,43.498,23.999c20,3,42.497-3,61.497-9
		c-31.499-62.997-27.355-90.361-14.999-125.994c6-17.999-4.5-31.498,4.5-43.498c6.666-9.629,22.533-19.042,34.035-20.584
		c-16.745-5.102-37.884-11.798-50.687-16.808c-3.363-1.316-6.854-2.717-10.426-4.15c-19.963-8.012-42.591-17.093-57.566-17.093
		c-18.126,0-71.735,15.675-89.128,29.589c-8.419,6.735-27.891,24.813-44.032,47.567c-13.839,19.51-15.172,39.51-16.506,50.177
		C23.047,1182.693,35.047,1228.692,44.381,1233.359z"/>
</g>
</svg>
