<?xml version="1.0" encoding="utf-8"?>
<!-- Generator: Adobe Illustrator 15.0.0, SVG Export Plug-In . SVG Version: 6.00 Build 0)  -->
<!DOCTYPE svg PUBLIC "-//W3C//DTD SVG 1.1//EN" "http://www.w3.org/Graphics/SVG/1.1/DTD/svg11.dtd">
<svg version="1.1" id="Capa_1" xmlns="http://www.w3.org/2000/svg" xmlns:xlink="http://www.w3.org/1999/xlink" x="0px" y="0px"
	 width="969.499px" height="712.426px" viewBox="0 0 969.499 712.426" enable-background="new 0 0 969.499 712.426"
	 xml:space="preserve">
<g>
	<path fill="#B4C7CF" d="M97.966,256.389c-25.016-15.01-83.793-69.789-93.801-75.793c-6.003-21.01-3.752-48.277-3.752-56.279
		c19.511,16.508,105.808,81.795,114.813,87.797C111.222,224.119,99.966,247.383,97.966,256.389z"/>
	<path fill="#B4C7CF" d="M869.111,276.85c25.016-15.01,87.072-82.744,97.08-94.752c6.004-21.012,2-54.029,2-62.031
		c-19.514,16.508-107.334,106.504-116.336,112.508C855.857,244.58,867.113,267.844,869.111,276.85z"/>
	<path fill="#B4C7CF" d="M931.648,250.174c-7.199-95.971-138.111-115.363-208.613-145.578C642.49,70.076,599.3,0,496.241,0
		c-103.058,0-147.9,70.076-228.446,104.596C197.29,134.811,66.379,154.203,59.18,250.174
		c-9.005,120.064,197.105,462.252,436.235,462.252C734.542,712.426,940.654,370.238,931.648,250.174z"/>
	<linearGradient id="SVGID_1_" gradientUnits="userSpaceOnUse" x1="512.2515" y1="356.2129" x2="-85.0784" y2="356.2128">
		<stop  offset="0" style="stop-color:#B4C7CF"/>
		<stop  offset="1" style="stop-color:#FFFFFF"/>
	</linearGradient>
	<path fill="url(#SVGID_1_)" d="M495.415,694.416c-85.993,0-179.594-49.842-263.57-140.357
		C133.67,448.246,72.589,312.193,77.137,251.521c4.807-64.043,79.859-89.293,146.079-111.57
		c18.671-6.285,36.306-12.219,51.671-18.801c30.122-12.91,55.116-30.234,79.292-46.982c41.67-28.881,81.032-56.158,142.062-56.158
		c60.761,0,99.44,27.107,140.392,55.813c24.078,16.877,48.977,34.324,79.309,47.328c15.365,6.582,33,12.516,51.672,18.801
		c66.219,22.277,141.271,47.527,146.078,111.57c4.551,60.672-56.531,196.725-154.709,302.537
		C675.009,644.574,581.405,694.416,495.415,694.416z"/>
	<linearGradient id="SVGID_2_" gradientUnits="userSpaceOnUse" x1="-705.4551" y1="356.2129" x2="538.8204" y2="356.2129">
		<stop  offset="0" style="stop-color:#B4C7CF"/>
		<stop  offset="0.2681" style="stop-color:#CCD9DE"/>
		<stop  offset="0.7467" style="stop-color:#F1F4F6"/>
		<stop  offset="1" style="stop-color:#FFFFFF"/>
	</linearGradient>
	<path fill="url(#SVGID_2_)" d="M913.691,251.521c-4.807-64.043-79.859-89.293-146.078-111.57
		c-18.672-6.285-36.307-12.219-51.672-18.801c-30.332-13.004-55.23-30.451-79.309-47.328
		C595.681,45.117,557.001,18.01,496.241,18.01c-61.03,0-100.391,27.277-142.062,56.158c-24.176,16.748-49.17,34.072-79.292,46.982
		c-14.663,6.283-31.424,11.979-49.139,17.945c-175.75,136.053,70.385,511.258,223.456,550.617
		c15.579,3.066,31.015,4.703,46.211,4.703c85.99,0,179.594-49.842,263.567-140.357C857.16,448.246,918.242,312.193,913.691,251.521z
		"/>
	<g>
		<path fill="#808080" d="M640.32,119.063c-27.953,0-51.081-15.266-73.452-30.027c-21.821-14.4-42.429-27.998-66.623-27.998
			c-31.828,0-57.355,14.994-82.042,29.498c-21.475,12.617-41.76,24.529-64.037,24.529c-8.289,0-15.008-6.719-15.008-15.008
			s6.719-15.01,15.008-15.01c14.117,0,30.205-9.449,48.835-20.395c25.508-14.984,57.255-33.633,97.244-33.633
			c33.205,0,59.738,17.51,83.154,32.959c19.535,12.891,37.985,25.068,56.92,25.068c8.289,0,15.008,6.719,15.008,15.008
			S648.609,119.063,640.32,119.063z"/>
	</g>
	<linearGradient id="SVGID_3_" gradientUnits="userSpaceOnUse" x1="500.2466" y1="569.3105" x2="500.2466" y2="305.096">
		<stop  offset="0" style="stop-color:#B4C7CF"/>
		<stop  offset="1" style="stop-color:#FFFFFF"/>
	</linearGradient>
	<path fill="url(#SVGID_3_)" d="M770.259,384.643c0.297-0.252-119.006,35.436-270.014,35.246
		c-151.015,0.189-270.313-35.498-270.013-35.246c0.141-0.176,123.717-1.395,272.011-1.775
		C650.543,382.955,770.119,384.42,770.259,384.643z"/>
	<linearGradient id="SVGID_4_" gradientUnits="userSpaceOnUse" x1="500.2441" y1="650.3633" x2="500.2441" y2="449.0408">
		<stop  offset="0" style="stop-color:#B4C7CF"/>
		<stop  offset="1" style="stop-color:#FFFFFF"/>
	</linearGradient>
	<path fill="url(#SVGID_4_)" d="M742.855,468.566c1.111-0.955-101.363,58.795-242.609,58.428
		c-141.248,0.367-243.725-59.383-242.612-58.428c0.135-0.393,111.143,26.809,244.412,25.543
		C635.296,494.496,742.699,468.027,742.855,468.566z"/>
	<linearGradient id="SVGID_5_" gradientUnits="userSpaceOnUse" x1="500.2466" y1="425.2324" x2="500.2466" y2="191.1028">
		<stop  offset="0" style="stop-color:#B4C7CF"/>
		<stop  offset="1" style="stop-color:#FFFFFF"/>
	</linearGradient>
	<path fill="url(#SVGID_5_)" d="M770.259,294.723c0.297,0.252-119.006-35.434-270.014-35.244
		c-151.015-0.189-270.313,35.496-270.013,35.244c0.141,0.176,123.717,1.396,272.011,1.777
		C650.543,296.412,770.119,294.945,770.259,294.723z"/>
	<linearGradient id="SVGID_6_" gradientUnits="userSpaceOnUse" x1="500.2441" y1="383.21" x2="500.2441" y2="76.9799">
		<stop  offset="0" style="stop-color:#B4C7CF"/>
		<stop  offset="1" style="stop-color:#FFFFFF"/>
	</linearGradient>
	<path fill="url(#SVGID_6_)" d="M742.855,210.801c1.111,0.953-101.363-58.797-242.609-58.426
		c-141.248-0.371-243.725,59.379-242.612,58.426c0.135,0.393,111.143-26.809,244.412-25.543
		C635.296,184.871,742.699,211.34,742.855,210.801z"/>
</g>
</svg>
