<?xml version="1.0" encoding="utf-8"?>
<!-- Generator: Adobe Illustrator 15.0.0, SVG Export Plug-In . SVG Version: 6.00 Build 0)  -->
<!DOCTYPE svg PUBLIC "-//W3C//DTD SVG 1.1//EN" "http://www.w3.org/Graphics/SVG/1.1/DTD/svg11.dtd">
<svg version="1.1" id="Capa_1" xmlns="http://www.w3.org/2000/svg" xmlns:xlink="http://www.w3.org/1999/xlink" x="0px" y="0px"
	 width="1129.175px" height="712.426px" viewBox="0 0 1129.175 712.426" enable-background="new 0 0 1129.175 712.426"
	 xml:space="preserve">
<g>
	<path fill="#333333" d="M183.99,284.868C158.974,269.86,82.936,186.6,72.929,180.595c-6.003-21.01-4.503-54.28-4.503-62.282
		c19.511,16.508,122.511,111.102,131.517,117.104C195.938,247.424,185.99,275.862,183.99,284.868z"/>
	<path fill="#333333" d="M937.875,276.849c25.016-15.01,87.071-82.744,97.079-94.752c6.005-21.011,2-54.029,2-62.031
		c-19.513,16.508-107.333,106.505-116.336,112.509C924.62,244.58,935.876,267.844,937.875,276.849z"/>
	<path fill="#333333" d="M964.697,312.17c-7.199-95.97-112.73-122.07-174.095-168.093C718.562,90.048,667.646,0,564.587,0
		C461.531,0,410.614,90.048,338.574,144.077C277.21,190.1,171.679,216.2,164.479,312.17
		c-9.005,120.065,160.98,400.256,400.108,400.256C803.717,712.426,973.702,432.235,964.697,312.17z"/>
	<path fill="#4D4D4D" d="M564.587,694.415c-91.761,0-184.695-45.692-261.675-128.67C219.147,475.46,178.32,368.409,182.435,313.518
		c4.586-61.053,55.731-89.626,109.877-119.871c19.641-10.975,39.949-22.318,57.067-35.157
		c21.586-16.192,41.237-35.358,60.237-53.889c45.659-44.533,88.783-86.592,154.972-86.592c66.188,0,109.314,42.059,154.973,86.592
		c19.001,18.53,38.651,37.696,60.237,53.889c17.119,12.839,37.426,24.183,57.067,35.157
		c54.146,30.245,105.291,58.818,109.874,119.871c4.115,54.892-36.709,161.942-120.476,252.228
		C749.282,648.723,656.349,694.415,564.587,694.415z"/>
	<linearGradient id="SVGID_1_" gradientUnits="userSpaceOnUse" x1="357.0762" y1="356.2119" x2="758.803" y2="356.2119">
		<stop  offset="0.0121" style="stop-color:#4D4D4D"/>
		<stop  offset="0.5273" style="stop-color:#666666"/>
		<stop  offset="1" style="stop-color:#4D4D4D"/>
	</linearGradient>
	<path fill="url(#SVGID_1_)" d="M670.648,59.845c-28.223-22.876-54.322-41.836-106.061-41.836
		c-39.754,0-71.165,15.226-99.827,36.988c-64.653,188.633-36.138,472.288,43.623,633.673c18.684,3.741,37.468,5.745,56.204,5.745
		c32.701,0,65.545-5.908,97.771-17.136C710.778,420.728,713.14,251.06,670.648,59.845z"/>
	<path fill="#333333" d="M440.517,294.154c0,68.527,55.55,124.075,124.066,124.075c68.525,0,124.072-55.548,124.072-124.075
		c0-68.517-55.547-124.063-124.072-124.063C496.067,170.091,440.517,225.638,440.517,294.154z"/>
	<path fill="#1A1A1A" d="M440.517,318.168c0,68.527,55.55,124.075,124.066,124.075c68.525,0,124.072-55.548,124.072-124.075
		c0-68.516-55.547-124.063-124.072-124.063C496.067,194.104,440.517,249.652,440.517,318.168z"/>
	<path fill="#666666" d="M564.583,424.232c-58.48,0-106.056-47.581-106.056-106.064c0-58.481,47.575-106.056,106.056-106.056
		c58.483,0,106.064,47.574,106.064,106.056C670.648,376.651,623.067,424.232,564.583,424.232z"/>
	<path fill="#1A1A1A" d="M564.587,371.704c-29.518,0-53.531-24.013-53.531-53.536c0-29.513,24.014-53.526,53.531-53.526
		c29.52,0,53.533,24.014,53.533,53.526C618.121,347.691,594.107,371.704,564.587,371.704z"/>
	<g>
		<rect x="555.173" y="201.59" fill="#1A1A1A" width="18.008" height="232.644"/>
	</g>
	<g>
		
			<rect x="447.856" y="308.905" transform="matrix(0.7071 0.7071 -0.7071 0.7071 390.0396 -305.8204)" fill="#1A1A1A" width="232.644" height="18.008"/>
	</g>
	<g>
		<rect x="447.852" y="308.905" fill="#1A1A1A" width="232.644" height="18.01"/>
	</g>
	<g>
		
			<rect x="555.17" y="201.585" transform="matrix(0.7071 0.7071 -0.7071 0.7071 390.0507 -305.8217)" fill="#1A1A1A" width="18.009" height="232.648"/>
	</g>
	<path fill="#1A1A1A" d="M248.325,612.311c-50.775-12.716-97.933-88.108-116.272-188.575
		c-18.648-102.203-0.638-189.403,42.891-218.106l-1.049-5.393l18.62-2.615c1.652-0.545,3.043-0.938,4.473-1.196
		c3.336-0.609,6.819-0.92,10.306-0.92c0.311,0,0.622,0,0.933,0.006c18.994-2.598,51.995-7.234,70.549-10.616
		c3.402-0.623,6.888-0.94,10.372-0.94c55.537,0,110.48,80.188,130.641,190.663c14.881,81.579,6.479,157.369-21.925,197.804
		c-11.625,16.546-26.586,26.763-43.266,29.549c-20.197,3.382-57.993,8.312-79.742,11.078c-0.628,0.176-1.262,0.318-1.9,0.435
		c-1.564,0.288-3.27,0.405-4.982,0.458l-18.743,2.421L248.325,612.311z"/>
	<path fill="#333333" d="M402.071,377.854c-19.229-105.363-72.977-183.839-120.064-175.244c-19.459,3.547-53.666,8.335-72.82,10.944
		c-3.012-0.134-6.008,0.048-8.987,0.593c-1.259,0.229-2.446,0.756-3.671,1.114c-0.785,0.099-1.33,0.17-1.33,0.17l0.041,0.211
		c-43.635,14.069-63.996,103.322-45.47,204.855C168.108,520.971,217.799,596.78,263.194,596.2l0.035,0.158
		c0,0,1.024-0.135,2.83-0.357c1.256-0.1,2.528-0.03,3.775-0.258c0.434-0.076,0.827-0.282,1.25-0.369
		c17.329-2.199,59.26-7.604,80.546-11.17C398.824,576.32,421.294,483.245,402.071,377.854z"/>
	<path fill="#1A1A1A" d="M179.359,672.278c-69.801-0.018-138.37-96.398-166.739-234.392
		C-17.643,290.642,7.274,185.128,79.279,155.64l2.514-1.032l2.709-0.239c3.424-0.306,84.04-7.487,107.66-9.24
		c1.73-0.125,3.471-0.188,5.229-0.188c60.186,0,140.315,78.61,170.266,224.295c28.474,138.521-2.601,254.742-73.891,276.346
		c-23.574,7.14-99.073,24.928-102.273,25.678l-0.854,0.205l-0.869,0.117c-3.469,0.464-6.93,0.697-10.4,0.697
		C179.369,672.278,179.363,672.278,179.359,672.278z"/>
	<path fill="#333333" d="M350.017,372.865C322.57,239.351,247.523,159.093,193.491,163.091
		c-23.76,1.758-107.389,9.216-107.389,9.216C20.06,199.356,3.821,305.61,30.261,434.257
		c26.171,127.289,91.633,228.289,157.105,219.473c0,0,77.879-18.327,101.176-25.386C346.829,610.681,377.46,506.38,350.017,372.865z
		"/>
	<path fill="#1A1A1A" d="M26.996,434.869c25.596,122.297,90.975,218.396,150.306,219.575
		c63.233,1.279,99.768-104.577,76.759-242.703C229.789,266.295,152.091,156.377,86.102,172.307
		C24.539,187.179,0.227,306.835,26.996,434.869z"/>
	<path fill="#E6E6E6" d="M168.366,637.642c-53.502-0.245-113.03-88.789-136.012-201.268
		C8.458,319.375,30.929,211.157,86.137,198.881c58.567-13.021,127.552,86.292,149.548,216.704
		C256.768,540.43,224.87,637.895,168.366,637.642z"/>
	<path fill="#1A1A1A" d="M182.783,436.333l62.488-5.791l-6.237-37.083l-62.784,7.007c-4.313-16.244-10.165-30.984-16.965-43.39
		l27.418-100.601l-17.552-24.951l-26.756,101.645c-7.727-8.154-15.881-13.285-23.902-14.727L93.694,186.307l-16.72,3.892
		l25.016,131.123c-6.654,3.963-12.019,11.269-15.935,21.03l-57.359-82.745l-5.764,27.185l56.75,82.069
		c-1.512,12.733-1.448,27.132,0.323,42.353l-53.972,6.026l6.872,32.982l53.759-4.983c4.098,14.798,9.474,28.375,15.694,39.989
		L80.362,568.78l15.161,22.225l22.535-82.687c7.306,8.286,15.039,13.972,22.719,16.311l22.019,115.429l16.104,0.216L157.092,524.09
		c7.011-2.866,12.885-9.175,17.313-18.238l57.634,83.354l8.154-24.5l-58.279-84.069
		C184.024,467.687,184.406,452.638,182.783,436.333z"/>
	<path fill="#1A1A1A" d="M880.85,612.311c50.776-12.716,97.935-88.108,116.272-188.575c18.648-102.203,0.64-189.403-42.891-218.106
		l1.05-5.393l-18.62-2.615c-1.654-0.545-3.043-0.938-4.472-1.196c-3.337-0.609-6.819-0.92-10.308-0.92c-0.311,0-0.621,0-0.932,0.006
		c-18.994-2.598-51.997-7.234-70.552-10.616c-3.398-0.623-6.888-0.94-10.369-0.94c-55.536,0-110.48,80.188-130.643,190.663
		c-14.88,81.579-6.478,157.369,21.927,197.804c11.626,16.546,26.587,26.763,43.266,29.549c20.196,3.382,57.993,8.312,79.742,11.078
		c0.628,0.176,1.26,0.318,1.901,0.435c1.563,0.288,3.271,0.405,4.981,0.458l18.742,2.421L880.85,612.311z"/>
	<path fill="#333333" d="M727.103,377.854c19.229-105.363,72.979-183.839,120.066-175.244c19.46,3.547,53.667,8.335,72.82,10.944
		c3.013-0.134,6.009,0.048,8.986,0.593c1.26,0.229,2.444,0.756,3.67,1.114c0.787,0.099,1.331,0.17,1.331,0.17l-0.041,0.211
		c43.636,14.069,63.996,103.322,45.47,204.855C961.068,520.971,911.377,596.78,865.982,596.2l-0.035,0.158
		c0,0-1.026-0.135-2.83-0.357c-1.256-0.1-2.527-0.03-3.775-0.258c-0.434-0.076-0.826-0.282-1.249-0.369
		c-17.33-2.199-59.26-7.604-80.547-11.17C730.351,576.32,707.881,483.245,727.103,377.854z"/>
	<path fill="#1A1A1A" d="M949.818,672.278c69.8-0.018,138.366-96.398,166.736-234.392c30.264-147.245,5.348-252.759-66.655-282.247
		l-2.518-1.032l-2.706-0.239c-3.425-0.306-84.041-7.487-107.661-9.24c-1.73-0.125-3.471-0.188-5.229-0.188
		c-60.187,0-140.315,78.61-170.269,224.295c-28.474,138.521,2.604,254.742,73.894,276.346c23.573,7.14,99.072,24.928,102.272,25.678
		l0.855,0.205l0.867,0.117c3.471,0.464,6.929,0.697,10.4,0.697C949.811,672.278,949.811,672.278,949.818,672.278z"/>
	<path fill="#333333" d="M779.16,372.865c27.446-133.515,102.493-213.772,156.522-209.774c23.763,1.758,107.391,9.216,107.391,9.216
		c66.044,27.05,82.283,133.304,55.843,261.95c-26.172,127.289-91.632,228.289-157.104,219.473c0,0-77.881-18.327-101.178-25.386
		C782.348,610.681,751.716,506.38,779.16,372.865z"/>
	<path fill="#1A1A1A" d="M1102.18,434.869c-25.597,122.297-90.976,218.396-150.306,219.575
		c-63.232,1.279-99.77-104.577-76.759-242.703c24.271-145.446,101.969-255.364,167.957-239.435
		C1104.637,187.179,1128.949,306.835,1102.18,434.869z"/>
	<path fill="#E6E6E6" d="M960.811,637.642c53.502-0.245,113.028-88.789,136.012-201.268
		c23.896-116.999,1.423-225.217-53.784-237.493c-58.566-13.021-127.553,86.292-149.551,216.704
		C872.408,540.43,904.305,637.895,960.811,637.642z"/>
	<path fill="#1A1A1A" d="M946.394,436.333l-62.489-5.791l6.238-37.083l62.781,7.007c4.315-16.244,10.166-30.984,16.967-43.39
		l-27.419-100.601l17.553-24.951l26.757,101.645c7.727-8.154,15.881-13.285,23.9-14.727l24.799-132.136l16.72,3.892l-25.016,131.123
		c6.656,3.963,12.021,11.269,15.935,21.03l57.36-82.745l5.764,27.185l-56.75,82.069c1.513,12.733,1.448,27.132-0.324,42.353
		l53.972,6.026l-6.871,32.982l-53.76-4.983c-4.1,14.798-9.474,28.375-15.693,39.989l21.997,83.553l-15.162,22.225l-22.536-82.687
		c-7.304,8.286-15.037,13.972-22.716,16.311l-22.02,115.429l-16.105,0.216l21.809-116.184c-7.011-2.866-12.886-9.175-17.313-18.238
		l-57.634,83.354l-8.156-24.5l58.28-84.069C945.153,467.687,944.769,452.638,946.394,436.333z"/>
</g>
</svg>
