<?xml version="1.0" encoding="utf-8"?>
<!-- Generator: Adobe Illustrator 15.0.0, SVG Export Plug-In . SVG Version: 6.00 Build 0)  -->
<!DOCTYPE svg PUBLIC "-//W3C//DTD SVG 1.1//EN" "http://www.w3.org/Graphics/SVG/1.1/DTD/svg11.dtd">
<svg version="1.1" id="Capa_1" xmlns="http://www.w3.org/2000/svg" xmlns:xlink="http://www.w3.org/1999/xlink" x="0px" y="0px"
	 width="1060.709px" height="484.171px" viewBox="0 0 1060.709 484.171" enable-background="new 0 0 1060.709 484.171"
	 xml:space="preserve">
<g>
	<g>
		<path fill="#CCCCCC" d="M819.83,484.171c-86.637,0-181.411-32.318-202.821-69.17l-1.027-2.299
			c-13.044-39.83-37.63-59.195-75.175-59.195c-37.549,0-62.143,19.365-75.194,59.201l-1.024,2.285
			c-21.019,36.209-124.691,69.178-217.515,69.178c-0.004,0-0.01,0-0.017,0c-63.509,0-117.661-14.467-156.594-41.846
			C27.515,391.843,8.725,297.416,3.074,245.583C-5.85,163.771,5.278,77.164,28.4,48.414C59.83,8.419,312.97,0,519.777,0
			c216.424,0,481.023,8.419,512.555,48.513c21.645,26.927,32.893,103.41,26.674,181.752c-4.467,56.168-21.861,158.348-88.23,211.604
			C931.227,469.705,879.242,484.171,819.83,484.171z M638.349,403.873c14.82,22.777,93.239,56.287,181.481,56.287
			c37.967,0,92.465-6.5,136.523-37.473c42.725-34.32,71.641-105.316,78.711-194.322c6.172-77.637-6.373-146.048-21.529-164.908
			c-15.482-19.682-174.1-39.444-493.758-39.444c-305.092,0-457.192,19.757-472.582,39.344C30.212,84.474,18.07,161.625,26.94,242.98
			c5.254,48.137,22.36,135.557,77.943,180.164c43.441,30.516,101.353,37.016,142.18,37.016c93.614,0,181.036-33.275,196.185-56.297
			c16.403-48.662,50.107-74.367,97.559-74.367C588.253,329.496,621.957,355.201,638.349,403.873z"/>
	</g>
	<path fill="#FFFFFF" d="M471.992,360.197c38.023-61.035,98.058-66.035,139.417,3.002
		C558.042,321.175,520.019,322.173,471.992,360.197z"/>
	<path opacity="0.4" fill="#FFFFFF" d="M541.146,336.683c42.558,0,71.173,22.51,85.355,64.533
		c26.351,44.023,219.646,98.553,331.101,22.514c105.361-82.053,95.236-316.175,58.771-360.197
		c-32.43-40.024-404.77-42.023-495.945-42.023c-91.186,0-442.747,1.999-475.162,42.023C8.784,107.555-1.347,341.677,104.021,423.73
		c111.453,76.039,325.415,21.51,351.76-22.514C469.976,359.193,498.591,336.683,541.146,336.683z"/>
	<path opacity="0.4" fill="#FFFFFF" d="M1015.896,238.132c8.039-75.885-4.664-143.768-16.666-158.366
		c-20.191-16.491-178.639-34.243-478.802-34.243c-288.408,0-437.799,17.125-457.386,33.581
		C50.396,94.364,37.699,162.23,45.73,238.103c0.34,3.16,0.745,6.537,1.196,10.031h967.771
		C1015.154,244.652,1015.559,241.279,1015.896,238.132z"/>
	<path fill="#FFFFFF" d="M816.201,467.671c-89.762,0-176.844-33.436-194.748-63.334l-0.54-1.174
		c-13.544-40.129-40.37-60.477-79.768-60.477c-39.39,0-66.223,20.348-79.771,60.477l-0.546,1.174
		c-17.892,29.898-111.172,63.334-209.236,63.334h-0.017c-42.768,0-103.655-6.762-150.85-38.959
		c-60.802-47.336-78.723-137.324-84.017-186.77C8.555,165.841,19.108,85.776,40.747,59.664
		c31.119-38.412,313.895-44.157,479.682-44.157c173.544,0,469.335,5.746,500.494,44.209c21.605,26.065,32.156,106.143,23.99,182.256
		c-5.307,49.439-23.227,139.412-83.717,186.523C923.527,454.203,873.498,467.671,816.201,467.671z M631.863,398.615
		c16.71,26.506,100.311,57.049,184.338,57.049c54.945,0,102.705-12.764,138.1-36.918c56.701-44.174,73.773-130.541,78.869-178.076
		c8.646-80.686-4.328-152.76-21.313-173.267c-19.955-24.624-208.238-39.889-491.429-39.889
		c-270.375,0-450.708,15.266-470.601,39.835c-17.036,20.555-30.022,92.617-21.375,173.293
		c5.094,47.539,22.149,133.924,79.163,178.32c44.427,30.293,102.842,36.701,143.961,36.701c90.648,0,182.355-31.078,198.846-57.055
		c15.231-44.445,46.585-67.93,90.723-67.93C585.281,330.679,616.645,354.171,631.863,398.615z"/>
</g>
</svg>
