<?xml version="1.0" encoding="utf-8"?>
<!-- Generator: Adobe Illustrator 15.0.0, SVG Export Plug-In . SVG Version: 6.00 Build 0)  -->
<!DOCTYPE svg PUBLIC "-//W3C//DTD SVG 1.1//EN" "http://www.w3.org/Graphics/SVG/1.1/DTD/svg11.dtd">
<svg version="1.1" id="Capa_1" xmlns="http://www.w3.org/2000/svg" xmlns:xlink="http://www.w3.org/1999/xlink" x="0px" y="0px"
	 width="1549.186px" height="1446.615px" viewBox="0 0 1549.186 1446.615" enable-background="new 0 0 1549.186 1446.615"
	 xml:space="preserve">
<g>
	<path fill="#730E11" d="M1487.598,1230.285c-0.738,9.434-9,16.498-18.436,15.758l-67.451-5.275
		c-9.439-0.738-16.502-9-15.758-18.438l7.199-92.148c0.744-9.438,9.006-16.502,18.438-15.766l67.455,5.277
		c9.439,0.738,16.496,9,15.752,18.443L1487.598,1230.285z"/>
	<path d="M1479.344,1109.916c0.105-1.42,1.771-2.451,3.707-2.305l43.43,3.295c1.945,0.146,3.422,1.422,3.318,2.842l-11.252,148.059
		c-0.104,1.426-1.764,2.457-3.709,2.324l-43.434-3.297c-1.928-0.158-3.416-1.436-3.309-2.859L1479.344,1109.916z"/>
	<path fill="#730E11" d="M64.471,1230.285c0.739,9.434,8.999,16.498,18.438,15.758l67.449-5.275c9.438-0.738,16.502-9,15.758-18.438
		l-7.2-92.148c-0.744-9.438-9.004-16.502-18.437-15.766l-67.455,5.277c-9.438,0.738-16.498,9-15.753,18.443L64.471,1230.285z"/>
	<path d="M72.725,1109.916c-0.105-1.42-1.77-2.451-3.705-2.305l-43.43,3.295c-1.946,0.146-3.424,1.422-3.318,2.842l11.251,148.059
		c0.105,1.426,1.764,2.457,3.71,2.324l43.43-3.297c1.93-0.158,3.418-1.436,3.313-2.859L72.725,1109.916z"/>
	<path d="M155.083,602.333c-1.999-36.021-4.003-138.076,0-178.099c16.011-16.011,130.074-84.046,140.075-88.051
		c-4.004,50.026-12.007,206.117-12.007,218.123C261.143,562.308,181.096,594.331,155.083,602.333z"/>
	<g>
		<path d="M48.097,1302.183C46.133,1282.216,0,812.189,0,726.396v-3.33l1.407-3.013c29.571-63.374,139.266-232.698,186.306-287.578
			l22.793,19.534C162.035,508.554,58.867,669.976,30.04,729.732c1.149,92.968,47.458,564.695,47.933,569.507L48.097,1302.183z"/>
	</g>
	<path d="M1394.104,602.333c1.998-36.021,4.002-138.076,0-178.099c-16.014-16.011-130.074-84.046-140.076-88.051
		c4.006,50.026,12.008,206.117,12.008,218.123C1288.043,562.308,1368.09,594.331,1394.104,602.333z"/>
	<g>
		<path d="M1501.09,1302.183l-29.877-2.943c0.475-4.813,46.783-476.545,47.934-569.507
			c-28.828-59.757-131.996-221.178-180.469-277.723l22.793-19.534c47.041,54.88,156.736,224.204,186.307,287.578l1.408,3.013v3.33
			C1549.186,812.189,1503.053,1282.216,1501.09,1302.183z"/>
	</g>
	<path fill="#730E11" d="M1323.219,883.982c33.016,10.506,112.561,64.536,158.586,114.567
		c12.01,82.546-31.018,350.188-58.031,398.216c-32.016,18.008-108.059,38.018-150.084,32.016
		C1276.694,1406.267,1320.217,901.993,1323.219,883.982z"/>
	<path fill="#AB181D" d="M1300.125,1405.558c3.5-37.52,10.148-112.287,19.346-215.994c8.68-97.859,18.955-213.804,24.189-269.403
		c33.195,19,81.35,53.947,115.246,89.099c8.066,84.52-30.742,316.502-53.244,369.842
		C1380.719,1391.007,1334.786,1403.505,1300.125,1405.558z"/>
	<path fill="#C9181E" d="M1458.907,1009.259c-33.896-35.151-82.051-70.099-115.246-89.099c-5.234,55.6-15.51,171.544-24.189,269.403
		c-0.244,2.789-0.486,5.469-0.725,8.213c42.027,6.172,83.383,9.006,124.684,10.131
		C1455.11,1132.076,1462.977,1051.904,1458.907,1009.259z"/>
	<path d="M1326.959,1424.312c-1.701,14.041-14.797,23.914-29.195,22.084c-9.416-1.184-18.838-2.367-28.252-3.545
		c-14.416-1.807-24.688-14.465-23.029-28.301c20.656-171.93,33.975-345.234,39.813-519.446c0.469-14,12.564-25.016,27.08-24.588
		c9.484,0.3,18.979,0.604,28.463,0.909c14.51,0.446,25.938,12.358,25.467,26.575
		C1361.383,1074.505,1347.889,1250.101,1326.959,1424.312z"/>
	<linearGradient id="SVGID_1_" gradientUnits="userSpaceOnUse" x1="1317.5884" y1="1078.8618" x2="1344.6028" y2="577.593">
		<stop  offset="0.0095" style="stop-color:#000000"/>
		<stop  offset="0.4394" style="stop-color:#404040"/>
		<stop  offset="0.9994" style="stop-color:#999999"/>
	</linearGradient>
	<path fill="url(#SVGID_1_)" d="M1355.305,897.601c0.117-3.559-1.191-6.982-3.682-9.632c-2.631-2.808-6.238-4.421-10.174-4.543
		l-28.889-0.914c-7.758,0-14.018,5.709-14.264,12.997c-2.34,69.77-5.967,139.81-10.746,209.822l57.16,0.445
		C1349.413,1036.316,1352.985,966.826,1355.305,897.601z"/>
	<path fill="#730E11" d="M241.632,883.982c-33.018,10.506-112.562,64.536-158.588,114.567
		c-12.007,82.546,31.018,350.188,58.033,398.216c32.016,18.008,108.059,38.018,150.082,32.016
		C288.157,1406.267,244.633,901.993,241.632,883.982z"/>
	<path fill="#AB181D" d="M264.725,1405.558c-3.5-37.52-10.149-112.287-19.346-215.994c-8.677-97.859-18.955-213.804-24.189-269.403
		c-33.194,19-81.35,53.947-115.247,89.099c-8.067,84.52,30.743,316.502,53.244,369.842
		C184.131,1391.007,230.065,1403.505,264.725,1405.558z"/>
	<path fill="#C9181E" d="M105.942,1009.259c33.897-35.151,82.053-70.099,115.247-89.099c5.235,55.6,15.512,171.544,24.189,269.403
		c0.246,2.789,0.485,5.469,0.726,8.213c-42.028,6.172-83.383,9.006-124.685,10.131
		C109.742,1132.076,101.874,1051.904,105.942,1009.259z"/>
	<path d="M237.892,1424.312c1.7,14.041,14.796,23.914,29.195,22.084c9.415-1.184,18.836-2.367,28.252-3.545
		c14.416-1.807,24.687-14.465,23.029-28.301c-20.654-171.93-33.974-345.234-39.813-519.446c-0.469-14-12.563-25.016-27.079-24.588
		c-9.486,0.3-18.979,0.604-28.463,0.909c-14.51,0.446-25.937,12.358-25.468,26.575
		C203.467,1074.505,216.962,1250.101,237.892,1424.312z"/>
	
		<linearGradient id="SVGID_2_" gradientUnits="userSpaceOnUse" x1="-56.2017" y1="1078.8618" x2="-29.1873" y2="577.593" gradientTransform="matrix(-1 0 0 1 189.5596 0)">
		<stop  offset="0.0095" style="stop-color:#000000"/>
		<stop  offset="0.4394" style="stop-color:#404040"/>
		<stop  offset="0.9994" style="stop-color:#999999"/>
	</linearGradient>
	<path fill="url(#SVGID_2_)" d="M208.046,897.601c-0.118-3.559,1.189-6.982,3.681-9.632c2.632-2.808,6.238-4.421,10.171-4.543
		l28.891-0.914c7.757,0,14.018,5.709,14.264,12.997c2.339,69.77,5.969,139.81,10.746,209.822l-57.16,0.445
		C213.937,1036.316,210.367,966.826,208.046,897.601z"/>
	<path fill="#BF840E" d="M141.576,738.402c-1.999-33.018,1.5-133.074,6.501-163.091c28.018-20.009,67.038-35.017,75.042-37.016
		c1.999,18.009,14.006,160.089,14.006,174.095C227.99,713.405,156.59,735.4,141.576,738.402z"/>
	<linearGradient id="SVGID_3_" gradientUnits="userSpaceOnUse" x1="253.9229" y1="692.8105" x2="63.3128" y2="557.7327">
		<stop  offset="5.000000e-006" style="stop-color:#F1991B"/>
		<stop  offset="0.636" style="stop-color:#F9C13B"/>
		<stop  offset="1" style="stop-color:#FDD349"/>
	</linearGradient>
	<path fill="url(#SVGID_3_)" d="M158.523,709.025c1.941-36.653,7.581-90.571,11.702-119.661
		c10.488-6.614,21.927-12.447,31.945-17.048c3.172,36.148,7.786,92.218,9.861,121.548c-8.243,2.263-19.329,5.411-34.46,9.737
		C171.457,705.35,164.856,707.238,158.523,709.025z"/>
	<path fill="#BF840E" d="M1407.61,738.402c1.998-33.018-1.5-133.074-6.502-163.091c-28.016-20.009-67.037-35.017-75.041-37.016
		c-2,18.009-14.006,160.089-14.006,174.095C1321.198,713.405,1392.596,735.4,1407.61,738.402z"/>
	
		<linearGradient id="SVGID_4_" gradientUnits="userSpaceOnUse" x1="-1105.0063" y1="692.8125" x2="-1295.6204" y2="557.7319" gradientTransform="matrix(-1 0 0 1 190.2549 0)">
		<stop  offset="5.000000e-006" style="stop-color:#F1991B"/>
		<stop  offset="0.636" style="stop-color:#F9C13B"/>
		<stop  offset="1" style="stop-color:#FDD349"/>
	</linearGradient>
	<path fill="url(#SVGID_4_)" d="M1390.663,709.025c-1.941-36.653-7.58-90.571-11.701-119.661
		c-10.49-6.614-21.93-12.447-31.945-17.048c-3.174,36.148-7.787,92.218-9.863,121.548c8.242,2.263,19.33,5.411,34.461,9.737
		C1377.729,705.35,1384.329,707.238,1390.663,709.025z"/>
	<path fill="#BF840E" d="M774.581,844.099c73.329,0,376.125,20.654,474.301,10.335c80.428-4.595,118.279-26.036,195.158-29.482
		c1.186-18.355,2.375-49.333,0-58.521c-17.732-14.914-77.654-62.349-80.797-134.587c-6.004-138.076-26.84-589.939-588.662-589.939
		S189.104,505.113,189.104,615.336c0,73.041-66.242,136.181-83.981,151.095c-2.363,9.188-1.18,40.165,0,58.521
		c76.881,3.446,114.724,24.887,195.165,29.482C398.462,864.753,701.247,844.099,774.581,844.099z"/>
	<linearGradient id="SVGID_5_" gradientUnits="userSpaceOnUse" x1="774.5894" y1="363.1982" x2="774.5894" y2="966.5281">
		<stop  offset="5.000000e-006" style="stop-color:#F1991B"/>
		<stop  offset="0.636" style="stop-color:#F9C13B"/>
		<stop  offset="1" style="stop-color:#FDD349"/>
	</linearGradient>
	<path fill="url(#SVGID_5_)" d="M1168.963,833.313c-77.275,0-181.818-4.72-265.81-8.514c-58.345-2.632-104.431-4.713-128.573-4.713
		s-70.233,2.081-128.577,4.713c-83.988,3.794-188.517,8.514-265.785,8.514h-0.013c-33.921-0.006-59.909-0.927-77.251-2.75
		c-39.133-2.27-66.529-8.255-95.531-14.592c-23.926-5.23-48.513-10.606-78.629-13.444c-0.346-10.517-0.357-19.211-0.118-24.787
		c27.027-27.173,79.257-98.691,78.073-171.551c-0.159-9.626-2.017-237.387,157.99-395.114
		c97.718-96.316,235.612-145.157,409.84-145.157c174.242,0,312.141,48.841,409.854,145.174
		c160.012,157.733,158.137,385.471,157.98,395.091c-1.191,72.873,51.08,144.425,78.094,171.581
		c0.236,5.505,0.217,14.199-0.137,24.763c-30.115,2.838-54.707,8.213-78.645,13.444c-28.996,6.337-56.387,12.328-94.299,14.491
		C1228.868,832.386,1202.877,833.313,1168.963,833.313z"/>
	<linearGradient id="SVGID_6_" gradientUnits="userSpaceOnUse" x1="773.4106" y1="873.9717" x2="775.5821" y2="741.5707">
		<stop  offset="0.0095" style="stop-color:#FDE25B"/>
		<stop  offset="0.8034" style="stop-color:#FFF99B"/>
		<stop  offset="0.9994" style="stop-color:#FFFFAB"/>
	</linearGradient>
	<path fill="url(#SVGID_6_)" d="M1259.879,816.481c-19.047,1.976-45.723,2.925-80.527,2.925c-79.309,0-186.607-4.842-272.814-8.735
		c-59.882-2.703-107.176-4.842-131.957-4.842c-24.779,0-72.079,2.14-131.959,4.842c-86.21,3.893-193.49,8.735-272.792,8.735h-0.012
		c-34.812-0.006-61.486-0.949-79.291-2.825c-40.159-2.328-161.883-18.719-161.731-14.053c30.117,2.838,54.704,8.213,78.629,13.444
		c29.001,6.337,56.397,12.322,95.531,14.592c17.342,1.823,43.33,2.743,77.251,2.75h0.013c77.268,0,181.796-4.72,265.785-8.514
		c58.344-2.632,104.435-4.713,128.577-4.713s70.229,2.081,128.573,4.713c83.991,3.794,188.534,8.514,265.81,8.514
		c33.914,0,59.904-0.927,78.465-2.85c37.912-2.163,65.303-8.154,94.299-14.491c23.938-5.23,48.529-10.606,78.645-13.444
		C1420.526,797.85,1298.79,814.259,1259.879,816.481z"/>
	<linearGradient id="SVGID_7_" gradientUnits="userSpaceOnUse" x1="774.395" y1="-238.1318" x2="774.395" y2="1124.6721">
		<stop  offset="5.000000e-006" style="stop-color:#F1991B"/>
		<stop  offset="0.2668" style="stop-color:#F6B836"/>
		<stop  offset="0.5337" style="stop-color:#FACF4A"/>
		<stop  offset="0.784" style="stop-color:#FCDD57"/>
		<stop  offset="0.9994" style="stop-color:#FDE25B"/>
	</linearGradient>
	<path fill="url(#SVGID_7_)" d="M1184.434,211.093c-16.627-16.392-34.508-31.294-53.439-44.93
		c-1.559-9.415-3.195-17.717-4.922-24.131c-16.48-14.515-81.051-45.586-118.266-60.472c0.404,5.933,0.633,13.074,0.742,20.953
		C940,78.177,861.858,65.918,774.581,65.918c-87.263,0-165.4,12.258-233.951,36.588c0.111-7.873,0.34-15.02,0.745-20.947
		c-37.216,14.886-101.786,45.957-118.267,60.472c-1.728,6.414-3.365,14.709-4.918,24.119
		c-18.936,13.631-36.817,28.533-53.449,44.925C204.733,368.803,206.591,596.563,206.75,606.189
		c0.199,12.236-8.835,86.187,50.987,96.193c354.774-44.021,754.619-25.601,1029.246,4.004
		c55.688,6.004,47.633-81.783,55.436-104.746C1342.137,567.438,1334.127,358.648,1184.434,211.093z"/>
	<path fill="#BF840E" d="M1007.807,81.56c37.215,14.886,101.785,45.957,118.266,60.472c10.205,37.867,17.744,135.923,17.756,199.909
		c9.662-69.923,10.279-168.198-1.746-218.873c-37.24-30.421-109.344-64.037-157.176-79.849
		c-12.781,12.399-21.708,27.689-21.708,27.689s14.626,3.447,22.343,6.326c4.313,46.302,12.369,135.027,16.537,188.535
		C1006.375,203.677,1010.432,119.79,1007.807,81.56z"/>
	<path fill="#BF840E" d="M564.273,43.218C516.441,59.03,442.965,96.087,405.444,120.47c-12.024,50.677-9.75,151.548-0.094,221.471
		c0.012-63.985,7.551-162.042,17.757-199.909c16.481-14.515,81.051-45.586,118.267-60.472c-2.628,38.23,1.43,122.117,5.727,184.208
		c4.168-53.508,12.224-142.232,16.538-188.535c7.717-2.879,22.342-6.326,22.342-6.326S577.054,55.618,564.273,43.218z"/>
	<path fill="#BF840E" d="M774.593,685.874c84.251,3.166,237.446,23.028,282.974,12.798c0-118.272-125.352-297.214-135.096-363.802
		c-10.349-70.726-17.765-244.704-34.385-296.852C881.874,18.531,810.666,0,774.593,0c-36.085,0-107.29,18.531-113.506,38.018
		c-16.62,52.148-24.036,226.126-34.382,296.852c-9.744,66.587-135.094,239.909-136.611,363.573
		C535.633,708.673,690.331,689.04,774.593,685.874z"/>
	<linearGradient id="SVGID_8_" gradientUnits="userSpaceOnUse" x1="774.5884" y1="-488.2632" x2="774.5883" y2="876.5836">
		<stop  offset="5.000000e-006" style="stop-color:#F1991B"/>
		<stop  offset="0.1051" style="stop-color:#F2A223"/>
		<stop  offset="0.7008" style="stop-color:#FAD04B"/>
		<stop  offset="0.9994" style="stop-color:#FDE25B"/>
	</linearGradient>
	<path fill="url(#SVGID_8_)" d="M502.558,700.695c8.588-63.217,51.814-168.918,88.688-235.072
		c30.076-53.947,53.819-96.557,58.292-127.143c3.98-27.212,7.487-68.622,11.198-112.461c5.516-65.215,12.354-145.948,21.51-177.888
		c11.333-9.714,61.458-24.118,92.348-24.118c30.878,0,81.002,14.404,92.335,24.118c9.162,31.94,15.994,112.673,21.511,177.888
		c3.712,43.84,7.217,85.249,11.196,112.461c4.475,30.586,28.223,73.195,58.293,127.143c36.879,66.153,80.1,171.855,88.689,235.072
		C1000.186,706.592,548.989,706.592,502.558,700.695z"/>
	<linearGradient id="SVGID_9_" gradientUnits="userSpaceOnUse" x1="864.8071" y1="594.3252" x2="864.8071" y2="-432.2708">
		<stop  offset="0.0095" style="stop-color:#FDE25B"/>
		<stop  offset="0.8034" style="stop-color:#FFF99B"/>
		<stop  offset="0.9994" style="stop-color:#FFFFAB"/>
	</linearGradient>
	<path fill="url(#SVGID_9_)" d="M756.026,33.018c30.878,0,81.003,14.404,92.342,24.119c9.163,31.94,15.988,112.673,21.504,177.888
		c3.712,43.84,7.218,85.248,11.197,112.461c4.474,30.585,30.328,69.771,62.998,122.27c49.506,79.544,98.674,231.431,102.551,230.939
		c-8.59-63.217-51.811-168.918-88.689-235.072c-30.07-53.947-53.818-96.557-58.293-127.143
		c-3.979-27.212-7.484-68.622-11.196-112.461c-5.517-65.215-12.349-145.948-21.511-177.888
		c-11.333-9.714-61.457-24.118-92.335-24.118c-30.321,0-79.086,13.871-91.597,23.567C703.567,40.041,734.463,33.018,756.026,33.018z
		"/>
</g>
</svg>
