<?xml version="1.0" encoding="utf-8"?>
<!-- Generator: Adobe Illustrator 15.0.0, SVG Export Plug-In . SVG Version: 6.00 Build 0)  -->
<!DOCTYPE svg PUBLIC "-//W3C//DTD SVG 1.1//EN" "http://www.w3.org/Graphics/SVG/1.1/DTD/svg11.dtd">
<svg version="1.1" id="Capa_1" xmlns="http://www.w3.org/2000/svg" xmlns:xlink="http://www.w3.org/1999/xlink" x="0px" y="0px"
	 width="1397.1px" height="1161.177px" viewBox="0 0 1397.1 1161.177" enable-background="new 0 0 1397.1 1161.177"
	 xml:space="preserve">
<g>
	<circle fill="#333333" cx="41.021" cy="83.471" r="41.021"/>
	<circle fill="#333333" cx="1356.08" cy="83.471" r="41.021"/>
	<path opacity="0.4" fill="#FFFFFF" d="M1321.717,83.5c-6.002,97.975-44.098,677.463-48.084,721.238
		c-25.994,114.646-313.895,343.939-575.804,343.939c-261.906,0-540.764-227.209-566.76-341.857
		c-3.986-43.777-39.026-625.339-45.024-723.314L1321.717,83.5z"/>
	<path opacity="0.59" fill="#FFFFFF" d="M86.045,83.507c5.998,97.975,41.038,679.537,45.024,723.314
		c11.164,49.232,69.033,119.197,152.082,183.041V83.507H86.045z"/>
	<path opacity="0.59" fill="#FFFFFF" d="M1096.594,83.5v920.789c96.293-68.266,164.963-146.283,177.039-199.551
		c3.986-43.775,42.082-623.263,48.084-721.238H1096.594z"/>
	<path fill="#808080" d="M697.829,1161.178c-272.944,0-551.51-232.709-578.437-351.48l-0.27-1.699
		c-3.353-36.816-28.141-445.217-40.053-641.484l-5.001-82.211l23.954-1.588l5.001,82.222
		c11.813,194.674,36.307,598.206,39.918,639.831c25.978,109.684,297.847,331.406,554.887,331.406
		c256.644,0,538.394-225.928,563.931-333.494c4.287-49.08,42.035-622.952,47.98-719.971l23.953,1.588
		c-6.596,107.673-44.174,678.359-48.113,721.619l-0.271,1.695C1258.918,924.036,970.317,1161.178,697.829,1161.178z"/>
	<path fill="#333333" d="M1375.112,152.386c-450.344,26.563-901.433,26.563-1351.778,0C25.245,101.587,27.161,50.799,29.079,0
		c446.517,26.334,893.773,26.334,1340.289,0C1371.286,50.799,1373.204,101.587,1375.112,152.386z"/>
	<linearGradient id="SVGID_1_" gradientUnits="userSpaceOnUse" x1="42.1704" y1="86.6597" x2="1356.2778" y2="86.6597">
		<stop  offset="0.0095" style="stop-color:#333333"/>
		<stop  offset="0.5333" style="stop-color:#666666"/>
		<stop  offset="1" style="stop-color:#333333"/>
	</linearGradient>
	<path fill="url(#SVGID_1_)" d="M699.224,149.782c-218.082,0-439.042-6.337-657.053-18.848l4.051-107.396
		C262.896,35.973,482.48,42.274,699.224,42.274c216.746,0,436.33-6.301,653.003-18.737l4.051,107.396
		C1138.266,143.445,917.305,149.782,699.224,149.782z"/>
</g>
</svg>
