<?xml version="1.0" encoding="utf-8"?>
<!-- Generator: Adobe Illustrator 15.0.0, SVG Export Plug-In . SVG Version: 6.00 Build 0)  -->
<!DOCTYPE svg PUBLIC "-//W3C//DTD SVG 1.1//EN" "http://www.w3.org/Graphics/SVG/1.1/DTD/svg11.dtd">
<svg version="1.1" id="Capa_1" xmlns="http://www.w3.org/2000/svg" xmlns:xlink="http://www.w3.org/1999/xlink" x="0px" y="0px"
	 width="1341.652px" height="857.322px" viewBox="0 0 1341.652 857.322" enable-background="new 0 0 1341.652 857.322"
	 xml:space="preserve">
<g>
	<path fill="#BF840E" d="M37.817,738.402c-1.999-33.018,1.5-133.073,6.501-163.09c28.018-20.009,67.038-35.017,75.042-37.016
		c1.999,18.009,14.006,160.089,14.006,174.095C124.231,713.405,52.832,735.4,37.817,738.402z"/>
	<linearGradient id="SVGID_1_" gradientUnits="userSpaceOnUse" x1="150.1641" y1="692.8101" x2="-40.444" y2="557.7336">
		<stop  offset="5.000000e-006" style="stop-color:#F1991B"/>
		<stop  offset="0.636" style="stop-color:#F9C13B"/>
		<stop  offset="1" style="stop-color:#FDD349"/>
	</linearGradient>
	<path fill="url(#SVGID_1_)" d="M54.765,709.025c1.941-36.652,7.581-90.571,11.702-119.66c10.488-6.614,21.927-12.447,31.945-17.048
		c3.172,36.148,7.786,92.218,9.861,121.548c-8.243,2.264-19.329,5.41-34.46,9.737C67.698,705.35,61.097,707.238,54.765,709.025z"/>
	<path fill="#BF840E" d="M1303.851,738.402c1.998-33.018-1.5-133.073-6.502-163.09c-28.016-20.009-67.037-35.017-75.041-37.016
		c-2,18.009-14.006,160.089-14.006,174.095C1217.439,713.405,1288.837,735.4,1303.851,738.402z"/>
	
		<linearGradient id="SVGID_2_" gradientUnits="userSpaceOnUse" x1="-1193.0581" y1="692.813" x2="-1383.6721" y2="557.7324" gradientTransform="matrix(-1 0 0 1 -1.5557 0)">
		<stop  offset="5.000000e-006" style="stop-color:#F1991B"/>
		<stop  offset="0.636" style="stop-color:#F9C13B"/>
		<stop  offset="1" style="stop-color:#FDD349"/>
	</linearGradient>
	<path fill="url(#SVGID_2_)" d="M1286.904,709.025c-1.941-36.652-7.58-90.571-11.701-119.66
		c-10.49-6.614-21.93-12.447-31.945-17.048c-3.174,36.148-7.787,92.218-9.863,121.548c8.242,2.264,19.33,5.41,34.461,9.737
		C1273.97,705.35,1280.57,707.238,1286.904,709.025z"/>
	<path fill="#BF840E" d="M670.822,844.099c73.329,0,376.125,20.654,474.301,10.336c80.428-4.596,118.279-26.037,195.158-29.482
		c1.186-18.355,2.375-49.334,0-58.521c-17.732-14.914-77.654-62.348-80.797-134.586c-6.004-138.076-26.84-589.939-588.662-589.939
		S85.345,505.113,85.345,615.336c0,73.041-66.242,136.181-83.981,151.095c-2.363,9.188-1.18,40.166,0,58.521
		c76.881,3.445,114.724,24.887,195.165,29.482C294.703,864.753,597.487,844.099,670.822,844.099z"/>
	<linearGradient id="SVGID_3_" gradientUnits="userSpaceOnUse" x1="670.8306" y1="363.1982" x2="670.8306" y2="966.5281">
		<stop  offset="5.000000e-006" style="stop-color:#F1991B"/>
		<stop  offset="0.636" style="stop-color:#F9C13B"/>
		<stop  offset="1" style="stop-color:#FDD349"/>
	</linearGradient>
	<path fill="url(#SVGID_3_)" d="M1065.205,833.312c-77.275,0-181.818-4.719-265.81-8.514c-58.345-2.631-104.431-4.713-128.573-4.713
		s-70.233,2.082-128.577,4.713c-83.988,3.795-188.517,8.514-265.785,8.514h-0.013c-33.921-0.006-59.909-0.926-77.251-2.749
		c-39.133-2.271-66.529-8.255-95.531-14.592c-23.926-5.23-48.513-10.606-78.629-13.444c-0.346-10.516-0.357-19.211-0.118-24.786
		c27.027-27.173,79.257-98.69,78.073-171.551c-0.159-9.626-2.017-237.387,157.99-395.114
		C358.7,114.759,496.593,65.918,670.822,65.918c174.242,0,312.141,48.841,409.854,145.174
		c160.012,157.733,158.137,385.471,157.98,395.091c-1.191,72.873,51.08,144.425,78.094,171.581
		c0.236,5.505,0.217,14.199-0.137,24.763c-30.115,2.838-54.707,8.214-78.645,13.444c-28.996,6.337-56.387,12.328-94.299,14.491
		C1125.109,832.386,1099.119,833.312,1065.205,833.312z"/>
	<linearGradient id="SVGID_4_" gradientUnits="userSpaceOnUse" x1="669.6519" y1="873.9731" x2="671.8234" y2="741.5695">
		<stop  offset="0.0095" style="stop-color:#FDE25B"/>
		<stop  offset="0.8034" style="stop-color:#FFF99B"/>
		<stop  offset="0.9994" style="stop-color:#FFFFAB"/>
	</linearGradient>
	<path fill="url(#SVGID_4_)" d="M1156.121,816.481c-19.047,1.976-45.723,2.925-80.527,2.925c-79.309,0-186.607-4.842-272.814-8.735
		c-59.882-2.702-107.176-4.843-131.957-4.843c-24.779,0-72.079,2.141-131.959,4.843c-86.21,3.894-193.49,8.735-272.792,8.735h-0.012
		c-34.812-0.006-61.486-0.949-79.291-2.825c-40.159-2.328-161.883-18.72-161.731-14.054c30.117,2.838,54.704,8.214,78.629,13.444
		c29.001,6.337,56.397,12.321,95.531,14.592c17.342,1.823,43.33,2.743,77.251,2.749h0.013c77.268,0,181.796-4.719,265.785-8.514
		c58.344-2.631,104.435-4.713,128.577-4.713s70.229,2.082,128.573,4.713c83.991,3.795,188.534,8.514,265.81,8.514
		c33.914,0,59.904-0.926,78.465-2.85c37.912-2.163,65.303-8.154,94.299-14.491c23.938-5.23,48.529-10.606,78.645-13.444
		C1316.767,797.849,1195.031,814.259,1156.121,816.481z"/>
	<linearGradient id="SVGID_5_" gradientUnits="userSpaceOnUse" x1="670.6362" y1="-238.1323" x2="670.6362" y2="1124.6727">
		<stop  offset="5.000000e-006" style="stop-color:#F1991B"/>
		<stop  offset="0.2668" style="stop-color:#F6B836"/>
		<stop  offset="0.5337" style="stop-color:#FACF4A"/>
		<stop  offset="0.784" style="stop-color:#FCDD57"/>
		<stop  offset="0.9994" style="stop-color:#FDE25B"/>
	</linearGradient>
	<path fill="url(#SVGID_5_)" d="M1080.675,211.093c-16.627-16.392-34.508-31.294-53.439-44.93
		c-1.559-9.415-3.195-17.717-4.922-24.131c-16.48-14.515-81.051-45.586-118.266-60.472c0.404,5.933,0.633,13.074,0.742,20.953
		c-68.55-24.336-146.691-36.594-233.969-36.594c-87.263,0-165.4,12.258-233.951,36.588c0.111-7.873,0.34-15.02,0.745-20.947
		C400.4,96.445,335.83,127.517,319.349,142.032c-1.728,6.414-3.365,14.709-4.918,24.119c-18.936,13.631-36.817,28.533-53.449,44.925
		c-160.007,157.727-158.149,385.488-157.99,395.114c0.199,12.236-8.835,86.187,50.987,96.193
		c354.774-44.021,754.619-25.601,1029.246,4.004c55.688,6.004,47.633-81.782,55.436-104.745
		C1238.378,567.438,1230.369,358.648,1080.675,211.093z"/>
	<path fill="#BF840E" d="M904.048,81.56c37.215,14.886,101.785,45.957,118.266,60.472c10.205,37.867,17.744,135.923,17.756,199.909
		c9.662-69.923,10.279-168.198-1.746-218.873c-37.24-30.421-109.344-64.037-157.176-79.849
		c-12.781,12.399-21.708,27.689-21.708,27.689s14.626,3.447,22.343,6.326c4.313,46.302,12.369,135.027,16.537,188.535
		C902.617,203.677,906.673,119.79,904.048,81.56z"/>
	<path fill="#BF840E" d="M460.515,43.218C412.683,59.03,339.206,96.087,301.686,120.47c-12.024,50.677-9.75,151.548-0.094,221.471
		c0.012-63.985,7.551-162.042,17.757-199.909C335.83,127.517,400.4,96.445,437.616,81.56c-2.628,38.23,1.43,122.117,5.727,184.208
		c4.168-53.508,12.224-142.232,16.538-188.535c7.717-2.879,22.342-6.326,22.342-6.326S473.295,55.618,460.515,43.218z"/>
	<path fill="#BF840E" d="M670.834,685.875c84.251,3.166,237.446,23.027,282.974,12.797c0-118.272-125.352-297.214-135.096-363.801
		c-10.349-70.726-17.765-244.704-34.385-296.852C778.115,18.531,706.907,0,670.834,0c-36.085,0-107.29,18.531-113.506,38.018
		c-16.62,52.148-24.036,226.126-34.382,296.852c-9.744,66.587-135.094,239.909-136.611,363.573
		C431.875,708.673,586.572,689.041,670.834,685.875z"/>
	<linearGradient id="SVGID_6_" gradientUnits="userSpaceOnUse" x1="670.8296" y1="-488.2632" x2="670.8295" y2="876.5836">
		<stop  offset="5.000000e-006" style="stop-color:#F1991B"/>
		<stop  offset="0.1051" style="stop-color:#F2A223"/>
		<stop  offset="0.7008" style="stop-color:#FAD04B"/>
		<stop  offset="0.9994" style="stop-color:#FDE25B"/>
	</linearGradient>
	<path fill="url(#SVGID_6_)" d="M398.799,700.695c8.588-63.217,51.814-168.918,88.688-235.072
		c30.076-53.947,53.819-96.557,58.292-127.143c3.98-27.212,7.487-68.622,11.198-112.461c5.516-65.215,12.354-145.948,21.51-177.888
		c11.333-9.714,61.458-24.118,92.348-24.118c30.878,0,81.002,14.404,92.335,24.118c9.162,31.94,15.994,112.673,21.511,177.888
		c3.712,43.84,7.217,85.249,11.196,112.461c4.475,30.586,28.223,73.195,58.293,127.143c36.879,66.153,80.1,171.855,88.689,235.072
		C896.427,706.592,445.23,706.592,398.799,700.695z"/>
	<linearGradient id="SVGID_7_" gradientUnits="userSpaceOnUse" x1="761.0483" y1="594.3247" x2="761.0483" y2="-432.2705">
		<stop  offset="0.0095" style="stop-color:#FDE25B"/>
		<stop  offset="0.8034" style="stop-color:#FFF99B"/>
		<stop  offset="0.9994" style="stop-color:#FFFFAB"/>
	</linearGradient>
	<path fill="url(#SVGID_7_)" d="M652.267,33.018c30.878,0,81.003,14.404,92.342,24.119c9.163,31.94,15.988,112.673,21.504,177.888
		c3.712,43.84,7.218,85.248,11.197,112.461c4.474,30.585,30.328,69.771,62.998,122.27c49.506,79.544,98.674,231.431,102.551,230.939
		c-8.59-63.217-51.811-168.918-88.689-235.072c-30.07-53.947-53.818-96.557-58.293-127.143
		c-3.979-27.212-7.484-68.622-11.196-112.461c-5.517-65.215-12.349-145.948-21.511-177.888
		c-11.333-9.714-61.457-24.118-92.335-24.118c-30.321,0-79.086,13.871-91.597,23.567C599.809,40.041,630.705,33.018,652.267,33.018z
		"/>
</g>
</svg>
