<?xml version="1.0" encoding="utf-8"?>
<!-- Generator: Adobe Illustrator 15.0.0, SVG Export Plug-In . SVG Version: 6.00 Build 0)  -->
<!DOCTYPE svg PUBLIC "-//W3C//DTD SVG 1.1//EN" "http://www.w3.org/Graphics/SVG/1.1/DTD/svg11.dtd">
<svg version="1.1" id="Capa_1" xmlns="http://www.w3.org/2000/svg" xmlns:xlink="http://www.w3.org/1999/xlink" x="0px" y="0px"
	 width="1507.537px" height="1233.499px" viewBox="0 0 1507.537 1233.499" enable-background="new 0 0 1507.537 1233.499"
	 xml:space="preserve">
<g>
	<g>
		<path d="M23.286,1095.024C22.242,1078.116-2.193,679.93,8.359,593.996l0.604-2.755c26.74-83.354,252.555-340.675,310.47-392.33
			l19.979,22.407C286.351,268.641,64.376,521.834,37.983,599.096c-9.767,86.38,15.008,489.983,15.261,494.077L23.286,1095.024z"/>
	</g>
	<g>
		<path d="M1484.252,1095.024l-29.959-1.852c0.254-4.094,25.027-407.75,15.262-494.093
			c-26.994-80.025-230.371-342.82-283.01-389.768l19.977-22.407c57.758,51.515,265.553,321.722,292.051,404.336l0.605,2.755
			C1509.729,679.93,1485.295,1078.116,1484.252,1095.024z"/>
	</g>
	<path fill="#730E11" d="M1465.334,1017.169c-0.74,9.434-9,16.498-18.439,15.758l-67.447-5.275c-9.439-0.738-16.504-9-15.76-18.438
		l7.199-92.148c0.744-9.438,9.004-16.502,18.436-15.766l67.459,5.277c9.436,0.738,16.496,9,15.752,18.443L1465.334,1017.169z"/>
	<path d="M1457.078,896.8c0.105-1.42,1.771-2.451,3.705-2.305l43.43,3.295c1.947,0.146,3.424,1.422,3.318,2.842l-11.25,148.059
		c-0.105,1.426-1.764,2.457-3.711,2.324l-43.43-3.297c-1.928-0.158-3.418-1.436-3.313-2.859L1457.078,896.8z"/>
	<path fill="#730E11" d="M1294.949,670.867c33.016,10.506,112.561,64.535,158.586,114.567
		c12.01,82.546-31.018,350.188-58.031,398.216c-32.016,18.008-108.059,38.018-150.084,32.016
		C1248.424,1193.151,1291.947,688.876,1294.949,670.867z"/>
	<path fill="#AB181D" d="M1271.855,1192.442c3.5-37.52,10.148-112.287,19.346-215.994c8.68-97.859,18.955-213.803,24.189-269.404
		c33.195,19,81.35,53.948,115.246,89.099c8.066,84.52-30.742,316.502-53.244,369.842
		C1352.449,1177.892,1306.516,1190.39,1271.855,1192.442z"/>
	<path fill="#C9181E" d="M1430.637,796.144c-33.896-35.151-82.051-70.099-115.246-89.099
		c-5.234,55.601-15.51,171.544-24.189,269.404c-0.244,2.789-0.486,5.469-0.725,8.213c42.027,6.172,83.383,9.006,124.684,10.131
		C1426.84,918.96,1434.707,838.788,1430.637,796.144z"/>
	<path d="M1298.689,1211.196c-1.701,14.041-14.797,23.914-29.195,22.084c-9.416-1.184-18.838-2.367-28.252-3.545
		c-14.416-1.807-24.688-14.465-23.029-28.301c20.656-171.93,33.975-345.234,39.813-519.446c0.469-14,12.564-25.016,27.08-24.588
		c9.484,0.3,18.979,0.604,28.463,0.909c14.51,0.446,25.938,12.358,25.467,26.575
		C1333.113,861.39,1319.619,1036.985,1298.689,1211.196z"/>
	<linearGradient id="SVGID_1_" gradientUnits="userSpaceOnUse" x1="1289.3184" y1="865.7461" x2="1316.3328" y2="364.4773">
		<stop  offset="0.0095" style="stop-color:#000000"/>
		<stop  offset="0.4394" style="stop-color:#404040"/>
		<stop  offset="0.9994" style="stop-color:#999999"/>
	</linearGradient>
	<path fill="url(#SVGID_1_)" d="M1327.035,684.485c0.117-3.559-1.191-6.982-3.682-9.632c-2.631-2.808-6.238-4.421-10.174-4.543
		l-28.889-0.914c-7.758,0-14.018,5.709-14.264,12.997c-2.34,69.771-5.967,139.81-10.746,209.822l57.16,0.445
		C1321.143,823.2,1324.715,753.71,1327.035,684.485z"/>
	<path fill="#730E11" d="M42.205,1017.169c0.738,9.434,9,16.498,18.438,15.758l67.449-5.275c9.439-0.738,16.503-9,15.759-18.438
		l-7.199-92.148c-0.745-9.438-9.005-16.502-18.438-15.766l-67.455,5.277c-9.439,0.738-16.497,9-15.752,18.443L42.205,1017.169z"/>
	<path fill="#730E11" d="M213.362,670.867c-33.018,10.506-112.562,64.535-158.588,114.567
		c-12.007,82.546,31.018,350.188,58.033,398.216c32.016,18.008,108.059,38.018,150.082,32.016
		C259.887,1193.151,216.363,688.876,213.362,670.867z"/>
	<path fill="#AB181D" d="M236.455,1192.442c-3.5-37.52-10.149-112.287-19.346-215.994c-8.677-97.859-18.955-213.803-24.189-269.404
		c-33.194,19-81.35,53.948-115.247,89.099c-8.067,84.52,30.743,316.502,53.244,369.842
		C155.861,1177.892,201.795,1190.39,236.455,1192.442z"/>
	<path fill="#C9181E" d="M77.672,796.144c33.897-35.151,82.053-70.099,115.247-89.099c5.235,55.601,15.512,171.544,24.189,269.404
		c0.246,2.789,0.485,5.469,0.726,8.213c-42.028,6.172-83.383,9.006-124.685,10.131C81.472,918.96,73.604,838.788,77.672,796.144z"/>
	<path d="M209.622,1211.196c1.7,14.041,14.796,23.914,29.195,22.084c9.415-1.184,18.836-2.367,28.252-3.545
		c14.416-1.807,24.687-14.465,23.029-28.301c-20.654-171.93-33.974-345.234-39.813-519.446c-0.469-14-12.563-25.016-27.079-24.588
		c-9.486,0.3-18.979,0.604-28.463,0.909c-14.51,0.446-25.937,12.358-25.468,26.575
		C175.197,861.39,188.692,1036.985,209.622,1211.196z"/>
	
		<linearGradient id="SVGID_2_" gradientUnits="userSpaceOnUse" x1="-48.48" y1="865.7461" x2="-21.4656" y2="364.4773" gradientTransform="matrix(-1 0 0 1 169.0117 0)">
		<stop  offset="0.0095" style="stop-color:#000000"/>
		<stop  offset="0.4394" style="stop-color:#404040"/>
		<stop  offset="0.9994" style="stop-color:#999999"/>
	</linearGradient>
	<path fill="url(#SVGID_2_)" d="M179.776,684.485c-0.118-3.559,1.189-6.982,3.681-9.632c2.632-2.808,6.238-4.421,10.171-4.543
		l28.891-0.914c7.757,0,14.018,5.709,14.264,12.997c2.339,69.771,5.969,139.81,10.746,209.822l-57.16,0.445
		C185.667,823.2,182.097,753.71,179.776,684.485z"/>
	<g>
		<path d="M264.882,315.172c-8.776,0-17.57-3.518-24.505-10.641c-14.575-14.961-15.418-40.147-1.881-56.263
			C310.329,162.775,444.042,3.605,747.766,0c222.783,2.645,393.291,78.423,522.049,231.677
			c13.539,16.116,12.693,41.308-1.881,56.269c-14.568,14.967-37.367,14.03-50.904-2.081
			c-73.1-87.019-201.279-203.063-469.264-206.246c-250.919,2.99-367.227,116.589-456.483,222.831
			C284.188,310.893,274.543,315.172,264.882,315.172z"/>
		<linearGradient id="SVGID_3_" gradientUnits="userSpaceOnUse" x1="754.1553" y1="-21.0117" x2="754.1553" y2="345.3859">
			<stop  offset="0.0095" style="stop-color:#000000"/>
			<stop  offset="0.9995" style="stop-color:#333333"/>
		</linearGradient>
		<path fill="url(#SVGID_3_)" d="M264.882,303.166c-5.856,0-11.501-2.491-15.905-7.011c-10.194-10.464-10.786-28.855-1.29-40.165
			c70.615-84.04,202.031-240.442,500.219-243.983c218.539,2.598,386.344,76.976,512.717,227.392
			c9.498,11.31,8.904,29.706-1.289,40.171c-4.402,4.52-10.049,7.011-15.9,7.011c-6.525,0-12.637-2.996-17.211-8.437
			c-74.619-88.823-205.385-207.289-478.316-210.53C491.558,70.668,373.06,186.448,282.089,294.729
			C277.517,300.17,271.408,303.166,264.882,303.166z"/>
	</g>
	<path d="M50.459,896.8c-0.106-1.42-1.771-2.451-3.706-2.305l-43.43,3.295c-1.946,0.146-3.424,1.422-3.318,2.842l11.25,148.059
		c0.105,1.426,1.765,2.457,3.71,2.324l43.431-3.297c1.928-0.158,3.417-1.436,3.312-2.859L50.459,896.8z"/>
</g>
</svg>
