<?xml version="1.0" encoding="utf-8"?>
<!-- Generator: Adobe Illustrator 15.0.0, SVG Export Plug-In . SVG Version: 6.00 Build 0)  -->
<!DOCTYPE svg PUBLIC "-//W3C//DTD SVG 1.1//EN" "http://www.w3.org/Graphics/SVG/1.1/DTD/svg11.dtd">
<svg version="1.1" id="Capa_4" xmlns="http://www.w3.org/2000/svg" xmlns:xlink="http://www.w3.org/1999/xlink" x="0px" y="0px"
	 width="600px" height="800px" viewBox="0 0 600 800" enable-background="new 0 0 600 800" xml:space="preserve">
<rect fill="#FFFFFF" width="600" height="800"/>
<g id="_x30_4">
	<g>
		<g>
			<path fill="#793F07" d="M321.005,700.322c0.525,8.042-3.27,15.251-5.783,23.875c-1.816,6.236-1.484,11.412,1.053,14.576
				c2.713,3.386,13.402,4.021,21.025,2.514c4.396-0.87,13.666-1.006,17.871,0c4.205,1.005,15.166,3.285,22,3.361
				c5.52,0.062,10.957-0.817,10.957-0.817s9.059,2.132,14.064,0.981c7.115-1.636,9.404-9.568,7.932-11.285
				c-0.736-0.859-7.295-1.427-14.473-3.681c-7.18-2.253-13.75-7.911-17.615-11.43c-5.52-5.027-16.559-10.053-20.238-16.085
				C348.862,699.316,327.312,701.327,321.005,700.322z"/>
			<linearGradient id="SVGID_1_" gradientUnits="userSpaceOnUse" x1="279.9893" y1="720.0859" x2="381.3657" y2="723.7788">
				<stop  offset="6.030000e-006" style="stop-color:#BE7A50"/>
				<stop  offset="0.1052" style="stop-color:#C27F53"/>
				<stop  offset="0.6603" style="stop-color:#D69863"/>
				<stop  offset="1" style="stop-color:#DDA169"/>
			</linearGradient>
			<path fill="url(#SVGID_1_)" d="M388.618,741.214c0,0-5.943,1.104-11.447,1.146c-5.51,0.042-11.285-1.146-21.262-3.763
				c-3.48-0.913-12.447-0.741-19.215,0.083c-12.232,1.49-17.266-0.928-17.918-1.74c-1.861-2.322-2.049-6.672-0.516-11.934
				c0.678-2.324,1.465-4.583,2.227-6.77c1.713-4.914,3.35-9.607,3.666-14.642c1.113,0.039,2.428,0.058,4.004,0.058
				c1.465,0,3.049-0.016,4.703-0.03c1.787-0.017,3.66-0.033,5.555-0.033c5.877,0,13.016,0.154,17.35,1.295
				c2.271,4.766,7.689,7.06,12.432,10.183c2.947,1.941,5.732,3.773,7.664,5.534c8.016,7.3,17.338,12.764,30.584,14.235
				c1.166,0.245,2.086,2.493-1.84,6.173C400.188,743.953,392.481,741.827,388.618,741.214z"/>
		</g>
		<g>
			<path fill="#793F07" d="M320.585,591.244c-6.625,7.604-16.682,21.916-16.682,37.288c0,11.284,4.293,22.937,10.18,33.976
				c3.066,11.898,7.115,31.4,6.658,43.092c13.83,0,33.771,2.66,40.564,2.66c-9.811-37.53-0.879-108.215,1.225-120.279
				C349.388,587.479,326.366,592.249,320.585,591.244z"/>
			<linearGradient id="SVGID_2_" gradientUnits="userSpaceOnUse" x1="303.6523" y1="651.0078" x2="362.7822" y2="651.0078">
				<stop  offset="6.030000e-006" style="stop-color:#BE7A50"/>
				<stop  offset="0.1052" style="stop-color:#C27F53"/>
				<stop  offset="0.6603" style="stop-color:#D69863"/>
				<stop  offset="1" style="stop-color:#DDA169"/>
			</linearGradient>
			<path fill="url(#SVGID_2_)" d="M358.2,708.178c-5.725,1.636-27.313,5.889-34.346-0.653c0.158-16.565-3.777-34.402-7.318-46.856
				c-6.256-11.162-8.955-21.202-9.199-32.872c-0.244-11.775,9.568-26.249,14.871-34.135c0.262,0.008,0.537,0.011,0.824,0.011
				c3.623,0,8.986-0.538,15.197-1.162c6.814-0.684,14.482-1.453,20.648-1.547C356.61,606.117,348.878,671.381,358.2,708.178z"/>
			<path fill="#793F07" d="M332.358,614.549c5.643,17.908,2.945,32.3-4.906,46.364C331.132,647.912,336.04,632.457,332.358,614.549z
				"/>
			<path fill="#793F07" d="M314.942,657.97c2.697,4.825,5.479,7.114,7.521,8.341c-4.332-1.146-6.541-2.78-7.604-4.089
				C314.86,660.995,314.696,659.933,314.942,657.97z"/>
		</g>
		<g>
			<path fill="#793F07" d="M321.228,570.725c-0.73,5.445-4.322,22.481-5.305,26.407c22.324-2.699,36.795,0.401,45.381-1.107
				c3.854-7.539,6.57-17.761,7.533-22.115c-0.455-5.781-1.551-12.148-2.098-13.656C354.677,561.258,326.392,570.626,321.228,570.725
				z"/>
			<linearGradient id="SVGID_3_" gradientUnits="userSpaceOnUse" x1="315.4648" y1="571.0381" x2="365.8346" y2="589.6815">
				<stop  offset="6.030000e-006" style="stop-color:#BE7A50"/>
				<stop  offset="0.1052" style="stop-color:#C27F53"/>
				<stop  offset="0.6603" style="stop-color:#D69863"/>
				<stop  offset="1" style="stop-color:#DDA169"/>
			</linearGradient>
			<path fill="url(#SVGID_3_)" d="M319.358,597.867c0.98-3.435,3.145-11.487,3.662-15.487c0.43-3.315,0.852-6.579,1.172-9.012
				c3.047-0.582,7.713-1.829,14.389-3.637c8.459-2.288,18.709-5.063,25.551-6.117c0.436,2.514,0.99,6.561,1.32,10.631
				c-0.205,1.864-3.385,11.3-6.076,19.265c-3.416,2.011-10.537,5.529-18.398,5.529C340.978,599.039,323.634,600.172,319.358,597.867
				z"/>
			<linearGradient id="SVGID_4_" gradientUnits="userSpaceOnUse" x1="315.8545" y1="569.0547" x2="360.8893" y2="585.7234">
				<stop  offset="6.030000e-006" style="stop-color:#BE7A50"/>
				<stop  offset="0.5056" style="stop-color:#CF905E"/>
				<stop  offset="1" style="stop-color:#DDA169"/>
			</linearGradient>
			<path fill="url(#SVGID_4_)" d="M364.132,563.614c-6.842,1.055-17.092,3.829-25.551,6.117c-3.777,1.022-6.891,1.859-9.453,2.504
				c-1.682,8.612-1.98,15.559-2.166,24.241c6.277,0.819,14.016,2.563,14.016,2.563c7.861,0,14.982-3.519,18.398-5.529
				c2.691-7.965,5.871-17.4,6.076-19.265C365.122,570.175,364.567,566.128,364.132,563.614z"/>
		</g>
		<g>
			<path fill="#793F07" d="M387.562,387.141c5.732,38.761,4.164,138.358-23.102,182.516c-14.838,9.158-38.109,9.158-43.506,7.85
				c-3.371-24.858-12.76-174.99-14.107-188.074C324.073,389.432,370.478,388.981,387.562,387.141z"/>
			<linearGradient id="SVGID_5_" gradientUnits="userSpaceOnUse" x1="354.4121" y1="488.1455" x2="254.814" y2="490.6989">
				<stop  offset="6.030000e-006" style="stop-color:#BE7A50"/>
				<stop  offset="0.1052" style="stop-color:#C27F53"/>
				<stop  offset="0.6603" style="stop-color:#D69863"/>
				<stop  offset="1" style="stop-color:#DDA169"/>
			</linearGradient>
			<path fill="url(#SVGID_5_)" d="M322.81,586.011c0.338-4.906,0.764-9.764,0.887-11.055c-2.203-19.16-5.928-83.604-8.676-131.174
				c-1.363-23.57-2.482-42.926-3.086-51.09c24.893-0.126,61.332-1.604,73.002-2.389c5.52,42.602,1.266,138.337-22.699,177.226
				C349.452,575.871,332.739,586.011,322.81,586.011z"/>
			<linearGradient id="SVGID_6_" gradientUnits="userSpaceOnUse" x1="289.6177" y1="488.3203" x2="382.4453" y2="488.3203">
				<stop  offset="6.030000e-006" style="stop-color:#BE7A50"/>
				<stop  offset="0.5685" style="stop-color:#D29360"/>
				<stop  offset="1" style="stop-color:#DDA169"/>
			</linearGradient>
			<path fill="url(#SVGID_6_)" d="M384.937,390.304c-7.959,0.536-34.078,3.175-53.559,3.706
				c-2.984,63.979-3.27,154.386-4.416,192.328c10.305-1.963,27.477-12.512,35.275-18.809
				C386.202,528.641,390.456,432.905,384.937,390.304z"/>
		</g>
		<g>
			<path fill="#793F07" d="M331.132,687.898c-2.207,5.52-4.17,15.455-3.924,17.172c0.297,2.074,7.605,5.888,10.303,6.378
				C335.548,704.334,332.114,691.578,331.132,687.898z"/>
			<linearGradient id="SVGID_7_" gradientUnits="userSpaceOnUse" x1="322.0508" y1="705.6748" x2="341.3499" y2="696.5161">
				<stop  offset="6.030000e-006" style="stop-color:#BE7A50"/>
				<stop  offset="1" style="stop-color:#DDA169"/>
			</linearGradient>
			<path fill="url(#SVGID_7_)" d="M337.921,711.449c-3.436-1.391-7.77-5.643-8.588-7.114c-0.244-3.271,0.863-12.023,1.963-16.354
				C332.417,692.136,336.802,707.358,337.921,711.449z"/>
		</g>
	</g>
	<path fill="#793F07" d="M381.751,343.639c2.943,7.195,6.703,37.941,6.049,52.334c-5.559,0.326-41.703-0.981-47.59-0.49
		c0-5.397-1.473-48.1-1.473-52.498C342.009,342.984,378.806,343.639,381.751,343.639z"/>
	<linearGradient id="SVGID_8_" gradientUnits="userSpaceOnUse" x1="341.7373" y1="369.5215" x2="384.9336" y2="369.5215">
		<stop  offset="6.030000e-006" style="stop-color:#BE7A50"/>
		<stop  offset="0.1052" style="stop-color:#C27F53"/>
		<stop  offset="0.6603" style="stop-color:#D69863"/>
		<stop  offset="1" style="stop-color:#DDA169"/>
	</linearGradient>
	<path fill="url(#SVGID_8_)" d="M384.815,393.082c-4.023,0-10.855-0.148-18.09-0.305c-7.965-0.172-16.201-0.351-21.566-0.351
		c-0.758,0-1.443,0.004-2.055,0.011c-0.119-5.273-0.436-15.517-0.744-25.492c-0.264-8.482-0.516-16.61-0.623-20.984
		c4.195,0.059,11.877,0.185,19.371,0.307c7.629,0.125,14.932,0.245,18.525,0.293c2.467,8.546,5.414,32.586,5.297,46.521
		C384.892,393.082,384.854,393.082,384.815,393.082z"/>
	<path fill="#793F07" d="M269.886,341.677c-5.232,8.831-11.121,37.614-11.447,52.661c13.084,2.289,64.926,1.961,68.523,1.635
		c-0.49-9.813-0.98-50.862-0.98-53.479C321.401,342.821,273.483,342.33,269.886,341.677z"/>
	<linearGradient id="SVGID_9_" gradientUnits="userSpaceOnUse" x1="265.5176" y1="360.3584" x2="307.712" y2="373.4421">
		<stop  offset="0" style="stop-color:#AD673B"/>
		<stop  offset="1" style="stop-color:#BE7A50"/>
	</linearGradient>
	<path fill="url(#SVGID_9_)" d="M308.894,393.26c-8.574,0-35.723-0.111-47.41-1.465c0.822-14.846,5.797-37.996,10.096-47.022
		c8.205,0.483,34.457,0.769,46.061,0.769c2.211,0,4.021-0.008,5.424-0.025c0.098,9.244,0.459,36.326,0.84,47.622
		C320.866,393.203,315.618,393.26,308.894,393.26z"/>
	<g>
		<path fill="#793F07" d="M387.065,204.627c-20.361-6.624-22.08-22.324-40.479-28.457c0.02,7.523-2.578,32.927-2.893,37.834
			c12.104,0.297,40.891,1.203,42.852,1.198C386.866,211.932,387.071,207.244,387.065,204.627z"/>
		
			<linearGradient id="SVGID_10_" gradientUnits="userSpaceOnUse" x1="322.458" y1="196.1074" x2="370.3418" y2="196.1074" gradientTransform="matrix(1 -0.0026 0.0026 1 -0.1916 0.6201)">
			<stop  offset="6.030000e-006" style="stop-color:#BE7A50"/>
			<stop  offset="0.4087" style="stop-color:#C88758"/>
			<stop  offset="1" style="stop-color:#DDA169"/>
		</linearGradient>
		<path fill="url(#SVGID_10_)" d="M383.741,212.196c-3.322-0.087-30.891-0.897-36.896-1.056c0.057-0.791,0.117-23.441,0.479-31.781
			c4.662,1.963,10.4,5.91,15.037,10.96c6.176,6.729,13.131,11.985,21.27,16.515C383.644,207.107,383.735,211.428,383.741,212.196z"
			/>
	</g>
	<g>
		<path fill="#793F07" d="M238.894,191.625c18.645-0.49,42.195-19.625,60.348-18.89c2.453,5.888,11.039,33.363,13.002,39.251
			c-10.303,0.49-65.744-2.453-68.688-2.453C243.556,202.664,239.386,197.021,238.894,191.625z"/>
		<linearGradient id="SVGID_11_" gradientUnits="userSpaceOnUse" x1="216.0625" y1="192.5098" x2="280.6621" y2="192.5098">
			<stop  offset="0" style="stop-color:#AD673B"/>
			<stop  offset="1" style="stop-color:#BE7A50"/>
		</linearGradient>
		<path fill="url(#SVGID_11_)" d="M308.138,209.095c-11.322-0.068-36.844-1.255-52.273-1.974c-4.383-0.203-7.486-0.348-9.504-0.434
			c-0.322-3.451-1.15-6.876-1.9-9.977c-0.336-1.389-0.662-2.737-0.922-3.998c10.188-0.816,19.676-5.111,28.883-9.279
			c8.346-3.776,16.764-7.133,24.123-7.509C299.276,182.943,305.126,200.461,308.138,209.095z"/>
	</g>
	<g>
		<path fill="#793F07" d="M287.876,127.107c-0.303,1.959-0.164,40.34,0.117,51.162c4.396,16.6,12.455,38.842,12.182,41.02
			c7.176,1.41,38.137-1.998,42.711-1.606c1.047-4.647,6.369-22.274,7.502-36.243c-0.816-21.922-2.525-45.332-2.492-47.627
			C339.065,133.688,292.122,127.494,287.876,127.107z"/>
		<linearGradient id="SVGID_12_" gradientUnits="userSpaceOnUse" x1="343.4072" y1="178.6089" x2="300.4769" y2="173.2119">
			<stop  offset="0" style="stop-color:#AD673B"/>
			<stop  offset="1" style="stop-color:#BE7A50"/>
		</linearGradient>
		<path fill="url(#SVGID_12_)" d="M348.604,215.151c-2.893-0.071-7.391-0.136-13.313-0.22l-0.664-0.01
			c-13.469-0.189-34.926-0.492-42.969-1.168c0.107-6.598-1.25-76.068-1.242-83.178c1.24,0.129,44.865,6.049,55.328,6.675
			C346.062,149.951,347.806,198.635,348.604,215.151z"/>
		<linearGradient id="SVGID_13_" gradientUnits="userSpaceOnUse" x1="282.2451" y1="165.605" x2="337.39" y2="177.6564">
			<stop  offset="6.030000e-006" style="stop-color:#BE7A50"/>
			<stop  offset="1" style="stop-color:#DDA169"/>
		</linearGradient>
		<path fill="url(#SVGID_13_)" d="M345.745,137.251c-2.125-0.128-0.326,0.14-4.555-0.331c1.852,15.59-5.504,33.324-12.756,38.27
			c-8.504,3.271-22.16,2.534-28.703-1.718c0.574,7.851,5.152,26.249,7.115,39.741c8.174,0.189,20.924,1.612,27.781,1.709l0.664,0.01
			c5.922,0.084,10.42,0.148,13.313,0.22C347.806,198.635,346.062,149.951,345.745,137.251z"/>
	</g>
	<g>
		<g>
			<path fill="#793F07" d="M410.829,311.566c4.906,11.285,12.143,23.482,14.719,35.326c6.104,28.068,3.484,58.071,6.705,69.343
				c-2.617,0.654-25.973,0.998-27.279,1.325c-10.795-36.307-27.998-55.622-32.578-94.873
				C386.134,318.109,406.577,312.549,410.829,311.566z"/>
			<linearGradient id="SVGID_14_" gradientUnits="userSpaceOnUse" x1="353.0488" y1="365.2271" x2="406.123" y2="365.2271">
				<stop  offset="0" style="stop-color:#AD673B"/>
				<stop  offset="1" style="stop-color:#BE7A50"/>
			</linearGradient>
			<path fill="url(#SVGID_14_)" d="M407.427,415.436c-4.234-13.592-8.838-25.046-13.883-36.054
				c-7.705-16.81-14.998-32.72-17.926-54.654c11.801-3.827,27.121-8.06,33.525-9.709c1.219,2.679,2.539,5.406,3.824,8.062
				c3.916,8.084,7.965,16.443,9.703,24.438c3.443,15.837,4.072,32.436,4.576,45.772c0.316,8.392,0.58,15.358,1.445,20.442
				c-3.539,0.341-9.434,0.771-13.414,1.062C411.753,415.052,408.897,415.313,407.427,415.436z"/>
			<linearGradient id="SVGID_15_" gradientUnits="userSpaceOnUse" x1="379.0605" y1="367.6621" x2="429.1832" y2="363.6523">
				<stop  offset="6.030000e-006" style="stop-color:#BE7A50"/>
				<stop  offset="0.5335" style="stop-color:#D0915F"/>
				<stop  offset="1" style="stop-color:#DDA169"/>
			</linearGradient>
			<path fill="url(#SVGID_15_)" d="M429.319,413.696c-0.863-5.083-1.756-12.015-2.072-20.406
				c-0.504-13.337-1.133-29.936-4.576-45.772c-1.738-7.994-5.787-16.354-9.703-24.438c-1.285-2.655-2.605-5.383-3.824-8.062
				c-1.752,0.451-1.473,14.229-5.889,22.079c-7.85,1.308-10.303,15.699-9.076,23.059c3.271,24.531,9.648,44.156,13.574,54.951
				C410.042,415.761,425.782,414.038,429.319,413.696z"/>
		</g>
		<g>
			<path fill="#793F07" d="M405.759,251.383c3.271,8.832,9.158,48.736,8.832,64.764c-1.309,7.523-9.863,19.233-12.104,19.952
				c-4.578,0-20.328-10.041-23.273-15.929c-2.289-15.699-2.893-71.404-2.893-74.674
				C385.153,247.785,403.144,250.075,405.759,251.383z"/>
			<linearGradient id="SVGID_16_" gradientUnits="userSpaceOnUse" x1="360.6445" y1="289.123" x2="398.1089" y2="289.123">
				<stop  offset="0" style="stop-color:#AD673B"/>
				<stop  offset="1" style="stop-color:#BE7A50"/>
			</linearGradient>
			<path fill="url(#SVGID_16_)" d="M401.784,333.908c-2.943,0-9.67-0.816-19.707-7.769c-1.838-14.94-2.693-63.827-2.789-76.933
				c5.568-9.01,16.117-4.349,24.145,4.5c3.277,10.772,8.461,47.283,8.219,62.146C410.476,321.99,404.106,331.809,401.784,333.908z"
				/>
			<linearGradient id="SVGID_17_" gradientUnits="userSpaceOnUse" x1="363.877" y1="293.6406" x2="401.7585" y2="287.9584">
				<stop  offset="6.030000e-006" style="stop-color:#BE7A50"/>
				<stop  offset="0.4606" style="stop-color:#CA895A"/>
				<stop  offset="1" style="stop-color:#DDA169"/>
			</linearGradient>
			<path fill="url(#SVGID_17_)" d="M411.651,315.854c0.242-14.863-4.941-51.374-8.219-62.146c-5.348-5.895-8.791-10.454-14.16-9.83
				c1.963,28.129-1.471,48.736,2.291,73.268c1.152,4.037,4.252,14.719,7.832,16.598c0.959,0.123,1.764,0.166,2.389,0.166
				C404.106,331.809,410.476,321.99,411.651,315.854z"/>
		</g>
		<g>
			<path fill="#793F07" d="M368.503,198.412c34.834,1.635,51.32,36.126,38.891,69.488c-7.85-24.531-47.426-53.151-50.697-55.768
				c1.574-1.378,1.305-7.58,3.139-11.104C361.062,200.783,366.335,198.575,368.503,198.412z"/>
			<linearGradient id="SVGID_18_" gradientUnits="userSpaceOnUse" x1="286.4268" y1="248.6489" x2="401.8896" y2="225.4256">
				<stop  offset="6.030000e-006" style="stop-color:#BE7A50"/>
				<stop  offset="0.4676" style="stop-color:#CE8E5D"/>
				<stop  offset="1" style="stop-color:#DDA169"/>
			</linearGradient>
			<path fill="url(#SVGID_18_)" d="M406.116,260.582c-4.336-4.57-15.035-13.533-20.432-17.949
				c-14.725-12.047-24.529-27.533-28.58-31.645c0.49-1.963-0.49-10.059-0.246-12.512c15.865-1.717,36.043,8.705,43.559,19.523
				C408.493,229.627,410.521,245.262,406.116,260.582z"/>
		</g>
	</g>
	<g>
		<path fill="#793F07" d="M222.458,204.136c3.434,68.688,28.947,82.427,41.213,104.015c4.416,25.021-3.926,39.25,1.963,49.063
			c8.832,14.064,48.408,15.537,51.025,31.4c0.703,5.27,1.963,41.377,1.963,48.082c2.453,0,32.871-0.163,35.324-0.163
			c1.309-6.542,4.906-37.288,6.869-47.755c2.289-10.141,26.494-19.299,27.967-26.658c0.164-8.341-6.869-40.232-5.396-68.688
			c2.023-6.439,4.17-16.447,5.52-27.476c-0.152-17.746,0.695-39.25-2.576-52.742C381.913,213.213,227.854,204.136,222.458,204.136z"
			/>
		<linearGradient id="SVGID_19_" gradientUnits="userSpaceOnUse" x1="153.896" y1="376.2031" x2="295.8524" y2="317.3271">
			<stop  offset="0" style="stop-color:#AD673B"/>
			<stop  offset="1" style="stop-color:#BE7A50"/>
		</linearGradient>
		<path fill="url(#SVGID_19_)" d="M321.528,433.741c-0.215-11.021-23.166-44.585-28.092-53.142
			c-6.215-10.794-20.451-17.215-25.311-24.952c-2.402-4.007-1.857-9.421-1.102-16.915c0.814-8.088,1.828-18.154-0.455-31.094
			l-0.088-0.502l-0.25-0.441c-2.928-5.151-6.547-9.826-10.379-14.774c-12.156-15.7-27.223-35.163-30.277-84.769
			c11.463,0.319,51.258,1.643,86.904,2.827c33.771,1.122,62.523,3.104,71.52,3.356c2.66,13.712,2.943,34.221,2.105,52.279
			c-1.592,11.118-3.65,20.959-5.527,26.934l-0.113,0.356l-0.02,0.374c-1.037,20.09,1.406,39.448,2.867,51.014
			c0.582,4.612,2.027,15.515,2.035,17.336c-1.354,5.271-6.867,8.504-10.793,14.719c-0.746,1.181-4.152,26.653-5.152,37.288
			c-0.656,6.98-17.457,16.104-17.971,19.961C348.122,433.611,324.894,433.727,321.528,433.741z"/>
		<linearGradient id="SVGID_20_" gradientUnits="userSpaceOnUse" x1="225.021" y1="333.9912" x2="405.5078" y2="343.1503">
			<stop  offset="6.030000e-006" style="stop-color:#BE7A50"/>
			<stop  offset="0.146" style="stop-color:#CE8E5D"/>
			<stop  offset="0.2976" style="stop-color:#D99C66"/>
			<stop  offset="0.43" style="stop-color:#DDA169"/>
		</linearGradient>
		<path fill="url(#SVGID_20_)" d="M266.124,272.824c-0.246,10.549,11.006,24.662,11.285,39.006
			c0.494,25.424,0.654,51.434,6.09,57.773c3.846,3.225,7.506,6.773,9.938,10.996c4.926,8.557,27.877,42.121,28.092,53.142
			c3.365-0.015,26.594-0.13,29.902-0.145c0.514-3.857,17.314-12.98,17.971-19.961c1-10.635,4.406-36.107,5.152-37.288
			c3.926-6.215,9.439-9.447,10.793-14.719c-0.008-1.821-1.453-12.724-2.035-17.336c-1.461-11.565-3.904-30.924-2.867-51.014
			l0.02-0.374l0.113-0.356c1.877-5.975,3.936-15.815,5.527-26.934c0.223-4.806-0.063-13.326-0.021-18.304
			C352.808,267.328,307.337,282.883,266.124,272.824z"/>
		<ellipse fill="#793F07" cx="341.313" cy="345.928" rx="2.086" ry="4.906"/>
	</g>
	<g>
		<path fill="#793F07" d="M203.753,219.775c-10.303,9.813-46.119,64.271-53.969,78.5c11.283,1.963,54.459,10.059,62.309,10.059
			c12.266-20.607,30.584-59.693,34.018-74.902C241.368,223.619,214.546,215.359,203.753,219.775z"/>
		<linearGradient id="SVGID_21_" gradientUnits="userSpaceOnUse" x1="232.0796" y1="269.2192" x2="165.8442" y2="240.2719">
			<stop  offset="6.030000e-006" style="stop-color:#BE7A50"/>
			<stop  offset="0.3396" style="stop-color:#CE8E5D"/>
			<stop  offset="0.6921" style="stop-color:#D99C66"/>
			<stop  offset="1" style="stop-color:#DDA169"/>
		</linearGradient>
		<path fill="url(#SVGID_21_)" d="M210.497,305.145c-9.715-0.582-42.699-5.196-57.422-7.543
			c10.385-17.034,44.346-67.293,54.174-77.029c4.416-0.818,37.451-6.787,42.684-6.461
			C243.882,240.442,221.886,285.17,210.497,305.145z"/>
		<path fill="#793F07" d="M264.161,195.305c-25.512-19.135-69.914,2.698-67.707,48.818c3.557-1.779,49.922-11.265,50.045-12.185
			c0,0-7.154-19.194,2.213-25.969C252.501,203.051,259.446,200.777,264.161,195.305z"/>
		<linearGradient id="SVGID_22_" gradientUnits="userSpaceOnUse" x1="249.3677" y1="225.5117" x2="189.2683" y2="208.5347">
			<stop  offset="6.030000e-006" style="stop-color:#BE7A50"/>
			<stop  offset="0.0941" style="stop-color:#C27F53"/>
			<stop  offset="0.6577" style="stop-color:#D69863"/>
			<stop  offset="1" style="stop-color:#DDA169"/>
		</linearGradient>
		<path fill="url(#SVGID_22_)" d="M196.454,245.84c2.576-38.76,31.033-64.027,67.545-51.353c2.551,3.065-3.83,24.755-7.852,27.966
			C241.185,235.209,211.173,243.632,196.454,245.84z"/>
	</g>
	<g>
		<path fill="#793F07" d="M332.522,272.006c5.234,1.309,51.289,9.808,60.021-3.924c11.357-17.858,2.809-42.361-3.609-53.631
			c-2.779-3.679-8.387-9.258-11.016-9.824c-7.912-0.961-38.156,2.843-49.969,3.488C328.13,217.939,332.327,262.674,332.522,272.006z
			"/>
		
			<linearGradient id="SVGID_23_" gradientUnits="userSpaceOnUse" x1="290.2163" y1="235.9678" x2="364.5428" y2="235.9678" gradientTransform="matrix(1.0438 0.0297 -0.0338 0.9996 -5.0206 -8.2377)">
			<stop  offset="6.030000e-006" style="stop-color:#BE7A50"/>
			<stop  offset="0.325" style="stop-color:#C98859"/>
			<stop  offset="1" style="stop-color:#DDA169"/>
		</linearGradient>
		<path fill="url(#SVGID_23_)" d="M365.37,273.059c-7.572-0.215-29.973-2.263-35.865-3.617c-0.021-6.18,1.18-17.928,1.307-29.396
			c0.127-11.271,0.256-22.868,0.238-29.139c7.549-0.357,39.211-8.732,48.156-6.487c1.902,0.47,8.756,6.491,11.129,9.48
			c2.5,5.047,10.693,33.238,0.994,51.409C388.347,270.9,379.13,273.45,365.37,273.059z"/>
		<path fill="#793F07" d="M256.784,195.7c13.377-4.002,60.234,8.7,75.33,12.606c2.469,15.293,2.543,53.105,1.227,63.863
			c-28.762,4.804-61.977,0.811-71.305-8.014c-9.279-8.778-16.438-21.506-19.135-32.055
			C251.405,221.309,252.019,198.988,256.784,195.7z"/>
		
			<linearGradient id="SVGID_24_" gradientUnits="userSpaceOnUse" x1="164.2476" y1="222.6079" x2="303.0786" y2="235.639" gradientTransform="matrix(0.9995 0.031 -0.031 0.9995 7.5333 -9.3347)">
			<stop  offset="0" style="stop-color:#AD673B"/>
			<stop  offset="1" style="stop-color:#BE7A50"/>
		</linearGradient>
		<path fill="url(#SVGID_24_)" d="M263.804,261.836c-13.406-10.889-30.566-48.4-19.342-62.123c2.023-1.9,5.711-4.731,9.92-5.91
			c19.158-0.875,58.244,12.566,75.164,16.408c3.518,13.199,6.107,36.663,4.109,59.864
			C315.958,272.804,277.208,272.725,263.804,261.836z"/>
		<linearGradient id="SVGID_25_" gradientUnits="userSpaceOnUse" x1="194.4536" y1="223.1841" x2="313.6201" y2="234.3694">
			<stop  offset="6.030000e-006" style="stop-color:#BE7A50"/>
			<stop  offset="0.197" style="stop-color:#C68557"/>
			<stop  offset="0.6805" style="stop-color:#D79964"/>
			<stop  offset="1" style="stop-color:#DDA169"/>
		</linearGradient>
		<path fill="url(#SVGID_25_)" d="M333.585,270.004c2-23.201-0.521-46.594-4.039-59.793c-16.92-3.842-56.006-17.283-75.164-16.408
			c-4.209,1.179-7.896,4.01-9.92,5.91c-4.746,5.803-5.895,18.242-0.252,30.264c5.383,11.559,11.723,19.359,20.115,26.82
			c6.705,5.232,17.5,9.649,31.482,11.366C312.292,269.523,330.032,270.496,333.585,270.004z"/>
		
			<ellipse transform="matrix(0.9833 0.182 -0.182 0.9833 51.5979 -46.3713)" fill="#793F07" cx="278.402" cy="257.889" rx="6.006" ry="4.298"/>
		
			<ellipse transform="matrix(0.9815 -0.1916 0.1916 0.9815 -43.4516 77.5474)" fill="#793F07" cx="379.365" cy="263.514" rx="4.795" ry="3.888"/>
	</g>
	<g>
		<path fill="#793F07" d="M234.233,324.341c-6.924,0.865-8.615-0.048-17.662,1.636c-21.098,3.924-42.451,8.438-56.424,0.817
			c-14.719-9.813-19.316-24.892-16.436-30.91c3.68-7.687,15.332-25.676,33.73-24.04c9.158,1.145,17.295,8.708,17.295,8.708
			s30.297,8.708,36.674,10.058C231.903,297.479,235.214,314.527,234.233,324.341z"/>
		<linearGradient id="SVGID_26_" gradientUnits="userSpaceOnUse" x1="210.0703" y1="333.3169" x2="193.2256" y2="310.9115">
			<stop  offset="0" style="stop-color:#AD673B"/>
			<stop  offset="1" style="stop-color:#BE7A50"/>
		</linearGradient>
		<path fill="url(#SVGID_26_)" d="M183.944,328.143c-9.494,0-15.883-0.576-22.08-3.925c-9.248-6.205-14.383-14.938-15.332-20.238
			c-0.443-2.479-0.479-5.827,0.369-6.991c0,0,11.283-24.981,30.91-22.691c12.756,5.232,16.189,8.34,16.189,8.34
			s26.984,8.342,28.785,8.668c-1.309,3.926-3.926,27.967-4.498,31.81C207.86,325.116,194.001,327.488,183.944,328.143z"/>
		<linearGradient id="SVGID_27_" gradientUnits="userSpaceOnUse" x1="179.1133" y1="351.4155" x2="185.41" y2="291.0721">
			<stop  offset="6.030000e-006" style="stop-color:#BE7A50"/>
			<stop  offset="0.3114" style="stop-color:#C38154"/>
			<stop  offset="0.7587" style="stop-color:#D39461"/>
			<stop  offset="1" style="stop-color:#DDA169"/>
		</linearGradient>
		<path fill="url(#SVGID_27_)" d="M220.251,317.963c1.033-8.463,1.688-24.119,2.535-26.658c-1.801-0.326-28.785-8.668-28.785-8.668
			s-7.727-6.869-16.189-8.34c-19.627-2.29-30.42,22.078-30.42,22.078c-0.49,1.962-2.127,5.396,8.014,11.938
			C167.425,321.643,185.253,327.447,220.251,317.963z"/>
		<path fill="#793F07" d="M207.985,286.316c-5.398-1.308-19.463-5.314-30.42-7.113c9.813,0,15.455,1.758,16.764,1.799
			C195.31,281.819,205.368,285.172,207.985,286.316z"/>
	</g>
	<g>
		<g>
			<path fill="#793F07" d="M207.985,287.666c1.594-3.435,4.496-11.938,6.213-13.86c1.006-1.124,8.342-7.114,9.732-9.731
				c1.471-2.453,2.33-8.708,2.902-15.536c1.104-4.538,14.971-3.128,15.74,5.97c0.818,9.648-3.352,19.952-5.561,25.021
				C234.315,280.389,209.946,286.93,207.985,287.666z"/>
			<linearGradient id="SVGID_28_" gradientUnits="userSpaceOnUse" x1="217.0757" y1="264.0342" x2="231.7947" y2="268.8179">
				<stop  offset="0" style="stop-color:#AD673B"/>
				<stop  offset="1" style="stop-color:#BE7A50"/>
			</linearGradient>
			<path fill="url(#SVGID_28_)" d="M212.563,283.373c1.057-2.848,2.365-6.555,3.477-8.096c0.563-0.783,3.941-3.428,5.641-5.151
				c1.842-1.868,3.346-3.04,3.83-3.724c2.059-2.9,3.611-10.505,3.775-16.883c1.717-1.963,9.689-0.859,10.793,4.538
				c1.006,4.91-1.799,15.291-3.924,20.361c0,0,4.531-0.007,4.783,1.104C240.325,275.694,219.263,281.637,212.563,283.373z"/>
			<linearGradient id="SVGID_29_" gradientUnits="userSpaceOnUse" x1="223.5845" y1="263.9497" x2="254.8798" y2="272.8727">
				<stop  offset="6.030000e-006" style="stop-color:#BE7A50"/>
				<stop  offset="0.146" style="stop-color:#CE8E5D"/>
				<stop  offset="0.2976" style="stop-color:#D99C66"/>
				<stop  offset="0.43" style="stop-color:#DDA169"/>
			</linearGradient>
			<path fill="url(#SVGID_29_)" d="M229.817,251.236c0.246,3.066-0.49,10.917-1.473,16.191c-3.311,3.557-6.057,6.689-7.604,13.859
				c8.428-2.328,19.777-5.646,20.197-5.764c-0.252-1.111-4.783-1.104-4.783-1.104c2.125-5.07,4.93-15.451,3.924-20.361
				c-0.748-3.663-4.66-5.344-7.635-5.435C231.29,248.538,229.817,249.765,229.817,251.236z"/>
		</g>
		<g>
			<path fill="#793F07" d="M205.653,284.109c4.416-1.227,10.182-3.066,10.182-3.066s2.084-2.944,5.52-5.889
				c3.551-3.044,6.477-4.611,8.217-5.191c8.75,0.408,13.574-0.246,23.061,1.39c4.494,11.353,7.209,26.232,4.906,43.666
				c-0.572,4.334-2.617,8.995-3.68,10.712c-4.742,3.435-15.332,4.662-20.361,4.416c-6.5-0.613-16.027-2.943-18.889-4.089
				C215.589,323.277,217.798,300.014,205.653,284.109z"/>
			<linearGradient id="SVGID_30_" gradientUnits="userSpaceOnUse" x1="208.1123" y1="332.5195" x2="224.6918" y2="311.7477">
				<stop  offset="0" style="stop-color:#AD673B"/>
				<stop  offset="1" style="stop-color:#BE7A50"/>
			</linearGradient>
			<path fill="url(#SVGID_30_)" d="M235.542,327.775c-9.76,0-18.971-3.598-23.387-4.906c-4.662-4.662-9.813-23.306-4.744-36.144
				c4.906-4.253,19.553-13.965,21.916-14.064c8.895,0.303,16.439,0.325,25.021,1.799c2.086,12.735,1.064,43.175-2.453,49.881
				C250.261,325.404,242.737,327.121,235.542,327.775z"/>
			<linearGradient id="SVGID_31_" gradientUnits="userSpaceOnUse" x1="238.5894" y1="299.9058" x2="184.3511" y2="295.4519">
				<stop  offset="6.030000e-006" style="stop-color:#BE7A50"/>
				<stop  offset="0.5466" style="stop-color:#CD8D5C"/>
				<stop  offset="1" style="stop-color:#DDA169"/>
			</linearGradient>
			<path fill="url(#SVGID_31_)" d="M246.829,325.98c2.479-0.575,4.346-1.172,5.066-1.64c3.518-6.706,4.539-37.146,2.453-49.881
				c-8.582-1.474-16.127-1.496-25.021-1.799c-2.363,0.1-17.01,9.812-21.916,14.064c-4.578,11.611,1.801,29.274,5.971,34.181
				c2.943,1.717,12.838,5.314,21.67,5.806C239.794,326.794,243.03,326.498,246.829,325.98z"/>
			<linearGradient id="SVGID_32_" gradientUnits="userSpaceOnUse" x1="259.2739" y1="294.2744" x2="224.1532" y2="300.9642">
				<stop  offset="6.030000e-006" style="stop-color:#BE7A50"/>
				<stop  offset="1" style="stop-color:#DDA169"/>
			</linearGradient>
			<path fill="url(#SVGID_32_)" d="M254.349,274.46c-8.582-1.474-15.76-3.296-24.654-3.599c-0.043,0.002-0.098,0.012-0.146,0.02
				c-0.762,14.375,9.305,33.998,5.504,45.037c0.816,5.479,0.816,8.586,0.162,10.713c2.453,0.244,13.656-0.818,16.928-2.209
				c0.898-1.799,2.289-5.314,2.779-8.259C256.47,306.875,256.337,286.602,254.349,274.46z"/>
			<path fill="#793F07" d="M234.356,287.053c1.43,0.49,18.93-2.29,21.709-2.208c1.473,0.368,3.967,1.921,4.988,2.371
				c1.309,2.944,1.555,9.445,0.164,13.942c-0.49,0.736-1.104,1.35-1.104,1.35s0.857,0.736,0.857,1.594
				c0.205,4.171-0.816,10.754-2.697,11.734c-6.623,2.045-16.846,2.781-20.117,2.453
				C237.177,315.836,234.724,290.978,234.356,287.053z"/>
			<linearGradient id="SVGID_33_" gradientUnits="userSpaceOnUse" x1="275.7822" y1="302.0488" x2="222.902" y2="303.0857">
				<stop  offset="6.030000e-006" style="stop-color:#BE7A50"/>
				<stop  offset="0.2526" style="stop-color:#C78557"/>
				<stop  offset="0.9989" style="stop-color:#DDA169"/>
			</linearGradient>
			<path fill="url(#SVGID_33_)" d="M235.378,317.963c-2.617-4.253-2.617-10.631-2.494-13.738c-1.717-4.17-3.393-10.467-2.248-15.536
				c1.963,0,3.842,0.694,3.842,0.694s11.225-1.963,16.273-2.003c1.514,0.593,6.256,1.329,7.359,1.636
				c1.717,2.76,1.473,7.522,0.49,11.611c-0.652,1.063-3.924,1.799-3.924,1.799s1.635,0.49,3.271,0.654
				c0.816,2.943,0.49,8.832-1.473,11.285C251.569,316.49,238.321,318.207,235.378,317.963z"/>
			<path fill="#793F07" d="M237.708,303.366c-0.572,0.122,0.123,0.491,0.777,0.653c6.705,0.736,16.354-0.162,20.115-1.063
				c0.287-0.612,0.736-1.553,0.941-2.207C255.903,302.14,244.618,303.406,237.708,303.366z"/>
			<path fill="#793F07" d="M235.542,289.098c-0.41-0.082-1.799-0.818-2.127-0.818c0.225,0.94-0.123,2.392,0.246,4.17
				C234.315,290.814,235.296,289.588,235.542,289.098z"/>
			<path fill="#793F07" d="M228.837,270.208c4.414-1.063,17.826-1.309,21.914-0.981c2.393,0.49,6.604,1.635,8.137,2.617
				c1.799,2.596,2.494,12.51,0.531,16.926c-2.434,1.002-7.564,2.126-9.158,2.126s-14.229-0.776-16.805-1.104
				C231.331,287.748,226.097,279.448,228.837,270.208z"/>
			<linearGradient id="SVGID_34_" gradientUnits="userSpaceOnUse" x1="275.4878" y1="281.1787" x2="224.2957" y2="280.1431">
				<stop  offset="6.030000e-006" style="stop-color:#BE7A50"/>
				<stop  offset="1" style="stop-color:#DDA169"/>
			</linearGradient>
			<path fill="url(#SVGID_34_)" d="M251.038,288.77c0,0-16.764,0.49-20.24,0.246c-0.939-3.394-3.516-11.693-0.326-16.354
				c5.152-0.736,17.867-1.063,19.707-0.634c1.35,0.43,5.336,1.9,6.563,2.76c1.104,3.127,0.123,10.793-0.92,12.695
				C254.532,287.973,251.038,288.77,251.038,288.77z"/>
			<linearGradient id="SVGID_35_" gradientUnits="userSpaceOnUse" x1="246.6162" y1="280.0493" x2="269.6615" y2="281.6665">
				<stop  offset="0" style="stop-color:#DDA169"/>
				<stop  offset="0.4286" style="stop-color:#DBA36C"/>
				<stop  offset="0.7826" style="stop-color:#D3AB76"/>
				<stop  offset="1" style="stop-color:#CCB381"/>
			</linearGradient>
			<path fill="url(#SVGID_35_)" d="M256.802,274.215c-1.227-0.859-4.477-1.881-6.746-2.249c3.475,3.312,2.494,14.269,1.023,16.722
				c2.084-0.122,4.496-0.654,5.969-1.145C258.274,283.945,258.382,277.076,256.802,274.215z"/>
		</g>
	</g>
	<g>
		<g>
			<path fill="#793F07" d="M248.093,689.002c2.453,11.285,8.486,22.188,8.219,24.654c-0.068,2.49-5.316,11.366-6.787,14.964
				C249.36,720.443,247.603,694.726,248.093,689.002z"/>
			
				<linearGradient id="SVGID_36_" gradientUnits="userSpaceOnUse" x1="168.0273" y1="710.2236" x2="152.1229" y2="710.3509" gradientTransform="matrix(-1 0 0 1 402 0)">
				<stop  offset="6.030000e-006" style="stop-color:#BE7A50"/>
				<stop  offset="0.4715" style="stop-color:#CB8A5A"/>
				<stop  offset="1" style="stop-color:#DDA169"/>
			</linearGradient>
			<path fill="url(#SVGID_36_)" d="M249.851,722.733c0.656-2.127,3.621-8.263,3.762-9.322c0.102-0.929-3.68-9.567-5.273-15.455
				c-0.465,2.298-0.859,11.202-1.105,13.881C247.644,713.326,248.706,719.727,249.851,722.733z"/>
		</g>
		<g>
			<path fill="#793F07" d="M236.851,558.208c-1.309,4.252-11.775,38.27-12.756,41.54c5.232,2.29,28.701,8.341,37.287,3.926
				c3.434-8.832,12.592-34.835,16.354-41.213C272.175,559.844,241.103,558.534,236.851,558.208z"/>
			<linearGradient id="SVGID_37_" gradientUnits="userSpaceOnUse" x1="224.6895" y1="574.1816" x2="256.1078" y2="588.9446">
				<stop  offset="0.0207" style="stop-color:#AD673B"/>
				<stop  offset="0.4534" style="stop-color:#BE7A50"/>
			</linearGradient>
			<path fill="url(#SVGID_37_)" d="M240.435,561.377c-0.525-0.031-1.012-0.059-1.453-0.085c-2.154,7.001-8.691,30.007-11.127,37.966
				c1.145,5.284,7.229,6.847,14.486,7.33c4.309-14.893,8.816-29.705,14.303-44.127C250.188,561.941,243.798,561.571,240.435,561.377
				z"/>
			<linearGradient id="SVGID_38_" gradientUnits="userSpaceOnUse" x1="241.855" y1="578.083" x2="270.2731" y2="591.4362">
				<stop  offset="6.030000e-006" style="stop-color:#BE7A50"/>
				<stop  offset="0.1052" style="stop-color:#C27F53"/>
				<stop  offset="0.6603" style="stop-color:#D69863"/>
				<stop  offset="1" style="stop-color:#DDA169"/>
			</linearGradient>
			<path fill="url(#SVGID_38_)" d="M256.644,562.461c-5.486,14.422-9.994,29.234-14.303,44.127
				c5.893,0.393,12.484-0.847,17.65-3.814c2.174-12.031,9.236-29.279,12.83-38.417C269.126,563.6,262.854,562.961,256.644,562.461z"
				/>
		</g>
		<g>
			<path fill="#793F07" d="M245.19,702.125c1.963-36.797,18.154-55.44,22.078-71.632c4.066-16.771-2.738-31.399-3.23-36.306
				c-1.145-0.081-17.539-7.688-18.357-7.851c-0.613,2.33-21.586,109.901-22.078,114.808
				C227.038,701.145,240.774,701.635,245.19,702.125z"/>
			<linearGradient id="SVGID_39_" gradientUnits="userSpaceOnUse" x1="225.7949" y1="642.6064" x2="263.0822" y2="647.022">
				<stop  offset="6.030000e-006" style="stop-color:#BE7A50"/>
				<stop  offset="0.1052" style="stop-color:#C27F53"/>
				<stop  offset="0.6603" style="stop-color:#D69863"/>
				<stop  offset="1" style="stop-color:#DDA169"/>
			</linearGradient>
			<path fill="url(#SVGID_39_)" d="M242.446,698.941c-4.434-0.303-11.092-0.565-15.41-0.68
				c2.977-17.098,17.941-93.288,20.965-108.534c3.553,0.614,11.373,1.974,14.689,2.497c-0.369,0.981-0.613,2.208-0.959,3.34
				c2.105,8.253,5.627,22.065,2.676,34.235c-1.219,5.031-3.762,10.464-6.705,16.754
				C251.673,659.436,244.229,675.341,242.446,698.941z"/>
			<path fill="#793F07" d="M232.517,579.469c-41.949,45.629-8.832,99.026-16.109,142.201c8.34,0,33.895,0.695,36.838,1.186
				c-5.766-28.58-2.33-91.871-0.859-105.772C249.606,611.851,227.69,592.225,232.517,579.469z"/>
			<linearGradient id="SVGID_40_" gradientUnits="userSpaceOnUse" x1="186.1689" y1="643.7744" x2="231.5728" y2="654.3687">
				<stop  offset="0" style="stop-color:#AD673B"/>
				<stop  offset="1" style="stop-color:#BE7A50"/>
			</linearGradient>
			<path fill="url(#SVGID_40_)" d="M218.206,724.614c2.861-15.373,1.314-36.803-0.836-53.071
				c-3.969-30.028-8.07-61.064,17.777-90.639c2.729,0.884,19.465,11.193,22.145,12.057c-12.264,47.592-12.326,95.301-7.521,127.646
				c-0.205-0.001-1.41,3.763-1.637,3.763c-4.416,0-10.639,0.649-17.336,0.817C226.724,725.289,220.302,727.84,218.206,724.614z"/>
			<linearGradient id="SVGID_41_" gradientUnits="userSpaceOnUse" x1="213.2622" y1="654.1963" x2="256.1804" y2="661.3323">
				<stop  offset="6.030000e-006" style="stop-color:#BE7A50"/>
				<stop  offset="0.5255" style="stop-color:#D0915F"/>
				<stop  offset="1" style="stop-color:#DDA169"/>
			</linearGradient>
			<path fill="url(#SVGID_41_)" d="M257.292,592.961c-1.984-0.64-10.186-1.652-16.189-4.987
				c-17.582,37.942-20.361,96.735-15.211,139.175c6.307-0.202,18.051-2.779,22.242-2.779c0.227,0,1.432-3.764,1.637-3.763
				C244.966,688.262,245.028,640.553,257.292,592.961z"/>
		</g>
		<g>
			<path fill="#793F07" d="M219.269,692.477c-3.758,6.443-7.627,16.51-7.359,19.463c0.068,2.98,4.988,15.373,5.971,17.336
				C218.942,721.589,221.56,702.044,219.269,692.477z"/>
			<linearGradient id="SVGID_42_" gradientUnits="userSpaceOnUse" x1="220.6309" y1="710" x2="205.1042" y2="710.1242">
				<stop  offset="6.030000e-006" style="stop-color:#BE7A50"/>
				<stop  offset="0.4715" style="stop-color:#CB8A5A"/>
				<stop  offset="1" style="stop-color:#DDA169"/>
			</linearGradient>
			<path fill="url(#SVGID_42_)" d="M217.47,720.606c-1.283-4.123-2.068-7.919-2.209-9.187c-0.102-1.112,1.73-6.787,4.416-11.992
				c0.467,2.75,1.555,6.197,1.801,9.403C221.067,710.614,218.614,717.008,217.47,720.606z"/>
		</g>
		<g>
			<path fill="#793F07" d="M260.728,383.871c-20.279,50.045-29.029,148.987-27.721,190.201c0.916-0.516,4.17-3.926,4.17-3.926
				s13.779,22.865,28.947,16.437c29.766-30.746,70.814-146.452,78.01-171.966C314.696,400.226,273.812,389.758,260.728,383.871z"/>
			<linearGradient id="SVGID_43_" gradientUnits="userSpaceOnUse" x1="164.9629" y1="487.3301" x2="268.5996" y2="487.3301">
				<stop  offset="0" style="stop-color:#AD673B"/>
				<stop  offset="1" style="stop-color:#BE7A50"/>
			</linearGradient>
			<path fill="url(#SVGID_43_)" d="M235.868,574.235c-0.613-30.909,7.768-137.44,26.494-186.479
				c4.873,1.951,11.631,4.22,19.803,6.964c16.361,5.493,39.342,12.827,57.309,21.369c-8.594,29.639-46.635,137.442-74.822,167.796
				C254.104,592.961,237.341,579.142,235.868,574.235z"/>
			<linearGradient id="SVGID_44_" gradientUnits="userSpaceOnUse" x1="242.4326" y1="487.4756" x2="296.989" y2="500.3124">
				<stop  offset="6.030000e-006" style="stop-color:#BE7A50"/>
				<stop  offset="1" style="stop-color:#DDA169"/>
			</linearGradient>
			<path fill="url(#SVGID_44_)" d="M280.353,402.515c-19.625,50.045-42.195,160.764-33.854,175.482
				c5.916,6.306,10.555,12.425,18.152,5.888c28.188-30.354,66.229-138.157,74.822-167.796
				C322.892,408.206,296.331,407.843,280.353,402.515z"/>
		</g>
		<g>
			<path fill="#793F07" d="M263.181,583.885c-0.982,3.271-4.6,12.327-7.605,17.294c-7.113,3.619-16.354,1.186-18.645-1.104
				c2.373-8.913,4.336-23.305,4.662-25.268c0.613-0.368,12.633-1.84,15.209-1.84C259.255,575.053,262.935,582.597,263.181,583.885z"
				/>
			<linearGradient id="SVGID_45_" gradientUnits="userSpaceOnUse" x1="213.646" y1="585.123" x2="250.935" y2="587.5763">
				<stop  offset="0" style="stop-color:#AD673B"/>
				<stop  offset="1" style="stop-color:#BE7A50"/>
			</linearGradient>
			<path fill="url(#SVGID_45_)" d="M235.95,601.057c-1.717-6.378,2.416-20.912,3.926-25.758c1.963-0.981,11.406-4.171,16.926-2.944
				c2.27,2.821,3.742,8.034,4.355,11.469c-1.412,3.68-4.846,13.615-7.729,16.62C245.519,603.755,238.403,603.019,235.95,601.057z"/>
			<linearGradient id="SVGID_46_" gradientUnits="userSpaceOnUse" x1="234.0103" y1="584.458" x2="265.1941" y2="586.5096">
				<stop  offset="6.030000e-006" style="stop-color:#BE7A50"/>
				<stop  offset="0.1052" style="stop-color:#C27F53"/>
				<stop  offset="0.6603" style="stop-color:#D69863"/>
				<stop  offset="1" style="stop-color:#DDA169"/>
			</linearGradient>
			<path fill="url(#SVGID_46_)" d="M256.802,571.128c-3.43-0.762-8.295,0.413-12.02,1.472c-3.172,8.538-5.994,16.705-4.498,25.677
				c1.145,2.126,9.611,2.572,13.904,1.224c2.703-3.75,5.68-12.315,6.969-15.677C260.544,580.389,259.071,573.949,256.802,571.128z"
				/>
		</g>
		<g>
			<path fill="#793F07" d="M215.712,719.789c-1.063,16.518-3.23,27.721-4.293,38.27c15.047,6.051,56.586-3.679,60.102-4.252
				c-7.85-8.831-10.057-15.128-13.246-21.506c-3.598-5.888-5.479-9.771-6.705-15.782
				C246.907,725.228,223.358,735.817,215.712,719.789z"/>
			<linearGradient id="SVGID_47_" gradientUnits="userSpaceOnUse" x1="193.5845" y1="743.6992" x2="226.7018" y2="739.2836">
				<stop  offset="0" style="stop-color:#AD673B"/>
				<stop  offset="1" style="stop-color:#BE7A50"/>
			</linearGradient>
			<path fill="url(#SVGID_47_)" d="M215.04,759.542c0.115-8.813,1.939-23.643,3.574-36.072c6.379-7.359,22.242-8.342,31.074-4.417
				c0.828,4.978,2.453,9.077,5.479,14.475c1.15,2.054,5.793,12.327,12.43,20.279C254.214,757.262,222.622,762.312,215.04,759.542z"
				/>
			<linearGradient id="SVGID_48_" gradientUnits="userSpaceOnUse" x1="244.0166" y1="788.8662" x2="238.3459" y2="704.401">
				<stop  offset="6.030000e-006" style="stop-color:#BE7A50"/>
				<stop  offset="0.3478" style="stop-color:#CF8F5E"/>
				<stop  offset="0.6889" style="stop-color:#D99D66"/>
				<stop  offset="1" style="stop-color:#DDA169"/>
			</linearGradient>
			<path fill="url(#SVGID_48_)" d="M255.167,733.527c-3.025-5.397-4.65-9.252-5.479-14.229c-6.133-2.699-19.053,0-24.613,3.435
				c-7.359,16.681-14.148,29.629-5.396,37.451c12.756-0.618,38.264-3.886,47.918-6.378
				C260.96,745.854,256.317,735.581,255.167,733.527z"/>
			<path fill="#793F07" d="M262.935,741.867c1.879,4.987,11.775,11.775,12.021,14.229c-1.227,4.416-3.146,6.185-7.314,7.979
				c-4.301,1.242-12.684,1.242-16.852,0c-1.611-2.484-2.398-9.471-3.473-12.231C250.813,752.121,263.587,751.024,262.935,741.867z"
				/>
			<linearGradient id="SVGID_49_" gradientUnits="userSpaceOnUse" x1="248.0815" y1="736.5342" x2="266.4716" y2="765.8">
				<stop  offset="0" style="stop-color:#AD673B"/>
				<stop  offset="1" style="stop-color:#BE7A50"/>
			</linearGradient>
			<path fill="url(#SVGID_49_)" d="M251.554,761.313c-1.053-2.189-3.15-8.767-3.42-9.552c4.416-1.595,9.771-5.888,13.451-6.337
				c2.689,5.152,10.33,9.305,10.488,10.058c-0.613,3.128-2.211,4.608-5.328,6.016C263.653,762.603,253.899,762.813,251.554,761.313z
				"/>
			<linearGradient id="SVGID_50_" gradientUnits="userSpaceOnUse" x1="247.8242" y1="731.1299" x2="265.7887" y2="759.7186">
				<stop  offset="6.030000e-006" style="stop-color:#BE7A50"/>
				<stop  offset="0.0115" style="stop-color:#BE7B50"/>
				<stop  offset="0.6372" style="stop-color:#D59762"/>
				<stop  offset="1" style="stop-color:#DDA169"/>
			</linearGradient>
			<path fill="url(#SVGID_50_)" d="M269.007,756.954c1.287-0.367,3.133-1.088,3.127-1.349c-0.156-0.754-8.227-5.764-10.916-10.917
				c-2.957,0.361-8.953,1.718-11.285,3.967C254.718,757.384,264.101,758.487,269.007,756.954z"/>
			<path fill="#793F07" d="M253.435,765.362c-16.088,1.38-37.277,1.14-40.953-2.725c-1.553-1.308-2.896-5.013-2.043-6.787
				c0.98-2.044,2.289-4.415,2.779-7.358c4.742,2.126,29.191,4.741,37.697,1.635c0.572,1.635,1.063,2.861,2.943,4.661
				c2.127,1.554,4.361,2.589,4.988,3.761C258.847,761.126,256.058,764.673,253.435,765.362z"/>
			<linearGradient id="SVGID_51_" gradientUnits="userSpaceOnUse" x1="230.6099" y1="734.6563" x2="235.9901" y2="765.9779">
				<stop  offset="0" style="stop-color:#AD673B"/>
				<stop  offset="1" style="stop-color:#BE7A50"/>
			</linearGradient>
			<path fill="url(#SVGID_51_)" d="M239.497,763.521c-12.785,0-21.852-1.277-24.316-2.52c-1.533-1.313-1.799-4.006-1.555-5.151
				c0.818-1.227,1.309-2.289,1.963-6.869c6.623-1.104,21.711-2.33,33.486-0.735c0.582,3.703,2.658,7.032,2.658,7.032
				c0.877,1.338,2.58,2.017,3.924,3.189c0.328,2.208-1.799,3.925-3.434,4.497C248.188,763.396,244.284,763.521,239.497,763.521z"/>
			<linearGradient id="SVGID_52_" gradientUnits="userSpaceOnUse" x1="229.0356" y1="725.624" x2="235.4877" y2="763.1856">
				<stop  offset="6.030000e-006" style="stop-color:#BE7A50"/>
				<stop  offset="0.0484" style="stop-color:#C07C52"/>
				<stop  offset="0.6465" style="stop-color:#D59763"/>
				<stop  offset="1" style="stop-color:#DDA169"/>
			</linearGradient>
			<path fill="url(#SVGID_52_)" d="M255.575,759.407c0.982-1.472-2.578-2.202-3.842-4.129c0,0-1.709-3.329-2.291-7.032
				c-11.775-1.595-27.23-0.859-33.854,0.245c-0.654,4.579-1.145,6.133-1.963,7.359c-0.037,0.175,0.012,2.094,0,2.33
				c0.9-1.594,5.07,2.331,7.852,0.532c2.617,2.208,7.604,1.88,12.178,0.66c4.094,1.63,9,2.301,12.107,0.076
				C248.624,760.365,252.96,761.085,255.575,759.407z"/>
			<path fill="#793F07" d="M242.565,763.688c0,0,0.762-0.315,0.906-0.474c0.291-0.316,0.543-0.768,0.732-1.253
				c0.191-0.486,0.328-1.015,0.4-1.54c0.074-0.507,0.074-1.103-0.02-1.391l0.027,0.062c-0.273-0.599-0.664-1.152-1.125-1.721
				c-0.457-0.57-2.121-3.001-2.389-3.628c-0.264-0.634-0.465-1.256-0.604-1.954l1.051-0.218c0.152,0.548,0.383,1.136,0.652,1.662
				c0.271,0.532,0.596,1.028,0.975,1.45c0,0,0.926,1.137,1.451,1.701c0.525,0.562,1.064,1.205,1.473,1.949l0.016,0.029l0.012,0.032
				c0.326,0.854,0.289,1.507,0.266,2.197c-0.045,0.679-0.166,1.34-0.369,1.997c-0.207,0.655-0.488,1.313-0.969,1.931
				c-0.24,0.308-0.537,0.605-0.91,0.849c-0.186,0.121-1.23,0.471-1.23,0.471L242.565,763.688z"/>
			<path fill="#793F07" d="M231.724,763.606c0,0,0.408-0.272,0.506-0.46c0.201-0.375,0.352-0.87,0.451-1.376
				c0.098-0.51,0.15-1.043,0.158-1.569c0.002-0.512-0.021-1.078-0.162-1.443c-0.334-0.936-0.98-2.077-1.291-3.271
				c-0.34-1.196-0.447-2.438-0.402-3.644h1.104c0.045,1.117,0.23,2.209,0.607,3.225c0.357,1.045,0.961,1.896,1.516,3.104
				c0.307,0.717,0.346,1.336,0.404,1.978c0.039,0.634,0.027,1.266-0.045,1.906c-0.078,0.64-0.201,1.287-0.492,1.967
				c-0.148,0.338-1.52,1.616-1.703,1.666c-0.096,0.028-0.293,0.068-0.293,0.068L231.724,763.606z"/>
			<path fill="#793F07" d="M222.366,764.3c-0.6-0.992-1.102-2.071-1.393-3.245c-0.289-1.161-0.346-2.492,0.135-3.709
				c0.117-0.302,0.51-0.959,0.51-0.959l0.002-0.006l0.008-0.011l0.277-0.504c0.217-0.438,0.396-0.909,0.543-1.396
				c0.291-0.971,0.473-2.024,0.541-3.035h1.063c0.021,1.145-0.074,2.241-0.303,3.363c-0.115,0.558-0.271,1.114-0.486,1.664
				c-0.053,0.135-0.566,1.211-0.625,1.42c-0.244,0.829-0.145,1.756,0.164,2.651c0.309,0.9,0.797,1.766,1.385,2.568L222.366,764.3z"
				/>
		</g>
	</g>
	<g>
		<path fill="#999999" d="M389.272,473.166c2.75-34.325,0.57-83-2.115-101.725c-6.869,4.17-27.813,17.417-80.965,9.485
			c0.65,6.513,7.086,59.075,9.486,101.07C339.806,482.569,365.892,478.846,389.272,473.166z"/>
		<path fill="#FFFFFF" d="M320.614,479.11c-0.719,0-1.434-0.003-2.148-0.01c-1.412-26.091-1.9-55.188-2.227-74.667
			c-0.137-8.238-0.242-14.533-0.377-18.439c9.945,1.373,21.605,0.726,31.379,0.329c18.154-0.735,30.104-6.542,37.953-9.485
			c2.486,20.206,3.563,63.544,1.309,93.965c-23.01,5.438-45.748,8.308-65.887,8.308C320.614,479.11,320.614,479.11,320.614,479.11z"
			/>
		<path fill="#999999" d="M261.556,368.252c-0.686,4.313-3.467,16.473-3.771,20.197c-5.398,17.826-12.715,48.777-16.682,77.315
			c9.813,7.237,54.705,18.521,78.746,19.013c5.314-14.473,8.34-21.343,12.51-32.382c9.322-0.736,16.191-3.189,22.08-6.379
			c3.188-9.076,1.961-27.475,1.961-27.475s4.592-28.649,4.906-34.345C318.376,386.896,267.688,372.913,261.556,368.252z"/>
		<path fill="#E8EBED" d="M317.396,481.833c-22.766-0.985-62.127-11.005-73.117-17.503c3.977-27.709,11.014-57.49,16.322-75.027
			l0.092-0.3l0.025-0.313c0.18-2.202,1.16-7.354,1.949-11.493c0.234-1.236,0.648-3.188,0.852-4.284
			c9.813,3.925,57.801,19.87,96.807,12.757c-1.234,13.044-7.141,47.661-10.793,56.177c-6.107,4.362-19.627,8.096-19.627,8.096
			S319.362,476.558,317.396,481.833z"/>
		<path fill="#FFFFFF" d="M276.755,377.328c-5.234,25.514-14.064,70.161-17.5,92.729c16.682,5.888,43.734,11.151,58.141,11.775
			c1.967-5.275,12.51-31.891,12.51-31.891s14.721-1.472,21.834-6.133c3.654-8.517,8.496-46.24,9.73-59.284
			C332.769,389.922,298.343,384.197,276.755,377.328z"/>
		<g>
			<path fill="#999999" d="M338.315,401.709c-27.236,0-69.627-11.34-78.715-16.324l0.945-1.721
				c9.594,5.262,56.9,17.705,83.195,15.909c24.916-1.707,36.66-8.183,43.328-12.905l1.135,1.602
				c-6.861,4.859-18.92,11.521-44.33,13.262C342.11,401.652,340.251,401.709,338.315,401.709z"/>
		</g>
	</g>
	<g>
		<path fill="#793F07" d="M400.259,438.599c-1.334,8.4-5.172,19.338-7.746,25.39c-1.334,7.206,7.779,11.47,10.1,5.267
			c3.699-6.896,7.975-26.234,8.535-29.026C407.798,438.827,402.091,438.956,400.259,438.599z"/>
		<linearGradient id="SVGID_53_" gradientUnits="userSpaceOnUse" x1="404.9639" y1="431.0889" x2="401.0388" y2="458.8095">
			<stop  offset="6.030000e-006" style="stop-color:#BE7A50"/>
			<stop  offset="0.1052" style="stop-color:#C27F53"/>
			<stop  offset="0.6603" style="stop-color:#D69863"/>
			<stop  offset="1" style="stop-color:#DDA169"/>
		</linearGradient>
		<path fill="url(#SVGID_53_)" d="M395.896,468.613c-1.068-1.064-1.596-2.825-0.984-4.419c2.211-5.771,5.502-14.435,7.473-23.306
			c1.406,0.436,4.918,0.903,6.451,1.463c-1.404,6.279-7.063,24.402-8.361,26.438S396.558,469.272,395.896,468.613z"/>
		<path fill="#793F07" d="M407.263,438.003c-0.045,5.341-0.164,16.682-1.309,25.351c-1.309,3.106-4.578,9.484-5.887,12.919
			c-2.291,8.014,8.34,12.594,10.305,9.019c0.963-1.75,7.645-15.75,8.176-17.195c2.121-5.424,4.316-26.915,3.887-29.108
			C419.118,438.827,409.349,438.405,407.263,438.003z"/>
		<linearGradient id="SVGID_54_" gradientUnits="userSpaceOnUse" x1="413.9756" y1="432.7627" x2="411.0318" y2="461.7104">
			<stop  offset="6.030000e-006" style="stop-color:#BE7A50"/>
			<stop  offset="0.1052" style="stop-color:#C27F53"/>
			<stop  offset="0.6603" style="stop-color:#D69863"/>
			<stop  offset="1" style="stop-color:#DDA169"/>
		</linearGradient>
		<path fill="url(#SVGID_54_)" d="M410.86,482.65c-5.07,2.781-9.396-1.367-8.178-5.724c0.746-2.416,2.783-7.185,5.07-12.43
			c0.463-4.607,1.883-14.027,1.922-23.304c1.459,0.12,9.166,0.831,9.619,0.851c-0.291,8.399-0.768,17.344-2.18,22.771
			C416.788,465.607,411.856,480.125,410.86,482.65z"/>
		<path fill="#793F07" d="M418.548,438.821c-0.328,7.032-1.801,22.405-2.529,26.668c-1.402,4.149-3.195,7.186-6.467,14.545
			c-4.232,8.854,7.57,14.474,11.121,8.994c0.818-2.263,7.033-17.335,7.033-17.335s5.51-30.532,5.709-32.077
			C429.573,439.387,421.571,439.211,418.548,438.821z"/>
		<linearGradient id="SVGID_55_" gradientUnits="userSpaceOnUse" x1="422.1396" y1="430.0469" x2="420.6677" y2="473.7133">
			<stop  offset="6.030000e-006" style="stop-color:#BE7A50"/>
			<stop  offset="0.1052" style="stop-color:#C27F53"/>
			<stop  offset="0.6603" style="stop-color:#D69863"/>
			<stop  offset="1" style="stop-color:#DDA169"/>
		</linearGradient>
		<path fill="url(#SVGID_55_)" d="M411.683,480.886c0.732-2.767,4.262-8.108,6.414-14.262c1.104-7.36,2.121-16.378,2.086-23.387
			c2.154,0.19,8.457-0.264,10.715-0.109c-0.764,5.277-3.602,24.231-3.602,24.231s-7.938,18.816-8.422,19.871
			C417.075,491.155,409.013,487.219,411.683,480.886z"/>
		<path fill="#793F07" d="M427.425,439.139c-0.006,4.18-0.826,18.056-1.52,27.485c-1.799,4.415-3.68,8.422-4.496,10.548
			c-2.617,8.75,7.113,16.273,12.02,6.297c1.146-2.126,4.58-8.014,7.033-14.392c1.309-12.103,0.967-28.662,0.818-30.093
			C437.823,438.787,430.792,439.339,427.425,439.139z"/>
		<linearGradient id="SVGID_56_" gradientUnits="userSpaceOnUse" x1="432.2197" y1="419.2119" x2="431.2385" y2="470.4831">
			<stop  offset="6.030000e-006" style="stop-color:#BE7A50"/>
			<stop  offset="0.1052" style="stop-color:#C27F53"/>
			<stop  offset="0.6603" style="stop-color:#D69863"/>
			<stop  offset="1" style="stop-color:#DDA169"/>
		</linearGradient>
		<path fill="url(#SVGID_56_)" d="M423.616,477.744c1.227-3.189,2.045-5.191,4.539-10.262c0.98-8.832,1.219-19.054,0.736-25.146
			c1.105-0.082,4.395-0.313,5.537-0.425c1.143-0.111,3.49,0.259,4.561,0.18c0.656,6.052,0.369,17.376-0.98,26.33
			c-3.066,6.992-6.053,12.43-7.197,14.72C428.032,489.52,422.042,481.84,423.616,477.744z"/>
		<path fill="#793F07" d="M403.501,407.258c-5.396,7.359-3.762,29.438-3.65,34.837c12.363,3.533,38.277,3.399,42.869,3.753
			c-0.352-12.009-11.744-39.734-12.561-43.987C425.579,407.748,414.294,422.631,403.501,407.258z"/>
		<linearGradient id="SVGID_57_" gradientUnits="userSpaceOnUse" x1="389.7559" y1="425.4414" x2="429.9443" y2="425.4414">
			<stop  offset="6.030000e-006" style="stop-color:#BE7A50"/>
			<stop  offset="0.1052" style="stop-color:#C27F53"/>
			<stop  offset="0.6603" style="stop-color:#D69863"/>
			<stop  offset="1" style="stop-color:#DDA169"/>
		</linearGradient>
		<path fill="url(#SVGID_57_)" d="M437.108,446.998c-8.17-0.225-25.4-1.265-35.244-3.435c-0.01-0.786,0.357-5.652,0.328-6.541
			c-0.186-5.674,0-22.078,2.943-29.274c0.83-0.252,2.291,1.309,6.051,1.799c5.561-3.107,11.225-5.207,16.785-5.662
			c0.164,7.358,19.973,33.925,12.326,42.378C439.915,446.685,437.772,447.017,437.108,446.998z"/>
		<path fill="#793F07" d="M431.222,405.295c4.539,5.028,11.406,12.593,13.615,16.436c0.234,1.496,1.814,6.182,3.639,11.366
			c2.861,8.137,8.014,12.43,8.627,13.779c-1.473,4.17-9.848,8.002-14.352,4.293c-4.502-3.709-7.686-11.775-9.322-17.663
			C411.187,427.292,413.501,405.84,431.222,405.295z"/>
		<linearGradient id="SVGID_58_" gradientUnits="userSpaceOnUse" x1="420.8867" y1="439.6777" x2="441.4699" y2="424.9755">
			<stop  offset="6.030000e-006" style="stop-color:#BE7A50"/>
			<stop  offset="0.1052" style="stop-color:#C27F53"/>
			<stop  offset="0.6603" style="stop-color:#D69863"/>
			<stop  offset="1" style="stop-color:#DDA169"/>
		</linearGradient>
		<path fill="url(#SVGID_58_)" d="M443.978,448.961c-5.738-5.452-8.912-17.663-8.912-17.663
			c-10.578-1.245-17.746-6.705-17.99-15.536c-0.109-3.931,4.15-10.65,11.018-10.65c3.436,4.251,11.061,13.921,14.004,18.663
			c0.795,2.494,3.199,9.422,6.215,15.374c2.541,5.015,4.252,6.01,5.725,8.096C453.667,448.961,447.249,452.068,443.978,448.961z"/>
		<path fill="#793F07" d="M404.481,443.563c7.359,1.718,25.391,3.189,30.297,3.435C428.399,449.329,411.351,446.631,404.481,443.563
			z"/>
	</g>
	<g>
		<g>
			
				<ellipse transform="matrix(-0.982 0.1887 -0.1887 -0.982 568.9813 164.6408)" fill="#793F07" cx="276.651" cy="109.412" rx="7.14" ry="16.661"/>
			<linearGradient id="SVGID_59_" gradientUnits="userSpaceOnUse" x1="287.9414" y1="110.396" x2="258.9957" y2="109.1695">
				<stop  offset="6.030000e-006" style="stop-color:#BE7A50"/>
				<stop  offset="1" style="stop-color:#DDA169"/>
			</linearGradient>
			<path fill="url(#SVGID_59_)" d="M280.122,123.847c-2.148-0.001-6.164-4.936-7.828-12.974c-0.811-3.92-0.879-7.856-0.188-10.797
				c0.645-2.743,1.736-3.871,2.477-4.002c0.068-0.013,0.137-0.019,0.205-0.019c2.146,0,6.164,4.936,7.826,12.975
				c0.824,3.979,0.891,7.813,0.189,10.797c-0.645,2.742-1.738,3.87-2.479,4.003C280.259,123.842,280.19,123.847,280.122,123.847
				L280.122,123.847z"/>
			
				<ellipse transform="matrix(-0.9695 0.2453 -0.2453 -0.9695 574.8488 148.9545)" fill="#965530" cx="278.149" cy="110.271" rx="3.703" ry="8.121"/>
		</g>
		<g>
			
				<ellipse transform="matrix(0.982 0.1888 -0.1888 0.982 27.1899 -66.2674)" fill="#793F07" cx="361.409" cy="109.577" rx="7.14" ry="16.66"/>
			<path fill="#DDA169" d="M357.938,124.012c2.148-0.001,6.164-4.936,7.828-12.975c0.811-3.92,0.879-7.855,0.189-10.797
				c-0.646-2.742-1.738-3.87-2.479-4.002c-0.068-0.012-0.137-0.018-0.205-0.018c-2.146,0-6.162,4.936-7.826,12.974
				c-0.824,3.979-0.891,7.813-0.189,10.797c0.645,2.743,1.738,3.87,2.479,4.003C357.802,124.006,357.87,124.012,357.938,124.012
				L357.938,124.012z"/>
			
				<ellipse transform="matrix(-0.9822 -0.1881 0.1881 -0.9822 694.0024 285.2023)" fill="#965530" cx="360.533" cy="109.673" rx="3.702" ry="8.019"/>
		</g>
		<g>
			<g>
				<path fill="#793F07" d="M363.759,85.33c0-25.341-19.768-45.883-44.156-45.883c-24.387,0-44.156,20.542-44.156,45.883
					c0,1.4,3.893,12.715,3.68,25.096c-0.123,7.113-0.328,17.049,0.49,21.955c2.758,7.157,23.246,35.627,25.758,37.288
					c7.238,4.784,22.84,6.182,31.77,0c5.068-6.705,20.074-30.296,21.547-35.529c2.453-14.71,1.123-34.815,1.473-40.068
					C360.136,94.071,363.759,87.861,363.759,85.33z"/>
				<linearGradient id="SVGID_60_" gradientUnits="userSpaceOnUse" x1="305.0977" y1="58.3687" x2="353.1798" y2="193.2931">
					<stop  offset="0" style="stop-color:#AD673B"/>
					<stop  offset="1" style="stop-color:#BE7A50"/>
				</linearGradient>
				<path fill="url(#SVGID_60_)" d="M322.308,171.54c-5.941-0.001-11.871-1.515-15.512-3.956
					c-2.607-2.348-21.48-28.607-24.279-35.469c-0.984-4.314-1.658-11.838-2.328-19.891c-1.021-12.301-1.799-25.414-1.799-26.895
					c0-23.677,18.488-42.939,41.213-42.939c22.727,0,41.213,19.263,41.213,42.939c0,1.752-0.287,4.959-0.41,6.329
					c-0.029,0.333-0.057,0.642-0.064,0.935l-0.008-0.026c-0.305,4.558-2.063,26.153-4.533,41.008
					c-1.1,4.718-14.711,28.449-20.303,34.624c-3.264,2.156-7.93,3.341-13.188,3.341H322.308z"/>
				<linearGradient id="SVGID_61_" gradientUnits="userSpaceOnUse" x1="271.7998" y1="112.0732" x2="318.7934" y2="113.5753">
					<stop  offset="6.030000e-006" style="stop-color:#BE7A50"/>
					<stop  offset="0.4517" style="stop-color:#CD8D5C"/>
					<stop  offset="1" style="stop-color:#DDA169"/>
				</linearGradient>
				<path fill="url(#SVGID_61_)" d="M321.812,63.938c-11.08,3.559-25.848-5.834-33.119,0.859c-3.379,3.197-5.887,15.209-1.961,27.23
					c-3.189,8.095,1.717,17.172,1.717,26.248c0,7.396-0.891,17.227,2.943,22.078c9.24,11.693,13.656,19.625,16.6,24.041
					c3.436,4.906,21.752,6.379,27.641,0.818c6.338-8.604,19.193-27.46,20.168-31.638c4.854-14.318,2.873-32.819,3.176-37.378
					c0,0,1.4-4.205,1.43-4.538c0.123-1.37,0.41-4.577,0.41-6.329C360.815,61.653,355.419,53.145,321.812,63.938z"/>
			</g>
			<linearGradient id="SVGID_62_" gradientUnits="userSpaceOnUse" x1="320.4111" y1="153.7158" x2="309.0603" y2="153.3916">
				<stop  offset="0" style="stop-color:#AD673B"/>
				<stop  offset="1" style="stop-color:#BE7A50"/>
			</linearGradient>
			<path fill="url(#SVGID_62_)" d="M311.753,152.129c4.906,2.208,14.842,2.699,20.443-0.163
				C328.435,156.055,317.886,158.017,311.753,152.129z"/>
		</g>
		<linearGradient id="SVGID_63_" gradientUnits="userSpaceOnUse" x1="322.9102" y1="90.5161" x2="322.473" y2="111.2851">
			<stop  offset="6.030000e-006" style="stop-color:#BE7A50"/>
			<stop  offset="0.386" style="stop-color:#C78658"/>
			<stop  offset="1" style="stop-color:#DDA169"/>
		</linearGradient>
		<path fill="url(#SVGID_63_)" d="M321.319,129.561c-1.777-0.485-7.236-2.453-7.236-3.803s2.086-9.936,2.209-11.775
			c0.121-1.84-0.559-7.524-0.613-8.627c-0.164-3.27-0.307-4.252,0.551-6.092c3.926-1.166,9.568,0,10.609,0.49
			c-0.121,2.331-0.203,11.939-0.203,14.27c0,1.432,1.717,7.85,3.025,9.895c1.799,2.984-0.859,3.68-2.822,4.17
			C324.142,128.947,322.669,129.928,321.319,129.561z"/>
		<g>
			<linearGradient id="SVGID_64_" gradientUnits="userSpaceOnUse" x1="325.4014" y1="154.5352" x2="321.5098" y2="103.7015">
				<stop  offset="0" style="stop-color:#AD673B"/>
				<stop  offset="1" style="stop-color:#BE7A50"/>
			</linearGradient>
			<path fill="url(#SVGID_64_)" d="M351.413,95.053c-7.115-6.379-16.723-6.338-22.855-4.621c-1.596,0.982-2.576,1.84-3.721,2.331
				c-2.168,0.777-6.461,0.735-7.197-2.208c-2.084-0.98-10.834-2.902-13.492-2.82c-4.66,0.613-7.236,1.471-9.199,2.453
				c-1.35,1.717-1.594,1.717-3.229,4.047c-1.473,2.33-1.309,6.379-0.246,11.448c2.086-0.245,12.92-7.687,21.26-3.761
				c0.057,0.941-11.447,7.522-11.447,7.522s8.422,1.227,12.266-0.327c0.039,3.476,0.566,8.064,0.326,10.631
				c-1.184,1.922-7.113,7.032-5.068,8.994c0.43,0.43,1.553,0.572,2.045,0.654c1.307-0.327,2.861-0.572,4.742-0.245
				c2.664,0.464,2.801,2.493,5.805,2.371c3.066-0.125,2.781-0.572,3.762-0.981c1.344-0.56,1.717-0.736,3.926-0.98
				c0.369,0.068,1.717,1.227,3.025-0.164c0.123-1.247-1.963-2.616-3.436-2.371c-2.781,0.464-5.805,1.391-7.113,1.431
				c-1.145,0.036-5.643-1.349-6.051-2.331c-0.328-1.717,2.043-9.976,2.125-11.652c0.07-1.442-0.082-10.916,0-12.02
				c0.186-3.436,8.771-3.066,8.893-0.368c0.105,2.292,0.186,6.562,0.186,6.562c9.076,3.066,17.998,1.094,23.428-3.373
				c-0.328-0.939-1.064-2.861-1.432-4.088C349.858,100.449,350.923,97.67,351.413,95.053z"/>
			<path fill="#793F07" d="M311.753,128.742c1.256-0.785,3.918-0.397,5.061,0.115c1.174,0.527,2.516,1.688,4.775,1.729
				c1.072,0.02,3.619-1.211,4.707-1.643c1.164-0.461,4.02-0.773,4.674,0.371c-1.646-0.74-3.605,0.15-4.607,0.613
				c-1.266,0.587-3.201,1.729-4.848,1.811c-2.229,0.111-4.039-1.248-5.277-1.893C315.099,129.254,313.481,128.48,311.753,128.742z"
				/>
			<path fill="#793F07" d="M312.202,129.561c-5.887,0.857-4.293-3.558,0.941-5.889C309.872,126.371,308.462,129.561,312.202,129.561
				z"/>
			<path fill="#793F07" d="M330.765,130.133c3.434-1.717,0.123-5.766-0.982-6.746C332.235,125.227,336.282,128.783,330.765,130.133z
				"/>
		</g>
		<g>
			<g>
				<linearGradient id="SVGID_65_" gradientUnits="userSpaceOnUse" x1="302.0469" y1="103.1455" x2="302.1082" y2="110.1367">
					<stop  offset="0" style="stop-color:#CED5D8"/>
					<stop  offset="1" style="stop-color:#FFFFFF"/>
				</linearGradient>
				<path fill="url(#SVGID_65_)" d="M292.872,100.309c5.922-2.367,16.217-1.045,19.119,0.7c1.223,3.227,1.012,5.565,1.031,6.956
					c-2.422,1.383-16.242,3.883-21.201-1.423c-0.49-0.778-0.707-1.687-0.707-1.687S292.493,101.746,292.872,100.309z"/>
				<linearGradient id="SVGID_66_" gradientUnits="userSpaceOnUse" x1="302.7813" y1="99.5454" x2="302.6586" y2="105.3717">
					<stop  offset="0" style="stop-color:#CED5D8"/>
					<stop  offset="1" style="stop-color:#FFFFFF"/>
				</linearGradient>
				<path fill="url(#SVGID_66_)" d="M297.034,101.594c-2.65,0.883-5.279,4.15-2.205,6.941c5.299,2.193,13.541,1.029,16.971-0.076
					C311.341,101.313,303.358,99.787,297.034,101.594z"/>
			</g>
			<g>
				<circle fill="#321908" cx="301.977" cy="104.391" r="5.442"/>
				<linearGradient id="SVGID_67_" gradientUnits="userSpaceOnUse" x1="301.9766" y1="99.2637" x2="301.9766" y2="107.6047">
					<stop  offset="0" style="stop-color:#42210B"/>
					<stop  offset="0.9984" style="stop-color:#94561D"/>
				</linearGradient>
				<circle fill="url(#SVGID_67_)" cx="301.977" cy="104.391" r="5.034"/>
				<linearGradient id="SVGID_68_" gradientUnits="userSpaceOnUse" x1="302.2246" y1="99.8291" x2="302.2246" y2="107.959">
					<stop  offset="0" style="stop-color:#42210B"/>
					<stop  offset="0.9815" style="stop-color:#C46C1B"/>
				</linearGradient>
				<path fill="url(#SVGID_68_)" d="M302.907,103.377c-3.869-2.191-6.199,1.365-5.262,3.541c0.875,1.492,2.477,2.506,4.33,2.506
					c2.781,0,5.035-2.253,5.035-5.033c0-0.114-0.025-0.221-0.033-0.332C306.724,105.806,303.331,107.932,302.907,103.377z"/>
				<circle fill="#211106" cx="301.976" cy="104.391" r="2.422"/>
				<circle fill="#FFFFFF" cx="297.277" cy="102.775" r="1.731"/>
			</g>
			<path d="M313.163,101.674c0.115-0.344,0.227-0.693,0.338-1c-0.555-0.196-1.557-0.48-2.83-0.766
				c-5.568-2.201-14.367-2.012-17.072-0.951c-0.525,0.748-2.514,3.863-2.76,6.01c0.203,1.24,1.227,1.901,2.699,3.006
				c-0.922-1.461-1.447-2.422-1.533-2.883c0.326-1.304,1.436-3.355,3.127-4.354c2.906-0.667,7.258-0.476,10.994,0.222
				c1.707,0.361,3.297,0.798,4.615,1.279c0.396,0.16,0.77,0.326,1.09,0.5c0.475,1.287,1.191,4.229,1.115,5.536
				C313.78,106.254,313.593,103.5,313.163,101.674z"/>
		</g>
		<g>
			<g>
				<linearGradient id="SVGID_69_" gradientUnits="userSpaceOnUse" x1="339.6006" y1="101.2598" x2="339.4781" y2="111.422">
					<stop  offset="0" style="stop-color:#CED5D8"/>
					<stop  offset="1" style="stop-color:#FFFFFF"/>
				</linearGradient>
				<path fill="url(#SVGID_69_)" d="M348.665,100.432c-5.922-2.367-16.217-1.046-19.119,0.699c-1.223,3.228-0.947,5.533-0.375,6.924
					c2.422,1.383,15.586,3.915,20.545-1.391c0.49-0.777,0.707-1.686,0.707-1.686S349.042,101.869,348.665,100.432z"/>
				<path fill="#FFFFFF" d="M345.442,102.657c-4.779-1.911-16.926-1.881-14.883,5.888c3.895,1.14,12.17,2.365,17.182-0.385
					C348.614,105.385,348.569,103.439,345.442,102.657z"/>
			</g>
			<g>
				<circle fill="#321908" cx="338.712" cy="104.391" r="5.441"/>
				<linearGradient id="SVGID_70_" gradientUnits="userSpaceOnUse" x1="338.5908" y1="100.522" x2="338.8362" y2="108.2909">
					<stop  offset="0" style="stop-color:#42210B"/>
					<stop  offset="0.9984" style="stop-color:#94561D"/>
				</linearGradient>
				<circle fill="url(#SVGID_70_)" cx="338.713" cy="104.391" r="5.034"/>
				<linearGradient id="SVGID_71_" gradientUnits="userSpaceOnUse" x1="338.9609" y1="100.5244" x2="338.9609" y2="108.6544">
					<stop  offset="0" style="stop-color:#42210B"/>
					<stop  offset="0.9815" style="stop-color:#C46C1B"/>
				</linearGradient>
				<path fill="url(#SVGID_71_)" d="M339.642,103.377c-3.867-2.191-6.199,1.365-5.26,3.541c0.873,1.492,2.477,2.506,4.33,2.506
					c2.781,0,5.035-2.253,5.035-5.033c0-0.114-0.027-0.221-0.035-0.332C343.46,105.806,340.067,107.932,339.642,103.377z"/>
				<circle fill="#211106" cx="338.712" cy="104.391" r="2.422"/>
				<circle fill="#FFFFFF" cx="334.322" cy="103.557" r="1.731"/>
			</g>
			<path d="M348.12,99.141c-2.826-0.579-12.105-1.169-18.334,1.348c-0.986,0.252-1.756,0.484-2.211,0.646
				c0.328,0.44,0.564,0.964,0.807,1.374c-0.238,1.903-0.133,4.413,0.871,5.79c-0.078-1.307-0.021-4.152,0.453-5.439
				c0.344-0.188,0.748-0.363,1.178-0.531c0.83-0.298,1.758-0.578,2.756-0.835c4.084-0.964,9.5-1.29,12.887-0.513
				c1.691,1,2.68,2.99,3.006,4.293c-0.088,0.462-0.549,1.238-1.473,2.699c1.227-0.736,2.078-1.701,2.535-2.74
				C350.554,104.538,349.313,100.834,348.12,99.141z"/>
		</g>
		<path d="M286.853,95.951c0.32-1.6,0.229-1.547,1.719-4.66c1.145-1.717,4.414-3.926,7.48-4.906
			c9.568,0.98,18.359,3.352,21.344,4.66c0.162,2.127,0.244,4.906,0.082,5.725c-2.781-1.146-10.672-4.047-21.547-4.498
			C293.231,92.763,288.938,93.376,286.853,95.951z"/>
		<path d="M355.257,97.26c-0.613-1.35-1.473-4.17-1.473-4.17c-1.145-1.718-5.154-3.68-7.932-4.988
			c-9.078,0.736-15.334,2.33-18.645,3.435c-0.982,2.208-1.104,4.171-0.572,5.806c2.779-1.145,8.422-2.861,18.645-4.579
			C347.296,93.129,352.276,95.584,355.257,97.26z"/>
		<path d="M364.251,60.871c-3.232-13.572-20.523-26.546-42.439-26.984c-24.533-0.49-36.324,9.643-43.176,22.324
			c-5.404,10.001-4.498,30.583-3.129,37.104c0.484,0.283,1.166,0.797,1.779,1.166l1.594,15.945l2.883,2.883l-1.471-18.093
			c0.184-2.146,1.492-3.762,1.533-10.304c-2.945-9.648,1.635-19.461,3.598-21.75c6.541-8.178,22.404,2.125,34.508,1.635
			c11.77-0.478,28.713-7.451,34.752-1.227c3.988,4.11,4.367,13.506,2.699,20.361c0.613,6.01,1.27,8.109,1.375,11.82
			c-0.326,4.045-0.885,14.061-1.375,17.454c0.92,0.04,3.25-1.922,3.25-1.922l1.709-17.635c0.787-0.413,1.111-0.539,2.094-0.458
			C365.171,89.676,367.931,76.326,364.251,60.871z"/>
		<g>
			<path fill="#965530" d="M296.706,135.529c1.191,0.183,2.658,0.531,3.639,0.531c12.348,1.309,37.248,1.595,44.02,1.513
				c-0.994,0.409-1.49,0.899-2.402,1.145c-2.238,2.616-6.631,7.196-8.785,9.649c-3.977,3.107-18.572,3.966-24.041-0.613
				c-4.102-3.955-6.295-6.772-8.504-9.199C299.14,137.654,297.933,136.51,296.706,135.529z"/>
			<path fill="#965530" d="M300.524,139.291c-1.555-0.613-4.545-3.416-4.227-4.252c0.186-0.491,3.729-0.695,4.723-0.328
				c-1.492,0.368-1.969,0.879-2.092,1.37C298.804,136.572,299.901,138.616,300.524,139.291z"/>
			<path fill="#965530" d="M339.62,136.604c1.615-0.432,5.711,0.039,5.965,0.896c0.15,0.503-2.559,2.765-3.576,3.061
				c0.969-1.179,1.037-1.87,0.838-2.336C342.649,137.758,340.526,136.773,339.62,136.604z"/>
		</g>
		<g>
			<path fill="#ADBCC7" d="M321.995,148.781c-3.947,0-7.838-0.725-10.857-2.213c-3.947-2.885-7.738-6.994-9.445-8.75
				c7.084,1.472,36.197,1.134,38.57,1.227c-2.676,2.896-6.805,6.734-9.316,8.279C328.228,148.278,325.138,148.781,321.995,148.781z"
				/>
			<linearGradient id="SVGID_72_" gradientUnits="userSpaceOnUse" x1="301.8652" y1="144.1182" x2="340.1809" y2="144.1182">
				<stop  offset="0.145" style="stop-color:#C5D3D9"/>
				<stop  offset="0.2249" style="stop-color:#DEE6E9"/>
				<stop  offset="0.3087" style="stop-color:#F0F4F5"/>
				<stop  offset="0.3963" style="stop-color:#FBFCFD"/>
				<stop  offset="0.4932" style="stop-color:#FFFFFF"/>
				<stop  offset="0.6635" style="stop-color:#FCFDFE"/>
				<stop  offset="0.7679" style="stop-color:#F4F8FB"/>
				<stop  offset="0.8543" style="stop-color:#E6F0F5"/>
				<stop  offset="0.8826" style="stop-color:#DFECF2"/>
			</linearGradient>
			<path fill="url(#SVGID_72_)" d="M329.722,144.586c1.814-0.428,4.264-1.072,6.297-2.175c0.404-0.772,0.74-1.527,0.756-2.548
				c-6.902-0.006-22.979,0.327-30.664-0.408c0.139,1.105,0.219,1.521,0.797,2.861c3.17,1.648,7.605,2.699,7.605,2.699
				s-3.523-0.103-6.314-0.842c0.951,0.836,1.932,1.658,2.939,2.395c3.02,1.488,6.91,2.213,10.857,2.213
				c3.143,0,6.232-0.503,8.951-1.457c1.18-0.726,2.719-1.965,4.295-3.368c0.021-0.049,0.043-0.093,0.066-0.142
				C333.782,144.326,331.581,144.586,329.722,144.586z"/>
		</g>
	</g>
</g>
</svg>
