<?xml version="1.0" encoding="utf-8"?>
<!-- Generator: Adobe Illustrator 15.0.0, SVG Export Plug-In . SVG Version: 6.00 Build 0)  -->
<!DOCTYPE svg PUBLIC "-//W3C//DTD SVG 1.1//EN" "http://www.w3.org/Graphics/SVG/1.1/DTD/svg11.dtd">
<svg version="1.1" id="Capa_1_1_" xmlns="http://www.w3.org/2000/svg" xmlns:xlink="http://www.w3.org/1999/xlink" x="0px" y="0px"
	 width="600px" height="800px" viewBox="0 0 600 800" enable-background="new 0 0 600 800" xml:space="preserve">
<rect fill="#FFFFFF" width="600" height="800"/>
<g id="_x30_1">
	<g>
		<g>
			<path fill="#944D09" d="M321.005,700.322c0.525,8.042-3.27,15.251-5.782,23.875c-1.816,6.236-1.485,11.412,1.052,14.576
				c2.714,3.386,13.403,4.021,21.024,2.514c4.398-0.87,13.666-1.006,17.872,0c4.205,1.005,15.167,3.285,22,3.361
				c5.52,0.062,10.957-0.817,10.957-0.817s9.06,2.132,14.065,0.981c7.113-1.636,9.403-9.568,7.931-11.285
				c-0.735-0.859-7.294-1.427-14.474-3.681c-7.178-2.253-13.75-7.911-17.614-11.43c-5.52-5.027-16.558-10.053-20.237-16.085
				C348.863,699.316,327.313,701.327,321.005,700.322z"/>
			<linearGradient id="SVGID_1_" gradientUnits="userSpaceOnUse" x1="279.9893" y1="720.0859" x2="381.3657" y2="723.7788">
				<stop  offset="6.030000e-006" style="stop-color:#F3B190"/>
				<stop  offset="0.6068" style="stop-color:#FCC8A6"/>
				<stop  offset="1" style="stop-color:#FFD1AF"/>
			</linearGradient>
			<path fill="url(#SVGID_1_)" d="M388.618,741.214c0,0-5.944,1.104-11.447,1.146c-5.51,0.042-11.285-1.146-21.261-3.763
				c-3.481-0.913-12.447-0.741-19.217,0.083c-12.232,1.49-17.265-0.928-17.916-1.74c-1.862-2.322-2.05-6.672-0.517-11.934
				c0.678-2.324,1.466-4.583,2.226-6.77c1.715-4.914,3.35-9.607,3.666-14.642c1.113,0.039,2.43,0.058,4.006,0.058
				c1.465,0,3.048-0.016,4.702-0.03c1.787-0.017,3.661-0.033,5.556-0.033c5.877,0,13.016,0.154,17.349,1.295
				c2.271,4.766,7.689,7.06,12.433,10.183c2.947,1.941,5.73,3.773,7.663,5.534c8.017,7.3,17.338,12.764,30.584,14.235
				c1.166,0.245,2.086,2.493-1.839,6.173C400.189,743.953,392.481,741.827,388.618,741.214z"/>
		</g>
		<g>
			<path fill="#944D09" d="M320.585,591.244c-6.624,7.604-16.683,21.916-16.683,37.288c0,11.284,4.293,22.937,10.182,33.976
				c3.066,11.898,7.114,31.4,6.658,43.092c13.829,0,33.771,2.66,40.564,2.66c-9.812-37.53-0.88-108.215,1.223-120.279
				C349.389,587.479,326.367,592.249,320.585,591.244z"/>
			<linearGradient id="SVGID_2_" gradientUnits="userSpaceOnUse" x1="303.6533" y1="651.0078" x2="362.7809" y2="651.0078">
				<stop  offset="6.030000e-006" style="stop-color:#F3B190"/>
				<stop  offset="0.6068" style="stop-color:#FCC8A6"/>
				<stop  offset="1" style="stop-color:#FFD1AF"/>
			</linearGradient>
			<path fill="url(#SVGID_2_)" d="M358.2,708.178c-5.725,1.636-27.313,5.889-34.345-0.653c0.156-16.565-3.778-34.402-7.319-46.856
				c-6.255-11.162-8.955-21.202-9.198-32.872c-0.246-11.775,9.566-26.249,14.87-34.135c0.262,0.008,0.537,0.011,0.825,0.011
				c3.622,0,8.985-0.538,15.197-1.162c6.814-0.684,14.482-1.453,20.646-1.547C356.61,606.117,348.878,671.381,358.2,708.178z"/>
			<path fill="#944D09" d="M332.359,614.549c5.643,17.908,2.943,32.3-4.906,46.364C331.133,647.912,336.04,632.457,332.359,614.549z
				"/>
			<path fill="#944D09" d="M314.942,657.97c2.698,4.825,5.479,7.114,7.522,8.341c-4.334-1.146-6.542-2.78-7.604-4.089
				C314.86,660.995,314.697,659.933,314.942,657.97z"/>
		</g>
		<g>
			<path fill="#944D09" d="M321.229,570.725c-0.731,5.445-4.324,22.481-5.306,26.407c22.324-2.699,36.795,0.401,45.38-1.107
				c3.855-7.539,6.571-17.761,7.535-22.115c-0.456-5.781-1.551-12.148-2.099-13.656
				C354.677,561.258,326.393,570.626,321.229,570.725z"/>
			<linearGradient id="SVGID_3_" gradientUnits="userSpaceOnUse" x1="315.4648" y1="571.0381" x2="365.8346" y2="589.6815">
				<stop  offset="6.030000e-006" style="stop-color:#F3B190"/>
				<stop  offset="0.6068" style="stop-color:#FCC8A6"/>
				<stop  offset="1" style="stop-color:#FFD1AF"/>
			</linearGradient>
			<path fill="url(#SVGID_3_)" d="M319.357,597.867c0.982-3.435,3.146-11.487,3.664-15.487c0.43-3.315,0.852-6.579,1.171-9.012
				c3.047-0.582,7.714-1.829,14.389-3.637c8.459-2.288,18.709-5.063,25.551-6.117c0.437,2.514,0.991,6.561,1.32,10.631
				c-0.204,1.864-3.386,11.3-6.076,19.265c-3.416,2.011-10.536,5.529-18.397,5.529C340.979,599.039,323.634,600.172,319.357,597.867
				z"/>
			<linearGradient id="SVGID_4_" gradientUnits="userSpaceOnUse" x1="311.4326" y1="567.418" x2="356.4674" y2="584.0867">
				<stop  offset="6.030000e-006" style="stop-color:#F3B190"/>
				<stop  offset="1" style="stop-color:#FFD1AF"/>
			</linearGradient>
			<path fill="url(#SVGID_4_)" d="M364.132,563.614c-6.842,1.055-17.092,3.829-25.551,6.117c-3.777,1.022-6.892,1.859-9.453,2.504
				c-1.682,8.612-1.98,15.559-2.165,24.241c6.276,0.819,14.015,2.563,14.015,2.563c7.862,0,14.982-3.519,18.398-5.529
				c2.69-7.965,5.872-17.4,6.076-19.265C365.123,570.175,364.568,566.128,364.132,563.614z"/>
		</g>
		<g>
			<path fill="#944D09" d="M387.562,387.141c5.732,38.761,4.165,138.358-23.102,182.516c-14.839,9.158-38.108,9.158-43.505,7.85
				c-3.373-24.858-12.76-174.99-14.108-188.074C324.073,389.432,370.479,388.981,387.562,387.141z"/>
			<linearGradient id="SVGID_5_" gradientUnits="userSpaceOnUse" x1="354.4121" y1="488.1455" x2="254.8147" y2="490.6989">
				<stop  offset="0.0126" style="stop-color:#FFBD99"/>
				<stop  offset="1" style="stop-color:#E3A586"/>
			</linearGradient>
			<path fill="url(#SVGID_5_)" d="M322.811,586.011c0.337-4.906,0.763-9.764,0.885-11.055c-2.201-19.16-5.927-83.604-8.675-131.174
				c-1.363-23.57-2.481-42.926-3.085-51.09c24.892-0.126,61.332-1.604,73.002-2.389c5.519,42.602,1.265,138.337-22.699,177.226
				C349.453,575.871,332.74,586.011,322.811,586.011z"/>
			<linearGradient id="SVGID_6_" gradientUnits="userSpaceOnUse" x1="290.3696" y1="488.3203" x2="383.1957" y2="488.3203">
				<stop  offset="6.030000e-006" style="stop-color:#F3B190"/>
				<stop  offset="0.6068" style="stop-color:#FCC8A6"/>
				<stop  offset="1" style="stop-color:#FFD1AF"/>
			</linearGradient>
			<path fill="url(#SVGID_6_)" d="M384.938,390.304c-7.959,0.536-34.08,3.175-53.56,3.706
				c-2.983,63.979-3.271,154.386-4.415,192.328c10.303-1.963,27.476-12.512,35.275-18.809
				C386.202,528.641,390.456,432.905,384.938,390.304z"/>
		</g>
		<g>
			<path fill="#944D09" d="M331.133,687.898c-2.207,5.52-4.17,15.455-3.925,17.172c0.296,2.074,7.605,5.888,10.303,6.378
				C335.549,704.334,332.114,691.578,331.133,687.898z"/>
			<linearGradient id="SVGID_7_" gradientUnits="userSpaceOnUse" x1="322.0518" y1="705.6738" x2="341.3504" y2="696.5154">
				<stop  offset="6.030000e-006" style="stop-color:#F3B190"/>
				<stop  offset="1" style="stop-color:#FFD1AF"/>
			</linearGradient>
			<path fill="url(#SVGID_7_)" d="M337.92,711.449c-3.435-1.391-7.768-5.643-8.586-7.114c-0.246-3.271,0.863-12.023,1.963-16.354
				C332.416,692.136,336.802,707.358,337.92,711.449z"/>
		</g>
	</g>
	<path fill="#944D09" d="M381.75,343.639c2.944,7.195,6.705,37.941,6.051,52.334c-5.56,0.326-41.703-0.981-47.591-0.49
		c0-5.397-1.472-48.1-1.472-52.498C342.01,342.984,378.807,343.639,381.75,343.639z"/>
	<linearGradient id="SVGID_8_" gradientUnits="userSpaceOnUse" x1="341.7373" y1="369.5215" x2="384.9346" y2="369.5215">
		<stop  offset="6.030000e-006" style="stop-color:#F3B190"/>
		<stop  offset="0.6068" style="stop-color:#FCC8A6"/>
		<stop  offset="1" style="stop-color:#FFD1AF"/>
	</linearGradient>
	<path fill="url(#SVGID_8_)" d="M384.815,393.082c-4.022,0-10.855-0.148-18.09-0.305c-7.965-0.172-16.201-0.351-21.565-0.351
		c-0.759,0-1.443,0.004-2.056,0.011c-0.119-5.273-0.436-15.517-0.744-25.492c-0.263-8.482-0.515-16.61-0.623-20.984
		c4.195,0.059,11.877,0.185,19.371,0.307c7.63,0.125,14.933,0.245,18.525,0.293c2.466,8.546,5.415,32.586,5.297,46.521
		C384.893,393.082,384.855,393.082,384.815,393.082z"/>
	<path fill="#944D09" d="M269.886,341.677c-5.233,8.831-11.121,37.614-11.448,52.661c13.084,2.289,64.926,1.961,68.525,1.635
		c-0.49-9.813-0.981-50.862-0.981-53.479C321.402,342.821,273.484,342.33,269.886,341.677z"/>
	<linearGradient id="SVGID_9_" gradientUnits="userSpaceOnUse" x1="265.5176" y1="360.3584" x2="307.7113" y2="373.4419">
		<stop  offset="0.0126" style="stop-color:#FFBD99"/>
		<stop  offset="1" style="stop-color:#E3A586"/>
	</linearGradient>
	<path fill="url(#SVGID_9_)" d="M308.894,393.26c-8.573,0-35.723-0.111-47.41-1.465c0.821-14.846,5.797-37.996,10.095-47.022
		c8.206,0.483,34.458,0.769,46.061,0.769c2.212,0,4.021-0.008,5.425-0.025c0.098,9.244,0.458,36.326,0.838,47.622
		C320.865,393.203,315.618,393.26,308.894,393.26z"/>
	<g>
		<path fill="#944D09" d="M387.064,204.627c-20.361-6.624-22.078-22.324-40.477-28.457c0.019,7.523-2.578,32.927-2.894,37.834
			c12.104,0.297,40.891,1.203,42.851,1.198C386.865,211.932,387.072,207.244,387.064,204.627z"/>
		
			<linearGradient id="SVGID_10_" gradientUnits="userSpaceOnUse" x1="322.459" y1="196.1074" x2="370.3415" y2="196.1074" gradientTransform="matrix(1 -0.0026 0.0026 1 -0.1916 0.6201)">
			<stop  offset="6.030000e-006" style="stop-color:#F3B190"/>
			<stop  offset="0.4797" style="stop-color:#F8BE9D"/>
			<stop  offset="1" style="stop-color:#FFD1AF"/>
		</linearGradient>
		<path fill="url(#SVGID_10_)" d="M383.74,212.196c-3.321-0.087-30.891-0.897-36.896-1.056c0.057-0.791,0.118-23.441,0.479-31.781
			c4.662,1.963,10.401,5.91,15.037,10.96c6.176,6.729,13.131,11.985,21.271,16.515C383.644,207.107,383.735,211.428,383.74,212.196z
			"/>
	</g>
	<g>
		<path fill="#944D09" d="M238.895,191.625c18.644-0.49,42.194-19.625,60.348-18.89c2.453,5.888,11.039,33.363,13.002,39.251
			c-10.304,0.49-65.745-2.453-68.689-2.453C243.555,202.664,239.385,197.021,238.895,191.625z"/>
		<linearGradient id="SVGID_11_" gradientUnits="userSpaceOnUse" x1="216.0635" y1="192.5098" x2="280.6616" y2="192.5098">
			<stop  offset="0.0126" style="stop-color:#FFBD99"/>
			<stop  offset="1" style="stop-color:#E3A586"/>
		</linearGradient>
		<path fill="url(#SVGID_11_)" d="M308.137,209.095c-11.32-0.068-36.843-1.255-52.272-1.974c-4.383-0.203-7.487-0.348-9.504-0.434
			c-0.323-3.451-1.15-6.876-1.9-9.977c-0.336-1.389-0.663-2.737-0.921-3.998c10.187-0.816,19.676-5.111,28.883-9.279
			c8.345-3.776,16.764-7.133,24.122-7.509C299.277,182.943,305.126,200.461,308.137,209.095z"/>
	</g>
	<g>
		<path fill="#944D09" d="M287.875,127.107c-0.301,1.959-0.163,40.34,0.119,51.162c4.396,16.6,12.454,38.842,12.181,41.02
			c7.177,1.41,38.137-1.998,42.711-1.606c1.047-4.647,6.37-22.274,7.501-36.243c-0.816-21.922-2.523-45.332-2.49-47.627
			C339.065,133.688,292.122,127.494,287.875,127.107z"/>
		<linearGradient id="SVGID_12_" gradientUnits="userSpaceOnUse" x1="342.084" y1="178.4424" x2="299.1542" y2="173.0455">
			<stop  offset="0.0126" style="stop-color:#FFBD99"/>
			<stop  offset="1" style="stop-color:#E3A586"/>
		</linearGradient>
		<path fill="url(#SVGID_12_)" d="M348.604,215.151c-2.892-0.071-7.39-0.136-13.312-0.22l-0.663-0.01
			c-13.471-0.189-34.926-0.492-42.969-1.168c0.106-6.598-1.25-76.068-1.244-83.178c1.242,0.129,44.866,6.049,55.33,6.675
			C346.061,149.951,347.807,198.635,348.604,215.151z"/>
		<linearGradient id="SVGID_13_" gradientUnits="userSpaceOnUse" x1="282.2471" y1="165.6055" x2="337.39" y2="177.6565">
			<stop  offset="6.030000e-006" style="stop-color:#F3B190"/>
			<stop  offset="1" style="stop-color:#FFD1AF"/>
		</linearGradient>
		<path fill="url(#SVGID_13_)" d="M345.746,137.251c-2.126-0.128-0.326,0.14-4.556-0.331c1.853,15.59-5.504,33.324-12.756,38.27
			c-8.504,3.271-22.159,2.534-28.702-1.718c0.573,7.851,5.152,26.249,7.114,39.741c8.174,0.189,20.925,1.612,27.782,1.709
			l0.663,0.01c5.922,0.084,10.42,0.148,13.312,0.22C347.807,198.635,346.061,149.951,345.746,137.251z"/>
	</g>
	<g>
		<g>
			<path fill="#944D09" d="M410.829,311.566c4.906,11.285,12.144,23.482,14.719,35.326c6.103,28.068,3.485,58.071,6.705,69.343
				c-2.617,0.654-25.972,0.998-27.28,1.325c-10.793-36.307-27.997-55.622-32.576-94.873
				C386.134,318.109,406.577,312.549,410.829,311.566z"/>
			<linearGradient id="SVGID_14_" gradientUnits="userSpaceOnUse" x1="353.0479" y1="365.2271" x2="406.1221" y2="365.2271">
				<stop  offset="0.0126" style="stop-color:#FFBD99"/>
				<stop  offset="1" style="stop-color:#E3A586"/>
			</linearGradient>
			<path fill="url(#SVGID_14_)" d="M407.427,415.436c-4.233-13.592-8.837-25.046-13.882-36.054
				c-7.705-16.81-14.999-32.72-17.928-54.654c11.802-3.827,27.123-8.06,33.526-9.709c1.219,2.679,2.539,5.406,3.825,8.062
				c3.916,8.084,7.964,16.443,9.703,24.438c3.443,15.837,4.07,32.436,4.575,45.772c0.317,8.392,0.58,15.358,1.444,20.442
				c-3.538,0.341-9.433,0.771-13.412,1.062C411.754,415.052,408.897,415.313,407.427,415.436z"/>
			<linearGradient id="SVGID_15_" gradientUnits="userSpaceOnUse" x1="379.0625" y1="367.6621" x2="429.1836" y2="363.6524">
				<stop  offset="6.030000e-006" style="stop-color:#F3B190"/>
				<stop  offset="0.45" style="stop-color:#F9C1A0"/>
				<stop  offset="1" style="stop-color:#FFD1AF"/>
			</linearGradient>
			<path fill="url(#SVGID_15_)" d="M429.32,413.696c-0.864-5.083-1.756-12.015-2.073-20.406
				c-0.505-13.337-1.132-29.936-4.575-45.772c-1.739-7.994-5.787-16.354-9.703-24.438c-1.286-2.655-2.606-5.383-3.825-8.062
				c-1.752,0.451-1.472,14.229-5.888,22.079c-7.85,1.308-10.304,15.699-9.076,23.059c3.27,24.531,9.648,44.156,13.573,54.951
				C410.042,415.761,425.781,414.038,429.32,413.696z"/>
		</g>
		<g>
			<path fill="#944D09" d="M405.76,251.383c3.271,8.832,9.158,48.736,8.831,64.764c-1.309,7.523-9.863,19.233-12.103,19.952
				c-4.58,0-20.33-10.041-23.273-15.929c-2.29-15.699-2.893-71.404-2.893-74.674C385.153,247.785,403.144,250.075,405.76,251.383z"
				/>
			<linearGradient id="SVGID_16_" gradientUnits="userSpaceOnUse" x1="360.6455" y1="289.123" x2="398.1099" y2="289.123">
				<stop  offset="0.0126" style="stop-color:#FFBD99"/>
				<stop  offset="1" style="stop-color:#E3A586"/>
			</linearGradient>
			<path fill="url(#SVGID_16_)" d="M401.783,333.908c-2.943,0-9.668-0.816-19.706-7.769c-1.838-14.94-2.692-63.827-2.788-76.933
				c5.567-9.01,16.117-4.349,24.143,4.5c3.278,10.772,8.462,47.283,8.221,62.146C410.476,321.99,404.106,331.809,401.783,333.908z"
				/>
			<linearGradient id="SVGID_17_" gradientUnits="userSpaceOnUse" x1="363.877" y1="293.6406" x2="401.7577" y2="287.9585">
				<stop  offset="6.030000e-006" style="stop-color:#F3B190"/>
				<stop  offset="0.5427" style="stop-color:#F9C09F"/>
				<stop  offset="1" style="stop-color:#FFD1AF"/>
			</linearGradient>
			<path fill="url(#SVGID_17_)" d="M411.652,315.854c0.241-14.863-4.942-51.374-8.221-62.146c-5.346-5.895-8.791-10.454-14.159-9.83
				c1.963,28.129-1.471,48.736,2.291,73.268c1.153,4.037,4.251,14.719,7.831,16.598c0.961,0.123,1.765,0.166,2.389,0.166
				C404.106,331.809,410.476,321.99,411.652,315.854z"/>
		</g>
		<g>
			<path fill="#944D09" d="M368.502,198.412c34.836,1.635,51.322,36.126,38.893,69.488c-7.851-24.531-47.428-53.151-50.699-55.768
				c1.576-1.378,1.307-7.58,3.14-11.104C361.062,200.783,366.336,198.575,368.502,198.412z"/>
			<linearGradient id="SVGID_18_" gradientUnits="userSpaceOnUse" x1="286.4302" y1="248.6494" x2="401.8893" y2="225.4269">
				<stop  offset="6.030000e-006" style="stop-color:#F3B190"/>
				<stop  offset="0.3681" style="stop-color:#F8BE9D"/>
				<stop  offset="1" style="stop-color:#FFD1AF"/>
			</linearGradient>
			<path fill="url(#SVGID_18_)" d="M406.117,260.582c-4.337-4.57-15.036-13.533-20.434-17.949
				c-14.724-12.047-24.528-27.533-28.578-31.645c0.49-1.963-0.491-10.059-0.246-12.512c15.864-1.717,36.043,8.705,43.557,19.523
				C408.492,229.627,410.521,245.262,406.117,260.582z"/>
		</g>
	</g>
	<g>
		<path fill="#944D09" d="M222.458,204.136c3.434,68.688,28.947,82.427,41.213,104.015c4.416,25.021-3.925,39.25,1.962,49.063
			c8.832,14.064,48.409,15.537,51.025,31.4c0.703,5.27,1.963,41.377,1.963,48.082c2.453,0,32.872-0.163,35.325-0.163
			c1.309-6.542,4.906-37.288,6.869-47.755c2.289-10.141,26.494-19.299,27.966-26.658c0.164-8.341-6.869-40.232-5.396-68.688
			c2.023-6.439,4.171-16.447,5.519-27.476c-0.152-17.746,0.696-39.25-2.575-52.742C381.913,213.213,227.855,204.136,222.458,204.136
			z"/>
		<linearGradient id="SVGID_19_" gradientUnits="userSpaceOnUse" x1="153.8975" y1="376.2026" x2="295.8525" y2="317.3271">
			<stop  offset="0.0126" style="stop-color:#FFBD99"/>
			<stop  offset="1" style="stop-color:#E3A586"/>
		</linearGradient>
		<path fill="url(#SVGID_19_)" d="M321.528,433.741c-0.214-11.021-23.166-44.585-28.092-53.142
			c-6.215-10.794-20.452-17.215-25.31-24.952c-2.403-4.007-1.858-9.421-1.103-16.915c0.815-8.088,1.829-18.154-0.454-31.094
			l-0.088-0.502l-0.251-0.441c-2.927-5.151-6.546-9.826-10.377-14.774c-12.156-15.7-27.223-35.163-30.279-84.769
			c11.464,0.319,51.259,1.643,86.906,2.827c33.77,1.122,62.521,3.104,71.518,3.356c2.66,13.712,2.944,34.221,2.105,52.279
			c-1.59,11.118-3.648,20.959-5.526,26.934l-0.112,0.356l-0.02,0.374c-1.039,20.09,1.406,39.448,2.866,51.014
			c0.582,4.612,2.028,15.515,2.036,17.336c-1.354,5.271-6.869,8.504-10.794,14.719c-0.745,1.181-4.151,26.653-5.151,37.288
			c-0.656,6.98-17.457,16.104-17.971,19.961C348.122,433.611,324.895,433.727,321.528,433.741z"/>
		<linearGradient id="SVGID_20_" gradientUnits="userSpaceOnUse" x1="225.022" y1="333.9912" x2="405.5088" y2="343.1503">
			<stop  offset="6.030000e-006" style="stop-color:#F3B190"/>
			<stop  offset="0.1127" style="stop-color:#F8BE9D"/>
			<stop  offset="0.2821" style="stop-color:#FDCCAA"/>
			<stop  offset="0.43" style="stop-color:#FFD1AF"/>
		</linearGradient>
		<path fill="url(#SVGID_20_)" d="M266.125,272.824c-0.246,10.549,11.005,24.662,11.285,39.006
			c0.494,25.424,0.654,51.434,6.09,57.773c3.845,3.225,7.506,6.773,9.937,10.996c4.926,8.557,27.878,42.121,28.092,53.142
			c3.366-0.015,26.594-0.13,29.903-0.145c0.514-3.857,17.314-12.98,17.971-19.961c1-10.635,4.406-36.107,5.151-37.288
			c3.925-6.215,9.44-9.447,10.794-14.719c-0.008-1.821-1.454-12.724-2.036-17.336c-1.46-11.565-3.905-30.924-2.866-51.014
			l0.02-0.374l0.112-0.356c1.878-5.975,3.937-15.815,5.526-26.934c0.224-4.806-0.061-13.326-0.02-18.304
			C352.807,267.328,307.338,282.883,266.125,272.824z"/>
		<ellipse fill="#944D09" cx="341.313" cy="345.928" rx="2.085" ry="4.906"/>
	</g>
	<g>
		<path fill="#944D09" d="M203.753,219.775c-10.303,9.813-46.119,64.271-53.969,78.5c11.284,1.963,54.46,10.059,62.31,10.059
			c12.266-20.607,30.583-59.693,34.018-74.902C241.369,223.619,214.547,215.359,203.753,219.775z"/>
		<linearGradient id="SVGID_21_" gradientUnits="userSpaceOnUse" x1="232.0801" y1="269.2188" x2="165.8458" y2="240.2719">
			<stop  offset="6.030000e-006" style="stop-color:#F3B190"/>
			<stop  offset="0.2622" style="stop-color:#F8BE9D"/>
			<stop  offset="0.6561" style="stop-color:#FDCCAA"/>
			<stop  offset="1" style="stop-color:#FFD1AF"/>
		</linearGradient>
		<path fill="url(#SVGID_21_)" d="M210.498,305.145c-9.716-0.582-42.699-5.196-57.422-7.543
			c10.384-17.034,44.345-67.293,54.172-77.029c4.416-0.818,37.452-6.787,42.685-6.461
			C243.883,240.442,221.885,285.17,210.498,305.145z"/>
		<path fill="#944D09" d="M264.162,195.305c-25.513-19.135-69.915,2.698-67.708,48.818c3.557-1.779,49.922-11.265,50.044-12.185
			c0,0-7.154-19.194,2.213-25.969C252.5,203.051,259.446,200.777,264.162,195.305z"/>
		<linearGradient id="SVGID_22_" gradientUnits="userSpaceOnUse" x1="249.3677" y1="225.5117" x2="189.2694" y2="208.535">
			<stop  offset="6.030000e-006" style="stop-color:#F3B190"/>
			<stop  offset="0.6035" style="stop-color:#FCC8A6"/>
			<stop  offset="1" style="stop-color:#FFD1AF"/>
		</linearGradient>
		<path fill="url(#SVGID_22_)" d="M196.455,245.84c2.576-38.76,31.033-64.027,67.544-51.353c2.551,3.065-3.83,24.755-7.85,27.966
			C241.184,235.209,211.174,243.632,196.455,245.84z"/>
	</g>
	<g>
		<path fill="#944D09" d="M332.523,272.006c5.232,1.309,51.288,9.808,60.021-3.924c11.358-17.858,2.809-42.361-3.609-53.631
			c-2.78-3.679-8.386-9.258-11.016-9.824c-7.912-0.961-38.155,2.843-49.969,3.488C328.131,217.939,332.327,262.674,332.523,272.006z
			"/>
		
			<linearGradient id="SVGID_23_" gradientUnits="userSpaceOnUse" x1="290.2144" y1="235.9678" x2="364.542" y2="235.9678" gradientTransform="matrix(1.0438 0.0297 -0.0338 0.9996 -5.0206 -8.2376)">
			<stop  offset="6.030000e-006" style="stop-color:#F3B190"/>
			<stop  offset="0.1936" style="stop-color:#F6B897"/>
			<stop  offset="1" style="stop-color:#FFD1AF"/>
		</linearGradient>
		<path fill="url(#SVGID_23_)" d="M365.371,273.059c-7.573-0.215-29.974-2.263-35.865-3.617c-0.022-6.18,1.178-17.928,1.307-29.396
			c0.126-11.271,0.254-22.868,0.236-29.139c7.55-0.357,39.212-8.732,48.158-6.487c1.902,0.47,8.755,6.491,11.128,9.48
			c2.5,5.047,10.692,33.238,0.994,51.409C388.346,270.9,379.129,273.45,365.371,273.059z"/>
		<path fill="#944D09" d="M256.784,195.7c13.377-4.002,60.234,8.7,75.33,12.606c2.47,15.293,2.542,53.105,1.227,63.863
			c-28.763,4.804-61.977,0.811-71.305-8.014c-9.279-8.778-16.437-21.506-19.135-32.055
			C251.405,221.309,252.018,198.988,256.784,195.7z"/>
		
			<linearGradient id="SVGID_24_" gradientUnits="userSpaceOnUse" x1="164.2466" y1="222.6079" x2="303.0776" y2="235.639" gradientTransform="matrix(0.9995 0.031 -0.031 0.9995 7.5333 -9.3347)">
			<stop  offset="0" style="stop-color:#ECD4C7"/>
			<stop  offset="0.8048" style="stop-color:#F2B89B"/>
			<stop  offset="1" style="stop-color:#F3B190"/>
		</linearGradient>
		<path fill="url(#SVGID_24_)" d="M263.803,261.836c-13.406-10.889-30.566-48.4-19.341-62.123c2.022-1.9,5.71-4.731,9.919-5.91
			c19.159-0.875,58.243,12.566,75.165,16.408c3.518,13.199,6.106,36.663,4.107,59.864
			C315.957,272.804,277.208,272.725,263.803,261.836z"/>
		<linearGradient id="SVGID_25_" gradientUnits="userSpaceOnUse" x1="194.4536" y1="223.1841" x2="313.6213" y2="234.3695">
			<stop  offset="6.030000e-006" style="stop-color:#F3B190"/>
			<stop  offset="0.0781" style="stop-color:#F4B593"/>
			<stop  offset="0.6333" style="stop-color:#FCC9A8"/>
			<stop  offset="1" style="stop-color:#FFD1AF"/>
		</linearGradient>
		<path fill="url(#SVGID_25_)" d="M333.586,270.004c1.999-23.201-0.521-46.594-4.039-59.793
			c-16.922-3.842-56.006-17.283-75.165-16.408c-4.209,1.179-7.897,4.01-9.919,5.91c-4.746,5.803-5.895,18.242-0.253,30.264
			c5.383,11.559,11.723,19.359,20.116,26.82c6.705,5.232,17.5,9.649,31.482,11.366C312.291,269.523,330.032,270.496,333.586,270.004
			z"/>
		
			<ellipse transform="matrix(0.9833 0.182 -0.182 0.9833 51.5934 -46.3679)" fill="#944D09" cx="278.402" cy="257.889" rx="6.006" ry="4.298"/>
		
			<ellipse transform="matrix(0.9815 -0.1916 0.1916 0.9815 -43.4516 77.5474)" fill="#944D09" cx="379.365" cy="263.514" rx="4.795" ry="3.888"/>
	</g>
	<g>
		<path fill="#944D09" d="M234.233,324.341c-6.923,0.865-8.616-0.048-17.663,1.636c-21.097,3.924-42.451,8.438-56.423,0.817
			c-14.719-9.813-19.317-24.892-16.436-30.91c3.68-7.687,15.333-25.676,33.731-24.04c9.159,1.145,17.295,8.708,17.295,8.708
			s30.296,8.708,36.674,10.058C231.903,297.479,235.215,314.527,234.233,324.341z"/>
		<linearGradient id="SVGID_26_" gradientUnits="userSpaceOnUse" x1="210.0703" y1="333.3169" x2="193.2254" y2="310.9111">
			<stop  offset="0.0126" style="stop-color:#FFBD99"/>
			<stop  offset="1" style="stop-color:#E3A586"/>
		</linearGradient>
		<path fill="url(#SVGID_26_)" d="M183.944,328.143c-9.493,0-15.882-0.576-22.079-3.925c-9.249-6.205-14.383-14.938-15.332-20.238
			c-0.444-2.479-0.479-5.827,0.368-6.991c0,0,11.285-24.981,30.91-22.691c12.756,5.232,16.19,8.34,16.19,8.34
			s26.985,8.342,28.784,8.668c-1.309,3.926-3.925,27.967-4.498,31.81C207.861,325.116,194.001,327.488,183.944,328.143z"/>
		<linearGradient id="SVGID_27_" gradientUnits="userSpaceOnUse" x1="179.1133" y1="351.416" x2="185.41" y2="291.072">
			<stop  offset="6.030000e-006" style="stop-color:#F3B190"/>
			<stop  offset="0.3556" style="stop-color:#F6B897"/>
			<stop  offset="0.8664" style="stop-color:#FDCBA9"/>
			<stop  offset="1" style="stop-color:#FFD1AF"/>
		</linearGradient>
		<path fill="url(#SVGID_27_)" d="M220.25,317.963c1.034-8.463,1.688-24.119,2.535-26.658c-1.799-0.326-28.784-8.668-28.784-8.668
			s-7.727-6.869-16.19-8.34c-19.625-2.29-30.419,22.078-30.419,22.078c-0.491,1.962-2.126,5.396,8.014,11.938
			C167.426,321.643,185.252,327.447,220.25,317.963z"/>
		<path fill="#944D09" d="M207.985,286.316c-5.397-1.308-19.462-5.314-30.419-7.113c9.813,0,15.455,1.758,16.764,1.799
			C195.31,281.819,205.368,285.172,207.985,286.316z"/>
	</g>
	<g>
		<g>
			<path fill="#944D09" d="M207.985,287.666c1.594-3.435,4.498-11.938,6.214-13.86c1.005-1.124,8.341-7.114,9.731-9.731
				c1.472-2.453,2.33-8.708,2.902-15.536c1.104-4.538,14.97-3.128,15.741,5.97c0.818,9.648-3.353,19.952-5.561,25.021
				C234.315,280.389,209.947,286.93,207.985,287.666z"/>
			<linearGradient id="SVGID_28_" gradientUnits="userSpaceOnUse" x1="217.0767" y1="264.0342" x2="231.7951" y2="268.8177">
				<stop  offset="0.0126" style="stop-color:#FFBD99"/>
				<stop  offset="1" style="stop-color:#E3A586"/>
			</linearGradient>
			<path fill="url(#SVGID_28_)" d="M212.564,283.373c1.057-2.848,2.366-6.555,3.476-8.096c0.564-0.783,3.942-3.428,5.642-5.151
				c1.841-1.868,3.344-3.04,3.829-3.724c2.059-2.9,3.613-10.505,3.776-16.883c1.717-1.963,9.69-0.859,10.794,4.538
				c1.004,4.91-1.799,15.291-3.925,20.361c0,0,4.532-0.007,4.784,1.104C240.326,275.694,219.263,281.637,212.564,283.373z"/>
			<linearGradient id="SVGID_29_" gradientUnits="userSpaceOnUse" x1="223.5835" y1="263.9492" x2="254.8805" y2="272.8727">
				<stop  offset="6.030000e-006" style="stop-color:#F3B190"/>
				<stop  offset="0.1127" style="stop-color:#F8BE9D"/>
				<stop  offset="0.2821" style="stop-color:#FDCCAA"/>
				<stop  offset="0.43" style="stop-color:#FFD1AF"/>
			</linearGradient>
			<path fill="url(#SVGID_29_)" d="M229.818,251.236c0.245,3.066-0.491,10.917-1.472,16.191c-3.312,3.557-6.057,6.689-7.604,13.859
				c8.428-2.328,19.777-5.646,20.198-5.764c-0.251-1.111-4.784-1.104-4.784-1.104c2.126-5.07,4.929-15.451,3.925-20.361
				c-0.749-3.663-4.661-5.344-7.635-5.435C231.29,248.538,229.818,249.765,229.818,251.236z"/>
		</g>
		<g>
			<path fill="#944D09" d="M205.654,284.109c4.416-1.227,10.181-3.066,10.181-3.066s2.085-2.944,5.52-5.889
				c3.551-3.044,6.477-4.611,8.218-5.191c8.75,0.408,13.574-0.246,23.06,1.39c4.494,11.353,7.21,26.232,4.907,43.666
				c-0.573,4.334-2.617,8.995-3.68,10.712c-4.743,3.435-15.332,4.662-20.361,4.416c-6.501-0.613-16.027-2.943-18.889-4.089
				C215.589,323.277,217.797,300.014,205.654,284.109z"/>
			<linearGradient id="SVGID_30_" gradientUnits="userSpaceOnUse" x1="208.1128" y1="332.5205" x2="224.6925" y2="311.7484">
				<stop  offset="0.0126" style="stop-color:#FFBD99"/>
				<stop  offset="1" style="stop-color:#E3A586"/>
			</linearGradient>
			<path fill="url(#SVGID_30_)" d="M235.542,327.775c-9.759,0-18.971-3.598-23.387-4.906c-4.661-4.662-9.813-23.306-4.743-36.144
				c4.906-4.253,19.552-13.965,21.915-14.064c8.895,0.303,16.44,0.325,25.022,1.799c2.086,12.735,1.063,43.175-2.453,49.881
				C250.261,325.404,242.738,327.121,235.542,327.775z"/>
			<linearGradient id="SVGID_31_" gradientUnits="userSpaceOnUse" x1="238.5894" y1="299.9058" x2="184.3521" y2="295.452">
				<stop  offset="0.0126" style="stop-color:#FFBD99"/>
				<stop  offset="1" style="stop-color:#E3A586"/>
			</linearGradient>
			<path fill="url(#SVGID_31_)" d="M246.83,325.98c2.478-0.575,4.345-1.172,5.066-1.64c3.517-6.706,4.539-37.146,2.453-49.881
				c-8.582-1.474-16.127-1.496-25.022-1.799c-2.363,0.1-17.009,9.812-21.915,14.064c-4.579,11.611,1.799,29.274,5.969,34.181
				c2.944,1.717,12.838,5.314,21.67,5.806C239.794,326.794,243.031,326.498,246.83,325.98z"/>
			<linearGradient id="SVGID_32_" gradientUnits="userSpaceOnUse" x1="259.2744" y1="294.2739" x2="224.1543" y2="300.9636">
				<stop  offset="6.030000e-006" style="stop-color:#F3B190"/>
				<stop  offset="1" style="stop-color:#FFD1AF"/>
			</linearGradient>
			<path fill="url(#SVGID_32_)" d="M254.349,274.46c-8.582-1.474-15.759-3.296-24.654-3.599c-0.044,0.002-0.098,0.012-0.148,0.02
				c-0.761,14.375,9.306,33.998,5.504,45.037c0.818,5.479,0.818,8.586,0.164,10.713c2.453,0.244,13.656-0.818,16.927-2.209
				c0.899-1.799,2.29-5.314,2.78-8.259C256.47,306.875,256.338,286.602,254.349,274.46z"/>
			<path fill="#944D09" d="M234.356,287.053c1.431,0.49,18.93-2.29,21.71-2.208c1.472,0.368,3.966,1.921,4.988,2.371
				c1.309,2.944,1.554,9.445,0.164,13.942c-0.491,0.736-1.104,1.35-1.104,1.35s0.858,0.736,0.858,1.594
				c0.204,4.171-0.818,10.754-2.698,11.734c-6.624,2.045-16.845,2.781-20.116,2.453
				C237.177,315.836,234.724,290.978,234.356,287.053z"/>
			<linearGradient id="SVGID_33_" gradientUnits="userSpaceOnUse" x1="275.7832" y1="302.0488" x2="222.9021" y2="303.0857">
				<stop  offset="6.030000e-006" style="stop-color:#F3B190"/>
				<stop  offset="0.1055" style="stop-color:#F4B594"/>
				<stop  offset="0.9989" style="stop-color:#FFD1AF"/>
			</linearGradient>
			<path fill="url(#SVGID_33_)" d="M235.378,317.963c-2.616-4.253-2.616-10.631-2.494-13.738c-1.717-4.17-3.394-10.467-2.249-15.536
				c1.962,0,3.843,0.694,3.843,0.694s11.224-1.963,16.273-2.003c1.513,0.593,6.255,1.329,7.359,1.636
				c1.717,2.76,1.472,7.522,0.491,11.611c-0.654,1.063-3.925,1.799-3.925,1.799s1.635,0.49,3.271,0.654
				c0.818,2.943,0.49,8.832-1.472,11.285C251.569,316.49,238.322,318.207,235.378,317.963z"/>
			<path fill="#944D09" d="M237.709,303.366c-0.573,0.122,0.122,0.491,0.777,0.653c6.705,0.736,16.354-0.162,20.116-1.063
				c0.286-0.612,0.736-1.553,0.94-2.207C255.903,302.14,244.619,303.406,237.709,303.366z"/>
			<path fill="#944D09" d="M235.542,289.098c-0.409-0.082-1.799-0.818-2.126-0.818c0.225,0.94-0.123,2.392,0.245,4.17
				C234.315,290.814,235.296,289.588,235.542,289.098z"/>
			<path fill="#944D09" d="M228.836,270.208c4.416-1.063,17.826-1.309,21.915-0.981c2.392,0.49,6.603,1.635,8.136,2.617
				c1.8,2.596,2.494,12.51,0.531,16.926c-2.433,1.002-7.563,2.126-9.158,2.126c-1.594,0-14.228-0.776-16.804-1.104
				C231.331,287.748,226.097,279.448,228.836,270.208z"/>
			<linearGradient id="SVGID_34_" gradientUnits="userSpaceOnUse" x1="275.4858" y1="281.1787" x2="224.2955" y2="280.1432">
				<stop  offset="6.030000e-006" style="stop-color:#F3B190"/>
				<stop  offset="1" style="stop-color:#FFD1AF"/>
			</linearGradient>
			<path fill="url(#SVGID_34_)" d="M251.038,288.77c0,0-16.763,0.49-20.239,0.246c-0.94-3.394-3.516-11.693-0.327-16.354
				c5.152-0.736,17.867-1.063,19.707-0.634c1.35,0.43,5.336,1.9,6.563,2.76c1.104,3.127,0.123,10.793-0.92,12.695
				C254.533,287.973,251.038,288.77,251.038,288.77z"/>
			<linearGradient id="SVGID_35_" gradientUnits="userSpaceOnUse" x1="275.1426" y1="284.1665" x2="248.4761" y2="280">
				<stop  offset="6.030000e-006" style="stop-color:#F3B190"/>
				<stop  offset="1" style="stop-color:#FFD1AF"/>
			</linearGradient>
			<path fill="url(#SVGID_35_)" d="M256.802,274.215c-1.227-0.859-4.477-1.881-6.746-2.249c3.475,3.312,2.494,14.269,1.022,16.722
				c2.085-0.122,4.497-0.654,5.969-1.145C258.274,283.945,258.381,277.076,256.802,274.215z"/>
		</g>
	</g>
	<g>
		<g>
			<path fill="#944D09" d="M248.094,689.002c2.453,11.285,8.486,22.188,8.218,24.654c-0.069,2.49-5.316,11.366-6.788,14.964
				C249.361,720.443,247.603,694.726,248.094,689.002z"/>
			
				<linearGradient id="SVGID_36_" gradientUnits="userSpaceOnUse" x1="168.0278" y1="710.2236" x2="152.1222" y2="710.3509" gradientTransform="matrix(-1 0 0 1 402 0)">
				<stop  offset="6.030000e-006" style="stop-color:#F3B190"/>
				<stop  offset="0.556" style="stop-color:#F9C19F"/>
				<stop  offset="1" style="stop-color:#FFD1AF"/>
			</linearGradient>
			<path fill="url(#SVGID_36_)" d="M249.852,722.733c0.655-2.127,3.621-8.263,3.762-9.322c0.101-0.929-3.68-9.567-5.274-15.455
				c-0.465,2.298-0.859,11.202-1.105,13.881C247.644,713.326,248.707,719.727,249.852,722.733z"/>
		</g>
		<g>
			<path fill="#944D09" d="M236.851,558.208c-1.308,4.252-11.775,38.27-12.756,41.54c5.234,2.29,28.702,8.341,37.288,3.926
				c3.435-8.832,12.593-34.835,16.354-41.213C272.176,559.844,241.103,558.534,236.851,558.208z"/>
			<linearGradient id="SVGID_37_" gradientUnits="userSpaceOnUse" x1="224.6895" y1="574.1816" x2="256.1078" y2="588.9446">
				<stop  offset="0.0126" style="stop-color:#FFBD99"/>
				<stop  offset="1" style="stop-color:#E3A586"/>
			</linearGradient>
			<path fill="url(#SVGID_37_)" d="M240.435,561.377c-0.524-0.031-1.011-0.059-1.453-0.085c-2.154,7.001-8.691,30.007-11.126,37.966
				c1.144,5.284,7.228,6.847,14.485,7.33c4.309-14.893,8.818-29.705,14.303-44.127C250.188,561.941,243.799,561.571,240.435,561.377
				z"/>
			<linearGradient id="SVGID_38_" gradientUnits="userSpaceOnUse" x1="241.854" y1="578.082" x2="270.2735" y2="591.4359">
				<stop  offset="6.030000e-006" style="stop-color:#F3B190"/>
				<stop  offset="0.6068" style="stop-color:#FCC8A6"/>
				<stop  offset="1" style="stop-color:#FFD1AF"/>
			</linearGradient>
			<path fill="url(#SVGID_38_)" d="M256.644,562.461c-5.485,14.422-9.994,29.234-14.303,44.127
				c5.893,0.393,12.485-0.847,17.651-3.814c2.173-12.031,9.235-29.279,12.83-38.417C269.125,563.6,262.854,562.961,256.644,562.461z
				"/>
		</g>
		<g>
			<path fill="#944D09" d="M245.19,702.125c1.963-36.797,18.154-55.44,22.079-71.632c4.065-16.771-2.739-31.399-3.23-36.306
				c-1.145-0.081-17.54-7.688-18.358-7.851c-0.613,2.33-21.587,109.901-22.078,114.808
				C227.038,701.145,240.775,701.635,245.19,702.125z"/>
			<linearGradient id="SVGID_39_" gradientUnits="userSpaceOnUse" x1="225.7949" y1="642.6064" x2="263.0822" y2="647.022">
				<stop  offset="6.030000e-006" style="stop-color:#F3B190"/>
				<stop  offset="0.6068" style="stop-color:#FCC8A6"/>
				<stop  offset="1" style="stop-color:#FFD1AF"/>
			</linearGradient>
			<path fill="url(#SVGID_39_)" d="M242.446,698.941c-4.433-0.303-11.092-0.565-15.41-0.68
				c2.977-17.098,17.942-93.288,20.965-108.534c3.553,0.614,11.373,1.974,14.689,2.497c-0.368,0.981-0.613,2.208-0.958,3.34
				c2.104,8.253,5.626,22.065,2.676,34.235c-1.22,5.031-3.762,10.464-6.706,16.754C251.673,659.436,244.229,675.341,242.446,698.941
				z"/>
			<path fill="#944D09" d="M232.516,579.469c-41.949,45.629-8.831,99.026-16.109,142.201c8.341,0,33.895,0.695,36.838,1.186
				c-5.765-28.58-2.33-91.871-0.858-105.772C249.606,611.851,227.691,592.225,232.516,579.469z"/>
			<linearGradient id="SVGID_40_" gradientUnits="userSpaceOnUse" x1="186.1689" y1="643.7744" x2="231.5728" y2="654.3687">
				<stop  offset="0.0126" style="stop-color:#FFBD99"/>
				<stop  offset="1" style="stop-color:#E3A586"/>
			</linearGradient>
			<path fill="url(#SVGID_40_)" d="M218.207,724.614c2.862-15.373,1.313-36.803-0.836-53.071
				c-3.969-30.028-8.071-61.064,17.778-90.639c2.728,0.884,19.465,11.193,22.145,12.057c-12.265,47.592-12.328,95.301-7.523,127.646
				c-0.204-0.001-1.41,3.763-1.636,3.763c-4.417,0-10.639,0.649-17.335,0.817C226.724,725.289,220.301,727.84,218.207,724.614z"/>
			<linearGradient id="SVGID_41_" gradientUnits="userSpaceOnUse" x1="213.2622" y1="654.1963" x2="256.1792" y2="661.3322">
				<stop  offset="6.030000e-006" style="stop-color:#F3B190"/>
				<stop  offset="0.4403" style="stop-color:#F9C19F"/>
				<stop  offset="1" style="stop-color:#FFD1AF"/>
			</linearGradient>
			<path fill="url(#SVGID_41_)" d="M257.293,592.961c-1.985-0.64-10.187-1.652-16.191-4.987
				c-17.581,37.942-20.361,96.735-15.209,139.175c6.306-0.202,18.051-2.779,22.242-2.779c0.226,0,1.432-3.764,1.636-3.763
				C244.965,688.262,245.028,640.553,257.293,592.961z"/>
		</g>
		<g>
			<path fill="#944D09" d="M219.269,692.477c-3.759,6.443-7.627,16.51-7.359,19.463c0.068,2.98,4.988,15.373,5.97,17.336
				C218.942,721.589,221.559,702.044,219.269,692.477z"/>
			<linearGradient id="SVGID_42_" gradientUnits="userSpaceOnUse" x1="220.6304" y1="710" x2="205.1038" y2="710.1242">
				<stop  offset="0.0126" style="stop-color:#FFBD99"/>
				<stop  offset="1" style="stop-color:#E3A586"/>
			</linearGradient>
			<path fill="url(#SVGID_42_)" d="M217.47,720.606c-1.284-4.123-2.069-7.919-2.21-9.187c-0.101-1.112,1.731-6.787,4.417-11.992
				c0.465,2.75,1.553,6.197,1.799,9.403C221.067,710.614,218.615,717.008,217.47,720.606z"/>
		</g>
		<g>
			<path fill="#944D09" d="M260.728,383.871c-20.28,50.045-29.029,148.987-27.721,190.201c0.916-0.516,4.17-3.926,4.17-3.926
				s13.779,22.865,28.947,16.437c29.765-30.746,70.815-146.452,78.01-171.966C314.697,400.226,273.811,389.758,260.728,383.871z"/>
			<linearGradient id="SVGID_43_" gradientUnits="userSpaceOnUse" x1="164.9639" y1="487.3301" x2="268.6001" y2="487.3301">
				<stop  offset="0.0126" style="stop-color:#FFBD99"/>
				<stop  offset="1" style="stop-color:#E3A586"/>
			</linearGradient>
			<path fill="url(#SVGID_43_)" d="M235.869,574.235c-0.613-30.909,7.767-137.44,26.494-186.479
				c4.873,1.951,11.63,4.22,19.802,6.964c16.362,5.493,39.341,12.827,57.309,21.369c-8.593,29.639-46.634,137.442-74.821,167.796
				C254.104,592.961,237.341,579.142,235.869,574.235z"/>
			<linearGradient id="SVGID_44_" gradientUnits="userSpaceOnUse" x1="242.4326" y1="487.4746" x2="296.989" y2="500.3114">
				<stop  offset="6.030000e-006" style="stop-color:#F3B190"/>
				<stop  offset="1" style="stop-color:#FFD1AF"/>
			</linearGradient>
			<path fill="url(#SVGID_44_)" d="M280.353,402.515c-19.625,50.045-42.194,160.764-33.854,175.482
				c5.916,6.306,10.556,12.425,18.153,5.888c28.188-30.354,66.229-138.157,74.821-167.796
				C322.893,408.206,296.331,407.843,280.353,402.515z"/>
		</g>
		<g>
			<path fill="#944D09" d="M263.181,583.885c-0.981,3.271-4.6,12.327-7.605,17.294c-7.114,3.619-16.354,1.186-18.644-1.104
				c2.372-8.913,4.334-23.305,4.661-25.268c0.613-0.368,12.634-1.84,15.209-1.84C259.255,575.053,262.936,582.597,263.181,583.885z"
				/>
			<linearGradient id="SVGID_45_" gradientUnits="userSpaceOnUse" x1="213.6489" y1="585.124" x2="250.935" y2="587.577">
				<stop  offset="0.0126" style="stop-color:#FFBD99"/>
				<stop  offset="1" style="stop-color:#E3A586"/>
			</linearGradient>
			<path fill="url(#SVGID_45_)" d="M235.951,601.057c-1.717-6.378,2.416-20.912,3.925-25.758c1.963-0.981,11.407-4.171,16.927-2.944
				c2.27,2.821,3.741,8.034,4.354,11.469c-1.411,3.68-4.845,13.615-7.728,16.62C245.518,603.755,238.404,603.019,235.951,601.057z"
				/>
			<linearGradient id="SVGID_46_" gradientUnits="userSpaceOnUse" x1="234.0103" y1="584.458" x2="265.1926" y2="586.5095">
				<stop  offset="6.030000e-006" style="stop-color:#F3B190"/>
				<stop  offset="0.6068" style="stop-color:#FCC8A6"/>
				<stop  offset="1" style="stop-color:#FFD1AF"/>
			</linearGradient>
			<path fill="url(#SVGID_46_)" d="M256.802,571.128c-3.43-0.762-8.296,0.413-12.021,1.472c-3.17,8.538-5.993,16.705-4.498,25.677
				c1.145,2.126,9.612,2.572,13.905,1.224c2.703-3.75,5.679-12.315,6.967-15.677C260.543,580.389,259.072,573.949,256.802,571.128z"
				/>
		</g>
		<g>
			<path fill="#944D09" d="M215.712,719.789c-1.063,16.518-3.229,27.721-4.293,38.27c15.046,6.051,56.586-3.679,60.103-4.252
				c-7.85-8.831-10.058-15.128-13.247-21.506c-3.598-5.888-5.479-9.771-6.706-15.782
				C246.908,725.228,223.358,735.817,215.712,719.789z"/>
			<linearGradient id="SVGID_47_" gradientUnits="userSpaceOnUse" x1="193.584" y1="743.6992" x2="226.7013" y2="739.2836">
				<stop  offset="0.0126" style="stop-color:#FFBD99"/>
				<stop  offset="1" style="stop-color:#E3A586"/>
			</linearGradient>
			<path fill="url(#SVGID_47_)" d="M215.04,759.542c0.116-8.813,1.94-23.643,3.576-36.072c6.378-7.359,22.242-8.342,31.073-4.417
				c0.829,4.978,2.453,9.077,5.479,14.475c1.151,2.054,5.792,12.327,12.429,20.279C254.213,757.262,222.622,762.312,215.04,759.542z
				"/>
			<linearGradient id="SVGID_48_" gradientUnits="userSpaceOnUse" x1="244.0161" y1="788.8662" x2="238.3454" y2="704.401">
				<stop  offset="6.030000e-006" style="stop-color:#F3B190"/>
				<stop  offset="0.275" style="stop-color:#F8BF9E"/>
				<stop  offset="0.6539" style="stop-color:#FDCDAB"/>
				<stop  offset="1" style="stop-color:#FFD1AF"/>
			</linearGradient>
			<path fill="url(#SVGID_48_)" d="M255.167,733.527c-3.025-5.397-4.649-9.252-5.479-14.229c-6.133-2.699-19.053,0-24.614,3.435
				c-7.359,16.681-14.147,29.629-5.396,37.451c12.757-0.618,38.264-3.886,47.918-6.378
				C260.959,745.854,256.318,735.581,255.167,733.527z"/>
			<path fill="#944D09" d="M262.936,741.867c1.878,4.987,11.775,11.775,12.02,14.229c-1.227,4.416-3.145,6.185-7.313,7.979
				c-4.302,1.242-12.684,1.242-16.852,0c-1.613-2.484-2.398-9.471-3.474-12.231C250.813,752.121,263.587,751.024,262.936,741.867z"
				/>
			<linearGradient id="SVGID_49_" gradientUnits="userSpaceOnUse" x1="248.082" y1="736.5352" x2="266.4721" y2="765.801">
				<stop  offset="0.0126" style="stop-color:#FFBD99"/>
				<stop  offset="1" style="stop-color:#E3A586"/>
			</linearGradient>
			<path fill="url(#SVGID_49_)" d="M251.553,761.313c-1.052-2.189-3.15-8.767-3.418-9.552c4.416-1.595,9.771-5.888,13.451-6.337
				c2.689,5.152,10.33,9.305,10.487,10.058c-0.613,3.128-2.211,4.608-5.327,6.016C263.653,762.603,253.9,762.813,251.553,761.313z"
				/>
			<linearGradient id="SVGID_50_" gradientUnits="userSpaceOnUse" x1="247.8242" y1="731.1289" x2="265.7897" y2="759.7191">
				<stop  offset="6.030000e-006" style="stop-color:#F3B190"/>
				<stop  offset="0.5776" style="stop-color:#FBC7A5"/>
				<stop  offset="1" style="stop-color:#FFD1AF"/>
			</linearGradient>
			<path fill="url(#SVGID_50_)" d="M269.007,756.954c1.288-0.367,3.134-1.088,3.128-1.349c-0.158-0.754-8.228-5.764-10.917-10.917
				c-2.958,0.361-8.954,1.718-11.285,3.967C254.717,757.384,264.101,758.487,269.007,756.954z"/>
			<path fill="#944D09" d="M253.436,765.362c-16.089,1.38-37.278,1.14-40.953-2.725c-1.554-1.308-2.897-5.013-2.044-6.787
				c0.981-2.044,2.29-4.415,2.78-7.358c4.743,2.126,29.192,4.741,37.697,1.635c0.572,1.635,1.063,2.861,2.943,4.661
				c2.126,1.554,4.361,2.589,4.988,3.761C258.847,761.126,256.058,764.673,253.436,765.362z"/>
			<linearGradient id="SVGID_51_" gradientUnits="userSpaceOnUse" x1="230.6099" y1="734.6563" x2="235.9901" y2="765.9779">
				<stop  offset="0.0126" style="stop-color:#FFBD99"/>
				<stop  offset="1" style="stop-color:#E3A586"/>
			</linearGradient>
			<path fill="url(#SVGID_51_)" d="M239.498,763.521c-12.786,0-21.852-1.277-24.317-2.52c-1.533-1.313-1.799-4.006-1.554-5.151
				c0.818-1.227,1.309-2.289,1.962-6.869c6.624-1.104,21.71-2.33,33.486-0.735c0.583,3.703,2.658,7.032,2.658,7.032
				c0.877,1.338,2.581,2.017,3.925,3.189c0.327,2.208-1.798,3.925-3.435,4.497C248.189,763.396,244.285,763.521,239.498,763.521z"/>
			<linearGradient id="SVGID_52_" gradientUnits="userSpaceOnUse" x1="229.0356" y1="725.624" x2="235.4877" y2="763.1856">
				<stop  offset="6.030000e-006" style="stop-color:#F3B190"/>
				<stop  offset="0.5892" style="stop-color:#FBC7A5"/>
				<stop  offset="1" style="stop-color:#FFD1AF"/>
			</linearGradient>
			<path fill="url(#SVGID_52_)" d="M255.576,759.407c0.981-1.472-2.579-2.202-3.843-4.129c0,0-1.708-3.329-2.29-7.032
				c-11.775-1.595-27.23-0.859-33.854,0.245c-0.654,4.579-1.145,6.133-1.962,7.359c-0.038,0.175,0.01,2.094,0,2.33
				c0.9-1.594,5.07,2.331,7.85,0.532c2.617,2.208,7.604,1.88,12.179,0.66c4.094,1.63,9,2.301,12.107,0.076
				C248.625,760.365,252.959,761.085,255.576,759.407z"/>
			<path fill="#944D09" d="M242.565,763.688c0,0,0.762-0.315,0.907-0.474c0.292-0.316,0.543-0.768,0.732-1.253
				c0.191-0.486,0.328-1.015,0.4-1.54c0.075-0.507,0.074-1.103-0.02-1.391l0.028,0.062c-0.274-0.599-0.664-1.152-1.125-1.721
				c-0.456-0.57-2.12-3.001-2.387-3.628c-0.265-0.634-0.466-1.256-0.605-1.954l1.052-0.218c0.151,0.548,0.382,1.136,0.651,1.662
				c0.271,0.532,0.596,1.028,0.975,1.45c0,0,0.926,1.137,1.452,1.701c0.525,0.562,1.063,1.205,1.472,1.949l0.015,0.029l0.013,0.032
				c0.327,0.854,0.29,1.507,0.266,2.197c-0.045,0.679-0.166,1.34-0.37,1.997c-0.207,0.655-0.489,1.313-0.969,1.931
				c-0.241,0.308-0.537,0.605-0.91,0.849c-0.186,0.121-1.23,0.471-1.23,0.471L242.565,763.688z"/>
			<path fill="#944D09" d="M231.725,763.606c0,0,0.407-0.272,0.505-0.46c0.202-0.375,0.352-0.87,0.451-1.376
				c0.099-0.51,0.151-1.043,0.159-1.569c0.001-0.512-0.022-1.078-0.162-1.443c-0.335-0.936-0.981-2.077-1.292-3.271
				c-0.34-1.196-0.447-2.438-0.403-3.644h1.104c0.046,1.117,0.23,2.209,0.607,3.225c0.358,1.045,0.961,1.896,1.517,3.104
				c0.305,0.717,0.345,1.336,0.403,1.978c0.04,0.634,0.028,1.266-0.045,1.906c-0.078,0.64-0.201,1.287-0.492,1.967
				c-0.148,0.338-1.519,1.616-1.703,1.666c-0.097,0.028-0.293,0.068-0.293,0.068L231.725,763.606z"/>
			<path fill="#944D09" d="M222.366,764.3c-0.6-0.992-1.101-2.071-1.391-3.245c-0.29-1.161-0.346-2.492,0.135-3.709
				c0.116-0.302,0.508-0.959,0.508-0.959l0.003-0.006l0.006-0.011l0.278-0.504c0.217-0.438,0.396-0.909,0.542-1.396
				c0.291-0.971,0.473-2.024,0.542-3.035h1.063c0.021,1.145-0.074,2.241-0.303,3.363c-0.116,0.558-0.272,1.114-0.487,1.664
				c-0.053,0.135-0.565,1.211-0.624,1.42c-0.245,0.829-0.145,1.756,0.163,2.651c0.308,0.9,0.796,1.766,1.385,2.568L222.366,764.3z"
				/>
		</g>
	</g>
	<g>
		<path fill="#999999" d="M389.272,473.166c2.75-34.325,0.571-83-2.115-101.725c-6.868,4.17-27.813,17.417-80.964,9.485
			c0.65,6.513,7.085,59.075,9.484,101.07C339.806,482.569,365.893,478.846,389.272,473.166z"/>
		<path fill="#FFFFFF" d="M320.614,479.11c-0.718,0-1.434-0.003-2.149-0.01c-1.412-26.091-1.898-55.188-2.225-74.667
			c-0.138-8.238-0.243-14.533-0.377-18.439c9.944,1.373,21.604,0.726,31.379,0.329c18.153-0.735,30.103-6.542,37.953-9.485
			c2.486,20.206,3.562,63.544,1.307,93.965c-23.008,5.438-45.746,8.308-65.886,8.308C320.614,479.11,320.615,479.11,320.614,479.11z
			"/>
		<path fill="#999999" d="M261.556,368.252c-0.685,4.313-3.467,16.473-3.772,20.197c-5.397,17.826-12.714,48.777-16.682,77.315
			c9.813,7.237,54.706,18.521,78.747,19.013c5.313-14.473,8.341-21.343,12.511-32.382c9.322-0.736,16.191-3.189,22.079-6.379
			c3.188-9.076,1.962-27.475,1.962-27.475s4.59-28.649,4.906-34.345C318.377,386.896,267.689,372.913,261.556,368.252z"/>
		<path fill="#E8EBED" d="M317.396,481.833c-22.765-0.985-62.127-11.005-73.118-17.503c3.977-27.709,11.014-57.49,16.323-75.027
			l0.091-0.3l0.025-0.313c0.181-2.202,1.162-7.354,1.95-11.493c0.235-1.236,0.649-3.188,0.852-4.284
			c9.813,3.925,57.801,19.87,96.807,12.757c-1.235,13.044-7.141,47.661-10.795,56.177c-6.105,4.362-19.625,8.096-19.625,8.096
			S319.361,476.558,317.396,481.833z"/>
		<path fill="#FFFFFF" d="M276.755,377.328c-5.233,25.514-14.065,70.161-17.5,92.729c16.682,5.888,43.734,11.151,58.14,11.775
			c1.966-5.275,12.511-31.891,12.511-31.891s14.719-1.472,21.833-6.133c3.654-8.517,8.497-46.24,9.731-59.284
			C332.769,389.922,298.343,384.197,276.755,377.328z"/>
		<g>
			<path fill="#999999" d="M338.315,401.709c-27.235,0-69.626-11.34-78.714-16.324l0.944-1.721
				c9.595,5.262,56.9,17.705,83.195,15.909c24.916-1.707,36.662-8.183,43.329-12.905l1.135,1.602
				c-6.86,4.859-18.92,11.521-44.329,13.262C342.11,401.652,340.251,401.709,338.315,401.709z"/>
		</g>
	</g>
	<g>
		<path fill="#944D09" d="M400.26,438.599c-1.334,8.4-5.172,19.338-7.747,25.39c-1.334,7.206,7.779,11.47,10.101,5.267
			c3.699-6.896,7.973-26.234,8.534-29.026C407.798,438.827,402.091,438.956,400.26,438.599z"/>
		<linearGradient id="SVGID_53_" gradientUnits="userSpaceOnUse" x1="404.9648" y1="431.0889" x2="401.0398" y2="458.8095">
			<stop  offset="6.030000e-006" style="stop-color:#F3B190"/>
			<stop  offset="0.6068" style="stop-color:#FCC8A6"/>
			<stop  offset="1" style="stop-color:#FFD1AF"/>
		</linearGradient>
		<path fill="url(#SVGID_53_)" d="M395.896,468.613c-1.068-1.064-1.595-2.825-0.983-4.419c2.211-5.771,5.502-14.435,7.473-23.306
			c1.405,0.436,4.917,0.903,6.451,1.463c-1.406,6.279-7.063,24.402-8.362,26.438S396.559,469.272,395.896,468.613z"/>
		<path fill="#944D09" d="M407.264,438.003c-0.047,5.341-0.164,16.682-1.31,25.351c-1.308,3.106-4.579,9.484-5.888,12.919
			c-2.29,8.014,8.341,12.594,10.307,9.019c0.962-1.75,7.645-15.75,8.175-17.195c2.121-5.424,4.316-26.915,3.888-29.108
			C419.118,438.827,409.349,438.405,407.264,438.003z"/>
		<linearGradient id="SVGID_54_" gradientUnits="userSpaceOnUse" x1="413.9756" y1="432.7627" x2="411.0318" y2="461.7104">
			<stop  offset="6.030000e-006" style="stop-color:#F3B190"/>
			<stop  offset="0.6068" style="stop-color:#FCC8A6"/>
			<stop  offset="1" style="stop-color:#FFD1AF"/>
		</linearGradient>
		<path fill="url(#SVGID_54_)" d="M410.86,482.65c-5.07,2.781-9.396-1.367-8.177-5.724c0.746-2.416,2.781-7.185,5.069-12.43
			c0.464-4.607,1.884-14.027,1.923-23.304c1.459,0.12,9.165,0.831,9.618,0.851c-0.291,8.399-0.769,17.344-2.18,22.771
			C416.789,465.607,411.857,480.125,410.86,482.65z"/>
		<path fill="#944D09" d="M418.548,438.821c-0.328,7.032-1.8,22.405-2.529,26.668c-1.401,4.149-3.194,7.186-6.466,14.545
			c-4.234,8.854,7.57,14.474,11.12,8.994c0.819-2.263,7.033-17.335,7.033-17.335s5.511-30.532,5.71-32.077
			C429.573,439.387,421.571,439.211,418.548,438.821z"/>
		<linearGradient id="SVGID_55_" gradientUnits="userSpaceOnUse" x1="422.1396" y1="430.0469" x2="420.6677" y2="473.7133">
			<stop  offset="6.030000e-006" style="stop-color:#F3B190"/>
			<stop  offset="0.6068" style="stop-color:#FCC8A6"/>
			<stop  offset="1" style="stop-color:#FFD1AF"/>
		</linearGradient>
		<path fill="url(#SVGID_55_)" d="M411.683,480.886c0.733-2.767,4.262-8.108,6.415-14.262c1.104-7.36,2.121-16.378,2.085-23.387
			c2.155,0.19,8.457-0.264,10.715-0.109c-0.763,5.277-3.601,24.231-3.601,24.231s-7.938,18.816-8.423,19.871
			C417.074,491.155,409.012,487.219,411.683,480.886z"/>
		<path fill="#944D09" d="M427.424,439.139c-0.005,4.18-0.826,18.056-1.518,27.485c-1.799,4.415-3.68,8.422-4.497,10.548
			c-2.617,8.75,7.113,16.273,12.021,6.297c1.145-2.126,4.58-8.014,7.033-14.392c1.308-12.103,0.965-28.662,0.816-30.093
			C437.823,438.787,430.793,439.339,427.424,439.139z"/>
		<linearGradient id="SVGID_56_" gradientUnits="userSpaceOnUse" x1="432.2197" y1="419.2119" x2="431.2385" y2="470.4831">
			<stop  offset="6.030000e-006" style="stop-color:#F3B190"/>
			<stop  offset="0.6068" style="stop-color:#FCC8A6"/>
			<stop  offset="1" style="stop-color:#FFD1AF"/>
		</linearGradient>
		<path fill="url(#SVGID_56_)" d="M423.617,477.744c1.227-3.189,2.044-5.191,4.538-10.262c0.981-8.832,1.219-19.054,0.735-25.146
			c1.106-0.082,4.395-0.313,5.537-0.425c1.144-0.111,3.492,0.259,4.563,0.18c0.654,6.052,0.368,17.376-0.98,26.33
			c-3.066,6.992-6.054,12.43-7.197,14.72C428.032,489.52,422.041,481.84,423.617,477.744z"/>
		<path fill="#944D09" d="M403.501,407.258c-5.397,7.359-3.762,29.438-3.649,34.837c12.362,3.533,38.277,3.399,42.869,3.753
			c-0.353-12.009-11.744-39.734-12.562-43.987C425.58,407.748,414.295,422.631,403.501,407.258z"/>
		<linearGradient id="SVGID_57_" gradientUnits="userSpaceOnUse" x1="389.7568" y1="425.4414" x2="429.9443" y2="425.4414">
			<stop  offset="6.030000e-006" style="stop-color:#F3B190"/>
			<stop  offset="0.6068" style="stop-color:#FCC8A6"/>
			<stop  offset="1" style="stop-color:#FFD1AF"/>
		</linearGradient>
		<path fill="url(#SVGID_57_)" d="M437.109,446.998c-8.171-0.225-25.402-1.265-35.244-3.435c-0.012-0.786,0.356-5.652,0.328-6.541
			c-0.188-5.674,0-22.078,2.943-29.274c0.83-0.252,2.29,1.309,6.051,1.799c5.561-3.107,11.224-5.207,16.783-5.662
			c0.165,7.358,19.975,33.925,12.327,42.378C439.916,446.685,437.773,447.017,437.109,446.998z"/>
		<path fill="#944D09" d="M431.222,405.295c4.539,5.028,11.407,12.593,13.615,16.436c0.235,1.496,1.815,6.182,3.638,11.366
			c2.863,8.137,8.015,12.43,8.628,13.779c-1.472,4.17-9.849,8.002-14.351,4.293c-4.504-3.709-7.687-11.775-9.322-17.663
			C411.188,427.292,413.5,405.84,431.222,405.295z"/>
		<linearGradient id="SVGID_58_" gradientUnits="userSpaceOnUse" x1="420.8877" y1="439.6768" x2="441.4709" y2="424.9745">
			<stop  offset="6.030000e-006" style="stop-color:#F3B190"/>
			<stop  offset="0.6068" style="stop-color:#FCC8A6"/>
			<stop  offset="1" style="stop-color:#FFD1AF"/>
		</linearGradient>
		<path fill="url(#SVGID_58_)" d="M443.979,448.961c-5.739-5.452-8.913-17.663-8.913-17.663
			c-10.577-1.245-17.745-6.705-17.991-15.536c-0.108-3.931,4.15-10.65,11.02-10.65c3.435,4.251,11.06,13.921,14.004,18.663
			c0.794,2.494,3.199,9.422,6.215,15.374c2.54,5.015,4.252,6.01,5.724,8.096C453.668,448.961,447.248,452.068,443.979,448.961z"/>
		<path fill="#944D09" d="M404.482,443.563c7.359,1.718,25.391,3.189,30.296,3.435C428.4,449.329,411.352,446.631,404.482,443.563z"
			/>
	</g>
	<g>
		<g>
			
				<ellipse transform="matrix(-0.982 0.1887 -0.1887 -0.982 568.9806 164.6446)" fill="#944D09" cx="276.651" cy="109.412" rx="7.141" ry="16.661"/>
			<linearGradient id="SVGID_59_" gradientUnits="userSpaceOnUse" x1="287.9434" y1="110.396" x2="258.993" y2="109.1693">
				<stop  offset="0.0126" style="stop-color:#FFBD99"/>
				<stop  offset="1" style="stop-color:#E3A586"/>
			</linearGradient>
			<path fill="url(#SVGID_59_)" d="M280.122,123.847c-2.148-0.001-6.165-4.936-7.827-12.974c-0.812-3.92-0.88-7.856-0.189-10.797
				c0.645-2.743,1.738-3.871,2.478-4.002c0.068-0.013,0.136-0.019,0.204-0.019c2.147,0,6.164,4.936,7.827,12.975
				c0.823,3.979,0.89,7.813,0.189,10.797c-0.645,2.742-1.739,3.87-2.479,4.003C280.258,123.842,280.191,123.847,280.122,123.847
				L280.122,123.847z"/>
			<linearGradient id="SVGID_60_" gradientUnits="userSpaceOnUse" x1="274.0444" y1="110.2705" x2="282.2559" y2="110.2705">
				<stop  offset="0.0126" style="stop-color:#C28361"/>
				<stop  offset="1" style="stop-color:#E3A586"/>
			</linearGradient>
			<path fill="url(#SVGID_60_)" d="M274.56,111.18c1.099,4.348,3.597,7.467,5.582,6.965c1.98-0.501,2.699-4.433,1.599-8.781
				c-1.099-4.35-3.597-7.469-5.581-6.967C274.178,102.896,273.46,106.829,274.56,111.18z"/>
		</g>
		<g>
			
				<ellipse transform="matrix(0.982 0.1888 -0.1888 0.982 27.1877 -66.2632)" fill="#944D09" cx="361.41" cy="109.577" rx="7.141" ry="16.66"/>
			<path fill="#FFD1AF" d="M357.938,124.012c2.148-0.001,6.165-4.936,7.828-12.975c0.811-3.92,0.88-7.855,0.189-10.797
				c-0.646-2.742-1.739-3.87-2.479-4.002c-0.068-0.012-0.137-0.018-0.204-0.018c-2.147,0-6.163,4.936-7.827,12.974
				c-0.823,3.979-0.891,7.813-0.19,10.797c0.646,2.743,1.738,3.87,2.479,4.003C357.802,124.006,357.871,124.012,357.938,124.012
				L357.938,124.012z"/>
			<linearGradient id="SVGID_61_" gradientUnits="userSpaceOnUse" x1="356.5947" y1="109.6719" x2="364.4727" y2="109.6719">
				<stop  offset="0.0126" style="stop-color:#C28361"/>
				<stop  offset="1" style="stop-color:#E3A586"/>
			</linearGradient>
			<path fill="url(#SVGID_61_)" d="M356.897,108.977c-0.835,4.35,0.117,8.188,2.128,8.572c2.006,0.385,4.313-2.829,5.145-7.18
				c0.836-4.35-0.118-8.189-2.128-8.574C360.035,101.41,357.73,104.625,356.897,108.977z"/>
		</g>
		<g>
			<path fill="#944D09" d="M363.76,85.33c0-25.341-19.769-45.883-44.156-45.883c-24.387,0-44.157,20.542-44.157,45.883
				c0,1.4,3.894,12.715,3.68,25.096c-0.123,7.113-0.327,17.049,0.491,21.955c2.758,7.157,23.245,35.627,25.758,37.288
				c7.236,4.784,22.84,6.182,31.769,0c5.069-6.705,20.074-30.296,21.547-35.529c2.453-14.71,1.123-34.815,1.472-40.068
				C360.136,94.071,363.76,87.861,363.76,85.33z"/>
			<linearGradient id="SVGID_62_" gradientUnits="userSpaceOnUse" x1="305.0986" y1="58.3691" x2="353.1808" y2="193.2936">
				<stop  offset="0.0126" style="stop-color:#FFBD99"/>
				<stop  offset="1" style="stop-color:#E3A586"/>
			</linearGradient>
			<path fill="url(#SVGID_62_)" d="M322.309,171.54c-5.941-0.001-11.871-1.515-15.514-3.956
				c-2.605-2.348-21.479-28.607-24.278-35.469c-0.984-4.314-1.658-11.838-2.328-19.891c-1.023-12.301-1.799-25.414-1.799-26.895
				c0-23.677,18.488-42.939,41.213-42.939c22.725,0,41.213,19.263,41.213,42.939c0,1.752-0.288,4.959-0.41,6.329
				c-0.029,0.333-0.058,0.642-0.065,0.935l-0.009-0.026c-0.304,4.558-2.063,26.153-4.531,41.008
				c-1.1,4.718-14.711,28.449-20.303,34.624C332.234,170.355,327.566,171.54,322.309,171.54L322.309,171.54z"/>
			<linearGradient id="SVGID_63_" gradientUnits="userSpaceOnUse" x1="271.7998" y1="112.0732" x2="318.794" y2="113.5753">
				<stop  offset="6.030000e-006" style="stop-color:#F3B190"/>
				<stop  offset="0.3485" style="stop-color:#F8BD9C"/>
				<stop  offset="1" style="stop-color:#FFD1AF"/>
			</linearGradient>
			<path fill="url(#SVGID_63_)" d="M321.811,63.938c-11.079,3.559-25.847-5.834-33.117,0.859c-3.38,3.197-5.888,15.209-1.962,27.23
				c-3.189,8.095,1.717,17.172,1.717,26.248c0,7.396-0.89,17.227,2.944,22.078c9.24,11.693,13.656,19.625,16.6,24.041
				c3.435,4.906,21.752,6.379,27.639,0.818c6.339-8.604,19.195-27.46,20.17-31.638c4.853-14.318,2.872-32.819,3.176-37.378
				c0,0,1.4-4.205,1.43-4.538c0.122-1.37,0.41-4.577,0.41-6.329C360.816,61.653,355.419,53.145,321.811,63.938z"/>
		</g>
		<linearGradient id="SVGID_64_" gradientUnits="userSpaceOnUse" x1="322.9111" y1="90.5161" x2="322.4739" y2="111.2851">
			<stop  offset="6.030000e-006" style="stop-color:#F3B190"/>
			<stop  offset="0.4515" style="stop-color:#F7BD9B"/>
			<stop  offset="1" style="stop-color:#FFD1AF"/>
		</linearGradient>
		<path fill="url(#SVGID_64_)" d="M321.32,129.561c-1.778-0.485-7.236-2.453-7.236-3.803s2.085-9.936,2.207-11.775
			c0.123-1.84-0.558-7.524-0.613-8.627c-0.163-3.27-0.307-4.252,0.553-6.092c3.925-1.166,9.567,0,10.609,0.49
			c-0.123,2.331-0.204,11.939-0.204,14.27c0,1.432,1.717,7.85,3.025,9.895c1.799,2.984-0.858,3.68-2.821,4.17
			C324.142,128.947,322.669,129.928,321.32,129.561z"/>
		<g>
			<linearGradient id="SVGID_65_" gradientUnits="userSpaceOnUse" x1="325.4004" y1="154.5352" x2="321.5089" y2="103.7015">
				<stop  offset="0.0126" style="stop-color:#FFBD99"/>
				<stop  offset="1" style="stop-color:#E3A586"/>
			</linearGradient>
			<path fill="url(#SVGID_65_)" d="M351.412,95.053c-7.113-6.379-16.723-6.338-22.855-4.621c-1.594,0.982-2.575,1.84-3.72,2.331
				c-2.168,0.777-6.46,0.735-7.196-2.208c-2.085-0.98-10.834-2.902-13.492-2.82c-4.661,0.613-7.237,1.471-9.199,2.453
				c-1.35,1.717-1.595,1.717-3.23,4.047c-1.472,2.33-1.309,6.379-0.246,11.448c2.085-0.245,12.92-7.687,21.261-3.761
				c0.056,0.941-11.448,7.522-11.448,7.522s8.423,1.227,12.266-0.327c0.038,3.476,0.566,8.064,0.327,10.631
				c-1.186,1.922-7.114,7.032-5.069,8.994c0.43,0.43,1.554,0.572,2.044,0.654c1.308-0.327,2.862-0.572,4.742-0.245
				c2.665,0.464,2.802,2.493,5.807,2.371c3.066-0.125,2.779-0.572,3.762-0.981c1.344-0.56,1.717-0.736,3.924-0.98
				c0.371,0.068,1.718,1.227,3.026-0.164c0.122-1.247-1.962-2.616-3.435-2.371c-2.782,0.464-5.806,1.391-7.114,1.431
				c-1.145,0.036-5.643-1.349-6.051-2.331c-0.327-1.717,2.044-9.976,2.126-11.652c0.07-1.442-0.084-10.916,0-12.02
				c0.184-3.436,8.77-3.066,8.893-0.368c0.104,2.292,0.184,6.562,0.184,6.562c9.077,3.066,17.998,1.094,23.428-3.373
				c-0.326-0.939-1.063-2.861-1.43-4.088C349.858,100.449,350.923,97.67,351.412,95.053z"/>
			<path fill="#944D09" d="M311.753,128.742c1.257-0.785,3.917-0.397,5.062,0.115c1.174,0.527,2.516,1.688,4.775,1.729
				c1.071,0.02,3.618-1.211,4.707-1.643c1.163-0.461,4.018-0.773,4.673,0.371c-1.646-0.74-3.605,0.15-4.606,0.613
				c-1.267,0.587-3.203,1.729-4.849,1.811c-2.229,0.111-4.04-1.248-5.276-1.893C315.1,129.254,313.481,128.48,311.753,128.742z"/>
			<path fill="#944D09" d="M312.203,129.561c-5.888,0.857-4.293-3.558,0.94-5.889C309.873,126.371,308.462,129.561,312.203,129.561z
				"/>
			<path fill="#944D09" d="M330.765,130.133c3.435-1.717,0.122-5.766-0.981-6.746C332.236,125.227,336.282,128.783,330.765,130.133z
				"/>
		</g>
		<g>
			<g>
				<linearGradient id="SVGID_66_" gradientUnits="userSpaceOnUse" x1="302.0469" y1="103.1455" x2="302.1082" y2="110.1367">
					<stop  offset="0" style="stop-color:#CED5D8"/>
					<stop  offset="1" style="stop-color:#FFFFFF"/>
				</linearGradient>
				<path fill="url(#SVGID_66_)" d="M292.872,100.309c5.923-2.367,16.218-1.045,19.121,0.7c1.223,3.227,1.011,5.565,1.03,6.956
					c-2.423,1.383-16.242,3.883-21.201-1.423c-0.49-0.778-0.707-1.687-0.707-1.687S292.494,101.746,292.872,100.309z"/>
				<linearGradient id="SVGID_67_" gradientUnits="userSpaceOnUse" x1="302.7822" y1="99.5459" x2="302.6596" y2="105.3722">
					<stop  offset="0" style="stop-color:#CED5D8"/>
					<stop  offset="1" style="stop-color:#FFFFFF"/>
				</linearGradient>
				<path fill="url(#SVGID_67_)" d="M297.034,101.594c-2.649,0.883-5.28,4.15-2.205,6.941c5.298,2.193,13.541,1.029,16.971-0.076
					C311.341,101.313,303.359,99.787,297.034,101.594z"/>
			</g>
			<g>
				<circle fill="#321908" cx="301.977" cy="104.391" r="5.442"/>
				<linearGradient id="SVGID_68_" gradientUnits="userSpaceOnUse" x1="301.9766" y1="99.2637" x2="301.9766" y2="107.6047">
					<stop  offset="0" style="stop-color:#42210B"/>
					<stop  offset="0.9984" style="stop-color:#94561D"/>
				</linearGradient>
				<circle fill="url(#SVGID_68_)" cx="301.977" cy="104.391" r="5.034"/>
				<linearGradient id="SVGID_69_" gradientUnits="userSpaceOnUse" x1="302.2246" y1="99.8291" x2="302.2246" y2="107.959">
					<stop  offset="0" style="stop-color:#42210B"/>
					<stop  offset="0.9815" style="stop-color:#C46C1B"/>
				</linearGradient>
				<path fill="url(#SVGID_69_)" d="M302.906,103.377c-3.868-2.191-6.199,1.365-5.26,3.541c0.874,1.492,2.476,2.506,4.33,2.506
					c2.78,0,5.034-2.253,5.034-5.033c0-0.114-0.025-0.221-0.033-0.332C306.724,105.806,303.331,107.932,302.906,103.377z"/>
				<circle fill="#211106" cx="301.976" cy="104.391" r="2.422"/>
				<circle fill="#FFFFFF" cx="297.278" cy="102.775" r="1.731"/>
			</g>
			<path d="M313.162,101.674c0.117-0.344,0.229-0.693,0.339-1c-0.554-0.196-1.557-0.48-2.83-0.766
				c-5.567-2.201-14.368-2.012-17.071-0.951c-0.525,0.748-2.514,3.863-2.76,6.01c0.202,1.24,1.227,1.901,2.699,3.006
				c-0.923-1.461-1.447-2.422-1.533-2.883c0.326-1.304,1.436-3.355,3.127-4.354c2.905-0.667,7.258-0.476,10.992,0.222
				c1.708,0.361,3.298,0.798,4.617,1.279c0.395,0.16,0.769,0.326,1.089,0.5c0.475,1.287,1.191,4.229,1.114,5.536
				C313.781,106.254,313.592,103.5,313.162,101.674z"/>
		</g>
		<g>
			<g>
				<linearGradient id="SVGID_70_" gradientUnits="userSpaceOnUse" x1="339.6006" y1="101.2598" x2="339.4781" y2="111.422">
					<stop  offset="0" style="stop-color:#CED5D8"/>
					<stop  offset="1" style="stop-color:#FFFFFF"/>
				</linearGradient>
				<path fill="url(#SVGID_70_)" d="M348.665,100.432c-5.922-2.367-16.217-1.046-19.12,0.699c-1.222,3.228-0.947,5.533-0.375,6.924
					c2.422,1.383,15.588,3.915,20.546-1.391c0.49-0.777,0.707-1.686,0.707-1.686S349.043,101.869,348.665,100.432z"/>
				<path fill="#FFFFFF" d="M345.443,102.657c-4.779-1.911-16.927-1.881-14.883,5.888c3.893,1.14,12.17,2.365,17.18-0.385
					C348.614,105.385,348.568,103.439,345.443,102.657z"/>
			</g>
			<g>
				<circle fill="#321908" cx="338.711" cy="104.391" r="5.442"/>
				<linearGradient id="SVGID_71_" gradientUnits="userSpaceOnUse" x1="338.5898" y1="100.522" x2="338.8352" y2="108.2909">
					<stop  offset="0" style="stop-color:#42210B"/>
					<stop  offset="0.9984" style="stop-color:#94561D"/>
				</linearGradient>
				<circle fill="url(#SVGID_71_)" cx="338.712" cy="104.391" r="5.034"/>
				<linearGradient id="SVGID_72_" gradientUnits="userSpaceOnUse" x1="338.96" y1="100.5244" x2="338.96" y2="108.6544">
					<stop  offset="0" style="stop-color:#42210B"/>
					<stop  offset="0.9815" style="stop-color:#C46C1B"/>
				</linearGradient>
				<path fill="url(#SVGID_72_)" d="M339.643,103.377c-3.869-2.191-6.199,1.365-5.261,3.541c0.874,1.492,2.476,2.506,4.331,2.506
					c2.781,0,5.033-2.253,5.033-5.033c0-0.114-0.025-0.221-0.033-0.332C343.46,105.806,340.066,107.932,339.643,103.377z"/>
				<circle fill="#211106" cx="338.712" cy="104.391" r="2.422"/>
				<circle fill="#FFFFFF" cx="334.322" cy="103.557" r="1.731"/>
			</g>
			<path d="M348.121,99.141c-2.827-0.579-12.106-1.169-18.335,1.348c-0.985,0.252-1.755,0.484-2.21,0.646
				c0.327,0.44,0.564,0.964,0.806,1.374c-0.238,1.903-0.132,4.413,0.87,5.79c-0.076-1.307-0.02-4.152,0.455-5.439
				c0.344-0.188,0.747-0.363,1.178-0.531c0.828-0.298,1.757-0.578,2.755-0.835c4.084-0.964,9.5-1.29,12.887-0.513
				c1.692,1,2.68,2.99,3.005,4.293c-0.086,0.462-0.548,1.238-1.472,2.699c1.227-0.736,2.077-1.701,2.534-2.74
				C350.553,104.538,349.314,100.834,348.121,99.141z"/>
		</g>
		<path d="M286.854,95.951c0.32-1.6,0.228-1.547,1.717-4.66c1.145-1.717,4.416-3.926,7.482-4.906
			c9.567,0.98,18.357,3.352,21.343,4.66c0.163,2.127,0.245,4.906,0.082,5.725c-2.78-1.146-10.671-4.047-21.547-4.498
			C293.232,92.763,288.939,93.376,286.854,95.951z"/>
		<path d="M355.256,97.26c-0.612-1.35-1.471-4.17-1.471-4.17c-1.146-1.718-5.154-3.68-7.933-4.988
			c-9.077,0.736-15.333,2.33-18.645,3.435c-0.981,2.208-1.104,4.171-0.572,5.806c2.779-1.145,8.423-2.861,18.644-4.579
			C347.296,93.129,352.276,95.584,355.256,97.26z"/>
		<path d="M364.25,60.871c-3.23-13.572-20.521-26.546-42.439-26.984c-24.531-0.49-36.323,9.643-43.175,22.324
			c-5.403,10.001-4.498,30.583-3.128,37.104c0.484,0.283,1.165,0.797,1.778,1.166l1.595,15.945l2.882,2.883l-1.472-18.093
			c0.184-2.146,1.492-3.762,1.533-10.304c-2.944-9.648,1.636-19.461,3.598-21.75c6.542-8.178,22.405,2.125,34.508,1.635
			c11.77-0.478,28.714-7.451,34.753-1.227c3.987,4.11,4.365,13.506,2.698,20.361c0.613,6.01,1.271,8.109,1.376,11.82
			c-0.328,4.045-0.885,14.061-1.376,17.454c0.92,0.04,3.25-1.922,3.25-1.922l1.71-17.635c0.785-0.413,1.111-0.539,2.093-0.458
			C365.17,89.676,367.93,76.326,364.25,60.871z"/>
		<g>
			<path fill="#B46639" d="M296.707,135.529c1.191,0.183,2.658,0.531,3.639,0.531c12.348,1.309,37.247,1.595,44.019,1.513
				c-0.994,0.409-1.491,0.899-2.403,1.145c-2.236,2.616-6.63,7.196-8.784,9.649c-3.978,3.107-18.572,3.966-24.041-0.613
				c-4.101-3.955-6.294-6.772-8.504-9.199C299.141,137.654,297.934,136.51,296.707,135.529z"/>
			<path fill="#B46639" d="M300.524,139.291c-1.554-0.613-4.543-3.416-4.226-4.252c0.186-0.491,3.729-0.695,4.723-0.328
				c-1.492,0.368-1.969,0.879-2.093,1.37C298.804,136.572,299.902,138.616,300.524,139.291z"/>
			<path fill="#B46639" d="M339.619,136.604c1.616-0.432,5.712,0.039,5.966,0.896c0.15,0.503-2.558,2.765-3.577,3.061
				c0.97-1.179,1.039-1.87,0.84-2.336C342.649,137.758,340.527,136.773,339.619,136.604z"/>
		</g>
		<g>
			<path fill="#ADBCC7" d="M321.994,148.781c-3.946,0-7.837-0.725-10.855-2.213c-3.949-2.885-7.74-6.994-9.445-8.75
				c7.084,1.472,36.197,1.134,38.568,1.227c-2.675,2.896-6.804,6.734-9.314,8.279C328.229,148.278,325.139,148.781,321.994,148.781z
				"/>
			<linearGradient id="SVGID_73_" gradientUnits="userSpaceOnUse" x1="301.8652" y1="144.1182" x2="340.1821" y2="144.1182">
				<stop  offset="0.145" style="stop-color:#C5D3D9"/>
				<stop  offset="0.2249" style="stop-color:#DEE6E9"/>
				<stop  offset="0.3087" style="stop-color:#F0F4F5"/>
				<stop  offset="0.3963" style="stop-color:#FBFCFD"/>
				<stop  offset="0.4932" style="stop-color:#FFFFFF"/>
				<stop  offset="0.6635" style="stop-color:#FCFDFE"/>
				<stop  offset="0.7679" style="stop-color:#F4F8FB"/>
				<stop  offset="0.8543" style="stop-color:#E6F0F5"/>
				<stop  offset="0.8826" style="stop-color:#DFECF2"/>
			</linearGradient>
			<path fill="url(#SVGID_73_)" d="M329.723,144.586c1.814-0.428,4.263-1.072,6.296-2.175c0.404-0.772,0.741-1.527,0.757-2.548
				c-6.904-0.006-22.979,0.327-30.665-0.408c0.139,1.105,0.22,1.521,0.798,2.861c3.169,1.648,7.604,2.699,7.604,2.699
				s-3.523-0.103-6.314-0.842c0.952,0.836,1.933,1.658,2.94,2.395c3.019,1.488,6.909,2.213,10.855,2.213
				c3.145,0,6.234-0.503,8.953-1.457c1.18-0.726,2.718-1.965,4.294-3.368c0.021-0.049,0.044-0.093,0.065-0.142
				C333.782,144.326,331.582,144.586,329.723,144.586z"/>
		</g>
		<linearGradient id="SVGID_74_" gradientUnits="userSpaceOnUse" x1="334.9141" y1="154.1299" x2="313.7179" y2="153.5244">
			<stop  offset="0.0126" style="stop-color:#FFBD99"/>
			<stop  offset="1" style="stop-color:#E3A586"/>
		</linearGradient>
		<path fill="url(#SVGID_74_)" d="M311.753,152.129c4.907,2.208,14.842,2.699,20.442-0.163
			C328.435,156.055,317.887,158.017,311.753,152.129z"/>
	</g>
</g>
</svg>
