<?xml version="1.0" encoding="utf-8"?>
<!-- Generator: Adobe Illustrator 15.0.0, SVG Export Plug-In . SVG Version: 6.00 Build 0)  -->
<!DOCTYPE svg PUBLIC "-//W3C//DTD SVG 1.1//EN" "http://www.w3.org/Graphics/SVG/1.1/DTD/svg11.dtd">
<svg version="1.1" id="Skin_x5F_05" xmlns="http://www.w3.org/2000/svg" xmlns:xlink="http://www.w3.org/1999/xlink" x="0px"
	 y="0px" width="1273.808px" height="3568.009px" viewBox="0 0 1273.808 3568.009" enable-background="new 0 0 1273.808 3568.009"
	 xml:space="preserve">
<g>
	<g>
		<path fill="#5D371F" d="M1102.621,1361.413c22.592,54.996,33.327,88.129,45.182,145.852c28.1,136.791,26.36,293.308,47.82,369.82
			c-12.05,3.195-107.308,20.734-113.329,22.326c-39.908-219.978-157.38-353.88-110.692-530.83
			C1034.858,1346.269,1083.05,1366.194,1102.621,1361.413z"/>
		<linearGradient id="SVGID_1_" gradientUnits="userSpaceOnUse" x1="1079.3816" y1="1625.4995" x2="961.4197" y2="1636.8091">
			<stop  offset="0" style="stop-color:#895636"/>
			<stop  offset="0.9952" style="stop-color:#916041"/>
		</linearGradient>
		<path fill="url(#SVGID_1_)" d="M1092.916,1882.646c-15.631-78.496-40.939-147.045-63.411-207.925
			c-38.077-103.103-71.088-192.477-46.721-294.799c17.022-5.245,34.482-7.806,53.125-7.806c14.065,0,26.387,1.406,37.266,2.652
			c7.906,0.909,14.766,1.699,20.845,1.765c20.513,50.792,29.953,82.288,40.537,133.785c14.118,68.672,21.172,143.12,27.401,208.8
			c5.472,57.774,10.297,108.637,18.775,146.547c-15.234,3.087-39.651,7.754-59.062,11.466
			C1108.989,1879.545,1099.627,1881.331,1092.916,1882.646z"/>
		<linearGradient id="SVGID_2_" gradientUnits="userSpaceOnUse" x1="930.1511" y1="1647.6592" x2="1141.3353" y2="1613.1018">
			<stop  offset="6.030000e-006" style="stop-color:#895839"/>
			<stop  offset="0.2364" style="stop-color:#91613F"/>
			<stop  offset="1" style="stop-color:#A87A50"/>
		</linearGradient>
		<path fill="url(#SVGID_2_)" d="M1134.556,1510.318c-10.584-51.497-20.024-82.993-40.537-133.785
			c-6.079-0.066-5.198-13.567-13.108-14.467c-4.006-0.459-19.049,42.071-23.813,51.596c-23.016,48.42-22.605,99.614-20.635,154.789
			c8.3,82.998,58.739,270.693,70.646,311.17c6.703-1.302,1.88-0.076,14.562-2.491c19.41-3.711,43.827-8.379,59.062-11.466
			c-8.479-37.91-13.303-88.773-18.775-146.547C1155.728,1653.438,1148.674,1578.99,1134.556,1510.318z"/>
	</g>
	<g>
		<g>
			<path fill="#5D371F" d="M1080.911,1992.344c-5.548,32.954-17.857,65.098-25.395,90.501
				c-9.126,33.139,18.849,67.072,35.321,29.365c13.294-28.002,32.097-110.791,34.119-122.143
				C1112.923,1984.386,1087.492,1993.797,1080.911,1992.344z"/>
			<linearGradient id="SVGID_3_" gradientUnits="userSpaceOnUse" x1="1104.0122" y1="1950.979" x2="1087.1261" y2="2070.2373">
				<stop  offset="6.030000e-006" style="stop-color:#895839"/>
				<stop  offset="0.2364" style="stop-color:#91613F"/>
				<stop  offset="1" style="stop-color:#A87A50"/>
			</linearGradient>
			<path fill="url(#SVGID_3_)" d="M1070.788,2115.983c-10.116-10.122-5.546-30.781-3.36-37.248
				c7.955-23.434,17.715-49.669,24.798-85.691c5.052,1.766,18.911,3.376,24.418,5.658c-5.046,25.493-27.335,94.998-30.374,104.182
				C1081.186,2118.218,1073.336,2118.52,1070.788,2115.983z"/>
			<path fill="#5D371F" d="M1107.279,1981.043c-0.15,21.682-2.483,65.42-6.514,100.608c-2.47,12.299-11.512,38.885-15.879,55.966
				c-9.523,30.161,19.051,69.065,32.24,40.746c3.285-7.059,28.034-69.254,29.885-75.139c7.477-22.018,15.21-109.276,13.696-118.19
				C1149.024,1984.386,1114.626,1982.682,1107.279,1981.043z"/>
			<linearGradient id="SVGID_4_" gradientUnits="userSpaceOnUse" x1="1134.4585" y1="1957.9868" x2="1121.6904" y2="2083.54">
				<stop  offset="6.030000e-006" style="stop-color:#895839"/>
				<stop  offset="0.2364" style="stop-color:#91613F"/>
				<stop  offset="1" style="stop-color:#A87A50"/>
			</linearGradient>
			<path fill="url(#SVGID_4_)" d="M1119.958,2162.334c-14.819,39.553-30.384-4.142-26.085-21.819
				c2.612-9.813,10.575-34.606,15.848-51.417c1.63-18.704,7.273-56.368,7.406-94.047c5.145,0.488,30.921,2.315,32.522,2.391
				c-1.022,34.113-2.708,70.433-7.678,92.466C1140.815,2093.132,1123.46,2152.081,1119.958,2162.334z"/>
			<path fill="#5D371F" d="M1145.208,1985.598c-1.145,28.555-6.952,93.421-9.518,110.738c-4.936,16.844-10.439,35.657-16.084,48.813
				c-21.427,46.446,16.084,80.375,27.988,58.347c5.629-13.161,31.671-85.648,31.671-85.648s19.395-123.984,20.111-130.258
				C1185.846,1986.653,1155.861,1987.179,1145.208,1985.598z"/>
			<linearGradient id="SVGID_5_" gradientUnits="userSpaceOnUse" x1="1161.4297" y1="1945.7075" x2="1155.0809" y2="2134.0518">
				<stop  offset="6.030000e-006" style="stop-color:#895839"/>
				<stop  offset="0.2364" style="stop-color:#91613F"/>
				<stop  offset="1" style="stop-color:#A87A50"/>
			</linearGradient>
			<path fill="url(#SVGID_5_)" d="M1125.586,2156.45c4.743-11.883,13.382-35.467,17.969-50.205
				c3.888-29.886,9.351-75.484,9.218-103.95c7.592,0.757,29.777-1.075,37.734-0.45c-2.703,21.436-12.683,98.393-12.683,98.393
				s-32.997,90.704-34.976,94.86C1136.28,2208.856,1115.44,2185.64,1125.586,2156.45z"/>
			<path fill="#5D371F" d="M1178.55,1988.571c-0.01,16.976-1.132,67.1-3.569,105.39c-3.328,11.286-11.006,34.208-15.48,47.62
				c-8.99,40.641,21.44,65.438,34.128,30.179c4.03-8.64,19.258-43.478,27.003-70.268c4.593-49.125,7.262-111.269,6.737-117.078
				C1215.197,1983.619,1190.409,1989.394,1178.55,1988.571z"/>
			<linearGradient id="SVGID_6_" gradientUnits="userSpaceOnUse" x1="1194.3484" y1="1903.2227" x2="1190.2939" y2="2115.0715">
				<stop  offset="6.030000e-006" style="stop-color:#895839"/>
				<stop  offset="0.2364" style="stop-color:#91613F"/>
				<stop  offset="1" style="stop-color:#A87A50"/>
			</linearGradient>
			<path fill="url(#SVGID_6_)" d="M1168.586,2136.126c4.26-12.976,10.049-29.896,12.26-35.387
				c3.467-35.856,3.069-59.668,5.184-101.508c3.892-0.332,12.881-1.865,16.905-2.329c4.015-0.454,7.863,6.239,11.637,5.908
				c2.3,24.589-0.899,67.328-4.224,98.634c-6.872,23.921-18.235,54.058-22.267,63.36
				C1176.45,2196.48,1160.122,2161.828,1168.586,2136.126z"/>
		</g>
		<g>
			<path fill="#5D371F" d="M1078.535,1855.818c-15.083,32.93-3.371,127.199,0.795,150.818
				c39.889-12.309,136.027,6.021,153.317,7.442c-1.33-48.761-44.178-161.347-47.257-178.617
				C1168.16,1859.369,1119.143,1918.232,1078.535,1855.818z"/>
			<linearGradient id="SVGID_7_" gradientUnits="userSpaceOnUse" x1="1044.6787" y1="1931.4438" x2="1176.0183" y2="1931.4438">
				<stop  offset="6.030000e-006" style="stop-color:#895839"/>
				<stop  offset="0.2364" style="stop-color:#91613F"/>
				<stop  offset="1" style="stop-color:#A87A50"/>
			</linearGradient>
			<path fill="url(#SVGID_7_)" d="M1090.441,2005.85c-0.043-3.2-4.285-25.119-4.384-28.727
				c-0.697-23.045-5.857-88.531,5.211-117.754c3.115-1.009,8.617,5.316,22.752,7.31c20.924-12.622,42.223-21.142,63.143-22.989
				c0.616,29.872,40.988,125.083,38.299,174.355C1179.35,2020.923,1144.272,2018.963,1090.441,2005.85z"/>
		</g>
		<g>
			<path fill="#5D371F" d="M1189.231,1846.01c14.235,20.417,35.605,51.345,42.534,66.949c0.749,6.083,7.461,24.707,13.196,45.765
				c8.983,33.038,26.922,52.95,28.848,58.432c-4.619,16.919-36.455,16.257-50.605,1.184c-14.151-15.059-20.362-34.052-25.494-57.954
				C1124.579,1933.608,1135.69,1863.743,1189.231,1846.01z"/>
			<linearGradient id="SVGID_8_" gradientUnits="userSpaceOnUse" x1="1156.9861" y1="1973.437" x2="1227.3275" y2="1923.1931">
				<stop  offset="6.030000e-006" style="stop-color:#895839"/>
				<stop  offset="0.2364" style="stop-color:#91613F"/>
				<stop  offset="1" style="stop-color:#A87A50"/>
			</linearGradient>
			<path fill="url(#SVGID_8_)" d="M1227.439,2009.997c-18.033-22.15-24.599-58.579-24.599-58.579
				c-33.214-5.061-55.734-27.221-56.5-63.086c-0.345-15.963,9.265-43.126,30.832-43.126c10.79,17.274,38.516,56.401,47.747,75.668
				c2.5,10.117,10.057,38.251,19.529,62.419c7.987,20.361,13.345,24.404,17.969,32.869
				C1261.268,2023.139,1237.711,2022.613,1227.439,2009.997z"/>
		</g>
		<path fill="#5D371F" d="M1088.801,2004.804c27.682,6.982,84.197,13.35,119.521,12.943
			C1163.472,2027.684,1114.647,2017.259,1088.801,2004.804z"/>
	</g>
</g>
<g>
	<path fill="#BA7C29" d="M979.18,795.292c54.42,0,129.053,89.906,140.313,139.172c11.26,49.267,12.748,188.492,16.5,218.99
		c3.754,30.498,8.999,106.185,8.999,131.992s13.87,122.032,19.499,145.493c5.629,23.459,13.588,105.661,16.499,127.493
		c7.788,58.42,5.681,100.943,3,139.493c-0.67,9.636,24.207,89.181,14.825,119.679c-7.507,30.498-50.668,25.807-71.31,32.845
		c-20.643,7.038-64.704,13.565-71.31,11.73c-16.889-4.693-30.025-14.077-54.42-35.191
		C996.146,1763.646,971.674,891.479,979.18,795.292z"/>
	<path fill="#E9BD40" d="M1059.913,1849.589c-0.992,0-1.5-0.043-1.689-0.065c-13.321-3.74-24.238-10.629-46.576-29.706
		c-2.407-44.708-4.693-250.833-5.416-494.343c-0.759-255.653-21.768-456.777-19.052-518.184c16.26,17.026,49.181,35.301,68,62
		c20.824,29.546,46.333,55.743,51.141,76.786c6.949,30.407,8.745,96.445,10.056,144.664c0.776,28.528,1.389,51.06,2.802,62.55
		c3.927,31.914,11.139,105.287,11.139,129.416c0,28.232,13.484,125.334,19.201,149.163c3.532,14.717,7.734,58.107,10.801,89.79
		c1.569,16.216,2.925,30.221,3.917,37.655c6.877,51.588,8.531,92.015,5.529,135.178c-0.366,5.245,1.257,11.796,6.003,29.962
		c6.057,23.191,18.663,71.448,13.411,88.517l-0.127,0.414l-0.105,0.425c-3.491,14.183-24.876,17.27-42.059,19.751
		c-8.103,1.17-15.757,2.274-22.101,4.438C1107.263,1843.977,1071.532,1849.589,1059.913,1849.589z"/>
	<path fill="#F6D973" d="M1169.767,1694.493c3.002-43.163,1.349-83.589-5.529-135.178c-0.992-7.434-2.348-21.439-3.917-37.655
		c-3.068-31.683-7.27-75.073-10.801-89.79c-5.717-23.829-19.201-120.931-19.201-149.163c0-24.129-7.212-97.502-11.139-129.416
		c-1.413-11.49-2.026-34.022-2.802-62.55c-1.311-48.219-3.107-114.257-10.056-144.664c-4.808-21.042-22.317-47.24-43.141-76.786
		c-11.684-16.576-41.803-42.135-54-48c7.318,5.075,23.264,125.749,25.53,141.94c4.555,32.561,18.928,64.988,25.332,96.77
		c6.779,33.648,4.883,52.978,3.66,86.635c-1.589,43.727,2.087,87.587-0.737,131.243c-2.848,44.011-12.76,90.08-0.335,133.215
		c6.583,22.853,6.645,45.88,11.486,69.415c5.968,29.009,2.436,54.282,1.408,84.452c-1.339,39.195-0.383,57.672,1.408,96.771
		c2.103,45.981-16.689,128.175,28.146,138.996c10.21,2.462,81.627,22.872,84.485-11.633c1.774-21.406-9.657-48.807-13.792-64.64
		C1171.024,1706.289,1169.401,1699.737,1169.767,1694.493z"/>
</g>
<g>
	<g>
		<path fill="#BA7C29" d="M561.522,668.978c-50.998,34.498-114.281,74.111-140.35,81.98c-15.365,4.637-61.993,8.333-93.993,30.333
			c8.387,41.771,57.573,346.402,56,414c37.736,113.764,12,169.134,12,212c0,29.902-7.714,83.133-12,156c-4,68-27.719,168.57-32,188
			c-12.147,55.128-24,188-32,288c-3.522,44.027-10.298,206.655-11.919,226.377c-4.081,49.623,3.919,272.827,3.919,281.623
			c0,36-13.711,87.42-20,116c-6.29,28.577-56,238.33-56,293.289c0,54.962,6.44,83.599,12.729,138.558
			c6.289,54.96,13.626,54.958,9.435,85.735c-4.194,30.776-12.056,40.666-7.862,62.648c4.192,21.985,15.2,43.968,11.006,59.355
			c-4.192,15.391-9.434,51.11-9.434,70.896c0,19.788,5.836,104.54,12.127,137.519c6.289,32.975,78.175,58.786,118.009,56.587
			c39.834-2.199,81.933-0.13,102.991-1.087c22-1,83.944-0.993,96-2.5c32-4,39-41.223,39-65c0-37.921-63.614-114.017-72-136
			c-8.386-21.984-40-69.438-40-120c0-50.564-0.386-107.423,8-136c8.386-28.581,15.806-74.628,20-112
			c4.192-37.377,18.757-107.236,24-160c3.072-30.923-0.336-84.874,14.338-120.048c14.677-35.174,37.737-124.209,46.123-146.196
			c8.387-21.981,35.642-116.516,35.642-116.516s8.385-28.578,23.061-53.86c4.193,45.065-7.164,98.632-7.164,120.62
			c0,21.981,6.291,74.23,0,116c-6.289,41.771-20,130-28,204c-7.565,69.973,4,138,12,196c5.736,41.587,8,84,12,136
			c3.407,44.286,0.386,72.822-8,108c-8.387,35.174-12.096,72.016-10,94c2.097,21.984,24.36,73.801,60,76c35.642,2.198,412-8,412-8
			c40.881-1.65,40.213-36.925,44.405-58.909c4.194-21.984-15.594-35.544-56.405-51.091c-42-16-91.884-25.346-106.559-40.737
			c-14.677-15.389-51.152-41.676-57.441-59.263c-6.291-17.587,4.192-61.556,0-79.143c-4.194-17.587,0-43.97-8.386-85.737
			c-8.385-41.771-6.291-70.35-6.291-105.523c0-35.176,16.291-123.429,24.677-169.597c8.386-46.164,25.711-86.838,32-144
			c6.289-57.158,9.325-88.444,24-150c14.675-61.555,37.903-221.419,40-250s16-162,20-228c3.101-51.159,6.483-116.855-4-196
			c-10.483-79.142-3.808-326.627-8-364c-4.193-37.374,3.245-250.834,1-286c-3-47-9-138-36-192c-16-66-11.711-156.016-18-178
			c-26-14-60.097-39.223-72.676-45.818c-12.578-6.594-43.841-42.168-68.997-73.497C822.576,763.122,657.963,781.097,561.522,668.978
			z"/>
		<path fill="#E9BD40" d="M376.281,3554.009c-18.373,0-43.373-5.978-63.691-15.228c-20.206-9.2-33.869-20.738-35.657-30.113
			c-6.103-31.988-11.88-115.117-11.88-134.896c0-18.197,5-52.746,8.942-67.216c3.815-13.998-0.623-28.99-5.321-44.862
			c-2.039-6.888-4.147-14.011-5.44-20.795c-2.09-10.954-0.496-17.604,2.4-29.678c1.759-7.336,3.948-16.466,5.582-28.458
			c2.798-20.544,0.916-29.631-2.203-44.686c-1.979-9.553-4.689-22.637-7.194-44.532c-1.698-14.844-3.371-27.508-4.989-39.755
			c-4.273-32.345-7.648-57.894-7.648-97.211c0-46.657,38.809-216.39,51.562-272.166c1.933-8.454,3.33-14.563,4.111-18.113
			c1.065-4.844,2.378-10.48,3.767-16.449c6.989-30.029,16.561-71.156,16.561-102.561c0-1.718-0.203-8.484-0.663-23.625
			c-1.802-59.326-6.587-216.917-3.304-256.851c0.684-8.306,2.161-39.285,4.033-78.506c2.596-54.402,5.826-122.107,7.89-147.902
			c12.015-150.189,22.389-243.774,31.716-286.104c0.361-1.636,0.86-3.854,1.476-6.583c6.703-29.742,27.102-120.25,30.828-183.607
			c2.082-35.388,5.034-66.717,7.407-91.891c2.58-27.373,4.617-48.994,4.617-64.931c0-9.771,1.535-20.712,3.312-33.382
			c5.557-39.614,13.15-93.745-15.281-180.769c0.383-67.893-41.412-336.996-54.246-409.243c11.899-2.967,27.141-6.444,41.054-9.618
			c18.312-4.177,34.126-7.784,41.198-9.919c26.356-7.956,92.807-42.886,137.804-80.384c42.4,45.205,95.057,98.838,156.035,98.838
			c59.162,0,114.241-24.465,143.738-62.403c24.426,25.945,53.57,46.822,65.885,53.279c4.912,2.575,13.618,8.03,23.699,14.347
			c12.157,7.617,26.939,16.88,40.745,24.604c2.788,11.745,7.383,34.606,12.57,60.418c9.166,45.606,20.573,102.365,29.952,137.813
			c16.483,62.301,6.489,422.056,9.622,449.98c1.537,13.7,1.53,60.403,1.521,114.48c-0.013,89.284-0.03,200.4,6.512,249.797
			c9.889,74.663,7.351,136.439,3.905,193.314c-2.612,43.097-9.486,115.27-14.505,167.967c-2.655,27.874-4.752,49.89-5.483,59.855
			c-2.102,28.641-25.12,186.803-39.656,247.778c-14.18,59.481-17.659,91.196-23.422,143.741l-0.876,7.975
			c-3.641,33.098-11.167,60.715-18.445,87.423c-5.109,18.749-9.935,36.458-13.413,55.606l-0.953,5.243
			c-8.957,49.261-23.949,131.708-23.949,166.855c0,5.881-0.06,11.658-0.119,17.245c-0.294,28.232-0.572,54.897,6.683,91.034
			c4.653,23.173,5.248,41.54,5.726,56.298c0.369,11.378,0.687,21.203,2.769,29.931c1.408,5.906,0.231,19.512-0.807,31.517
			c-1.634,18.893-3.177,36.737,1.243,49.094c5.531,15.47,24.4,31.951,42.646,47.889c7.023,6.135,13.656,11.929,17.845,16.321
			c12.064,12.653,36.482,20.109,67.397,29.549c14.766,4.509,30.034,9.171,44.31,14.609c46.784,17.822,49.119,27.609,47.636,35.384
			c-0.589,3.09-1.062,6.232-1.563,9.559c-3.87,25.693-7.841,37.068-29.547,37.981c-6.325,0.171-307.866,8.304-392.123,8.304
			c-11.534,0-16.458-0.154-18.558-0.284c-25.587-1.579-45.154-44.778-46.925-63.355c-1.989-20.861,1.901-56.798,9.681-89.424
			c9.358-39.258,11.619-69.7,8.341-112.321c-0.909-11.818-1.729-23.144-2.521-34.097c-2.725-37.659-5.078-70.183-9.569-102.742
			c-0.798-5.788-1.632-11.677-2.479-17.656c-7.544-53.273-16.094-113.654-9.471-174.926c7.185-66.465,18.886-143.717,25.877-189.873
			c0.746-4.923,1.432-9.458,2.048-13.548c4.773-31.689,2.692-68.085,1.172-94.659c-0.545-9.533-1.016-17.766-1.016-23.425
			c0-6.722,1.312-17.766,2.831-30.552c3.023-25.448,7.163-60.3,4.272-91.365c0,0,61.563-148.75,74.896-249.416
			c-27.839-6.113-100.944,243.685-100.944,243.685c-15.348,26.441-24.025,55.713-24.386,56.946
			c-0.29,1.003-27.205,94.282-35.288,115.466c-3.56,9.332-9.33,29.091-16.012,51.971c-9.557,32.727-21.452,73.456-29.952,93.826
			c-11.56,27.708-12.812,64.778-13.817,94.565c-0.37,10.956-0.719,21.304-1.532,29.489c-2.932,29.503-8.932,65.072-14.225,96.453
			c-4.064,24.09-7.902,46.844-9.756,63.37c-3.785,33.729-10.901,80.239-19.521,109.619c-8.601,29.311-8.584,82.303-8.568,133.55
			l0.001,6.392c0,41.64,19.316,80.47,32.098,106.165c3.777,7.594,7.039,14.151,8.822,18.824c3.358,8.803,12.385,22.288,23.813,39.36
			c18.823,28.119,47.268,70.612,47.268,91.65c0,11.205-1.928,48.007-26.736,51.108c-6.29,0.786-32.099,1.175-52.837,1.487
			c-16.824,0.254-32.714,0.494-42.062,0.919c-3.838,0.174-8.738,0.255-15.421,0.255c-5.392,0-11.415-0.052-17.792-0.107
			c-7.566-0.065-15.39-0.134-23.699-0.134c-18.188,0-32.873,0.343-46.214,1.08C379.102,3553.972,377.71,3554.009,376.281,3554.009z"
			/>
		<path fill="#F6D973" d="M1104.197,3344.375c-14.276-5.438-29.544-10.101-44.31-14.609c-30.915-9.439-55.333-16.896-67.397-29.549
			c-4.19-4.393-10.823-10.187-17.845-16.321c-18.247-15.938-37.115-32.419-42.646-47.889c-4.42-12.356-2.877-30.201-1.243-49.094
			c1.038-12.005,2.215-25.61,0.807-31.517c-2.082-8.728-2.4-18.553-2.769-29.931c-0.478-14.758-1.073-33.125-5.726-56.298
			c-7.255-36.137-6.977-62.802-6.683-91.034c0.059-5.587,0.119-11.364,0.119-17.245c0-35.147,14.992-117.595,23.949-166.855
			l0.953-5.243c3.478-19.148,8.304-36.857,13.413-55.606c7.278-26.708,14.804-54.325,18.445-87.423l0.876-7.975
			c5.763-52.544,9.241-84.26,23.422-143.741c14.537-60.975,37.555-219.137,39.656-247.778c0.731-9.966,2.828-31.982,5.483-59.855
			c5.019-52.698,11.893-124.871,14.505-167.967c3.447-56.875,5.985-118.652-3.905-193.314
			c-6.543-49.396-6.526-160.513-6.512-249.797c0.008-54.078,0.015-100.78-1.521-114.48c-3.133-27.924,18.913-326.561-9.622-449.98
			c-8.26-35.726,1.7-90.974-7.466-136.581c-5.187-25.812-7.725-38.368-15-48c-9.534-12.624-48.645-30.637-60.802-38.254
			c-10.081-6.316-18.787-11.771-23.699-14.347c-12.315-6.457-39.5-28.399-59.5-60.399c2.133,2.266-33.002,32.936-35.749,34.894
			c-9.165,6.533-21.364,15.529-31.251,22.106c-27.342,18.188-110.839,17.281-145.149,19.479c-19.705,1.262-36.274-3.699-55.34-7.406
			c-18.929-3.68-39.076-3.126-58.306-3.4c-15.409-0.219-30.873-1.288-46.264-0.027c-17.056,1.397-39.087,5.407-49.198,20.886
			c-11.909,18.232-0.32,38.522,4.576,56.857c6.106,22.866,7.861,46.768,6.974,70.34c-0.917,24.38-3.188,48.457-3.271,72.879
			c-0.082,24.053-0.405,43.642-5.924,66.879c-5.457,22.974-7.629,46.964-15.589,69.299c-6.072,17.039-10.155,30.391-12.508,48.215
			c-3.386,25.654,24.079,44.524,37.98,61.47c28.144,34.306,19.17,74.339,18.474,115.213c-0.816,47.895,3.81,96.417,4.019,144.49
			c0.17,39.145,4.69,80.001,14.715,117.976c6.555,24.83-3.685,47.894,1.158,72.986c3.63,18.81-12.587,99.147-10.5,103.495
			c15.749,32.811,55.235,48.243,52.498,58.497c-9.376,35.12-35.506,30.653-50.53,56.991c-15.479,27.136,22.228,53.875,33.75,74.936
			c5.661,10.348,9.104,22.194,8.893,34.076c-0.497,27.841-15.12,35.251-38.503,43.807c-71.761,26.257-13.58,128.561-7.271,181.223
			c3.448,28.782-0.953,56.889-1.446,85.676c-0.653,38.107-5.644,75.532-19.761,111.146c-13.378,33.748-27.3,66.316-34.544,102.079
			c-3.516,17.354-3.064,36.51-7.464,53.435c-9.711,37.352-6.656,61.711-1.292,100.05c2.059,14.715,3.655,30.199,7.859,44.49
			c3.7,12.575,11.92,24.041,10.178,37.88c-2.127,16.726-49.549,44.43-57.21,59.085c-46,88-64.538,217.915-60.111,249.438
			c6.111,43.519-5.434,108.089,27.853,142.957c0.133,2.302,34.336,27.494,52.258,43.604c15.62,14.042,19.672,20.436,2,34
			c-30.465,23.384-76.069,15.214-55.273,73.312c26.859,75.032,44.065,89.729,113.273,98.688c16.686,2.16,57.172-4.802,74-4l46,6
			c6.449,0.496,13.144,0.254,19.841,0.006c-6.966-22.664-29.387-56.17-45.109-79.656c-11.428-17.072-20.455-30.558-23.813-39.36
			c-1.783-4.673-5.044-11.23-8.822-18.824c-12.782-25.695-32.098-64.525-32.098-106.165l-0.001-6.392
			c-0.016-51.247-0.033-104.239,8.568-133.55c8.62-29.38,15.736-75.89,19.521-109.619c1.854-16.526,5.692-39.28,9.756-63.37
			c5.293-31.381,11.293-66.95,14.225-96.453c0.813-8.186,1.163-18.533,1.532-29.489c1.006-29.787,2.258-66.857,13.817-94.565
			c8.5-20.37,20.395-61.1,29.952-93.826c6.682-22.88,12.452-42.639,16.012-51.971c8.083-21.185,34.999-114.463,35.288-115.466
			c0.362-1.233,14.342-42.494,24.386-56.946c41.944-60.352,69.944-143.352,88.777-191.242c-1.771,16.664-7.419,38.536-12.362,56.336
			c-7.457,26.856,65.795,139.125-14.711,103.472c-4.945,38.306-7.94,80.215,12.575,109.893
			c78.393,113.412-21.91,264.297,37.418,387.873c10.849,22.598,32.76,73.63,4.284,92.59c-2.507,1.669-8.936,19.87-10.038,23.727
			c-1,4-5,7-6,11c-6.724,26.892-36.371,40.253-31.715,71.937c6.591,44.839,38.142,82.592,39.76,128.875
			c1.526,43.637-32.706,82.405-29.821,126.138c3.54,53.655,62.456,58.419,103.896,63.047c29.34,3.276,58.296,9.438,86.912,16.591
			c23.988,5.996,45.773,12.466,70.751,11.505c28.61-1.101,58.418-1.461,86.761-5.573c17.039-2.472,43.64-5.708,57.456-19.519
			c0.639-0.639,1.288-1.268,1.94-1.895C1151.817,3369.12,1144.504,3359.729,1104.197,3344.375z"/>
	</g>
	<g>
		<path fill="#BA7C29" d="M533.024,701.976c12-73.496,22.104-184.232,19.499-205.489c59.336,2.441,279.478-4.554,317.984,0
			c-5.584,70.265,20.031,202.488,31.499,244.488C835.18,687.292,592.369,719.565,533.024,701.976z"/>
		<path fill="#E9BD40" d="M724.438,789.933c-69.726,0-138.082-40.419-172.921-76.955c3.22-24.675,2.521-56.909,6.684-87.687
			c5.586-41.288,5.111-103.022,4.17-126c82.499,3.448,238.854,36.144,294.52,40.612c-4.083,63.938,19.206,140.499,25.728,181.71
			C839.962,754.192,786.888,789.933,724.438,789.933z"/>
		<path fill="#F6D973" d="M882.617,721.613c-6.521-41.211-29.81-117.772-25.728-181.71c-22.081-1.771-43.814-11.153-92.897-13.603
			c0.004,0.139,0.007,0.28,0.011,0.419c1.042,27.48-1.039,58.257-12.492,85.739c-9.37,23.083-16.659,52.761-37.481,62.654
			c-33.317,17.588-80.167-9.894-119.731-20.886c-17.699,26.382-5.205,61.556,8.457,73.822
			c26.03,27.481,65.979,37.242,112.425,37.242C777.629,765.291,839.18,771.292,882.617,721.613z"/>
	</g>
	<g>
		<path fill="#BA7C29" d="M758.596,2071.993c-0.226,0-0.452-0.003-0.682-0.015c-3.902-0.187-7.514-1.96-10.159-4.995
			c-2.644-3.035-4.002-6.967-3.825-11.076c7.08-164.335-1.862-431.261-7.779-607.891c-2.691-80.334-4.817-143.756-4.817-176.325
			c0-25.747-2.421-70.342-5.488-126.801c-3.426-63.067-7.683-141.475-9.865-220.193c-0.212-7.613-0.512-17.394-0.843-28.21
			c-1.028-33.5-2.307-75.193-2.307-95.892V620.882c0-8.486,6.583-15.389,14.675-15.389c8.093,0,14.675,6.902,14.675,15.388v179.712
			c0,20.182,1.272,61.585,2.293,94.852c0.332,10.902,0.633,20.717,0.846,28.356c2.17,78.32,6.416,156.481,9.827,219.287
			c3.093,56.973,5.537,101.972,5.537,128.602c0,32.016,2.117,95.206,4.798,175.208c5.934,177.125,14.903,444.799,7.767,610.398
			C772.896,2065.537,766.459,2071.993,758.596,2071.993z"/>
		<path fill="#FFFFFF" d="M758.596,2065.396c-0.127,0-0.255-0.003-0.384-0.009c-4.627-0.217-8.208-4.33-7.999-9.181
			c7.092-164.614-1.856-431.713-7.777-608.46c-2.689-80.242-4.812-143.623-4.812-176.056c0-25.942-2.428-70.639-5.5-127.228
			c-3.42-62.964-7.676-141.326-9.855-219.958c-0.212-7.619-0.513-17.406-0.844-28.23c-1.027-33.459-2.304-75.099-2.304-95.681
			V620.882c0-4.857,3.754-8.794,8.386-8.794c4.632,0,8.386,3.937,8.386,8.794v179.711c0,20.298,1.273,61.782,2.296,95.114
			c0.333,10.845,0.634,20.653,0.845,28.285c2.173,78.388,6.421,156.615,9.834,219.471c3.088,56.868,5.528,101.785,5.528,128.227
			c0,32.124,2.119,95.369,4.801,175.438c5.931,177.027,14.894,444.553,7.77,609.871
			C766.764,2061.719,763.054,2065.396,758.596,2065.396z"/>
	</g>
</g>
<g>
	<g>
		<path fill="#5D371F" d="M447.455,1414.056c-9.523,0-40.015,2.964-69.851,4.369c-109.935,5.161-208.776,15.873-247.667,0.791
			c-28.752-11.149-49.554-28.868-61.126-39.69c-26.241-24.531-37.387-44.386-33.905-66.684
			c3.713-23.807,51.762-108.353,136.333-88.706c44.224,0.747,110.924,31.547,110.924,31.547s68.168,13.104,135.217,15.726
			C423.27,1304.443,447.073,1366,447.455,1414.056z"/>
		<linearGradient id="SVGID_9_" gradientUnits="userSpaceOnUse" x1="242.1831" y1="1590.5181" x2="232.5159" y2="1284.3855">
			<stop  offset="6.030000e-006" style="stop-color:#895839"/>
			<stop  offset="0.2364" style="stop-color:#91613F"/>
			<stop  offset="1" style="stop-color:#A87A50"/>
		</linearGradient>
		<path fill="url(#SVGID_9_)" d="M140.252,1409.681c-23.943-7.252-52.641-31.491-63.21-41.47
			c-23.27-21.933-30.951-37.229-28.072-53.779c2.158-12.403,35.209-92.702,118.55-94.464c40.324,0.8,107.638,44.046,108.176,44.349
			c0,0,46.419,13.408,131.891,17.431c4.13,24.684,12.277,77.904,13.989,121.854c-1.729,0.246-15.338-0.142-53.497,2.917
			C274.54,1413.994,181.033,1420.996,140.252,1409.681z"/>
	</g>
	<g>
		<path fill="#5D371F" d="M383.705,1277.506c6.107-13.081,14.103-37.267,20.288-44.443c3.631-4.185,32.272-34.719,37.513-44.647
			c5.489-9.279,11.5-31.912,14.881-58.347c4.697-17.44,48.494,0.777,48.82,37.503c0.334,37.664-15.293,68.203-23.816,87.523
			C472.127,1257.964,390.467,1274.979,383.705,1277.506z"/>
		
			<linearGradient id="SVGID_10_" gradientUnits="userSpaceOnUse" x1="359.6475" y1="1465.2124" x2="408.4912" y2="1481.0867" gradientTransform="matrix(0.9986 0.053 -0.053 0.9986 139.0039 -289.4004)">
			<stop  offset="6.030000e-006" style="stop-color:#895839"/>
			<stop  offset="0.2364" style="stop-color:#91613F"/>
			<stop  offset="1" style="stop-color:#A87A50"/>
		</linearGradient>
		<path fill="url(#SVGID_10_)" d="M400.029,1261.6c4.182-10.878,11.672-21.842,15.735-27.646
			c2.076-2.954,11.503-13.653,17.601-20.059c6.593-6.945,12.11-13.454,13.887-16.025c7.553-10.916,14.882-35.269,16.797-60.027
			c6.207-7.337,27.668,5.482,30.225,26.648c2.317,19.253-4.685,47.028-12.919,66.362c0,0,15.247,0.748,15.86,5.108
			C495.112,1236.529,422.955,1255.995,400.029,1261.6z"/>
	</g>
	<g>
		<path fill="#5D371F" d="M359.341,1267.593c15.473-10.33,45.25-31.751,45.25-31.751s7.941-2.372,14.034-5.264
			c14.413-6.798,25.158-5.866,41.048-9.028c33.355,3.295,52.424-4.488,88.332,3.707c14.735,44.997,11.423,91.201,11.973,159.618
			c0.127,16.238-2.117,37.001-6.552,43.464c-20.631,14.292-72.509,17.416-91.68,15.485c-24.721-3.655-89.314-21.19-100.02-26.198
			C379.586,1405.714,402.341,1331.783,359.341,1267.593z"/>
		<linearGradient id="SVGID_11_" gradientUnits="userSpaceOnUse" x1="575.0415" y1="1331.9155" x2="334.5118" y2="1317.0883">
			<stop  offset="6.030000e-006" style="stop-color:#895839"/>
			<stop  offset="0.2364" style="stop-color:#91613F"/>
			<stop  offset="1" style="stop-color:#A87A50"/>
		</linearGradient>
		<path fill="url(#SVGID_11_)" d="M466.509,1431.912c-38.103-6.344-80.243-18.652-96.837-24.598
			c-15.087-14.288-30.17-94.474-6.356-128.605c19.665-15.566,86.41-60.724,95.472-60.648c33.936,2.917,62.76,4.484,95.247,11.878
			c5.233,49.907-5.208,167.993-20.091,193.376C527.459,1427.117,494.153,1430.776,466.509,1431.912z"/>
		
			<linearGradient id="SVGID_12_" gradientUnits="userSpaceOnUse" x1="515.5522" y1="1578.4316" x2="371.1996" y2="1605.9279" gradientTransform="matrix(0.9986 0.053 -0.053 0.9986 139.0039 -289.4004)">
			<stop  offset="6.030000e-006" style="stop-color:#895839"/>
			<stop  offset="0.2364" style="stop-color:#91613F"/>
			<stop  offset="1" style="stop-color:#A87A50"/>
		</linearGradient>
		<path fill="url(#SVGID_12_)" d="M554.034,1229.938c-32.487-7.394-48.792-6.467-82.721-9.383c-0.175,0-12.5,4.9-12.688,4.914
			c-5.998,55.719,1.535,98.496,6.297,167.155c-3.174,13.09-6.351,29.772,0.396,39.288c9.329,1.435,64.949-0.965,80.613-14.533
			c1.261-8.715,1.537-13.483,1.331-25.252C546.618,1355.486,559.029,1277.511,554.034,1229.938z"/>
		<path fill="#5D371F" d="M474.907,1274.979c5.367,2.178,72.843-5.208,83.464-4.351c5.541,1.719,18.082,9.671,21.651,14.226
			c4.372,11.703,1.389,33.943-3.375,49.419c-2.027,2.774-5.356,5.96-5.356,5.96s4.355,3.209,4.166,6.542
			c-0.106,16.251-6.289,42.408-13.69,45.849c-25.751,6.646-65.953,5.879-78.387,3.972
			C478.417,1387.867,475.484,1290.298,474.907,1274.979z"/>
		
			<linearGradient id="SVGID_13_" gradientUnits="userSpaceOnUse" x1="578.8101" y1="1603.3721" x2="373.1638" y2="1607.4043" gradientTransform="matrix(0.9986 0.053 -0.053 0.9986 139.0039 -289.4004)">
			<stop  offset="6.030000e-006" style="stop-color:#895839"/>
			<stop  offset="0.2364" style="stop-color:#91613F"/>
			<stop  offset="1" style="stop-color:#A87A50"/>
		</linearGradient>
		<path fill="url(#SVGID_13_)" d="M467.309,1394.608c0.791-22.231-1.892-36.376-2.386-51.602
			c-1.437-20.792-3.97-42.071-7.142-64.297c7.496,0.388,17.099,5.344,17.099,5.344s41.386,0.971,60.691,1.804
			c5.655,2.594,25.562-0.028,29.711,1.373c5.975,11.059,6.408,32.362-0.736,46.645c-4.682,2.419-15.274,4.81-15.274,4.81
			s6.147,2.22,12.361,3.186c2.497,11.589,2.014,34.464-6.02,43.61C536.406,1392.781,478.505,1396.142,467.309,1394.608z"/>
		<path fill="#5D371F" d="M481.986,1342.614c-3.171,0.393-0.894,2.982,0.895,3.863c23.812,0,59.536,0.899,81.282-4.966
			c1.218-2.32,3.143-5.889,4.066-8.394C540.629,1341.719,506.992,1342.614,481.986,1342.614z"/>
		<path fill="#B0683A" d="M479.009,1283.15c-1.55-0.398-6.706-3.527-7.956-3.589c-0.972,4.707-0.497,10.23,0.516,17.204
			C473.354,1290.217,475.736,1284.854,479.009,1283.15z"/>
		<path fill="#5D371F" d="M456.982,1218.387c19.052-4.961,73.822-4.961,92.486-2.386c12.297,3.371,22.117,7.542,24.202,9.923
			c6.328,10.443,10.418,38.397,2.083,56.865c-8.337,6.534-19.021,10.411-26.196,10.411c-6.104,0-68.89-5.975-78.668-7.759
			C463.202,1277.085,444.524,1253.77,456.982,1218.387z"/>
		<linearGradient id="SVGID_14_" gradientUnits="userSpaceOnUse" x1="578.9136" y1="1257.0356" x2="467.4599" y2="1252.877">
			<stop  offset="6.030000e-006" style="stop-color:#895839"/>
			<stop  offset="0.2364" style="stop-color:#91613F"/>
			<stop  offset="1" style="stop-color:#A87A50"/>
		</linearGradient>
		<path fill="url(#SVGID_14_)" d="M550.654,1285.062c0,0-70.156,0.985-90.099-2.878c-7.879-15.097-13.775-39.354-0.599-56.856
			c19.452-1.785,72.971-1.453,88.048-0.071c6.744,2.191,11.08,3.934,17.332,6.613c3.543,12.375,4.982,39.852,0.594,47.038
			C560.572,1282.492,550.654,1285.062,550.654,1285.062z"/>
		<linearGradient id="SVGID_15_" gradientUnits="userSpaceOnUse" x1="589.656" y1="1257.4473" x2="557.2676" y2="1255.5615">
			<stop  offset="6.030000e-006" style="stop-color:#895839"/>
			<stop  offset="0.2364" style="stop-color:#91613F"/>
			<stop  offset="1" style="stop-color:#A87A50"/>
		</linearGradient>
		<path fill="url(#SVGID_15_)" d="M565.336,1231.87c-6.343-3.968-16.848-6.703-17.061-6.741c7.738,11.111,8.531,44.06,1.983,59.933
			c4.289-0.407,10.313-2.57,15.672-6.154C570.319,1271.722,568.88,1244.245,565.336,1231.87z"/>
	</g>
</g>
<g>
	<path d="M517.828,362.745c0.159-7.489-8.845-27.557-10.874-35.136c-2.776-6.25-0.516-13.947-1.212-22.629
		c-2.492-2.311-5.991-4.555-8.483-6.865c-2.027-8.521,5.818-7.489,2.423-15.755c-2.759-2.438-8.804-3.418-8.84-10.897
		c-0.31-7.792,2.391-18.217,4.762-21.436c-0.62-4.483-4.297-9.27-4.811-13.719c-0.83-7.249,12.494-9.762,0.81-17.374
		c-6.289-4.09-8.597-8.204-8.483-14.94c0.062-4.507,7.92-6.803,6.931-11.116c-3.295-14.335,9.348-16.228,5.59-25.242
		c-6.059-14.542,2.022-17.374,13.461-23.973c7.612-4.388-7.399-4.308,1.084-11.579c-2.423-6.865,2.221-13.871,5.655-16.56
		c4.249-0.819,5.011-3.343,9.29-4.043c2.514-3.811-4.83-8.36-2.198-12.053c2.821-3.948,14.533-3.039,18.683-7.991
		c3.051-1.156,0.395-5.629,3.512-6.619c3.262-3.521,1.472-7.654,4.848-10.906c4.308,0.313,7.927,1.704,11.513,4.241
		c10.278,4.743-0.973-8.9,3.716-12.186c4.474-3.144,11.313-0.976,17.256-5.018c3.394-2.315,1.219-11.788,4.884-11.679
		c13.331,0.403,8.887-8.081,17.372-12.521c10.211-5.35,14.234,3.977,21.814,2.016c4.389-1.126,8.147-5.065,9.691-9.288
		c3.05-8.38,11.722-1.619,21.009-0.81c6.083,0.53,7.75-4.198,15.756-5.25c8.833-1.165,4.545,6.097,11.313,6.06
		c6.478-0.047,5.048-7.632,14.946-3.636c2.254,0.909,17.492-1.264,19.793-1.212c10.553,0.237,8.188,7.735,14.141,8.076
		c5.964,0.351,12.269-2.466,15.952-2.054c3.924,0.454,6.907,7.777,12.731,8.918c4.538,0.89,8.966-8.374,13.33-7.271
		c2.034,3.645,2.827,6.466,6.495,6.779c8.536,2.737,7.881-3.162,17.742,1.704c6.729,3.333,21.291,10.463,23.831,19.656
		c3.576,12.99,16.608-2.679,23.89,1.363c8.513,4.734,12.355,22.828,23.924,19.94c13.684-3.418,3.278,12.066,13.73,18.832
		c7.703,4.98,10.794,17.1,10.873,16.891c-4.671,11.859,5.943,8.787,8.783,15.429c5.785,13.345-8.484,17.573,7.271,25.852
		c7.681,4.034-7.575,3.234-0.909,12.726c2.686,3.825,6.07,4.156,6.666,8.786c-4.951,3.636,3.836,8.181,2.122,14.241
		c-1.516,3.636-3.94,2.727-3.94,9.695c1.213,6.06,4.508,2.31,7.424,5.15c-1.429,3.02-4.961,7.04-6.512,9.999
		c0.018,15.357-5.616,14.893-3.438,28.295c0.454,2.77,5.784,10.449,6.467,12.91c3.03,10.908-7.783,21.077-9.089,29.692
		c-1.11,7.248-5.406,17.388-6.061,22.421c-1.62,12.379-1.634,22.302-8.783,34.208c-2.152,3.603-2.739,22.624-3.17,23.822
		c-3.395,1.695-359.315,43.354-361.453,42.209C523.762,408.978,517.781,364.975,517.828,362.745z"/>
	<path fill="#5D371F" d="M899.339,397.379c-8.88,38.667-29.918,67.03-46.998,63.375c-17.095-3.669-23.765-37.981-14.888-76.668
		c8.865-38.658,29.914-67.03,46.984-63.37C901.537,324.376,908.203,358.703,899.339,397.379z"/>
	<linearGradient id="SVGID_16_" gradientUnits="userSpaceOnUse" x1="838.8657" y1="394.686" x2="893.8979" y2="394.686">
		<stop  offset="6.030000e-006" style="stop-color:#895839"/>
		<stop  offset="0.2364" style="stop-color:#91613F"/>
		<stop  offset="1" style="stop-color:#A87A50"/>
	</linearGradient>
	<path fill="url(#SVGID_16_)" d="M852.398,457.038c9.889,0.294,28.991-21.45,37.636-57.5c4.223-17.583,5.026-35.345,2.205-48.705
		c-2.622-12.459-7.518-17.695-10.896-18.396c-0.321-0.067-0.645-0.095-0.947-0.104c-9.875-0.289-28.981,21.46-37.637,57.5
		c-4.279,17.848-5.055,35.146-2.205,48.704c2.628,12.469,7.518,17.705,10.907,18.405C851.768,457,852.085,457.028,852.398,457.038
		L852.398,457.038z"/>
	<path fill="#5D371F" d="M849.467,389.057c-4.379,19.509-0.478,36.963,8.725,38.971c9.186,1.993,20.205-12.195,24.579-31.728
		c4.383-19.504,0.475-36.972-8.733-38.971C864.858,355.317,853.842,369.524,849.467,389.057z"/>
	<path fill="#5D371F" d="M505.811,401.442c7.802,38.61,28.056,67.336,45.239,64.202c17.189-3.143,24.785-36.972,16.996-75.574
		c-7.807-38.582-28.059-67.332-45.236-64.18C505.621,329.025,498.017,362.859,505.811,401.442z"/>
	<linearGradient id="SVGID_17_" gradientUnits="userSpaceOnUse" x1="533.9766" y1="399.0762" x2="467.9269" y2="389.9868">
		<stop  offset="0" style="stop-color:#895636"/>
		<stop  offset="0.9952" style="stop-color:#916041"/>
	</linearGradient>
	<path fill="url(#SVGID_17_)" d="M551.097,461.961c-9.889,0-28.386-22.108-36.05-58.096c-3.728-17.544-4.046-35.174-0.859-48.344
		c2.963-12.29,7.993-17.326,11.399-17.923c0.314-0.058,0.634-0.076,0.937-0.076c9.892,0,28.383,22.099,36.048,58.097
		c3.789,17.81,4.095,34.985,0.873,48.344c-2.975,12.28-8.007,17.335-11.421,17.923C551.717,461.948,551.411,461.961,551.097,461.961
		L551.097,461.961z"/>
	<path fill="#5D371F" d="M555.897,394.639c3.844,19.471-0.55,36.656-9.807,38.388c-9.238,1.723-19.853-12.668-23.696-32.163
		c-3.839-19.471,0.552-36.67,9.804-38.384C541.439,360.756,552.051,375.148,555.897,394.639z"/>
	<g>
		<g>
			<path fill="#5D371F" d="M882.734,261.787c-2.982-107.633-62.68-183.928-167.175-186.739
				c-91.759-2.461-188.734,50.829-193.524,166.582c-0.718,17.232,3.366,27.344,10.924,93.375
				c3.191,27.913-11.062,78.145,4.89,128.217c19.944,54.191,38.401,91.443,74.547,140.251
				c19.387,26.179,52.781,48.558,93.445,49.717c35.022,1.003,71.84-21.432,101.803-61.315c46.309-73.227,56.254-102.01,65.3-153.8
				c12.187-58.835,1.289-66.864,5.28-104.627C879.828,303.892,883.528,290.522,882.734,261.787z"/>
			<linearGradient id="SVGID_18_" gradientUnits="userSpaceOnUse" x1="617.0791" y1="369.5479" x2="503.9659" y2="379.2433">
				<stop  offset="0" style="stop-color:#895636"/>
				<stop  offset="0.9952" style="stop-color:#916041"/>
			</linearGradient>
			<path fill="url(#SVGID_18_)" d="M706.437,641.879c-28.253,0-59.232-13.062-77.193-34.725
				c-35.015-42.227-59.377-87.646-79.347-137.723c-12.048-30.222-11.641-65.178-11.292-84.455
				c0.184-9.932,0.088-20.508-1.044-30.402c-6.112-53.495-8.773-91.381-7.888-112.585c4.299-103.908,95.813-159.974,179.738-159.974
				c1.676,0,3.351,0.01,5.018,0.063c93.138,2.509,160.228,77.628,163.155,182.691c0.407,14.865-1.572,27.221-3.674,40.277
				c-1.732,10.747-3.519,21.844-4.262,35.269c-1.723,16.617,1.041,26.056,0.872,37.683c-0.229,14.392-0.07,23.584-6.875,56.429
				c-7.355,42.105-20.555,93.839-77.23,166.369C766.565,626.205,736.944,641.879,706.437,641.879z"/>
			<linearGradient id="SVGID_19_" gradientUnits="userSpaceOnUse" x1="395.0552" y1="343.688" x2="681.8005" y2="356.2047">
				<stop  offset="6.030000e-006" style="stop-color:#895839"/>
				<stop  offset="0.2364" style="stop-color:#91613F"/>
				<stop  offset="1" style="stop-color:#A87A50"/>
			</linearGradient>
			<path fill="url(#SVGID_19_)" d="M873.91,305.046c2.102-13.056,4.081-25.413,3.674-40.277
				c-2.927-105.063-70.017-180.183-163.155-182.691c-1.667-0.053-3.343-0.063-5.018-0.063c-32.23,0,17.8,38.692-5.52,77.336
				c-21.209,35.146-75.139,23.026-87.258,33.328c-15.282,12.99-27.056,26.075-36.358,38.176
				c-4.242,9.089-10.301,61.201,4.848,79.986c-4.848,24.238-14.093,38.213-18.598,63.729c-4.76,19.041-9.522,58.74,0,88.109
				c17.473,54.765,35.72,77.791,59.537,120.662c28.737,53.362,100.017,60.327,134.95,37.305c11.906-7.935,15.083-10.33,25.403-19.85
				c56.676-72.53,69.875-124.264,77.23-166.369c6.805-32.845,6.646-42.038,6.875-56.429c0.169-11.627-2.595-21.066-0.872-37.683
				C870.391,326.89,872.177,315.793,873.91,305.046z"/>
		</g>
		<g>
			<linearGradient id="SVGID_20_" gradientUnits="userSpaceOnUse" x1="710.5078" y1="513.9053" x2="706.0962" y2="285.2897">
				<stop  offset="0" style="stop-color:#895636"/>
				<stop  offset="0.9952" style="stop-color:#916041"/>
			</linearGradient>
			<path fill="url(#SVGID_20_)" d="M839.198,320.981c-42.269-15.47-44.65-9.529-73.822-4.767
				c-8.396,5.316-21.961,7.919-30.364,10.125c-14.885,2.979-32.741,8.929-55.966-2.973c-15.484-1.988-43.302-9.311-59.328-12.298
				c-24.633-4.327-12.828-4.517-24.021-3.186c-7.438,2.566-14.288,0.601-25.597,9.53c-6.456,15.604-9.229,26.193,9.522,35.126
				c10.979-1.325,27.91-19.258,71.79,2.002c0.298,5.094-47.525,32.964-47.525,32.964s46.223,13.904,79.731-5.397
				c-0.597,20.527,3.256,38.441,0.862,63.057c-6.241,10.416-28.916,23.86-18.155,34.493c2.248,2.32,8.211,1.975,10.788,2.415
				c4.732,0.886,0.01-6.196,9.9-4.426c14.026,2.513,10.13,10.557,25.81,8.413c6.457-0.891,9.046-0.891,14.205-3.101
				c7.073-3.03,12.593-3.461,16.769-1.076c1.95,0.375,6.693-1.94,8.778-4.023c3.302-10.235-6.666-9.25-14.288-7.594
				c-13.118,2.888-16.56,2.604-27.61,2.954c-6.032,0.185-17.398-3.583-19.126-7.56c-1.713-9.302,5.539-48.836,5.951-55.966
				c0.606-10.263-1.028-32.125-0.597-38.104c2.794-16.413,29.772-13.989,29.772-0.592c0,5.421,1.193,14.884,1.193,14.884
				c47.757,16.593,79.187,0.956,107.757-23.221C842.101,355.995,859.802,330.468,839.198,320.981z"/>
			<g>
				<path fill="#5D371F" d="M679.397,477.697c3.616-3.162,16.143-1.349,19.429,0.672c3.364,2.102,7.21,4.767,13.71,4.881
					c3.077,0.076,10.419-2.935,13.562-4.682c3.366-1.856,15.523-4.223,17.399,0.345c-4.727-2.939-14.326,1.718-17.21,3.598
					c-3.653,2.372-8.484,6.283-13.221,6.633c-6.407,0.487-12.36-4.242-15.917-6.808
					C693.887,479.994,684.357,476.627,679.397,477.697z"/>
				<path fill="#5D371F" d="M686.043,481.797c-30.979,4.649-18.938-14.609-0.862-22.572
					C671.84,471.174,666.36,481.797,686.043,481.797z"/>
				<path fill="#5D371F" d="M739.505,482.763c14.983-4.279,12.408-15.405,0.431-23.973
					C754.489,466.071,765.186,481.489,739.505,482.763z"/>
			</g>
		</g>
	</g>
	<g>
		
			<linearGradient id="SVGID_21_" gradientUnits="userSpaceOnUse" x1="690.3059" y1="201.2915" x2="690.5495" y2="229.061" gradientTransform="matrix(0.9995 -0.033 0.033 0.9995 -72.3804 185.8899)">
			<stop  offset="0" style="stop-color:#CED5D8"/>
			<stop  offset="1" style="stop-color:#FFFFFF"/>
		</linearGradient>
		<path fill="url(#SVGID_21_)" d="M583.244,353.244c26.809-11.276,69.065,0.497,82.603,7.684
			c6.052,13.937,3.424,16.072,3.702,22.165c-10.887,6.429-63.313,14.131-87.08-3.229c-2.354-3.324-3.111-7.646-3.111-7.646
			S581.709,359.601,583.244,353.244z"/>
		
			<linearGradient id="SVGID_22_" gradientUnits="userSpaceOnUse" x1="692.7915" y1="185.5137" x2="692.2764" y2="209.9842" gradientTransform="matrix(0.9995 -0.033 0.033 0.9995 -72.3804 185.8899)">
			<stop  offset="0" style="stop-color:#CED5D8"/>
			<stop  offset="1" style="stop-color:#FFFFFF"/>
		</linearGradient>
		<path fill="url(#SVGID_22_)" d="M603.32,358.209c-11.417,4.247-23.358,16.267-9.575,28.04c28.634,9.53,57.024,4.076,71.828-1.273
			C662.552,353.755,630.613,349.357,603.32,358.209z"/>
		<g>
			<path fill="#321908" d="M605.28,370.661c0.389,12.053,10.216,21.53,21.961,21.123c11.726-0.403,20.934-10.5,20.541-22.563
				c-0.379-12.071-10.226-21.541-21.942-21.142C614.09,348.486,604.896,358.598,605.28,370.661z"/>
			
				<linearGradient id="SVGID_23_" gradientUnits="userSpaceOnUse" x1="692.427" y1="186.3984" x2="692.427" y2="219.91" gradientTransform="matrix(0.9995 -0.033 0.033 0.9995 -72.3804 185.8899)">
				<stop  offset="0" style="stop-color:#42210B"/>
				<stop  offset="0.9984" style="stop-color:#94561D"/>
			</linearGradient>
			<path fill="url(#SVGID_23_)" d="M606.871,370.603c0.36,11.164,9.449,19.903,20.318,19.543
				c10.856-0.375,19.358-9.714,19.003-20.887c-0.355-11.144-9.454-19.902-20.299-19.542
				C615.033,350.091,606.521,359.44,606.871,370.603z"/>
			
				<linearGradient id="SVGID_24_" gradientUnits="userSpaceOnUse" x1="693.397" y1="188.6807" x2="693.397" y2="221.336" gradientTransform="matrix(0.9995 -0.033 0.033 0.9995 -72.3804 185.8899)">
				<stop  offset="0" style="stop-color:#42210B"/>
				<stop  offset="0.9815" style="stop-color:#C46C1B"/>
			</linearGradient>
			<path fill="url(#SVGID_24_)" d="M630.035,365.737c-15.386-8.275-24.025,6.305-20.086,14.917
				c3.611,5.884,9.993,9.738,17.241,9.492c10.856-0.375,19.358-9.714,19.003-20.887c-0.019-0.455-0.123-0.866-0.18-1.316
				C645.265,374.978,632.284,383.968,630.035,365.737z"/>
			<path fill="#211106" d="M617.069,370.263c0.179,5.359,4.544,9.577,9.78,9.392c5.216-0.179,9.316-4.677,9.146-10.045
				c-0.17-5.368-4.544-9.591-9.767-9.412C620.993,360.396,616.903,364.885,617.069,370.263z"/>
			<path fill="#FFFFFF" d="M601.224,364.303c0.113,3.83,3.251,6.85,6.983,6.718c3.73-0.133,6.656-3.333,6.532-7.177
				c-0.118-3.844-3.257-6.864-6.973-6.736C604.026,357.245,601.093,360.463,601.224,364.303z"/>
		</g>
		<path d="M670.06,361.571c-4.175-3.542-8.294-6.315-13.283-8.673c-22.378-9.302-38.866-9.278-60.759-5.5
			c-8.263,1.012-14.905,2.622-19.437,2.211c-0.341,5.074,1.28,8.705,3.398,11.091c-1.228,5.302-2.357,11.063-2.279,15.641
			c1.686,2.808,2.511,4.436,10.576,7.612c-3.631-3.049-6.921-6.079-7.366-8.091c-0.505-5.405,6.808-15.896,13.624-18.713
			c26.123-8.261,51.606-0.98,59.839,2.821c4.88,2.349,9.495,6.079,10.718,8.161c2.092,3.716,3.825,12.739,4.516,17.308
			C671.263,379.068,671.84,367.256,670.06,361.571z"/>
	</g>
	<g>
		
			<linearGradient id="SVGID_25_" gradientUnits="userSpaceOnUse" x1="10504.2656" y1="525.3145" x2="10504.5088" y2="553.0837" gradientTransform="matrix(-0.9995 -0.033 -0.033 0.9995 11303.7422 185.8899)">
			<stop  offset="0" style="stop-color:#CED5D8"/>
			<stop  offset="1" style="stop-color:#FFFFFF"/>
		</linearGradient>
		<path fill="url(#SVGID_25_)" d="M828.372,353.244c-26.808-11.276-69.066,0.497-82.609,7.684
			c-6.046,13.937-3.419,16.072-3.701,22.165c10.893,6.429,63.317,14.131,87.082-3.229c2.353-3.324,3.116-7.646,3.116-7.646
			S829.896,359.601,828.372,353.244z"/>
		
			<linearGradient id="SVGID_26_" gradientUnits="userSpaceOnUse" x1="10506.752" y1="509.5366" x2="10506.2363" y2="534.0071" gradientTransform="matrix(-0.9995 -0.033 -0.033 0.9995 11303.7422 185.8899)">
			<stop  offset="0" style="stop-color:#CED5D8"/>
			<stop  offset="1" style="stop-color:#FFFFFF"/>
		</linearGradient>
		<path fill="url(#SVGID_26_)" d="M808.295,358.209c11.414,4.247,23.357,16.267,9.581,28.04c-28.641,9.53-57.03,4.076-71.834-1.273
			C749.063,353.755,780.989,349.357,808.295,358.209z"/>
		<g>
			<path fill="#321908" d="M806.327,370.661c-0.384,12.053-10.206,21.53-21.957,21.123c-11.718-0.403-20.934-10.5-20.536-22.563
				c0.378-12.071,10.219-21.541,21.941-21.142C797.516,348.486,806.714,358.598,806.327,370.661z"/>
			
				<linearGradient id="SVGID_27_" gradientUnits="userSpaceOnUse" x1="10506.3867" y1="510.4209" x2="10506.3867" y2="543.9329" gradientTransform="matrix(-0.9995 -0.033 -0.033 0.9995 11303.7422 185.8899)">
				<stop  offset="0" style="stop-color:#42210B"/>
				<stop  offset="0.9984" style="stop-color:#94561D"/>
			</linearGradient>
			<path fill="url(#SVGID_27_)" d="M804.746,370.603c-0.364,11.164-9.454,19.903-20.319,19.543
				c-10.85-0.375-19.358-9.714-19.002-20.887c0.349-11.144,9.448-19.902,20.298-19.542
				C796.584,350.091,805.094,359.44,804.746,370.603z"/>
			
				<linearGradient id="SVGID_28_" gradientUnits="userSpaceOnUse" x1="10507.3574" y1="512.7036" x2="10507.3574" y2="545.3589" gradientTransform="matrix(-0.9995 -0.033 -0.033 0.9995 11303.7422 185.8899)">
				<stop  offset="0" style="stop-color:#42210B"/>
				<stop  offset="0.9815" style="stop-color:#C46C1B"/>
			</linearGradient>
			<path fill="url(#SVGID_28_)" d="M781.572,365.737c15.396-8.275,24.036,6.305,20.091,14.917
				c-3.603,5.884-9.987,9.738-17.236,9.492c-10.85-0.375-19.358-9.714-19.002-20.887c0.018-0.455,0.127-0.866,0.17-1.316
				C766.352,374.978,779.332,383.968,781.572,365.737z"/>
			<path fill="#211106" d="M794.54,370.263c-0.173,5.359-4.537,9.577-9.772,9.392c-5.221-0.179-9.317-4.677-9.146-10.045
				c0.17-5.368,4.546-9.591,9.766-9.412C790.618,360.396,794.718,364.885,794.54,370.263z"/>
			<path fill="#FFFFFF" d="M810.402,364.303c-0.137,3.83-3.257,6.85-6.997,6.718c-3.721-0.133-6.664-3.333-6.528-7.177
				c0.122-3.844,3.258-6.864,6.975-6.736C807.59,357.245,810.52,360.463,810.402,364.303z"/>
		</g>
		<path d="M835.034,349.609c-4.535,0.411-11.182-1.203-19.452-2.211c-21.887-3.778-38.375-3.797-60.744,5.5
			c-4.985,2.357-9.106,5.131-13.287,8.673c-1.775,5.685-1.199,17.497,0.459,23.869c0.677-4.569,2.423-13.592,4.518-17.308
			c1.221-2.083,5.831-5.813,10.717-8.161c8.227-3.801,33.71-11.083,59.838-2.821c6.817,2.816,14.137,13.308,13.624,18.713
			c-0.448,2.012-3.734,5.042-7.366,8.091c8.068-3.177,8.891-4.805,10.577-7.612c0.076-4.578-1.051-10.339-2.283-15.641
			C833.75,358.314,835.369,354.683,835.034,349.609z"/>
	</g>
	<path d="M678.456,318.6c-33.939-0.592-86.329-29.167-118.449,1.088c-1.124,1.066-1.73,4.867,0.885,3.745
		c22.112-9.573,39.958-8.408,63.335-4.876c17.076,2.566,38.923,14.306,56.013,11.352C684.926,329.11,685.341,318.728,678.456,318.6z
		"/>
	<path d="M731.669,319.485c35.563,0.378,84.675-26.738,115.852,3.692c1.085,1.051,1.688,4.748-0.861,3.641
		c-21.573-9.341-38.999-8.194-61.799-4.754c-16.658,2.505-36.148,11.324-52.823,8.446
		C727.47,329.721,724.944,319.41,731.669,319.485z"/>
	<path fill="#85451B" d="M623.634,517.548c7.31,0.138,14.444-0.625,19.036-1.018c8.99-1.103,34.796-4.738,64.809-4.421
		c31.15,0.326,63.139,4.724,71.485,5.335c7.263-0.057,13.524,1.401,13.524,1.401s-3.796,4-7.138,6.007
		c-5.473,7.873-18.643,25.219-25.371,34.914c-12.962,19.808-76.587,31.245-101.806-2.036c-6.765-7.863-18.003-24.214-24.209-32.21
		C631.299,524.423,629.68,521.592,623.634,517.548z"/>
	<g>
		<path fill="#ADBCC7" d="M713.884,562.494c-16.812,0.919-43.643-6.646-49.997-11.693c-8.951-9.524-19.352-20.053-23.187-24.693
			c28.433,2.334,94.54,2.656,136.957-0.682c-2.708,3.248-17.734,21.361-23.831,26.35
			C744.68,557.581,727.248,561.746,713.884,562.494z"/>
		<linearGradient id="SVGID_29_" gradientUnits="userSpaceOnUse" x1="641.5618" y1="546.1772" x2="762.0276" y2="546.1772">
			<stop  offset="0.0306" style="stop-color:#C5D3D9"/>
			<stop  offset="0.153" style="stop-color:#C5D3D9"/>
			<stop  offset="0.1924" style="stop-color:#D0DBE0"/>
			<stop  offset="0.308" style="stop-color:#EAEFF1"/>
			<stop  offset="0.4118" style="stop-color:#F9FBFB"/>
			<stop  offset="0.4932" style="stop-color:#FFFFFF"/>
			<stop  offset="0.6822" style="stop-color:#FCFDFE"/>
			<stop  offset="0.8139" style="stop-color:#F3F8FA"/>
			<stop  offset="0.9278" style="stop-color:#E4EFF4"/>
			<stop  offset="0.9537" style="stop-color:#DFECF2"/>
		</linearGradient>
		<path fill="url(#SVGID_29_)" d="M763.718,530.511c0.049-1.335-28.999-0.469-57.025-0.228c-25.204,0.232-49.598-0.289-51.185,1.141
			c0.246,2.821,0.729,4.857,1.378,6.746c4.933,3.636,11.045,6.192,16.966,8.333c-5.779-0.189-11.622-1.903-14.761-2.964
			c0.497,1.146,1.027,2.395,1.597,3.882c1.07,1.137,2.148,2.259,3.199,3.38c6.355,5.046,33.186,12.612,49.997,11.693
			c13.363-0.748,30.796-4.913,39.941-10.718c1.041-0.861,2.352-2.111,3.819-3.593c0.588-1.718,1.123-3.158,1.628-4.479
			c-3.232,1.066-8.658,2.477-13.949,3.148c6.755-2.551,12.397-6.031,16.024-8.436C762.295,535.964,763.072,533.683,763.718,530.511z
			"/>
	</g>
	<path d="M894.256,213.755C888.235,136.278,827.99,47.95,706.001,52.598c-105.354,4.005-166.572,68.336-180.727,134.812
		c-12.053,56.567-1.485,122.086-0.161,139.72c2.398-0.885,4.209-0.941,5.639-0.506c0.312,13.444,4.024,30.184,15.597,49.537
		c-3.97-32.556,3.973-31.368,2.38-52.795c-1.976-21.436,9.125-14.296,5.953-46.44c5.374-11.826,4.029-23.116,2.043-36.286
		c1.455-4.247,3.403-8.688,5.659-12.929c4.587-1.922,8.928-3.768,12.436-5.141c9.547-3.73,33.423-32.542,47.265-39.586
		c21.483-10.926,35.589,5.548,80.035-15.808c7.336,6.467,20.46,10.6,28.631,11.769c9.318,1.331,32.324-6.461,43.63,5.657
		c13.823,14.809,45.958,27.443,57.499,31.704c3.801,9.274,5.843,18.075,12.545,21.73c0.781,0.426,1.657,1.031,2.566,1.718
		c0.676,7.125,2.091,13.393,5.379,18.122c7.138,10.32,16.151,32.457,14.475,41.878c-4.166,23.415,5.359,49.802,6.548,66.475
		c5.164-12.308,5.363-24.3,6.755-37.305c0.184-1.713,0.07-3.409-0.152-5.094c1.213-1.718,3.05-2.85,6.107-2.85
		C886.474,303.352,898.176,264.106,894.256,213.755z"/>
</g>
<path fill="#F3C91F" d="M320.739,882.185c-0.017,0-0.037,0-0.056,0c0.105,1.36,0.21,2.728,0.315,4.1
	C321.1,884.918,321.081,883.55,320.739,882.185z"/>
<g>
	<path fill="#BA7C29" d="M584.022,565.483c-9.415-48.643-20.053-86.974-26.015-111.399c-6.263-25.666-9.144-48.006-6.981-58.868
		c2.331-11.696,7.845-17.179,6.305-46.842c-3.113-59.949,65.977-88.538,151.438-88.312c73.832,0.196,166.243,38.863,160.131,84.626
		c-4.523,33.855-5.378,61.165-6.668,73.163c-1.26,11.729-9.151,33.493-14.235,54.09c-4.241,17.182-15.838,58.871-21.816,91.35
		c10.268-0.609,35.517-32.13,43-42c14.141-18.65,23.513-30.903,28-39c8.768-15.817,9.631-32.849,13.288-50.193
		c3.784-17.948,18.541-92.861,20.996-104.553c4.319-20.572,6.015-96.646,6.539-107.991c0.957-20.709-14.075-82.047-31.711-111.937
		c-12.396-21.66-101.519-76.253-109.814-83.327c-8.374-7.137-61.171-25.551-96.45-24.224C662.777,1.47,591.443,42.919,577.66,53.233
		c-13.574,10.16-58.893,34.142-73.485,64.983c-6.692,14.144-39.471,86.483-31.413,144.886
		c8.615,62.457,16.811,151.354,20.418,167.189c3.503,15.362,15.097,31.608,35,66C535.429,508.815,564.546,559.558,584.022,565.483z"
		/>
	<path fill="#E9BD40" d="M567.864,536.408c-10.438-8.535-19.188-27.816-23.218-35.64c-1.28-2.484-2.496-4.842-3.744-7.038
		c-18.63-32.779-27.552-48.478-30.589-62.406c-3.396-15.578-17.58-105.098-25.563-167.484
		c-6.82-53.279,24.566-121.417,31.341-135.361c10.765-22.145,42.538-43.628,60.055-55.472c3.731-2.525,6.964-4.711,9.373-6.484
		c13.899-10.23,81.975-52.256,114.764-53.456c0.865-0.032,1.739-0.048,2.628-0.052c32.307-0.153,78.38,16.625,85.027,21.721
		c2.135,1.794,7.933,6.099,19.682,14.814c22.673,16.808,80.433,59.637,86.917,68.957c16.354,27.166,31.15,86.077,30.524,103.526
		c-0.072,2.011-0.156,5.858-0.273,11.144c-0.49,22.485-1.713,78.414-4.889,94.316c-1.015,5.078-4.282,22.369-7.941,41.739
		c-4.783,25.314-9.942,52.624-11.981,62.785c-3.33,16.598-7.444,34.969-15.394,49.599c-1.896,3.49-4.837,7.012-9.25,12.293
		c-4.132,4.947-9.213,11.031-15.749,19.787l-1.312,1.763c-2.448,3.296-13.269,18.243-16.198,21.748
		c1.219-8.458,8.192-27.197,9.047-34.219c1.462-12.042,3.051-22.966,5.094-30.972c2.053-8.049,4.643-17.852,7.075-25.882
		c3.766-12.444,5.585-19.385,6.492-27.289c0.462-4.011,4.021-10.789,4.555-17.587c1.105-14.064-0.068-35.741,3.167-58.674
		c3.637-25.792-16.681-46.755-55.826-66.336c-33.867-16.941-71.654-26.041-110.574-26.134c-47.003-0.11-88.762,6.064-117.347,21.819
		c-32.816,18.085-49.572,43.643-47.595,75.527c1.245,20.09-1.043,27.637-3.224,34.835c-0.881,2.912-1.789,5.907-2.462,9.485
		c-3.104,16.462,5.783,46.543,9.845,62.67c3.048,12.11,6.384,24.97,8.728,39.745C560.542,503.594,565.569,523.576,567.864,536.408z"
		/>
	<path fill="#F6D973" d="M911.96,369.232c3.659-19.37,6.926-36.661,7.941-41.739c3.176-15.902,4.399-71.831,4.889-94.316
		c0.117-5.286,0.201-9.133,0.273-11.144c0.626-17.45-14.812-82.154-31.167-109.32c-6.484-9.32-60.818-49.154-83.491-65.962
		c-11.75-8.715-26.147-14.133-30.072-16.383c-6.647-5.096-45.115-17.506-77.422-17.353c-0.889,0.004-1.763,0.02-2.628,0.052
		c-27.793,1.017-81.357,31.619-105.122,46.93c13.437-1.363,29.466-0.422,34.962,15.102c4.417,14.599,0.458,36.726,9.372,44.441
		c21.242,18.171,49.919,43.604,36.04,67.634c-9.003,13.715-7.108,31.554-22.679,40.26c-20.374,11.972-47.783,22.013-68.735,33.527
		c-23.579,16.062-37.525,30.163-42.362,57.428c-3.481,19.619-3.904,35.815-5.239,54.232c-1.049,12.918-3.827,28.71,0.881,40.994
		c1.418,4.25,3.589,8.153,5.806,11.977c-2.614-12.346-4.38-25.054-2.728-33.812c0.673-3.579,1.581-6.574,2.462-9.485
		c2.181-7.198,4.469-14.745,3.224-34.835c-1.977-31.884,14.779-57.442,47.595-75.527c28.585-15.755,70.344-21.929,117.347-21.819
		c38.92,0.093,77.096,4.218,111.098,21.292c18.363,9.222,19.712,13.292,34.333,17.491c8.636-3.526,19.655-15.771,32.042-20.346
		c0.401,10.92-11.114,21.601-6.368,25.735c4.027,1.77,22.086-11.766,23.738-5.808c0.126,8.235-16.971,16.864-27.086,26.518
		c10.597,0.045,20.753-3.317,31.181-2.136c-1.913,4.52-6.562,6.749-9.937,7.857c-5.445,2.611-10.389,5.976-15.084,9.599
		c7.349,52.041-11.659,101.071-29.913,146.517c-1.53,7.346-2.801,16.385-3.987,26.156c-0.855,7.021-7.828,25.761-9.047,34.219
		c2.928-3.504,13.75-18.452,16.198-21.748l1.312-1.763c6.536-8.755,11.617-14.84,15.749-19.787c4.413-5.281,7.354-8.803,9.25-12.293
		c7.95-14.63,12.064-33.001,15.394-49.599C902.018,421.855,907.177,394.546,911.96,369.232z"/>
</g>
<g>
	<g>
		<path fill="#BA7C29" d="M397.434,760.865c-52.365-5.358-123.299,47.506-137.365,75.22c-14.066,27.714-38.45,85.476-49,98.266
			c-10.55,12.792-36.692,81.377-49,96.301c-12.308,14.923-57.967,65.307-65,97.284c-2.439,11.093-66.691,124.933-79,148.382
			c38.682,12.792,258.804,44.531,302.761,50.926c28.133-44.769,63.298-151.364,82.64-176.946
			c19.342-25.583,18.755-88.829,24.03-108.016C436.292,957.008,416.95,854.677,397.434,760.865z"/>
		<path fill="#E9BD40" d="M316.36,1314.78c-63.456-9.307-221.134-33.555-275.353-46.482c55.598-105.55,67.816-131.319,69.379-138.43
			c5.322-24.201,37.911-61.936,53.572-80.07c2.883-3.34,5.375-6.223,7.222-8.462c7.273-8.819,17.734-30.529,28.808-53.513
			c8.434-17.502,17.993-37.343,22.182-42.422c7.467-9.053,18.156-31.339,33.612-64.304c5.831-12.436,11.337-24.182,15.846-33.064
			c5.268-10.379,22.582-29.364,48.148-46.521c24.391-16.368,60.725-29.584,81.934-31.754
			c18.935,91.768,36.977,181.604,29.013,261.155c-3.399,13.637-4.271,30.022-5.276,39.44c-2.65,24.869-17.754,57.005-29.107,72.022
			c-10.359,13.7-23.417,45.137-38.539,81.537C344.461,1256.027,329.476,1292.101,316.36,1314.78z"/>
		<path fill="#F6D973" d="M287.988,1190.951c14.066-19.187-2.638-25.581,2.637-47.964c6.587-20.768,24.585-21.317,26.369-22.382
			c10.982-6.552,10.429-14.876,16.21-26.902c8.669-18.028,23.735-20.563,37.319-30.419c19.387-14.065,10.434-29.333,13.357-52.007
			c2.3-17.84,15.245-27.548,20.852-43.182c2.617-7.301,6.387-34.555,11.925-71.489c4.062-27.084,11.253-71.256,11.43-98.068
			c0.103-15.712-25.173-25.748-36.925-24.516c-16.098,1.688-46.993,11.123-71.384,27.49c-25.567,17.157-42.88,36.142-48.148,46.521
			c-4.509,8.882-10.015,20.628-15.846,33.064c-15.456,32.965-26.146,55.251-33.612,64.304c-4.189,5.079-13.749,24.92-22.182,42.422
			c-11.074,22.984-21.535,44.693-28.808,53.513c-1.847,2.24-4.338,5.123-7.222,8.462c-15.661,18.134-48.25,55.869-53.572,80.07
			c-1.563,7.111-13.781,32.88-69.379,138.43c35.37,8.434,114.768,21.684,183.316,32.462c1.985-25.38,0.005-51.866,13.867-73.715
			C250.499,1208.924,274.8,1209.071,287.988,1190.951z"/>
	</g>
	<g>
		<path fill="#BA7C29" d="M1.754,1301.757c13.204-35.257,73.468-75.471,98.505-88.365c25.037-12.895,87.136-6.648,110.895-4.619
			c23.764,2.03,62.893,1.615,89.502,12.346c26.608,10.73,87.196,30.002,87.196,30.002c-4.283,8.09-16.569,25.832-22.199,35.687
			c-5.628,9.856-7.86,35.975-8.107,52.866c-0.245,16.892,3.701,40.721,5.44,48.387c1.739,7.665,4.741,30.518,15.194,34.23
			c-6.817,9.753-17.171,28.447-36,41c-26.999,17.999-58.144,44.145-113.829,29.778c-36.07-9.306-59.486,0.298-95.837-8.445
			c-36.354-8.746-63.221-23.022-75.333-35.333c-12.113-12.31-33.705-30.098-40.667-46.667
			C9.554,1386.056-5.026,1319.859,1.754,1301.757z"/>
		<path fill="#E9BD40" d="M251.383,1486.637c-7.415-0.633-13.78-1.717-18.917-3.224c-11.019-3.231-21.598-5.2-33.295-6.199
			c-6.403-0.547-12.462-0.755-18.321-0.956c-5.856-0.201-11.388-0.39-17.278-0.894c-8.084-0.69-17.422,0.43-25.058-1.406
			c-34.093-8.201-59.059-22.902-68.667-32.667c-2.62-2.663-10.933-11.052-14-14c-10.553-10.141-25.277-20.762-30-32
			c-6.287-14.96-10.294-73.512-10.999-93.396c0.103-3.234,7.925-15.783,36.785-39.891c22.32-18.644,45.565-34.473,56.105-39.901
			c21.773-11.213,86.717-20.394,108.251-18.554c17.793,1.521,43.953,12.289,67.032,21.789c4.129,1.701,8.166,3.361,12.056,4.93
			c19.345,7.801,55.367,19.734,74.92,26.09c-1.664,2.628-3.481,5.443-5.275,8.221c-4.076,6.313-8.292,12.841-11.052,17.676
			c-8.196,14.35-9.121,49.896-9.223,56.875c-0.266,18.24,4.046,43.279,5.646,50.337c1.729,7.625,6.059,27.822,13.086,32.826
			c-6.214,3.424-19.18,21.464-25,25C324.229,1455.767,287.112,1489.688,251.383,1486.637z"/>
		<path fill="#F6D973" d="M49.22,1367.202c12.991,6.426,22.346-18.953,32.72-14.308c7.997,4.441,16.728,42.299,24.328,51.406
			c29.339,13.781,28.53-32.798,47.539-31.173c5.942,0.508,31.361,11.137,33.491,28.229c9.656,13.041,35.668,23.718,49.766,26.803
			c23.523,4.829,50.73,1.517,73.783-2.152c-32.403-61.962-25.301-87.067-7.78-119.052c8.564-16.18-2.836-29.838,8.813-40.119
			c8.688-8.305,28.289-15.476,42.078-15.746c-19.487-6.458-44.07-14.851-58.881-20.824c-3.89-1.569-7.927-3.229-12.056-4.93
			c-23.079-9.5-49.239-20.268-67.032-21.789c-21.534-1.84-86.478,7.341-108.251,18.554c-10.54,5.429-35.113,20.314-56.105,39.901
			c-17.999,16.793-21.176,35.315-23.609,45.13C27.912,1317.773,38.501,1361.901,49.22,1367.202z"/>
	</g>
</g>
</svg>
