<?xml version="1.0" encoding="utf-8"?>
<!-- Generator: Adobe Illustrator 15.0.0, SVG Export Plug-In . SVG Version: 6.00 Build 0)  -->
<!DOCTYPE svg PUBLIC "-//W3C//DTD SVG 1.1//EN" "http://www.w3.org/Graphics/SVG/1.1/DTD/svg11.dtd">
<svg version="1.1" id="Dust_mask" xmlns="http://www.w3.org/2000/svg" xmlns:xlink="http://www.w3.org/1999/xlink" x="0px" y="0px"
	 width="314.207px" height="755.63px" viewBox="0 0 314.207 755.63" enable-background="new 0 0 314.207 755.63"
	 xml:space="preserve">
<g>
	<path fill="#B4C7CF" d="M144.291,127.688c-2.083-1.25-6.979-5.813-7.813-6.313c-0.5-1.75-0.313-4.021-0.313-4.688
		c1.625,1.375,8.813,6.813,9.563,7.313C145.395,125,144.458,126.938,144.291,127.688z"/>
	<path fill="#B4C7CF" d="M208.518,129.392c2.083-1.25,7.252-6.892,8.085-7.892c0.5-1.75,0.167-4.5,0.167-5.167
		c-1.625,1.375-8.939,8.871-9.689,9.371C207.414,126.704,208.352,128.642,208.518,129.392z"/>
	<path fill="#B4C7CF" d="M213.727,127.17c-0.6-7.993-11.503-9.608-17.375-12.125c-6.708-2.875-10.306-8.711-18.889-8.711
		s-12.318,5.836-19.027,8.711c-5.872,2.517-16.775,4.132-17.375,12.125c-0.75,10,16.417,38.5,36.333,38.5
		S214.477,137.17,213.727,127.17z"/>
	<linearGradient id="SVGID_1_" gradientUnits="userSpaceOnUse" x1="178.7959" y1="136.0015" x2="129.0453" y2="136.0015">
		<stop  offset="0" style="stop-color:#B4C7CF"/>
		<stop  offset="1" style="stop-color:#FFFFFF"/>
	</linearGradient>
	<path fill="url(#SVGID_1_)" d="M177.394,164.17c-7.162,0-14.958-4.151-21.952-11.69c-8.177-8.813-13.264-20.145-12.885-25.198
		c0.4-5.334,6.651-7.437,12.167-9.292c1.555-0.523,3.024-1.018,4.304-1.566c2.509-1.075,4.59-2.518,6.604-3.913
		c3.471-2.405,6.749-4.677,11.832-4.677c5.061,0,8.282,2.258,11.693,4.648c2.005,1.406,4.079,2.859,6.605,3.942
		c1.28,0.548,2.749,1.042,4.304,1.566c5.515,1.855,11.766,3.958,12.167,9.292c0.379,5.053-4.708,16.385-12.885,25.198
		C192.352,160.019,184.556,164.17,177.394,164.17z"/>
	<linearGradient id="SVGID_2_" gradientUnits="userSpaceOnUse" x1="77.3755" y1="136.002" x2="181.0089" y2="136.002">
		<stop  offset="0" style="stop-color:#B4C7CF"/>
		<stop  offset="0.2681" style="stop-color:#CCD9DE"/>
		<stop  offset="0.7467" style="stop-color:#F1F4F6"/>
		<stop  offset="1" style="stop-color:#FFFFFF"/>
	</linearGradient>
	<path fill="url(#SVGID_2_)" d="M212.231,127.282c-0.4-5.334-6.651-7.437-12.167-9.292c-1.555-0.523-3.024-1.018-4.304-1.566
		c-2.526-1.083-4.6-2.536-6.605-3.942c-3.411-2.391-6.632-4.648-11.693-4.648c-5.083,0-8.361,2.272-11.832,4.677
		c-2.014,1.395-4.095,2.838-6.604,3.913c-1.221,0.523-2.617,0.998-4.093,1.495c-14.638,11.332,5.862,42.582,18.611,45.86
		c1.297,0.255,2.583,0.392,3.849,0.392c7.162,0,14.958-4.151,21.952-11.69C207.522,143.667,212.61,132.335,212.231,127.282z"/>
	<g>
		<path fill="#808080" d="M189.462,116.25c-2.328,0-4.254-1.271-6.118-2.501c-1.817-1.199-3.534-2.332-5.549-2.332
			c-2.651,0-4.777,1.249-6.833,2.457c-1.789,1.051-3.478,2.043-5.333,2.043c-0.69,0-1.25-0.56-1.25-1.25s0.56-1.25,1.25-1.25
			c1.176,0,2.516-0.787,4.067-1.699c2.125-1.248,4.769-2.801,8.099-2.801c2.766,0,4.976,1.458,6.926,2.745
			c1.627,1.074,3.164,2.088,4.741,2.088c0.69,0,1.25,0.56,1.25,1.25S190.153,116.25,189.462,116.25z"/>
	</g>
	<linearGradient id="SVGID_3_" gradientUnits="userSpaceOnUse" x1="177.7959" y1="153.75" x2="177.7959" y2="131.7443">
		<stop  offset="0" style="stop-color:#B4C7CF"/>
		<stop  offset="1" style="stop-color:#FFFFFF"/>
	</linearGradient>
	<path fill="url(#SVGID_3_)" d="M200.285,138.37c0.025-0.021-9.912,2.951-22.489,2.936c-12.578,0.016-22.514-2.957-22.489-2.936
		c0.012-0.015,10.304-0.116,22.655-0.148C190.314,138.229,200.273,138.351,200.285,138.37z"/>
	<linearGradient id="SVGID_4_" gradientUnits="userSpaceOnUse" x1="177.7959" y1="160.5" x2="177.7959" y2="143.7332">
		<stop  offset="0" style="stop-color:#B4C7CF"/>
		<stop  offset="1" style="stop-color:#FFFFFF"/>
	</linearGradient>
	<path fill="url(#SVGID_4_)" d="M198.002,145.359c0.092-0.08-8.442,4.897-20.207,4.866c-11.764,0.031-20.299-4.946-20.207-4.866
		c0.011-0.033,9.257,2.233,20.356,2.127C189.044,147.519,197.989,145.314,198.002,145.359z"/>
	<linearGradient id="SVGID_5_" gradientUnits="userSpaceOnUse" x1="177.7959" y1="141.75" x2="177.7959" y2="122.25">
		<stop  offset="0" style="stop-color:#B4C7CF"/>
		<stop  offset="1" style="stop-color:#FFFFFF"/>
	</linearGradient>
	<path fill="url(#SVGID_5_)" d="M200.285,130.88c0.025,0.021-9.912-2.951-22.489-2.936c-12.578-0.016-22.514,2.957-22.489,2.936
		c0.012,0.015,10.304,0.116,22.655,0.148C190.314,131.021,200.273,130.899,200.285,130.88z"/>
	<linearGradient id="SVGID_6_" gradientUnits="userSpaceOnUse" x1="177.7959" y1="138.25" x2="177.7959" y2="112.7451">
		<stop  offset="0" style="stop-color:#B4C7CF"/>
		<stop  offset="1" style="stop-color:#FFFFFF"/>
	</linearGradient>
	<path fill="url(#SVGID_6_)" d="M198.002,123.891c0.092,0.08-8.442-4.897-20.207-4.866c-11.764-0.031-20.299,4.946-20.207,4.866
		c0.011,0.033,9.257-2.233,20.356-2.127C189.044,121.731,197.989,123.936,198.002,123.891z"/>
</g>
</svg>
