<?xml version="1.0" encoding="utf-8"?>
<!-- Generator: Adobe Illustrator 15.0.0, SVG Export Plug-In . SVG Version: 6.00 Build 0)  -->
<!DOCTYPE svg PUBLIC "-//W3C//DTD SVG 1.1//EN" "http://www.w3.org/Graphics/SVG/1.1/DTD/svg11.dtd">
<svg version="1.1" id="Gas_mask" xmlns="http://www.w3.org/2000/svg" xmlns:xlink="http://www.w3.org/1999/xlink" x="0px" y="0px"
	 width="314.207px" height="755.63px" viewBox="0 0 314.207 755.63" enable-background="new 0 0 314.207 755.63"
	 xml:space="preserve">
<g>
	<path fill="#333333" d="M145.729,130.06c-2.083-1.25-8.417-8.185-9.25-8.685c-0.5-1.75-0.375-4.521-0.375-5.188
		c1.625,1.375,10.204,9.253,10.954,9.753C146.724,126.941,145.895,129.31,145.729,130.06z"/>
	<path fill="#333333" d="M208.518,129.392c2.083-1.25,7.252-6.892,8.085-7.892c0.5-1.75,0.167-4.5,0.167-5.167
		c-1.625,1.375-8.939,8.871-9.689,9.371C207.414,126.704,208.352,128.642,208.518,129.392z"/>
	<path fill="#333333" d="M210.752,132.333c-0.6-7.993-9.389-10.167-14.5-14c-6-4.5-10.241-12-18.824-12s-12.824,7.5-18.824,12
		c-5.111,3.833-13.9,6.007-14.5,14c-0.75,10,13.408,33.336,33.324,33.336S211.502,142.333,210.752,132.333z"/>
	<path fill="#4D4D4D" d="M177.428,164.17c-7.643,0-15.383-3.806-21.794-10.717c-6.977-7.52-10.377-16.436-10.034-21.007
		c0.382-5.085,4.642-7.465,9.151-9.984c1.636-0.914,3.327-1.859,4.753-2.928c1.798-1.349,3.435-2.945,5.017-4.488
		c3.803-3.709,7.395-7.212,12.907-7.212s9.104,3.503,12.907,7.212c1.583,1.543,3.219,3.14,5.017,4.488
		c1.426,1.069,3.117,2.014,4.753,2.928c4.51,2.519,8.77,4.899,9.151,9.984c0.343,4.572-3.058,13.488-10.034,21.007
		C192.811,160.364,185.07,164.17,177.428,164.17z"/>
	<linearGradient id="SVGID_1_" gradientUnits="userSpaceOnUse" x1="160.1445" y1="136.002" x2="193.6033" y2="136.002">
		<stop  offset="0.0121" style="stop-color:#4D4D4D"/>
		<stop  offset="0.5273" style="stop-color:#666666"/>
		<stop  offset="1" style="stop-color:#4D4D4D"/>
	</linearGradient>
	<path fill="url(#SVGID_1_)" d="M186.261,111.318c-2.351-1.905-4.524-3.484-8.833-3.484c-3.311,0-5.927,1.268-8.314,3.081
		c-5.385,15.711-3.01,39.336,3.633,52.777c1.556,0.312,3.121,0.479,4.681,0.479c2.724,0,5.459-0.492,8.143-1.427
		C189.604,141.375,189.8,127.244,186.261,111.318z"/>
	<circle fill="#333333" cx="177.428" cy="130.833" r="10.333"/>
	<circle fill="#1A1A1A" cx="177.428" cy="132.833" r="10.333"/>
	<path fill="#666666" d="M177.427,141.667c-4.871,0-8.833-3.963-8.833-8.834c0-4.871,3.962-8.833,8.833-8.833
		c4.871,0,8.834,3.962,8.834,8.833C186.261,137.704,182.298,141.667,177.427,141.667z"/>
	<path fill="#1A1A1A" d="M177.428,137.292c-2.458,0-4.458-2-4.458-4.459c0-2.458,2-4.458,4.458-4.458s4.458,2,4.458,4.458
		C181.886,135.292,179.886,137.292,177.428,137.292z"/>
	<g>
		<rect x="176.644" y="123.124" fill="#1A1A1A" width="1.5" height="19.376"/>
	</g>
	<g>
		
			<rect x="167.705" y="132.062" transform="matrix(0.7071 0.7071 -0.7071 0.7071 145.8693 -86.5366)" fill="#1A1A1A" width="19.376" height="1.5"/>
	</g>
	<g>
		<rect x="167.705" y="132.062" fill="#1A1A1A" width="19.376" height="1.5"/>
	</g>
	<g>
		
			<rect x="176.643" y="123.123" transform="matrix(0.7071 0.7071 -0.7071 0.7071 145.8692 -86.5364)" fill="#1A1A1A" width="1.5" height="19.377"/>
	</g>
	<path fill="#1A1A1A" d="M151.087,157.332c-4.229-1.059-8.157-7.338-9.684-15.706c-1.553-8.512-0.053-15.775,3.572-18.166
		l-0.087-0.449l1.551-0.218c0.138-0.045,0.253-0.078,0.373-0.1c0.278-0.051,0.568-0.077,0.858-0.077c0.026,0,0.052,0,0.078,0
		c1.582-0.216,4.331-0.603,5.876-0.884c0.283-0.052,0.574-0.078,0.864-0.078c4.625,0,9.202,6.679,10.881,15.88
		c1.239,6.794,0.54,13.107-1.826,16.475c-0.968,1.378-2.214,2.229-3.604,2.461c-1.682,0.282-4.83,0.692-6.642,0.923
		c-0.052,0.015-0.105,0.026-0.158,0.036c-0.13,0.024-0.272,0.034-0.415,0.038l-1.561,0.202L151.087,157.332z"/>
	<path fill="#333333" d="M163.892,137.804c-1.602-8.775-6.078-15.312-10-14.596c-1.621,0.295-4.47,0.694-6.065,0.912
		c-0.251-0.011-0.5,0.004-0.749,0.049c-0.105,0.019-0.204,0.063-0.306,0.093c-0.065,0.008-0.111,0.014-0.111,0.014l0.003,0.018
		c-3.634,1.172-5.33,8.605-3.787,17.062c1.527,8.368,5.666,14.682,9.447,14.634l0.003,0.013c0,0,0.085-0.011,0.236-0.03
		c0.104-0.008,0.21-0.002,0.314-0.021c0.036-0.006,0.069-0.023,0.104-0.031c1.443-0.183,4.936-0.633,6.708-0.93
		C163.622,154.334,165.493,146.582,163.892,137.804z"/>
	<path fill="#1A1A1A" d="M145.343,162.326c-5.813-0.001-11.524-8.029-13.887-19.522c-2.521-12.264-0.445-21.052,5.552-23.508
		l0.209-0.086l0.226-0.02c0.285-0.025,7-0.624,8.967-0.77c0.144-0.01,0.289-0.016,0.436-0.016c5.013,0,11.687,6.547,14.181,18.681
		c2.372,11.537-0.217,21.217-6.154,23.016c-1.963,0.595-8.251,2.076-8.518,2.139l-0.071,0.017l-0.072,0.01
		C145.921,162.307,145.633,162.326,145.343,162.326C145.344,162.326,145.343,162.326,145.343,162.326z"/>
	<path fill="#333333" d="M159.557,137.389c-2.286-11.12-8.537-17.805-13.037-17.472c-1.979,0.146-8.944,0.768-8.944,0.768
		c-5.5,2.253-6.853,11.103-4.651,21.817c2.18,10.602,7.632,19.014,13.085,18.279c0,0,6.486-1.526,8.427-2.114
		C159.291,157.196,161.842,148.509,159.557,137.389z"/>
	<path fill="#1A1A1A" d="M132.653,142.553c2.132,10.186,7.577,18.19,12.519,18.288c5.267,0.106,8.31-8.71,6.393-20.214
		c-2.021-12.114-8.493-21.269-13.989-19.942C132.448,121.923,130.423,131.889,132.653,142.553z"/>
	<path fill="#E6E6E6" d="M144.427,159.441c-4.456-0.021-9.414-7.395-11.328-16.763c-1.99-9.745-0.119-18.758,4.479-19.78
		c4.878-1.084,10.624,7.187,12.456,18.049C151.79,151.345,149.133,159.462,144.427,159.441z"/>
	<path fill="#1A1A1A" d="M145.628,142.675l5.205-0.482l-0.52-3.088l-5.229,0.583c-0.359-1.353-0.847-2.581-1.413-3.614l2.284-8.379
		l-1.462-2.078l-2.229,8.466c-0.644-0.679-1.323-1.106-1.991-1.227l-2.065-11.005l-1.393,0.324l2.083,10.921
		c-0.554,0.33-1.001,0.938-1.327,1.751l-4.777-6.892l-0.48,2.264l4.727,6.835c-0.126,1.061-0.121,2.26,0.027,3.527l-4.495,0.502
		l0.572,2.747l4.478-0.415c0.341,1.232,0.789,2.363,1.307,3.331l-1.832,6.959l1.263,1.851l1.877-6.887
		c0.608,0.69,1.252,1.164,1.892,1.358l1.834,9.614l1.341,0.018l-1.816-9.677c0.584-0.239,1.073-0.764,1.442-1.519l4.8,6.942
		l0.679-2.041l-4.854-7.002C145.731,145.286,145.763,144.033,145.628,142.675z"/>
	<path fill="#1A1A1A" d="M203.769,157.332c4.229-1.059,8.157-7.338,9.684-15.706c1.553-8.512,0.053-15.775-3.572-18.166l0.087-0.449
		l-1.551-0.218c-0.138-0.045-0.253-0.078-0.373-0.1c-0.278-0.051-0.568-0.077-0.858-0.077c-0.026,0-0.052,0-0.078,0
		c-1.582-0.216-4.331-0.603-5.876-0.884c-0.283-0.052-0.574-0.078-0.864-0.078c-4.625,0-9.202,6.679-10.881,15.88
		c-1.239,6.794-0.54,13.107,1.826,16.475c0.968,1.378,2.214,2.229,3.604,2.461c1.682,0.282,4.83,0.692,6.642,0.923
		c0.052,0.015,0.105,0.026,0.158,0.036c0.13,0.024,0.272,0.034,0.415,0.038l1.561,0.202L203.769,157.332z"/>
	<path fill="#333333" d="M190.963,137.804c1.602-8.775,6.078-15.312,10-14.596c1.621,0.295,4.47,0.694,6.065,0.912
		c0.251-0.011,0.5,0.004,0.749,0.049c0.105,0.019,0.204,0.063,0.306,0.093c0.065,0.008,0.111,0.014,0.111,0.014l-0.003,0.018
		c3.634,1.172,5.33,8.605,3.787,17.062c-1.527,8.368-5.666,14.682-9.447,14.634l-0.003,0.013c0,0-0.085-0.011-0.236-0.03
		c-0.104-0.008-0.21-0.002-0.314-0.021c-0.036-0.006-0.069-0.023-0.104-0.031c-1.443-0.183-4.936-0.633-6.708-0.93
		C191.234,154.334,189.362,146.582,190.963,137.804z"/>
	<path fill="#1A1A1A" d="M209.513,162.326c5.813-0.001,11.524-8.029,13.887-19.522c2.521-12.264,0.445-21.052-5.552-23.508
		l-0.209-0.086l-0.226-0.02c-0.285-0.025-7-0.624-8.967-0.77c-0.144-0.01-0.289-0.016-0.436-0.016
		c-5.013,0-11.687,6.547-14.181,18.681c-2.372,11.537,0.217,21.217,6.154,23.016c1.963,0.595,8.251,2.076,8.518,2.139l0.071,0.017
		l0.072,0.01C208.935,162.307,209.223,162.326,209.513,162.326C209.512,162.326,209.512,162.326,209.513,162.326z"/>
	<path fill="#333333" d="M195.299,137.389c2.286-11.12,8.537-17.805,13.037-17.472c1.979,0.146,8.944,0.768,8.944,0.768
		c5.5,2.253,6.853,11.103,4.651,21.817c-2.18,10.602-7.632,19.014-13.085,18.279c0,0-6.486-1.526-8.427-2.114
		C195.564,157.196,193.013,148.509,195.299,137.389z"/>
	<path fill="#1A1A1A" d="M222.203,142.553c-2.132,10.186-7.577,18.19-12.519,18.288c-5.267,0.106-8.31-8.71-6.393-20.214
		c2.021-12.114,8.493-21.269,13.989-19.942C222.407,121.923,224.432,131.889,222.203,142.553z"/>
	<path fill="#E6E6E6" d="M210.428,159.441c4.456-0.021,9.414-7.395,11.328-16.763c1.99-9.745,0.119-18.758-4.479-19.78
		c-4.878-1.084-10.624,7.187-12.456,18.049C203.065,151.345,205.722,159.462,210.428,159.441z"/>
	<path fill="#1A1A1A" d="M209.228,142.675l-5.205-0.482l0.52-3.088l5.229,0.583c0.359-1.353,0.847-2.581,1.413-3.614l-2.284-8.379
		l1.462-2.078l2.229,8.466c0.644-0.679,1.323-1.106,1.991-1.227l2.065-11.005l1.393,0.324l-2.083,10.921
		c0.554,0.33,1.001,0.938,1.327,1.751l4.777-6.892l0.48,2.264l-4.727,6.835c0.126,1.061,0.121,2.26-0.027,3.527l4.495,0.502
		l-0.572,2.747l-4.478-0.415c-0.341,1.232-0.789,2.363-1.307,3.331l1.832,6.959l-1.263,1.851l-1.877-6.887
		c-0.608,0.69-1.252,1.164-1.892,1.358l-1.834,9.614l-1.341,0.018l1.816-9.677c-0.584-0.239-1.073-0.764-1.442-1.519l-4.8,6.942
		l-0.679-2.041l4.854-7.002C209.124,145.286,209.092,144.033,209.228,142.675z"/>
</g>
</svg>
