<?xml version="1.0" encoding="utf-8"?>
<!-- Generator: Adobe Illustrator 15.0.0, SVG Export Plug-In . SVG Version: 6.00 Build 0)  -->
<!DOCTYPE svg PUBLIC "-//W3C//DTD SVG 1.1//EN" "http://www.w3.org/Graphics/SVG/1.1/DTD/svg11.dtd">
<svg version="1.1" id="glasses" xmlns="http://www.w3.org/2000/svg" xmlns:xlink="http://www.w3.org/1999/xlink" x="0px" y="0px"
	 width="314.207px" height="755.63px" viewBox="0 0 314.207 755.63" enable-background="new 0 0 314.207 755.63"
	 xml:space="preserve">
<g>
	<g>
		<path fill="#CCCCCC" d="M200.866,111.659c-7.216,0-15.109-2.692-16.893-5.761l-0.085-0.191c-1.086-3.317-3.134-4.93-6.261-4.93
			c-3.127,0-5.176,1.613-6.263,4.931l-0.085,0.19c-1.75,3.016-10.385,5.762-18.116,5.762c0,0-0.001,0-0.001,0
			c-5.29,0-9.8-1.205-13.042-3.485c-5.243-4.205-6.808-12.069-7.278-16.386c-0.743-6.814,0.184-14.027,2.109-16.422
			c2.618-3.331,23.701-4.032,40.926-4.032c18.025,0,40.063,0.701,42.689,4.041c1.803,2.243,2.74,8.613,2.222,15.138
			c-0.372,4.678-1.821,13.188-7.349,17.624C210.144,110.454,205.814,111.659,200.866,111.659z M185.75,104.971
			c1.234,1.897,7.766,4.688,15.115,4.688c3.162,0,7.701-0.542,11.371-3.121c3.559-2.858,5.967-8.771,6.556-16.185
			c0.514-6.466-0.531-12.164-1.793-13.735c-1.29-1.639-14.5-3.285-41.124-3.285c-25.411,0-38.079,1.646-39.36,3.277
			c-1.415,1.759-2.426,8.185-1.687,14.96c0.438,4.009,1.862,11.29,6.492,15.005c3.618,2.542,8.441,3.083,11.842,3.083
			c7.797,0,15.078-2.771,16.34-4.689c1.366-4.053,4.173-6.194,8.125-6.194C181.578,98.776,184.385,100.917,185.75,104.971z"/>
	</g>
	<path fill="#FFFFFF" d="M171.895,101.333c3.167-5.083,8.167-5.5,11.612,0.25C179.062,98.083,175.895,98.167,171.895,101.333z"/>
	<path opacity="0.4" fill="#FFFFFF" d="M177.655,99.375c3.544,0,5.928,1.875,7.109,5.375c2.195,3.667,18.294,8.208,27.577,1.875
		c8.775-6.834,7.932-26.333,4.895-30c-2.701-3.333-33.712-3.5-41.306-3.5c-7.595,0-36.875,0.167-39.575,3.5
		c-3.039,3.667-3.882,23.166,4.894,30c9.283,6.333,27.103,1.792,29.297-1.875C171.727,101.25,174.11,99.375,177.655,99.375z"/>
	<path opacity="0.4" fill="#FFFFFF" d="M217.196,91.167c0.669-6.32-0.389-11.974-1.388-13.19
		c-1.682-1.374-14.878-2.852-39.878-2.852c-24.021,0-36.463,1.426-38.095,2.797c-1.053,1.271-2.111,6.923-1.442,13.243
		c0.028,0.263,0.062,0.544,0.1,0.835h80.604C217.134,91.71,217.167,91.429,217.196,91.167z"/>
	<path fill="#FFFFFF" d="M200.563,110.285c-7.476,0-14.729-2.785-16.22-5.275l-0.045-0.098c-1.128-3.342-3.362-5.037-6.644-5.037
		c-3.281,0-5.516,1.695-6.644,5.037l-0.045,0.098c-1.49,2.49-9.259,5.275-17.427,5.275h-0.001c-3.562,0-8.633-0.563-12.564-3.245
		c-5.064-3.942-6.557-11.438-6.998-15.556c-0.679-6.338,0.2-13.007,2.002-15.182c2.592-3.199,26.144-3.678,39.952-3.678
		c14.454,0,39.09,0.479,41.685,3.682c1.799,2.171,2.678,8.84,1.998,15.18c-0.442,4.118-1.935,11.611-6.973,15.535
		C209.502,109.163,205.335,110.285,200.563,110.285z M185.21,104.533c1.392,2.208,8.354,4.751,15.353,4.751
		c4.576,0,8.554-1.063,11.502-3.075c4.723-3.679,6.145-10.873,6.569-14.832c0.72-6.72-0.36-12.723-1.775-14.431
		c-1.662-2.051-17.344-3.322-40.93-3.322c-22.519,0-37.539,1.271-39.195,3.318c-1.419,1.712-2.5,7.714-1.78,14.433
		c0.424,3.959,1.845,11.154,6.593,14.852c3.7,2.523,8.565,3.057,11.99,3.057c7.55,0,15.188-2.588,16.562-4.752
		c1.269-3.702,3.88-5.658,7.556-5.658C181.331,98.875,183.943,100.832,185.21,104.533z"/>
</g>
</svg>
