<?xml version="1.0" encoding="utf-8"?>
<!-- Generator: Adobe Illustrator 15.0.0, SVG Export Plug-In . SVG Version: 6.00 Build 0)  -->
<!DOCTYPE svg PUBLIC "-//W3C//DTD SVG 1.1//EN" "http://www.w3.org/Graphics/SVG/1.1/DTD/svg11.dtd">
<svg version="1.1" id="Helmet" xmlns="http://www.w3.org/2000/svg" xmlns:xlink="http://www.w3.org/1999/xlink" x="0px" y="0px"
	 width="314.207px" height="755.63px" viewBox="0 0 314.207 755.63" enable-background="new 0 0 314.207 755.63"
	 xml:space="preserve">
<g>
	<path fill="#BF840E" d="M123.479,61.5c-0.167-2.75,0.125-11.083,0.542-13.583c2.333-1.667,5.583-2.917,6.25-3.083
		c0.167,1.5,1.167,13.333,1.167,14.5C130.676,59.418,124.729,61.25,123.479,61.5z"/>
	<linearGradient id="SVGID_1_" gradientUnits="userSpaceOnUse" x1="132.835" y1="57.7017" x2="116.96" y2="46.4517">
		<stop  offset="5.000000e-006" style="stop-color:#F1991B"/>
		<stop  offset="0.636" style="stop-color:#F9C13B"/>
		<stop  offset="1" style="stop-color:#FDD349"/>
	</linearGradient>
	<path fill="url(#SVGID_1_)" d="M124.89,59.053c0.162-3.053,0.631-7.543,0.975-9.966c0.874-0.551,1.826-1.037,2.661-1.42
		c0.264,3.011,0.648,7.681,0.821,10.124c-0.687,0.188-1.61,0.451-2.87,0.811C125.967,58.747,125.417,58.904,124.89,59.053z"/>
	<path fill="#BF840E" d="M228.924,61.5c0.167-2.75-0.125-11.083-0.542-13.583c-2.333-1.667-5.583-2.917-6.25-3.083
		c-0.167,1.5-1.167,13.333-1.167,14.5C221.727,59.418,227.673,61.25,228.924,61.5z"/>
	
		<linearGradient id="SVGID_2_" gradientUnits="userSpaceOnUse" x1="133.8354" y1="57.7021" x2="117.9605" y2="46.4522" gradientTransform="matrix(-1 0 0 1 353.4023 0)">
		<stop  offset="5.000000e-006" style="stop-color:#F1991B"/>
		<stop  offset="0.636" style="stop-color:#F9C13B"/>
		<stop  offset="1" style="stop-color:#FDD349"/>
	</linearGradient>
	<path fill="url(#SVGID_2_)" d="M227.512,59.053c-0.162-3.053-0.631-7.543-0.975-9.966c-0.874-0.551-1.826-1.037-2.661-1.42
		c-0.264,3.011-0.648,7.681-0.821,10.124c0.687,0.188,1.61,0.451,2.87,0.811C226.435,58.747,226.985,58.904,227.512,59.053z"/>
	<path fill="#BF840E" d="M176.2,70.303c6.107,0,31.327,1.72,39.503,0.861c6.699-0.383,9.851-2.168,16.254-2.456
		c0.099-1.529,0.198-4.109,0-4.874c-1.477-1.242-6.468-5.193-6.729-11.209c-0.5-11.5-2.235-49.135-49.028-49.135
		s-48.763,38.58-48.763,47.76c0,6.083-5.517,11.342-6.995,12.584c-0.197,0.765-0.098,3.345,0,4.874
		c6.403,0.287,9.555,2.073,16.255,2.456C144.874,72.023,170.092,70.303,176.2,70.303z"/>
	<linearGradient id="SVGID_3_" gradientUnits="userSpaceOnUse" x1="176.2007" y1="30.25" x2="176.2007" y2="80.5">
		<stop  offset="5.000000e-006" style="stop-color:#F1991B"/>
		<stop  offset="0.636" style="stop-color:#F9C13B"/>
		<stop  offset="1" style="stop-color:#FDD349"/>
	</linearGradient>
	<path fill="url(#SVGID_3_)" d="M209.047,69.405c-6.436,0-15.143-0.393-22.139-0.709c-4.859-0.219-8.698-0.393-10.708-0.393
		s-5.85,0.173-10.709,0.393c-6.995,0.316-15.701,0.709-22.137,0.709h-0.001c-2.825,0-4.99-0.077-6.434-0.229
		c-3.259-0.189-5.541-0.688-7.957-1.215c-1.993-0.436-4.041-0.883-6.549-1.12c-0.029-0.876-0.03-1.6-0.01-2.064
		c2.251-2.263,6.601-8.22,6.502-14.288c-0.013-0.802-0.168-19.771,13.159-32.908c8.139-8.022,19.624-12.09,34.135-12.09
		c14.512,0,25.998,4.068,34.136,12.091c13.327,13.137,13.171,32.105,13.158,32.906c-0.099,6.069,4.254,12.029,6.504,14.291
		c0.02,0.458,0.018,1.183-0.011,2.063c-2.508,0.236-4.557,0.684-6.55,1.12c-2.415,0.528-4.696,1.027-7.854,1.207
		C214.037,69.328,211.872,69.405,209.047,69.405z"/>
	<linearGradient id="SVGID_4_" gradientUnits="userSpaceOnUse" x1="176.103" y1="72.791" x2="176.2839" y2="61.764">
		<stop  offset="0.0095" style="stop-color:#FDE25B"/>
		<stop  offset="0.8034" style="stop-color:#FFF99B"/>
		<stop  offset="0.9994" style="stop-color:#FFFFAB"/>
	</linearGradient>
	<path fill="url(#SVGID_4_)" d="M216.62,68.003c-1.586,0.165-3.808,0.244-6.707,0.244c-6.605,0-15.542-0.403-22.722-0.728
		c-4.987-0.225-8.926-0.403-10.99-0.403s-6.003,0.178-10.991,0.403c-7.18,0.324-16.115,0.728-22.72,0.728h-0.001
		c-2.899,0-5.121-0.079-6.604-0.235c-3.345-0.194-13.483-1.559-13.47-1.17c2.508,0.236,4.556,0.684,6.549,1.12
		c2.416,0.528,4.697,1.026,7.957,1.215c1.444,0.152,3.609,0.229,6.434,0.229h0.001c6.436,0,15.142-0.393,22.137-0.709
		c4.859-0.219,8.698-0.393,10.709-0.393s5.849,0.173,10.708,0.393c6.996,0.316,15.703,0.709,22.139,0.709
		c2.825,0,4.989-0.077,6.535-0.237c3.158-0.18,5.439-0.679,7.854-1.207c1.994-0.436,4.042-0.883,6.55-1.12
		C230,66.451,219.86,67.818,216.62,68.003z"/>
	<linearGradient id="SVGID_5_" gradientUnits="userSpaceOnUse" x1="176.1846" y1="-19.8335" x2="176.1846" y2="93.6715">
		<stop  offset="5.000000e-006" style="stop-color:#F1991B"/>
		<stop  offset="0.2668" style="stop-color:#F6B836"/>
		<stop  offset="0.5337" style="stop-color:#FACF4A"/>
		<stop  offset="0.784" style="stop-color:#FCDD57"/>
		<stop  offset="0.9994" style="stop-color:#FDE25B"/>
	</linearGradient>
	<path fill="url(#SVGID_5_)" d="M210.336,17.582c-1.385-1.365-2.874-2.606-4.451-3.742c-0.13-0.784-0.266-1.476-0.41-2.01
		c-1.373-1.209-6.75-3.797-9.85-5.037c0.034,0.494,0.053,1.089,0.062,1.745C189.978,6.511,183.469,5.49,176.2,5.49
		c-7.268,0-13.776,1.021-19.485,3.047c0.009-0.656,0.028-1.251,0.062-1.745c-3.1,1.24-8.478,3.828-9.85,5.037
		c-0.144,0.534-0.28,1.225-0.41,2.009c-1.577,1.135-3.066,2.376-4.452,3.742c-13.327,13.137-13.172,32.106-13.159,32.908
		c0.017,1.019-0.736,7.178,4.247,8.012c29.548-3.667,62.851-2.132,85.724,0.333c4.638,0.5,3.967-6.812,4.617-8.724
		C223.471,47.261,222.804,29.871,210.336,17.582z"/>
	<path fill="#BF840E" d="M195.625,6.793c3.1,1.24,8.478,3.828,9.85,5.037c0.85,3.154,1.478,11.321,1.479,16.65
		c0.805-5.824,0.856-14.009-0.146-18.229c-3.102-2.534-9.107-5.333-13.091-6.65c-1.064,1.033-1.808,2.306-1.808,2.306
		s1.218,0.287,1.861,0.527c0.359,3.856,1.03,11.246,1.377,15.703C195.506,16.964,195.844,9.977,195.625,6.793z"/>
	<path fill="#BF840E" d="M158.684,3.6c-3.984,1.317-10.104,4.403-13.229,6.434c-1.001,4.221-0.812,12.622-0.008,18.446
		c0.001-5.329,0.629-13.496,1.479-16.65c1.373-1.209,6.75-3.797,9.85-5.037c-0.219,3.184,0.119,10.171,0.477,15.342
		c0.347-4.457,1.018-11.846,1.377-15.703c0.643-0.24,1.861-0.527,1.861-0.527S159.749,4.632,158.684,3.6z"/>
	<path fill="#BF840E" d="M176.201,57.125c7.017,0.264,19.776,1.918,23.568,1.066c0-9.851-10.44-24.754-11.252-30.3
		C187.656,22,187.038,7.51,185.654,3.167C185.136,1.543,179.206,0,176.201,0c-3.005,0-8.936,1.543-9.454,3.167
		c-1.384,4.343-2.002,18.833-2.864,24.724c-0.812,5.546-11.251,19.981-11.378,30.281C156.299,59.024,169.183,57.389,176.201,57.125z
		"/>
	<linearGradient id="SVGID_6_" gradientUnits="userSpaceOnUse" x1="176.2007" y1="-40.6665" x2="176.2007" y2="73.0091">
		<stop  offset="5.000000e-006" style="stop-color:#F1991B"/>
		<stop  offset="0.1051" style="stop-color:#F2A223"/>
		<stop  offset="0.7008" style="stop-color:#FAD04B"/>
		<stop  offset="0.9994" style="stop-color:#FDE25B"/>
	</linearGradient>
	<path fill="url(#SVGID_6_)" d="M153.544,58.359c0.715-5.265,4.315-14.069,7.387-19.579c2.505-4.493,4.482-8.042,4.855-10.589
		c0.332-2.267,0.624-5.715,0.933-9.367c0.459-5.432,1.029-12.156,1.792-14.816C169.454,3.2,173.628,2,176.201,2
		c2.572,0,6.747,1.2,7.69,2.009c0.763,2.66,1.332,9.384,1.792,14.816c0.309,3.651,0.601,7.1,0.933,9.367
		c0.373,2.547,2.351,6.096,4.855,10.589c3.072,5.51,6.671,14.313,7.387,19.579C194.99,58.851,157.411,58.851,153.544,58.359z"/>
	<linearGradient id="SVGID_7_" gradientUnits="userSpaceOnUse" x1="183.7148" y1="49.5" x2="183.7148" y2="-36.0028">
		<stop  offset="0.0095" style="stop-color:#FDE25B"/>
		<stop  offset="0.8034" style="stop-color:#FFF99B"/>
		<stop  offset="0.9994" style="stop-color:#FFFFAB"/>
	</linearGradient>
	<path fill="url(#SVGID_7_)" d="M174.655,2.75c2.572,0,6.747,1.2,7.691,2.009c0.763,2.66,1.332,9.384,1.791,14.816
		c0.309,3.651,0.601,7.1,0.933,9.367c0.373,2.547,2.526,5.811,5.247,10.184c4.123,6.625,8.218,19.275,8.541,19.234
		c-0.715-5.265-4.315-14.069-7.387-19.579c-2.504-4.493-4.482-8.042-4.855-10.589c-0.332-2.267-0.624-5.715-0.933-9.367
		c-0.459-5.432-1.028-12.156-1.792-14.816C182.948,3.2,178.773,2,176.201,2c-2.525,0-6.587,1.155-7.629,1.963
		C170.286,3.335,172.859,2.75,174.655,2.75z"/>
</g>
</svg>
