<?xml version="1.0" encoding="UTF-8" standalone="no"?>
<!-- Generator: Adobe Illustrator 15.0.0, SVG Export Plug-In . SVG Version: 6.00 Build 0)  -->

<svg
   xmlns:dc="http://purl.org/dc/elements/1.1/"
   xmlns:cc="http://creativecommons.org/ns#"
   xmlns:rdf="http://www.w3.org/1999/02/22-rdf-syntax-ns#"
   xmlns:svg="http://www.w3.org/2000/svg"
   xmlns="http://www.w3.org/2000/svg"
   xmlns:sodipodi="http://sodipodi.sourceforge.net/DTD/sodipodi-0.dtd"
   xmlns:inkscape="http://www.inkscape.org/namespaces/inkscape"
   version="1.1"
   x="0px"
   y="0px"
   width="775.591px"
   height="1675.189px"
   viewBox="0 0 775.591 1675.189"
   enable-background="new 0 0 775.591 1675.189"
   xml:space="preserve"
   id="svg2"
   inkscape:version="0.91 r13725"
   sodipodi:docname="Apron_NH_01.svg"><metadata
     id="metadata102"><rdf:RDF><cc:Work
         rdf:about=""><dc:format>image/svg+xml</dc:format><dc:type
           rdf:resource="http://purl.org/dc/dcmitype/StillImage" /><dc:title></dc:title></cc:Work></rdf:RDF></metadata><defs
     id="defs100" /><sodipodi:namedview
     pagecolor="#ffffff"
     bordercolor="#666666"
     borderopacity="1"
     objecttolerance="10"
     gridtolerance="10"
     guidetolerance="10"
     inkscape:pageopacity="0"
     inkscape:pageshadow="2"
     inkscape:window-width="969"
     inkscape:window-height="480"
     id="namedview98"
     showgrid="false"
     inkscape:zoom="0.14087963"
     inkscape:cx="387.7955"
     inkscape:cy="837.59448"
     inkscape:window-x="9"
     inkscape:window-y="30"
     inkscape:window-maximized="0"
     inkscape:current-layer="svg2" /><g
     id="Clothes"><g
       id="g5"><g
         id="g7"><g
           id="g9"><path
             fill="#3C3B40"
             d="M54.911,62.58C77.521,56.524,226.102,8.074,255.17,0c6.864,81.153,92.934,152.42,176.041,153.423      c104.727,1.264,134.848-79.942,136.059-133.237C594.318,35.528,700.91,96.9,728.365,114.665      c25.357,38.265,33.918,208.334,31.494,319.77c-2.121,97.43-2.422,317.349-7.268,416.67      c14.537,169.576,26.98,725.853,21.805,753.398C667.803,1694.945,167.961,1710.289,0,1581.086      c0-83.977,71.062-583.016,103.36-783.276c7.267-104.168,0.807-243.057-12.112-346.418      C140.909,341.168,155.04,191.782,54.911,62.58z"
             id="path11" /><path
             fill="#806B56"
             d="M419.012,1660.658c-178.028,0-328.178-32.339-404.335-86.782      c3.479-98.599,69.533-566.045,103.034-773.751l0.104-0.648l0.045-0.652c6.766-96.984,2.174-232.005-11.692-345.211      c29.618-67.469,79.817-228.877-27.332-383.005c19.026-5.878,47.517-14.946,77.106-24.366      c32.872-10.462,66.584-21.192,87.364-27.557C260.32,97.82,344.977,166.918,431.031,167.959l2.586,0.015      c89.334,0,135.949-59.043,146.096-123.941c39.791,22.827,112.723,65.092,137.979,81.057      c19.832,36.166,30.293,186.852,27.639,309.028c-0.744,34.05-1.27,83.785-1.828,136.436      c-1.072,100.977-2.283,215.426-5.426,279.845l-0.047,0.975l0.08,0.975c14.408,168.054,25.471,683.819,22.398,744.64      C709.281,1635.222,573.795,1660.658,419.012,1660.658z"
             id="path13" /><path
             fill="#8C785F"
             d="M738.109,852.348l-0.08-0.975l0.047-0.975c3.143-64.418,4.354-178.868,5.426-279.845      c0.559-52.651,1.084-102.385,1.828-136.436c2.654-122.176-7.807-272.862-27.639-309.028      c-25.256-15.964-98.188-58.23-137.979-81.057c-10.146,64.897-56.762,123.941-146.096,123.941l-2.586-0.015      C344.977,166.918,260.32,97.82,243.307,18.685c-20.78,6.365-54.492,17.094-87.364,27.557      c-29.59,9.419-58.08,18.488-77.106,24.366c77.119,110.932,72.725,225.628,53.165,306.365      c24.205,144.308,42.824,350.585,68.26,449.91c-46.028,236.193-78.732,557.174-97.61,789.957      c81.419,28.037,192.078,43.819,316.36,43.819c154.783,0,290.269-25.436,341.496-63.67      C763.58,1536.167,752.518,1020.401,738.109,852.348z"
             id="path15" /><path
             fill="#806B56"
             d="M239.97,534.202c137.788,31.118,329.512,22.38,428.108,6.911      C615.498,588.667,411.879,624.72,239.97,534.202z"
             id="path17" /><path
             fill="#806B56"
             d="M303.246,562.119c109.84,11.625,270.68,15.624,348.35,5.813      C589.227,608.258,398.574,617.707,303.246,562.119z"
             id="path19" /></g><g
           id="g21"><g
             id="g23"><path
               fill="#3C3B40"
               d="M101.759,738.681c2.898-3.667,8.059-4.907,8.059-4.907s-0.618,14.32-0.222,17.483       c30.232,36.344,96.249,75.083,192.666,101.037c75.181,20.294,74.955,195.615-19.288,191.589       c-126.379-4.107-191.515-65.725-207.909-108.722C96.121,873.44,102.124,780.368,101.759,738.681z"
               id="path25" /><path
               fill="#806B56"
               d="M265.447,1031.539c-93.334-9.777-153.529-52.05-173.681-91.201       c12.502-43.031,24.038-114.858,26.283-163.433c36.167,35.339,98.332,65.841,180.479,87.956       c35.658,10.347,48.114,66.267,39.75,112.419C332.652,1008.355,314.37,1036.032,265.447,1031.539z"
               id="path27" /><path
               fill="#8C785F"
               d="M338.279,977.281c8.363-46.152-4.092-102.072-39.75-112.419c-35.514-9.561-67.213-20.714-94.764-33.129       c-11.784,17.643-37.88,107.259-45.396,151.607c36.094,22.513,107.372,48.143,151.355,40.441       C326.655,1013.878,334.849,996.235,338.279,977.281z"
               id="path29" /></g><g
             id="g31"><path
               fill="#3C3B40"
               d="M758.805,766.462c-1.6-3.538-4.748-7.332-4.748-7.332s-0.527,21.521-1.688,24.161       c-12.646,26.407-32.225,43.593-95.467,56.607c-89.57,15.853-113.592,180.529-23.426,199.625       c110.145-3.176,130.773-38.514,132.969-82.058C761.324,903.364,756.318,815.809,758.805,766.462z"
               id="path33" /><path
               fill="#8C785F"
               d="M634.838,1026.39c-41.518-10.015-44.24-57.138-44.08-71.495c0.5-44.308,26.414-94.625,68.889-102.143       c43.521-8.956,68.316-18.389,84.607-33.32c0.984,48.306,4.813,103.804,8.049,138.18       C750.477,990.688,739.254,1022.997,634.838,1026.39z"
               id="path35" /></g></g></g></g></g></svg>