<?xml version="1.0" encoding="utf-8"?>
<!-- Generator: Adobe Illustrator 15.0.0, SVG Export Plug-In . SVG Version: 6.00 Build 0)  -->
<!DOCTYPE svg PUBLIC "-//W3C//DTD SVG 1.1//EN" "http://www.w3.org/Graphics/SVG/1.1/DTD/svg11.dtd">
<svg version="1.1" xmlns="http://www.w3.org/2000/svg" xmlns:xlink="http://www.w3.org/1999/xlink" x="0px" y="0px"
	 width="775.591px" height="1675.189px" viewBox="0 0 775.591 1675.189" enable-background="new 0 0 775.591 1675.189"
	 xml:space="preserve">
<g id="Clothes">
	<g>
		<g>
			<g>
				<path fill="#3C3B40" d="M54.911,62.58C77.521,56.524,226.102,8.074,255.17,0c6.864,81.153,92.934,152.42,176.041,153.423
					c104.727,1.264,134.848-79.942,136.059-133.237C594.318,35.528,700.91,96.9,728.365,114.665
					c25.357,38.265,33.918,208.334,31.494,319.77c-2.121,97.43-2.422,317.349-7.268,416.67
					c14.537,169.576,26.98,725.853,21.805,753.398C667.803,1694.945,167.961,1710.289,0,1581.086
					c0-83.977,71.062-583.016,103.36-783.276c7.267-104.168,0.807-243.057-12.112-346.418
					C140.909,341.168,155.04,191.782,54.911,62.58z"/>
				<path fill="#806B56" d="M419.012,1660.658c-178.028,0-328.178-32.339-404.335-86.782
					c3.479-98.599,69.533-566.045,103.034-773.751l0.104-0.648l0.045-0.652c6.766-96.984,2.174-232.005-11.692-345.211
					c29.618-67.469,79.817-228.877-27.332-383.005c19.026-5.878,47.517-14.946,77.106-24.366
					c32.872-10.462,66.584-21.192,87.364-27.557C260.32,97.82,344.977,166.918,431.031,167.959l2.586,0.015
					c89.334,0,135.949-59.043,146.096-123.941c39.791,22.827,112.723,65.092,137.979,81.057
					c19.832,36.166,30.293,186.852,27.639,309.028c-0.744,34.05-1.27,83.785-1.828,136.436
					c-1.072,100.977-2.283,215.426-5.426,279.845l-0.047,0.975l0.08,0.975c14.408,168.054,25.471,683.819,22.398,744.64
					C709.281,1635.222,573.795,1660.658,419.012,1660.658z"/>
				<path fill="#8C785F" d="M738.109,852.348l-0.08-0.975l0.047-0.975c3.143-64.418,4.354-178.868,5.426-279.845
					c0.559-52.651,1.084-102.385,1.828-136.436c2.654-122.176-7.807-272.862-27.639-309.028
					c-25.256-15.964-98.188-58.23-137.979-81.057c-10.146,64.897-56.762,123.941-146.096,123.941l-2.586-0.015
					C344.977,166.918,260.32,97.82,243.307,18.685c-20.78,6.365-54.492,17.094-87.364,27.557
					c-29.59,9.419-58.08,18.488-77.106,24.366c77.119,110.932,72.725,225.628,53.165,306.365
					c24.205,144.308,42.824,350.585,68.26,449.91c-46.028,236.193-78.732,557.174-97.61,789.957
					c81.419,28.037,192.078,43.819,316.36,43.819c154.783,0,290.269-25.436,341.496-63.67
					C763.58,1536.167,752.518,1020.401,738.109,852.348z"/>
				<path fill="#806B56" d="M239.97,534.202c137.788,31.118,329.512,22.38,428.108,6.911
					C615.498,588.667,411.879,624.72,239.97,534.202z"/>
				<path fill="#806B56" d="M303.246,562.119c109.84,11.625,270.68,15.624,348.35,5.813
					C589.227,608.258,398.574,617.707,303.246,562.119z"/>
			</g>
			<g>
				<g>
					<path fill="#3C3B40" d="M101.759,738.681c2.898-3.667,8.059-4.907,8.059-4.907s-0.618,14.32-0.222,17.483
						c30.232,36.344,96.249,75.083,192.666,101.037c75.181,20.294,74.955,195.615-19.288,191.589
						c-126.379-4.107-191.515-65.725-207.909-108.722C96.121,873.44,102.124,780.368,101.759,738.681z"/>
					<path fill="#806B56" d="M265.447,1031.539c-93.334-9.777-153.529-52.05-173.681-91.201
						c12.502-43.031,24.038-114.858,26.283-163.433c36.167,35.339,98.332,65.841,180.479,87.956
						c35.658,10.347,48.114,66.267,39.75,112.419C332.652,1008.355,314.37,1036.032,265.447,1031.539z"/>
					<path fill="#8C785F" d="M338.279,977.281c8.363-46.152-4.092-102.072-39.75-112.419c-35.514-9.561-67.213-20.714-94.764-33.129
						c-11.784,17.643-37.88,107.259-45.396,151.607c36.094,22.513,107.372,48.143,151.355,40.441
						C326.655,1013.878,334.849,996.235,338.279,977.281z"/>
				</g>
				<g>
					<path fill="#3C3B40" d="M758.805,766.462c-1.6-3.538-4.748-7.332-4.748-7.332s-0.527,21.521-1.688,24.161
						c-12.646,26.407-32.225,43.593-95.467,56.607c-89.57,15.853-113.592,180.529-23.426,199.625
						c110.145-3.176,130.773-38.514,132.969-82.058C761.324,903.364,756.318,815.809,758.805,766.462z"/>
					<path fill="#8C785F" d="M634.838,1026.39c-41.518-10.015-44.24-57.138-44.08-71.495c0.5-44.308,26.414-94.625,68.889-102.143
						c43.521-8.956,68.316-18.389,84.607-33.32c0.984,48.306,4.813,103.804,8.049,138.18
						C750.477,990.688,739.254,1022.997,634.838,1026.39z"/>
				</g>
			</g>
		</g>
	</g>
</g>
<g id="Arm">
	<g>
		<g>
			<path fill="#B0683A" d="M99.64,579.631c6.107-13.081,14.103-37.267,20.288-44.443c3.631-4.185,32.272-34.719,37.513-44.647
				c5.489-9.279,11.5-31.912,14.881-58.347c4.697-17.44,48.494,0.777,48.82,37.503c0.334,37.664-15.293,68.203-23.816,87.523
				C188.063,560.089,106.402,577.103,99.64,579.631z"/>
			
				<linearGradient id="SVGID_1_" gradientUnits="userSpaceOnUse" x1="75.5825" y1="767.3369" x2="124.4263" y2="783.2112" gradientTransform="matrix(0.9986 0.053 -0.053 0.9986 101.6191 -275.322)">
				<stop  offset="6.030000e-006" style="stop-color:#F3B190"/>
				<stop  offset="1" style="stop-color:#FFD1AF"/>
			</linearGradient>
			<path fill="url(#SVGID_1_)" d="M115.964,563.724c4.182-10.878,11.672-21.842,15.735-27.646
				c2.076-2.954,11.503-13.653,17.601-20.059c6.593-6.945,12.11-13.454,13.887-16.025c7.553-10.916,14.882-35.269,16.797-60.027
				c6.207-7.337,27.668,5.482,30.225,26.648c2.317,19.253-4.685,47.028-12.919,66.362c0,0,15.247,0.748,15.86,5.108
				C211.047,538.653,138.89,558.119,115.964,563.724z"/>
		</g>
		<g>
			<path fill="#B0683A" d="M75.276,569.718c15.473-10.33,45.25-31.751,45.25-31.751s7.941-2.372,14.034-5.264
				c14.413-6.798,25.158-5.866,41.048-9.028c33.355,3.295,52.424-4.488,88.332,3.707c14.735,44.997,11.423,91.201,11.973,159.618
				c0.127,16.238-2.117,37.001-6.552,43.464c-20.631,14.292-72.509,17.416-91.68,15.485c-24.721-3.655-89.314-21.19-100.02-26.198
				C95.521,707.839,118.276,633.907,75.276,569.718z"/>
			<linearGradient id="SVGID_2_" gradientUnits="userSpaceOnUse" x1="260.8618" y1="632.1836" x2="20.3322" y2="617.3563">
				<stop  offset="6.030000e-006" style="stop-color:#F3B190"/>
				<stop  offset="1" style="stop-color:#FFD1AF"/>
			</linearGradient>
			<path fill="url(#SVGID_2_)" d="M182.444,734.037c-38.103-6.344-80.243-18.652-96.837-24.598
				c-15.087-14.288-30.17-94.474-6.356-128.605c19.665-15.566,86.41-60.724,95.472-60.648c33.936,2.917,62.76,4.484,95.247,11.878
				c5.233,49.907-5.208,167.993-20.091,193.376C243.395,729.241,210.088,732.9,182.444,734.037z"/>
			
				<linearGradient id="SVGID_3_" gradientUnits="userSpaceOnUse" x1="231.4873" y1="880.5562" x2="87.1346" y2="908.0524" gradientTransform="matrix(0.9986 0.053 -0.053 0.9986 101.6191 -275.322)">
				<stop  offset="6.030000e-006" style="stop-color:#F3B190"/>
				<stop  offset="1" style="stop-color:#FFD1AF"/>
			</linearGradient>
			<path fill="url(#SVGID_3_)" d="M269.969,532.063c-32.487-7.394-48.792-6.467-82.721-9.383c-0.175,0-12.5,4.9-12.688,4.914
				c-5.998,55.719,1.535,98.496,6.297,167.155c-3.174,13.09-6.351,29.772,0.396,39.288c9.329,1.435,64.949-0.965,80.613-14.533
				c1.261-8.715,1.537-13.483,1.331-25.252C262.553,657.61,274.964,579.636,269.969,532.063z"/>
			<path fill="#B0683A" d="M190.842,577.103c5.367,2.178,72.843-5.208,83.464-4.351c5.541,1.719,18.082,9.671,21.651,14.226
				c4.372,11.703,1.389,33.943-3.375,49.419c-2.027,2.774-5.356,5.96-5.356,5.96s4.355,3.209,4.166,6.542
				c-0.106,16.251-6.289,42.408-13.69,45.849c-25.751,6.646-65.953,5.879-78.387,3.972
				C194.353,689.991,191.419,592.422,190.842,577.103z"/>
			
				<linearGradient id="SVGID_4_" gradientUnits="userSpaceOnUse" x1="294.7451" y1="905.4966" x2="89.0988" y2="909.5289" gradientTransform="matrix(0.9986 0.053 -0.053 0.9986 101.6191 -275.322)">
				<stop  offset="6.030000e-006" style="stop-color:#F3B190"/>
				<stop  offset="1" style="stop-color:#FFD1AF"/>
			</linearGradient>
			<path fill="url(#SVGID_4_)" d="M183.244,696.732c0.791-22.231-1.892-36.376-2.386-51.602c-1.437-20.792-3.97-42.071-7.142-64.297
				c7.496,0.388,17.099,5.344,17.099,5.344s41.386,0.971,60.691,1.804c5.655,2.594,25.562-0.028,29.711,1.373
				c5.975,11.059,6.408,32.362-0.736,46.645c-4.682,2.419-15.274,4.81-15.274,4.81s6.147,2.22,12.361,3.186
				c2.497,11.589,2.014,34.464-6.02,43.61C252.341,694.905,194.44,698.266,183.244,696.732z"/>
			<path fill="#B0683A" d="M197.921,644.738c-3.171,0.393-0.894,2.982,0.895,3.863c23.812,0,59.536,0.899,81.282-4.966
				c1.218-2.32,3.143-5.889,4.066-8.394C256.564,643.843,222.927,644.738,197.921,644.738z"/>
			<path fill="#B0683A" d="M194.944,585.274c-1.55-0.398-6.706-3.527-7.956-3.589c-0.972,4.707-0.497,10.23,0.516,17.204
				C189.289,592.342,191.671,586.978,194.944,585.274z"/>
			<path fill="#B0683A" d="M172.917,520.512c19.052-4.961,73.822-4.961,92.486-2.386c12.297,3.371,22.117,7.542,24.202,9.923
				c6.328,10.443,10.418,38.397,2.083,56.865c-8.337,6.534-19.021,10.411-26.196,10.411c-6.104,0-68.89-5.975-78.668-7.759
				C179.137,579.21,160.459,555.895,172.917,520.512z"/>
			<linearGradient id="SVGID_5_" gradientUnits="userSpaceOnUse" x1="294.8486" y1="559.1602" x2="183.3949" y2="555.0015">
				<stop  offset="6.030000e-006" style="stop-color:#F3B190"/>
				<stop  offset="1" style="stop-color:#FFD1AF"/>
			</linearGradient>
			<path fill="url(#SVGID_5_)" d="M266.589,587.187c0,0-70.156,0.985-90.099-2.878c-7.879-15.097-13.775-39.354-0.599-56.856
				c19.452-1.785,72.971-1.453,88.048-0.071c6.744,2.191,11.08,3.934,17.332,6.613c3.543,12.375,4.982,39.852,0.594,47.038
				C276.507,584.616,266.589,587.187,266.589,587.187z"/>
			<linearGradient id="SVGID_6_" gradientUnits="userSpaceOnUse" x1="305.5911" y1="559.5718" x2="273.2026" y2="557.686">
				<stop  offset="6.030000e-006" style="stop-color:#F3B190"/>
				<stop  offset="1" style="stop-color:#FFD1AF"/>
			</linearGradient>
			<path fill="url(#SVGID_6_)" d="M281.271,533.995c-6.343-3.968-16.848-6.703-17.061-6.741c7.738,11.111,8.531,44.06,1.983,59.933
				c4.289-0.407,10.313-2.57,15.672-6.154C286.254,573.846,284.815,546.369,281.271,533.995z"/>
		</g>
	</g>
</g>
</svg>
