<?xml version="1.0" encoding="UTF-8" standalone="no"?>
<!-- Generator: Adobe Illustrator 15.0.0, SVG Export Plug-In . SVG Version: 6.00 Build 0)  -->

<svg
   xmlns:dc="http://purl.org/dc/elements/1.1/"
   xmlns:cc="http://creativecommons.org/ns#"
   xmlns:rdf="http://www.w3.org/1999/02/22-rdf-syntax-ns#"
   xmlns:svg="http://www.w3.org/2000/svg"
   xmlns="http://www.w3.org/2000/svg"
   xmlns:sodipodi="http://sodipodi.sourceforge.net/DTD/sodipodi-0.dtd"
   xmlns:inkscape="http://www.inkscape.org/namespaces/inkscape"
   version="1.1"
   x="0px"
   y="0px"
   width="955.272px"
   height="1099.241px"
   viewBox="0 0 955.272 1099.241"
   enable-background="new 0 0 955.272 1099.241"
   xml:space="preserve"
   id="svg2"
   inkscape:version="0.91 r13725"
   sodipodi:docname="Fluo_Tshirt_01_NH.svg"><metadata
     id="metadata118"><rdf:RDF><cc:Work
         rdf:about=""><dc:format>image/svg+xml</dc:format><dc:type
           rdf:resource="http://purl.org/dc/dcmitype/StillImage" /><dc:title></dc:title></cc:Work></rdf:RDF></metadata><defs
     id="defs116" /><sodipodi:namedview
     pagecolor="#ffffff"
     bordercolor="#666666"
     borderopacity="1"
     objecttolerance="10"
     gridtolerance="10"
     guidetolerance="10"
     inkscape:pageopacity="0"
     inkscape:pageshadow="2"
     inkscape:window-width="969"
     inkscape:window-height="480"
     id="namedview114"
     showgrid="false"
     inkscape:zoom="0.2146936"
     inkscape:cx="477.63599"
     inkscape:cy="549.62048"
     inkscape:window-x="9"
     inkscape:window-y="30"
     inkscape:window-maximized="0"
     inkscape:current-layer="svg2" /><g
     id="Clothes"><g
       id="g5"><g
         id="g7"><g
           id="g9"><path
             fill="#93AB20"
             d="M806.767,109.234c155.775,57.453,141.24,319.549,148.506,404.336      c-24.225,2.422-154.635,15.422-168.766,16.229c-1.213-10.901-48.049-392.121-49.26-398.984      C746.937,128.394,801.519,110.851,806.767,109.234z"
             id="path11" /><path
             fill="#DBF74A"
             d="M799.243,514.162c-7.607-62.238-38.307-312.551-45.969-372.872c11.906-3.622,29.834-9.292,48.244-15.148      c1.785-0.568,3.388-1.076,4.756-1.511c120.723,49.133,128.168,241.244,132.197,345.041c0.439,11.337,0.84,21.685,1.342,30.835      C892.937,505.176,827.989,511.571,799.243,514.162z"
             id="path13" /></g><g
           id="g15"><g
             id="g17"><path
               fill="#93AB20"
               d="M177.044,81.759C275.559,46.633,402.335,8.478,424.138,0c9.69,117.896,239.828,124.759,239.828,18.168       c18.168,12.113,142.502,86.321,167.135,102.472c15.16,119.187,62.834,205.553,61.188,320.255       c-7.166,63.568-52.32,198.132-46.027,254.362c16.957,151.537,42.432,298.007,50.068,340.767       c-103.365,92.862-495.811,83.172-665.386-27.455c24.225-97.708,68.64-231.752,61.373-311.696       C263.245,583.017,147.973,231.952,177.044,81.759z"
               id="path19" /><path
               fill="#B7D130"
               d="M624.401,1084.706c-146.729,0-292.867-32.32-376.784-82.838c4.649-18.228,9.88-37.521,15.363-57.756       c23.311-85.997,49.728-183.467,43.812-248.554l-0.107-1.156l-0.286-1.125c-5.19-20.326-13.136-48.264-22.337-80.617       C241.62,463.438,171.212,215.889,189.92,92.613c57.876-20.42,123.919-41.521,172.729-57.115       c20.742-6.629,37.929-12.121,50.143-16.168c15.735,58.341,81.816,88.733,144.697,88.733c59.91,0,104.621-26.135,117.34-65.917       c15.33,9.43,37.217,22.7,59.904,36.45c32.871,19.926,66.73,40.452,82.844,50.638c12.936,30.65,36.684,83.565,48.063,125.128       c16.021,58.516,19.381,128.392,12.123,185.605c-2.783,23.917-11.178,58.76-20.064,95.625       c-14.75,61.198-29.998,124.479-25.885,161.281c15.605,139.456,38.279,274.234,48.725,333.381       C836.081,1064.463,741.485,1084.706,624.401,1084.706z"
               id="path21" /><path
               fill="#DBF74A"
               d="M857.698,535.593c8.887-36.864,17.281-71.707,20.064-95.625c7.258-57.213,3.898-127.09-12.123-185.605       c-11.379-41.563-35.127-94.479-48.063-125.128c-16.113-10.186-49.973-30.712-82.844-50.638       c-22.688-13.75-44.574-27.02-59.904-36.45c-12.719,39.782-57.43,65.917-117.34,65.917c-62.881,0-128.962-30.393-144.697-88.733       c-12.213,4.047-29.4,9.539-50.143,16.168c-45.196,14.439-105.161,33.6-159.74,52.57       C219.186,214.961,295.675,438.312,323,461.082c67.829,56.527,176.037,61.371,277.782,56.527       c-66.211,48.449-156.658,64.601-219.642,58.14c20.995,125.97-22.609,384.37-42.276,466.46       c80.903,26.718,183.065,42.497,285.538,42.497c117.084,0,211.68-20.243,256.137-54.452       c-10.445-59.146-33.119-193.925-48.725-333.381C827.7,660.072,842.948,596.791,857.698,535.593z"
               id="path23" /><linearGradient
               id="SVGID_1_"
               gradientUnits="userSpaceOnUse"
               x1="120.7188"
               y1="885.8384"
               x2="836.5707"
               y2="885.8384"><stop
                 offset="0"
                 style="stop-color:#949FA1"
                 id="stop26" /><stop
                 offset="1"
                 style="stop-color:#B7C6C9"
                 id="stop28" /></linearGradient><path
               fill="url(#SVGID_1_)"
               d="M863.62,926.205c-4.551-28.821-9.113-60.783-13.93-94.881       c-113.248,28.664-408.795,23.819-555.357-16.151c-6.582,31.823-14.79,64.994-23.419,97.304       C439.279,963.35,742.901,973.04,863.62,926.205z"
               id="path30" /><path
               fill="#868F98"
               d="M294.333,815.172c-6.582,31.823-14.79,64.994-23.419,97.304c25.924,7.833,57.816,15.203,88.994,21.026       c6.696-32.938,11.541-80.176,14.599-101.878C345.322,827.066,317.421,821.47,294.333,815.172z"
               id="path32" /><linearGradient
               id="SVGID_2_"
               gradientUnits="userSpaceOnUse"
               x1="-127.4888"
               y1="243.5742"
               x2="914.1866"
               y2="340.4743"><stop
                 offset="0"
                 style="stop-color:#949FA1"
                 id="stop35" /><stop
                 offset="1"
                 style="stop-color:#B7C6C9"
                 id="stop37" /></linearGradient><path
               fill="url(#SVGID_2_)"
               d="M848.519,441.71c-3.078-136.106-24.569-255.299-51.518-326.236       c-17.146-10.516-79-47.75-86.803-52.489c31.625,125.696,53.375,257.796,53.658,386.275       c-103.199,6.774-207.109,5.099-310.468-2.459c-16.899-150.574-38.808-325.978-95.262-410.463       c-26.272,8.398-61.166,19.983-92.36,30.281c38.553,47.815,67.357,232.444,77.42,370.002       c-37.035-4.121-73.947-8.845-110.653-14.148c9.45,38.163,19.465,75.608,29.127,110.593       c195.981,30.057,398.426,42.79,593.985,14.42c10.773-43.172,22.105-98.111,22.713-109.315       C868.429,439.467,858.472,440.585,848.519,441.71z"
               id="path39" /><path
               fill="#868F98"
               d="M304.636,432.107c-22.868-2.834-49.371-6.349-72.103-9.634c9.45,38.163,19.465,75.608,29.127,110.593       c70.801,10.858,142.448,19.404,214.31,24.621C367.76,526.038,345.052,512.198,304.636,432.107z"
               id="path41" /></g><g
             id="g43"><path
               fill="#93AB20"
               d="M553.761,148.205c-66.552,0.003-119.336-31.567-146.804-61.508       c-20.122-21.93-29.998-45.683-27.816-66.881l7.229,0.743c-1.966,19.104,7.246,40.848,25.943,61.227       c26.877,29.294,79.257,60.252,144.804,59.124c98.375-1.623,136.199-57.127,136.932-91.732l7.268,0.156       c-0.789,37.308-40.605,97.135-144.076,98.844C556.075,148.197,554.911,148.205,553.761,148.205z"
               id="path45" /></g></g><g
           id="g47"><path
             fill="#93AB20"
             d="M177.044,81.759c-47.845,20.819-73.684,103.16-118.906,200.061C38.76,322.195,14.535,365.797,0,390.023      c40.373,12.921,179.265,77.521,188.955,87.21c22.61-45.221,83.981-172.807,95.285-208.335      C287.467,186.532,231.954,88.22,177.044,81.759z"
             id="path49" /><path
             fill="#DBF74A"
             d="M181.687,457.046c-35.464-19.515-119.178-58.736-160.318-74.714      c15.015-26.07,34.246-61.663,49.874-94.222c9.622-20.618,18.193-40.158,26.48-59.058      c28.249-64.417,50.785-115.802,81.494-132.208c84.43,8.536,108.98,95.472,91.698,170.843      C259.803,300.919,207.631,403.542,181.687,457.046z"
             id="path51" /></g></g></g></g></svg>