<?xml version="1.0" encoding="UTF-8" standalone="no"?>
<!-- Generator: Adobe Illustrator 15.0.0, SVG Export Plug-In . SVG Version: 6.00 Build 0)  -->

<svg
   xmlns:dc="http://purl.org/dc/elements/1.1/"
   xmlns:cc="http://creativecommons.org/ns#"
   xmlns:rdf="http://www.w3.org/1999/02/22-rdf-syntax-ns#"
   xmlns:svg="http://www.w3.org/2000/svg"
   xmlns="http://www.w3.org/2000/svg"
   xmlns:sodipodi="http://sodipodi.sourceforge.net/DTD/sodipodi-0.dtd"
   xmlns:inkscape="http://www.inkscape.org/namespaces/inkscape"
   version="1.1"
   x="0px"
   y="0px"
   width="1161.275px"
   height="1158.873px"
   viewBox="0 0 1161.275 1158.873"
   enable-background="new 0 0 1161.275 1158.873"
   xml:space="preserve"
   id="svg2"
   inkscape:version="0.91 r13725"
   sodipodi:docname="Fluo_Tshirt_Long_NH_01.svg"><metadata
     id="metadata168"><rdf:RDF><cc:Work
         rdf:about=""><dc:format>image/svg+xml</dc:format><dc:type
           rdf:resource="http://purl.org/dc/dcmitype/StillImage" /><dc:title></dc:title></cc:Work></rdf:RDF></metadata><defs
     id="defs166" /><sodipodi:namedview
     pagecolor="#ffffff"
     bordercolor="#666666"
     borderopacity="1"
     objecttolerance="10"
     gridtolerance="10"
     guidetolerance="10"
     inkscape:pageopacity="0"
     inkscape:pageshadow="2"
     inkscape:window-width="969"
     inkscape:window-height="480"
     id="namedview164"
     showgrid="false"
     inkscape:zoom="0.20364612"
     inkscape:cx="580.63751"
     inkscape:cy="579.43652"
     inkscape:window-x="9"
     inkscape:window-y="30"
     inkscape:window-maximized="0"
     inkscape:current-layer="svg2" /><g
     id="Clothes"><g
       id="g5"><g
         id="g7"><g
           id="g9"><g
             id="g11"><path
               fill="#93AB20"
               d="M1092.639,667.399c-2.623-46.133-2.422-164.991-2.422-222.87       c4.846-167.962-27.859-296.756-155.775-335.294c-5.248,1.616-59.83,19.159-69.52,21.581       c4.039,37.953,65.408,564.443,71.975,657.199c30.912,117.817,87.392,338.922,98.412,370.751       c20.992,1.614,92.053-15.343,125.967-29.879C1143.51,1022.296,1144.719,896.326,1092.639,667.399z"
               id="path13" /><path
               fill="#B7D130"
               d="M1045.871,1143.9c-11.736-39.571-42.463-157.899-67.644-254.875       c-9.816-37.803-19.164-73.787-26.926-103.399c-5.553-75.871-43.98-411.615-62.504-573.475       c-3.574-31.217-6.436-56.204-8.082-70.79c11.914-3.62,29.951-9.326,48.479-15.219c2.016-0.638,3.793-1.206,5.273-1.675       c103.029,33.3,146.627,132.166,141.219,319.643l-0.004,11.921c-0.018,63.029-0.035,168.523,2.443,212.194l0.071,1.212       l0.271,1.186c34.764,152.803,45.66,259.573,54.412,345.364c3.898,38.168,7.318,71.698,12.203,103.672       C1114.686,1130.833,1068.777,1141.628,1045.871,1143.9z"
               id="path15" /><path
               fill="#DBF74A"
               d="M1132.879,1015.987c-8.752-85.791-19.648-192.561-54.412-345.364l-0.271-1.186l-0.071-1.212       c-2.478-43.671-2.461-149.165-2.443-212.194l0.004-11.921c5.094-176.608-33.318-274.557-123.918-313.161       c24.516,185.32,39.266,371.105,60.928,552.197c26.283,87.264,42.25,301,73.029,453.603       c20.113-4.603,42.203-10.788,59.357-17.09C1140.197,1087.685,1136.777,1054.155,1132.879,1015.987z"
               id="path17" /><linearGradient
               id="SVGID_1_"
               gradientUnits="userSpaceOnUse"
               x1="917.7559"
               y1="512.2056"
               x2="1076.2852"
               y2="512.2056"><stop
                 offset="0"
                 style="stop-color:#949FA1"
                 id="stop20" /><stop
                 offset="1"
                 style="stop-color:#B7C6C9"
                 id="stop22" /></linearGradient><path
               fill="url(#SVGID_1_)"
               d="M1076.082,448.367c-52.357,8.304-105.482,14.173-158.326,18.674       c4.152,36.993,8.264,73.917,12.117,109.003c41.842-1.506,96.75-7.159,146.412-16.648       C1076.053,522.686,1076.082,448.367,1076.082,448.367z"
               id="path24" /><linearGradient
               id="SVGID_2_"
               gradientUnits="userSpaceOnUse"
               x1="967.2578"
               y1="875.1333"
               x2="1121.2539"
               y2="875.1333"><stop
                 offset="0"
                 style="stop-color:#949FA1"
                 id="stop27" /><stop
                 offset="1"
                 style="stop-color:#B7C6C9"
                 id="stop29" /></linearGradient><path
               fill="url(#SVGID_2_)"
               d="M1107.02,812.447c-45.568,16.156-92.475,28.668-139.762,34.359       c3.545,13.644,7.219,27.794,10.969,42.219c4.111,15.841,8.375,32.252,12.676,48.795c43.811-5.161,88.307-14.474,130.352-28.927       C1117.471,879.347,1112.902,847.32,1107.02,812.447z"
               id="path31" /><path
               fill="#868F98"
               d="M967.258,846.806c3.545,13.644,7.219,27.794,10.969,42.219c4.111,15.841,8.375,32.252,12.676,48.795       c20.391-2.404,41.939-5.916,62.232-10.2c-3.619-23.313-10.291-78.19-12.746-94.682       C1016.498,838.993,991.57,843.879,967.258,846.806z"
               id="path33" /></g><g
             id="g35"><path
               fill="#93AB20"
               d="M304.719,81.759C403.233,46.633,530.01,8.478,551.813,0c9.69,117.896,239.828,124.759,239.828,18.168       c18.168,12.113,142.502,86.321,167.135,102.472c15.16,119.187,62.398,203.974,58.765,323.889       c-7.166,63.568-49.898,194.499-43.605,250.729c16.957,151.537,42.432,298.007,50.068,340.767       c-103.365,92.862-495.811,83.172-665.386-27.455c24.225-97.708,68.64-231.752,61.373-311.696       C390.919,583.017,275.648,231.952,304.719,81.759z"
               id="path37" /><path
               fill="#B7D130"
               d="M752.076,1084.706c-146.729,0-292.867-32.32-376.784-82.838c4.649-18.228,9.88-37.521,15.363-57.756       c23.311-85.997,49.728-183.467,43.812-248.554l-0.107-1.156l-0.286-1.125c-5.19-20.326-13.136-48.264-22.337-80.617       c-42.441-149.222-112.849-396.772-94.141-520.048c57.876-20.42,123.919-41.521,172.729-57.115       c20.742-6.629,37.929-12.121,50.143-16.168c15.735,58.341,81.816,88.733,144.697,88.733c59.91,0,104.621-26.135,117.34-65.917       c15.33,9.43,37.217,22.7,59.904,36.45c32.871,19.926,66.73,40.452,82.844,50.638c12.936,30.65,36.684,83.565,48.063,125.128       c16.021,58.516,19.381,128.392,12.123,185.605c-2.783,23.917-11.178,58.76-20.064,95.625       c-14.75,61.198-29.998,124.479-25.885,161.281c15.605,139.456,38.279,274.234,48.725,333.381       C963.756,1064.463,869.16,1084.706,752.076,1084.706z"
               id="path39" /><path
               fill="#DBF74A"
               d="M985.373,535.593c8.887-36.864,17.281-71.707,20.064-95.625c7.258-57.213,6.32-127.09-9.699-185.605       c-11.379-41.563-32.303-93.669-50.486-125.128c-16.113-10.186-49.973-30.712-82.844-50.638       c-22.688-13.75-44.574-27.02-59.904-36.45c-12.719,39.782-57.43,65.917-117.34,65.917c-62.881,0-128.962-30.393-144.697-88.733       c-12.213,4.047-29.4,9.539-50.143,16.168c-45.196,14.439-105.161,33.6-159.74,52.57       c16.276,126.893,92.766,350.244,120.09,373.014c67.829,56.527,176.037,61.371,277.782,56.527       c-66.211,48.449-156.658,64.601-219.642,58.14c20.995,125.97-22.609,384.37-42.276,466.46       c80.903,26.718,183.065,42.497,285.538,42.497c117.084,0,211.68-20.243,256.137-54.452       c-10.445-59.146-33.119-193.925-48.725-333.381C955.375,660.072,970.623,596.791,985.373,535.593z"
               id="path41" /><g
               id="g43"><path
                 fill="#93AB20"
                 d="M681.436,148.205c-66.552,0.003-119.336-31.567-146.804-61.508        c-20.122-21.93-29.998-45.683-27.816-66.881l7.229,0.743c-1.966,19.104,7.246,40.848,25.943,61.227        c26.877,29.294,79.257,60.252,144.804,59.124c98.375-1.623,136.199-57.127,136.932-91.732l7.268,0.156        c-0.789,37.308-40.605,97.135-144.076,98.844C683.75,148.197,682.586,148.205,681.436,148.205z"
                 id="path45" /></g></g><g
             id="g47"><path
               fill="#93AB20"
               d="M304.719,81.759c-53.901,22.409-86.202,105.984-131.421,202.885       c-19.38,40.375-124.76,268.494-152.619,310.08c24.63-1.211,223.276-1.211,238.617-1.211       c22.612-45.221,141.314-289.086,152.618-324.615C415.142,186.532,359.629,88.22,304.719,81.759z"
               id="path49" /><path
               fill="#DBF74A"
               d="M46.321,579.675c30.967-56.735,88.795-179.778,122.175-250.8c8.124-17.288,14.412-30.669,17.904-37.941       c5.543-11.877,10.831-23.416,15.99-34.676c34.277-74.813,64.02-139.723,104.295-159.443       c69.696,0.895,111.689,76.799,90.771,169.479C384.5,303.221,283.109,512.787,250.294,578.978       C209.885,578.988,99.25,579.07,46.321,579.675z"
               id="path51" /><linearGradient
               id="SVGID_3_"
               gradientUnits="userSpaceOnUse"
               x1="142.8149"
               y1="369.02"
               x2="357.6631"
               y2="369.02"><stop
                 offset="0"
                 style="stop-color:#949FA1"
                 id="stop54" /><stop
                 offset="1"
                 style="stop-color:#B7C6C9"
                 id="stop56" /></linearGradient><path
               fill="url(#SVGID_3_)"
               d="M188.033,286.665c-0.698,1.499-35.953,76.281-45.218,95.89       c62.987,1.68,128.295,24.388,168.938,70.037c15.732-32.77,31.867-66.684,45.91-96.73       C323.057,306.432,250.907,279.221,188.033,286.665z"
               id="path58" /></g></g><linearGradient
           id="SVGID_4_"
           gradientUnits="userSpaceOnUse"
           x1="248.3936"
           y1="885.8384"
           x2="964.2455"
           y2="885.8384"><stop
             offset="0"
             style="stop-color:#949FA1"
             id="stop61" /><stop
             offset="1"
             style="stop-color:#B7C6C9"
             id="stop63" /></linearGradient><path
           fill="url(#SVGID_4_)"
           d="M991.295,926.205c-4.551-28.821-9.113-60.783-13.93-94.881     c-113.248,28.664-408.795,23.819-555.357-16.151c-6.582,31.823-14.79,64.994-23.419,97.304     C566.954,963.35,870.576,973.04,991.295,926.205z"
           id="path65" /><linearGradient
           id="SVGID_5_"
           gradientUnits="userSpaceOnUse"
           x1="0.3232"
           y1="243.5874"
           x2="1041.616"
           y2="340.4519"><stop
             offset="0"
             style="stop-color:#949FA1"
             id="stop68" /><stop
             offset="1"
             style="stop-color:#B7C6C9"
             id="stop70" /></linearGradient><path
           fill="url(#SVGID_5_)"
           d="M976.193,441.71c-3.078-136.106-24.569-255.299-51.518-326.236     c-17.146-10.516-79-47.75-86.803-52.489c31.625,125.696,53.375,257.796,53.658,386.275     c-103.199,6.774-207.109,5.099-310.468-2.459c-16.899-150.574-38.808-325.978-95.262-410.463     c-26.272,8.398-61.166,19.983-92.36,30.281c38.553,47.815,67.357,232.444,77.42,370.002     c-37.035-4.121-73.947-8.845-110.653-14.148c9.45,38.163,19.465,75.608,29.127,110.593     c195.981,30.057,398.426,42.79,593.985,14.42c9.994-36.944,21.5-89.633,22.41-109.315     C995.799,439.467,986.146,440.585,976.193,441.71z"
           id="path72" /><path
           fill="#868F98"
           d="M702.615,536.988c-18.486,10.05-41.184,17.765-60.029,23.239c-84.886-4.652-169.674-14.342-253.25-27.181     c-9.641-34.98-19.672-72.433-29.118-110.562c23.933,3.439,47.965,6.686,72.093,9.594c7.22,14.825,14.758,23.901,18.363,29.019     C483.378,507.514,600.869,541.833,702.615,536.988z"
           id="path74" /><path
           fill="#868F98"
           d="M422.008,815.172c-6.582,31.823-14.79,64.994-23.419,97.304c24.863,7.511,59.258,15.358,88.994,21.024     c2.336-17.502,13.688-92.427,14.596-101.876C475.02,827.243,443.711,821.091,422.008,815.172z"
           id="path76" /></g></g></g><g
     id="Capa_4"><g
       id="g151"><path
         fill="#93AB20"
         d="M0.088,631.062c-2.423-27.859,45.183-115.069,122.741-115.069c45.22,0,90.438,32.302,123.547,41.992    c26.245,7.672,81.961,16.149,81.961,16.149c-42.394,44.816-27.859,135.661,3.634,157.463    C292,737.652,154.741,757.223,98.2,737.652C66.707,726.751,4.933,686.779,0.088,631.062z"
         id="path153" /><path
         fill="#DBF74A"
         d="M170.913,731.608c-30.353,0-53.217-2.588-67.959-7.691c-25.904-8.967-84.124-45.114-88.386-94.113    c-0.733-8.435,8.527-35.368,26.703-56.478c12.288-14.274,39.513-41.687,79.942-43.605c33.413-1.584,74.291,21.802,109.012,35.531    c29.877,8.881,55.221,13.132,74.292,16.148c-12.288,22.733-19.326,55.435-16.107,86.321c2.117,20.333,7.766,38.858,15.83,53.182    C252.623,727.924,206.916,731.608,170.913,731.608z"
         id="path155" /><linearGradient
         id="SVGID_13_"
         gradientUnits="userSpaceOnUse"
         x1="124.3574"
         y1="843.8232"
         x2="165.7543"
         y2="560.1338"><stop
           offset="0"
           style="stop-color:#949FA1"
           id="stop158" /><stop
           offset="1"
           style="stop-color:#B7C6C9"
           id="stop160" /></linearGradient><path
         fill="url(#SVGID_13_)"
         d="M157.146,534.971c-50.243,25.615-85.807,76.998-74.694,140.907    c4.728,17.333,13.546,35.023,23.923,49.662c14.771,4.599,35.699,6.663,64.499,6.663c9.636,0,20.237-0.39,31.189-0.909    c-27.257-31.712-28.939-90.025-8.176-128.09c10.652-17.043,26.461-28.482,44.01-35.934c-2.387-0.667-8.254-2.704-10.701-3.432    C204.081,554.696,181.7,542.453,157.146,534.971z"
         id="path162" /></g></g></svg>