<?xml version="1.0" encoding="UTF-8" standalone="no"?>
<!-- Generator: Adobe Illustrator 15.0.0, SVG Export Plug-In . SVG Version: 6.00 Build 0)  -->

<svg
   xmlns:dc="http://purl.org/dc/elements/1.1/"
   xmlns:cc="http://creativecommons.org/ns#"
   xmlns:rdf="http://www.w3.org/1999/02/22-rdf-syntax-ns#"
   xmlns:svg="http://www.w3.org/2000/svg"
   xmlns="http://www.w3.org/2000/svg"
   xmlns:sodipodi="http://sodipodi.sourceforge.net/DTD/sodipodi-0.dtd"
   xmlns:inkscape="http://www.inkscape.org/namespaces/inkscape"
   version="1.1"
   x="0px"
   y="0px"
   width="1195.828px"
   height="1253.212px"
   viewBox="0 0 1195.828 1253.212"
   enable-background="new 0 0 1195.828 1253.212"
   xml:space="preserve"
   id="svg2"
   inkscape:version="0.91 r13725"
   sodipodi:docname="Fluo_Jacket_NH_01.svg"><metadata
     id="metadata240"><rdf:RDF><cc:Work
         rdf:about=""><dc:format>image/svg+xml</dc:format><dc:type
           rdf:resource="http://purl.org/dc/dcmitype/StillImage" /><dc:title></dc:title></cc:Work></rdf:RDF></metadata><defs
     id="defs238" /><sodipodi:namedview
     pagecolor="#ffffff"
     bordercolor="#666666"
     borderopacity="1"
     objecttolerance="10"
     gridtolerance="10"
     guidetolerance="10"
     inkscape:pageopacity="0"
     inkscape:pageshadow="2"
     inkscape:window-width="969"
     inkscape:window-height="480"
     id="namedview236"
     showgrid="false"
     inkscape:zoom="0.1883161"
     inkscape:cx="597.914"
     inkscape:cy="626.60602"
     inkscape:window-x="9"
     inkscape:window-y="30"
     inkscape:window-maximized="0"
     inkscape:current-layer="svg2" /><g
     id="Clothes"><g
       id="g5"><g
         id="g7"><g
           id="g9"><path
             fill="#93AB20"
             d="M1035.537,1176.932c4.846,25.843,11.711,68.232,15.746,73.078      c21.803,10.499,117.49-6.458,138.082-27.051c-1.615-36.337-4.037-69.043-4.845-77.924      C1160.294,1147.862,1051.685,1173.703,1035.537,1176.932z"
             id="path11" /><path
             fill="#DBF74A"
             d="M1073.468,1238.675c-5.162,0-8.781-0.304-11.25-0.664c-2.713-10.232-6.742-32.608-9.328-46.937      c-0.18-0.991-0.354-1.973-0.533-2.949c5.396-1.216,11.967-2.714,19.48-4.424c29.215-6.655,74.111-16.881,99.438-21.728      c0.959,13.373,2.201,32.854,3.225,54.159C1156.448,1227.146,1106.457,1238.675,1073.468,1238.675      C1073.468,1238.675,1073.47,1238.675,1073.468,1238.675z"
             id="path13" /><path
             fill="#93AB20"
             d="M959.226,184.917c97.711,34.723,150.197,139.699,157.465,217.219      c2.422,87.21,14.535,318.155,24.223,388.407c19.381,92.056,52.49,329.46,54.914,351.263      c-9.689,48.451-115.475,77.521-160.291,54.507C1027.056,1162.397,966.494,320.577,959.226,184.917z"
             id="path15" /><path
             fill="#DBF74A"
             d="M1039.171,1185.411c-10.537-81.705-52.725-788.594-64.096-977.944      c74.873,37.601,120.199,123.737,127.096,195.557c2.51,89.481,14.75,319.941,24.346,389.503l0.07,0.509l0.104,0.501      c18.477,87.766,51.311,318.101,55.406,351.499C1175.029,1175.796,1090.042,1212.868,1039.171,1185.411z"
             id="path17" /><linearGradient
             id="SVGID_1_"
             gradientUnits="userSpaceOnUse"
             x1="838.6357"
             y1="1019.5757"
             x2="1101.067"
             y2="971.1264"><stop
               offset="0"
               style="stop-color:#949FA1"
               id="stop20" /><stop
               offset="1"
               style="stop-color:#B7C6C9"
               id="stop22" /></linearGradient><path
             fill="url(#SVGID_1_)"
             d="M1148.058,914.391c-42.225,9.777-84.881,17.618-127.656,23.256      c2.273,34.224,4.455,66.359,6.494,95.543c44.863-9.152,90.896-16.151,135.332-27.311      C1157.757,976.092,1152.904,944.572,1148.058,914.391z"
             id="path24" /><linearGradient
             id="SVGID_2_"
             gradientUnits="userSpaceOnUse"
             x1="862.0955"
             y1="563.5923"
             x2="1100.4633"
             y2="541.8491"><stop
               offset="0"
               style="stop-color:#949FA1"
               id="stop27" /><stop
               offset="1"
               style="stop-color:#B7C6C9"
               id="stop29" /></linearGradient><path
             fill="url(#SVGID_2_)"
             d="M1105.323,483.958c-29.386,5.704-74.492,8.016-112.443,11.995      c2.102,34.388,4.287,76.114,6.516,112.132c37.947-1.978,74.957-7.812,111.525-16.028      C1108.616,552.05,1106.896,518.995,1105.323,483.958z"
             id="path31" /></g><g
           id="g33"><g
             id="g35"><path
               fill="#93AB20"
               d="M350.494,1049.679c-1.435,17.778,3.049,61.746,11.689,77.405       c85.538,54.004,495.644,90.496,674.794,8.875c13.404-8.448,13.83-69.186,12.445-86.13       C967.491,1052.816,404.572,1049.135,350.494,1049.679z"
               id="path37" /><path
               fill="#B7D130"
               d="M744.287,1169.139c-170.801,1.742-322.877-25.394-370.828-52.259       c-4.334-11.149-7.84-35.005-8.575-52.719c29.027-0.024,89.896,0.203,163.458,0.482c162.028,0.606,383.935,1.438,481.886,0.44       c9.845-0.099,18.281-0.214,25.25-0.351c0.176,22.049-2.299,51.146-6.871,59.052       C965.48,1151.82,864.679,1167.914,744.287,1169.139z"
               id="path39" /><path
               fill="#DBF74A"
               d="M1035.478,1064.732c-6.969,0.136-15.405,0.251-25.25,0.351c-97.951,0.999-319.857,0.167-481.886-0.44       c-32.403-0.123-62.332-0.236-88.172-0.321c0.855,27.563,3.607,55.429,14.698,78.845       c71.87,15.658,176.541,27.123,289.418,25.973c120.393-1.225,221.193-17.319,284.32-45.355       C1033.179,1115.877,1035.654,1086.781,1035.478,1064.732z"
               id="path41" /></g><path
             fill="#93AB20"
             d="M853.847,107.396c-15.746,70.858-52.981,175.159-95.688,188.956      c9.084,103.563,15.656,196.912,16.959,310.081c2.771,241.825,1.18,504.06,2.422,513.57      c98.887-1.495,235.615-21.479,268.898-41.182c18.393-13.001,22.236-64.63,21.802-77.521      c-4.142-120.336-4.84-342.613-2.449-408.96c2.4-66.359,7.783-289.854-53.27-378.354      C965.282,182.495,872.017,120.115,853.847,107.396z"
             id="path43" /><path
             fill="#DBF74A"
             d="M791.302,1105.142c-2.35-57.49-13.762-285.231-13.762-497.499c0-41.788-0.926-91.484-3.029-144.139      c-3.393-84.686-10.695-87.411-13.119-151.002c61.365-30.686,86.398-127.586,101.168-181.539      c32.539,22.061,97.25,65.343,139.512,93.522c37.654,57.378,55.574,190.888,49.195,367.329      c-2.465,68.397-1.613,291.979,2.447,409.984c0.602,17.842-5.426,56.996-15.279,64.859      C1009.083,1083.303,886.615,1102.13,791.302,1105.142z"
             id="path45" /><path
             fill="#93AB20"
             d="M322.108,155.846c13.324-9.69,196.106-73.643,204.702-75.097      c19.54,26.647,131.32,160.382,204.548,229.703c26.844,142.052,53.445,249.147,60.715,808.745      c-129.195,11.306-382.533-8.589-438.473-51.276c-6.766-6.239-27.858-20.592-27.858-49.662      c0-128.461,14.939-436.052,22.208-515.994c42.258-90.075,27.913-174.484-20.996-296.757      C323.319,196.424,316.353,159.692,322.108,155.846z"
             id="path47" /><path
             fill="#B7D130"
             d="M362.876,1056.708c-0.755-0.672-1.627-1.422-2.594-2.248c-7.481-6.39-20.005-17.084-20.005-36.202      c0-126.754,13.448-424.101,20.592-504.688c39.23-85.795,35-174.91-20.419-313.461c-2.546-6.359-5.941-25.509-6.054-34.44      c24.936-11.642,143.339-53.827,183.166-66.926c17.28,47.03,92.079,195.657,194.57,224.256      c14.156,53.293,49.662,207.125,62.986,272.532c2.422,127.182,14.973,320.102,14.531,507.514      C632.998,1114.351,406.031,1088.847,362.876,1056.708z"
             id="path49" /><path
             fill="#DBF74A"
             d="M775.119,595.531c-13.324-65.407-47.24-257.391-64.803-310.686      c-80.754-82.367-158.07-153.223-192.754-186.102c-39.827,13.099-158.23,55.284-183.166,66.926      c0.112,8.931,3.507,28.082,6.054,34.44c36.373,90.934,50.695,160.571,45.152,221.953c1.98,193.078-18.4,386.16,9.181,579.238      c2.111,23.215,6.983,51.021,17.814,74.619c86.373,22.063,253.535,38.463,377.053,29.548      C790.091,918.055,777.541,722.712,775.119,595.531z"
             id="path51" /><linearGradient
             id="SVGID_3_"
             gradientUnits="userSpaceOnUse"
             x1="354.812"
             y1="359.8047"
             x2="1052.5313"
             y2="359.8047"><stop
               offset="0"
               style="stop-color:#949FA1"
               id="stop54" /><stop
               offset="1"
               style="stop-color:#B7C6C9"
               id="stop56" /></linearGradient><path
             fill="url(#SVGID_3_)"
             d="M1051.982,481.571c-11.273,1.739-22.566,3.338-33.857,4.921      c-1.041-99.244-18.354-231.155-38.492-276.98c-32.186-21.491-59.506-38.897-87.428-57.704      c19.57,116.183,36.354,223.034,37.076,345.566c-114.619,12.016-229.951,16.622-345.322,15.862      c2.934-165.25-12.957-303.054-66.453-414.95c-25.5,8.724-62.522,21.609-95.671,33.74      c56.404,97.634,53.395,255.506,52.932,378.928c-36.861-1.255-73.705-2.936-110.504-5.084c-1.095,2.569-2.222,5.14-3.394,7.701      c-1.854,20.901-3.7,50.766-6.057,94.073c230.057,20.2,465.402,20.081,696.402-14.292c0.02-0.494,0.035-1.06,0.053-1.537      C1052.677,552.851,1052.896,515.991,1051.982,481.571z"
             id="path58" /><path
             fill="#868F98"
             d="M385.252,506.963c-7.541-0.402-13.455-0.652-20.989-1.093c-1.095,2.569-2.222,5.14-3.394,7.701      c-1.854,20.901-3.7,50.766-6.057,94.073c9.184,0.807,18.391,1.524,27.592,2.264      C383.579,576.453,385.606,541.495,385.252,506.963z"
             id="path60" /><path
             fill="#93AB20"
             d="M731.107,307.658c0.807,8.883,0,0,2.02,12.112C653.558,258.674,467.87,126.104,411.741,88.016      C457.77,46.834,542.556,5.652,573.24,0c0.808,22.609-1.934,90.154-1.211,101.744      C603.561,161.451,674.757,224.865,731.107,307.658z"
             id="path62" /><path
             fill="#DBF74A"
             d="M707.722,291.289c-81.976-64.652-211.568-161.734-271.965-204.3      c38.342-29.599,91.982-56.483,123.054-67.679c-0.125,11.969-0.466,26.53-0.783,39.998c-0.543,23.157-0.86,37.641-0.504,43.342      l0.194,3.118l1.459,2.763c16.628,31.488,41.127,57.875,69.496,88.431C653.224,223.405,680.714,253.011,707.722,291.289z"
             id="path64" /><linearGradient
             id="SVGID_4_"
             gradientUnits="userSpaceOnUse"
             x1="340.2886"
             y1="987.0015"
             x2="1054.3367"
             y2="987.0015"><stop
               offset="0"
               style="stop-color:#949FA1"
               id="stop67" /><stop
               offset="1"
               style="stop-color:#B7C6C9"
               id="stop69" /></linearGradient><path
             fill="url(#SVGID_4_)"
             d="M1053.099,1019.469c0.742-6.854,1.371-14.279,1.213-19.077      c-0.789-22.901-1.275-48.881-1.816-77.825c-176.439,39.973-509.131,49.662-711.007-8.476c-0.862,33.704-1.139,74.833-1.2,99.407      C571.771,1072.234,821.244,1076.321,1053.099,1019.469z"
             id="path71" /><path
             fill="#868F98"
             d="M341.489,914.092c-0.862,33.704-1.139,74.833-1.2,99.407c19.435,4.932,38.182,9.269,57.852,13.425      c-5.692-32.822-9.076-67.22-11.882-101.486C371.602,922.133,355.051,917.996,341.489,914.092z"
             id="path73" /><path
             fill="#93AB20"
             d="M721.822,456.237c14.535-55.717,89.631-150.194,89.631-150.194      c29.07,351.263,24.225,690.414,21.803,872.101c-21.803,4.846-79.941,12.113-96.898,12.113      C738.781,928.625,729.089,606.433,721.822,456.237z"
             id="path75" /><path
             fill="#DBF74A"
             d="M751.019,1174.876c1.931-261.113-9.086-627.934-15.873-769.51c20.592-18.17,43.74-56.492,69.85-77.521      c25.043,329.354,23.334,662.339,20.992,838.187C806.816,1169.354,770.195,1173.226,751.019,1174.876z"
             id="path77" /><path
             fill="#93AB20"
             d="M722.394,468.35c-14.121-151.728,95.713-271.063,84.121-378.978      c-2.936-23.157-2.936-66.013-2.936-86.143c38.379,16.658,123.166,72.387,152.131,133.224      c-24.262,67.352-89.873,138.624-161.215,220.462C762.009,394.183,724.925,415.477,722.394,468.35z"
             id="path79" /><path
             fill="#DBF74A"
             d="M741.296,392.23c7.527-48.801,25.07-94.402,42.23-138.986c22.197-57.682,43.162-112.163,37.438-165.425      c-1.973-15.59-2.578-40.472-2.764-60.995c39.328,21.954,97.176,64.94,121.651,110.48      c-22.692,57.389-76.395,118.737-138.262,189.412c-5.963,6.809-11.984,13.69-18.051,20.648      c-7.004,8.036-14.271,15.43-21.297,22.578C754.994,377.316,747.861,384.577,741.296,392.23z"
             id="path81" /><g
             id="g83"><path
               fill="#1A1A1A"
               d="M777.568,1132.866c-0.076,8.393,6.672,15.263,15.064,15.339c8.412,0.075,15.281-6.671,15.357-15.064       c0.076-8.403-6.679-15.273-15.072-15.349C784.515,1117.716,777.652,1124.453,777.568,1132.866z"
               id="path85" /><path
               fill="#1A1A1A"
               d="M769.552,900.296c-0.076,8.393,6.672,15.263,15.064,15.348c8.405,0.076,15.285-6.671,15.35-15.075       c0.074-8.402-6.662-15.273-15.066-15.348C776.498,885.146,769.636,891.893,769.552,900.296z"
               id="path87" /><path
               fill="#1A1A1A"
               d="M763.948,668.469c-0.084,8.4,6.664,15.27,15.067,15.351c8.394,0.073,15.264-6.672,15.34-15.072       c0.074-8.401-6.662-15.275-15.066-15.345C770.896,653.323,764.017,660.07,763.948,668.469z"
               id="path89" /><path
               fill="#1A1A1A"
               d="M758.47,474.309c-0.074,8.405,6.674,15.275,15.066,15.353c8.404,0.074,15.281-6.673,15.35-15.072       c0.074-8.398-6.672-15.27-15.064-15.347C765.427,459.166,758.546,465.911,758.47,474.309z"
               id="path91" /></g><g
             id="g93"><path
               fill="#808080"
               d="M789.457,279.209c-0.061,6.605,5.248,12.008,11.854,12.07c6.599,0.06,12.002-5.247,12.061-11.852       c0.064-6.604-5.236-12.008-11.844-12.069C794.923,267.3,789.515,272.605,789.457,279.209z"
               id="path95" /><path
               fill="#1A1A1A"
               d="M801.343,286.937c-4.191-0.04-7.58-3.488-7.543-7.688c0.035-4.161,3.453-7.542,7.613-7.542       c4.271,0.038,7.656,3.486,7.617,7.688c-0.041,4.156-3.453,7.542-7.617,7.542H801.343z"
               id="path97" /></g><g
             id="g99"><path
               fill="#808080"
               d="M869.75,139.125c-0.061,6.605,5.244,12.008,11.848,12.075c6.605,0.057,12.014-5.25,12.066-11.854       c0.057-6.605-5.248-12.006-11.844-12.071C875.21,127.216,869.814,132.521,869.75,139.125z"
               id="path101" /><path
               fill="#1A1A1A"
               d="M881.63,146.854c-4.195-0.038-7.578-3.491-7.535-7.691c0.031-4.157,3.451-7.542,7.611-7.542       c4.266,0.035,7.65,3.484,7.619,7.686c-0.043,4.162-3.457,7.547-7.619,7.547H881.63z"
               id="path103" /></g><g
             id="g105"><path
               fill="#C3E02D"
               d="M427.059,850.253c4.115,12.335,37.013,71.972,37.013,71.972       c59.628-30.853,164.495-98.702,203.561-131.597c-14.393-28.791-43.182-74.027-47.291-80.193       C546.318,772.116,499.024,805.016,427.059,850.253z"
               id="path107" /><path
               fill="#DBF74A"
               d="M467.39,911.184c-10.723-19.625-24.306-45.163-30.068-57.672       c63.91-40.333,111.255-73.019,181.125-130.82c8.895,14.023,27.047,43.338,38.833,65.792       C616.708,821.174,524.92,880.487,467.39,911.184z"
               id="path109" /></g><g
             id="g111"><path
               fill="#C3E02D"
               d="M1039.46,835.877c-2.756,13.036-24.734,80.755-24.734,80.755       c-37.553-42.009-111.068-112.261-141.479-141.23c10.133-20.279,43.963-72.787,46.709-79.304       C961.96,736.656,1004.697,791.697,1039.46,835.877z"
               id="path113" /><path
               fill="#DBF74A"
               d="M1011.304,899.924c-36.133-39.339-94.178-97.044-125.022-126.693       c5.451-10.417,35.85-61.925,35.85-61.925c36.73,35.367,77.775,88.95,108.639,127.472       C1027.539,850.457,1017.753,881.114,1011.304,899.924z"
               id="path115" /></g><g
             id="g117"><path
               fill="#808080"
               d="M477.376,87.558c-0.063,6.605,5.24,12.011,11.847,12.069c6.604,0.06,12.011-5.249,12.07-11.85       c0.06-6.606-5.243-12.011-11.847-12.067C482.837,75.644,477.436,80.952,477.376,87.558z"
               id="path119" /><path
               fill="#1A1A1A"
               d="M489.261,95.283c-4.196-0.04-7.58-3.483-7.54-7.688c0.033-4.156,3.449-7.541,7.613-7.541       c4.265,0.041,7.65,3.484,7.613,7.683c-0.038,4.162-3.455,7.546-7.613,7.546H489.261z"
               id="path121" /></g></g><g
           id="g123"><path
             fill="#93AB20"
             d="M323.724,153.424c-71.06,19.38-91.805,97.36-142.121,192.187      C110.276,480.036,47.153,629.446,28.984,662.149c32.878,6.574,224.083,50.874,245.885,58.141      c14.535-35.126,123.952-280.606,136.064-313.311C442.427,320.981,408.511,132.833,323.724,153.424z"
             id="path125" /><path
             fill="#DBF74A"
             d="M266.5,702.829c-42.726-11.284-164.566-39.614-216.008-50.943c6.981-14.438,16.281-34.689,27.68-59.505      c30.013-65.359,71.122-154.868,116.271-239.957c10.921-20.583,20.283-40,29.333-58.774      c31.55-65.44,54.344-112.722,103.773-126.202c2.754-0.664,5.853-1.053,8.816-1.053c13.472,0,26.008,8.165,37.258,24.266      c33.46,47.887,45.182,152.558,23.663,211.321c-7.241,19.551-51.536,120.256-87.129,201.174      C291.706,645.104,275.264,682.481,266.5,702.829z"
             id="path127" /><linearGradient
             id="SVGID_5_"
             gradientUnits="userSpaceOnUse"
             x1="-6.9468"
             y1="369.3521"
             x2="362.0722"
             y2="524.7288"><stop
               offset="0"
               style="stop-color:#949FA1"
               id="stop130" /><stop
               offset="1"
               style="stop-color:#B7C6C9"
               id="stop132" /></linearGradient><path
             fill="url(#SVGID_5_)"
             d="M169.642,399.309c-15.836,31.263-31.188,62.986-45.271,92.661      c72.1,5.568,149.531,29.711,200.977,76.637c14.205-32.313,28.747-65.462,41.079-93.816      C311.382,429.752,238.798,399.251,169.642,399.309z"
             id="path134" /></g></g></g></g><g
     id="Capa_4"><g
       id="g209"><g
         id="g211"><path
           fill="#93AB20"
           d="M0.055,708.348C-2.198,681.232,64.606,594.279,148.521,584.5c57.828-6.737,125.662,16.441,154.91,33.678     c13.194,7.771,22.475,22.188,19.889,27.621c-51.636,33.676,13.93,156.856-1.819,198.889     C287.938,856.639,18.133,925.621,0.055,708.348z"
           id="path213" /><path
           fill="#B7D130"
           d="M192.114,851.459c-109.237,0-168.653-48.456-176.606-144.021     c-1.519-18.303,56.43-100.857,135.138-110.025c6.108-0.712,12.6-1.071,19.302-1.071c50.569,0,103.263,19.943,124.598,32.512     c5.354,3.156,8.933,6.374,11.029,8.729c-26.487,22.78-33.843,61.417-35.847,83.6c-3.406,37.712,3.958,85.273,26.716,117.017     C273.06,844.093,234.069,851.459,192.114,851.459z"
           id="path215" /><path
           fill="#DBF74A"
           d="M280.877,808.328c-10.433-27.775-13.602-59.999-11.151-87.144c2.004-22.183,12.571-57.45,39.058-80.231     c-2.096-2.355-8.885-8.941-14.239-12.098c-21.334-12.569-74.028-32.512-124.598-32.512c-6.703,0-13.194,0.359-19.302,1.071     c-78.708,9.168-136.657,91.722-135.138,110.025c0.187,2.25,0.434,4.453,0.68,6.653c10.59,21.67,25.37,41.629,43.252,58.355     C119.239,819.168,203.763,821.285,280.877,808.328z"
           id="path217" /><linearGradient
           id="SVGID_13_"
           gradientUnits="userSpaceOnUse"
           x1="135.4106"
           y1="931.2627"
           x2="146.3586"
           y2="609.3973"><stop
             offset="0"
             style="stop-color:#949FA1"
             id="stop220" /><stop
             offset="1"
             style="stop-color:#B7C6C9"
             id="stop222" /></linearGradient><path
           fill="url(#SVGID_13_)"
           d="M121.405,624.696c-75.704,46.334-88.677,133.351-48.193,197.719     c26.664,18.995,63.591,28.116,108.441,29.695c-11.074-11.403-22.249-24.408-29.263-36.21     c-36.146-65.186-36.146-147.746,46.472-195.551c11.897-5.839,26.22-10.568,38.727-14.487     c-16.338-4.389-35.298-8.969-53.359-10.136C163.003,602.446,141.361,612.484,121.405,624.696z"
           id="path224" /><path
           fill="#868F98"
           d="M52.108,765.169c2.827,19.923,9.912,39.452,21.104,57.246c26.664,18.995,63.591,28.116,108.441,29.695     c-11.074-11.403-22.249-24.408-29.263-36.21c-0.965-1.748-1.894-3.505-2.813-5.271c-32.986-5.836-63.938-17.711-90.138-38.183     C56.926,770.093,54.5,767.649,52.108,765.169z"
           id="path226" /></g><g
         id="g228"><path
           fill="#93AB20"
           d="M378.229,828.091c-36.794-19.619-52.422-127.236-15.415-182.828c-11.834-0.655-41.314-3.68-55.083-4.335     c-6.884-1.146-21.73,2.372-25.171,5.231c-65.245,54.196-55.513,152.405,6.975,187.502c3.136,1.769,10.023,3.16,17.766,3.814     C323.655,836.498,366.614,830.053,378.229,828.091z"
           id="path230" /><path
           fill="#B7D130"
           d="M307.601,825.645c-5.232-0.525-8.258-1.306-9.166-1.622c-24.356-13.83-41.057-40.665-44.707-71.874     c-4.363-37.296,10.374-73.636,39.441-97.377c2.232-0.933,8.077-2.296,11.394-2.296c8.455,1.342,21.426,1.782,33.972,2.21     c0.472,0.015,0.944,0.033,1.42,0.046c-22.74,51.645-13.646,127.016,12.838,164.881     C336.475,821.141,317.985,824.982,307.601,825.645z"
           id="path232" /><path
           fill="#DBF74A"
           d="M342.157,655.074c-0.467-0.02-26.945-3.293-36.143-3.435c-5.006-0.343-9.683,0.984-12.844,3.133     c-29.067,23.741-43.805,60.082-39.441,97.377c2.489,21.298,11.07,40.555,24,55.032c21.821-1.481,43.908-2.881,65.957-3.615     C325.193,762.525,322.645,699.401,342.157,655.074z"
           id="path234" /></g></g></g></svg>