<?xml version="1.0" encoding="UTF-8" standalone="no"?>
<!-- Generator: Adobe Illustrator 15.0.0, SVG Export Plug-In . SVG Version: 6.00 Build 0)  -->

<svg
   xmlns:dc="http://purl.org/dc/elements/1.1/"
   xmlns:cc="http://creativecommons.org/ns#"
   xmlns:rdf="http://www.w3.org/1999/02/22-rdf-syntax-ns#"
   xmlns:svg="http://www.w3.org/2000/svg"
   xmlns="http://www.w3.org/2000/svg"
   xmlns:sodipodi="http://sodipodi.sourceforge.net/DTD/sodipodi-0.dtd"
   xmlns:inkscape="http://www.inkscape.org/namespaces/inkscape"
   version="1.1"
   x="0px"
   y="0px"
   width="712.422px"
   height="1147.844px"
   viewBox="0 0 712.422 1147.844"
   enable-background="new 0 0 712.422 1147.844"
   xml:space="preserve"
   id="svg2"
   inkscape:version="0.91 r13725"
   sodipodi:docname="Fluo_no_sleeves_NH_01.svg"><metadata
     id="metadata130"><rdf:RDF><cc:Work
         rdf:about=""><dc:format>image/svg+xml</dc:format><dc:type
           rdf:resource="http://purl.org/dc/dcmitype/StillImage" /><dc:title></dc:title></cc:Work></rdf:RDF></metadata><defs
     id="defs128" /><sodipodi:namedview
     pagecolor="#ffffff"
     bordercolor="#666666"
     borderopacity="1"
     objecttolerance="10"
     gridtolerance="10"
     guidetolerance="10"
     inkscape:pageopacity="0"
     inkscape:pageshadow="2"
     inkscape:window-width="969"
     inkscape:window-height="480"
     id="namedview126"
     showgrid="false"
     inkscape:zoom="0.20560285"
     inkscape:cx="356.211"
     inkscape:cy="573.922"
     inkscape:window-x="0"
     inkscape:window-y="21"
     inkscape:window-maximized="0"
     inkscape:current-layer="svg2" /><g
     id="Clothes"><g
       id="g5"><g
         id="g7"><path
           fill="#93AB20"
           d="M13.529,59.754C30.486,53.698,199.291,3.01,207.733,0c26.733,49.699,180.074,304.428,230.947,343.186     c9.85,112.953,19.379,695.388,19.379,719.485c-2.424,38.76-45.621,80.27-92.055,84.787     c-87.211,4.846-273.23-36.281-340.767-102.552c12.112-156.251,8.882-520.03,1.616-599.165     C83.781,364.99,116.486,177.245,13.529,59.754z"
           id="path9" /><path
           fill="#B7D130"
           d="M351.237,1133.312c-85.519,0-246.039-36.57-310.984-94.272c11.5-159.453,8.413-499.512,1.59-588.479     c50.417-75.882,92.812-258.781-1.605-384.094c25.073-7.794,66.261-20.313,101.458-31.017     c27.473-8.35,47.374-14.404,59.076-18.016c36.721,65.09,169.452,283.926,223.917,332.982     c9.676,125.955,18.721,683.562,18.836,711.782c-2.334,32.064-41.068,66.948-78.639,70.762     C360.629,1133.192,356.04,1133.312,351.237,1133.312z"
           id="path11" /><linearGradient
           id="SVGID_1_"
           gradientUnits="userSpaceOnUse"
           x1="44.0854"
           y1="917.7319"
           x2="442.5569"
           y2="917.7319"><stop
             offset="0"
             style="stop-color:#949FA1"
             id="stop14" /><stop
             offset="1"
             style="stop-color:#B7C6C9"
             id="stop16" /></linearGradient><path
           fill="url(#SVGID_1_)"
           d="M442.557,995.799c-0.51-31.155-1.213-71.225-2.072-116.301     c-116.875,3.907-302.599-8.307-393.647-40.607c-0.705,7.771-3.028,105.38-2.725,113.556     C170.666,988.661,307.198,999.811,442.557,995.799z"
           id="path18" /><linearGradient
           id="SVGID_2_"
           gradientUnits="userSpaceOnUse"
           x1="43.0034"
           y1="317.1294"
           x2="433.8345"
           y2="317.1294"><stop
             offset="0"
             style="stop-color:#949FA1"
             id="stop21" /><stop
             offset="1"
             style="stop-color:#B7C6C9"
             id="stop23" /></linearGradient><path
           fill="url(#SVGID_2_)"
           d="M431.145,493.721c-48.492,2.367-97.074,3.497-145.619,3.044     c-9.903-161.28-30.231-335.983-100.808-475.166c-11.245,3.433-75.795,23.367-91.854,28.264     c40.314,69.356,78.831,290.335,80.487,442.848c-43.583-2.787-87.066-7.032-130.347-13.057     c1.206,25.612,2.475,71.669,3.229,110.628c87.211,24.225,256.714,25.85,387.603,18.574     C432.747,567.068,432.342,530.263,431.145,493.721z"
           id="path25" /><path
           fill="#DBF74A"
           d="M424.688,350.416C370.223,301.36,237.492,82.524,200.771,17.434     c-11.702,3.612-31.604,9.666-59.076,18.016C106.498,46.154,65.31,58.673,40.237,66.467     c60.405,80.17,64.774,183.874,46.908,268.083c19.529,251.167,29.013,499.164,31.229,749.639     c75.069,30.935,172.583,49.123,232.862,49.123c4.803,0,9.392-0.119,13.648-0.352c37.57-3.813,76.305-38.697,78.639-70.762     C443.409,1033.978,434.364,476.371,424.688,350.416z"
           id="path27" /><linearGradient
           id="SVGID_3_"
           gradientUnits="userSpaceOnUse"
           x1="44.0854"
           y1="917.7319"
           x2="442.5569"
           y2="917.7319"><stop
             offset="0"
             style="stop-color:#949FA1"
             id="stop30" /><stop
             offset="1"
             style="stop-color:#B7C6C9"
             id="stop32" /></linearGradient><path
           fill="url(#SVGID_3_)"
           d="M442.557,995.799c-0.51-31.155-1.213-71.225-2.072-116.301     c-116.875,3.907-302.599-8.307-393.647-40.607c-0.705,7.771-3.028,105.38-2.725,113.556     C170.666,988.661,307.198,999.811,442.557,995.799z"
           id="path34" /><linearGradient
           id="SVGID_4_"
           gradientUnits="userSpaceOnUse"
           x1="43.0034"
           y1="317.1294"
           x2="433.8345"
           y2="317.1294"><stop
             offset="0"
             style="stop-color:#949FA1"
             id="stop37" /><stop
             offset="1"
             style="stop-color:#B7C6C9"
             id="stop39" /></linearGradient><path
           fill="url(#SVGID_4_)"
           d="M431.145,493.721c-48.492,2.367-97.074,3.497-145.619,3.044     c-9.903-161.28-30.231-335.983-100.808-475.166c-11.245,3.433-75.795,23.367-91.854,28.264     c40.314,69.356,78.831,290.335,80.487,442.848c-43.583-2.787-87.066-7.032-130.347-13.057     c1.206,25.612,2.475,71.669,3.229,110.628c87.211,24.225,256.714,25.85,387.603,18.574     C432.747,567.068,432.342,530.263,431.145,493.721z"
           id="path41" /><path
           fill="#868F98"
           d="M46.838,838.891c-0.705,7.771-3.028,105.38-2.725,113.556c23.916,6.845,48.188,12.784,72.742,17.906     c-0.682-38.01-1.545-75.985-2.59-113.938C88.705,851.409,65.714,845.589,46.838,838.891z"
           id="path43" /><path
           fill="#868F98"
           d="M43.003,479.654c1.206,25.612,2.475,71.669,3.229,110.628c16.639,4.623,36.29,8.415,58.077,11.488     c-1.959-38.465-4.129-76.958-6.528-115.494C79.493,484.345,61.228,482.19,43.003,479.654z"
           id="path45" /><path
           fill="#93AB20"
           d="M485.514,19.38c-12.67,88.101-70.328,277.935-87.207,335.919c4.846,67.83,21.303,674.766,23.416,692.836     c0,43.604,26.645,96.9,77.518,96.9s176.844-33.11,213.181-62.985c-8.451-115.211-39.554-424.084-30.283-506.304     c23.014-118.702,19.721-372.661-43.604-467.543C592.106,79.134,509.739,35.531,485.514,19.38z"
           id="path47" /><path
           fill="#DBF74A"
           d="M499.241,1130.501c-42.965,0-62.982-49.148-62.982-82.365v-0.848l-0.104-0.839     c-0.869-8.401-4.565-129.432-8.477-257.566c-5.553-181.584-11.818-386.899-14.697-431.988c1.77-6.07,3.934-13.394,6.393-21.746     c20.555-69.703,61.449-208.398,76.934-292.107c12.707,7.447,29.012,16.619,46.818,26.635     c28.818,16.21,61.334,34.502,84.986,49.158c56.891,89.683,63.408,332.182,39.758,454.146l-0.109,0.563l-0.063,0.573     c-7.346,65.104,9.492,262.409,21.791,406.474c3.156,37.017,5.928,69.492,7.836,94.497     C658.356,1100.622,546.497,1130.501,499.241,1130.501z"
           id="path49" /><linearGradient
           id="SVGID_5_"
           gradientUnits="userSpaceOnUse"
           x1="-107.5151"
           y1="356.814"
           x2="698.0449"
           y2="322.8445"><stop
             offset="0"
             style="stop-color:#949FA1"
             id="stop52" /><stop
             offset="1"
             style="stop-color:#B7C6C9"
             id="stop54" /></linearGradient><path
           fill="url(#SVGID_5_)"
           d="M634.598,477.118c5.207-120.101-5.658-254.783-28.744-371.654     c-19.762-11.607-79.137-45.418-88.846-50.959c14.979,139.922,30.994,290.776,27.471,431.494     c-41.988,3.609-84.016,6.461-126.063,8.318c1.207,35.9,1.977,73.767,3.307,116.156c82.002-3.913,164.508-11.756,245.148-26.809     c0.23-3.405,0.498-6.65,0.826-9.546l0.063-0.573l0.109-0.563c5.488-28.294,9.324-63.117,11.313-100.977     C664.336,473.794,649.471,475.48,634.598,477.118z"
           id="path56" /><linearGradient
           id="SVGID_6_"
           gradientUnits="userSpaceOnUse"
           x1="-105.8569"
           y1="918.0659"
           x2="565.2103"
           y2="922.9112"><stop
             offset="0"
             style="stop-color:#949FA1"
             id="stop59" /><stop
             offset="1"
             style="stop-color:#B7C6C9"
             id="stop61" /></linearGradient><path
           fill="url(#SVGID_6_)"
           d="M678.61,849.636c-81.258,19.233-166.045,26.501-248.141,30.338     c1.406,45.59,2.684,86.279,3.688,116.084c85.604-1.989,170.463-16.964,254.039-41.189     C685.098,918.475,681.7,888.884,678.61,849.636z"
           id="path63" /></g></g></g></svg>