<?xml version="1.0" encoding="utf-8"?>
<!-- Generator: Adobe Illustrator 15.0.0, SVG Export Plug-In . SVG Version: 6.00 Build 0)  -->
<!DOCTYPE svg PUBLIC "-//W3C//DTD SVG 1.1//EN" "http://www.w3.org/Graphics/SVG/1.1/DTD/svg11.dtd">
<svg version="1.1" xmlns="http://www.w3.org/2000/svg" xmlns:xlink="http://www.w3.org/1999/xlink" x="0px" y="0px"
	 width="748.36px" height="1170.597px" viewBox="0 0 748.36 1170.597" enable-background="new 0 0 748.36 1170.597"
	 xml:space="preserve">
<g id="Clothes">
	<g>
		<g>
			<g>
				<path fill="#93AB20" d="M30.582,1034.46c-1.435,17.778,3.049,61.746,11.689,77.405c85.538,54.004,495.644,90.496,674.794,8.875
					c13.404-8.448,13.83-69.186,12.445-86.13C647.579,1037.598,84.659,1033.916,30.582,1034.46z"/>
				<path fill="#B7D130" d="M424.374,1153.92c-170.801,1.742-322.877-25.394-370.828-52.259c-4.334-11.149-7.84-35.005-8.575-52.719
					c29.027-0.024,89.896,0.203,163.458,0.482c162.028,0.606,383.935,1.438,481.886,0.44c9.845-0.099,18.281-0.214,25.25-0.351
					c0.176,22.049-2.299,51.146-6.871,59.052C645.567,1136.601,544.767,1152.695,424.374,1153.92z"/>
				<path fill="#DBF74A" d="M715.565,1049.513c-6.969,0.136-15.405,0.251-25.25,0.351c-97.951,0.999-319.857,0.167-481.886-0.44
					c-32.403-0.123-62.332-0.236-88.172-0.321c0.855,27.563,3.607,55.429,14.698,78.845c71.87,15.658,176.541,27.123,289.418,25.973
					c120.393-1.225,221.193-17.319,284.32-45.355C713.267,1100.659,715.741,1071.562,715.565,1049.513z"/>
				<polygon fill="#333333" points="452.782,1103.573 451.571,1150.813 472.161,1149.196 473.372,1104.784 				"/>
				<polygon fill="#333333" points="451.974,1147.179 446.323,1170.597 475.794,1169.79 471.356,1145.967 				"/>
			</g>
			<g>
				<path fill="#93AB20" d="M533.935,92.177c-15.746,70.858-54.192,95.217-96.899,109.013
					c9.084,103.562,16.867,276.854,18.17,390.023c2.771,241.825,1.18,504.06,2.422,513.57
					c98.887-1.495,235.615-21.479,268.898-41.182c18.393-13.001,22.236-64.63,21.802-77.521
					c-4.142-120.336-4.84-342.613-2.449-408.96c2.4-66.359,7.783-289.854-53.27-378.354
					C645.37,167.276,552.104,104.896,533.935,92.177z"/>
				<path fill="#DBF74A" d="M471.39,1089.923c-2.35-57.49-13.762-285.231-13.762-497.499c0-41.788-0.926-91.484-3.029-144.139
					c-3.393-84.686-10.295-168.364-12.717-231.954c35.906-13.121,81.754-41.014,100.766-100.587
					c32.539,22.061,97.25,65.343,139.512,93.522c37.654,57.378,55.574,190.888,49.195,367.329
					c-2.465,68.397-1.613,291.979,2.447,409.984c0.602,17.842-5.426,56.996-15.279,64.859
					C689.171,1068.084,566.702,1086.912,471.39,1089.923z"/>
				<path fill="#93AB20" d="M436.634,222.187c-0.08-24.313-5.654-77.925,0.402-94.882c2.649-7.417,31.676-14.166,39.164-33.51
					c7.268-18.775,7.268-64.4,7.467-93.671c28.063,0.201,58.746,83.98,65.408,104.773
					C549.075,125.487,529.636,198.917,436.634,222.187z"/>
				<path fill="#DBF74A" d="M447.132,210.074c0.119-23.535-4.039-69.848,0.805-76.714c16.955-8.479,35.025-25.287,41.181-41.183
					c5.985-15.464,4.559-49.706,4.844-75.097c14.535,16.151,29.674,56.797,40.502,89.875
					C541.608,133.36,531.923,213.341,447.132,210.074z"/>
				<path fill="#93AB20" d="M2.196,140.627c13.324-9.69,196.106-73.643,204.702-75.097c12.111,38.76,54.103,111.031,174.019,141.312
					c26.84,142.052,83.975,337.538,91.244,897.135c-129.195,11.306-382.533-8.589-438.473-51.276
					c-6.766-6.239-27.858-20.592-27.858-49.662c0-128.461,14.939-436.052,22.208-515.994
					C70.295,396.971,55.95,312.562,7.041,190.289C3.407,181.205-3.56,144.473,2.196,140.627z"/>
				<path fill="#B7D130" d="M42.964,1041.489c-0.755-0.672-1.627-1.422-2.594-2.248c-7.481-6.39-20.005-17.084-20.005-36.202
					c0-126.754,13.448-424.101,20.592-504.688c39.23-85.795,35-174.91-20.419-313.461c-2.546-6.359-5.941-25.509-6.054-34.44
					c24.936-11.642,143.339-53.827,183.166-66.926c17.28,47.03,83.198,109.253,185.691,137.853
					c14.152,53.292,58.541,293.528,71.865,358.935c2.422,127.182,14.973,320.102,14.531,507.514
					C313.085,1099.132,86.119,1073.628,42.964,1041.489z"/>
				<path fill="#DBF74A" d="M455.206,580.312c-13.324-65.407-57.713-305.642-71.865-358.935
					c-102.493-28.6-168.411-90.823-185.691-137.853c-39.827,13.099-158.23,55.284-183.166,66.926
					c0.112,8.931,3.507,28.082,6.054,34.44c36.373,90.934,50.695,160.571,45.152,221.953c1.98,193.078-18.4,386.16,9.181,579.238
					c2.111,23.215,6.983,51.021,17.814,74.619c86.373,22.063,253.535,36.041,377.053,27.125
					C470.179,900.414,457.628,707.494,455.206,580.312z"/>
				<linearGradient id="SVGID_1_" gradientUnits="userSpaceOnUse" x1="20.3647" y1="913.6821" x2="732.583" y2="913.6821">
					<stop  offset="0" style="stop-color:#949FA1"/>
					<stop  offset="1" style="stop-color:#B7C6C9"/>
				</linearGradient>
				<path fill="url(#SVGID_1_)" d="M732.583,947.322c-0.688-28.594-0.801-70.544-1.213-103.259
					c-78.732,22.208-162.308,32.201-273.742,33.813c-111.715,1.619-334.045-13.178-433.644-40.191
					c-1.121,33.074-2.985,78.457-3.619,107.214c123.547,31.493,342.013,47.451,442.107,44.415
					C569.062,986.082,651.427,974.778,732.583,947.322z"/>
				<linearGradient id="SVGID_2_" gradientUnits="userSpaceOnUse" x1="336.0774" y1="-199.9756" x2="391.4262" y2="768.6262">
					<stop  offset="0" style="stop-color:#949FA1"/>
					<stop  offset="1" style="stop-color:#B7C6C9"/>
				</linearGradient>
				<path fill="url(#SVGID_2_)" d="M684.452,549.908c4.944-119.093-11.797-298.829-26.363-357.499
					c-30.713-20.506-66.07-44.069-93.268-62.38c15.209,133.122,25.119,288.103,20.156,429.039
					c-45.36,3.099-93.44,5.277-141.885,7.113c-42.758,1.621-103.854-0.764-183.687-5.355
					c-2.459-244.819-58.331-408.944-81.881-470.918c-26.253,9.001-63.511,22.23-96.599,34.369
					c32.798,73.271,69.852,244.877,65.006,428.986c-33.54-2.526-78.989-5.427-108.371-8.14
					c-1.873,29.537-4.294,70.527-6.295,111.499c101.541,18.78,279.397,29.07,421.516,24.226
					c80.703-2.752,192.508-13.219,277.678-29.829c0.203-31.69,0.289-57.608,0.895-74.421c0.412-11.427,0.719-22.665,0.931-33.72
					C717.308,545.506,701.286,547.829,684.452,549.908z"/>
				<path fill="#868F98" d="M23.984,837.685c-1.121,33.074-2.985,78.457-3.619,107.214c15.516,3.956,32.536,7.665,50.626,11.124
					c-4.315-36.545-7.054-73.091-8.671-109.634C48.214,843.645,35.278,840.748,23.984,837.685z"/>
				<path fill="#868F98" d="M37.561,545.122c-1.873,29.537-4.294,70.527-6.295,111.499c9.391,1.736,19.443,3.401,30.055,4.987
					c0.806-38.09,1.945-76.178,2.88-114.269C54.53,546.594,45.456,545.851,37.561,545.122z"/>
				<path fill="#93AB20" d="M388.183,221.377c-5.652-41.18-8.477-64.598-10.498-74.289c-5.359-23.013-31.674-29.845-53.838-37.953
					c-55.213-20.194-68.37-42.392-69.711-58.947c-1.013-12.51,0.447-37.347,0-50.065c-13.852-3.028-48.682,50.874-58.845,75.667
					C197.103,102.48,257.365,206.286,388.183,221.377z"/>
				<path fill="#DBF74A" d="M375.263,208.863c-111.69,16.957-177.75-98.123-164.732-135.259
					c7.267-14.533,21.802-38.756,33.107-54.907c-0.181,7.392-2.045,22.914-1.615,28.261c2.07,25.533,15.969,51.045,72.214,71.615
					c2.408,0.88,4.889,1.758,7.412,2.646c20.945,7.383,41.504,13.756,43.52,25.466C365.444,148.362,372.499,186.688,375.263,208.863
					z"/>
				<path fill="#333333" d="M474.062,613.98c1.539,6.748-3.645,12.279-11.537,12.293l-6.584,0.016
					c-7.896,0.008-13.905-5.593-13.355-12.451l3.006-37.506c0.547-6.863,4.625-12.31,9.064-12.11
					c4.438,0.203,9.336,5.891,10.885,12.636L474.062,613.98z"/>
				<g>
					<path fill="#333333" d="M446.765,585.746c-17.447-142.244-39.977-237.85-56.432-307.658
						c-5.826-24.729-10.861-46.084-14.973-66.237l9.492-1.94c4.086,20.011,9.104,41.303,14.912,65.954
						c16.504,70.028,39.105,165.933,56.611,308.704L446.765,585.746z"/>
				</g>
				<g>
					<path fill="#333333" d="M463.685,580.312h-9.692c0-37.414-9.797-209.213-15.644-311.863
						c-1.471-25.812-2.662-46.663-3.326-58.921l9.684-0.521c0.654,12.25,1.846,33.092,3.314,58.893
						C453.878,370.649,463.685,542.625,463.685,580.312z"/>
				</g>
				<g>
					<path fill="#333333" d="M474.575,1106.003l-19.363-0.823c4.203-99.124-4.621-384.195-10.494-537.011l19.363-0.743
						C469.97,720.532,478.806,1006.261,474.575,1106.003z"/>
				</g>
			</g>
		</g>
	</g>
</g>
<g id="Arm">
	<g>
		<g>
			<path fill="#B0683A" d="M51.77,656.467c6.107-13.081,14.103-37.267,20.288-44.443c3.631-4.185,32.272-34.719,37.513-44.647
				c5.489-9.279,11.5-31.912,14.881-58.347c4.697-17.44,48.494,0.777,48.82,37.503c0.334,37.664-15.293,68.203-23.816,87.523
				C140.192,636.925,58.532,653.939,51.77,656.467z"/>
			
				<linearGradient id="SVGID_3_" gradientUnits="userSpaceOnUse" x1="27.7124" y1="844.1733" x2="76.5562" y2="860.0476" gradientTransform="matrix(0.9986 0.053 -0.053 0.9986 105.624 -272.6772)">
				<stop  offset="6.030000e-006" style="stop-color:#F3B190"/>
				<stop  offset="1" style="stop-color:#FFD1AF"/>
			</linearGradient>
			<path fill="url(#SVGID_3_)" d="M68.094,640.561c4.182-10.878,11.672-21.842,15.735-27.646
				c2.076-2.954,11.503-13.653,17.601-20.059c6.593-6.945,12.11-13.454,13.887-16.025c7.553-10.916,14.882-35.269,16.797-60.027
				c6.207-7.337,27.668,5.482,30.225,26.648c2.317,19.253-4.685,47.028-12.919,66.362c0,0,15.247,0.748,15.86,5.108
				C163.177,615.49,91.02,634.956,68.094,640.561z"/>
		</g>
		<g>
			<path fill="#B0683A" d="M27.406,646.554c15.473-10.33,45.25-31.751,45.25-31.751s7.941-2.372,14.034-5.264
				c14.413-6.798,25.158-5.866,41.048-9.028c33.355,3.295,52.424-4.488,88.332,3.707c14.735,44.997,11.423,91.201,11.973,159.618
				c0.127,16.238-2.117,37.001-6.552,43.464c-20.631,14.292-72.509,17.416-91.68,15.485c-24.721-3.655-89.314-21.19-100.02-26.198
				C47.651,784.675,70.406,710.744,27.406,646.554z"/>
			<linearGradient id="SVGID_4_" gradientUnits="userSpaceOnUse" x1="212.9917" y1="709.02" x2="-27.538" y2="694.1927">
				<stop  offset="6.030000e-006" style="stop-color:#F3B190"/>
				<stop  offset="1" style="stop-color:#FFD1AF"/>
			</linearGradient>
			<path fill="url(#SVGID_4_)" d="M134.574,810.873c-38.103-6.344-80.243-18.652-96.837-24.598
				c-15.087-14.288-30.17-94.474-6.356-128.605c19.665-15.566,86.41-60.724,95.472-60.648c33.936,2.917,62.76,4.484,95.247,11.878
				c5.233,49.907-5.208,167.993-20.091,193.376C195.524,806.078,162.218,809.737,134.574,810.873z"/>
			
				<linearGradient id="SVGID_5_" gradientUnits="userSpaceOnUse" x1="183.6172" y1="957.3926" x2="39.2645" y2="984.8889" gradientTransform="matrix(0.9986 0.053 -0.053 0.9986 105.624 -272.6772)">
				<stop  offset="6.030000e-006" style="stop-color:#F3B190"/>
				<stop  offset="1" style="stop-color:#FFD1AF"/>
			</linearGradient>
			<path fill="url(#SVGID_5_)" d="M222.099,608.899c-32.487-7.394-48.792-6.467-82.721-9.383c-0.175,0-12.5,4.9-12.688,4.914
				c-5.998,55.719,1.535,98.496,6.297,167.155c-3.174,13.09-6.351,29.772,0.396,39.288c9.329,1.435,64.949-0.965,80.613-14.533
				c1.261-8.715,1.537-13.483,1.331-25.252C214.683,734.447,227.094,656.472,222.099,608.899z"/>
			<path fill="#B0683A" d="M142.972,653.939c5.367,2.178,72.843-5.208,83.464-4.351c5.541,1.719,18.082,9.671,21.651,14.226
				c4.372,11.703,1.389,33.943-3.375,49.419c-2.027,2.774-5.356,5.96-5.356,5.96s4.355,3.209,4.166,6.542
				c-0.106,16.251-6.289,42.408-13.69,45.849c-25.751,6.646-65.953,5.879-78.387,3.972
				C146.482,766.828,143.549,669.259,142.972,653.939z"/>
			
				<linearGradient id="SVGID_6_" gradientUnits="userSpaceOnUse" x1="246.875" y1="982.333" x2="41.2287" y2="986.3653" gradientTransform="matrix(0.9986 0.053 -0.053 0.9986 105.624 -272.6772)">
				<stop  offset="6.030000e-006" style="stop-color:#F3B190"/>
				<stop  offset="1" style="stop-color:#FFD1AF"/>
			</linearGradient>
			<path fill="url(#SVGID_6_)" d="M135.374,773.569c0.791-22.231-1.892-36.376-2.386-51.602c-1.437-20.792-3.97-42.071-7.142-64.297
				c7.496,0.388,17.099,5.344,17.099,5.344s41.386,0.971,60.691,1.804c5.655,2.594,25.562-0.028,29.711,1.373
				c5.975,11.059,6.408,32.362-0.736,46.645c-4.682,2.419-15.274,4.81-15.274,4.81s6.147,2.22,12.361,3.186
				c2.497,11.589,2.014,34.464-6.02,43.61C204.471,771.742,146.57,775.103,135.374,773.569z"/>
			<path fill="#B0683A" d="M150.051,721.575c-3.171,0.393-0.894,2.982,0.895,3.863c23.812,0,59.536,0.899,81.282-4.966
				c1.218-2.32,3.143-5.889,4.066-8.394C208.694,720.68,175.057,721.575,150.051,721.575z"/>
			<path fill="#B0683A" d="M147.074,662.111c-1.55-0.398-6.706-3.527-7.956-3.589c-0.972,4.707-0.497,10.23,0.516,17.204
				C141.419,669.178,143.801,663.814,147.074,662.111z"/>
			<path fill="#B0683A" d="M125.047,597.348c19.052-4.961,73.822-4.961,92.486-2.386c12.297,3.371,22.117,7.542,24.202,9.923
				c6.328,10.443,10.418,38.397,2.083,56.865c-8.337,6.534-19.021,10.411-26.196,10.411c-6.104,0-68.89-5.975-78.668-7.759
				C131.267,656.046,112.589,632.731,125.047,597.348z"/>
			<linearGradient id="SVGID_7_" gradientUnits="userSpaceOnUse" x1="246.9785" y1="635.9966" x2="135.5248" y2="631.8379">
				<stop  offset="6.030000e-006" style="stop-color:#F3B190"/>
				<stop  offset="1" style="stop-color:#FFD1AF"/>
			</linearGradient>
			<path fill="url(#SVGID_7_)" d="M218.719,664.023c0,0-70.156,0.985-90.099-2.878c-7.879-15.097-13.775-39.354-0.599-56.856
				c19.452-1.785,72.971-1.453,88.048-0.071c6.744,2.191,11.08,3.934,17.332,6.613c3.543,12.375,4.982,39.852,0.594,47.038
				C228.637,661.453,218.719,664.023,218.719,664.023z"/>
			<linearGradient id="SVGID_8_" gradientUnits="userSpaceOnUse" x1="257.7209" y1="636.4082" x2="225.3325" y2="634.5225">
				<stop  offset="6.030000e-006" style="stop-color:#F3B190"/>
				<stop  offset="1" style="stop-color:#FFD1AF"/>
			</linearGradient>
			<path fill="url(#SVGID_8_)" d="M233.401,610.831c-6.343-3.968-16.848-6.703-17.061-6.741c7.738,11.111,8.531,44.06,1.983,59.933
				c4.289-0.407,10.313-2.57,15.672-6.154C238.384,650.683,236.945,623.206,233.401,610.831z"/>
		</g>
	</g>
</g>
</svg>
