<?xml version="1.0" encoding="utf-8"?>
<!-- Generator: Adobe Illustrator 15.0.0, SVG Export Plug-In . SVG Version: 6.00 Build 0)  -->
<!DOCTYPE svg PUBLIC "-//W3C//DTD SVG 1.1//EN" "http://www.w3.org/Graphics/SVG/1.1/DTD/svg11.dtd">
<svg version="1.1" xmlns="http://www.w3.org/2000/svg" xmlns:xlink="http://www.w3.org/1999/xlink" x="0px" y="0px"
	 width="942.357px" height="1099.241px" viewBox="0 0 942.357 1099.241" enable-background="new 0 0 942.357 1099.241"
	 xml:space="preserve">
<g id="Clothes">
	<g>
		<g>
			<g>
				<path fill="#999999" d="M797.886,109.234c155.775,57.453,137.205,319.549,144.471,404.336
					c-24.225,2.422-150.6,15.422-164.73,16.229c-1.213-10.901-48.049-392.121-49.26-398.984
					C738.056,128.394,792.638,110.851,797.886,109.234z"/>
				<path fill="#FFFFFF" d="M790.363,514.162c-7.607-62.238-38.307-312.551-45.969-372.872c11.906-3.622,29.834-9.292,48.244-15.148
					c1.785-0.568,3.388-1.076,4.756-1.511C918.117,173.765,921.367,366.17,925.4,469.966c0.44,11.337,1.92,21.535,2.422,30.685
					C880.941,505.321,819.109,511.571,790.363,514.162z"/>
			</g>
			<g>
				<g>
					<path fill="#999999" d="M168.164,81.759C266.678,46.633,393.455,8.478,415.257,0c9.69,117.896,239.828,124.759,239.828,18.168
						c18.168,12.113,142.502,86.321,167.135,102.472c15.16,119.187,62.834,205.553,61.188,320.255
						c-7.166,63.568-52.32,198.132-46.027,254.362c16.957,151.537,42.432,298.007,50.068,340.767
						c-103.365,92.862-495.811,83.172-665.386-27.455c24.225-97.708,68.64-231.752,61.373-311.696
						C254.364,583.017,139.093,231.952,168.164,81.759z"/>
					<path fill="#E8EBED" d="M615.521,1084.706c-146.729,0-292.867-32.32-376.784-82.838c4.649-18.228,9.88-37.521,15.363-57.756
						c23.311-85.997,49.728-183.467,43.812-248.554l-0.107-1.156l-0.286-1.125c-5.19-20.326-13.136-48.264-22.337-80.617
						C232.74,463.438,162.332,215.889,181.04,92.613c57.876-20.42,123.919-41.521,172.729-57.115
						c20.742-6.629,37.929-12.121,50.143-16.168c15.735,58.341,81.816,88.733,144.697,88.733c59.91,0,104.621-26.135,117.34-65.917
						c15.33,9.43,37.217,22.7,59.904,36.45c32.871,19.926,66.73,40.452,82.844,50.638c12.936,30.65,36.684,83.565,48.063,125.128
						c16.021,58.516,19.381,128.392,12.123,185.605c-2.783,23.917-11.178,58.76-20.064,95.625
						c-14.75,61.198-29.998,124.479-25.885,161.281c15.605,139.456,38.279,274.234,48.725,333.381
						C827.201,1064.463,732.605,1084.706,615.521,1084.706z"/>
					<path fill="#FFFFFF" d="M848.818,535.593c8.887-36.864,17.281-71.707,20.064-95.625c7.258-57.213,3.898-127.09-12.123-185.605
						c-11.379-41.563-35.127-94.479-48.063-125.128c-16.113-10.186-49.973-30.712-82.844-50.638
						c-22.688-13.75-44.574-27.02-59.904-36.45c-12.719,39.782-57.43,65.917-117.34,65.917c-62.881,0-128.962-30.393-144.697-88.733
						c-12.213,4.047-29.4,9.539-50.143,16.168c-45.196,14.439-105.161,33.6-159.74,52.57
						c16.276,126.893,92.766,350.244,120.09,373.014c67.829,56.527,176.037,61.371,277.782,56.527
						c-66.211,48.449-156.658,64.601-219.642,58.14c20.995,125.97-22.609,384.37-42.276,466.46
						c80.903,26.718,183.065,42.497,285.538,42.497c117.084,0,211.68-20.243,256.137-54.452
						c-10.445-59.146-33.119-193.925-48.725-333.381C818.82,660.072,834.068,596.791,848.818,535.593z"/>
				</g>
				<g>
					<path fill="#999999" d="M544.88,148.205c-66.552,0.003-119.336-31.567-146.804-61.508
						c-20.122-21.93-29.998-45.683-27.816-66.881l7.229,0.743c-1.966,19.104,7.246,40.848,25.943,61.227
						c26.877,29.294,79.257,60.252,144.804,59.124c98.375-1.623,136.199-57.127,136.932-91.732l7.268,0.156
						c-0.789,37.308-40.605,97.135-144.076,98.844C547.195,148.197,546.031,148.205,544.88,148.205z"/>
				</g>
			</g>
			<g>
				<path fill="#999999" d="M168.164,81.759C123.547,98.516,83.486,194.71,50.065,285.855C27.457,336.728,8.077,375.488,0,392.445
					c40.374,12.922,167.153,75.099,176.843,84.789c22.612-45.221,87.212-172.807,98.516-208.335
					C278.587,186.532,223.074,88.22,168.164,81.759z"/>
				<path fill="#FFFFFF" d="M171.082,456.28c-34.277-19.776-111.198-56.179-151.021-71.947c9.664-19.91,25.616-52.816,43.285-92.575
					l0.2-0.443l0.165-0.457c19.155-52.238,63.374-172.835,106.299-194.07c92.43,7.379,103.735,97.82,90.891,169.542
					C249.56,299.71,196.926,404.735,171.082,456.28z"/>
			</g>
		</g>
	</g>
</g>
<g id="Arm">
	<g>
		<g>
			<path fill="#B0683A" d="M218.343,588.514c6.107-13.081,14.103-37.267,20.288-44.443c3.631-4.185,32.272-34.719,37.513-44.647
				c5.489-9.279,11.5-31.912,14.881-58.347c4.697-17.44,48.494,0.777,48.82,37.503c0.334,37.664-15.293,68.203-23.816,87.523
				C306.765,568.972,225.105,585.986,218.343,588.514z"/>
			
				<linearGradient id="SVGID_1_" gradientUnits="userSpaceOnUse" x1="194.2852" y1="776.2202" x2="243.1289" y2="792.0945" gradientTransform="matrix(0.9986 0.053 -0.053 0.9986 102.2559 -281.6008)">
				<stop  offset="6.030000e-006" style="stop-color:#F3B190"/>
				<stop  offset="1" style="stop-color:#FFD1AF"/>
			</linearGradient>
			<path fill="url(#SVGID_1_)" d="M234.667,572.607c4.182-10.878,11.672-21.842,15.735-27.646
				c2.076-2.954,11.503-13.653,17.601-20.059c6.593-6.945,12.11-13.454,13.887-16.025c7.553-10.916,14.882-35.269,16.797-60.027
				c6.207-7.337,27.668,5.482,30.225,26.648c2.317,19.253-4.685,47.028-12.919,66.362c0,0,15.247,0.748,15.86,5.108
				C329.75,547.537,257.593,567.002,234.667,572.607z"/>
		</g>
		<g>
			<path fill="#B0683A" d="M193.979,578.601c15.473-10.33,45.25-31.751,45.25-31.751s7.941-2.372,14.034-5.264
				c14.413-6.798,25.158-5.866,41.048-9.028c33.355,3.295,52.424-4.488,88.332,3.707c14.735,44.997,11.423,91.201,11.973,159.618
				c0.127,16.238-2.117,37.001-6.552,43.464c-20.631,14.292-72.509,17.416-91.68,15.485c-24.721-3.655-89.314-21.19-100.02-26.198
				C214.224,716.722,236.979,642.791,193.979,578.601z"/>
			<linearGradient id="SVGID_2_" gradientUnits="userSpaceOnUse" x1="379.5645" y1="641.0669" x2="139.0348" y2="626.2396">
				<stop  offset="6.030000e-006" style="stop-color:#F3B190"/>
				<stop  offset="1" style="stop-color:#FFD1AF"/>
			</linearGradient>
			<path fill="url(#SVGID_2_)" d="M301.146,742.92c-38.103-6.344-80.243-18.652-96.837-24.598
				c-15.087-14.288-30.17-94.474-6.356-128.605c19.665-15.566,86.41-60.724,95.472-60.648c33.936,2.917,62.76,4.484,95.247,11.878
				c5.233,49.907-5.208,167.993-20.091,193.376C362.097,738.125,328.791,741.784,301.146,742.92z"/>
			
				<linearGradient id="SVGID_3_" gradientUnits="userSpaceOnUse" x1="350.1899" y1="889.4395" x2="205.8373" y2="916.9357" gradientTransform="matrix(0.9986 0.053 -0.053 0.9986 102.2559 -281.6008)">
				<stop  offset="6.030000e-006" style="stop-color:#F3B190"/>
				<stop  offset="1" style="stop-color:#FFD1AF"/>
			</linearGradient>
			<path fill="url(#SVGID_3_)" d="M388.672,540.946c-32.487-7.394-48.792-6.467-82.721-9.383c-0.175,0-12.5,4.9-12.688,4.914
				c-5.998,55.719,1.535,98.496,6.297,167.155c-3.174,13.09-6.351,29.772,0.396,39.288c9.329,1.435,64.949-0.965,80.613-14.533
				c1.261-8.715,1.537-13.483,1.331-25.252C381.255,666.494,393.667,588.519,388.672,540.946z"/>
			<path fill="#B0683A" d="M309.544,585.986c5.367,2.178,72.843-5.208,83.464-4.351c5.541,1.719,18.082,9.671,21.651,14.226
				c4.372,11.703,1.389,33.943-3.375,49.419c-2.027,2.774-5.356,5.96-5.356,5.96s4.355,3.209,4.166,6.542
				c-0.106,16.251-6.289,42.408-13.69,45.849c-25.751,6.646-65.953,5.879-78.387,3.972
				C313.055,698.875,310.122,601.306,309.544,585.986z"/>
			
				<linearGradient id="SVGID_4_" gradientUnits="userSpaceOnUse" x1="413.4478" y1="914.3799" x2="207.8014" y2="918.4122" gradientTransform="matrix(0.9986 0.053 -0.053 0.9986 102.2559 -281.6008)">
				<stop  offset="6.030000e-006" style="stop-color:#F3B190"/>
				<stop  offset="1" style="stop-color:#FFD1AF"/>
			</linearGradient>
			<path fill="url(#SVGID_4_)" d="M301.947,705.616c0.791-22.231-1.892-36.376-2.386-51.602c-1.437-20.792-3.97-42.071-7.142-64.297
				c7.496,0.388,17.099,5.344,17.099,5.344s41.386,0.971,60.691,1.804c5.655,2.594,25.562-0.028,29.711,1.373
				c5.975,11.059,6.408,32.362-0.736,46.645c-4.682,2.419-15.274,4.81-15.274,4.81s6.147,2.22,12.361,3.186
				c2.497,11.589,2.014,34.464-6.02,43.61C371.044,703.789,313.143,707.149,301.947,705.616z"/>
			<path fill="#B0683A" d="M316.624,653.622c-3.171,0.393-0.894,2.982,0.895,3.863c23.812,0,59.536,0.899,81.282-4.966
				c1.218-2.32,3.143-5.889,4.066-8.394C375.267,652.727,341.629,653.622,316.624,653.622z"/>
			<path fill="#B0683A" d="M313.646,594.158c-1.55-0.398-6.706-3.527-7.956-3.589c-0.972,4.707-0.497,10.23,0.516,17.204
				C307.992,601.225,310.374,595.861,313.646,594.158z"/>
			<path fill="#B0683A" d="M291.62,529.395c19.052-4.961,73.822-4.961,92.486-2.386c12.297,3.371,22.117,7.542,24.202,9.923
				c6.328,10.443,10.418,38.397,2.083,56.865c-8.337,6.534-19.021,10.411-26.196,10.411c-6.104,0-68.89-5.975-78.668-7.759
				C297.84,588.093,279.162,564.778,291.62,529.395z"/>
			<linearGradient id="SVGID_5_" gradientUnits="userSpaceOnUse" x1="413.5513" y1="568.0435" x2="302.0976" y2="563.8848">
				<stop  offset="6.030000e-006" style="stop-color:#F3B190"/>
				<stop  offset="1" style="stop-color:#FFD1AF"/>
			</linearGradient>
			<path fill="url(#SVGID_5_)" d="M385.292,596.07c0,0-70.156,0.985-90.099-2.878c-7.879-15.097-13.775-39.354-0.599-56.856
				c19.452-1.785,72.971-1.453,88.048-0.071c6.744,2.191,11.08,3.934,17.332,6.613c3.543,12.375,4.982,39.852,0.594,47.038
				C395.209,593.5,385.292,596.07,385.292,596.07z"/>
			<linearGradient id="SVGID_6_" gradientUnits="userSpaceOnUse" x1="424.2937" y1="568.4551" x2="391.9053" y2="566.5693">
				<stop  offset="6.030000e-006" style="stop-color:#F3B190"/>
				<stop  offset="1" style="stop-color:#FFD1AF"/>
			</linearGradient>
			<path fill="url(#SVGID_6_)" d="M399.974,542.878c-6.343-3.968-16.848-6.703-17.061-6.741c7.738,11.111,8.531,44.06,1.983,59.933
				c4.289-0.407,10.313-2.57,15.672-6.154C404.957,582.729,403.518,555.252,399.974,542.878z"/>
		</g>
	</g>
</g>
</svg>
