<?xml version="1.0" encoding="UTF-8" standalone="no"?>
<!-- Generator: Adobe Illustrator 15.0.0, SVG Export Plug-In . SVG Version: 6.00 Build 0)  -->

<svg
   xmlns:dc="http://purl.org/dc/elements/1.1/"
   xmlns:cc="http://creativecommons.org/ns#"
   xmlns:rdf="http://www.w3.org/1999/02/22-rdf-syntax-ns#"
   xmlns:svg="http://www.w3.org/2000/svg"
   xmlns="http://www.w3.org/2000/svg"
   xmlns:sodipodi="http://sodipodi.sourceforge.net/DTD/sodipodi-0.dtd"
   xmlns:inkscape="http://www.inkscape.org/namespaces/inkscape"
   version="1.1"
   x="0px"
   y="0px"
   width="1161.275px"
   height="1158.873px"
   viewBox="0 0 1161.275 1158.873"
   enable-background="new 0 0 1161.275 1158.873"
   xml:space="preserve"
   id="svg2"
   inkscape:version="0.91 r13725"
   sodipodi:docname="Tshirt_Long_NH_01_woman.svg"><metadata
     id="metadata118"><rdf:RDF><cc:Work
         rdf:about=""><dc:format>image/svg+xml</dc:format><dc:type
           rdf:resource="http://purl.org/dc/dcmitype/StillImage" /><dc:title></dc:title></cc:Work></rdf:RDF></metadata><defs
     id="defs116" /><sodipodi:namedview
     pagecolor="#ffffff"
     bordercolor="#666666"
     borderopacity="1"
     objecttolerance="10"
     gridtolerance="10"
     guidetolerance="10"
     inkscape:pageopacity="0"
     inkscape:pageshadow="2"
     inkscape:window-width="969"
     inkscape:window-height="480"
     id="namedview114"
     showgrid="false"
     inkscape:zoom="0.20364612"
     inkscape:cx="580.63751"
     inkscape:cy="579.43652"
     inkscape:window-x="0"
     inkscape:window-y="21"
     inkscape:window-maximized="0"
     inkscape:current-layer="svg2" /><g
     id="Clothes"><g
       id="g5"><g
         id="g7"><g
           id="g9"><path
             fill="#999999"
             d="M1092.639,667.399c-2.623-46.133-18.168-162.568-18.168-220.447      c4.844-167.962-37.551-302.813-140.029-337.718c-5.248,1.616-59.83,19.159-69.52,21.581      c4.039,37.953,65.408,564.443,71.975,657.199c30.912,117.817,87.392,338.922,98.412,370.751      c20.992,1.614,92.053-15.343,125.967-29.879C1143.51,1022.296,1144.719,896.326,1092.639,667.399z"
             id="path11" /><path
             fill="#E8EBED"
             d="M1045.871,1143.9c-11.736-39.571-42.463-157.899-67.644-254.875      c-9.816-37.803-19.164-73.787-26.926-103.399c-5.553-75.871-43.98-411.615-62.504-573.475      c-3.574-31.217-6.436-56.204-8.082-70.79c11.914-3.62,29.951-9.326,48.479-15.219c1.871-0.593,3.535-1.123,4.947-1.57      c84.988,32.302,130.785,149.201,125.799,321.96c-0.006,37.395,6.031,96.058,11.363,147.817      c3.014,29.287,5.861,56.949,6.822,73.876l0.071,1.212l0.271,1.186c34.764,152.803,45.66,259.573,54.412,345.364      c3.898,38.168,7.318,71.698,12.203,103.672C1114.686,1130.833,1068.777,1141.628,1045.871,1143.9z"
             id="path13" /><path
             fill="#FFFFFF"
             d="M1132.879,1015.987c-8.752-85.791-19.648-192.561-54.412-345.364l-0.271-1.186l-0.071-1.212      c-0.961-16.927-3.808-44.589-6.822-73.876c-5.332-51.759-11.369-110.422-11.363-147.817      c4.803-166.439-37.543-280.994-116.645-318.041c20.922,339.132,49.42,679.735,141.928,1008.366      c20.246-4.61,42.566-10.839,59.859-17.198C1140.197,1087.685,1136.777,1054.155,1132.879,1015.987z"
             id="path15" /></g><g
           id="g17"><path
             fill="#999999"
             d="M304.719,81.759C403.233,46.633,530.01,8.478,551.813,0c9.69,117.896,239.828,124.759,239.828,18.168      c18.168,12.113,142.502,86.321,167.135,102.472c15.16,119.187,62.834,205.553,61.188,320.255      c-7.166,63.568-52.32,198.132-46.027,254.362c16.957,151.537,42.432,298.007,50.068,340.767      c-103.365,92.862-495.811,83.172-665.386-27.455c24.225-97.708,68.64-231.752,61.373-311.696      C390.919,583.017,275.648,231.952,304.719,81.759z"
             id="path19" /><path
             fill="#E8EBED"
             d="M752.076,1084.706c-146.729,0-292.867-32.32-376.784-82.838c4.649-18.228,9.88-37.521,15.363-57.756      c23.311-85.997,49.728-183.467,43.812-248.554l-0.107-1.156l-0.286-1.125c-5.19-20.326-13.136-48.264-22.337-80.617      c-42.441-149.222-112.849-396.772-94.141-520.048c57.876-20.42,123.919-41.521,172.729-57.115      c20.742-6.629,37.929-12.121,50.143-16.168c15.735,58.341,81.816,88.733,144.697,88.733c59.91,0,104.621-26.135,117.34-65.917      c15.33,9.43,37.217,22.7,59.904,36.45c32.871,19.926,66.73,40.452,82.844,50.638c12.936,30.65,36.684,83.565,48.063,125.128      c16.021,58.516,19.381,128.392,12.123,185.605c-2.783,23.917-11.178,58.76-20.064,95.625      c-14.75,61.198-29.998,124.479-25.885,161.281c15.605,139.456,38.279,274.234,48.725,333.381      C963.756,1064.463,869.16,1084.706,752.076,1084.706z"
             id="path21" /><path
             fill="#FFFFFF"
             d="M985.373,535.593c8.887-36.864,15.949-71.899,20.064-95.625c14.525-83.861,3.898-129.511-12.123-188.028      c-11.379-41.564-25.438-88.422-48.063-122.706c-16.113-10.186-49.973-30.712-82.844-50.638      c-22.688-13.75-44.574-27.02-59.904-36.45c-12.719,39.782-57.43,65.917-117.34,65.917c-62.881,0-128.962-30.393-144.697-88.733      c-12.213,4.047-29.4,9.539-50.143,16.168c-45.196,14.439-105.161,33.6-159.74,52.57      c16.276,126.893,92.766,350.244,120.09,373.014c67.829,56.527,176.037,61.371,277.782,56.527      c-66.211,48.449-156.658,64.601-219.642,58.14c20.995,125.97-22.609,384.37-42.276,466.46      c80.903,26.718,183.065,42.497,285.538,42.497c117.084,0,211.68-20.243,256.137-54.452      c-10.445-59.146-33.119-193.925-48.725-333.381C955.375,660.072,970.623,596.791,985.373,535.593z"
             id="path23" /><g
             id="g25"><path
               fill="#999999"
               d="M681.436,148.205c-66.552,0.003-119.336-31.567-146.804-61.508       c-20.122-21.93-29.998-45.683-27.816-66.881l7.229,0.743c-1.966,19.104,7.246,40.848,25.943,61.227       c26.877,29.294,79.257,60.252,144.804,59.124c98.375-1.623,136.199-57.127,136.932-91.732l7.268,0.156       c-0.789,37.308-40.605,97.135-144.076,98.844C683.75,148.197,682.586,148.205,681.436,148.205z"
               id="path27" /></g></g><g
           id="g29"><path
             fill="#999999"
             d="M304.719,81.759c-45.423,24.832-84.183,112.041-118.098,205.307      c-19.38,40.375-138.083,266.072-165.942,307.658c24.63-1.211,223.276-1.211,238.617-1.211      c22.612-45.221,141.314-289.086,152.618-324.615C415.142,186.532,359.629,88.22,304.719,81.759z"
             id="path31" /><path
             fill="#FFFFFF"
             d="M46.919,579.669c42.456-72.746,136.997-253.378,152.805-286.313l0.311-0.647l0.246-0.674      c25.783-70.904,64.6-167.062,107.254-195.024c48.66,4.734,118.914,65.296,89.921,169.282      C384.5,303.221,283.109,512.787,250.294,578.978C210.036,578.988,100.078,579.07,46.919,579.669z"
             id="path33" /></g></g></g></g><g
     id="Capa_4"><g
       id="g108"><path
         fill="#999999"
         d="M0.088,631.062c-2.423-27.859,45.183-115.069,122.741-115.069c45.22,0,90.438,32.302,123.547,41.992    c26.245,7.672,81.961,16.149,81.961,16.149c-42.394,44.816-27.859,135.661,3.634,157.463    C292,737.652,154.741,757.223,98.2,737.652C66.707,726.751,4.933,686.779,0.088,631.062z"
         id="path110" /><path
         fill="#FFFFFF"
         d="M170.913,731.608c-30.353,0-53.217-2.588-67.959-7.691c-25.904-8.967-84.124-45.114-88.386-94.113    c-0.733-8.435,8.527-35.368,26.703-56.478c12.288-14.274,39.513-41.687,79.942-43.605c33.413-1.584,74.291,21.802,109.012,35.531    c29.877,8.881,55.221,13.132,74.292,16.148c-12.288,22.733-19.326,55.435-16.107,86.321c2.117,20.333,7.766,38.858,15.83,53.182    C252.623,727.924,206.916,731.608,170.913,731.608z"
         id="path112" /></g></g></svg>