<?xml version="1.0" encoding="UTF-8" standalone="no"?>
<!-- Generator: Adobe Illustrator 15.0.0, SVG Export Plug-In . SVG Version: 6.00 Build 0)  -->

<svg
   xmlns:dc="http://purl.org/dc/elements/1.1/"
   xmlns:cc="http://creativecommons.org/ns#"
   xmlns:rdf="http://www.w3.org/1999/02/22-rdf-syntax-ns#"
   xmlns:svg="http://www.w3.org/2000/svg"
   xmlns="http://www.w3.org/2000/svg"
   xmlns:sodipodi="http://sodipodi.sourceforge.net/DTD/sodipodi-0.dtd"
   xmlns:inkscape="http://www.inkscape.org/namespaces/inkscape"
   version="1.1"
   x="0px"
   y="0px"
   width="942.357px"
   height="1099.241px"
   viewBox="0 0 942.357 1099.241"
   enable-background="new 0 0 942.357 1099.241"
   xml:space="preserve"
   id="svg2"
   inkscape:version="0.91 r13725"
   sodipodi:docname="Tshirt_01_NH_woman.svg"><metadata
     id="metadata100"><rdf:RDF><cc:Work
         rdf:about=""><dc:format>image/svg+xml</dc:format><dc:type
           rdf:resource="http://purl.org/dc/dcmitype/StillImage" /><dc:title></dc:title></cc:Work></rdf:RDF></metadata><defs
     id="defs98" /><sodipodi:namedview
     pagecolor="#ffffff"
     bordercolor="#666666"
     borderopacity="1"
     objecttolerance="10"
     gridtolerance="10"
     guidetolerance="10"
     inkscape:pageopacity="0"
     inkscape:pageshadow="2"
     inkscape:window-width="969"
     inkscape:window-height="480"
     id="namedview96"
     showgrid="false"
     inkscape:zoom="0.2146936"
     inkscape:cx="471.1785"
     inkscape:cy="549.62048"
     inkscape:window-x="9"
     inkscape:window-y="30"
     inkscape:window-maximized="0"
     inkscape:current-layer="svg2" /><g
     id="Clothes"><g
       id="g5"><g
         id="g7"><g
           id="g9"><path
             fill="#999999"
             d="M797.886,109.234c155.775,57.453,137.205,319.549,144.471,404.336      c-24.225,2.422-150.6,15.422-164.73,16.229c-1.213-10.901-48.049-392.121-49.26-398.984      C738.056,128.394,792.638,110.851,797.886,109.234z"
             id="path11" /><path
             fill="#FFFFFF"
             d="M790.363,514.162c-7.607-62.238-38.307-312.551-45.969-372.872c11.906-3.622,29.834-9.292,48.244-15.148      c1.785-0.568,3.388-1.076,4.756-1.511C918.117,173.765,921.367,366.17,925.4,469.966c0.44,11.337,1.92,21.535,2.422,30.685      C880.941,505.321,819.109,511.571,790.363,514.162z"
             id="path13" /></g><g
           id="g15"><g
             id="g17"><path
               fill="#999999"
               d="M168.164,81.759C266.678,46.633,393.455,8.478,415.257,0c9.69,117.896,239.828,124.759,239.828,18.168       c18.168,12.113,142.502,86.321,167.135,102.472c15.16,119.187,62.834,205.553,61.188,320.255       c-7.166,63.568-52.32,198.132-46.027,254.362c16.957,151.537,42.432,298.007,50.068,340.767       c-103.365,92.862-495.811,83.172-665.386-27.455c24.225-97.708,68.64-231.752,61.373-311.696       C254.364,583.017,139.093,231.952,168.164,81.759z"
               id="path19" /><path
               fill="#E8EBED"
               d="M615.521,1084.706c-146.729,0-292.867-32.32-376.784-82.838c4.649-18.228,9.88-37.521,15.363-57.756       c23.311-85.997,49.728-183.467,43.812-248.554l-0.107-1.156l-0.286-1.125c-5.19-20.326-13.136-48.264-22.337-80.617       C232.74,463.438,162.332,215.889,181.04,92.613c57.876-20.42,123.919-41.521,172.729-57.115       c20.742-6.629,37.929-12.121,50.143-16.168c15.735,58.341,81.816,88.733,144.697,88.733c59.91,0,104.621-26.135,117.34-65.917       c15.33,9.43,37.217,22.7,59.904,36.45c32.871,19.926,66.73,40.452,82.844,50.638c12.936,30.65,36.684,83.565,48.063,125.128       c16.021,58.516,19.381,128.392,12.123,185.605c-2.783,23.917-11.178,58.76-20.064,95.625       c-14.75,61.198-29.998,124.479-25.885,161.281c15.605,139.456,38.279,274.234,48.725,333.381       C827.201,1064.463,732.605,1084.706,615.521,1084.706z"
               id="path21" /><path
               fill="#FFFFFF"
               d="M848.818,535.593c8.887-36.864,17.281-71.707,20.064-95.625c7.258-57.213,3.898-127.09-12.123-185.605       c-11.379-41.563-35.127-94.479-48.063-125.128c-16.113-10.186-49.973-30.712-82.844-50.638       c-22.688-13.75-44.574-27.02-59.904-36.45c-12.719,39.782-57.43,65.917-117.34,65.917c-62.881,0-128.962-30.393-144.697-88.733       c-12.213,4.047-29.4,9.539-50.143,16.168c-45.196,14.439-105.161,33.6-159.74,52.57       c16.276,126.893,92.766,350.244,120.09,373.014c67.829,56.527,176.037,61.371,277.782,56.527       c-66.211,48.449-156.658,64.601-219.642,58.14c20.995,125.97-22.609,384.37-42.276,466.46       c80.903,26.718,183.065,42.497,285.538,42.497c117.084,0,211.68-20.243,256.137-54.452       c-10.445-59.146-33.119-193.925-48.725-333.381C818.82,660.072,834.068,596.791,848.818,535.593z"
               id="path23" /></g><g
             id="g25"><path
               fill="#999999"
               d="M544.88,148.205c-66.552,0.003-119.336-31.567-146.804-61.508       c-20.122-21.93-29.998-45.683-27.816-66.881l7.229,0.743c-1.966,19.104,7.246,40.848,25.943,61.227       c26.877,29.294,79.257,60.252,144.804,59.124c98.375-1.623,136.199-57.127,136.932-91.732l7.268,0.156       c-0.789,37.308-40.605,97.135-144.076,98.844C547.195,148.197,546.031,148.205,544.88,148.205z"
               id="path27" /></g></g><g
           id="g29"><path
             fill="#999999"
             d="M168.164,81.759C123.547,98.516,83.486,194.71,50.065,285.855C27.457,336.728,8.077,375.488,0,392.445      c40.374,12.922,167.153,75.099,176.843,84.789c22.612-45.221,87.212-172.807,98.516-208.335      C278.587,186.532,223.074,88.22,168.164,81.759z"
             id="path31" /><path
             fill="#FFFFFF"
             d="M171.082,456.28c-34.277-19.776-111.198-56.179-151.021-71.947c9.664-19.91,25.616-52.816,43.285-92.575      l0.2-0.443l0.165-0.457c19.155-52.238,63.374-172.835,106.299-194.07c92.43,7.379,103.735,97.82,90.891,169.542      C249.56,299.71,196.926,404.735,171.082,456.28z"
             id="path33" /></g></g></g></g></svg>