<?xml version="1.0" encoding="utf-8"?>
<!-- Generator: Adobe Illustrator 15.0.0, SVG Export Plug-In . SVG Version: 6.00 Build 0)  -->
<!DOCTYPE svg PUBLIC "-//W3C//DTD SVG 1.1//EN" "http://www.w3.org/Graphics/SVG/1.1/DTD/svg11.dtd">
<svg version="1.1" xmlns="http://www.w3.org/2000/svg" xmlns:xlink="http://www.w3.org/1999/xlink" x="0px" y="0px"
	 width="1161.275px" height="1158.873px" viewBox="0 0 1161.275 1158.873" enable-background="new 0 0 1161.275 1158.873"
	 xml:space="preserve">
<g id="Clothes">
	<g>
		<g>
			<g>
				<path fill="#999999" d="M1092.639,667.399c-2.623-46.133-18.168-162.568-18.168-220.447
					c4.844-167.962-37.551-302.813-140.029-337.718c-5.248,1.616-59.83,19.159-69.52,21.581
					c4.039,37.953,65.408,564.443,71.975,657.199c30.912,117.817,87.392,338.922,98.412,370.751
					c20.992,1.614,92.053-15.343,125.967-29.879C1143.51,1022.296,1144.719,896.326,1092.639,667.399z"/>
				<path fill="#E8EBED" d="M1045.871,1143.9c-11.736-39.571-42.463-157.899-67.644-254.875
					c-9.816-37.803-19.164-73.787-26.926-103.399c-5.553-75.871-43.98-411.615-62.504-573.475
					c-3.574-31.217-6.436-56.204-8.082-70.79c11.914-3.62,29.951-9.326,48.479-15.219c1.871-0.593,3.535-1.123,4.947-1.57
					c84.988,32.302,130.785,149.201,125.799,321.96c-0.006,37.395,6.031,96.058,11.363,147.817
					c3.014,29.287,5.861,56.949,6.822,73.876l0.071,1.212l0.271,1.186c34.764,152.803,45.66,259.573,54.412,345.364
					c3.898,38.168,7.318,71.698,12.203,103.672C1114.686,1130.833,1068.777,1141.628,1045.871,1143.9z"/>
				<path fill="#FFFFFF" d="M1132.879,1015.987c-8.752-85.791-19.648-192.561-54.412-345.364l-0.271-1.186l-0.071-1.212
					c-0.961-16.927-3.808-44.589-6.822-73.876c-5.332-51.759-11.369-110.422-11.363-147.817
					c4.803-166.439-37.543-280.994-116.645-318.041c20.922,339.132,49.42,679.735,141.928,1008.366
					c20.246-4.61,42.566-10.839,59.859-17.198C1140.197,1087.685,1136.777,1054.155,1132.879,1015.987z"/>
			</g>
			<g>
				<path fill="#999999" d="M304.719,81.759C403.233,46.633,530.01,8.478,551.813,0c9.69,117.896,239.828,124.759,239.828,18.168
					c18.168,12.113,142.502,86.321,167.135,102.472c15.16,119.187,62.834,205.553,61.188,320.255
					c-7.166,63.568-52.32,198.132-46.027,254.362c16.957,151.537,42.432,298.007,50.068,340.767
					c-103.365,92.862-495.811,83.172-665.386-27.455c24.225-97.708,68.64-231.752,61.373-311.696
					C390.919,583.017,275.648,231.952,304.719,81.759z"/>
				<path fill="#E8EBED" d="M752.076,1084.706c-146.729,0-292.867-32.32-376.784-82.838c4.649-18.228,9.88-37.521,15.363-57.756
					c23.311-85.997,49.728-183.467,43.812-248.554l-0.107-1.156l-0.286-1.125c-5.19-20.326-13.136-48.264-22.337-80.617
					c-42.441-149.222-112.849-396.772-94.141-520.048c57.876-20.42,123.919-41.521,172.729-57.115
					c20.742-6.629,37.929-12.121,50.143-16.168c15.735,58.341,81.816,88.733,144.697,88.733c59.91,0,104.621-26.135,117.34-65.917
					c15.33,9.43,37.217,22.7,59.904,36.45c32.871,19.926,66.73,40.452,82.844,50.638c12.936,30.65,36.684,83.565,48.063,125.128
					c16.021,58.516,19.381,128.392,12.123,185.605c-2.783,23.917-11.178,58.76-20.064,95.625
					c-14.75,61.198-29.998,124.479-25.885,161.281c15.605,139.456,38.279,274.234,48.725,333.381
					C963.756,1064.463,869.16,1084.706,752.076,1084.706z"/>
				<path fill="#FFFFFF" d="M985.373,535.593c8.887-36.864,15.949-71.899,20.064-95.625c14.525-83.861,3.898-129.511-12.123-188.028
					c-11.379-41.564-25.438-88.422-48.063-122.706c-16.113-10.186-49.973-30.712-82.844-50.638
					c-22.688-13.75-44.574-27.02-59.904-36.45c-12.719,39.782-57.43,65.917-117.34,65.917c-62.881,0-128.962-30.393-144.697-88.733
					c-12.213,4.047-29.4,9.539-50.143,16.168c-45.196,14.439-105.161,33.6-159.74,52.57
					c16.276,126.893,92.766,350.244,120.09,373.014c67.829,56.527,176.037,61.371,277.782,56.527
					c-66.211,48.449-156.658,64.601-219.642,58.14c20.995,125.97-22.609,384.37-42.276,466.46
					c80.903,26.718,183.065,42.497,285.538,42.497c117.084,0,211.68-20.243,256.137-54.452
					c-10.445-59.146-33.119-193.925-48.725-333.381C955.375,660.072,970.623,596.791,985.373,535.593z"/>
				<g>
					<path fill="#999999" d="M681.436,148.205c-66.552,0.003-119.336-31.567-146.804-61.508
						c-20.122-21.93-29.998-45.683-27.816-66.881l7.229,0.743c-1.966,19.104,7.246,40.848,25.943,61.227
						c26.877,29.294,79.257,60.252,144.804,59.124c98.375-1.623,136.199-57.127,136.932-91.732l7.268,0.156
						c-0.789,37.308-40.605,97.135-144.076,98.844C683.75,148.197,682.586,148.205,681.436,148.205z"/>
				</g>
			</g>
			<g>
				<path fill="#999999" d="M304.719,81.759c-45.423,24.832-84.183,112.041-118.098,205.307
					c-19.38,40.375-138.083,266.072-165.942,307.658c24.63-1.211,223.276-1.211,238.617-1.211
					c22.612-45.221,141.314-289.086,152.618-324.615C415.142,186.532,359.629,88.22,304.719,81.759z"/>
				<path fill="#FFFFFF" d="M46.919,579.669c42.456-72.746,136.997-253.378,152.805-286.313l0.311-0.647l0.246-0.674
					c25.783-70.904,64.6-167.062,107.254-195.024c48.66,4.734,118.914,65.296,89.921,169.282
					C384.5,303.221,283.109,512.787,250.294,578.978C210.036,578.988,100.078,579.07,46.919,579.669z"/>
			</g>
		</g>
	</g>
</g>
<g id="Arm">
	<g>
		<path fill="#B0683A" d="M418.647,725.063c-9.523,0-40.015,2.964-69.851,4.369c-109.935,5.161-208.776,15.873-247.667,0.791
			c-28.752-11.149-49.554-28.868-61.126-39.69c-26.241-24.531-37.387-44.386-33.905-66.684
			c3.713-23.807,51.762-108.353,136.333-88.706c44.224,0.747,110.924,31.547,110.924,31.547s68.168,13.104,135.217,15.726
			C394.463,615.451,418.266,677.008,418.647,725.063z"/>
		<linearGradient id="SVGID_1_" gradientUnits="userSpaceOnUse" x1="212.0771" y1="860.3955" x2="202.41" y2="554.263">
			<stop  offset="6.030000e-006" style="stop-color:#F3B190"/>
			<stop  offset="1" style="stop-color:#FFD1AF"/>
		</linearGradient>
		<path fill="url(#SVGID_1_)" d="M111.445,720.689c-23.943-7.252-52.641-31.491-63.21-41.47
			c-23.27-21.933-30.951-37.229-28.072-53.779c2.158-12.403,35.209-92.702,118.55-94.464c40.324,0.8,107.638,44.046,108.176,44.349
			c0,0,46.419,13.408,131.891,17.431c4.13,24.684,12.277,77.904,13.989,121.854c-1.729,0.246-15.338-0.142-53.497,2.917
			C245.732,725.002,152.226,732.003,111.445,720.689z"/>
	</g>
	<g>
		<g>
			<path fill="#B0683A" d="M354.898,588.514c6.107-13.081,14.103-37.267,20.288-44.443c3.631-4.185,32.272-34.719,37.513-44.647
				c5.489-9.279,11.5-31.912,14.881-58.347c4.697-17.44,48.494,0.777,48.82,37.503c0.334,37.664-15.293,68.203-23.816,87.523
				C443.32,568.972,361.66,585.986,354.898,588.514z"/>
			
				<linearGradient id="SVGID_2_" gradientUnits="userSpaceOnUse" x1="330.8403" y1="776.2202" x2="379.6841" y2="792.0945" gradientTransform="matrix(0.9986 0.053 -0.053 0.9986 102.4473 -288.8383)">
				<stop  offset="6.030000e-006" style="stop-color:#F3B190"/>
				<stop  offset="1" style="stop-color:#FFD1AF"/>
			</linearGradient>
			<path fill="url(#SVGID_2_)" d="M371.222,572.607c4.182-10.878,11.672-21.842,15.735-27.646
				c2.076-2.954,11.503-13.653,17.601-20.059c6.593-6.945,12.11-13.454,13.887-16.025c7.553-10.916,14.882-35.269,16.797-60.027
				c6.207-7.337,27.668,5.482,30.225,26.648c2.317,19.253-4.685,47.028-12.919,66.362c0,0,15.247,0.748,15.86,5.108
				C466.305,547.537,394.148,567.002,371.222,572.607z"/>
		</g>
		<g>
			<path fill="#B0683A" d="M330.534,578.601c15.473-10.33,45.25-31.751,45.25-31.751s7.941-2.372,14.034-5.264
				c14.413-6.798,25.158-5.866,41.048-9.028c33.355,3.295,52.424-4.488,88.332,3.707c14.735,44.997,11.423,91.201,11.973,159.618
				c0.127,16.238-2.117,37.001-6.552,43.464c-20.631,14.292-72.509,17.416-91.68,15.485c-24.721-3.655-89.314-21.19-100.02-26.198
				C350.779,716.722,373.534,642.791,330.534,578.601z"/>
			<linearGradient id="SVGID_3_" gradientUnits="userSpaceOnUse" x1="516.1196" y1="641.0669" x2="275.59" y2="626.2396">
				<stop  offset="6.030000e-006" style="stop-color:#F3B190"/>
				<stop  offset="1" style="stop-color:#FFD1AF"/>
			</linearGradient>
			<path fill="url(#SVGID_3_)" d="M437.702,742.92c-38.103-6.344-80.243-18.652-96.837-24.598
				c-15.087-14.288-30.17-94.474-6.356-128.605c19.665-15.566,86.41-60.724,95.472-60.648c33.936,2.917,62.76,4.484,95.247,11.878
				c5.233,49.907-5.208,167.993-20.091,193.376C498.652,738.125,465.346,741.784,437.702,742.92z"/>
			
				<linearGradient id="SVGID_4_" gradientUnits="userSpaceOnUse" x1="486.7451" y1="889.4395" x2="342.3925" y2="916.9357" gradientTransform="matrix(0.9986 0.053 -0.053 0.9986 102.4473 -288.8383)">
				<stop  offset="6.030000e-006" style="stop-color:#F3B190"/>
				<stop  offset="1" style="stop-color:#FFD1AF"/>
			</linearGradient>
			<path fill="url(#SVGID_4_)" d="M525.227,540.946c-32.487-7.394-48.792-6.467-82.721-9.383c-0.175,0-12.5,4.9-12.688,4.914
				c-5.998,55.719,1.535,98.496,6.297,167.155c-3.174,13.09-6.351,29.772,0.396,39.288c9.329,1.435,64.949-0.965,80.613-14.533
				c1.261-8.715,1.537-13.483,1.331-25.252C517.811,666.494,530.222,588.519,525.227,540.946z"/>
			<path fill="#B0683A" d="M446.1,585.986c5.367,2.178,72.843-5.208,83.464-4.351c5.541,1.719,18.082,9.671,21.651,14.226
				c4.372,11.703,1.389,33.943-3.375,49.419c-2.027,2.774-5.356,5.96-5.356,5.96s4.355,3.209,4.166,6.542
				c-0.106,16.251-6.289,42.408-13.69,45.849c-25.751,6.646-65.953,5.879-78.387,3.972
				C449.61,698.875,446.677,601.306,446.1,585.986z"/>
			
				<linearGradient id="SVGID_5_" gradientUnits="userSpaceOnUse" x1="550.0029" y1="914.3799" x2="344.3566" y2="918.4122" gradientTransform="matrix(0.9986 0.053 -0.053 0.9986 102.4473 -288.8383)">
				<stop  offset="6.030000e-006" style="stop-color:#F3B190"/>
				<stop  offset="1" style="stop-color:#FFD1AF"/>
			</linearGradient>
			<path fill="url(#SVGID_5_)" d="M438.502,705.616c0.791-22.231-1.892-36.376-2.386-51.602c-1.437-20.792-3.97-42.071-7.142-64.297
				c7.496,0.388,17.099,5.344,17.099,5.344s41.386,0.971,60.691,1.804c5.655,2.594,25.562-0.028,29.711,1.373
				c5.975,11.059,6.408,32.362-0.736,46.645c-4.682,2.419-15.274,4.81-15.274,4.81s6.147,2.22,12.361,3.186
				c2.497,11.589,2.014,34.464-6.02,43.61C507.599,703.789,449.698,707.149,438.502,705.616z"/>
			<path fill="#B0683A" d="M453.179,653.622c-3.171,0.393-0.894,2.982,0.895,3.863c23.812,0,59.536,0.899,81.282-4.966
				c1.218-2.32,3.143-5.889,4.066-8.394C511.822,652.727,478.185,653.622,453.179,653.622z"/>
			<path fill="#B0683A" d="M450.202,594.158c-1.55-0.398-6.706-3.527-7.956-3.589c-0.972,4.707-0.497,10.23,0.516,17.204
				C444.547,601.225,446.929,595.861,450.202,594.158z"/>
			<path fill="#B0683A" d="M428.175,529.395c19.052-4.961,73.822-4.961,92.486-2.386c12.297,3.371,22.117,7.542,24.202,9.923
				c6.328,10.443,10.418,38.397,2.083,56.865c-8.337,6.534-19.021,10.411-26.196,10.411c-6.104,0-68.89-5.975-78.668-7.759
				C434.395,588.093,415.717,564.778,428.175,529.395z"/>
			<linearGradient id="SVGID_6_" gradientUnits="userSpaceOnUse" x1="550.1064" y1="568.0435" x2="438.6527" y2="563.8848">
				<stop  offset="6.030000e-006" style="stop-color:#F3B190"/>
				<stop  offset="1" style="stop-color:#FFD1AF"/>
			</linearGradient>
			<path fill="url(#SVGID_6_)" d="M521.847,596.07c0,0-70.156,0.985-90.099-2.878c-7.879-15.097-13.775-39.354-0.599-56.856
				c19.452-1.785,72.971-1.453,88.048-0.071c6.744,2.191,11.08,3.934,17.332,6.613c3.543,12.375,4.982,39.852,0.594,47.038
				C531.765,593.5,521.847,596.07,521.847,596.07z"/>
			<linearGradient id="SVGID_7_" gradientUnits="userSpaceOnUse" x1="560.8489" y1="568.4551" x2="528.4604" y2="566.5693">
				<stop  offset="6.030000e-006" style="stop-color:#F3B190"/>
				<stop  offset="1" style="stop-color:#FFD1AF"/>
			</linearGradient>
			<path fill="url(#SVGID_7_)" d="M536.529,542.878c-6.343-3.968-16.848-6.703-17.061-6.741c7.738,11.111,8.531,44.06,1.983,59.933
				c4.289-0.407,10.313-2.57,15.672-6.154C541.512,582.729,540.073,555.252,536.529,542.878z"/>
		</g>
	</g>
</g>
<g id="Capa_4">
	<g>
		<path fill="#999999" d="M0.088,631.062c-2.423-27.859,45.183-115.069,122.741-115.069c45.22,0,90.438,32.302,123.547,41.992
			c26.245,7.672,81.961,16.149,81.961,16.149c-42.394,44.816-27.859,135.661,3.634,157.463
			C292,737.652,154.741,757.223,98.2,737.652C66.707,726.751,4.933,686.779,0.088,631.062z"/>
		<path fill="#FFFFFF" d="M170.913,731.608c-30.353,0-53.217-2.588-67.959-7.691c-25.904-8.967-84.124-45.114-88.386-94.113
			c-0.733-8.435,8.527-35.368,26.703-56.478c12.288-14.274,39.513-41.687,79.942-43.605c33.413-1.584,74.291,21.802,109.012,35.531
			c29.877,8.881,55.221,13.132,74.292,16.148c-12.288,22.733-19.326,55.435-16.107,86.321c2.117,20.333,7.766,38.858,15.83,53.182
			C252.623,727.924,206.916,731.608,170.913,731.608z"/>
	</g>
</g>
</svg>
