<?xml version="1.0" encoding="utf-8"?>
<!-- Generator: Adobe Illustrator 15.0.0, SVG Export Plug-In . SVG Version: 6.00 Build 0)  -->
<!DOCTYPE svg PUBLIC "-//W3C//DTD SVG 1.1//EN" "http://www.w3.org/Graphics/SVG/1.1/DTD/svg11.dtd">
<svg version="1.1" id="Skin_x5F_05" xmlns="http://www.w3.org/2000/svg" xmlns:xlink="http://www.w3.org/1999/xlink" x="0px"
	 y="0px" width="314.207px" height="755.63px" viewBox="0 0 314.207 755.63" enable-background="new 0 0 314.207 755.63"
	 xml:space="preserve">
<g id="_x30_5_1_">
	<g>
		<g>
			<path fill="#592E05" d="M178.108,689.822c0.525,8.042-3.27,15.251-5.781,23.875c-1.818,6.236-1.486,11.412,1.051,14.576
				c2.713,3.386,13.404,4.021,21.025,2.514c4.396-0.87,13.666-1.006,17.871,0c4.205,1.005,15.166,3.285,22,3.361
				c5.52,0.062,10.957-0.817,10.957-0.817s9.059,2.132,14.064,0.981c7.115-1.636,9.404-9.568,7.932-11.285
				c-0.734-0.859-7.295-1.427-14.473-3.681c-7.178-2.253-13.75-7.911-17.615-11.43c-5.52-5.027-16.557-10.053-20.236-16.085
				C205.966,688.816,184.417,690.827,178.108,689.822z"/>
			<linearGradient id="SVGID_1_" gradientUnits="userSpaceOnUse" x1="137.0928" y1="709.5859" x2="238.4686" y2="713.2787">
				<stop  offset="6.030000e-006" style="stop-color:#97613F"/>
				<stop  offset="0.0306" style="stop-color:#986240"/>
				<stop  offset="0.632" style="stop-color:#AE7B50"/>
				<stop  offset="1" style="stop-color:#B68456"/>
			</linearGradient>
			<path fill="url(#SVGID_1_)" d="M245.722,730.714c0,0-5.943,1.104-11.447,1.146c-5.51,0.042-11.285-1.146-21.262-3.763
				c-3.48-0.913-12.445-0.741-19.215,0.083c-12.232,1.49-17.266-0.928-17.918-1.74c-1.861-2.322-2.049-6.672-0.516-11.934
				c0.678-2.324,1.465-4.583,2.227-6.77c1.713-4.914,3.35-9.607,3.666-14.642c1.113,0.039,2.43,0.058,4.006,0.058
				c1.465,0,3.047-0.016,4.701-0.03c1.787-0.017,3.662-0.033,5.557-0.033c5.877,0,13.014,0.154,17.348,1.295
				c2.271,4.766,7.689,7.06,12.432,10.183c2.949,1.941,5.732,3.773,7.664,5.534c8.018,7.3,17.338,12.764,30.584,14.235
				c1.166,0.245,2.086,2.493-1.84,6.173C257.294,733.453,249.585,731.327,245.722,730.714z"/>
		</g>
		<g>
			<path fill="#592E05" d="M177.688,580.744c-6.623,7.604-16.682,21.916-16.682,37.288c0,11.284,4.293,22.937,10.18,33.976
				c3.066,11.898,7.115,31.4,6.66,43.092c13.828,0,33.771,2.66,40.564,2.66c-9.813-37.53-0.881-108.215,1.223-120.279
				C206.493,576.979,183.47,581.749,177.688,580.744z"/>
			<linearGradient id="SVGID_2_" gradientUnits="userSpaceOnUse" x1="160.7563" y1="640.5073" x2="219.8856" y2="640.5073">
				<stop  offset="6.030000e-006" style="stop-color:#97613F"/>
				<stop  offset="0.0306" style="stop-color:#986240"/>
				<stop  offset="0.632" style="stop-color:#AE7B50"/>
				<stop  offset="1" style="stop-color:#B68456"/>
			</linearGradient>
			<path fill="url(#SVGID_2_)" d="M215.304,697.678c-5.725,1.636-27.313,5.889-34.344-0.653c0.156-16.565-3.779-34.402-7.32-46.856
				c-6.254-11.162-8.955-21.202-9.199-32.872c-0.244-11.775,9.568-26.249,14.871-34.135c0.262,0.008,0.537,0.011,0.826,0.011
				c3.621,0,8.984-0.538,15.195-1.162c6.816-0.684,14.482-1.453,20.648-1.547C213.714,595.617,205.981,660.881,215.304,697.678z"/>
			<path fill="#592E05" d="M189.464,604.049c5.643,17.908,2.943,32.3-4.906,46.364C188.237,637.412,193.144,621.957,189.464,604.049
				z"/>
			<path fill="#592E05" d="M172.046,647.47c2.699,4.825,5.479,7.114,7.523,8.341c-4.334-1.146-6.543-2.78-7.605-4.089
				C171.964,650.495,171.8,649.433,172.046,647.47z"/>
		</g>
		<g>
			<path fill="#592E05" d="M178.333,560.225c-0.732,5.445-4.324,22.481-5.307,26.407c22.324-2.699,36.795,0.401,45.381-1.107
				c3.855-7.539,6.57-17.761,7.535-22.115c-0.457-5.781-1.551-12.148-2.1-13.656C211.78,550.758,183.497,560.126,178.333,560.225z"
				/>
			<linearGradient id="SVGID_3_" gradientUnits="userSpaceOnUse" x1="172.5684" y1="560.5381" x2="222.9381" y2="579.1815">
				<stop  offset="6.030000e-006" style="stop-color:#97613F"/>
				<stop  offset="0.0306" style="stop-color:#986240"/>
				<stop  offset="0.632" style="stop-color:#AE7B50"/>
				<stop  offset="1" style="stop-color:#B68456"/>
			</linearGradient>
			<path fill="url(#SVGID_3_)" d="M176.462,587.367c0.98-3.435,3.146-11.487,3.664-15.487c0.428-3.315,0.852-6.579,1.17-9.012
				c3.047-0.582,7.715-1.829,14.389-3.637c8.459-2.288,18.709-5.063,25.551-6.117c0.436,2.514,0.99,6.561,1.32,10.631
				c-0.203,1.864-3.385,11.3-6.076,19.265c-3.416,2.011-10.535,5.529-18.398,5.529C198.081,588.539,180.737,589.672,176.462,587.367
				z"/>
			<linearGradient id="SVGID_4_" gradientUnits="userSpaceOnUse" x1="150.6245" y1="584.3442" x2="226.2914" y2="567.3443">
				<stop  offset="6.030000e-006" style="stop-color:#97613F"/>
				<stop  offset="0.0306" style="stop-color:#986240"/>
				<stop  offset="0.632" style="stop-color:#AE7B50"/>
				<stop  offset="1" style="stop-color:#B68456"/>
			</linearGradient>
			<path fill="url(#SVGID_4_)" d="M221.235,553.114c-6.842,1.055-17.092,3.829-25.551,6.117c-3.777,1.022-6.891,1.859-9.453,2.504
				c-1.682,8.612-1.98,15.559-2.164,24.241c6.275,0.819,14.014,2.563,14.014,2.563c7.863,0,14.982-3.519,18.398-5.529
				c2.691-7.965,5.873-17.4,6.076-19.265C222.226,559.675,221.671,555.628,221.235,553.114z"/>
		</g>
		<g>
			<path fill="#592E05" d="M244.665,376.641c5.732,38.761,4.164,138.358-23.102,182.516c-14.838,9.158-38.109,9.158-43.504,7.85
				c-3.373-24.858-12.76-174.99-14.109-188.074C181.177,378.932,227.583,378.481,244.665,376.641z"/>
			<linearGradient id="SVGID_5_" gradientUnits="userSpaceOnUse" x1="211.5166" y1="477.646" x2="111.9205" y2="480.1994">
				<stop  offset="6.030000e-006" style="stop-color:#97613F"/>
				<stop  offset="0.0306" style="stop-color:#986240"/>
				<stop  offset="0.632" style="stop-color:#AE7B50"/>
				<stop  offset="1" style="stop-color:#B68456"/>
			</linearGradient>
			<path fill="url(#SVGID_5_)" d="M179.913,575.511c0.338-4.906,0.764-9.764,0.887-11.055c-2.201-19.16-5.928-83.604-8.676-131.174
				c-1.363-23.57-2.48-42.926-3.084-51.09c24.891-0.126,61.33-1.604,73.002-2.389c5.518,42.602,1.264,138.337-22.699,177.226
				C206.558,565.371,189.845,575.511,179.913,575.511z"/>
			<linearGradient id="SVGID_6_" gradientUnits="userSpaceOnUse" x1="146.3081" y1="477.8208" x2="239.1334" y2="477.8208">
				<stop  offset="6.030000e-006" style="stop-color:#97613F"/>
				<stop  offset="0.0306" style="stop-color:#986240"/>
				<stop  offset="0.632" style="stop-color:#AE7B50"/>
				<stop  offset="1" style="stop-color:#B68456"/>
			</linearGradient>
			<path fill="url(#SVGID_6_)" d="M242.042,379.804c-7.959,0.536-34.08,3.175-53.561,3.706
				c-2.982,63.979-3.27,154.386-4.414,192.328c10.303-1.963,27.475-12.512,35.275-18.809
				C243.306,518.141,247.56,422.405,242.042,379.804z"/>
		</g>
		<g>
			<path fill="#592E05" d="M188.237,677.398c-2.209,5.52-4.17,15.455-3.926,17.172c0.297,2.074,7.605,5.888,10.303,6.378
				C192.653,693.834,189.218,681.078,188.237,677.398z"/>
			<linearGradient id="SVGID_7_" gradientUnits="userSpaceOnUse" x1="179.1567" y1="695.1724" x2="198.4516" y2="686.0157">
				<stop  offset="6.030000e-006" style="stop-color:#97613F"/>
				<stop  offset="1" style="stop-color:#B68456"/>
			</linearGradient>
			<path fill="url(#SVGID_7_)" d="M195.024,700.949c-3.436-1.391-7.77-5.643-8.586-7.114c-0.246-3.271,0.861-12.023,1.961-16.354
				C189.521,681.636,193.905,696.858,195.024,700.949z"/>
		</g>
	</g>
	<path fill="#592E05" d="M238.854,333.139c2.943,7.195,6.703,37.941,6.051,52.334c-5.561,0.326-41.705-0.981-47.592-0.49
		c0-5.397-1.473-48.1-1.473-52.498C199.112,332.484,235.911,333.139,238.854,333.139z"/>
	<linearGradient id="SVGID_8_" gradientUnits="userSpaceOnUse" x1="198.8408" y1="359.0215" x2="242.0376" y2="359.0215">
		<stop  offset="6.030000e-006" style="stop-color:#97613F"/>
		<stop  offset="0.0306" style="stop-color:#986240"/>
		<stop  offset="0.632" style="stop-color:#AE7B50"/>
		<stop  offset="1" style="stop-color:#B68456"/>
	</linearGradient>
	<path fill="url(#SVGID_8_)" d="M241.919,382.582c-4.021,0-10.855-0.148-18.09-0.305c-7.965-0.172-16.201-0.351-21.564-0.351
		c-0.76,0-1.443,0.004-2.057,0.011c-0.119-5.273-0.436-15.517-0.744-25.492c-0.262-8.482-0.514-16.61-0.623-20.984
		c4.195,0.059,11.877,0.185,19.371,0.307c7.631,0.125,14.934,0.245,18.525,0.293c2.467,8.546,5.416,32.586,5.297,46.521
		C241.997,382.582,241.96,382.582,241.919,382.582z"/>
	<path fill="#592E05" d="M126.989,331.177c-5.232,8.831-11.119,37.614-11.447,52.661c13.084,2.289,64.926,1.961,68.525,1.635
		c-0.492-9.813-0.982-50.862-0.982-53.479C178.505,332.321,130.587,331.83,126.989,331.177z"/>
	<linearGradient id="SVGID_9_" gradientUnits="userSpaceOnUse" x1="122.6216" y1="349.8589" x2="164.8154" y2="362.9424">
		<stop  offset="0" style="stop-color:#86502D"/>
		<stop  offset="1" style="stop-color:#97613F"/>
	</linearGradient>
	<path fill="url(#SVGID_9_)" d="M165.997,382.76c-8.572,0-35.723-0.111-47.41-1.465c0.822-14.846,5.799-37.996,10.096-47.022
		c8.207,0.483,34.459,0.769,46.061,0.769c2.213,0,4.021-0.008,5.424-0.025c0.1,9.244,0.459,36.326,0.84,47.622
		C177.97,382.703,172.722,382.76,165.997,382.76z"/>
	<g>
		<path fill="#592E05" d="M244.169,194.127c-20.361-6.624-22.078-22.324-40.477-28.457c0.018,7.523-2.58,32.927-2.895,37.834
			c12.105,0.297,40.891,1.203,42.852,1.198C243.97,201.432,244.175,196.744,244.169,194.127z"/>
		
			<linearGradient id="SVGID_10_" gradientUnits="userSpaceOnUse" x1="180.6313" y1="183.998" x2="228.5151" y2="183.998" gradientTransform="matrix(1 -0.0026 0.0026 1 -1.2303 1.8606)">
			<stop  offset="6.030000e-006" style="stop-color:#97613F"/>
			<stop  offset="0.4461" style="stop-color:#A26E47"/>
			<stop  offset="1" style="stop-color:#B68456"/>
		</linearGradient>
		<path fill="url(#SVGID_10_)" d="M240.845,201.696c-3.322-0.087-30.891-0.897-36.896-1.056c0.057-0.791,0.117-23.441,0.479-31.781
			c4.662,1.963,10.402,5.91,15.037,10.96c6.176,6.729,13.131,11.985,21.27,16.515C240.747,196.607,240.839,200.928,240.845,201.696z
			"/>
	</g>
	<g>
		<path fill="#592E05" d="M95.999,181.125c18.643-0.49,42.193-19.625,60.348-18.89c2.453,5.888,11.039,33.363,13,39.251
			c-10.303,0.49-65.744-2.453-68.688-2.453C100.659,192.164,96.489,186.521,95.999,181.125z"/>
		<linearGradient id="SVGID_11_" gradientUnits="userSpaceOnUse" x1="73.166" y1="182.0098" x2="137.7656" y2="182.0098">
			<stop  offset="0" style="stop-color:#86502D"/>
			<stop  offset="1" style="stop-color:#97613F"/>
		</linearGradient>
		<path fill="url(#SVGID_11_)" d="M165.241,198.595c-11.32-0.068-36.844-1.255-52.273-1.974c-4.383-0.203-7.486-0.348-9.504-0.434
			c-0.322-3.451-1.15-6.876-1.9-9.977c-0.336-1.389-0.662-2.737-0.922-3.998c10.188-0.816,19.678-5.111,28.885-9.279
			c8.344-3.776,16.764-7.133,24.121-7.509C156.38,172.443,162.229,189.961,165.241,198.595z"/>
	</g>
	<g>
		<path fill="#592E05" d="M144.979,116.607c-0.301,1.959-0.164,40.34,0.119,51.162c4.396,16.6,12.453,38.842,12.18,41.02
			c7.178,1.41,38.137-1.998,42.711-1.606c1.047-4.647,6.371-22.274,7.502-36.243c-0.816-21.922-2.523-45.332-2.492-47.627
			C196.169,123.188,149.226,116.994,144.979,116.607z"/>
		<linearGradient id="SVGID_12_" gradientUnits="userSpaceOnUse" x1="200.5098" y1="168.1084" x2="157.58" y2="162.7115">
			<stop  offset="0" style="stop-color:#86502D"/>
			<stop  offset="1" style="stop-color:#97613F"/>
		</linearGradient>
		<path fill="url(#SVGID_12_)" d="M205.708,204.651c-2.893-0.071-7.391-0.136-13.313-0.22l-0.662-0.01
			c-13.471-0.189-34.928-0.492-42.969-1.168c0.105-6.598-1.252-76.068-1.244-83.178c1.242,0.129,44.865,6.049,55.328,6.675
			C203.165,139.451,204.911,188.135,205.708,204.651z"/>
		<linearGradient id="SVGID_13_" gradientUnits="userSpaceOnUse" x1="139.3516" y1="155.106" x2="194.4936" y2="167.1568">
			<stop  offset="6.030000e-006" style="stop-color:#97613F"/>
			<stop  offset="1" style="stop-color:#B68456"/>
		</linearGradient>
		<path fill="url(#SVGID_13_)" d="M202.849,126.751c-2.125-0.128-0.324,0.14-4.555-0.331c1.852,15.59-5.504,33.324-12.756,38.27
			c-8.504,3.271-22.16,2.534-28.701-1.718c0.572,7.851,5.15,26.249,7.113,39.741c8.174,0.189,20.926,1.612,27.783,1.709l0.662,0.01
			c5.922,0.084,10.42,0.148,13.313,0.22C204.911,188.135,203.165,139.451,202.849,126.751z"/>
	</g>
	<g>
		<g>
			<path fill="#592E05" d="M267.933,301.066c4.906,11.285,12.143,23.482,14.719,35.326c6.104,28.068,3.486,58.071,6.705,69.343
				c-2.617,0.654-25.971,0.998-27.279,1.325c-10.795-36.307-27.998-55.622-32.578-94.873
				C243.237,307.609,263.681,302.049,267.933,301.066z"/>
			<linearGradient id="SVGID_14_" gradientUnits="userSpaceOnUse" x1="210.1528" y1="354.7271" x2="263.2271" y2="354.7271">
				<stop  offset="0" style="stop-color:#86502D"/>
				<stop  offset="1" style="stop-color:#97613F"/>
			</linearGradient>
			<path fill="url(#SVGID_14_)" d="M264.53,404.936c-4.232-13.592-8.836-25.046-13.881-36.054c-7.707-16.81-15-32.72-17.928-54.654
				c11.801-3.827,27.123-8.06,33.525-9.709c1.219,2.679,2.539,5.406,3.826,8.062c3.914,8.084,7.963,16.443,9.701,24.438
				c3.445,15.837,4.072,32.436,4.576,45.772c0.316,8.392,0.58,15.358,1.445,20.442c-3.539,0.341-9.434,0.771-13.412,1.062
				C268.858,404.552,266.001,404.813,264.53,404.936z"/>
			<linearGradient id="SVGID_15_" gradientUnits="userSpaceOnUse" x1="236.1646" y1="357.1626" x2="286.2872" y2="353.1528">
				<stop  offset="6.030000e-006" style="stop-color:#97613F"/>
				<stop  offset="0.49" style="stop-color:#A8744C"/>
				<stop  offset="1" style="stop-color:#B68456"/>
			</linearGradient>
			<path fill="url(#SVGID_15_)" d="M286.425,403.196c-0.865-5.083-1.758-12.015-2.074-20.406
				c-0.504-13.337-1.131-29.936-4.576-45.772c-1.738-7.994-5.787-16.354-9.701-24.438c-1.287-2.655-2.607-5.383-3.826-8.062
				c-1.752,0.451-1.473,14.229-5.887,22.079c-7.852,1.308-10.305,15.699-9.078,23.059c3.271,24.531,9.65,44.156,13.574,54.951
				C267.146,405.261,282.886,403.538,286.425,403.196z"/>
		</g>
		<g>
			<path fill="#592E05" d="M262.864,240.883c3.27,8.832,9.158,48.736,8.83,64.764c-1.309,7.523-9.863,19.233-12.102,19.952
				c-4.58,0-20.33-10.041-23.273-15.929c-2.291-15.699-2.895-71.404-2.895-74.674C242.257,237.285,260.247,239.575,262.864,240.883z
				"/>
			<linearGradient id="SVGID_16_" gradientUnits="userSpaceOnUse" x1="217.7461" y1="278.623" x2="255.2133" y2="278.623">
				<stop  offset="0" style="stop-color:#86502D"/>
				<stop  offset="1" style="stop-color:#97613F"/>
			</linearGradient>
			<path fill="url(#SVGID_16_)" d="M258.888,323.408c-2.943,0-9.668-0.816-19.707-7.769c-1.838-14.94-2.693-63.827-2.789-76.933
				c5.568-9.01,16.117-4.349,24.145,4.5c3.277,10.772,8.461,47.283,8.221,62.146C267.579,311.49,261.21,321.309,258.888,323.408z"/>
			<linearGradient id="SVGID_17_" gradientUnits="userSpaceOnUse" x1="220.981" y1="283.1401" x2="258.8617" y2="277.458">
				<stop  offset="6.030000e-006" style="stop-color:#97613F"/>
				<stop  offset="0.5034" style="stop-color:#A57049"/>
				<stop  offset="1" style="stop-color:#B68456"/>
			</linearGradient>
			<path fill="url(#SVGID_17_)" d="M268.757,305.354c0.24-14.863-4.943-51.374-8.221-62.146c-5.346-5.895-8.791-10.454-14.16-9.83
				c1.963,28.129-1.471,48.736,2.291,73.268c1.154,4.037,4.252,14.719,7.832,16.598c0.959,0.123,1.764,0.166,2.389,0.166
				C261.21,321.309,267.579,311.49,268.757,305.354z"/>
		</g>
		<g>
			<path fill="#592E05" d="M225.606,187.912c34.834,1.635,51.322,36.126,38.893,69.488c-7.852-24.531-47.428-53.151-50.699-55.768
				c1.574-1.378,1.307-7.58,3.139-11.104C218.165,190.283,223.44,188.075,225.606,187.912z"/>
			<linearGradient id="SVGID_18_" gradientUnits="userSpaceOnUse" x1="143.5278" y1="238.1494" x2="258.9932" y2="214.9256">
				<stop  offset="6.030000e-006" style="stop-color:#97613F"/>
				<stop  offset="0.4153" style="stop-color:#A5714A"/>
				<stop  offset="1" style="stop-color:#B68456"/>
			</linearGradient>
			<path fill="url(#SVGID_18_)" d="M263.222,250.082c-4.338-4.57-15.037-13.533-20.434-17.949
				c-14.725-12.047-24.529-27.533-28.58-31.645c0.492-1.963-0.49-10.059-0.244-12.512c15.863-1.717,36.041,8.705,43.557,19.523
				C265.597,219.127,267.626,234.762,263.222,250.082z"/>
		</g>
	</g>
	<g>
		<path fill="#592E05" d="M79.562,193.636c3.436,68.688,28.947,82.427,41.213,104.015c4.416,25.021-3.924,39.25,1.963,49.063
			c8.832,14.064,48.41,15.537,51.025,31.4c0.703,5.27,1.963,41.377,1.963,48.082c2.453,0,32.873-0.163,35.326-0.163
			c1.307-6.542,4.906-37.288,6.869-47.755c2.289-10.141,26.492-19.299,27.965-26.658c0.164-8.341-6.869-40.232-5.396-68.688
			c2.023-6.439,4.172-16.447,5.52-27.476c-0.152-17.746,0.695-39.25-2.576-52.742C239.017,202.713,84.958,193.636,79.562,193.636z"
			/>
		<linearGradient id="SVGID_19_" gradientUnits="userSpaceOnUse" x1="11.0015" y1="365.7017" x2="152.9565" y2="306.8262">
			<stop  offset="0" style="stop-color:#86502D"/>
			<stop  offset="1" style="stop-color:#97613F"/>
		</linearGradient>
		<path fill="url(#SVGID_19_)" d="M178.632,423.241c-0.215-11.021-23.166-44.585-28.092-53.142
			c-6.215-10.794-20.451-17.215-25.309-24.952c-2.404-4.007-1.859-9.421-1.104-16.915c0.814-8.088,1.83-18.154-0.453-31.094
			l-0.09-0.502l-0.25-0.441c-2.928-5.151-6.547-9.826-10.377-14.774c-12.156-15.7-27.225-35.163-30.279-84.769
			c11.465,0.319,51.258,1.643,86.906,2.827c33.77,1.122,62.521,3.104,71.518,3.356c2.66,13.712,2.943,34.221,2.105,52.279
			c-1.592,11.118-3.65,20.959-5.527,26.934l-0.113,0.356l-0.018,0.374c-1.039,20.09,1.404,39.448,2.865,51.014
			c0.582,4.612,2.027,15.515,2.037,17.336c-1.355,5.271-6.869,8.504-10.795,14.719c-0.744,1.181-4.152,26.653-5.15,37.288
			c-0.656,6.98-17.457,16.104-17.973,19.961C205.226,423.111,181.999,423.227,178.632,423.241z"/>
		<linearGradient id="SVGID_20_" gradientUnits="userSpaceOnUse" x1="82.1235" y1="323.4912" x2="262.6133" y2="332.6504">
			<stop  offset="6.030000e-006" style="stop-color:#97613F"/>
			<stop  offset="0.1283" style="stop-color:#A6714A"/>
			<stop  offset="0.2893" style="stop-color:#B27F53"/>
			<stop  offset="0.43" style="stop-color:#B68456"/>
		</linearGradient>
		<path fill="url(#SVGID_20_)" d="M123.228,262.324c-0.244,10.549,11.006,24.662,11.285,39.006
			c0.494,25.424,0.654,51.434,6.09,57.773c3.846,3.225,7.506,6.773,9.938,10.996c4.926,8.557,27.877,42.121,28.092,53.142
			c3.367-0.015,26.594-0.13,29.902-0.145c0.516-3.857,17.316-12.98,17.973-19.961c0.998-10.635,4.406-36.107,5.15-37.288
			c3.926-6.215,9.439-9.447,10.795-14.719c-0.01-1.821-1.455-12.724-2.037-17.336c-1.461-11.565-3.904-30.924-2.865-51.014
			l0.018-0.374l0.113-0.356c1.877-5.975,3.936-15.815,5.527-26.934c0.223-4.806-0.063-13.326-0.021-18.304
			C209.911,256.828,164.44,272.383,123.228,262.324z"/>
		<ellipse fill="#592E05" cx="198.418" cy="335.428" rx="2.085" ry="4.906"/>
	</g>
	<g>
		<path fill="#592E05" d="M60.856,209.275c-10.303,9.813-46.119,64.271-53.969,78.5c11.283,1.963,54.459,10.059,62.311,10.059
			c12.266-20.607,30.582-59.693,34.018-74.902C98.472,213.119,71.651,204.859,60.856,209.275z"/>
		<linearGradient id="SVGID_21_" gradientUnits="userSpaceOnUse" x1="89.1846" y1="258.7188" x2="22.9492" y2="229.7715">
			<stop  offset="6.030000e-006" style="stop-color:#97613F"/>
			<stop  offset="0.2983" style="stop-color:#A6714A"/>
			<stop  offset="0.6729" style="stop-color:#B27F53"/>
			<stop  offset="1" style="stop-color:#B68456"/>
		</linearGradient>
		<path fill="url(#SVGID_21_)" d="M67.603,294.645c-9.717-0.582-42.699-5.196-57.422-7.543
			c10.383-17.034,44.344-67.293,54.172-77.029c4.416-0.818,37.451-6.787,42.686-6.461C100.987,229.942,78.989,274.67,67.603,294.645
			z"/>
		<path fill="#592E05" d="M121.267,184.805c-25.514-19.135-69.916,2.698-67.709,48.818c3.559-1.779,49.922-11.265,50.045-12.185
			c0,0-7.154-19.194,2.213-25.969C109.604,192.551,116.55,190.277,121.267,184.805z"/>
		<linearGradient id="SVGID_22_" gradientUnits="userSpaceOnUse" x1="106.4717" y1="215.0117" x2="46.3723" y2="198.0347">
			<stop  offset="6.030000e-006" style="stop-color:#97613F"/>
			<stop  offset="0.0181" style="stop-color:#986240"/>
			<stop  offset="0.629" style="stop-color:#AE7B50"/>
			<stop  offset="1" style="stop-color:#B68456"/>
		</linearGradient>
		<path fill="url(#SVGID_22_)" d="M53.558,235.34c2.576-38.76,31.033-64.027,67.545-51.353c2.551,3.065-3.83,24.755-7.85,27.966
			C98.288,224.709,68.278,233.132,53.558,235.34z"/>
	</g>
	<g>
		<path fill="#592E05" d="M189.628,261.506c5.232,1.309,51.287,9.808,60.02-3.924c11.357-17.858,2.809-42.361-3.609-53.631
			c-2.779-3.679-8.385-9.258-11.016-9.824c-7.912-0.961-38.156,2.843-49.969,3.488C185.235,207.439,189.431,252.174,189.628,261.506
			z"/>
		
			<linearGradient id="SVGID_23_" gradientUnits="userSpaceOnUse" x1="160.6387" y1="243.3291" x2="234.9652" y2="243.3291" gradientTransform="matrix(1.0438 0.0297 -0.0338 0.9996 -12.4146 -22.2478)">
			<stop  offset="6.030000e-006" style="stop-color:#97613F"/>
			<stop  offset="0.256" style="stop-color:#A06B45"/>
			<stop  offset="1" style="stop-color:#B68456"/>
		</linearGradient>
		<path fill="url(#SVGID_23_)" d="M222.476,262.559c-7.574-0.215-29.975-2.263-35.865-3.617c-0.023-6.18,1.178-17.928,1.305-29.396
			c0.127-11.271,0.256-22.868,0.238-29.139c7.549-0.357,39.211-8.732,48.158-6.487c1.902,0.47,8.754,6.491,11.127,9.48
			c2.5,5.047,10.693,33.238,0.994,51.409C245.45,260.4,236.233,262.95,222.476,262.559z"/>
		<path fill="#592E05" d="M113.888,185.2c13.377-4.002,60.234,8.7,75.33,12.606c2.469,15.293,2.543,53.105,1.227,63.863
			c-28.762,4.804-61.977,0.811-71.305-8.014c-9.279-8.778-16.436-21.506-19.135-32.055
			C108.509,210.809,109.122,188.488,113.888,185.2z"/>
		
			<linearGradient id="SVGID_24_" gradientUnits="userSpaceOnUse" x1="8.9258" y1="231.5176" x2="147.7575" y2="244.5487" gradientTransform="matrix(0.9995 0.031 -0.031 0.9995 20.1564 -23.9252)">
			<stop  offset="0" style="stop-color:#86502D"/>
			<stop  offset="1" style="stop-color:#97613F"/>
		</linearGradient>
		<path fill="url(#SVGID_24_)" d="M120.907,251.336c-13.406-10.889-30.566-48.4-19.342-62.123c2.023-1.9,5.711-4.731,9.92-5.91
			c19.16-0.875,58.244,12.566,75.166,16.408c3.518,13.199,6.105,36.663,4.107,59.864
			C173.062,262.304,134.312,262.225,120.907,251.336z"/>
		<linearGradient id="SVGID_25_" gradientUnits="userSpaceOnUse" x1="51.5562" y1="212.6841" x2="170.725" y2="223.8696">
			<stop  offset="6.030000e-006" style="stop-color:#97613F"/>
			<stop  offset="0.134" style="stop-color:#9D6843"/>
			<stop  offset="0.6555" style="stop-color:#AF7C51"/>
			<stop  offset="1" style="stop-color:#B68456"/>
		</linearGradient>
		<path fill="url(#SVGID_25_)" d="M190.69,259.504c1.998-23.201-0.521-46.594-4.039-59.793
			c-16.922-3.842-56.006-17.283-75.166-16.408c-4.209,1.179-7.896,4.01-9.92,5.91c-4.746,5.803-5.895,18.242-0.252,30.264
			c5.383,11.559,11.723,19.359,20.115,26.82c6.705,5.232,17.5,9.649,31.482,11.366C169.396,259.023,187.136,259.996,190.69,259.504z
			"/>
		
			<ellipse transform="matrix(0.9833 0.182 -0.182 0.9833 47.2988 -20.5339)" fill="#592E05" cx="135.506" cy="247.389" rx="6.006" ry="4.298"/>
		<path fill="#592E05" d="M241.175,252.096c0.414,2.108-1.361,4.227-3.961,4.734c-2.598,0.506-5.039-0.789-5.451-2.897
			c-0.408-2.106,1.365-4.226,3.963-4.733C238.327,248.691,240.765,249.988,241.175,252.096z"/>
	</g>
	<g>
		<path fill="#592E05" d="M91.337,313.841c-6.924,0.865-8.615-0.048-17.662,1.636c-21.098,3.924-42.451,8.438-56.424,0.817
			c-14.719-9.813-19.316-24.892-16.436-30.91c3.68-7.687,15.332-25.676,33.73-24.04c9.16,1.145,17.295,8.708,17.295,8.708
			s30.297,8.708,36.676,10.058C89.007,286.979,92.319,304.027,91.337,313.841z"/>
		<linearGradient id="SVGID_26_" gradientUnits="userSpaceOnUse" x1="67.1738" y1="322.8169" x2="50.3291" y2="300.4115">
			<stop  offset="0" style="stop-color:#86502D"/>
			<stop  offset="1" style="stop-color:#97613F"/>
		</linearGradient>
		<path fill="url(#SVGID_26_)" d="M41.048,317.643c-9.492,0-15.883-0.576-22.078-3.925c-9.25-6.205-14.385-14.938-15.332-20.238
			c-0.445-2.479-0.48-5.827,0.367-6.991c0,0,11.285-24.981,30.91-22.691c12.756,5.232,16.189,8.34,16.189,8.34
			s26.986,8.342,28.785,8.668c-1.309,3.926-3.926,27.967-4.498,31.81C64.964,314.616,51.104,316.988,41.048,317.643z"/>
		<linearGradient id="SVGID_27_" gradientUnits="userSpaceOnUse" x1="36.2168" y1="340.916" x2="42.5135" y2="280.572">
			<stop  offset="6.030000e-006" style="stop-color:#97613F"/>
			<stop  offset="0.3348" style="stop-color:#9D6843"/>
			<stop  offset="0.8158" style="stop-color:#AE7B50"/>
			<stop  offset="1" style="stop-color:#B68456"/>
		</linearGradient>
		<path fill="url(#SVGID_27_)" d="M77.354,307.463c1.033-8.463,1.688-24.119,2.535-26.658c-1.799-0.326-28.785-8.668-28.785-8.668
			s-7.727-6.869-16.189-8.34c-19.625-2.29-30.42,22.078-30.42,22.078c-0.49,1.962-2.127,5.396,8.014,11.938
			C24.53,311.143,42.356,316.947,77.354,307.463z"/>
		<path fill="#592E05" d="M65.089,275.816c-5.396-1.308-19.463-5.314-30.42-7.113c9.813,0,15.455,1.758,16.764,1.799
			C52.413,271.319,62.472,274.672,65.089,275.816z"/>
	</g>
	<g>
		<g>
			<path fill="#592E05" d="M65.089,277.166c1.594-3.435,4.498-11.938,6.215-13.86c1.004-1.124,8.34-7.114,9.73-9.731
				c1.473-2.453,2.33-8.708,2.902-15.536c1.104-4.538,14.971-3.128,15.742,5.97c0.816,9.648-3.354,19.952-5.561,25.021
				C91.419,269.889,67.052,276.43,65.089,277.166z"/>
			<linearGradient id="SVGID_28_" gradientUnits="userSpaceOnUse" x1="74.1797" y1="253.5342" x2="88.8982" y2="258.3177">
				<stop  offset="0" style="stop-color:#86502D"/>
				<stop  offset="1" style="stop-color:#97613F"/>
			</linearGradient>
			<path fill="url(#SVGID_28_)" d="M69.667,272.873c1.057-2.848,2.367-6.555,3.477-8.096c0.564-0.783,3.941-3.428,5.643-5.151
				c1.84-1.868,3.344-3.04,3.828-3.724c2.059-2.9,3.613-10.505,3.775-16.883c1.717-1.963,9.691-0.859,10.795,4.538
				c1.004,4.91-1.799,15.291-3.926,20.361c0,0,4.533-0.007,4.783,1.104C97.429,265.194,76.366,271.137,69.667,272.873z"/>
			<linearGradient id="SVGID_29_" gradientUnits="userSpaceOnUse" x1="80.688" y1="253.4492" x2="111.9833" y2="262.3723">
				<stop  offset="6.030000e-006" style="stop-color:#97613F"/>
				<stop  offset="0.1283" style="stop-color:#A6714A"/>
				<stop  offset="0.2893" style="stop-color:#B27F53"/>
				<stop  offset="0.43" style="stop-color:#B68456"/>
			</linearGradient>
			<path fill="url(#SVGID_29_)" d="M86.921,240.736c0.246,3.066-0.49,10.917-1.471,16.191c-3.313,3.557-6.057,6.689-7.605,13.859
				c8.428-2.328,19.777-5.646,20.197-5.764c-0.25-1.111-4.783-1.104-4.783-1.104c2.127-5.07,4.93-15.451,3.926-20.361
				c-0.75-3.663-4.662-5.344-7.635-5.435C88.394,238.038,86.921,239.265,86.921,240.736z"/>
		</g>
		<g>
			<path fill="#592E05" d="M62.759,273.609c4.414-1.227,10.18-3.066,10.18-3.066s2.086-2.944,5.52-5.889
				c3.551-3.044,6.477-4.611,8.219-5.191c8.748,0.408,13.572-0.246,23.059,1.39c4.494,11.353,7.211,26.232,4.906,43.666
				c-0.572,4.334-2.615,8.995-3.68,10.712c-4.742,3.435-15.332,4.662-20.361,4.416c-6.5-0.613-16.027-2.943-18.889-4.089
				C72.692,312.777,74.901,289.514,62.759,273.609z"/>
			<linearGradient id="SVGID_30_" gradientUnits="userSpaceOnUse" x1="65.2168" y1="322.02" x2="81.7963" y2="301.2482">
				<stop  offset="0" style="stop-color:#86502D"/>
				<stop  offset="1" style="stop-color:#97613F"/>
			</linearGradient>
			<path fill="url(#SVGID_30_)" d="M92.646,317.275c-9.758,0-18.971-3.598-23.387-4.906c-4.66-4.662-9.813-23.306-4.742-36.144
				c4.906-4.253,19.551-13.965,21.914-14.064c8.895,0.303,16.439,0.325,25.021,1.799c2.086,12.735,1.064,43.175-2.453,49.881
				C107.364,314.904,99.841,316.621,92.646,317.275z"/>
			<linearGradient id="SVGID_31_" gradientUnits="userSpaceOnUse" x1="95.6938" y1="289.4053" x2="41.4561" y2="284.9514">
				<stop  offset="6.030000e-006" style="stop-color:#97613F"/>
				<stop  offset="0.6005" style="stop-color:#A8744C"/>
				<stop  offset="1" style="stop-color:#B68456"/>
			</linearGradient>
			<path fill="url(#SVGID_31_)" d="M103.933,315.48c2.479-0.575,4.346-1.172,5.066-1.64c3.518-6.706,4.539-37.146,2.453-49.881
				c-8.582-1.474-16.127-1.496-25.021-1.799c-2.363,0.1-17.008,9.812-21.914,14.064c-4.58,11.611,1.799,29.274,5.969,34.181
				c2.943,1.717,12.838,5.314,21.67,5.806C96.897,316.294,100.136,315.998,103.933,315.48z"/>
			<linearGradient id="SVGID_32_" gradientUnits="userSpaceOnUse" x1="116.3774" y1="283.7739" x2="81.2585" y2="290.4634">
				<stop  offset="6.030000e-006" style="stop-color:#97613F"/>
				<stop  offset="1" style="stop-color:#B68456"/>
			</linearGradient>
			<path fill="url(#SVGID_32_)" d="M111.452,263.96c-8.582-1.474-15.758-3.296-24.652-3.599c-0.045,0.002-0.098,0.012-0.148,0.02
				c-0.762,14.375,9.307,33.998,5.504,45.037c0.818,5.479,0.818,8.586,0.164,10.713c2.453,0.244,13.654-0.818,16.926-2.209
				c0.9-1.799,2.289-5.314,2.781-8.259C113.573,296.375,113.442,276.102,111.452,263.96z"/>
			<path fill="#592E05" d="M91.46,276.553c1.432,0.49,18.93-2.29,21.711-2.208c1.471,0.368,3.965,1.921,4.988,2.371
				c1.309,2.944,1.553,9.445,0.162,13.942c-0.49,0.736-1.104,1.35-1.104,1.35s0.859,0.736,0.859,1.594
				c0.203,4.171-0.818,10.754-2.699,11.734c-6.623,2.045-16.844,2.781-20.115,2.453C94.28,305.336,91.827,280.478,91.46,276.553z"/>
			<linearGradient id="SVGID_33_" gradientUnits="userSpaceOnUse" x1="132.8872" y1="291.5488" x2="80.0061" y2="292.5857">
				<stop  offset="6.030000e-006" style="stop-color:#97613F"/>
				<stop  offset="0.1754" style="stop-color:#9D6843"/>
				<stop  offset="0.9989" style="stop-color:#B68456"/>
			</linearGradient>
			<path fill="url(#SVGID_33_)" d="M92.481,307.463c-2.615-4.253-2.615-10.631-2.494-13.738c-1.717-4.17-3.393-10.467-2.248-15.536
				c1.963,0,3.844,0.694,3.844,0.694s11.223-1.963,16.271-2.003c1.514,0.593,6.256,1.329,7.359,1.636
				c1.719,2.76,1.473,7.522,0.492,11.611c-0.654,1.063-3.926,1.799-3.926,1.799s1.635,0.49,3.271,0.654
				c0.818,2.943,0.49,8.832-1.473,11.285C108.673,305.99,95.425,307.707,92.481,307.463z"/>
			<path fill="#592E05" d="M94.813,292.866c-0.574,0.122,0.121,0.491,0.775,0.653c6.705,0.736,16.355-0.162,20.117-1.063
				c0.285-0.612,0.734-1.553,0.939-2.207C113.007,291.64,101.722,292.906,94.813,292.866z"/>
			<path fill="#592E05" d="M92.646,278.598c-0.408-0.082-1.799-0.818-2.127-0.818c0.225,0.94-0.121,2.392,0.246,4.17
				C91.419,280.314,92.399,279.088,92.646,278.598z"/>
			<path fill="#592E05" d="M85.94,259.708c4.416-1.063,17.826-1.309,21.914-0.981c2.393,0.49,6.604,1.635,8.137,2.617
				c1.801,2.596,2.494,12.51,0.531,16.926c-2.432,1.002-7.563,2.126-9.158,2.126c-1.594,0-14.229-0.776-16.805-1.104
				C88.435,277.248,83.2,268.948,85.94,259.708z"/>
			<linearGradient id="SVGID_34_" gradientUnits="userSpaceOnUse" x1="132.5903" y1="270.6787" x2="81.3983" y2="269.6431">
				<stop  offset="6.030000e-006" style="stop-color:#97613F"/>
				<stop  offset="1" style="stop-color:#B68456"/>
			</linearGradient>
			<path fill="url(#SVGID_34_)" d="M108.142,278.27c0,0-16.764,0.49-20.238,0.246c-0.941-3.394-3.518-11.693-0.328-16.354
				c5.152-0.736,17.867-1.063,19.707-0.634c1.35,0.43,5.336,1.9,6.563,2.76c1.104,3.127,0.123,10.793-0.92,12.695
				C111.638,277.473,108.142,278.27,108.142,278.27z"/>
			<linearGradient id="SVGID_35_" gradientUnits="userSpaceOnUse" x1="102.9727" y1="269.4971" x2="130.1711" y2="271.4057">
				<stop  offset="0" style="stop-color:#B68456"/>
				<stop  offset="0.4844" style="stop-color:#B38659"/>
				<stop  offset="0.8846" style="stop-color:#A98E63"/>
				<stop  offset="1" style="stop-color:#A59168"/>
			</linearGradient>
			<path fill="url(#SVGID_35_)" d="M113.905,263.715c-1.227-0.859-4.477-1.881-6.746-2.249c3.477,3.312,2.494,14.269,1.023,16.722
				c2.086-0.122,4.496-0.654,5.969-1.145C115.378,273.445,115.485,266.576,113.905,263.715z"/>
		</g>
	</g>
	<g>
		<g>
			<path fill="#592E05" d="M105.198,678.502c2.453,11.285,8.486,22.188,8.217,24.654c-0.068,2.49-5.314,11.366-6.787,14.964
				C106.464,709.943,104.706,684.226,105.198,678.502z"/>
			
				<linearGradient id="SVGID_36_" gradientUnits="userSpaceOnUse" x1="1265.1348" y1="699.7236" x2="1249.2255" y2="699.8509" gradientTransform="matrix(-1 0 0 1 1356.207 0)">
				<stop  offset="6.030000e-006" style="stop-color:#97613F"/>
				<stop  offset="0.5154" style="stop-color:#A57149"/>
				<stop  offset="1" style="stop-color:#B68456"/>
			</linearGradient>
			<path fill="url(#SVGID_36_)" d="M106.956,712.233c0.654-2.127,3.619-8.263,3.762-9.322c0.1-0.929-3.68-9.567-5.275-15.455
				c-0.465,2.298-0.859,11.202-1.105,13.881C104.747,702.826,105.812,709.227,106.956,712.233z"/>
		</g>
		<g>
			<path fill="#592E05" d="M93.954,547.708c-1.309,4.252-11.775,38.27-12.756,41.54c5.234,2.29,28.701,8.341,37.287,3.926
				c3.436-8.832,12.594-34.835,16.355-41.213C129.28,549.344,98.206,548.034,93.954,547.708z"/>
			<linearGradient id="SVGID_37_" gradientUnits="userSpaceOnUse" x1="81.7935" y1="563.6821" x2="113.2118" y2="578.4451">
				<stop  offset="0.0207" style="stop-color:#86502D"/>
				<stop  offset="0.4534" style="stop-color:#97613F"/>
			</linearGradient>
			<path fill="url(#SVGID_37_)" d="M97.538,550.877c-0.523-0.031-1.012-0.059-1.453-0.085c-2.154,7.001-8.691,30.007-11.127,37.966
				c1.145,5.284,7.229,6.847,14.486,7.33c4.309-14.893,8.818-29.705,14.303-44.127C107.292,551.441,100.903,551.071,97.538,550.877z
				"/>
			<linearGradient id="SVGID_38_" gradientUnits="userSpaceOnUse" x1="98.9585" y1="567.583" x2="127.3766" y2="580.9362">
				<stop  offset="6.030000e-006" style="stop-color:#97613F"/>
				<stop  offset="0.0306" style="stop-color:#986240"/>
				<stop  offset="0.632" style="stop-color:#AE7B50"/>
				<stop  offset="1" style="stop-color:#B68456"/>
			</linearGradient>
			<path fill="url(#SVGID_38_)" d="M113.747,551.961c-5.484,14.422-9.994,29.234-14.303,44.127
				c5.893,0.393,12.484-0.847,17.65-3.814c2.174-12.031,9.236-29.279,12.83-38.417C126.229,553.1,119.958,552.461,113.747,551.961z"
				/>
		</g>
		<g>
			<path fill="#592E05" d="M102.294,691.625c1.963-36.797,18.154-55.44,22.078-71.632c4.066-16.771-2.738-31.399-3.229-36.306
				c-1.145-0.081-17.541-7.688-18.359-7.851c-0.613,2.33-21.586,109.901-22.076,114.808
				C84.142,690.645,97.88,691.135,102.294,691.625z"/>
			<linearGradient id="SVGID_39_" gradientUnits="userSpaceOnUse" x1="82.8984" y1="632.106" x2="120.1882" y2="636.5219">
				<stop  offset="6.030000e-006" style="stop-color:#97613F"/>
				<stop  offset="0.0306" style="stop-color:#986240"/>
				<stop  offset="0.632" style="stop-color:#AE7B50"/>
				<stop  offset="1" style="stop-color:#B68456"/>
			</linearGradient>
			<path fill="url(#SVGID_39_)" d="M99.55,688.441c-4.432-0.303-11.092-0.565-15.41-0.68c2.977-17.098,17.943-93.288,20.965-108.534
				c3.553,0.614,11.373,1.974,14.689,2.497c-0.367,0.981-0.613,2.208-0.957,3.34c2.104,8.253,5.625,22.065,2.676,34.235
				c-1.221,5.031-3.764,10.464-6.707,16.754C108.776,648.936,101.333,664.841,99.55,688.441z"/>
			<path fill="#592E05" d="M89.62,568.969c-41.949,45.629-8.832,99.026-16.109,142.201c8.342,0,33.895,0.695,36.838,1.186
				c-5.764-28.58-2.33-91.871-0.857-105.772C106.71,601.351,84.796,581.725,89.62,568.969z"/>
			<linearGradient id="SVGID_40_" gradientUnits="userSpaceOnUse" x1="43.2725" y1="633.2739" x2="88.6763" y2="643.8682">
				<stop  offset="0" style="stop-color:#86502D"/>
				<stop  offset="1" style="stop-color:#97613F"/>
			</linearGradient>
			<path fill="url(#SVGID_40_)" d="M75.31,714.114c2.863-15.373,1.314-36.803-0.836-53.071c-3.969-30.028-8.07-61.064,17.779-90.639
				c2.727,0.884,19.465,11.193,22.145,12.057c-12.266,47.592-12.328,95.301-7.523,127.646c-0.205-0.001-1.41,3.763-1.637,3.763
				c-4.416,0-10.639,0.649-17.334,0.817C83.827,714.789,77.405,717.34,75.31,714.114z"/>
			<linearGradient id="SVGID_41_" gradientUnits="userSpaceOnUse" x1="70.3662" y1="643.6963" x2="113.2832" y2="650.8322">
				<stop  offset="6.030000e-006" style="stop-color:#97613F"/>
				<stop  offset="0.4811" style="stop-color:#A8744B"/>
				<stop  offset="1" style="stop-color:#B68456"/>
			</linearGradient>
			<path fill="url(#SVGID_41_)" d="M114.397,582.461c-1.986-0.64-10.188-1.652-16.191-4.987
				c-17.58,37.942-20.361,96.735-15.209,139.175c6.305-0.202,18.051-2.779,22.24-2.779c0.227,0,1.432-3.764,1.637-3.763
				C102.069,677.762,102.132,630.053,114.397,582.461z"/>
		</g>
		<g>
			<path fill="#592E05" d="M76.372,681.977c-3.758,6.443-7.627,16.51-7.359,19.463c0.068,2.98,4.988,15.373,5.971,17.336
				C76.046,711.089,78.663,691.544,76.372,681.977z"/>
			<linearGradient id="SVGID_42_" gradientUnits="userSpaceOnUse" x1="77.7344" y1="699.5005" x2="62.2078" y2="699.6247">
				<stop  offset="6.030000e-006" style="stop-color:#97613F"/>
				<stop  offset="0.5154" style="stop-color:#A57149"/>
				<stop  offset="1" style="stop-color:#B68456"/>
			</linearGradient>
			<path fill="url(#SVGID_42_)" d="M74.573,710.106c-1.283-4.123-2.068-7.919-2.209-9.187c-0.102-1.112,1.73-6.787,4.418-11.992
				c0.465,2.75,1.553,6.197,1.799,9.403C78.171,700.114,75.718,706.508,74.573,710.106z"/>
		</g>
		<g>
			<path fill="#592E05" d="M117.831,373.371C97.552,423.416,88.802,522.358,90.11,563.572c0.916-0.516,4.17-3.926,4.17-3.926
				s13.779,22.865,28.947,16.437c29.766-30.746,70.814-146.452,78.012-171.966C171.8,389.726,130.915,379.258,117.831,373.371z"/>
			<linearGradient id="SVGID_43_" gradientUnits="userSpaceOnUse" x1="22.0664" y1="476.8296" x2="125.7031" y2="476.8296">
				<stop  offset="0" style="stop-color:#86502D"/>
				<stop  offset="1" style="stop-color:#97613F"/>
			</linearGradient>
			<path fill="url(#SVGID_43_)" d="M92.972,563.735c-0.613-30.909,7.768-137.44,26.494-186.479
				c4.873,1.951,11.631,4.22,19.803,6.964c16.361,5.493,39.342,12.827,57.309,21.369c-8.592,29.639-46.633,137.442-74.82,167.796
				C111.208,582.461,94.444,568.642,92.972,563.735z"/>
			<linearGradient id="SVGID_44_" gradientUnits="userSpaceOnUse" x1="99.5366" y1="476.9751" x2="154.0922" y2="489.8117">
				<stop  offset="6.030000e-006" style="stop-color:#97613F"/>
				<stop  offset="1" style="stop-color:#B68456"/>
			</linearGradient>
			<path fill="url(#SVGID_44_)" d="M137.456,392.015c-19.625,50.045-42.193,160.764-33.854,175.482
				c5.916,6.306,10.557,12.425,18.154,5.888c28.188-30.354,66.229-138.157,74.82-167.796
				C179.995,397.706,153.435,397.343,137.456,392.015z"/>
		</g>
		<g>
			<path fill="#592E05" d="M120.284,573.385c-0.98,3.271-4.6,12.327-7.605,17.294c-7.113,3.619-16.354,1.186-18.643-1.104
				c2.371-8.913,4.334-23.305,4.66-25.268c0.613-0.368,12.635-1.84,15.209-1.84C116.358,564.553,120.04,572.097,120.284,573.385z"/>
			<linearGradient id="SVGID_45_" gradientUnits="userSpaceOnUse" x1="70.7505" y1="574.6235" x2="108.0388" y2="577.0767">
				<stop  offset="0" style="stop-color:#86502D"/>
				<stop  offset="1" style="stop-color:#97613F"/>
			</linearGradient>
			<path fill="url(#SVGID_45_)" d="M93.054,590.557c-1.717-6.378,2.416-20.912,3.926-25.758c1.963-0.981,11.406-4.171,16.926-2.944
				c2.27,2.821,3.742,8.034,4.355,11.469c-1.41,3.68-4.846,13.615-7.729,16.62C102.622,593.255,95.507,592.519,93.054,590.557z"/>
			<linearGradient id="SVGID_46_" gradientUnits="userSpaceOnUse" x1="91.1143" y1="573.958" x2="122.2973" y2="576.0095">
				<stop  offset="6.030000e-006" style="stop-color:#97613F"/>
				<stop  offset="0.0306" style="stop-color:#986240"/>
				<stop  offset="0.632" style="stop-color:#AE7B50"/>
				<stop  offset="1" style="stop-color:#B68456"/>
			</linearGradient>
			<path fill="url(#SVGID_46_)" d="M113.905,560.628c-3.43-0.762-8.295,0.413-12.02,1.472c-3.17,8.538-5.992,16.705-4.498,25.677
				c1.145,2.126,9.611,2.572,13.906,1.224c2.701-3.75,5.678-12.315,6.967-15.677C117.647,569.889,116.175,563.449,113.905,560.628z"
				/>
		</g>
		<g>
			<path fill="#592E05" d="M72.815,709.289c-1.063,16.518-3.229,27.721-4.293,38.27c15.047,6.051,56.586-3.679,60.104-4.252
				c-7.852-8.831-10.059-15.128-13.248-21.506c-3.598-5.888-5.479-9.771-6.705-15.782
				C104.011,714.728,80.462,725.317,72.815,709.289z"/>
			<linearGradient id="SVGID_47_" gradientUnits="userSpaceOnUse" x1="50.688" y1="733.1987" x2="83.8053" y2="728.7831">
				<stop  offset="0" style="stop-color:#86502D"/>
				<stop  offset="1" style="stop-color:#97613F"/>
			</linearGradient>
			<path fill="url(#SVGID_47_)" d="M72.144,749.042c0.115-8.813,1.939-23.643,3.576-36.072c6.377-7.359,22.24-8.342,31.072-4.417
				c0.83,4.978,2.453,9.077,5.479,14.475c1.152,2.054,5.793,12.327,12.43,20.279C111.317,746.762,79.726,751.812,72.144,749.042z"/>
			<linearGradient id="SVGID_48_" gradientUnits="userSpaceOnUse" x1="101.1196" y1="778.3677" x2="95.4488" y2="693.9004">
				<stop  offset="6.030000e-006" style="stop-color:#97613F"/>
				<stop  offset="0.3093" style="stop-color:#A6724A"/>
				<stop  offset="0.6702" style="stop-color:#B28053"/>
				<stop  offset="1" style="stop-color:#B68456"/>
			</linearGradient>
			<path fill="url(#SVGID_48_)" d="M112.271,723.027c-3.025-5.397-4.648-9.252-5.479-14.229c-6.133-2.699-19.053,0-24.613,3.435
				c-7.359,16.681-14.148,29.629-5.396,37.451c12.756-0.618,38.264-3.886,47.918-6.378
				C118.063,735.354,113.423,725.081,112.271,723.027z"/>
			<path fill="#592E05" d="M120.04,731.367c1.877,4.987,11.773,11.775,12.02,14.229c-1.227,4.416-3.145,6.185-7.313,7.979
				c-4.303,1.242-12.684,1.242-16.852,0c-1.613-2.484-2.398-9.471-3.475-12.231C107.917,741.621,120.69,740.524,120.04,731.367z"/>
			<linearGradient id="SVGID_49_" gradientUnits="userSpaceOnUse" x1="105.1865" y1="726.0361" x2="123.5756" y2="755.3004">
				<stop  offset="0" style="stop-color:#86502D"/>
				<stop  offset="1" style="stop-color:#97613F"/>
			</linearGradient>
			<path fill="url(#SVGID_49_)" d="M108.657,750.813c-1.053-2.189-3.15-8.767-3.418-9.552c4.416-1.595,9.771-5.888,13.451-6.337
				c2.688,5.152,10.328,9.305,10.486,10.058c-0.613,3.128-2.211,4.608-5.326,6.016C120.757,752.103,111.005,752.313,108.657,750.813
				z"/>
			<linearGradient id="SVGID_50_" gradientUnits="userSpaceOnUse" x1="104.9287" y1="720.6284" x2="122.8942" y2="749.2186">
				<stop  offset="6.030000e-006" style="stop-color:#97613F"/>
				<stop  offset="0.6057" style="stop-color:#AD7A4F"/>
				<stop  offset="1" style="stop-color:#B68456"/>
			</linearGradient>
			<path fill="url(#SVGID_50_)" d="M126.11,746.454c1.289-0.367,3.135-1.088,3.129-1.349c-0.158-0.754-8.229-5.764-10.918-10.917
				c-2.957,0.361-8.953,1.718-11.283,3.967C111.821,746.884,121.204,747.987,126.11,746.454z"/>
			<path fill="#592E05" d="M110.54,754.862c-16.09,1.38-37.279,1.14-40.953-2.725c-1.555-1.308-2.898-5.013-2.045-6.787
				c0.98-2.044,2.289-4.415,2.779-7.358c4.744,2.126,29.193,4.741,37.697,1.635c0.572,1.635,1.063,2.861,2.943,4.661
				c2.127,1.554,4.361,2.589,4.988,3.761C115.95,750.626,113.161,754.173,110.54,754.862z"/>
			<linearGradient id="SVGID_51_" gradientUnits="userSpaceOnUse" x1="87.7134" y1="724.1558" x2="93.0936" y2="755.4774">
				<stop  offset="0" style="stop-color:#86502D"/>
				<stop  offset="1" style="stop-color:#97613F"/>
			</linearGradient>
			<path fill="url(#SVGID_51_)" d="M96.603,753.021c-12.787,0-21.852-1.277-24.318-2.52c-1.533-1.313-1.799-4.006-1.553-5.151
				c0.816-1.227,1.309-2.289,1.961-6.869c6.625-1.104,21.711-2.33,33.486-0.735c0.582,3.703,2.658,7.032,2.658,7.032
				c0.877,1.338,2.58,2.017,3.924,3.189c0.328,2.208-1.797,3.925-3.434,4.497C105.294,752.896,101.388,753.021,96.603,753.021z"/>
			<linearGradient id="SVGID_52_" gradientUnits="userSpaceOnUse" x1="86.1396" y1="715.1245" x2="92.5917" y2="752.6861">
				<stop  offset="6.030000e-006" style="stop-color:#97613F"/>
				<stop  offset="0.6162" style="stop-color:#AD7A4F"/>
				<stop  offset="1" style="stop-color:#B68456"/>
			</linearGradient>
			<path fill="url(#SVGID_52_)" d="M112.679,748.907c0.982-1.472-2.578-2.202-3.842-4.129c0,0-1.707-3.329-2.291-7.032
				c-11.773-1.595-27.229-0.859-33.854,0.245c-0.652,4.579-1.145,6.133-1.961,7.359c-0.039,0.175,0.01,2.094,0,2.33
				c0.898-1.594,5.07,2.331,7.85,0.532c2.617,2.208,7.604,1.88,12.18,0.66c4.094,1.63,8.998,2.301,12.105,0.076
				C105.729,749.865,110.063,750.585,112.679,748.907z"/>
			<path fill="#592E05" d="M99.669,753.188c0,0,0.762-0.315,0.906-0.474c0.291-0.316,0.543-0.768,0.732-1.253
				c0.191-0.486,0.328-1.015,0.4-1.54c0.076-0.507,0.074-1.103-0.02-1.391l0.027,0.062c-0.273-0.599-0.664-1.152-1.125-1.721
				c-0.457-0.57-2.121-3.001-2.387-3.628c-0.266-0.634-0.467-1.256-0.605-1.954l1.053-0.218c0.15,0.548,0.381,1.136,0.65,1.662
				c0.271,0.532,0.596,1.028,0.975,1.45c0,0,0.926,1.137,1.453,1.701c0.525,0.562,1.063,1.205,1.471,1.949l0.016,0.029l0.012,0.032
				c0.328,0.854,0.291,1.507,0.268,2.197c-0.045,0.679-0.166,1.34-0.371,1.997c-0.207,0.655-0.488,1.313-0.969,1.931
				c-0.24,0.308-0.537,0.605-0.91,0.849c-0.186,0.121-1.23,0.471-1.23,0.471L99.669,753.188z"/>
			<path fill="#592E05" d="M88.829,753.106c0,0,0.406-0.272,0.504-0.46c0.201-0.375,0.352-0.87,0.451-1.376
				c0.098-0.51,0.15-1.043,0.158-1.569c0.002-0.512-0.021-1.078-0.16-1.443c-0.336-0.936-0.982-2.077-1.293-3.271
				c-0.34-1.196-0.447-2.438-0.402-3.644h1.104c0.047,1.117,0.23,2.209,0.607,3.225c0.357,1.045,0.961,1.896,1.518,3.104
				c0.305,0.717,0.344,1.336,0.402,1.978c0.041,0.634,0.027,1.266-0.045,1.906c-0.078,0.64-0.201,1.287-0.492,1.967
				c-0.148,0.338-1.518,1.616-1.703,1.666c-0.096,0.028-0.293,0.068-0.293,0.068L88.829,753.106z"/>
			<path fill="#592E05" d="M79.47,753.8c-0.6-0.992-1.102-2.071-1.391-3.245c-0.291-1.161-0.346-2.492,0.135-3.709
				c0.115-0.302,0.508-0.959,0.508-0.959l0.004-0.006l0.006-0.011l0.277-0.504c0.219-0.438,0.396-0.909,0.543-1.396
				c0.291-0.971,0.473-2.024,0.543-3.035h1.063c0.02,1.145-0.074,2.241-0.305,3.363c-0.115,0.558-0.271,1.114-0.486,1.664
				c-0.053,0.135-0.564,1.211-0.623,1.42c-0.246,0.829-0.145,1.756,0.162,2.651c0.309,0.9,0.797,1.766,1.385,2.568L79.47,753.8z"/>
		</g>
	</g>
	<g>
		<path fill="#999999" d="M246.376,462.666c2.75-34.325,0.572-83-2.115-101.725c-6.867,4.17-27.813,17.417-80.965,9.485
			c0.652,6.513,7.086,59.075,9.486,101.07C196.909,472.069,222.995,468.346,246.376,462.666z"/>
		<path fill="#FFFFFF" d="M177.718,468.61c-0.717,0-1.434-0.003-2.148-0.01c-1.412-26.091-1.898-55.188-2.225-74.667
			c-0.139-8.238-0.244-14.533-0.379-18.439c9.945,1.373,21.605,0.726,31.381,0.329c18.152-0.735,30.102-6.542,37.953-9.485
			c2.484,20.206,3.561,63.544,1.307,93.965c-23.01,5.438-45.746,8.308-65.887,8.308C177.718,468.61,177.72,468.61,177.718,468.61z"
			/>
		<path fill="#999999" d="M118.659,357.752c-0.684,4.313-3.467,16.473-3.771,20.197c-5.396,17.826-12.715,48.777-16.682,77.315
			c9.813,7.237,54.705,18.521,78.746,19.013c5.314-14.473,8.342-21.343,12.512-32.382c9.322-0.736,16.189-3.189,22.078-6.379
			c3.189-9.076,1.963-27.475,1.963-27.475s4.59-28.649,4.906-34.345C175.479,376.396,124.794,362.413,118.659,357.752z"/>
		<path fill="#E8EBED" d="M174.499,471.333c-22.764-0.985-62.127-11.005-73.117-17.503c3.977-27.709,11.014-57.49,16.322-75.027
			l0.092-0.3l0.025-0.313c0.182-2.202,1.162-7.354,1.949-11.493c0.236-1.236,0.648-3.188,0.852-4.284
			c9.813,3.925,57.803,19.87,96.807,12.757c-1.234,13.044-7.139,47.661-10.793,56.177c-6.105,4.362-19.625,8.096-19.625,8.096
			S176.466,466.058,174.499,471.333z"/>
		<path fill="#FFFFFF" d="M133.858,366.828c-5.232,25.514-14.064,70.161-17.5,92.729c16.682,5.888,43.734,11.151,58.141,11.775
			c1.967-5.275,12.512-31.891,12.512-31.891s14.719-1.472,21.832-6.133c3.654-8.517,8.498-46.24,9.732-59.284
			C189.872,379.422,155.446,373.697,133.858,366.828z"/>
		<g>
			<path fill="#999999" d="M195.419,391.209c-27.236,0-69.625-11.34-78.713-16.324l0.943-1.721
				c9.596,5.262,56.9,17.705,83.195,15.909c24.916-1.707,36.662-8.183,43.328-12.905l1.135,1.602
				c-6.861,4.859-18.92,11.521-44.328,13.262C199.214,391.152,197.354,391.209,195.419,391.209z"/>
		</g>
	</g>
	<g>
		<path fill="#592E05" d="M257.362,428.099c-1.334,8.4-5.172,19.338-7.746,25.39c-1.334,7.206,7.779,11.47,10.1,5.267
			c3.701-6.896,7.975-26.234,8.535-29.026C264.901,428.327,259.194,428.456,257.362,428.099z"/>
		<linearGradient id="SVGID_53_" gradientUnits="userSpaceOnUse" x1="262.0698" y1="420.5889" x2="258.1448" y2="448.3095">
			<stop  offset="6.030000e-006" style="stop-color:#97613F"/>
			<stop  offset="0.0306" style="stop-color:#986240"/>
			<stop  offset="0.632" style="stop-color:#AE7B50"/>
			<stop  offset="1" style="stop-color:#B68456"/>
		</linearGradient>
		<path fill="url(#SVGID_53_)" d="M252.999,458.113c-1.068-1.064-1.594-2.825-0.982-4.419c2.211-5.771,5.5-14.435,7.473-23.306
			c1.404,0.436,4.916,0.903,6.451,1.463c-1.406,6.279-7.063,24.402-8.363,26.438C256.278,460.324,253.663,458.772,252.999,458.113z"
			/>
		<path fill="#592E05" d="M264.366,427.503c-0.045,5.341-0.162,16.682-1.309,25.351c-1.307,3.106-4.578,9.484-5.887,12.919
			c-2.291,8.014,8.34,12.594,10.307,9.019c0.961-1.75,7.643-15.75,8.174-17.195c2.121-5.424,4.316-26.915,3.889-29.108
			C276.222,428.327,266.452,427.905,264.366,427.503z"/>
		<linearGradient id="SVGID_54_" gradientUnits="userSpaceOnUse" x1="271.0796" y1="422.2627" x2="268.1358" y2="451.21">
			<stop  offset="6.030000e-006" style="stop-color:#97613F"/>
			<stop  offset="0.0306" style="stop-color:#986240"/>
			<stop  offset="0.632" style="stop-color:#AE7B50"/>
			<stop  offset="1" style="stop-color:#B68456"/>
		</linearGradient>
		<path fill="url(#SVGID_54_)" d="M267.964,472.15c-5.07,2.781-9.395-1.367-8.176-5.724c0.744-2.416,2.781-7.185,5.068-12.43
			c0.465-4.607,1.885-14.027,1.922-23.304c1.461,0.12,9.166,0.831,9.619,0.851c-0.291,8.399-0.768,17.344-2.18,22.771
			C273.892,455.107,268.962,469.625,267.964,472.15z"/>
		<path fill="#592E05" d="M275.651,428.321c-0.328,7.032-1.799,22.405-2.529,26.668c-1.4,4.149-3.193,7.186-6.465,14.545
			c-4.234,8.854,7.57,14.474,11.119,8.994c0.818-2.263,7.033-17.335,7.033-17.335s5.512-30.532,5.711-32.077
			C286.677,428.887,278.675,428.711,275.651,428.321z"/>
		<linearGradient id="SVGID_55_" gradientUnits="userSpaceOnUse" x1="279.2432" y1="419.5464" x2="277.7712" y2="463.2133">
			<stop  offset="6.030000e-006" style="stop-color:#97613F"/>
			<stop  offset="0.0306" style="stop-color:#986240"/>
			<stop  offset="0.632" style="stop-color:#AE7B50"/>
			<stop  offset="1" style="stop-color:#B68456"/>
		</linearGradient>
		<path fill="url(#SVGID_55_)" d="M268.786,470.386c0.734-2.767,4.262-8.108,6.414-14.262c1.105-7.36,2.123-16.378,2.086-23.387
			c2.156,0.19,8.457-0.264,10.715-0.109c-0.764,5.277-3.6,24.231-3.6,24.231s-7.939,18.816-8.424,19.871
			C274.179,480.655,266.116,476.719,268.786,470.386z"/>
		<path fill="#592E05" d="M284.528,428.639c-0.006,4.18-0.826,18.056-1.518,27.485c-1.799,4.415-3.68,8.422-4.498,10.548
			c-2.617,8.75,7.113,16.273,12.021,6.297c1.145-2.126,4.578-8.014,7.031-14.392c1.309-12.103,0.967-28.662,0.818-30.093
			C294.927,428.287,287.896,428.839,284.528,428.639z"/>
		<linearGradient id="SVGID_56_" gradientUnits="userSpaceOnUse" x1="289.3242" y1="408.7119" x2="288.343" y2="459.9831">
			<stop  offset="6.030000e-006" style="stop-color:#97613F"/>
			<stop  offset="0.0306" style="stop-color:#986240"/>
			<stop  offset="0.632" style="stop-color:#AE7B50"/>
			<stop  offset="1" style="stop-color:#B68456"/>
		</linearGradient>
		<path fill="url(#SVGID_56_)" d="M280.722,467.244c1.227-3.189,2.043-5.191,4.537-10.262c0.982-8.832,1.219-19.054,0.736-25.146
			c1.105-0.082,4.395-0.313,5.537-0.425c1.143-0.111,3.492,0.259,4.563,0.18c0.654,6.052,0.367,17.376-0.982,26.33
			c-3.066,6.992-6.053,12.43-7.195,14.72C285.136,479.02,279.146,471.34,280.722,467.244z"/>
		<path fill="#592E05" d="M260.604,396.758c-5.396,7.359-3.762,29.438-3.65,34.837c12.363,3.533,38.279,3.399,42.871,3.753
			c-0.354-12.009-11.744-39.734-12.563-43.987C282.683,397.248,271.399,412.131,260.604,396.758z"/>
		<linearGradient id="SVGID_57_" gradientUnits="userSpaceOnUse" x1="246.8608" y1="414.9419" x2="287.0483" y2="414.9419">
			<stop  offset="6.030000e-006" style="stop-color:#97613F"/>
			<stop  offset="0.0306" style="stop-color:#986240"/>
			<stop  offset="0.632" style="stop-color:#AE7B50"/>
			<stop  offset="1" style="stop-color:#B68456"/>
		</linearGradient>
		<path fill="url(#SVGID_57_)" d="M294.214,436.498c-8.172-0.225-25.402-1.265-35.244-3.435c-0.012-0.786,0.355-5.652,0.326-6.541
			c-0.186-5.674,0-22.078,2.945-29.274c0.83-0.252,2.289,1.309,6.051,1.799c5.561-3.107,11.223-5.207,16.783-5.662
			c0.164,7.358,19.975,33.925,12.326,42.378C297.021,436.185,294.878,436.517,294.214,436.498z"/>
		<path fill="#592E05" d="M288.325,394.795c4.539,5.028,11.408,12.593,13.615,16.436c0.236,1.496,1.814,6.182,3.639,11.366
			c2.861,8.137,8.014,12.43,8.627,13.779c-1.471,4.17-9.848,8.002-14.352,4.293c-4.502-3.709-7.686-11.775-9.32-17.663
			C268.292,416.792,270.604,395.34,288.325,394.795z"/>
		<linearGradient id="SVGID_58_" gradientUnits="userSpaceOnUse" x1="277.9922" y1="429.1768" x2="298.574" y2="414.4755">
			<stop  offset="6.030000e-006" style="stop-color:#97613F"/>
			<stop  offset="0.0306" style="stop-color:#986240"/>
			<stop  offset="0.632" style="stop-color:#AE7B50"/>
			<stop  offset="1" style="stop-color:#B68456"/>
		</linearGradient>
		<path fill="url(#SVGID_58_)" d="M301.081,438.461c-5.738-5.452-8.912-17.663-8.912-17.663
			c-10.576-1.245-17.744-6.705-17.99-15.536c-0.109-3.931,4.15-10.65,11.02-10.65c3.434,4.251,11.059,13.921,14.002,18.663
			c0.795,2.494,3.201,9.422,6.217,15.374c2.539,5.015,4.252,6.01,5.723,8.096C310.772,438.461,304.353,441.568,301.081,438.461z"/>
		<path fill="#592E05" d="M261.587,433.063c7.359,1.718,25.389,3.189,30.295,3.435C285.505,438.829,268.454,436.131,261.587,433.063
			z"/>
	</g>
	<g>
		<g>
			
				<ellipse transform="matrix(-0.982 0.1887 -0.1887 -0.982 283.7749 170.8007)" fill="#592E05" cx="133.755" cy="98.912" rx="7.14" ry="16.661"/>
			<linearGradient id="SVGID_59_" gradientUnits="userSpaceOnUse" x1="145.0469" y1="99.8955" x2="116.0977" y2="98.6689">
				<stop  offset="6.030000e-006" style="stop-color:#97613F"/>
				<stop  offset="1" style="stop-color:#B68456"/>
			</linearGradient>
			<path fill="url(#SVGID_59_)" d="M137.226,113.347c-2.148-0.001-6.164-4.936-7.826-12.974c-0.813-3.92-0.881-7.856-0.189-10.797
				c0.645-2.743,1.738-3.871,2.479-4.002c0.066-0.013,0.135-0.019,0.203-0.019c2.146,0,6.164,4.936,7.828,12.975
				c0.822,3.979,0.889,7.813,0.189,10.797c-0.646,2.742-1.74,3.87-2.48,4.003C137.362,113.342,137.294,113.347,137.226,113.347
				L137.226,113.347z"/>
			
				<ellipse transform="matrix(-0.9695 0.2452 -0.2452 -0.9695 290.843 163.3326)" fill="#6F3F23" cx="135.254" cy="99.771" rx="3.704" ry="8.121"/>
		</g>
		<g>
			
				<ellipse transform="matrix(0.982 0.1888 -0.1888 0.982 22.6336 -39.4709)" fill="#592E05" cx="218.514" cy="99.077" rx="7.141" ry="16.66"/>
			<path fill="#B68456" d="M215.042,113.512c2.148-0.001,6.164-4.936,7.828-12.975c0.811-3.92,0.881-7.855,0.189-10.797
				c-0.645-2.742-1.738-3.87-2.479-4.002c-0.068-0.012-0.137-0.018-0.203-0.018c-2.148,0-6.164,4.936-7.828,12.974
				c-0.822,3.979-0.891,7.813-0.189,10.797c0.645,2.743,1.738,3.87,2.479,4.003C214.905,113.506,214.974,113.512,215.042,113.512
				L215.042,113.512z"/>
			<path fill="#6F3F23" d="M214.001,98.477c-0.834,4.35,0.117,8.188,2.129,8.572c2.004,0.385,4.311-2.829,5.145-7.18
				c0.836-4.35-0.119-8.189-2.129-8.574C217.14,90.91,214.835,94.125,214.001,98.477z"/>
		</g>
		<g>
			<g>
				<path fill="#592E05" d="M220.864,74.83c0-25.341-19.77-45.883-44.156-45.883c-24.389,0-44.158,20.542-44.158,45.883
					c0,1.4,3.895,12.715,3.68,25.096c-0.123,7.113-0.326,17.049,0.49,21.955c2.76,7.157,23.246,35.627,25.76,37.288
					c7.236,4.784,22.838,6.182,31.768,0c5.068-6.705,20.074-30.296,21.547-35.529c2.453-14.71,1.123-34.815,1.473-40.068
					C217.239,83.571,220.864,77.361,220.864,74.83z"/>
				<linearGradient id="SVGID_60_" gradientUnits="userSpaceOnUse" x1="162.2026" y1="47.8691" x2="210.2844" y2="182.7926">
					<stop  offset="0" style="stop-color:#86502D"/>
					<stop  offset="1" style="stop-color:#97613F"/>
				</linearGradient>
				<path fill="url(#SVGID_60_)" d="M179.413,161.04c-5.943-0.001-11.873-1.515-15.514-3.956
					c-2.607-2.348-21.48-28.607-24.279-35.469c-0.984-4.314-1.658-11.838-2.326-19.891c-1.023-12.301-1.801-25.414-1.801-26.895
					c0-23.677,18.488-42.939,41.215-42.939c22.725,0,41.213,19.263,41.213,42.939c0,1.752-0.289,4.959-0.41,6.329
					c-0.031,0.333-0.059,0.642-0.066,0.935l-0.008-0.026c-0.305,4.558-2.063,26.153-4.531,41.008
					c-1.102,4.718-14.713,28.449-20.303,34.624C189.337,159.855,184.671,161.04,179.413,161.04L179.413,161.04z"/>
				<linearGradient id="SVGID_61_" gradientUnits="userSpaceOnUse" x1="128.9028" y1="101.5732" x2="175.8977" y2="103.0754">
					<stop  offset="6.030000e-006" style="stop-color:#97613F"/>
					<stop  offset="0.3974" style="stop-color:#A57049"/>
					<stop  offset="1" style="stop-color:#B68456"/>
				</linearGradient>
				<path fill="url(#SVGID_61_)" d="M178.915,53.438c-11.08,3.559-25.848-5.834-33.117,0.859c-3.381,3.197-5.889,15.209-1.963,27.23
					c-3.189,8.095,1.717,17.172,1.717,26.248c0,7.396-0.889,17.227,2.943,22.078c9.24,11.693,13.656,19.625,16.6,24.041
					c3.436,4.906,21.752,6.379,27.641,0.818c6.338-8.604,19.195-27.46,20.17-31.638c4.852-14.318,2.871-32.819,3.176-37.378
					c0,0,1.398-4.205,1.43-4.538c0.121-1.37,0.41-4.577,0.41-6.329C217.921,51.153,212.522,42.645,178.915,53.438z"/>
			</g>
			<linearGradient id="SVGID_62_" gradientUnits="userSpaceOnUse" x1="177.5146" y1="143.2158" x2="166.1633" y2="142.8916">
				<stop  offset="0" style="stop-color:#86502D"/>
				<stop  offset="1" style="stop-color:#97613F"/>
			</linearGradient>
			<path fill="url(#SVGID_62_)" d="M168.856,141.629c4.906,2.208,14.842,2.699,20.443-0.163
				C185.538,145.555,174.991,147.517,168.856,141.629z"/>
		</g>
		<linearGradient id="SVGID_63_" gradientUnits="userSpaceOnUse" x1="180.0142" y1="80.0161" x2="179.577" y2="100.7848">
			<stop  offset="6.030000e-006" style="stop-color:#97613F"/>
			<stop  offset="0.4205" style="stop-color:#A16D47"/>
			<stop  offset="1" style="stop-color:#B68456"/>
		</linearGradient>
		<path fill="url(#SVGID_63_)" d="M178.425,119.061c-1.779-0.485-7.238-2.453-7.238-3.803s2.086-9.936,2.209-11.775
			s-0.559-7.524-0.613-8.627c-0.164-3.27-0.307-4.252,0.551-6.092c3.926-1.166,9.568,0,10.611,0.49
			c-0.123,2.331-0.205,11.939-0.205,14.27c0,1.432,1.717,7.85,3.025,9.895c1.799,2.984-0.857,3.68-2.82,4.17
			C181.245,118.447,179.772,119.428,178.425,119.061z"/>
		<g>
			<linearGradient id="SVGID_64_" gradientUnits="userSpaceOnUse" x1="182.5049" y1="144.0342" x2="178.6134" y2="93.2016">
				<stop  offset="0" style="stop-color:#86502D"/>
				<stop  offset="1" style="stop-color:#97613F"/>
			</linearGradient>
			<path fill="url(#SVGID_64_)" d="M208.517,84.553c-7.113-6.379-16.723-6.338-22.855-4.621c-1.594,0.982-2.576,1.84-3.721,2.331
				c-2.168,0.777-6.461,0.735-7.195-2.208c-2.086-0.98-10.836-2.902-13.492-2.82c-4.662,0.613-7.238,1.471-9.199,2.453
				c-1.35,1.717-1.596,1.717-3.23,4.047c-1.473,2.33-1.309,6.379-0.246,11.448c2.086-0.245,12.92-7.687,21.262-3.761
				c0.055,0.941-11.449,7.522-11.449,7.522s8.422,1.227,12.266-0.327c0.039,3.476,0.566,8.064,0.328,10.631
				c-1.186,1.922-7.115,7.032-5.07,8.994c0.43,0.43,1.555,0.572,2.045,0.654c1.307-0.327,2.861-0.572,4.742-0.245
				c2.664,0.464,2.801,2.493,5.807,2.371c3.066-0.125,2.779-0.572,3.76-0.981c1.346-0.56,1.719-0.736,3.926-0.98
				c0.369,0.068,1.717,1.227,3.025-0.164c0.123-1.247-1.963-2.616-3.434-2.371c-2.783,0.464-5.807,1.391-7.115,1.431
				c-1.145,0.036-5.643-1.349-6.051-2.331c-0.326-1.717,2.045-9.976,2.127-11.652c0.07-1.442-0.084-10.916,0-12.02
				c0.184-3.436,8.77-3.066,8.893-0.368c0.104,2.292,0.184,6.562,0.184,6.562c9.076,3.066,17.998,1.094,23.428-3.373
				c-0.326-0.939-1.063-2.861-1.432-4.088C206.962,89.949,208.026,87.17,208.517,84.553z"/>
			<path fill="#592E05" d="M168.856,118.242c1.256-0.785,3.918-0.397,5.061,0.115c1.176,0.527,2.518,1.688,4.775,1.729
				c1.072,0.02,3.619-1.211,4.707-1.643c1.164-0.461,4.02-0.773,4.674,0.371c-1.646-0.74-3.605,0.15-4.605,0.613
				c-1.268,0.587-3.203,1.729-4.85,1.811c-2.229,0.111-4.039-1.248-5.277-1.893C172.204,118.754,170.585,117.98,168.856,118.242z"/>
			<path fill="#592E05" d="M169.308,119.061c-5.889,0.857-4.293-3.558,0.939-5.889C166.976,115.871,165.565,119.061,169.308,119.061
				z"/>
			<path fill="#592E05" d="M187.868,119.633c3.436-1.717,0.123-5.766-0.98-6.746C189.341,114.727,193.386,118.283,187.868,119.633z"
				/>
		</g>
		<g>
			<g>
				<linearGradient id="SVGID_65_" gradientUnits="userSpaceOnUse" x1="159.1504" y1="92.6455" x2="159.2117" y2="99.6367">
					<stop  offset="0" style="stop-color:#CED5D8"/>
					<stop  offset="1" style="stop-color:#FFFFFF"/>
				</linearGradient>
				<path fill="url(#SVGID_65_)" d="M149.976,89.809c5.924-2.367,16.219-1.045,19.121,0.7c1.221,3.227,1.01,5.565,1.029,6.956
					c-2.422,1.383-16.242,3.883-21.201-1.423c-0.49-0.778-0.707-1.687-0.707-1.687S149.599,91.246,149.976,89.809z"/>
				<linearGradient id="SVGID_66_" gradientUnits="userSpaceOnUse" x1="159.8862" y1="89.0464" x2="159.7636" y2="94.8724">
					<stop  offset="0" style="stop-color:#CED5D8"/>
					<stop  offset="1" style="stop-color:#FFFFFF"/>
				</linearGradient>
				<path fill="url(#SVGID_66_)" d="M154.138,91.094c-2.648,0.883-5.279,4.15-2.205,6.941c5.299,2.193,13.541,1.029,16.973-0.076
					C168.444,90.813,160.462,89.287,154.138,91.094z"/>
			</g>
			<g>
				<circle fill="#321908" cx="159.08" cy="93.891" r="5.442"/>
				<linearGradient id="SVGID_67_" gradientUnits="userSpaceOnUse" x1="159.0801" y1="88.7637" x2="159.0801" y2="97.1047">
					<stop  offset="0" style="stop-color:#42210B"/>
					<stop  offset="0.9984" style="stop-color:#94561D"/>
				</linearGradient>
				<circle fill="url(#SVGID_67_)" cx="159.08" cy="93.891" r="5.034"/>
				<linearGradient id="SVGID_68_" gradientUnits="userSpaceOnUse" x1="159.3286" y1="89.3291" x2="159.3286" y2="97.459">
					<stop  offset="0" style="stop-color:#42210B"/>
					<stop  offset="0.9815" style="stop-color:#C46C1B"/>
				</linearGradient>
				<path fill="url(#SVGID_68_)" d="M160.011,92.877c-3.869-2.191-6.199,1.365-5.26,3.541c0.873,1.492,2.475,2.506,4.33,2.506
					c2.779,0,5.033-2.253,5.033-5.033c0-0.114-0.025-0.221-0.033-0.332C163.827,95.306,160.435,97.432,160.011,92.877z"/>
				<circle fill="#211106" cx="159.08" cy="93.891" r="2.423"/>
				<circle fill="#FFFFFF" cx="154.381" cy="92.275" r="1.731"/>
			</g>
			<path d="M170.267,91.174c0.117-0.344,0.229-0.693,0.338-1c-0.555-0.196-1.557-0.48-2.83-0.766
				c-5.566-2.201-14.367-2.012-17.07-0.951c-0.525,0.748-2.516,3.863-2.76,6.01c0.201,1.24,1.227,1.901,2.697,3.006
				c-0.922-1.461-1.445-2.422-1.533-2.883c0.326-1.304,1.438-3.355,3.129-4.354c2.904-0.667,7.258-0.476,10.992,0.222
				c1.707,0.361,3.297,0.798,4.617,1.279c0.395,0.16,0.768,0.326,1.088,0.5c0.475,1.287,1.191,4.229,1.115,5.536
				C170.884,95.754,170.696,93,170.267,91.174z"/>
		</g>
		<g>
			<g>
				<linearGradient id="SVGID_69_" gradientUnits="userSpaceOnUse" x1="196.7041" y1="90.7598" x2="196.5817" y2="100.922">
					<stop  offset="0" style="stop-color:#CED5D8"/>
					<stop  offset="1" style="stop-color:#FFFFFF"/>
				</linearGradient>
				<path fill="url(#SVGID_69_)" d="M205.769,89.932c-5.922-2.367-16.217-1.046-19.119,0.699c-1.223,3.228-0.947,5.533-0.375,6.924
					c2.422,1.383,15.588,3.915,20.545-1.391c0.49-0.777,0.707-1.686,0.707-1.686S206.147,91.369,205.769,89.932z"/>
				<path fill="#FFFFFF" d="M202.546,92.157c-4.777-1.911-16.926-1.881-14.881,5.888c3.893,1.14,12.168,2.365,17.18-0.385
					C205.718,94.885,205.673,92.939,202.546,92.157z"/>
			</g>
			<g>
				<circle fill="#321908" cx="195.815" cy="93.891" r="5.441"/>
				<linearGradient id="SVGID_70_" gradientUnits="userSpaceOnUse" x1="195.6938" y1="90.0215" x2="195.9392" y2="97.7904">
					<stop  offset="0" style="stop-color:#42210B"/>
					<stop  offset="0.9984" style="stop-color:#94561D"/>
				</linearGradient>
				<circle fill="url(#SVGID_70_)" cx="195.816" cy="93.891" r="5.034"/>
				<linearGradient id="SVGID_71_" gradientUnits="userSpaceOnUse" x1="196.0645" y1="90.0244" x2="196.0645" y2="98.1544">
					<stop  offset="0" style="stop-color:#42210B"/>
					<stop  offset="0.9815" style="stop-color:#C46C1B"/>
				</linearGradient>
				<path fill="url(#SVGID_71_)" d="M196.747,92.877c-3.869-2.191-6.199,1.365-5.262,3.541c0.873,1.492,2.477,2.506,4.332,2.506
					c2.779,0,5.033-2.253,5.033-5.033c0-0.114-0.025-0.221-0.033-0.332C200.563,95.306,197.171,97.432,196.747,92.877z"/>
				<circle fill="#211106" cx="195.815" cy="93.891" r="2.422"/>
				<circle fill="#FFFFFF" cx="191.426" cy="93.057" r="1.731"/>
			</g>
			<path d="M205.226,88.641c-2.828-0.579-12.107-1.169-18.336,1.348c-0.986,0.252-1.754,0.484-2.209,0.646
				c0.326,0.44,0.564,0.964,0.805,1.374c-0.238,1.903-0.131,4.413,0.871,5.79c-0.076-1.307-0.02-4.152,0.455-5.439
				c0.344-0.188,0.746-0.363,1.178-0.531c0.828-0.298,1.756-0.578,2.754-0.835c4.084-0.964,9.5-1.29,12.887-0.513
				c1.693,1,2.68,2.99,3.006,4.293c-0.086,0.462-0.549,1.238-1.473,2.699c1.227-0.736,2.078-1.701,2.535-2.74
				C207.657,94.038,206.417,90.334,205.226,88.641z"/>
		</g>
		<path d="M143.958,85.451c0.32-1.6,0.227-1.547,1.717-4.66c1.145-1.717,4.416-3.926,7.482-4.906
			c9.566,0.98,18.357,3.352,21.342,4.66c0.164,2.127,0.246,4.906,0.082,5.725c-2.779-1.146-10.672-4.047-21.547-4.498
			C150.335,82.263,146.042,82.876,143.958,85.451z"/>
		<path d="M212.36,86.76c-0.613-1.35-1.473-4.17-1.473-4.17c-1.145-1.718-5.152-3.68-7.932-4.988
			c-9.076,0.736-15.332,2.33-18.645,3.435c-0.98,2.208-1.104,4.171-0.572,5.806c2.779-1.145,8.422-2.861,18.645-4.579
			C204.399,82.629,209.38,85.084,212.36,86.76z"/>
		<path d="M221.354,50.371c-3.23-13.572-20.521-26.546-42.439-26.984c-24.531-0.49-36.324,9.643-43.176,22.324
			c-5.402,10.001-4.498,30.583-3.127,37.104c0.482,0.283,1.164,0.797,1.777,1.166l1.596,15.945l2.881,2.883l-1.471-18.093
			c0.184-2.146,1.492-3.762,1.533-10.304c-2.943-9.648,1.635-19.461,3.598-21.75c6.541-8.178,22.406,2.125,34.508,1.635
			c11.77-0.478,28.715-7.451,34.752-1.227c3.988,4.11,4.367,13.506,2.699,20.361c0.613,6.01,1.271,8.109,1.377,11.82
			c-0.328,4.045-0.887,14.061-1.377,17.454c0.92,0.04,3.25-1.922,3.25-1.922l1.711-17.635c0.785-0.413,1.111-0.539,2.092-0.458
			C222.274,79.176,225.034,65.826,221.354,50.371z"/>
		<g>
			<path fill="#6F3F23" d="M153.812,125.029c1.189,0.183,2.656,0.531,3.639,0.531c12.348,1.309,37.246,1.595,44.018,1.513
				c-0.994,0.409-1.49,0.899-2.402,1.145c-2.236,2.616-6.631,7.196-8.785,9.649c-3.977,3.107-18.572,3.966-24.041-0.613
				c-4.102-3.955-6.293-6.772-8.504-9.199C156.245,127.154,155.038,126.01,153.812,125.029z"/>
			<path fill="#6F3F23" d="M157.628,128.791c-1.555-0.613-4.543-3.416-4.227-4.252c0.188-0.491,3.729-0.695,4.723-0.328
				c-1.49,0.368-1.967,0.879-2.092,1.37S157.007,128.116,157.628,128.791z"/>
			<path fill="#6F3F23" d="M196.724,126.104c1.615-0.432,5.711,0.039,5.965,0.896c0.15,0.503-2.559,2.765-3.576,3.061
				c0.969-1.179,1.039-1.87,0.84-2.336S197.63,126.273,196.724,126.104z"/>
		</g>
		<g>
			<path fill="#ADBCC7" d="M179.099,138.281c-3.947,0-7.838-0.725-10.857-2.213c-3.947-2.885-7.738-6.994-9.445-8.75
				c7.086,1.472,36.199,1.134,38.57,1.227c-2.676,2.896-6.805,6.734-9.316,8.279C185.333,137.778,182.241,138.281,179.099,138.281z"
				/>
			<linearGradient id="SVGID_72_" gradientUnits="userSpaceOnUse" x1="158.9683" y1="133.6182" x2="197.2864" y2="133.6182">
				<stop  offset="0.145" style="stop-color:#C5D3D9"/>
				<stop  offset="0.2249" style="stop-color:#DEE6E9"/>
				<stop  offset="0.3087" style="stop-color:#F0F4F5"/>
				<stop  offset="0.3963" style="stop-color:#FBFCFD"/>
				<stop  offset="0.4932" style="stop-color:#FFFFFF"/>
				<stop  offset="0.6635" style="stop-color:#FCFDFE"/>
				<stop  offset="0.7679" style="stop-color:#F4F8FB"/>
				<stop  offset="0.8543" style="stop-color:#E6F0F5"/>
				<stop  offset="0.8826" style="stop-color:#DFECF2"/>
			</linearGradient>
			<path fill="url(#SVGID_72_)" d="M186.827,134.086c1.814-0.428,4.262-1.072,6.295-2.175c0.404-0.772,0.742-1.527,0.758-2.548
				c-6.904-0.006-22.979,0.327-30.666-0.408c0.139,1.105,0.221,1.521,0.799,2.861c3.168,1.648,7.604,2.699,7.604,2.699
				s-3.523-0.103-6.314-0.842c0.953,0.836,1.934,1.658,2.939,2.395c3.02,1.488,6.91,2.213,10.857,2.213
				c3.143,0,6.234-0.503,8.951-1.457c1.18-0.726,2.719-1.965,4.295-3.368c0.021-0.049,0.045-0.093,0.066-0.142
				C190.886,133.826,188.687,134.086,186.827,134.086z"/>
		</g>
	</g>
</g>
</svg>
