<?xml version="1.0" encoding="UTF-8" standalone="no"?>
<!-- Generator: Adobe Illustrator 15.0.0, SVG Export Plug-In . SVG Version: 6.00 Build 0)  -->

<svg
   xmlns:dc="http://purl.org/dc/elements/1.1/"
   xmlns:cc="http://creativecommons.org/ns#"
   xmlns:rdf="http://www.w3.org/1999/02/22-rdf-syntax-ns#"
   xmlns:svg="http://www.w3.org/2000/svg"
   xmlns="http://www.w3.org/2000/svg"
   xmlns:sodipodi="http://sodipodi.sourceforge.net/DTD/sodipodi-0.dtd"
   xmlns:inkscape="http://www.inkscape.org/namespaces/inkscape"
   version="1.1"
   x="0px"
   y="0px"
   width="840.172px"
   height="1663.056px"
   viewBox="0 0 840.172 1663.056"
   enable-background="new 0 0 840.172 1663.056"
   xml:space="preserve"
   id="svg2"
   inkscape:version="0.91 r13725"
   sodipodi:docname="Apron_NH_01.svg"><metadata
     id="metadata121"><rdf:RDF><cc:Work
         rdf:about=""><dc:format>image/svg+xml</dc:format><dc:type
           rdf:resource="http://purl.org/dc/dcmitype/StillImage" /><dc:title></dc:title></cc:Work></rdf:RDF></metadata><defs
     id="defs119" /><sodipodi:namedview
     pagecolor="#ffffff"
     bordercolor="#666666"
     borderopacity="1"
     objecttolerance="10"
     gridtolerance="10"
     guidetolerance="10"
     inkscape:pageopacity="0"
     inkscape:pageshadow="2"
     inkscape:window-width="969"
     inkscape:window-height="480"
     id="namedview117"
     showgrid="false"
     inkscape:zoom="0.14190743"
     inkscape:cx="-429.05914"
     inkscape:cy="831.52802"
     inkscape:window-x="9"
     inkscape:window-y="30"
     inkscape:window-maximized="0"
     inkscape:current-layer="svg2" /><g
     id="Skin_x5F_01"><g
       id="Apron"><g
         id="g6"><path
           fill="#3C3B40"
           d="M122.082,54.749C152.139,46.161,293.126,8.589,318.889,0c7.363,26.511,67.263,147.068,208.972,147.068     c95.541,0,128.818-77.291,132.04-120.23c39.003,33.279,116.292,80.153,137.047,91.246     c38.646,62.978,70.492,182.137,7.516,442.636c-1.433,37.213-2.863,127.387,0.001,250.481c20.038,290.557,3.709,770.197,0,791.517     c-134.542,80.154-416.516,71.568-642.663,25.765c-8.636-67.355-5.727-410.788,50.095-762.892     c10.735-231.873-50.095-340.654-84.447-422.239C193.291,273.026,144.982,124.884,122.082,54.749z"
           id="path8" /><path
           fill="#806B56"
           d="M493.346,1650.175c-99.988,0-213.15-11.51-319.729-32.47c-7.74-88.602,0.101-421.417,52.435-751.529     l0.114-0.707l0.031-0.714c9.654-208.532-38.876-317.83-74.311-397.636c-3.71-8.353-7.247-16.321-10.547-24.023     c64.834-171.607,40.837-321.013,22.339-384.567l8.993-2.557c38.732-11,106.218-30.164,138.015-39.879     c13.951,36.972,63.29,156.74,200.001,156.74c84.151,0,152.435-36.499,156.551-123.573c40.159,30.751,99.52,66.822,120.481,78.46     c52.635,88.677,51.842,233.004,4.224,429.972l-0.303,1.25l-0.048,1.283c-1.684,43.708-2.692,135.741-0.004,251.277l0.028,0.587     c18.786,272.404,5.407,722.979,0.737,782.751C727.66,1631.06,624.507,1650.175,493.346,1650.175z"
           id="path10" /><path
           fill="#8C785F"
           d="M791.587,811.502c-2.688-115.536-1.679-207.569,0.004-251.277l0.048-1.283l0.303-1.25     c47.618-196.968,48.411-341.295-4.224-429.972c-20.961-11.638-80.322-47.709-120.481-78.46     c-9.484,57.016-54.15,109.618-138.302,109.618c-136.71,0-204.299-105.813-218.25-142.785     c-31.796,9.715-170.354,47.244-170.354,47.244c15.457,53.106,50.454,162.097,26.053,297.857     c18.227,128.71,82.107,246.974,154.293,356.971c3.998,6.093-6.701,40.615-8.087,48.417c-2.876,16.2-5.92,32.372-9.097,48.515     c-27.905,141.818-49.521,283.814-57.453,428.271c-6.392,116.476-8.215,234.486-5.652,351.144     c0.056,2.555-0.929,34.791,2.805,35.369c85.135,13.179,171.696,20.294,250.152,20.294c131.161,0,234.314-19.115,299.006-55.335     c4.67-59.772,18.049-510.347-0.737-782.751L791.587,811.502z"
           id="path12" /><path
           fill="#806B56"
           d="M261.994,487.723c164.602,44.369,395.044,38.646,513.843,21.469     C711.427,569.309,465.957,610.101,261.994,487.723z"
           id="path14" /><path
           fill="#806B56"
           d="M513.906,534.957c48.307-1.432,213.983,18.249,224.718,21.47     c-85.879,27.193-217.562,10.018-251.914,4.293C491.004,552.132,508.539,537.104,513.906,534.957z"
           id="path16" /><path
           fill="#806B56"
           d="M373.638,726.752c100.19,11.45,246.902,15.387,317.751,5.727     C634.495,772.198,460.589,781.5,373.638,726.752z"
           id="path18" /></g><g
         id="g20"><g
           id="g22"><path
             fill="#3C3B40"
             d="M203.131,713.334c2.281-3.892,6.844-5.636,6.844-5.636s0.804,14.089,1.46,17.149      c30.878,32.5,94.455,63.668,184.387,79.197c70.135,12.167,86.594,183.925,0.714,189.651      c-115.043,8.943-179.986-44.73-198.951-85.165C210.825,845.913,207.424,754.126,203.131,713.334z"
             id="path24" /><path
             fill="#806B56"
             d="M379.464,983.401c-85.606,0-144.233-35.233-166.231-71.509c7.252-43.438,10.892-114.978,8.311-162.789      c36.167,30.905,95.463,54.404,172.087,67.634c33.335,6.477,49.944,59.975,46.747,106.04      C438.226,953.796,424.269,982.779,379.464,983.401z"
             id="path26" /><path
             fill="#8C785F"
             d="M440.378,922.777c3.197-46.065-13.412-99.563-46.747-106.04c-33.127-5.72-62.943-13.394-89.116-22.726      c-9.014,18.49-24.173,108.952-26.776,153.165c34.883,18.346,101.981,36.14,141.154,24.076      C433.31,959.821,439.065,941.698,440.378,922.777z"
             id="path28" /></g><path
           fill="#3C3B40"
           d="M807.326,726.752c-1.609-3.398-4.652-6.978-4.652-6.978s0.501,21.197-0.434,23.852     c-10.301,26.603-27.353,44.478-84.371,60.417c-80.868,20.039-95.182,183.21-12.165,197.521     c100.193-8.587,117.367-44.371,117.367-87.311C815.915,861.295,807.326,775.418,807.326,726.752z"
           id="path30" /><path
           fill="#8C785F"
           d="M706.336,988.58c-38.278-7.794-42.931-54.007-43.439-68.14c-1.576-43.604,19.714-94.387,58.071-103.892     c39.239-10.965,61.386-21.474,75.54-36.968c3.121,47.471,9.155,101.87,13.679,135.525     C810.044,947.726,801.305,980.058,706.336,988.58z"
           id="path32" /></g></g></g></svg>