<?xml version="1.0" encoding="utf-8"?>
<!-- Generator: Adobe Illustrator 15.0.0, SVG Export Plug-In . SVG Version: 6.00 Build 0)  -->
<!DOCTYPE svg PUBLIC "-//W3C//DTD SVG 1.1//EN" "http://www.w3.org/Graphics/SVG/1.1/DTD/svg11.dtd">
<svg version="1.1" xmlns="http://www.w3.org/2000/svg" xmlns:xlink="http://www.w3.org/1999/xlink" x="0px" y="0px"
	 width="840.172px" height="1663.056px" viewBox="0 0 840.172 1663.056" enable-background="new 0 0 840.172 1663.056"
	 xml:space="preserve">
<g id="Skin_x5F_01">
	<g id="Apron">
		<g>
			<path fill="#3C3B40" d="M122.082,54.749C152.139,46.161,293.126,8.589,318.889,0c7.363,26.511,67.263,147.068,208.972,147.068
				c95.541,0,128.818-77.291,132.04-120.23c39.003,33.279,116.292,80.153,137.047,91.246
				c38.646,62.978,70.492,182.137,7.516,442.636c-1.433,37.213-2.863,127.387,0.001,250.481c20.038,290.557,3.709,770.197,0,791.517
				c-134.542,80.154-416.516,71.568-642.663,25.765c-8.636-67.355-5.727-410.788,50.095-762.892
				c10.735-231.873-50.095-340.654-84.447-422.239C193.291,273.026,144.982,124.884,122.082,54.749z"/>
			<path fill="#806B56" d="M493.346,1650.175c-99.988,0-213.15-11.51-319.729-32.47c-7.74-88.602,0.101-421.417,52.435-751.529
				l0.114-0.707l0.031-0.714c9.654-208.532-38.876-317.83-74.311-397.636c-3.71-8.353-7.247-16.321-10.547-24.023
				c64.834-171.607,40.837-321.013,22.339-384.567l8.993-2.557c38.732-11,106.218-30.164,138.015-39.879
				c13.951,36.972,63.29,156.74,200.001,156.74c84.151,0,152.435-36.499,156.551-123.573c40.159,30.751,99.52,66.822,120.481,78.46
				c52.635,88.677,51.842,233.004,4.224,429.972l-0.303,1.25l-0.048,1.283c-1.684,43.708-2.692,135.741-0.004,251.277l0.028,0.587
				c18.786,272.404,5.407,722.979,0.737,782.751C727.66,1631.06,624.507,1650.175,493.346,1650.175z"/>
			<path fill="#8C785F" d="M791.587,811.502c-2.688-115.536-1.679-207.569,0.004-251.277l0.048-1.283l0.303-1.25
				c47.618-196.968,48.411-341.295-4.224-429.972c-20.961-11.638-80.322-47.709-120.481-78.46
				c-9.484,57.016-54.15,109.618-138.302,109.618c-136.71,0-204.299-105.813-218.25-142.785
				c-31.796,9.715-170.354,47.244-170.354,47.244c15.457,53.106,50.454,162.097,26.053,297.857
				c18.227,128.71,82.107,246.974,154.293,356.971c3.998,6.093-6.701,40.615-8.087,48.417c-2.876,16.2-5.92,32.372-9.097,48.515
				c-27.905,141.818-49.521,283.814-57.453,428.271c-6.392,116.476-8.215,234.486-5.652,351.144
				c0.056,2.555-0.929,34.791,2.805,35.369c85.135,13.179,171.696,20.294,250.152,20.294c131.161,0,234.314-19.115,299.006-55.335
				c4.67-59.772,18.049-510.347-0.737-782.751L791.587,811.502z"/>
			<path fill="#806B56" d="M261.994,487.723c164.602,44.369,395.044,38.646,513.843,21.469
				C711.427,569.309,465.957,610.101,261.994,487.723z"/>
			<path fill="#806B56" d="M513.906,534.957c48.307-1.432,213.983,18.249,224.718,21.47
				c-85.879,27.193-217.562,10.018-251.914,4.293C491.004,552.132,508.539,537.104,513.906,534.957z"/>
			<path fill="#806B56" d="M373.638,726.752c100.19,11.45,246.902,15.387,317.751,5.727
				C634.495,772.198,460.589,781.5,373.638,726.752z"/>
		</g>
		<g>
			<g>
				<path fill="#3C3B40" d="M203.131,713.334c2.281-3.892,6.844-5.636,6.844-5.636s0.804,14.089,1.46,17.149
					c30.878,32.5,94.455,63.668,184.387,79.197c70.135,12.167,86.594,183.925,0.714,189.651
					c-115.043,8.943-179.986-44.73-198.951-85.165C210.825,845.913,207.424,754.126,203.131,713.334z"/>
				<path fill="#806B56" d="M379.464,983.401c-85.606,0-144.233-35.233-166.231-71.509c7.252-43.438,10.892-114.978,8.311-162.789
					c36.167,30.905,95.463,54.404,172.087,67.634c33.335,6.477,49.944,59.975,46.747,106.04
					C438.226,953.796,424.269,982.779,379.464,983.401z"/>
				<path fill="#8C785F" d="M440.378,922.777c3.197-46.065-13.412-99.563-46.747-106.04c-33.127-5.72-62.943-13.394-89.116-22.726
					c-9.014,18.49-24.173,108.952-26.776,153.165c34.883,18.346,101.981,36.14,141.154,24.076
					C433.31,959.821,439.065,941.698,440.378,922.777z"/>
			</g>
			<path fill="#3C3B40" d="M807.326,726.752c-1.609-3.398-4.652-6.978-4.652-6.978s0.501,21.197-0.434,23.852
				c-10.301,26.603-27.353,44.478-84.371,60.417c-80.868,20.039-95.182,183.21-12.165,197.521
				c100.193-8.587,117.367-44.371,117.367-87.311C815.915,861.295,807.326,775.418,807.326,726.752z"/>
			<path fill="#8C785F" d="M706.336,988.58c-38.278-7.794-42.931-54.007-43.439-68.14c-1.576-43.604,19.714-94.387,58.071-103.892
				c39.239-10.965,61.386-21.474,75.54-36.968c3.121,47.471,9.155,101.87,13.679,135.525
				C810.044,947.726,801.305,980.058,706.336,988.58z"/>
		</g>
	</g>
</g>
<g id="_x30_1">
	<g>
		<g>
			<g>
				<path fill="#944D09" d="M11.448,489.151c6.845-14.749,19.312-51.263,26.684-59.516c4.314-4.826,35.814-30.548,41.786-41.787
					c6.32-10.533,10.006-37.391,12.463-66.712c4.74-19.486,64.281-13.43,67.592,25.635c3.512,41.43-14.396,85.673-23.877,107.44
					C124.509,457.902,19.875,485.989,11.448,489.151z"/>
				<linearGradient id="SVGID_1_" gradientUnits="userSpaceOnUse" x1="50.4839" y1="387.6763" x2="113.6865" y2="408.2172">
					<stop  offset="0.0126" style="stop-color:#FFBD99"/>
					<stop  offset="1" style="stop-color:#E3A586"/>
				</linearGradient>
				<path fill="url(#SVGID_1_)" d="M31.11,470.717c4.537-12.228,10.158-28.145,14.924-34.763
					c2.421-3.363,16.928-14.718,24.226-22.119c7.908-8.021,14.361-13.053,16.441-15.989c8.841-12.454,15.513-45.107,16.213-72.494
					c7.374-8.429,41.611-3.69,46.348,19.485c4.313,21.084-7.724,65.66-16.852,87.432c0,0,19.46-0.03,20.541,4.743
					C150.319,437.745,59.877,463.261,31.11,470.717z"/>
				<linearGradient id="SVGID_2_" gradientUnits="userSpaceOnUse" x1="78.4307" y1="387.313" x2="212.8159" y2="425.6294">
					<stop  offset="6.030000e-006" style="stop-color:#F3B190"/>
					<stop  offset="0.1127" style="stop-color:#F8BE9D"/>
					<stop  offset="0.2821" style="stop-color:#FDCCAA"/>
					<stop  offset="0.43" style="stop-color:#FFD1AF"/>
				</linearGradient>
				<path fill="url(#SVGID_2_)" d="M105.198,332.724c1.052,13.167-2.107,46.877-6.321,69.524
					c-14.22,15.273-26.008,28.725-32.654,59.512c36.188-9.997,84.922-24.245,86.729-24.749c-1.08-4.773-20.541-4.743-20.541-4.743
					c9.128-21.772,21.165-66.348,16.852-87.432c-3.216-15.729-20.012-22.945-32.783-23.334
					C111.517,321.137,105.198,326.404,105.198,332.724z"/>
			</g>
			<g>
				<path fill="#944D09" d="M1.44,473.878c18.961-5.266,43.716-13.166,43.716-13.166s8.952-12.643,23.7-25.286
					c15.249-13.071,27.81-19.8,35.287-22.292c37.57,1.753,58.284-1.057,99.016,5.967c19.298,48.748,30.959,112.641,21.07,187.5
					c-2.46,18.61-11.236,38.625-15.802,45.997c-20.365,14.747-65.836,20.019-87.429,18.962
					c-27.915-2.634-68.821-12.639-81.109-17.558C44.102,642.064,53.583,542.171,1.44,473.878z"/>
				<linearGradient id="SVGID_3_" gradientUnits="userSpaceOnUse" x1="11.998" y1="681.7568" x2="83.1905" y2="592.5626">
					<stop  offset="0.0126" style="stop-color:#FFBD99"/>
					<stop  offset="1" style="stop-color:#E3A586"/>
				</linearGradient>
				<path fill="url(#SVGID_3_)" d="M129.776,661.379c-41.903,0-81.461-15.449-100.423-21.067
					C9.341,620.293-12.781,540.238,8.989,485.113c21.066-18.262,83.955-59.964,94.102-60.392c38.192,1.3,70.592,1.396,107.443,7.724
					c8.958,54.685,4.567,185.391-10.533,214.186C192.979,651.198,160.675,658.569,129.776,661.379z"/>
				<linearGradient id="SVGID_4_" gradientUnits="userSpaceOnUse" x1="142.8657" y1="541.707" x2="-90.0313" y2="522.5823">
					<stop  offset="0.0126" style="stop-color:#FFBD99"/>
					<stop  offset="1" style="stop-color:#E3A586"/>
				</linearGradient>
				<path fill="url(#SVGID_4_)" d="M178.245,653.672c10.641-2.47,18.658-5.033,21.756-7.042c15.1-28.794,19.49-159.5,10.533-214.186
					c-36.851-6.328-69.25-6.424-107.443-7.724c-10.147,0.428-73.036,42.13-94.102,60.392
					c-19.662,49.858,7.726,125.704,25.632,146.77c12.64,7.373,55.126,22.82,93.049,24.929
					C148.034,657.165,161.936,655.894,178.245,653.672z"/>
				<linearGradient id="SVGID_5_" gradientUnits="userSpaceOnUse" x1="231.6802" y1="517.5239" x2="80.8743" y2="546.2494">
					<stop  offset="6.030000e-006" style="stop-color:#F3B190"/>
					<stop  offset="1" style="stop-color:#FFD1AF"/>
				</linearGradient>
				<path fill="url(#SVGID_5_)" d="M210.534,432.445c-36.851-6.328-67.67-14.152-105.862-15.453
					c-0.188,0.009-0.419,0.05-0.635,0.084c-3.267,61.726,39.96,145.986,23.634,193.388c3.512,23.524,3.512,36.867,0.702,46.001
					c10.534,1.047,58.637-3.515,72.684-9.486c3.862-7.724,9.831-22.82,11.938-35.463C219.64,571.633,219.074,484.58,210.534,432.445
					z"/>
				<path fill="#944D09" d="M124.684,486.518c6.146,2.104,81.286-9.834,93.224-9.481c6.321,1.58,17.029,8.248,21.418,10.18
					c5.62,12.643,6.672,40.559,0.703,59.869c-2.107,3.162-4.741,5.794-4.741,5.794s3.686,3.162,3.686,6.844
					c0.876,17.91-3.512,46.176-11.586,50.387c-28.44,8.78-72.33,11.942-86.378,10.533
					C136.799,610.112,126.265,503.371,124.684,486.518z"/>
				<linearGradient id="SVGID_6_" gradientUnits="userSpaceOnUse" x1="302.5708" y1="550.9106" x2="75.5019" y2="555.363">
					<stop  offset="6.030000e-006" style="stop-color:#F3B190"/>
					<stop  offset="0.1055" style="stop-color:#F4B594"/>
					<stop  offset="0.9989" style="stop-color:#FFD1AF"/>
				</linearGradient>
				<path fill="url(#SVGID_6_)" d="M129.072,619.244c-11.233-18.261-11.233-45.648-10.707-58.992
					c-7.375-17.905-14.572-44.944-9.655-66.711c8.427,0,16.5,2.981,16.5,2.981s48.194-8.429,69.876-8.601
					c6.495,2.545,26.86,5.708,31.601,7.023c7.375,11.851,6.321,32.301,2.107,49.86c-2.808,4.562-16.853,7.724-16.853,7.724
					s7.022,2.104,14.045,2.809c3.512,12.638,2.106,37.924-6.322,48.458C198.598,612.921,141.713,620.293,129.072,619.244z"/>
				<path fill="#944D09" d="M139.082,556.567c-2.459,0.524,0.524,2.108,3.336,2.805c28.789,3.162,70.223-0.696,86.376-4.562
					c1.229-2.629,3.16-6.668,4.038-9.477C217.208,551.3,168.751,556.739,139.082,556.567z"/>
				<path fill="#944D09" d="M129.776,495.299c-1.757-0.353-7.726-3.515-9.13-3.515c0.964,4.038-0.526,10.27,1.052,17.905
					C124.509,502.67,128.722,497.403,129.776,495.299z"/>
				<path fill="#944D09" d="M100.983,414.188c18.961-4.567,76.544-5.62,94.103-4.215c10.269,2.106,28.354,7.02,34.937,11.238
					c7.727,11.146,10.708,53.717,2.281,72.68c-10.445,4.302-32.477,9.128-39.325,9.128c-6.847,0-61.095-3.334-72.157-4.739
					C111.695,489.503,89.222,453.864,100.983,414.188z"/>
				<linearGradient id="SVGID_7_" gradientUnits="userSpaceOnUse" x1="301.2969" y1="461.2959" x2="81.4847" y2="456.8492">
					<stop  offset="6.030000e-006" style="stop-color:#F3B190"/>
					<stop  offset="1" style="stop-color:#FFD1AF"/>
				</linearGradient>
				<path fill="url(#SVGID_7_)" d="M196.314,493.89c0,0-71.98,2.104-86.904,1.056c-4.038-14.571-15.098-50.21-1.405-70.225
					c22.122-3.162,76.721-4.567,84.621-2.721c5.794,1.845,22.913,8.16,28.179,11.851c4.741,13.426,0.527,46.344-3.95,54.512
					C211.324,490.468,196.314,493.89,196.314,493.89z"/>
				<linearGradient id="SVGID_8_" gradientUnits="userSpaceOnUse" x1="299.8145" y1="474.123" x2="185.3156" y2="456.2331">
					<stop  offset="6.030000e-006" style="stop-color:#F3B190"/>
					<stop  offset="1" style="stop-color:#FFD1AF"/>
				</linearGradient>
				<path fill="url(#SVGID_8_)" d="M221.067,431.392c-5.267-3.69-19.224-8.076-28.967-9.658c14.921,14.22,10.71,61.269,4.391,71.803
					c8.954-0.524,19.309-2.81,25.631-4.915C227.389,473.175,227.849,443.678,221.067,431.392z"/>
			</g>
		</g>
	</g>
</g>
</svg>
