<?xml version="1.0" encoding="UTF-8" standalone="no"?>
<!-- Generator: Adobe Illustrator 15.0.0, SVG Export Plug-In . SVG Version: 6.00 Build 0)  -->

<svg
   xmlns:dc="http://purl.org/dc/elements/1.1/"
   xmlns:cc="http://creativecommons.org/ns#"
   xmlns:rdf="http://www.w3.org/1999/02/22-rdf-syntax-ns#"
   xmlns:svg="http://www.w3.org/2000/svg"
   xmlns="http://www.w3.org/2000/svg"
   xmlns:sodipodi="http://sodipodi.sourceforge.net/DTD/sodipodi-0.dtd"
   xmlns:inkscape="http://www.inkscape.org/namespaces/inkscape"
   version="1.1"
   id="_x30_1_1_"
   x="0px"
   y="0px"
   width="1248.111px"
   height="1003.844px"
   viewBox="0 0 1248.111 1003.844"
   enable-background="new 0 0 1248.111 1003.844"
   xml:space="preserve"
   inkscape:version="0.91 r13725"
   sodipodi:docname="arm_man_1.svg"><metadata
     id="metadata199"><rdf:RDF><cc:Work
         rdf:about=""><dc:format>image/svg+xml</dc:format><dc:type
           rdf:resource="http://purl.org/dc/dcmitype/StillImage" /></cc:Work></rdf:RDF></metadata><defs
     id="defs197" /><sodipodi:namedview
     pagecolor="#ffffff"
     bordercolor="#666666"
     borderopacity="1"
     objecttolerance="10"
     gridtolerance="10"
     guidetolerance="10"
     inkscape:pageopacity="0"
     inkscape:pageshadow="2"
     inkscape:window-width="2060"
     inkscape:window-height="945"
     id="namedview195"
     showgrid="false"
     inkscape:zoom="0.23509629"
     inkscape:cx="624.05548"
     inkscape:cy="501.922"
     inkscape:window-x="10"
     inkscape:window-y="34"
     inkscape:window-maximized="0"
     inkscape:current-layer="_x30_1_1_" /><g
     id="g76"
     transform="translate(365.80756,-8.5071499)"><g
       id="g78"><path
         d="m 400.341,647.702 c -29.729,3.715 -36.995,-0.206 -75.842,7.025 -90.591,16.849 -182.28,36.234 -242.278,3.51 C 19.02,616.097 -0.727,551.353 11.646,525.51 27.447,492.505 77.483,415.259 156.484,422.283 c 39.328,4.915 74.266,37.393 74.266,37.393 0,0 130.09,37.392 157.478,43.187 2.107,29.494 16.328,102.701 12.113,144.839 z"
         id="path80"
         inkscape:connector-curvature="0"
         style="fill:#944d09" /><linearGradient
         id="SVGID_6_"
         gradientUnits="userSpaceOnUse"
         x1="296.58691"
         y1="686.24683"
         x2="224.256"
         y2="590.03802"><stop
           offset="0.0126"
           style="stop-color:#FFBD99"
           id="stop83" /><stop
           offset="1"
           style="stop-color:#E3A586"
           id="stop85" /></linearGradient><path
         d="m 184.4,664.027 c -40.762,0 -68.197,-2.474 -94.805,-16.854 -39.715,-26.644 -61.762,-64.144 -65.836,-86.901 -1.904,-10.647 -2.057,-25.021 1.58,-30.021 0,0 48.455,-107.269 132.727,-97.435 54.775,22.467 69.521,35.811 69.521,35.811 0,0 115.871,35.82 123.598,37.22 -5.619,16.857 -16.855,120.088 -19.313,136.588 -44.772,8.597 -104.284,18.782 -147.472,21.592 z"
         id="path87"
         style="fill:url(#SVGID_6_)"
         inkscape:connector-curvature="0" /><linearGradient
         id="SVGID_7_"
         gradientUnits="userSpaceOnUse"
         x1="163.6611"
         y1="763.96167"
         x2="190.6989"
         y2="504.84769"><stop
           offset="6.030000e-006"
           style="stop-color:#F3B190"
           id="stop90" /><stop
           offset="0.3556"
           style="stop-color:#F6B897"
           id="stop92" /><stop
           offset="0.8664"
           style="stop-color:#FDCBA9"
           id="stop94" /><stop
           offset="1"
           style="stop-color:#FFD1AF"
           id="stop96" /></linearGradient><path
         d="m 340.3,620.316 c 4.438,-36.339 7.251,-103.567 10.886,-114.469 -7.727,-1.4 -123.598,-37.22 -123.598,-37.22 0,0 -33.182,-29.495 -69.521,-35.811 -84.271,-9.834 -130.619,94.802 -130.619,94.802 -2.107,8.424 -9.131,23.173 34.41,51.26 51.615,57.238 128.162,82.164 278.442,41.438 z"
         id="path98"
         style="fill:url(#SVGID_7_)"
         inkscape:connector-curvature="0" /><path
         d="m 287.632,484.428 c -23.175,-5.615 -83.569,-22.821 -130.62,-30.544 42.135,0 66.363,7.547 71.982,7.723 4.213,3.51 47.4,17.906 58.638,22.821 z"
         id="path100"
         inkscape:connector-curvature="0"
         style="fill:#944d09" /></g><g
       id="g102"><g
         id="g104"><path
           d="m 287.632,490.223 c 6.845,-14.748 19.312,-51.263 26.684,-59.516 4.314,-4.826 35.815,-30.549 41.786,-41.787 6.32,-10.533 10.007,-37.391 12.464,-66.712 4.74,-19.486 64.281,-13.43 67.592,25.635 3.512,41.431 -14.396,85.674 -23.877,107.44 -11.589,3.691 -116.223,31.778 -124.649,34.94 z"
           id="path106"
           inkscape:connector-curvature="0"
           style="fill:#944d09" /><linearGradient
           id="SVGID_8_"
           gradientUnits="userSpaceOnUse"
           x1="326.668"
           y1="388.74799"
           x2="389.87051"
           y2="409.28891"><stop
             offset="0.0126"
             style="stop-color:#FFBD99"
             id="stop109" /><stop
             offset="1"
             style="stop-color:#E3A586"
             id="stop111" /></linearGradient><path
           d="m 307.294,471.789 c 4.536,-12.228 10.158,-28.146 14.924,-34.764 2.421,-3.362 16.928,-14.718 24.226,-22.119 7.908,-8.021 14.361,-13.053 16.441,-15.989 8.841,-12.454 15.513,-45.107 16.214,-72.493 7.373,-8.429 41.609,-3.69 46.348,19.485 4.313,21.084 -7.725,65.659 -16.852,87.432 0,0 19.461,-0.03 20.541,4.742 -2.633,0.733 -93.075,26.25 -121.842,33.706 z"
           id="path113"
           style="fill:url(#SVGID_8_)"
           inkscape:connector-curvature="0" /><linearGradient
           id="SVGID_9_"
           gradientUnits="userSpaceOnUse"
           x1="354.61429"
           y1="388.3848"
           x2="488.99951"
           y2="426.7012"><stop
             offset="6.030000e-006"
             style="stop-color:#F3B190"
             id="stop116" /><stop
             offset="0.1127"
             style="stop-color:#F8BE9D"
             id="stop118" /><stop
             offset="0.2821"
             style="stop-color:#FDCCAA"
             id="stop120" /><stop
             offset="0.43"
             style="stop-color:#FFD1AF"
             id="stop122" /></linearGradient><path
           d="m 381.382,333.795 c 1.051,13.167 -2.107,46.878 -6.322,69.524 -14.22,15.273 -26.007,28.726 -32.653,59.513 36.188,-9.997 84.921,-24.245 86.729,-24.749 -1.08,-4.772 -20.541,-4.742 -20.541,-4.742 9.127,-21.772 21.164,-66.348 16.852,-87.432 -3.217,-15.729 -20.012,-22.945 -32.783,-23.335 -4.964,-0.366 -11.282,4.902 -11.282,11.221 z"
           id="path124"
           style="fill:url(#SVGID_9_)"
           inkscape:connector-curvature="0" /></g><g
         id="g126"><path
           d="m 277.624,474.95 c 18.961,-5.267 43.716,-13.166 43.716,-13.166 0,0 8.952,-12.643 23.7,-25.286 15.249,-13.071 27.811,-19.801 35.287,-22.292 37.57,1.753 58.283,-1.057 99.016,5.967 19.298,48.748 30.959,112.641 21.069,187.5 -2.46,18.61 -11.236,38.625 -15.802,45.997 -20.365,14.747 -65.836,20.019 -87.428,18.962 -27.916,-2.634 -68.821,-12.639 -81.11,-17.557 4.213,-11.939 13.695,-111.833 -38.448,-180.125 z"
           id="path128"
           inkscape:connector-curvature="0"
           style="fill:#944d09" /><linearGradient
           id="SVGID_10_"
           gradientUnits="userSpaceOnUse"
           x1="288.18069"
           y1="682.82788"
           x2="359.37299"
           y2="593.63373"><stop
             offset="0.0126"
             style="stop-color:#FFBD99"
             id="stop131" /><stop
             offset="1"
             style="stop-color:#E3A586"
             id="stop133" /></linearGradient><path
           d="m 405.96,662.451 c -41.903,0 -81.461,-15.449 -100.423,-21.067 -20.013,-20.019 -42.135,-100.074 -20.365,-155.199 21.066,-18.261 83.954,-59.965 94.103,-60.392 38.191,1.301 70.592,1.396 107.442,7.725 8.957,54.685 4.567,185.391 -10.533,214.185 -7.022,4.566 -39.326,11.938 -70.224,14.748 z"
           id="path135"
           style="fill:url(#SVGID_10_)"
           inkscape:connector-curvature="0" /><linearGradient
           id="SVGID_11_"
           gradientUnits="userSpaceOnUse"
           x1="419.0488"
           y1="542.77863"
           x2="186.15179"
           y2="523.65387"><stop
             offset="0.0126"
             style="stop-color:#FFBD99"
             id="stop138" /><stop
             offset="1"
             style="stop-color:#E3A586"
             id="stop140" /></linearGradient><path
           d="m 454.429,654.743 c 10.641,-2.47 18.657,-5.033 21.755,-7.042 15.101,-28.794 19.49,-159.5 10.533,-214.185 -36.851,-6.328 -69.251,-6.424 -107.442,-7.725 -10.148,0.428 -73.036,42.131 -94.103,60.392 -19.662,49.858 7.726,125.704 25.633,146.77 12.64,7.373 55.126,22.82 93.048,24.929 20.365,0.355 34.267,-0.916 50.576,-3.139 z"
           id="path142"
           style="fill:url(#SVGID_11_)"
           inkscape:connector-curvature="0" /><linearGradient
           id="SVGID_12_"
           gradientUnits="userSpaceOnUse"
           x1="507.86331"
           y1="518.59552"
           x2="357.0592"
           y2="547.32062"><stop
             offset="6.030000e-006"
             style="stop-color:#F3B190"
             id="stop145" /><stop
             offset="1"
             style="stop-color:#FFD1AF"
             id="stop147" /></linearGradient><path
           d="m 486.717,433.517 c -36.851,-6.328 -67.669,-14.152 -105.862,-15.453 -0.188,0.009 -0.418,0.05 -0.635,0.084 -3.268,61.727 39.959,145.986 23.633,193.388 3.514,23.524 3.514,36.867 0.703,46.001 10.533,1.047 58.637,-3.515 72.683,-9.486 3.862,-7.724 9.831,-22.82 11.938,-35.463 6.645,-39.883 6.08,-126.936 -2.46,-179.071 z"
           id="path149"
           style="fill:url(#SVGID_12_)"
           inkscape:connector-curvature="0" /><path
           d="m 400.868,487.59 c 6.145,2.104 81.284,-9.834 93.223,-9.481 6.321,1.58 17.029,8.248 21.419,10.18 5.619,12.643 6.672,40.559 0.703,59.869 -2.107,3.162 -4.741,5.795 -4.741,5.795 0,0 3.687,3.162 3.687,6.844 0.876,17.91 -3.512,46.176 -11.587,50.387 -28.44,8.78 -72.33,11.942 -86.377,10.533 -4.214,-10.534 -14.747,-117.274 -16.327,-134.127 z"
           id="path151"
           inkscape:connector-curvature="0"
           style="fill:#944d09" /><linearGradient
           id="SVGID_13_"
           gradientUnits="userSpaceOnUse"
           x1="578.75391"
           y1="551.98218"
           x2="351.68591"
           y2="556.43451"><stop
             offset="6.030000e-006"
             style="stop-color:#F3B190"
             id="stop154" /><stop
             offset="0.1055"
             style="stop-color:#F4B594"
             id="stop156" /><stop
             offset="0.9989"
             style="stop-color:#FFD1AF"
             id="stop158" /></linearGradient><path
           d="m 405.255,620.316 c -11.232,-18.261 -11.232,-45.649 -10.707,-58.992 -7.373,-17.905 -14.57,-44.944 -9.654,-66.711 8.426,0 16.5,2.982 16.5,2.982 0,0 48.193,-8.428 69.875,-8.601 6.495,2.545 26.86,5.708 31.601,7.023 7.375,11.851 6.321,32.301 2.107,49.86 -2.808,4.562 -16.853,7.724 -16.853,7.724 0,0 7.021,2.104 14.045,2.809 3.512,12.638 2.106,37.924 -6.322,48.458 -21.066,9.124 -77.95,16.497 -90.592,15.448 z"
           id="path160"
           style="fill:url(#SVGID_13_)"
           inkscape:connector-curvature="0" /><path
           d="m 415.265,557.639 c -2.459,0.524 0.525,2.108 3.336,2.805 28.789,3.162 70.224,-0.696 86.376,-4.562 1.229,-2.629 3.16,-6.668 4.038,-9.477 -15.624,5.967 -64.08,11.405 -93.75,11.234 z"
           id="path162"
           inkscape:connector-curvature="0"
           style="fill:#944d09" /><path
           d="m 405.96,496.371 c -1.758,-0.353 -7.727,-3.515 -9.131,-3.515 0.965,4.038 -0.525,10.27 1.053,17.905 2.81,-7.019 7.023,-12.286 8.078,-14.39 z"
           id="path164"
           inkscape:connector-curvature="0"
           style="fill:#944d09" /><path
           d="m 377.167,415.259 c 18.961,-4.566 76.545,-5.619 94.102,-4.215 10.27,2.105 28.354,7.02 34.938,11.238 7.727,11.146 10.707,53.717 2.28,72.68 -10.445,4.302 -32.477,9.128 -39.324,9.128 -6.847,0 -61.095,-3.334 -72.157,-4.739 -9.128,-8.776 -31.601,-44.415 -19.839,-84.092 z"
           id="path166"
           inkscape:connector-curvature="0"
           style="fill:#944d09" /><linearGradient
           id="SVGID_14_"
           gradientUnits="userSpaceOnUse"
           x1="577.47949"
           y1="462.36771"
           x2="357.66821"
           y2="457.92099"><stop
             offset="6.030000e-006"
             style="stop-color:#F3B190"
             id="stop169" /><stop
             offset="1"
             style="stop-color:#FFD1AF"
             id="stop171" /></linearGradient><path
           d="m 472.497,494.962 c 0,0 -71.98,2.104 -86.904,1.055 -4.037,-14.572 -15.098,-50.211 -1.404,-70.225 22.123,-3.161 76.721,-4.566 84.621,-2.721 5.794,1.845 22.912,8.16 28.179,11.851 4.74,13.426 0.527,46.344 -3.95,54.512 -5.532,2.105 -20.542,5.528 -20.542,5.528 z"
           id="path173"
           style="fill:url(#SVGID_14_)"
           inkscape:connector-curvature="0" /><linearGradient
           id="SVGID_15_"
           gradientUnits="userSpaceOnUse"
           x1="575.99707"
           y1="475.19431"
           x2="461.4982"
           y2="457.30441"><stop
             offset="6.030000e-006"
             style="stop-color:#F3B190"
             id="stop176" /><stop
             offset="1"
             style="stop-color:#FFD1AF"
             id="stop178" /></linearGradient><path
           d="m 497.25,432.464 c -5.267,-3.69 -19.224,-8.076 -28.967,-9.658 14.921,14.22 10.71,61.269 4.391,71.803 8.954,-0.524 19.31,-2.81 25.631,-4.915 5.266,-15.447 5.726,-44.944 -1.055,-57.23 z"
           id="path180"
           style="fill:url(#SVGID_15_)"
           inkscape:connector-curvature="0" /></g></g></g></svg>