<?xml version="1.0" encoding="utf-8"?>
<!-- Generator: Adobe Illustrator 15.0.0, SVG Export Plug-In . SVG Version: 6.00 Build 0)  -->
<!DOCTYPE svg PUBLIC "-//W3C//DTD SVG 1.1//EN" "http://www.w3.org/Graphics/SVG/1.1/DTD/svg11.dtd">
<svg version="1.1" id="_x30_1_1_" xmlns="http://www.w3.org/2000/svg" xmlns:xlink="http://www.w3.org/1999/xlink" x="0px" y="0px"
	 width="843.999px" height="1127.013px" viewBox="0 0 843.999 1127.013" enable-background="new 0 0 843.999 1127.013"
	 xml:space="preserve">
<g>
	<g>
		<g>
			<g>
				<path fill="#93AB20" d="M161.767,998.317c8.439,36.849,9.795,62.351,19.717,77.962c79.566,51.206,457.123,82.135,621.041,0.434
					c12.234-8.374,20.215-56.321,23.123-77.561C750.2,1003.196,211.591,997.043,161.767,998.317z"/>
				<path fill="#B7D130" d="M494.589,1112.548c-130.87-0.362-259.932-19.771-303.624-45.424
					c-4.509-8.663-7.007-22.146-10.095-38.825c-0.998-5.386-2.074-11.178-3.309-17.361c3.01,0,6.379,0,10.086,0.013
					c37.741,0.104,107.536,0.834,188.362,1.679c110.487,1.151,235.722,2.468,328.059,2.719c48.442,0.136,82.581-0.04,103.411-0.534
					c-2.201,15.767-4.98,32.829-10.229,49.856C731.129,1095.923,624.003,1112.904,494.589,1112.548z"/>
				<path fill="#DBF74A" d="M245.938,1058.747c-0.025,8.497,3.151,18.069,5.952,29.606c61.166,14.426,151.474,23.943,242.699,24.194
					c129.414,0.357,236.541-16.624,302.662-47.877c9.707-14.541,10.313-35.706,10.229-49.856
					C582.048,1117.033,282.219,1064.157,245.938,1058.747z"/>
			</g>
			<polygon fill="#333333" points="563.829,1067.748 564.37,1111.713 584.454,1110.084 582.825,1067.204 			"/>
		</g>
		<polygon fill="#333333" points="564.37,1105.742 558.556,1126.547 589.339,1123.66 583.368,1104.661 		"/>
	</g>
	<g>
		<g id="Fluo_body-warmer_4_">
			<g>
				<path fill="#93AB20" d="M100.253,117.251c10.313-4.342,210.788-57.832,218.938-59.348
					c16.496,35.889,83.078,127.146,187.18,144.332c27.307,137.496,76.232,633.409,71.68,869.983
					c-126.289,10.11-369.778-6.644-423.518-47.354c-6.514-5.97-9.488-18.533-10.313-25.513
					c-14.414-122.232-27.76-370.085-26.598-517.318c39.082-87.933,40.168-230.16-10.857-346.864
					C104.919,130.94,94.823,121.055,100.253,117.251z"/>
				<path fill="#B7D130" d="M169.19,1018.894c-8.143-4.343-9.627-17.398-10.313-23.347
					c-14.133-121.77-28.156-366.447-27.143-513.514c35.484-81.836,45.6-230.16-14.113-357.18
					c40.625-11.086,161.822-44.439,195.209-53.072c10.745,19.707,30.915,48.002,58.977,74.054
					c37.351,34.677,88.123,56.819,132.307,65.87c13.439,72.117,34.49,223.802,48.855,386.496
					c16.586,187.863,14.555,357.321,13.309,462.866C538.44,1065.691,282.234,1068.407,169.19,1018.894z"/>
				<linearGradient id="SVGID_1_" gradientUnits="userSpaceOnUse" x1="150.7705" y1="372.3101" x2="444.6168" y2="350.3813">
					<stop  offset="0" style="stop-color:#949FA1"/>
					<stop  offset="1" style="stop-color:#B7C6C9"/>
				</linearGradient>
				<path fill="url(#SVGID_1_)" d="M547.331,530.817c-54.045,2.682-109.39,3.887-164.104,3.719
					c-6.134-148.039-49.56-371.684-96.246-456.364c-20.962,5.694-89.834,24.356-94.45,25.507
					c54.283,104.226,81.81,314.041,85.767,426.121c-56.614-0.256-98.793,2.176-147.104-1.627
					c-0.277,22.665,2.17,76.676,2.711,91.737c100.121,12.141,286.568,13.024,420.061,6.283
					C553.21,593.836,551.31,560.135,547.331,530.817z"/>
				<linearGradient id="SVGID_2_" gradientUnits="userSpaceOnUse" x1="140.4189" y1="854.3936" x2="589.9209" y2="854.3936">
					<stop  offset="0" style="stop-color:#949FA1"/>
					<stop  offset="1" style="stop-color:#B7C6C9"/>
				</linearGradient>
				<path fill="url(#SVGID_2_)" d="M589.921,910.826c-0.346-24.558-2.807-70.091-3.299-99.836
					c-80.188,4.193-306.549,11.619-446.203-18.458c0,4.211,7.057,87.937,7.6,93.909
					C253.328,916.299,480.229,922.268,589.921,910.826z"/>
				<path fill="#DBF74A" d="M552.97,598.202c-14.365-162.694-35.416-314.379-48.855-386.496
					c-44.184-9.051-94.956-31.193-132.307-65.87c-28.062-26.052-48.231-54.347-58.977-74.054
					c-33.387,8.633-154.584,41.986-195.209,53.072c34.998,74.45,46.002,156.213,41.975,227.622
					c6.963,139.194,15.559,278.017,26.418,418.344c3.259,53.196,6.517,105.305,16.289,159.591c1.084,5.429,2.17,10.859,3.259,16.283
					c5.287,30.229,9.533,63.078,21.874,90.88c125.482,29.992,315.113,27.438,338.842,23.494
					C567.524,955.522,569.556,786.064,552.97,598.202z"/>
				<linearGradient id="SVGID_3_" gradientUnits="userSpaceOnUse" x1="150.563" y1="373.7271" x2="444.7239" y2="351.7747">
					<stop  offset="0" style="stop-color:#949FA1"/>
					<stop  offset="1" style="stop-color:#B7C6C9"/>
				</linearGradient>
				<path fill="url(#SVGID_3_)" d="M547.331,530.817c-54.045,2.682-109.39,3.887-164.104,3.719
					c-6.134-148.039-49.56-371.684-96.246-456.364c-20.962,5.694-89.834,24.356-94.45,25.507
					c54.283,104.226,81.81,314.041,85.767,426.121c-56.614-0.256-98.793,2.176-147.104-1.627c-0.277,22.665,2.17,81.38,2.711,96.447
					c100.121,12.126,287.021,11.079,420.51,4.343C553.659,596.607,551.31,560.135,547.331,530.817z"/>
				<linearGradient id="SVGID_4_" gradientUnits="userSpaceOnUse" x1="140.4189" y1="854.3936" x2="589.9209" y2="854.3936">
					<stop  offset="0" style="stop-color:#949FA1"/>
					<stop  offset="1" style="stop-color:#B7C6C9"/>
				</linearGradient>
				<path fill="url(#SVGID_4_)" d="M589.921,910.826c-0.346-24.558-2.807-70.091-3.299-99.836
					c-80.188,4.193-306.549,11.619-446.203-18.458c0,4.211,7.057,87.937,7.6,93.909
					C253.328,916.299,480.229,922.268,589.921,910.826z"/>
				<path fill="#868F98" d="M131.194,528.173c-0.277,22.665,2.17,81.38,2.711,96.447c12.652,1.531,26.693,2.851,41.832,3.979
					c-2.217-32.88-4.318-65.722-6.316-98.537C156.854,529.771,144.245,529.199,131.194,528.173z"/>
				<path fill="#868F98" d="M140.419,792.532c0,4.211,7.057,87.937,7.6,93.909c14.303,4.053,30.865,7.664,49.055,10.855
					c-4.469-32.427-7.047-64.307-9.162-96.356C171.284,798.529,155.353,795.744,140.419,792.532z"/>
			</g>
			<g>
				<path fill="#93AB20" d="M661.669,92.033c-6.826,83.919-71.674,98.071-112.635,110.203
					c-0.979,25.246,7.111,185.559,11.379,362.957c5.645,234.614,8.186,497.986,9.484,507.196
					c94.048-2.691,230.242-31.118,261.654-50.657c11.402-10.856,10.352-29.831,9.775-42.339
					c-5.434-116.708,0.176-368.742,1.627-433.152c1.445-64.417,8.695-292.696-50.482-377.798
					C743.549,138.116,684.424,108.21,661.669,92.033z"/>
				<path fill="#DBF74A" d="M582.771,1059.733c-4.727-96.295-30.656-759.231-30.32-855.474
					c38.32-10.947,86.748-34.584,102.393-103.124c11.698,7.107,43.284,27.94,58.878,36.891
					c20.592,11.809,49.297,27.146,71.037,40.568c50.5,88.311,47.225,295.84,44.51,361.523
					c-2.711,65.591-2.713,330.036-1.084,448.378c0.145,10.521-2.715,23.883-21.172,30.939
					C770.616,1035.699,669.244,1055.382,582.771,1059.733z"/>
				<linearGradient id="SVGID_5_" gradientUnits="userSpaceOnUse" x1="317.6738" y1="366.2031" x2="792.1014" y2="375.9183">
					<stop  offset="0" style="stop-color:#949FA1"/>
					<stop  offset="1" style="stop-color:#B7C6C9"/>
				</linearGradient>
				<path fill="url(#SVGID_5_)" d="M788.252,515.516c2.475-100.792-7.836-267.984-26.834-350.492
					c-19.412-11.787-74.428-44.894-80.34-48.312c22.797,141.673,24.967,327.325,22.908,405.96
					c-47.981,3.615-96.167,6.405-141.866,7.64c0.328,29.751,4.123,64.545,4.6,97.924c112.05-4.876,216.732-16.092,261.285-22.801
					c1.105-23.139,2.17-73.097,2.531-93.724C819.51,512.817,799.538,514.451,788.252,515.516z"/>
				<linearGradient id="SVGID_6_" gradientUnits="userSpaceOnUse" x1="218.5415" y1="886.0249" x2="963.7185" y2="827.5796">
					<stop  offset="0" style="stop-color:#949FA1"/>
					<stop  offset="1" style="stop-color:#B7C6C9"/>
				</linearGradient>
				<path fill="url(#SVGID_6_)" d="M827.098,783.844c-73.168,10.992-174.671,24.56-255.669,27.146
					c0.564,30.243,4.543,76.859,5.063,100.964c75.635-4.341,175.519-14.471,251.148-32.297
					C828.184,854.143,827.098,799.587,827.098,783.844z"/>
			</g>
		</g>
		<g>
			<path fill="#93AB20" d="M512.63,219.423c-3.813-39.094-13.52-70.774-14.559-77.846c-3.119-15.168-29.822-25.433-48.863-33.367
				c-66.86-27.86-89.484-72.38-92.473-87.579c-1.684-8.567,0.813-20.354-1.354-20.631c-13.031,10.136-34.056,50.583-42.378,66.76
				C314.895,92.639,399.991,206.284,512.63,219.423z"/>
			<path fill="#DBF74A" d="M501.886,212.012c-99.121-6.405-171.21-88.636-175.932-143.482c1.852-3.941,13.05-26.095,23.183-38.398
				c6.244,25.512,29.634,61.927,95.157,89.229l2.204,0.922c12.794,5.312,36.358,13.036,38.407,21.294
				C487.329,146.296,499.05,185.504,501.886,212.012z"/>
		</g>
		<g>
			<path fill="#93AB20" d="M544.485,218.076c-0.379-23.592-2.648-87.632,1.137-92.675c4.551-6.07,32.994-14.83,47.025-28.984
				c21.131-21.319,25.047-38.006,26.184-70.358c18.205-4.046,38.285,58.897,47.39,76.087
				C665.086,117.309,632.659,194.316,544.485,218.076z"/>
			<path fill="#DBF74A" d="M555.864,208.98c-0.377-20.898-2.275-73.471,1.898-76.163c10.617-5.057,32.598-16.05,40.197-23.593
				c16.92-16.807,27.158-37.08,30.336-58.304c6.701,12.255,24.615,54.268,26.547,58.304
				C658.257,138.542,630.95,192.129,555.864,208.98z"/>
		</g>
		<g>
			<g>
				<path fill="#333333" d="M563.829,1073.715c-0.066-3.858-5.811-392.276-16.658-514.284l18.145-1.275
					c10.896,122.514,18.525,510.069,18.596,513.93L563.829,1073.715z"/>
			</g>
			<g>
				<path fill="#333333" d="M547.929,569.369c-1.365-10.42-4.555-36.059-8.697-69.349
					c-12.539-100.722-35.877-288.208-40.152-305.687l8.893-1.719c4.381,17.893,26.865,198.568,40.305,306.521
					c4.141,33.266,7.332,58.885,8.691,69.296L547.929,569.369z"/>
			</g>
			<g>
				<path fill="#333333" d="M566.104,567.215h-9.104c0-10.951-2.299-74.087-4.955-147.186
					c-3.676-101.14-7.846-215.775-7.176-227.103l9.09,0.426c-0.65,10.986,3.691,130.435,7.188,226.419
					C563.804,492.941,566.104,556.135,566.104,567.215z"/>
			</g>
			<path fill="#333333" d="M575.22,607.414c1.555,6.527-3.313,11.961-10.82,12.075l-6.268,0.094
				c-7.506,0.111-13.289-5.245-12.852-11.909l2.395-36.435c0.434-6.663,4.244-11.997,8.473-11.858
				c4.225,0.138,8.949,5.596,10.51,12.122L575.22,607.414z"/>
		</g>
	</g>
</g>
<g>
	<g>
		<path fill="#944D09" d="M11.448,562.098c6.845-14.749,19.312-51.263,26.684-59.516c4.314-4.826,35.815-30.548,41.786-41.787
			c6.32-10.533,10.007-37.391,12.464-66.712c4.74-19.486,64.281-13.43,67.592,25.635c3.512,41.43-14.396,85.673-23.877,107.44
			C124.509,530.849,19.874,558.935,11.448,562.098z"/>
		<linearGradient id="SVGID_7_" gradientUnits="userSpaceOnUse" x1="50.4839" y1="460.6226" x2="113.687" y2="481.1636">
			<stop  offset="0.0126" style="stop-color:#FFBD99"/>
			<stop  offset="1" style="stop-color:#E3A586"/>
		</linearGradient>
		<path fill="url(#SVGID_7_)" d="M31.11,543.664c4.536-12.228,10.158-28.145,14.924-34.763c2.421-3.363,16.928-14.718,24.226-22.119
			c7.908-8.021,14.361-13.053,16.441-15.989c8.841-12.454,15.513-45.107,16.214-72.494c7.373-8.429,41.609-3.69,46.348,19.485
			c4.313,21.084-7.725,65.66-16.852,87.432c0,0,19.461-0.03,20.541,4.743C150.319,510.691,59.877,536.208,31.11,543.664z"/>
		<linearGradient id="SVGID_8_" gradientUnits="userSpaceOnUse" x1="78.4302" y1="460.2593" x2="212.8154" y2="498.5757">
			<stop  offset="6.030000e-006" style="stop-color:#F3B190"/>
			<stop  offset="0.1127" style="stop-color:#F8BE9D"/>
			<stop  offset="0.2821" style="stop-color:#FDCCAA"/>
			<stop  offset="0.43" style="stop-color:#FFD1AF"/>
		</linearGradient>
		<path fill="url(#SVGID_8_)" d="M105.198,405.67c1.051,13.167-2.107,46.877-6.322,69.524
			c-14.22,15.273-26.007,28.725-32.653,59.512c36.188-9.997,84.921-24.245,86.729-24.749c-1.08-4.773-20.541-4.743-20.541-4.743
			c9.127-21.772,21.164-66.348,16.852-87.432c-3.217-15.729-20.012-22.945-32.783-23.334
			C111.517,394.083,105.198,399.351,105.198,405.67z"/>
	</g>
	<g>
		<path fill="#944D09" d="M1.44,546.825c18.961-5.266,43.716-13.166,43.716-13.166s8.952-12.643,23.7-25.286
			c15.249-13.071,27.811-19.8,35.287-22.292c37.57,1.753,58.283-1.057,99.016,5.967c19.298,48.748,30.959,112.641,21.069,187.5
			c-2.46,18.61-11.236,38.625-15.802,45.997c-20.365,14.747-65.836,20.019-87.428,18.962c-27.916-2.635-68.821-12.638-81.11-17.558
			C44.102,715.011,53.583,615.117,1.44,546.825z"/>
		<linearGradient id="SVGID_9_" gradientUnits="userSpaceOnUse" x1="11.9971" y1="754.7026" x2="83.1894" y2="665.5085">
			<stop  offset="0.0126" style="stop-color:#FFBD99"/>
			<stop  offset="1" style="stop-color:#E3A586"/>
		</linearGradient>
		<path fill="url(#SVGID_9_)" d="M129.776,734.326c-41.903,0-81.461-15.449-100.423-21.068
			C9.341,693.239-12.781,613.185,8.988,558.059c21.066-18.262,83.954-59.965,94.103-60.392c38.191,1.3,70.592,1.396,107.442,7.724
			c8.957,54.685,4.567,185.391-10.533,214.186C192.979,724.144,160.675,731.516,129.776,734.326z"/>
		<linearGradient id="SVGID_10_" gradientUnits="userSpaceOnUse" x1="142.8652" y1="614.6531" x2="-90.0313" y2="595.5284">
			<stop  offset="0.0126" style="stop-color:#FFBD99"/>
			<stop  offset="1" style="stop-color:#E3A586"/>
		</linearGradient>
		<path fill="url(#SVGID_10_)" d="M178.245,726.618c10.641-2.47,18.657-5.033,21.755-7.042
			c15.101-28.794,19.49-159.5,10.533-214.186c-36.851-6.328-69.251-6.424-107.442-7.724c-10.148,0.428-73.036,42.13-94.103,60.392
			c-19.662,49.858,7.726,125.704,25.633,146.77c12.64,7.373,55.126,22.82,93.048,24.929
			C148.034,730.111,161.937,728.84,178.245,726.618z"/>
		<linearGradient id="SVGID_11_" gradientUnits="userSpaceOnUse" x1="231.6797" y1="590.4702" x2="80.875" y2="619.1954">
			<stop  offset="6.030000e-006" style="stop-color:#F3B190"/>
			<stop  offset="1" style="stop-color:#FFD1AF"/>
		</linearGradient>
		<path fill="url(#SVGID_11_)" d="M210.533,505.391c-36.851-6.328-67.669-14.152-105.862-15.453
			c-0.188,0.009-0.418,0.05-0.635,0.084c-3.268,61.726,39.959,145.987,23.633,193.388c3.514,23.525,3.514,36.867,0.703,46.001
			c10.533,1.047,58.637-3.515,72.683-9.486c3.862-7.724,9.831-22.82,11.938-35.463C219.639,644.58,219.073,557.527,210.533,505.391z
			"/>
		<path fill="#944D09" d="M124.685,559.464c6.145,2.104,81.284-9.834,93.223-9.481c6.321,1.58,17.029,8.248,21.419,10.18
			c5.619,12.643,6.672,40.559,0.703,59.869c-2.107,3.162-4.741,5.794-4.741,5.794s3.687,3.162,3.687,6.844
			c0.876,17.91-3.512,46.177-11.587,50.387c-28.44,8.781-72.33,11.942-86.377,10.533
			C136.798,683.058,126.265,576.318,124.685,559.464z"/>
		<linearGradient id="SVGID_12_" gradientUnits="userSpaceOnUse" x1="302.5703" y1="623.8569" x2="75.5023" y2="628.3093">
			<stop  offset="6.030000e-006" style="stop-color:#F3B190"/>
			<stop  offset="0.1055" style="stop-color:#F4B594"/>
			<stop  offset="0.9989" style="stop-color:#FFD1AF"/>
		</linearGradient>
		<path fill="url(#SVGID_12_)" d="M129.071,692.19c-11.232-18.261-11.232-45.648-10.707-58.992
			c-7.373-17.905-14.57-44.944-9.654-66.711c8.426,0,16.5,2.981,16.5,2.981s48.193-8.429,69.875-8.601
			c6.495,2.546,26.86,5.708,31.601,7.024c7.375,11.851,6.321,32.301,2.107,49.86c-2.808,4.562-16.853,7.724-16.853,7.724
			s7.021,2.104,14.045,2.809c3.512,12.638,2.106,37.924-6.322,48.458C198.598,685.867,141.714,693.239,129.071,692.19z"/>
		<path fill="#944D09" d="M139.081,629.514c-2.459,0.524,0.525,2.108,3.336,2.804c28.789,3.162,70.224-0.696,86.376-4.562
			c1.229-2.629,3.16-6.668,4.038-9.477C217.207,624.247,168.751,629.685,139.081,629.514z"/>
		<path fill="#944D09" d="M129.776,568.245c-1.758-0.353-7.727-3.515-9.131-3.515c0.965,4.038-0.525,10.27,1.053,17.906
			C124.509,575.617,128.722,570.35,129.776,568.245z"/>
		<path fill="#944D09" d="M100.983,487.134c18.961-4.567,76.545-5.62,94.102-4.215c10.27,2.106,28.354,7.02,34.938,11.238
			c7.727,11.146,10.707,53.717,2.28,72.68c-10.445,4.302-32.477,9.128-39.324,9.128c-6.847,0-61.095-3.334-72.157-4.739
			C111.694,562.449,89.222,526.811,100.983,487.134z"/>
		<linearGradient id="SVGID_13_" gradientUnits="userSpaceOnUse" x1="301.2964" y1="534.2427" x2="81.4842" y2="529.796">
			<stop  offset="6.030000e-006" style="stop-color:#F3B190"/>
			<stop  offset="1" style="stop-color:#FFD1AF"/>
		</linearGradient>
		<path fill="url(#SVGID_13_)" d="M196.313,566.836c0,0-71.98,2.104-86.904,1.056c-4.037-14.572-15.098-50.211-1.404-70.225
			c22.123-3.162,76.721-4.567,84.621-2.721c5.794,1.845,22.912,8.16,28.179,11.851c4.74,13.426,0.527,46.344-3.95,54.512
			C211.323,563.414,196.313,566.836,196.313,566.836z"/>
		<linearGradient id="SVGID_14_" gradientUnits="userSpaceOnUse" x1="299.8145" y1="547.0693" x2="185.3142" y2="529.1792">
			<stop  offset="6.030000e-006" style="stop-color:#F3B190"/>
			<stop  offset="1" style="stop-color:#FFD1AF"/>
		</linearGradient>
		<path fill="url(#SVGID_14_)" d="M221.066,504.338c-5.267-3.69-19.224-8.076-28.967-9.658c14.921,14.22,10.71,61.269,4.391,71.803
			c8.954-0.524,19.31-2.81,25.631-4.915C227.388,546.122,227.848,516.625,221.066,504.338z"/>
	</g>
</g>
</svg>
