<?xml version="1.0" encoding="utf-8"?>
<!-- Generator: Adobe Illustrator 15.0.0, SVG Export Plug-In . SVG Version: 6.00 Build 0)  -->
<!DOCTYPE svg PUBLIC "-//W3C//DTD SVG 1.1//EN" "http://www.w3.org/Graphics/SVG/1.1/DTD/svg11.dtd">
<svg version="1.1" id="_x30_1_1_" xmlns="http://www.w3.org/2000/svg" xmlns:xlink="http://www.w3.org/1999/xlink" x="0px" y="0px"
	 width="836.078px" height="1074.405px" viewBox="0 0 836.078 1074.405" enable-background="new 0 0 836.078 1074.405"
	 xml:space="preserve">
<g id="Fluo_x5F_no_x5F_sleeves_4_">
	<g>
		<path fill="#93AB20" d="M143.552,52.601C182.916,44.728,319.604,2.862,328.191,0c27.195,47.232,230.084,305.587,264.437,335.645
			c10.02,107.349,15.744,652.679,15.744,675.581c-2.863,27.195-27.911,57.969-75.144,62.262
			c-94.467,8.588-307.018-44.372-375.721-107.348c17.176-143.848,2.146-422.955-32.205-517.423
			C165.378,418.66,229.431,157.087,143.552,52.601z"/>
		<path fill="#B7D130" d="M511.105,1061.521c-99.008,0-275.093-46.893-340.032-100.649c15.032-137.912,2.723-404.233-30.966-508.667
			c22.782-26.69,45.454-98.096,54.704-175.035c6.568-54.649,10.598-151.406-29.631-216.387
			c45.122-11.405,128.35-36.535,157.343-45.502c41.396,63.552,216.573,285.616,257.701,326.366
			c9.65,116.551,15.174,636.195,15.266,668.864c-2.637,21.737-23.477,46.517-63.427,50.148
			C525.753,1061.233,518.705,1061.521,511.105,1061.521z"/>
		<path fill="#DBF74A" d="M580.223,341.647c-41.128-40.75-216.304-262.813-257.701-326.366
			c-28.993,8.968-112.222,34.098-157.343,45.502c40.229,64.981,36.2,161.738,29.631,216.387c-2.06,17.128-4.786,33.977-8.03,50.124
			c53.704,222.614,66.246,451.907,71.197,680.421c79.866,31.488,184.832,53.806,253.127,53.806c7.6,0,14.648-0.289,20.957-0.863
			c39.95-3.631,60.791-28.41,63.427-50.148C595.397,977.842,589.874,458.198,580.223,341.647z"/>
		<linearGradient id="SVGID_1_" gradientUnits="userSpaceOnUse" x1="-38.1001" y1="559.9541" x2="405.6095" y2="322.3541">
			<stop  offset="0" style="stop-color:#949FA1"/>
			<stop  offset="1" style="stop-color:#B7C6C9"/>
		</linearGradient>
		<path fill="url(#SVGID_1_)" d="M586.848,497.203c-63.276,2.25-126.402,1.708-189.161-2.64
			c-4.793-165.571-24.313-364.937-85.063-477.387c-19.781,6.049-52.2,16.27-83.194,25.227
			c57.824,115.02,64.932,332.399,65.445,441.331c-51.821-7.411-103.312-17.844-154.321-32.083c-0.148,0.181-0.3,0.378-0.448,0.555
			c8.607,26.679,15.815,63.924,21.53,106.894c140.572,36.903,284.243,47.267,427.684,39.173
			C588.563,563.116,587.737,528.927,586.848,497.203z"/>
		<path fill="#868F98" d="M140.555,451.65c-0.148,0.181-0.3,0.378-0.448,0.555c8.607,26.679,15.815,63.924,21.53,106.894
			c23.995,6.298,44.708,10.961,68.867,15.754c-5.367-33.278-9.662-69.24-14.138-104.844
			C190.994,464.728,165.713,458.673,140.555,451.65z"/>
		<linearGradient id="SVGID_2_" gradientUnits="userSpaceOnUse" x1="175.7563" y1="838.7468" x2="594.3506" y2="838.7468">
			<stop  offset="0" style="stop-color:#949FA1"/>
			<stop  offset="1" style="stop-color:#B7C6C9"/>
		</linearGradient>
		<path fill="url(#SVGID_2_)" d="M594.351,902.663c-0.328-26.081-2.692-63.818-3.155-95.401
			c-139.793,11.48-279.415,6.565-415.439-38.644c0.763,33.091,1.1,65.827,0.358,96.255
			C311.215,908.002,453.243,916.75,594.351,902.663z"/>
		<path fill="#868F98" d="M175.756,768.618c0.763,33.091,1.1,65.827,0.358,96.255c25.9,8.267,52.058,15.248,78.413,21.071
			c-1.027-32.148-3.301-64.658-5.237-96.931C224.234,783.3,200.594,776.872,175.756,768.618z"/>
	</g>
	<g>
		<path fill="#93AB20" d="M662.046,33.277c-12.883,83.732-82.3,252.984-99.476,308.091c-2.148,62.262,6.439,638.368,8.588,655.543
			c10.734,25.764,41.508,70.135,86.593,67.989c49.382-6.442,145.997-49.381,167.468-64.41
			c-8.59-109.497-23.619-416.513-8.59-478.776c30.059-103.055,30.059-317.753-34.352-407.926
			C736.12,81.584,683.516,50.454,662.046,33.277z"/>
		<path fill="#DBF74A" d="M654.603,1052.094c-35.73-0.002-61.391-37.129-70.771-58.317c-2.023-36.48-10.557-576.111-8.441-650.231
			c5.053-15.918,14.313-41.169,24.977-70.247c24.579-67.025,57.284-156.211,70.571-217.616
			c11.213,7.697,25.067,16.641,40.221,26.422c19.428,12.542,41.373,26.706,61.887,40.956
			c59.803,86.583,60.318,295.272,31.217,395.049l-0.154,0.583c-15.346,63.565-1.115,358.106,7.67,475.046
			c-28.543,16.615-111.682,52.441-155.155,58.315C655.949,1052.081,655.275,1052.094,654.603,1052.094z"/>
		<linearGradient id="SVGID_3_" gradientUnits="userSpaceOnUse" x1="1277.1694" y1="317.0083" x2="738.9945" y2="331.3198">
			<stop  offset="0" style="stop-color:#949FA1"/>
			<stop  offset="1" style="stop-color:#B7C6C9"/>
		</linearGradient>
		<path fill="url(#SVGID_3_)" d="M781.489,482.906c14.855-118.655,10.088-249.574-14.777-365.896
			c-18.313-12.509-67.416-44.139-72.996-47.771c28.896,153.8,15.709,337.856,8.275,421.08c-42.099,3.407-84.188,5.94-126.215,7.221
			c0.313,31.585,0.703,65.936,1.152,101.375c74.028-3.625,148.023-12.206,221.52-24.665c1.041-24.572,2.855-43.934,5.662-55.558
			l0.154-0.583c3.363-11.53,6.309-24.565,8.834-38.646C802.565,480.653,792.028,481.798,781.489,482.906z"/>
		<linearGradient id="SVGID_4_" gradientUnits="userSpaceOnUse" x1="1098.6426" y1="809.0361" x2="769.4408" y2="834.7997">
			<stop  offset="0" style="stop-color:#949FA1"/>
			<stop  offset="1" style="stop-color:#B7C6C9"/>
		</linearGradient>
		<path fill="url(#SVGID_4_)" d="M801.6,777.921c-62.463,13.058-148.728,25.515-222.568,30.773
			c0.535,32.11,2.154,69.567,2.645,95.161c74.442-6.707,148.883-19.846,222.385-37.737
			C802.704,838.847,802.661,806.754,801.6,777.921z"/>
	</g>
</g>
<g>
	<g>
		<path fill="#944D09" d="M11.448,490.223c6.845-14.749,19.312-51.263,26.684-59.516c4.314-4.826,35.815-30.548,41.787-41.787
			c6.319-10.533,10.006-37.391,12.463-66.712c4.74-19.486,64.281-13.43,67.592,25.635c3.512,41.43-14.396,85.673-23.877,107.44
			C124.509,458.974,19.874,487.061,11.448,490.223z"/>
		<linearGradient id="SVGID_5_" gradientUnits="userSpaceOnUse" x1="50.4839" y1="388.748" x2="113.6868" y2="409.289">
			<stop  offset="0.0126" style="stop-color:#FFBD99"/>
			<stop  offset="1" style="stop-color:#E3A586"/>
		</linearGradient>
		<path fill="url(#SVGID_5_)" d="M31.11,471.789c4.536-12.228,10.158-28.145,14.924-34.763c2.421-3.363,16.928-14.718,24.226-22.119
			c7.907-8.021,14.361-13.053,16.44-15.989c8.842-12.454,15.514-45.107,16.214-72.494c7.374-8.429,41.61-3.69,46.348,19.485
			c4.313,21.084-7.724,65.66-16.852,87.432c0,0,19.461-0.03,20.541,4.743C150.319,438.817,59.877,464.333,31.11,471.789z"/>
		<linearGradient id="SVGID_6_" gradientUnits="userSpaceOnUse" x1="78.4302" y1="388.3848" x2="212.8145" y2="426.7009">
			<stop  offset="6.030000e-006" style="stop-color:#F3B190"/>
			<stop  offset="0.1127" style="stop-color:#F8BE9D"/>
			<stop  offset="0.2821" style="stop-color:#FDCCAA"/>
			<stop  offset="0.43" style="stop-color:#FFD1AF"/>
		</linearGradient>
		<path fill="url(#SVGID_6_)" d="M105.198,333.795c1.052,13.167-2.107,46.877-6.321,69.524
			c-14.22,15.273-26.008,28.725-32.654,59.512c36.188-9.997,84.921-24.245,86.729-24.749c-1.08-4.773-20.541-4.743-20.541-4.743
			c9.128-21.772,21.165-66.348,16.852-87.432c-3.216-15.729-20.012-22.945-32.783-23.334
			C111.517,322.208,105.198,327.476,105.198,333.795z"/>
	</g>
	<g>
		<path fill="#944D09" d="M1.44,474.95c18.961-5.266,43.716-13.166,43.716-13.166s8.952-12.643,23.7-25.286
			c15.249-13.071,27.81-19.8,35.287-22.292c37.57,1.753,58.284-1.057,99.016,5.967c19.298,48.748,30.959,112.641,21.069,187.5
			c-2.46,18.61-11.236,38.625-15.802,45.997c-20.365,14.747-65.835,20.019-87.428,18.962c-27.915-2.635-68.821-12.638-81.11-17.558
			C44.102,643.136,53.583,543.243,1.44,474.95z"/>
		<linearGradient id="SVGID_7_" gradientUnits="userSpaceOnUse" x1="11.9976" y1="682.8281" x2="83.1899" y2="593.634">
			<stop  offset="0.0126" style="stop-color:#FFBD99"/>
			<stop  offset="1" style="stop-color:#E3A586"/>
		</linearGradient>
		<path fill="url(#SVGID_7_)" d="M129.776,662.451c-41.903,0-81.46-15.449-100.422-21.068
			C9.341,621.365-12.781,541.31,8.988,486.185c21.066-18.262,83.955-59.965,94.102-60.392c38.192,1.3,70.593,1.396,107.443,7.724
			c8.957,54.685,4.567,185.391-10.533,214.186C192.979,652.27,160.675,659.641,129.776,662.451z"/>
		<linearGradient id="SVGID_8_" gradientUnits="userSpaceOnUse" x1="142.8652" y1="542.7786" x2="-90.0313" y2="523.6539">
			<stop  offset="0.0126" style="stop-color:#FFBD99"/>
			<stop  offset="1" style="stop-color:#E3A586"/>
		</linearGradient>
		<path fill="url(#SVGID_8_)" d="M178.245,654.744c10.641-2.47,18.658-5.033,21.755-7.042c15.101-28.794,19.49-159.5,10.533-214.186
			c-36.85-6.328-69.25-6.424-107.443-7.724c-10.147,0.428-73.036,42.13-94.102,60.392c-19.662,49.858,7.726,125.704,25.633,146.77
			c12.64,7.373,55.126,22.82,93.048,24.929C148.034,658.237,161.936,656.966,178.245,654.744z"/>
		<linearGradient id="SVGID_9_" gradientUnits="userSpaceOnUse" x1="231.6797" y1="518.5955" x2="80.8744" y2="547.3208">
			<stop  offset="6.030000e-006" style="stop-color:#F3B190"/>
			<stop  offset="1" style="stop-color:#FFD1AF"/>
		</linearGradient>
		<path fill="url(#SVGID_9_)" d="M210.533,433.517c-36.85-6.328-67.669-14.152-105.862-15.453c-0.188,0.009-0.419,0.05-0.636,0.084
			c-3.267,61.726,39.96,145.987,23.634,193.388c3.513,23.525,3.513,36.867,0.702,46.001c10.534,1.047,58.638-3.515,72.683-9.486
			c3.862-7.724,9.831-22.82,11.938-35.463C219.639,572.705,219.073,485.652,210.533,433.517z"/>
		<path fill="#944D09" d="M124.684,487.59c6.146,2.104,81.285-9.834,93.223-9.481c6.321,1.58,17.029,8.248,21.419,10.18
			c5.619,12.643,6.672,40.559,0.703,59.869c-2.107,3.162-4.741,5.794-4.741,5.794s3.687,3.162,3.687,6.844
			c0.876,17.91-3.512,46.177-11.587,50.387c-28.44,8.781-72.33,11.942-86.377,10.533
			C136.798,611.184,126.264,504.443,124.684,487.59z"/>
		<linearGradient id="SVGID_10_" gradientUnits="userSpaceOnUse" x1="302.5698" y1="551.9822" x2="75.5018" y2="556.4345">
			<stop  offset="6.030000e-006" style="stop-color:#F3B190"/>
			<stop  offset="0.1055" style="stop-color:#F4B594"/>
			<stop  offset="0.9989" style="stop-color:#FFD1AF"/>
		</linearGradient>
		<path fill="url(#SVGID_10_)" d="M129.072,620.316c-11.233-18.261-11.233-45.648-10.707-58.992
			c-7.374-17.905-14.571-44.944-9.655-66.711c8.427,0,16.5,2.981,16.5,2.981s48.194-8.429,69.875-8.601
			c6.495,2.546,26.86,5.708,31.601,7.024c7.375,11.851,6.321,32.301,2.107,49.86c-2.808,4.562-16.853,7.724-16.853,7.724
			s7.021,2.104,14.045,2.809c3.512,12.638,2.106,37.924-6.322,48.458C198.598,613.993,141.713,621.365,129.072,620.316z"/>
		<path fill="#944D09" d="M139.082,557.639c-2.459,0.524,0.524,2.108,3.336,2.804c28.789,3.162,70.223-0.696,86.375-4.562
			c1.229-2.629,3.16-6.668,4.038-9.477C217.207,552.372,168.751,557.811,139.082,557.639z"/>
		<path fill="#944D09" d="M129.776,496.371c-1.757-0.353-7.726-3.515-9.13-3.515c0.965,4.038-0.526,10.27,1.052,17.906
			C124.509,503.742,128.721,498.475,129.776,496.371z"/>
		<path fill="#944D09" d="M100.983,415.259c18.961-4.567,76.545-5.62,94.102-4.215c10.27,2.106,28.354,7.02,34.938,11.238
			c7.727,11.146,10.707,53.717,2.28,72.68c-10.445,4.302-32.477,9.128-39.324,9.128c-6.846,0-61.095-3.334-72.157-4.739
			C111.695,490.575,89.221,454.936,100.983,415.259z"/>
		<linearGradient id="SVGID_11_" gradientUnits="userSpaceOnUse" x1="301.2959" y1="462.3677" x2="81.4846" y2="457.921">
			<stop  offset="6.030000e-006" style="stop-color:#F3B190"/>
			<stop  offset="1" style="stop-color:#FFD1AF"/>
		</linearGradient>
		<path fill="url(#SVGID_11_)" d="M196.313,494.962c0,0-71.98,2.104-86.904,1.056c-4.038-14.572-15.098-50.211-1.404-70.225
			c22.122-3.162,76.721-4.567,84.621-2.721c5.794,1.845,22.912,8.16,28.179,11.851c4.74,13.426,0.527,46.344-3.95,54.512
			C211.323,491.54,196.313,494.962,196.313,494.962z"/>
		<linearGradient id="SVGID_12_" gradientUnits="userSpaceOnUse" x1="299.813" y1="475.1943" x2="185.3141" y2="457.3044">
			<stop  offset="6.030000e-006" style="stop-color:#F3B190"/>
			<stop  offset="1" style="stop-color:#FFD1AF"/>
		</linearGradient>
		<path fill="url(#SVGID_12_)" d="M221.066,432.464c-5.267-3.69-19.224-8.076-28.967-9.658c14.921,14.22,10.71,61.269,4.391,71.803
			c8.954-0.524,19.31-2.81,25.631-4.915C227.388,474.247,227.848,444.75,221.066,432.464z"/>
	</g>
</g>
</svg>
