<?xml version="1.0" encoding="UTF-8" standalone="no"?>
<!-- Generator: Adobe Illustrator 15.0.0, SVG Export Plug-In . SVG Version: 6.00 Build 0)  -->

<svg
   xmlns:dc="http://purl.org/dc/elements/1.1/"
   xmlns:cc="http://creativecommons.org/ns#"
   xmlns:rdf="http://www.w3.org/1999/02/22-rdf-syntax-ns#"
   xmlns:svg="http://www.w3.org/2000/svg"
   xmlns="http://www.w3.org/2000/svg"
   xmlns:sodipodi="http://sodipodi.sourceforge.net/DTD/sodipodi-0.dtd"
   xmlns:inkscape="http://www.inkscape.org/namespaces/inkscape"
   version="1.1"
   id="_x30_1_1_"
   x="0px"
   y="0px"
   width="1268.143px"
   height="1155.611px"
   viewBox="0 0 1268.143 1155.611"
   enable-background="new 0 0 1268.143 1155.611"
   xml:space="preserve"
   inkscape:version="0.91 r13725"
   sodipodi:docname="Fluo_Jacket_NH_01.svg"><metadata
     id="metadata322"><rdf:RDF><cc:Work
         rdf:about=""><dc:format>image/svg+xml</dc:format><dc:type
           rdf:resource="http://purl.org/dc/dcmitype/StillImage" /><dc:title></dc:title></cc:Work></rdf:RDF></metadata><defs
     id="defs320" /><sodipodi:namedview
     pagecolor="#ffffff"
     bordercolor="#666666"
     borderopacity="1"
     objecttolerance="10"
     gridtolerance="10"
     guidetolerance="10"
     inkscape:pageopacity="0"
     inkscape:pageshadow="2"
     inkscape:window-width="969"
     inkscape:window-height="480"
     id="namedview318"
     showgrid="false"
     inkscape:zoom="0.20422098"
     inkscape:cx="634.07147"
     inkscape:cy="577.80548"
     inkscape:window-x="9"
     inkscape:window-y="30"
     inkscape:window-maximized="0"
     inkscape:current-layer="_x30_1_1_" /><g
     id="Fluo_x5F_Jacket_7_"><g
       id="g4"><path
         fill="#93AB20"
         d="M380.06,132.576c-37.571,3.221-83.178,24.013-118.082,78.364    C186.832,327.95,71.969,516.885,41.912,561.971c24.689,9.661,263.004,98.761,284.475,104.129    c21.469-35.425,82.659-142.775,95.54-166.391C491.704,377.331,491.704,113.253,380.06,132.576z"
         id="path6" /><path
         fill="#DBF74A"
         d="M320.531,650.813c-42.781-14.242-205.434-74.832-259.118-95.173    c17.014-26.503,45.755-72.84,78.179-125.113c43.957-70.874,93.781-151.205,133.225-212.625    c37.373-58.196,83.924-70.397,108.345-72.489l0.551-0.049l0.547-0.094c3.131-0.543,6.199-0.818,9.119-0.818    c17.205,0,31.002,9.352,42.176,28.588c39.195,67.465,27.465,232.101-22.816,320.29    C398.483,515.784,345.085,609.505,320.531,650.813z"
         id="path8" /><linearGradient
         id="SVGID_1_"
         gradientUnits="userSpaceOnUse"
         x1="153.0176"
         y1="432.6162"
         x2="427.2939"
         y2="432.6162"><stop
           offset="0"
           style="stop-color:#949FA1"
           id="stop11" /><stop
           offset="1"
           style="stop-color:#B7C6C9"
           id="stop13" /></linearGradient><path
         fill="url(#SVGID_1_)"
         d="M410.737,493.329c7.234-12.689,10.955-21.222,16.557-36.56    c-58.508-67.579-136.779-118.174-224.358-130.966c-18.563,29.699-31.662,52.966-49.918,82.391    c86.773,18.159,166.928,69.688,227.042,131.234C394.544,514.006,405.591,502.764,410.737,493.329z"
         id="path15" /></g><g
       id="g17"><g
         id="g19"><g
           id="g21"><path
             fill="#93AB20"
             d="M1082.123,996.734c6.799,41.151,25.049,100.908,27.91,105.202      c44.369,18.605,134.545-3.579,150.289-32.205c-4.293-31.489-7.156-85.164-8.588-96.614      C1215.234,977.411,1114.328,994.588,1082.123,996.734z"
             id="path23" /><path
             fill="#DBF74A"
             d="M1151.02,1095.899c-12.068,0-22.746-1.41-31.252-4.107c-4.531-12.822-15.807-50.855-22.422-83.566      c22.398-2.536,56.426-7.705,89.551-12.734c19.803-3.009,38.789-5.892,53.186-7.876c0.266,3.491,0.555,7.414,0.859,11.549      c1.475,20.074,3.451,46.997,5.973,67.349C1234.861,1080.487,1192.465,1095.899,1151.02,1095.899L1151.02,1095.899z"
             id="path25" /></g><g
           id="g27"><path
             fill="#93AB20"
             d="M1026.303,170.147c57.967,12.883,118.082,55.821,145.992,130.966      c17.176,83.732,42.227,344.233,42.227,362.839c7.154,42.94,60.117,286.265,52.959,346.381      c-15.746,37.213-173.193,65.124-196.094,37.929c-17.174-34.353-47.232-100.908-55.82-122.379      C1017,797.065,1019.146,211.655,1026.303,170.147z"
             id="path29" /><path
             fill="#DBF74A"
             d="M1127.605,1048.501c-28.592,0-41.775-4.753-45.596-7.809c-16.082-32.37-43.885-93.675-53.535-117.249      c0.307-28.543,0.641-76.569,1.061-136.892c1.301-187.213,3.631-522.642,8.201-600.049      c55.383,17.156,100.373,60.396,122.139,118.177c17.152,84.666,41.764,341.335,41.764,359.274v1.065l0.176,1.054      c1.008,6.061,2.828,16.296,5.189,29.58c13.107,73.742,50.896,258.735,46.162,311.818      C1244.078,1022.127,1184.529,1048.501,1127.605,1048.501z"
             id="path31" /><linearGradient
             id="SVGID_2_"
             gradientUnits="userSpaceOnUse"
             x1="1031.1309"
             y1="503.896"
             x2="1189.0566"
             y2="503.896"><stop
               offset="0"
               style="stop-color:#949FA1"
               id="stop34" /><stop
               offset="1"
               style="stop-color:#B7C6C9"
               id="stop36" /></linearGradient><path
             fill="url(#SVGID_2_)"
             d="M1178.736,432.079c-21.877,15.263-95.896,44.371-146.693,47.093      c-0.332,31.872-0.635,64.372-0.912,96.541c55.553-6.898,111.824-17.677,157.926-48.837      C1186.031,498.177,1182.248,461.507,1178.736,432.079z"
             id="path38" /><linearGradient
             id="SVGID_3_"
             gradientUnits="userSpaceOnUse"
             x1="1029.5215"
             y1="912.406"
             x2="1247.6973"
             y2="912.406"><stop
               offset="0"
               style="stop-color:#949FA1"
               id="stop41" /><stop
               offset="1"
               style="stop-color:#B7C6C9"
               id="stop43" /></linearGradient><path
             fill="url(#SVGID_3_)"
             d="M1234.559,841.436c-52.602,29.699-135.129,53.13-205.037,59.758      c-0.096,11.813,14.439,58.186,25.395,82.139c76.586,1.236,152.447-24.527,192.781-53.09      C1244.398,905.588,1239.33,869.232,1234.559,841.436z"
             id="path45" /></g></g><g
         id="g47"><path
           fill="#93AB20"
           d="M435.882,1021.783c8.588,37.214,10.021,62.976,20.041,78.722c80.151,51.528,465.178,78.724,629.778-4.294     c8.588-25.764,11.451-51.527,14.313-72.996C1024.158,1027.51,485.979,1020.353,435.882,1021.783z"
           id="path49" /><path
           fill="#B7D130"
           d="M770.878,1136.29c-131.602,0-261.439-19.261-305.443-45.06c-4.561-8.743-7.108-22.358-10.262-39.207     c-1.018-5.443-2.113-11.291-3.375-17.534c3.028-0.011,6.412-0.018,10.145-0.018c37.948,0,108.14,0.546,189.417,1.177     c111.108,0.861,237.042,1.839,329.895,1.839c48.715,0,83.043-0.271,103.986-0.824c-2.168,15.935-4.916,33.185-10.148,50.408     C1008.688,1118.837,901.013,1136.29,770.878,1136.29z"
           id="path51" /><path
           fill="#DBF74A"
           d="M520.688,1082.613c0,8.589,3.221,18.25,6.067,29.902c61.548,14.409,152.388,23.774,244.123,23.774     c130.135,0,237.81-17.453,304.214-49.219c5.232-17.224,7.98-34.474,10.148-50.408     C858.837,1140.582,557.186,1087.98,520.688,1082.613z"
           id="path53" /><path
           fill="#93AB20"
           d="M808.942,319.602c-38.453-27.944-64.734-69.035-91.62-109.219     c-55.487-31.356-91.193-77.88-124.711-135.775c-45.802,7.872-170.685,40.792-225.433,61.189     c38.647,27.194,107.349,199.669,17.176,373.573c2.146,105.202,8.588,465.894,32.205,532.451     c34.352,25.763,235.452,57.253,433.689,53.674C848.327,951.308,841.233,562.693,808.942,319.602z"
           id="path55" /><path
           fill="#B7D130"
           d="M818.942,1082.892c-189.656-0.002-356.146-28.933-391.518-49.336     c-21.074-71.536-27.73-402.229-29.947-512.339l-0.178-8.854c49.389-97.079,48.799-187.664,39.498-246.796     c-8.691-55.275-27.834-99.723-46.451-124.248c55.648-18.586,149.747-43.428,195.713-52.403     c28.799,48.675,64.101,97.431,122.232,131.142l2.711,4.06c24.621,36.888,50.049,74.984,85.875,102.548     c28.643,220.083,37.549,562.324,40.313,756.134C831.108,1082.86,825.026,1082.892,818.942,1082.892z"
           id="path57" /></g><g
         id="g59"><path
           fill="#93AB20"
           d="M1111.465,1038.958c-7.156-181.778,15.744-630.495-42.225-851.634     c-48.307-35.426-115.221-77.647-140.983-91.603c0.186,25.342-12.842,59.309-32.125,88.432     c-12.363,59.292-34.451,116.998-66.928,168.83c0.844,221.755,17.762,690.244,18.898,742.511     C959.744,1093.348,1087.133,1063.291,1111.465,1038.958z"
           id="path61" /><path
           fill="#DBF74A"
           d="M860.636,1082.257c-0.486-16.748-1.379-44.524-2.508-79.593     c-4.961-154.232-15.242-473.963-16.025-646.031c30.918-50.188,53.156-106.493,66.133-167.449     c15.666-24.166,26.488-49.852,30.811-72.421c30.079,17.901,79.872,49.92,118.874,78.247     c40.918,161.294,39.953,443.917,39.248,650.793c-0.254,74.41-0.477,139.108,1.189,187.285     C1071.393,1051.633,967.268,1078.336,860.636,1082.257z"
           id="path63" /></g><g
         id="g65"><linearGradient
           id="SVGID_4_"
           gradientUnits="userSpaceOnUse"
           x1="684.1143"
           y1="386.2217"
           x2="1020.4774"
           y2="351.8698"><stop
             offset="0"
             style="stop-color:#949FA1"
             id="stop68" /><stop
             offset="1"
             style="stop-color:#B7C6C9"
             id="stop70" /></linearGradient><path
           fill="url(#SVGID_4_)"
           d="M1092.141,480.435c-13.455,2.197-26.938,4.225-40.434,6.176     c-2.232-102.278-9.756-218.691-30.656-317.388c-30.033-20.35-60.91-39.907-82.046-52.482c-0.984,5.084-2.332,10.327-3.943,15.649     c16.751,115.671,36.015,247.349,33.694,364.64c-41.425,4.356-82.966,7.477-124.54,9.24c0.686,33.8,1.502,69.144,2.393,104.946     c83.598-4.462,167.013-15.673,248.935-32.794C1094.76,545.548,1093.67,512.708,1092.141,480.435z"
           id="path72" /><linearGradient
           id="SVGID_5_"
           gradientUnits="userSpaceOnUse"
           x1="411.5518"
           y1="976.3169"
           x2="836.4736"
           y2="976.3169"><stop
             offset="0"
             style="stop-color:#949FA1"
             id="stop75" /><stop
             offset="1"
             style="stop-color:#B7C6C9"
             id="stop77" /></linearGradient><path
           fill="url(#SVGID_5_)"
           d="M836.474,1037.594c-0.529-30.271-1.186-62.662-2.016-96.612     c-141.849,3.268-284.787-2.931-422.906-27.979c1.43,29.343,5.219,65.898,8.229,90.174     C563.137,1036.17,699.96,1043.968,836.474,1037.594z"
           id="path79" /><linearGradient
           id="SVGID_6_"
           gradientUnits="userSpaceOnUse"
           x1="631.0449"
           y1="1003.5811"
           x2="1008.9126"
           y2="973.5234"><stop
             offset="0"
             style="stop-color:#949FA1"
             id="stop82" /><stop
             offset="1"
             style="stop-color:#B7C6C9"
             id="stop84" /></linearGradient><path
           fill="url(#SVGID_6_)"
           d="M1096.996,914.447c-79.553,14.405-160.077,23.042-240.86,25.923     c0.734,23.151,1.412,44.172,1.994,62.338c0.395,12.297,0.762,23.673,1.09,34.017c80.725-3.736,160.923-14.38,238.401-32.075     C1097.113,978.003,1096.975,947.689,1096.996,914.447z"
           id="path86" /><linearGradient
           id="SVGID_7_"
           gradientUnits="userSpaceOnUse"
           x1="397.2998"
           y1="351.5801"
           x2="821.5615"
           y2="351.5801"><stop
             offset="0"
             style="stop-color:#949FA1"
             id="stop89" /><stop
             offset="1"
             style="stop-color:#B7C6C9"
             id="stop91" /></linearGradient><path
           fill="url(#SVGID_7_)"
           d="M814.661,507.313c-54.451,1.462-108.907,0.513-163.192-2.998     C638.94,368.339,627.555,219.285,581.752,89.79c-21.055,4.272-50.506,11.351-81.594,19.521     c23.523,122.298,42.229,259.298,46.838,384.94c-44.111-5.687-88.028-13.172-131.634-22.671     c-5.107,13.418-11.068,27.032-18.063,40.781l0.178,8.854c0.232,11.55,0.514,25.554,0.857,41.405     c136.854,40.049,280.104,55.014,423.227,49.723C819.515,576.756,817.229,541.553,814.661,507.313z"
           id="path93" /><path
           fill="#DBF74A"
           d="M837.19,1082.798c-2.764-193.81-11.67-536.051-40.313-756.134     c-35.826-27.563-61.254-65.66-85.875-102.548l-2.711-4.06C650.16,186.346,614.858,137.59,586.06,88.915     c-45.966,8.976-140.064,33.817-195.713,52.403c18.617,24.525,37.76,68.973,46.451,124.248     c3.836,24.381,6.178,54.117,4.158,87.443c19.805,235.551,12.297,475.568,68.422,703.722     c74.076,14.063,186.95,26.157,309.564,26.159C825.026,1082.892,831.108,1082.86,837.19,1082.798z"
           id="path95" /><linearGradient
           id="SVGID_8_"
           gradientUnits="userSpaceOnUse"
           x1="411.5518"
           y1="976.3169"
           x2="836.4736"
           y2="976.3169"><stop
             offset="0"
             style="stop-color:#949FA1"
             id="stop98" /><stop
             offset="1"
             style="stop-color:#B7C6C9"
             id="stop100" /></linearGradient><path
           fill="url(#SVGID_8_)"
           d="M836.474,1037.594c-0.529-30.271-1.186-62.662-2.016-96.612     c-141.849,3.268-284.787-2.931-422.906-27.979c1.43,29.343,5.219,65.898,8.229,90.174     C563.137,1036.17,699.96,1043.968,836.474,1037.594z"
           id="path102" /><linearGradient
           id="SVGID_9_"
           gradientUnits="userSpaceOnUse"
           x1="397.2998"
           y1="351.5801"
           x2="821.5615"
           y2="351.5801"><stop
             offset="0"
             style="stop-color:#949FA1"
             id="stop105" /><stop
             offset="1"
             style="stop-color:#B7C6C9"
             id="stop107" /></linearGradient><path
           fill="url(#SVGID_9_)"
           d="M814.661,507.313c-54.451,1.462-108.907,0.513-163.192-2.998     C638.94,368.339,627.555,219.285,581.752,89.79c-21.055,4.272-50.506,11.351-81.594,19.521     c23.523,122.298,42.229,259.298,46.838,384.94c-44.111-5.687-88.028-13.172-131.634-22.671     c-5.107,13.418-11.068,27.032-18.063,40.781l0.178,8.854c0.232,11.55,0.514,25.554,0.857,41.405     c136.854,40.049,280.104,55.014,423.227,49.723C819.515,576.756,817.229,541.553,814.661,507.313z"
           id="path109" /><path
           fill="#868F98"
           d="M411.552,913.002c1.43,29.343,5.219,65.898,8.229,90.174c27.221,6.264,54.203,11.61,80.997,16.136     c-6.787-31.481-12.502-63.162-17.313-95.015C459.372,921.049,435.386,917.326,411.552,913.002z"
           id="path111" /><path
           fill="#868F98"
           d="M415.362,471.581c-5.107,13.418-11.068,27.032-18.063,40.781l0.178,8.854     c0.232,11.55,0.514,25.554,0.857,41.405c18.584,5.439,37.297,10.372,56.098,14.899c-1.617-32.987-3.221-65.986-5.029-98.956     C438.036,476.364,426.688,474.048,415.362,471.581z"
           id="path113" /><path
           fill="#93AB20"
           d="M893.905,1143.446c-1.363-85.896-23.713-695.026-28.168-794.902c-5.014-0.407-15.049,2.007-17.205-0.27     c-22.197,41.675-58.77,90.822-59.596,141.987c3.15,164.64,12.533,447.31,16.225,665.349     C838.798,1153.464,861.644,1149.591,893.905,1143.446z"
           id="path115" /><path
           fill="#DBF74A"
           d="M818.044,1142.729c-4.445-251.482-17.713-588.272-17.713-689.18c3.286-7.211,36.805-68.768,55.824-92.108     c0.541,0.026,1.063,0.047,1.58,0.067c8.758,117.503,26.508,659.759,29.012,771.203     C865.995,1137.005,835.242,1140.385,818.044,1142.729z"
           id="path117" /><linearGradient
           id="SVGID_10_"
           gradientUnits="userSpaceOnUse"
           x1="627.5381"
           y1="560.4744"
           x2="851.2596"
           y2="559.0018"><stop
             offset="0"
             style="stop-color:#949FA1"
             id="stop120" /><stop
             offset="1"
             style="stop-color:#B7C6C9"
             id="stop122" /></linearGradient><path
           fill="url(#SVGID_10_)"
           d="M867.065,505.436c-21.455,1.145-45.445,1.366-66.912,1.788     c0.586,29.288,1.367,65.285,2.502,105.56c22.094-0.555,46.275-1.709,68.348-3.22C869.464,572.494,868.53,537.644,867.065,505.436     z"
           id="path124" /><linearGradient
           id="SVGID_11_"
           gradientUnits="userSpaceOnUse"
           x1="693.8037"
           y1="994.7092"
           x2="906.9265"
           y2="986.2408"><stop
             offset="0"
             style="stop-color:#949FA1"
             id="stop127" /><stop
             offset="1"
             style="stop-color:#B7C6C9"
             id="stop129" /></linearGradient><path
           fill="url(#SVGID_11_)"
           d="M881.112,939.84c-23.047,1.178-45.082,1.094-68.168,1.341c0.887,32.516,1.654,65.31,2.416,97.151     c23.354-0.361,45.691-1.435,68.973-2.953C883.401,1006.731,882.335,974.788,881.112,939.84z"
           id="path131" /></g><g
         id="g133"><path
           fill="#93AB20"
           d="M790.134,492.195c-13.959-149.933,118.801-285.551,107.348-392.183c0-21.47-0.713-65.124-0.713-85.162     c37.928,16.459,119.517,71.565,148.14,131.682c-23.975,66.555-117.37,155.655-187.86,236.524     C824.951,419.881,792.636,439.95,790.134,492.195z"
           id="path135" /><path
           fill="#DBF74A"
           d="M800.153,456.055c2.861-52.959,36.656-136.13,62.975-193.106     c26.918-58.269,52.348-113.318,47.234-163.608c-0.008-10.959-0.188-27.33-0.365-43.422c-0.078-6.926-0.154-13.798-0.217-20.162     c38.231,21.226,96.04,64.441,120.888,111.136c-25.861,56.037-98.505,141.166-149.288,193.941     C840.226,383.6,802.692,451.553,800.153,456.055z"
           id="path137" /></g><g
         id="g139"><path
           fill="#1A1A1A"
           d="M836.706,1111.201c-0.076,8.301,6.59,15.091,14.891,15.163c8.301,0.078,15.09-6.589,15.166-14.889     c0.074-8.3-6.59-15.09-14.891-15.167C843.571,1096.233,836.785,1102.9,836.706,1111.201z"
           id="path141" /><path
           fill="#1A1A1A"
           d="M828.782,881.392c-0.074,8.3,6.592,15.088,14.891,15.167c8.303,0.074,15.092-6.592,15.166-14.892     c0.078-8.302-6.588-15.09-14.888-15.166C835.649,866.427,828.862,873.093,828.782,881.392z"
           id="path143" /><path
           fill="#1A1A1A"
           d="M823.242,652.319c-0.079,8.301,6.591,15.092,14.89,15.168c8.301,0.075,15.09-6.591,15.168-14.892     c0.072-8.3-6.592-15.091-14.893-15.165C830.106,637.353,823.317,644.018,823.242,652.319z"
           id="path145" /><circle
           fill="#1A1A1A"
           cx="832.862"
           cy="460.603"
           r="15.03"
           id="circle147" /></g><g
         id="g149"><path
           fill="#808080"
           d="M885.452,280.149c-0.057,6.526,5.184,11.866,11.711,11.927c6.525,0.059,11.865-5.185,11.926-11.711     c0.059-6.526-5.184-11.865-11.707-11.926C890.854,268.381,885.515,273.623,885.452,280.149z"
           id="path151" /><path
           fill="#1A1A1A"
           d="M897.201,287.783c-4.147-0.038-7.491-3.444-7.454-7.597c0.039-4.11,3.414-7.453,7.525-7.453     c4.217,0.037,7.559,3.445,7.521,7.593c-0.037,4.113-3.41,7.457-7.521,7.457H897.201z"
           id="path153" /></g><g
         id="g155"><circle
           fill="#808080"
           cx="980.14"
           cy="146.53"
           r="11.818"
           id="circle157" /><path
           fill="#1A1A1A"
           d="M980.07,154.056c-4.148-0.037-7.492-3.444-7.453-7.596c0.037-4.109,3.412-7.454,7.523-7.454     c4.217,0.038,7.561,3.444,7.523,7.594c-0.039,4.113-3.412,7.456-7.523,7.456H980.07z"
           id="path159" /></g><g
         id="g161"><path
           fill="#C3E02D"
           d="M1088.563,825.69c-2.717,12.882-24.441,79.797-24.441,79.797     c-37.105-41.507-109.744-110.927-139.804-139.552c10.021-20.038,43.448-71.924,46.161-78.365     C1011.988,727.647,1054.213,782.037,1088.563,825.69z"
           id="path163" /><path
           fill="#DBF74A"
           d="M1060.74,888.979c-35.699-38.874-93.059-95.892-123.539-125.191     c5.387-10.286,35.426-61.189,35.426-61.189c36.293,34.943,76.852,87.898,107.348,125.956     C1076.789,840.096,1067.115,870.392,1060.74,888.979z"
           id="path165" /></g><g
         id="g167"><path
           fill="#C3E02D"
           d="M483.83,831.773c4.294,12.882,38.646,75.144,38.646,75.144     c62.263-32.204,171.758-103.055,212.553-137.405c-15.03-30.059-45.088-77.292-49.382-83.733     C608.355,750.188,558.975,784.54,483.83,831.773z"
           id="path169" /><path
           fill="#DBF74A"
           d="M525.944,895.392c-11.199-20.486-25.381-47.156-31.4-60.218c66.732-42.114,116.17-76.244,189.127-136.594     c9.288,14.642,28.248,45.249,40.556,68.696C681.855,801.41,586.015,863.34,525.944,895.392z"
           id="path171" /></g><g
         id="g173"><path
           fill="#93AB20"
           d="M808.022,327.595c-93.034-56.539-299.144-204.681-359.258-245.472     C493.851,47.771,580.264,7.156,632.508,0c0.181,18.07,1.612,91.425,2.327,102.877     C651.653,134.723,731.091,212.014,808.022,327.595z"
           id="path175" /><path
           fill="#DBF74A"
           d="M777.251,297.893C710.288,253.686,605.498,175.98,537.28,128.105     c-25.71-18.042-48.793-34.242-66.012-46.157c40.386-26.88,103.211-56.611,148.299-66.76c0.245,9.022,0.522,20.49,0.809,32.344     c0.616,25.525,1.196,49.636,1.603,56.147l0.172,2.764l1.294,2.448c7.571,14.337,25.201,35.262,49.606,64.225     C697.249,201.835,745.188,254.507,777.251,297.893z"
           id="path177" /></g><g
         id="g179"><circle
           fill="#808080"
           cx="515.646"
           cy="85.955"
           r="11.819"
           id="circle181" /><path
           fill="#1A1A1A"
           d="M515.576,93.481c-4.147-0.038-7.492-3.444-7.454-7.596c0.038-4.109,3.413-7.454,7.524-7.454     c4.217,0.038,7.561,3.445,7.523,7.595c-0.037,4.11-3.412,7.455-7.523,7.455H515.576z"
           id="path183" /></g></g></g><g
     id="g291"><g
       id="g293"><path
         fill="#93AB20"
         d="M0.047,613.498c-1.877-26.793,53.674-112.716,123.449-122.376c48.092-6.659,104.496,16.246,128.819,33.276    c10.97,7.681,18.249,18.25,16.103,23.618c-42.939,33.278-41.865,157.265-1.074,200.205    C239.434,760.031,15.074,828.196,0.047,613.498z"
         id="path295" /><path
         fill="#B7D130"
         d="M159.748,754.914c-90.834,0-140.242-47.881-146.852-142.314c-1.268-18.084,46.919-99.657,112.367-108.718    c5.078-0.703,10.48-1.06,16.053-1.06c42.053,0,85.867,19.706,103.611,32.13c4.451,3.115,7.428,6.297,9.17,8.625    c-22.023,22.51-28.145,60.687-29.811,82.607c-2.832,37.264,3.291,84.261,22.219,115.629    C227.059,747.633,194.639,754.914,159.748,754.914z"
         id="path297" /><path
         fill="#DBF74A"
         d="M233.561,712.293c-8.676-27.447-11.313-59.286-9.273-86.109c1.666-21.919,7.787-60.097,29.811-82.607    c-1.742-2.328-4.719-5.51-9.17-8.625c-17.744-12.424-61.559-32.13-103.611-32.13c-5.572,0-10.975,0.356-16.053,1.06    C59.815,512.943,11.629,594.516,12.896,612.6c0.156,2.226,0.359,4.4,0.561,6.576c8.807,21.413,21.098,41.134,35.969,57.658    C99.15,723.007,169.438,725.096,233.561,712.293z"
         id="path299" /><linearGradient
         id="SVGID_22_"
         gradientUnits="userSpaceOnUse"
         x1="111.2178"
         y1="833.9661"
         x2="122.0353"
         y2="515.9349"><stop
           offset="0"
           style="stop-color:#949FA1"
           id="stop302" /><stop
           offset="1"
           style="stop-color:#B7C6C9"
           id="stop304" /></linearGradient><path
         fill="url(#SVGID_22_)"
         d="M100.953,530.84C38,576.625,27.211,662.609,60.876,726.215    c22.175,18.766,52.884,27.781,90.173,29.343c-9.203-11.265-18.498-24.12-24.332-35.783    C96.66,655.366,96.66,573.78,165.363,526.546c9.891-5.77,21.801-10.443,32.205-14.313c-13.592-4.339-29.355-8.865-44.373-10.018    C135.541,508.854,117.545,518.771,100.953,530.84z"
         id="path306" /><path
         fill="#868F98"
         d="M43.328,669.647c2.35,19.686,8.24,38.983,17.548,56.568c22.175,18.766,52.884,27.781,90.173,29.343    c-9.203-11.265-18.498-24.12-24.332-35.783c-0.803-1.724-1.574-3.465-2.336-5.208c-27.43-5.766-53.171-17.503-74.955-37.732    C47.334,674.51,45.316,672.094,43.328,669.647z"
         id="path308" /></g><g
       id="g310"><path
         fill="#93AB20"
         d="M317.798,741.959c-30.594-21.471-46.875-141.969-16.102-202.8c-9.84-0.717-34.353-4.024-45.804-4.742    c-5.727-1.253-18.068,2.596-20.934,5.727c-54.252,59.297-46.16,166.753,5.803,205.159c2.609,1.931,8.33,3.456,14.773,4.17    C269.132,748.4,308.137,744.106,317.798,741.959z"
         id="path312" /><path
         fill="#B7D130"
         d="M255.786,736.529c-4.353-0.573-6.87-1.426-7.626-1.776c-20.252-15.131-34.137-44.495-37.174-78.639    c-3.627-40.807,8.625-80.569,32.797-106.549c1.857-1.023,6.717-2.514,9.474-2.514c7.03,1.472,17.814,1.954,28.248,2.42    c0.393,0.017,0.786,0.033,1.179,0.051c-18.905,56.503-10.433,141.454,11.59,182.884    C280.704,734.079,264.417,735.806,255.786,736.529z"
         id="path314" /><path
         fill="#DBF74A"
         d="M284.521,549.895c-0.393-0.019-22.411-3.598-30.059-3.758c-4.161-0.377-8.05,1.074-10.679,3.429    c-24.172,25.98-36.424,65.741-32.797,106.549c2.072,23.302,9.205,44.369,19.957,60.213c18.145-1.621,36.513-3.156,54.844-3.955    C270.411,667.469,268.292,598.398,284.521,549.895z"
         id="path316" /></g></g></svg>