<?xml version="1.0" encoding="UTF-8" standalone="no"?>
<!-- Generator: Adobe Illustrator 15.0.0, SVG Export Plug-In . SVG Version: 6.00 Build 0)  -->

<svg
   xmlns:dc="http://purl.org/dc/elements/1.1/"
   xmlns:cc="http://creativecommons.org/ns#"
   xmlns:rdf="http://www.w3.org/1999/02/22-rdf-syntax-ns#"
   xmlns:svg="http://www.w3.org/2000/svg"
   xmlns="http://www.w3.org/2000/svg"
   xmlns:sodipodi="http://sodipodi.sourceforge.net/DTD/sodipodi-0.dtd"
   xmlns:inkscape="http://www.inkscape.org/namespaces/inkscape"
   version="1.1"
   id="_x30_1_1_"
   x="0px"
   y="0px"
   width="1248.111px"
   height="1003.844px"
   viewBox="0 0 1248.111 1003.844"
   enable-background="new 0 0 1248.111 1003.844"
   xml:space="preserve"
   inkscape:version="0.91 r13725"
   sodipodi:docname="Fluo_Tshirt_Long_NH_01.svg"><metadata
     id="metadata199"><rdf:RDF><cc:Work
         rdf:about=""><dc:format>image/svg+xml</dc:format><dc:type
           rdf:resource="http://purl.org/dc/dcmitype/StillImage" /><dc:title></dc:title></cc:Work></rdf:RDF></metadata><defs
     id="defs197" /><sodipodi:namedview
     pagecolor="#ffffff"
     bordercolor="#666666"
     borderopacity="1"
     objecttolerance="10"
     gridtolerance="10"
     guidetolerance="10"
     inkscape:pageopacity="0"
     inkscape:pageshadow="2"
     inkscape:window-width="969"
     inkscape:window-height="480"
     id="namedview195"
     showgrid="false"
     inkscape:zoom="0.22594145"
     inkscape:cx="624.05548"
     inkscape:cy="501.922"
     inkscape:window-x="9"
     inkscape:window-y="30"
     inkscape:window-maximized="0"
     inkscape:current-layer="_x30_1_1_" /><g
     id="Fluo_x5F_Tshirt_x5F_Long_3_"><g
       id="g4"><path
         fill="#93AB20"
         d="M1062.756,127.386c44.549,9.483,102.34,76.934,105.201,147.067c1.432,67.271,13.598,288.055,15.029,328.13    c31.488,97.33,55.105,148.143,65.125,382.879c-35.426,12.881-114.455,12.893-139.553,7.873    c-36.867-90.401-89.746-215.872-95.898-347.812C1001.379,403.525,1061.83,154.248,1062.756,127.386z"
         id="path6" /><path
         fill="#B7D130"
         d="M1167.854,987.95c-20.115,0-37.25-1.189-47.951-2.602c-37.234-91.368-86.32-214.426-92.227-341.14    c-8.83-189.388,27.193-386.423,42.574-470.56c2.156-11.785,3.822-20.95,5.037-28.062c36.574,20.757,79.646,72.379,81.945,128.676    c0.924,43.432,6.424,152.88,10.441,232.796c2.191,43.571,4.082,81.197,4.586,95.268l0.064,1.797c0,0,4.281,13.19,6.1,18.76    c27.951,85.669,47.98,145.928,57.521,356.852C1219.678,983.725,1195.791,987.95,1167.854,987.95z"
         id="path8" /><path
         fill="#DBF74A"
         d="M1235.945,979.736c-9.541-210.924-29.57-271.183-57.521-356.852c-1.818-5.57-6.1-18.76-6.1-18.76    l-0.064-1.797c-0.504-14.071-2.395-51.698-4.586-95.268c-4.018-79.916-9.518-189.365-10.441-232.796    c-2.299-56.297-45.371-107.919-81.945-128.676c-1.215,7.111-2.881,16.276-5.037,28.062    c-8.707,47.638-8.174,116.812-18.229,214.953c7.408,70.256,5.01,200.386,28.627,281.971    c8.588,101.624,35.781,206.109,74.66,317.212c4.031,0.101,8.201,0.166,12.545,0.166    C1195.791,987.95,1219.678,983.725,1235.945,979.736z"
         id="path10" /><linearGradient
         id="SVGID_1_"
         gradientUnits="userSpaceOnUse"
         x1="1026.332"
         y1="524.6008"
         x2="1169.9746"
         y2="524.6008"><stop
           offset="0"
           style="stop-color:#949FA1"
           id="stop13" /><stop
           offset="1"
           style="stop-color:#B7C6C9"
           id="stop15" /></linearGradient><path
         fill="url(#SVGID_1_)"
         d="M1165.875,471.211c-44.736,10.315-90.578,16.481-136.725,19.022    c-1.674,28.797-2.705,58.193-2.818,87.758c48.418-5.166,96.568-13.335,143.643-24.986c-0.688-13.832-1.473-29.458-2.301-45.946    C1167.1,495.623,1166.494,483.573,1165.875,471.211z"
         id="path17" /><linearGradient
         id="SVGID_2_"
         gradientUnits="userSpaceOnUse"
         x1="1045.6816"
         y1="788.426"
         x2="1223.7148"
         y2="788.426"><stop
           offset="0"
           style="stop-color:#949FA1"
           id="stop20" /><stop
           offset="1"
           style="stop-color:#B7C6C9"
           id="stop22" /></linearGradient><path
         fill="url(#SVGID_2_)"
         d="M1045.682,767.472c6.701,28.588,14.773,56.472,23.533,83.258    c53.225-4.315,104.197-16.934,154.5-32.349c-4.42-36.746-9.574-66.256-15.418-92.259    C1154.822,744.419,1101.004,760.14,1045.682,767.472z"
         id="path24" /><path
         fill="#868F98"
         d="M1045.682,767.472c6.701,28.588,14.773,56.472,23.533,83.258c13.861-1.124,27.564-2.834,41.148-4.988    c-7.225-28.622-13.295-57.371-18.334-86.377C1076.68,762.625,1061.246,765.408,1045.682,767.472z"
         id="path26" /></g><g
       id="g28"><g
         id="T_shirt_long_HV_3_"><g
           id="g31"><path
             fill="#93AB20"
             d="M379.302,70.849C422.241,62.262,612.963,10.734,624.771,0C682.739,90.172,882.054,102.696,900.3,13.596      c33.279,26.837,133.472,92.679,177.483,117.369c11.283,20.64,1.518,49.984,7.516,78.364      c24.313,74.604,28.273,191.262-13.238,338.149c-6.131,192.287,10.496,360.955,13.238,398.264      c-18.609,45.802-388.247,111.643-600.081-17.175c5.724-52.958,32.563-188.575,13.955-310.238      C427.608,498.097,328.848,312.385,379.302,70.849z"
             id="path33" /><path
             fill="#B7D130"
             d="M811.841,990.603c-87.475,0-211.317-12.14-309.984-69.2c1.009-7.999,2.345-17.436,3.826-27.917      c9.335-65.975,22.266-175.549,6.752-276.969l-0.38-2.482l-1.283-2.158c-59.974-100.759-168.346-288.196-120.87-531.298      c42.965-9.729,185.233-46.055,230.58-64.395c37.72,48.331,110.807,70.092,169.404,70.092      c58.184,0,101.693-19.956,118.955-53.243c39.429,30.847,115.179,87.095,158.604,106.863      c50.057,98.417,41.74,228.85-7.781,404.078l-0.43,1.518l-0.051,1.575c-5.389,168.988,13.969,392.331,14.307,396.528      C1059.373,959.618,954.691,990.603,811.841,990.603z"
             id="path35" /><path
             fill="#DBF74A"
             d="M1059.184,547.068l0.051-1.575l0.43-1.518c49.521-175.229,63.924-302.8,7.781-404.078      C1024.02,120.128,948.27,63.88,908.841,33.033c-17.262,33.287-60.771,53.243-118.955,53.243      c-58.598,0-131.685-21.761-169.404-70.092c-38.786,15.688-148.435,44.519-206.244,58.626      c-1.453,89.566,7.467,179.073,36.629,266.558c30.058,94.467,107.349,167.465,128.818,270.52      c26.549,117.567-3.828,228.435-8.332,341.482c82.897,29.911,172.633,37.232,240.488,37.232      c142.851,0,247.532-30.984,261.649-47.007C1073.152,939.398,1053.795,716.056,1059.184,547.068z"
             id="path37" /><g
             id="g39"><path
               fill="#93AB20"
               d="M784.923,127.048c-1.148,0-2.297-0.006-3.459-0.019c-97.918-1.101-195.215-77.092-198.538-106.27       l6.399-0.729c3.057,26.831,99.239,99.514,192.211,100.558c93.42,1.016,142.953-43.818,148.148-76.016l6.355,1.027       C930.923,77.332,885.362,127.048,784.923,127.048z"
               id="path41" /></g><path
             fill="#B7D130"
             d="M463.749,416.513c77.291,89.458,324.193,133.112,412.219,122.378      c-118.084,42.939-280.539,33.637-323.479,31.49C513.843,516.706,478.776,437.982,463.749,416.513z"
             id="path43" /><linearGradient
             id="SVGID_3_"
             gradientUnits="userSpaceOnUse"
             x1="270.875"
             y1="370.4507"
             x2="820.5002"
             y2="287.4337"><stop
               offset="0"
               style="stop-color:#949FA1"
               id="stop46" /><stop
               offset="1"
               style="stop-color:#B7C6C9"
               id="stop48" /></linearGradient><path
             fill="url(#SVGID_3_)"
             d="M1064.582,449.994c5.359-117.388,6.59-260.012-25.443-325.826      c-27.322-16.158-59.191-39.034-87.311-59.76c33.045,82.162,30.193,254.469,27.27,393.792      c-91.243,5.562-211.062,4.771-329.076-6.53c-3.923-144.385-25.082-340.027-81.786-418.751      c-26.913,8.055-58.477,16.457-88.386,24.333c59.76,117.446,65.041,273.297,67.664,381.67      c-47.14-7.349-92.458-16.686-133.815-28.313c13.053,38.811,28.49,74.122,44.15,105.69      c192.998,52.752,469.195,61.495,603.478,24.023c9.266-32.973,17.221-63.697,23.436-93.573      C1078.523,447.883,1071.768,448.965,1064.582,449.994z"
             id="path50" /><linearGradient
             id="SVGID_4_"
             gradientUnits="userSpaceOnUse"
             x1="514.8564"
             y1="794.709"
             x2="1065.707"
             y2="794.709"><stop
               offset="0"
               style="stop-color:#949FA1"
               id="stop53" /><stop
               offset="1"
               style="stop-color:#B7C6C9"
               id="stop55" /></linearGradient><path
             fill="url(#SVGID_4_)"
             d="M518.854,719.596c0.002,30.822-1.621,60.796-3.998,88.432      c161.74,74.383,404.318,82.296,550.851,20.033c-1.563-26.684-3.184-56.542-4.428-87.891      C935.681,794.918,652.979,779.356,518.854,719.596z"
             id="path57" /><path
             fill="#868F98"
             d="M518.854,719.596c0.002,30.822-1.621,60.796-3.998,88.432c21.213,9.755,43.857,18.331,67.479,25.778      c2.265-29.836,4.985-60.041,6.809-90.227C562.998,736.664,539.185,728.653,518.854,719.596z"
             id="path59" /><path
             fill="#868F98"
             d="M651.025,552.169c-42.394-11.609-81.078-26.714-116.631-46.444      c-15.329-24.692-29.118-50.261-41.921-76.519c-27.4-5.412-53.824-11.582-78.775-18.598c13.053,38.811,28.49,74.122,44.15,105.69      c30.799,8.418,63.769,15.697,97.955,21.847c-0.013-0.018-0.024-0.037-0.04-0.056      C586.062,543.817,617.673,548.317,651.025,552.169z"
             id="path61" /></g></g><g
         id="g63"><path
           fill="#93AB20"
           d="M70.852,461.6c63.336,17.176,249.05,77.291,270.52,81.585c13.955-31.131,99.835-158.877,105.202-327.772     c18.606-77.292,24.33-118.082,25.763-138.837c-81.585-48.666-173.905,15.743-207.542,91.604     C224.719,244.039,82.66,428.321,70.852,461.6z"
           id="path65" /><path
           fill="#DBF74A"
           d="M334.496,528.126c-19.948-5.589-63.938-19.251-106.734-32.544     c-48.891-15.184-103.395-32.114-138.229-42.122c12.104-20.05,37.953-56.249,63.129-91.502     c46.609-65.266,104.598-146.467,128.303-196.231c28.511-53.836,83.346-94.878,136.624-94.878c14.766,0,47.299-1.931,61.188,3.221     c-2.298,22.116-8.655,48.254-24.689,114.863l-3.221,27.911C429.396,325.267,367.692,467.15,341.397,515.36     C338.735,520.242,336.434,524.463,334.496,528.126z"
           id="path67" /><linearGradient
           id="SVGID_5_"
           gradientUnits="userSpaceOnUse"
           x1="176.5898"
           y1="342.1294"
           x2="412.8799"
           y2="342.1294"><stop
             offset="0"
             style="stop-color:#949FA1"
             id="stop70" /><stop
             offset="1"
             style="stop-color:#B7C6C9"
             id="stop72" /></linearGradient><path
           fill="url(#SVGID_5_)"
           d="M176.59,326.876c73.419,18.55,145.816,52.558,206.935,97.6     c9.77-23.453,19.863-49.263,29.355-75.873c-53.974-44.655-121.271-76.734-189.593-88.819     C208.432,281.853,192.211,304.846,176.59,326.876z"
           id="path74" /></g></g></g><g
     id="g182"><path
       fill="#93AB20"
       d="M117.369,418.659C68.293,428.201,2.863,500.244,0,543.184c7.16,47.233,27.197,93.034,84.451,124.525   c65.838,27.195,217.56-5.725,230.44-8.588c-24.331-20.041-54.389-103.055-21.469-191.796   c-21.471-4.295-50.161-10.118-68.704-20.038C191.838,429.7,168.896,408.642,117.369,418.659z"
       id="path184" /><path
       fill="#DBF74A"
       d="M157.543,665.519c-29.223,0-51.936-3.18-67.527-9.453c-44.797-24.843-68.613-59.864-77.049-113.333   c3.713-35.75,62.932-102.888,106.863-111.43c8.145-1.582,15.566-2.354,22.68-2.354c24.545,0,41.137,9.632,60.348,20.785   c5.041,2.925,10.25,5.949,15.785,8.911c16.275,8.706,38.511,14.272,57.921,18.385c-21.942,72.287-5.934,139.303,15.096,173.698   c-29.504,5.651-84.837,14.79-134.11,14.79C157.543,665.519,157.549,665.519,157.543,665.519z"
       id="path186" /><linearGradient
       id="SVGID_16_"
       gradientUnits="userSpaceOnUse"
       x1="152.3018"
       y1="778.6995"
       x2="137.2349"
       y2="402.0249"><stop
         offset="0"
         style="stop-color:#949FA1"
         id="stop189" /><stop
         offset="1"
         style="stop-color:#B7C6C9"
         id="stop191" /></linearGradient><path
       fill="url(#SVGID_16_)"
       d="M90.174,500.244c-22.805,51.314-17.316,118.919,16.641,161.56   c14.027,3.233,63.871,5.905,77.85,2.887c-24.025-48.145-24.545-112.351-8.611-160.153c7.139-18.563,17.621-36.637,30.775-52.513   c-6.084-5.456-30.775-22.631-55.42-22.633C124.576,446.35,102.592,470.753,90.174,500.244z"
       id="path193" /></g></svg>