<?xml version="1.0" encoding="UTF-8" standalone="no"?>
<!-- Generator: Adobe Illustrator 15.0.0, SVG Export Plug-In . SVG Version: 6.00 Build 0)  -->

<svg
   xmlns:dc="http://purl.org/dc/elements/1.1/"
   xmlns:cc="http://creativecommons.org/ns#"
   xmlns:rdf="http://www.w3.org/1999/02/22-rdf-syntax-ns#"
   xmlns:svg="http://www.w3.org/2000/svg"
   xmlns="http://www.w3.org/2000/svg"
   xmlns:sodipodi="http://sodipodi.sourceforge.net/DTD/sodipodi-0.dtd"
   xmlns:inkscape="http://www.inkscape.org/namespaces/inkscape"
   version="1.1"
   id="_x30_1_1_"
   x="0px"
   y="0px"
   width="836.078px"
   height="1074.405px"
   viewBox="0 0 836.078 1074.405"
   enable-background="new 0 0 836.078 1074.405"
   xml:space="preserve"
   inkscape:version="0.91 r13725"
   sodipodi:docname="Fluo_no_sleeves_NH_01.svg"><metadata
     id="metadata134"><rdf:RDF><cc:Work
         rdf:about=""><dc:format>image/svg+xml</dc:format><dc:type
           rdf:resource="http://purl.org/dc/dcmitype/StillImage" /><dc:title></dc:title></cc:Work></rdf:RDF></metadata><defs
     id="defs132" /><sodipodi:namedview
     pagecolor="#ffffff"
     bordercolor="#666666"
     borderopacity="1"
     objecttolerance="10"
     gridtolerance="10"
     guidetolerance="10"
     inkscape:pageopacity="0"
     inkscape:pageshadow="2"
     inkscape:window-width="969"
     inkscape:window-height="480"
     id="namedview130"
     showgrid="false"
     inkscape:zoom="0.21965646"
     inkscape:cx="418.039"
     inkscape:cy="537.20251"
     inkscape:window-x="0"
     inkscape:window-y="21"
     inkscape:window-maximized="0"
     inkscape:current-layer="_x30_1_1_" /><g
     id="Fluo_x5F_no_x5F_sleeves_4_"><g
       id="g4"><path
         fill="#93AB20"
         d="M143.552,52.601C182.916,44.728,319.604,2.862,328.191,0c27.195,47.232,230.084,305.587,264.437,335.645    c10.02,107.349,15.744,652.679,15.744,675.581c-2.863,27.195-27.911,57.969-75.144,62.262    c-94.467,8.588-307.018-44.372-375.721-107.348c17.176-143.848,2.146-422.955-32.205-517.423    C165.378,418.66,229.431,157.087,143.552,52.601z"
         id="path6" /><path
         fill="#B7D130"
         d="M511.105,1061.521c-99.008,0-275.093-46.893-340.032-100.649c15.032-137.912,2.723-404.233-30.966-508.667    c22.782-26.69,45.454-98.096,54.704-175.035c6.568-54.649,10.598-151.406-29.631-216.387    c45.122-11.405,128.35-36.535,157.343-45.502c41.396,63.552,216.573,285.616,257.701,326.366    c9.65,116.551,15.174,636.195,15.266,668.864c-2.637,21.737-23.477,46.517-63.427,50.148    C525.753,1061.233,518.705,1061.521,511.105,1061.521z"
         id="path8" /><path
         fill="#DBF74A"
         d="M580.223,341.647c-41.128-40.75-216.304-262.813-257.701-326.366    c-28.993,8.968-112.222,34.098-157.343,45.502c40.229,64.981,36.2,161.738,29.631,216.387c-2.06,17.128-4.786,33.977-8.03,50.124    c53.704,222.614,66.246,451.907,71.197,680.421c79.866,31.488,184.832,53.806,253.127,53.806c7.6,0,14.648-0.289,20.957-0.863    c39.95-3.631,60.791-28.41,63.427-50.148C595.397,977.842,589.874,458.198,580.223,341.647z"
         id="path10" /><linearGradient
         id="SVGID_1_"
         gradientUnits="userSpaceOnUse"
         x1="-38.1001"
         y1="559.9541"
         x2="405.6095"
         y2="322.3541"><stop
           offset="0"
           style="stop-color:#949FA1"
           id="stop13" /><stop
           offset="1"
           style="stop-color:#B7C6C9"
           id="stop15" /></linearGradient><path
         fill="url(#SVGID_1_)"
         d="M586.848,497.203c-63.276,2.25-126.402,1.708-189.161-2.64    c-4.793-165.571-24.313-364.937-85.063-477.387c-19.781,6.049-52.2,16.27-83.194,25.227    c57.824,115.02,64.932,332.399,65.445,441.331c-51.821-7.411-103.312-17.844-154.321-32.083c-0.148,0.181-0.3,0.378-0.448,0.555    c8.607,26.679,15.815,63.924,21.53,106.894c140.572,36.903,284.243,47.267,427.684,39.173    C588.563,563.116,587.737,528.927,586.848,497.203z"
         id="path17" /><path
         fill="#868F98"
         d="M140.555,451.65c-0.148,0.181-0.3,0.378-0.448,0.555c8.607,26.679,15.815,63.924,21.53,106.894    c23.995,6.298,44.708,10.961,68.867,15.754c-5.367-33.278-9.662-69.24-14.138-104.844    C190.994,464.728,165.713,458.673,140.555,451.65z"
         id="path19" /><linearGradient
         id="SVGID_2_"
         gradientUnits="userSpaceOnUse"
         x1="175.7563"
         y1="838.7468"
         x2="594.3506"
         y2="838.7468"><stop
           offset="0"
           style="stop-color:#949FA1"
           id="stop22" /><stop
           offset="1"
           style="stop-color:#B7C6C9"
           id="stop24" /></linearGradient><path
         fill="url(#SVGID_2_)"
         d="M594.351,902.663c-0.328-26.081-2.692-63.818-3.155-95.401    c-139.793,11.48-279.415,6.565-415.439-38.644c0.763,33.091,1.1,65.827,0.358,96.255    C311.215,908.002,453.243,916.75,594.351,902.663z"
         id="path26" /><path
         fill="#868F98"
         d="M175.756,768.618c0.763,33.091,1.1,65.827,0.358,96.255c25.9,8.267,52.058,15.248,78.413,21.071    c-1.027-32.148-3.301-64.658-5.237-96.931C224.234,783.3,200.594,776.872,175.756,768.618z"
         id="path28" /></g><g
       id="g30"><path
         fill="#93AB20"
         d="M662.046,33.277c-12.883,83.732-82.3,252.984-99.476,308.091c-2.148,62.262,6.439,638.368,8.588,655.543    c10.734,25.764,41.508,70.135,86.593,67.989c49.382-6.442,145.997-49.381,167.468-64.41    c-8.59-109.497-23.619-416.513-8.59-478.776c30.059-103.055,30.059-317.753-34.352-407.926    C736.12,81.584,683.516,50.454,662.046,33.277z"
         id="path32" /><path
         fill="#DBF74A"
         d="M654.603,1052.094c-35.73-0.002-61.391-37.129-70.771-58.317c-2.023-36.48-10.557-576.111-8.441-650.231    c5.053-15.918,14.313-41.169,24.977-70.247c24.579-67.025,57.284-156.211,70.571-217.616    c11.213,7.697,25.067,16.641,40.221,26.422c19.428,12.542,41.373,26.706,61.887,40.956    c59.803,86.583,60.318,295.272,31.217,395.049l-0.154,0.583c-15.346,63.565-1.115,358.106,7.67,475.046    c-28.543,16.615-111.682,52.441-155.155,58.315C655.949,1052.081,655.275,1052.094,654.603,1052.094z"
         id="path34" /><linearGradient
         id="SVGID_3_"
         gradientUnits="userSpaceOnUse"
         x1="1277.1694"
         y1="317.0083"
         x2="738.9945"
         y2="331.3198"><stop
           offset="0"
           style="stop-color:#949FA1"
           id="stop37" /><stop
           offset="1"
           style="stop-color:#B7C6C9"
           id="stop39" /></linearGradient><path
         fill="url(#SVGID_3_)"
         d="M781.489,482.906c14.855-118.655,10.088-249.574-14.777-365.896    c-18.313-12.509-67.416-44.139-72.996-47.771c28.896,153.8,15.709,337.856,8.275,421.08c-42.099,3.407-84.188,5.94-126.215,7.221    c0.313,31.585,0.703,65.936,1.152,101.375c74.028-3.625,148.023-12.206,221.52-24.665c1.041-24.572,2.855-43.934,5.662-55.558    l0.154-0.583c3.363-11.53,6.309-24.565,8.834-38.646C802.565,480.653,792.028,481.798,781.489,482.906z"
         id="path41" /><linearGradient
         id="SVGID_4_"
         gradientUnits="userSpaceOnUse"
         x1="1098.6426"
         y1="809.0361"
         x2="769.4408"
         y2="834.7997"><stop
           offset="0"
           style="stop-color:#949FA1"
           id="stop44" /><stop
           offset="1"
           style="stop-color:#B7C6C9"
           id="stop46" /></linearGradient><path
         fill="url(#SVGID_4_)"
         d="M801.6,777.921c-62.463,13.058-148.728,25.515-222.568,30.773    c0.535,32.11,2.154,69.567,2.645,95.161c74.442-6.707,148.883-19.846,222.385-37.737    C802.704,838.847,802.661,806.754,801.6,777.921z"
         id="path48" /></g></g></svg>