<?xml version="1.0" encoding="UTF-8" standalone="no"?>
<!-- Generator: Adobe Illustrator 15.0.0, SVG Export Plug-In . SVG Version: 6.00 Build 0)  -->

<svg
   xmlns:dc="http://purl.org/dc/elements/1.1/"
   xmlns:cc="http://creativecommons.org/ns#"
   xmlns:rdf="http://www.w3.org/1999/02/22-rdf-syntax-ns#"
   xmlns:svg="http://www.w3.org/2000/svg"
   xmlns="http://www.w3.org/2000/svg"
   xmlns:sodipodi="http://sodipodi.sourceforge.net/DTD/sodipodi-0.dtd"
   xmlns:inkscape="http://www.inkscape.org/namespaces/inkscape"
   version="1.1"
   id="_x30_1_1_"
   x="0px"
   y="0px"
   width="843.999px"
   height="1127.013px"
   viewBox="0 0 843.999 1127.013"
   enable-background="new 0 0 843.999 1127.013"
   xml:space="preserve"
   inkscape:version="0.91 r13725"
   sodipodi:docname="Fluo_Warmer_NH_01.svg"><metadata
     id="metadata196"><rdf:RDF><cc:Work
         rdf:about=""><dc:format>image/svg+xml</dc:format><dc:type
           rdf:resource="http://purl.org/dc/dcmitype/StillImage" /><dc:title></dc:title></cc:Work></rdf:RDF></metadata><defs
     id="defs194" /><sodipodi:namedview
     pagecolor="#ffffff"
     bordercolor="#666666"
     borderopacity="1"
     objecttolerance="10"
     gridtolerance="10"
     guidetolerance="10"
     inkscape:pageopacity="0"
     inkscape:pageshadow="2"
     inkscape:window-width="969"
     inkscape:window-height="480"
     id="namedview192"
     showgrid="false"
     inkscape:zoom="0.2094031"
     inkscape:cx="421.99951"
     inkscape:cy="563.50647"
     inkscape:window-x="9"
     inkscape:window-y="30"
     inkscape:window-maximized="0"
     inkscape:current-layer="_x30_1_1_" /><g
     id="g3"><g
       id="g5"><g
         id="g7"><g
           id="g9"><path
             fill="#93AB20"
             d="M161.767,998.317c8.439,36.849,9.795,62.351,19.717,77.962c79.566,51.206,457.123,82.135,621.041,0.434      c12.234-8.374,20.215-56.321,23.123-77.561C750.2,1003.196,211.591,997.043,161.767,998.317z"
             id="path11" /><path
             fill="#B7D130"
             d="M494.589,1112.548c-130.87-0.362-259.932-19.771-303.624-45.424      c-4.509-8.663-7.007-22.146-10.095-38.825c-0.998-5.386-2.074-11.178-3.309-17.361c3.01,0,6.379,0,10.086,0.013      c37.741,0.104,107.536,0.834,188.362,1.679c110.487,1.151,235.722,2.468,328.059,2.719c48.442,0.136,82.581-0.04,103.411-0.534      c-2.201,15.767-4.98,32.829-10.229,49.856C731.129,1095.923,624.003,1112.904,494.589,1112.548z"
             id="path13" /><path
             fill="#DBF74A"
             d="M245.938,1058.747c-0.025,8.497,3.151,18.069,5.952,29.606c61.166,14.426,151.474,23.943,242.699,24.194      c129.414,0.357,236.541-16.624,302.662-47.877c9.707-14.541,10.313-35.706,10.229-49.856      C582.048,1117.033,282.219,1064.157,245.938,1058.747z"
             id="path15" /></g><polygon
           fill="#333333"
           points="563.829,1067.748 564.37,1111.713 584.454,1110.084 582.825,1067.204    "
           id="polygon17" /></g><polygon
         fill="#333333"
         points="564.37,1105.742 558.556,1126.547 589.339,1123.66 583.368,1104.661   "
         id="polygon19" /></g><g
       id="g21"><g
         id="Fluo_body-warmer_4_"><g
           id="g24"><path
             fill="#93AB20"
             d="M100.253,117.251c10.313-4.342,210.788-57.832,218.938-59.348      c16.496,35.889,83.078,127.146,187.18,144.332c27.307,137.496,76.232,633.409,71.68,869.983      c-126.289,10.11-369.778-6.644-423.518-47.354c-6.514-5.97-9.488-18.533-10.313-25.513      c-14.414-122.232-27.76-370.085-26.598-517.318c39.082-87.933,40.168-230.16-10.857-346.864      C104.919,130.94,94.823,121.055,100.253,117.251z"
             id="path26" /><path
             fill="#B7D130"
             d="M169.19,1018.894c-8.143-4.343-9.627-17.398-10.313-23.347      c-14.133-121.77-28.156-366.447-27.143-513.514c35.484-81.836,45.6-230.16-14.113-357.18      c40.625-11.086,161.822-44.439,195.209-53.072c10.745,19.707,30.915,48.002,58.977,74.054      c37.351,34.677,88.123,56.819,132.307,65.87c13.439,72.117,34.49,223.802,48.855,386.496      c16.586,187.863,14.555,357.321,13.309,462.866C538.44,1065.691,282.234,1068.407,169.19,1018.894z"
             id="path28" /><linearGradient
             id="SVGID_1_"
             gradientUnits="userSpaceOnUse"
             x1="150.7705"
             y1="372.3101"
             x2="444.6168"
             y2="350.3813"><stop
               offset="0"
               style="stop-color:#949FA1"
               id="stop31" /><stop
               offset="1"
               style="stop-color:#B7C6C9"
               id="stop33" /></linearGradient><path
             fill="url(#SVGID_1_)"
             d="M547.331,530.817c-54.045,2.682-109.39,3.887-164.104,3.719      c-6.134-148.039-49.56-371.684-96.246-456.364c-20.962,5.694-89.834,24.356-94.45,25.507      c54.283,104.226,81.81,314.041,85.767,426.121c-56.614-0.256-98.793,2.176-147.104-1.627      c-0.277,22.665,2.17,76.676,2.711,91.737c100.121,12.141,286.568,13.024,420.061,6.283      C553.21,593.836,551.31,560.135,547.331,530.817z"
             id="path35" /><linearGradient
             id="SVGID_2_"
             gradientUnits="userSpaceOnUse"
             x1="140.4189"
             y1="854.3936"
             x2="589.9209"
             y2="854.3936"><stop
               offset="0"
               style="stop-color:#949FA1"
               id="stop38" /><stop
               offset="1"
               style="stop-color:#B7C6C9"
               id="stop40" /></linearGradient><path
             fill="url(#SVGID_2_)"
             d="M589.921,910.826c-0.346-24.558-2.807-70.091-3.299-99.836      c-80.188,4.193-306.549,11.619-446.203-18.458c0,4.211,7.057,87.937,7.6,93.909      C253.328,916.299,480.229,922.268,589.921,910.826z"
             id="path42" /><path
             fill="#DBF74A"
             d="M552.97,598.202c-14.365-162.694-35.416-314.379-48.855-386.496      c-44.184-9.051-94.956-31.193-132.307-65.87c-28.062-26.052-48.231-54.347-58.977-74.054      c-33.387,8.633-154.584,41.986-195.209,53.072c34.998,74.45,46.002,156.213,41.975,227.622      c6.963,139.194,15.559,278.017,26.418,418.344c3.259,53.196,6.517,105.305,16.289,159.591c1.084,5.429,2.17,10.859,3.259,16.283      c5.287,30.229,9.533,63.078,21.874,90.88c125.482,29.992,315.113,27.438,338.842,23.494      C567.524,955.522,569.556,786.064,552.97,598.202z"
             id="path44" /><linearGradient
             id="SVGID_3_"
             gradientUnits="userSpaceOnUse"
             x1="150.563"
             y1="373.7271"
             x2="444.7239"
             y2="351.7747"><stop
               offset="0"
               style="stop-color:#949FA1"
               id="stop47" /><stop
               offset="1"
               style="stop-color:#B7C6C9"
               id="stop49" /></linearGradient><path
             fill="url(#SVGID_3_)"
             d="M547.331,530.817c-54.045,2.682-109.39,3.887-164.104,3.719      c-6.134-148.039-49.56-371.684-96.246-456.364c-20.962,5.694-89.834,24.356-94.45,25.507      c54.283,104.226,81.81,314.041,85.767,426.121c-56.614-0.256-98.793,2.176-147.104-1.627c-0.277,22.665,2.17,81.38,2.711,96.447      c100.121,12.126,287.021,11.079,420.51,4.343C553.659,596.607,551.31,560.135,547.331,530.817z"
             id="path51" /><linearGradient
             id="SVGID_4_"
             gradientUnits="userSpaceOnUse"
             x1="140.4189"
             y1="854.3936"
             x2="589.9209"
             y2="854.3936"><stop
               offset="0"
               style="stop-color:#949FA1"
               id="stop54" /><stop
               offset="1"
               style="stop-color:#B7C6C9"
               id="stop56" /></linearGradient><path
             fill="url(#SVGID_4_)"
             d="M589.921,910.826c-0.346-24.558-2.807-70.091-3.299-99.836      c-80.188,4.193-306.549,11.619-446.203-18.458c0,4.211,7.057,87.937,7.6,93.909      C253.328,916.299,480.229,922.268,589.921,910.826z"
             id="path58" /><path
             fill="#868F98"
             d="M131.194,528.173c-0.277,22.665,2.17,81.38,2.711,96.447c12.652,1.531,26.693,2.851,41.832,3.979      c-2.217-32.88-4.318-65.722-6.316-98.537C156.854,529.771,144.245,529.199,131.194,528.173z"
             id="path60" /><path
             fill="#868F98"
             d="M140.419,792.532c0,4.211,7.057,87.937,7.6,93.909c14.303,4.053,30.865,7.664,49.055,10.855      c-4.469-32.427-7.047-64.307-9.162-96.356C171.284,798.529,155.353,795.744,140.419,792.532z"
             id="path62" /></g><g
           id="g64"><path
             fill="#93AB20"
             d="M661.669,92.033c-6.826,83.919-71.674,98.071-112.635,110.203      c-0.979,25.246,7.111,185.559,11.379,362.957c5.645,234.614,8.186,497.986,9.484,507.196      c94.048-2.691,230.242-31.118,261.654-50.657c11.402-10.856,10.352-29.831,9.775-42.339      c-5.434-116.708,0.176-368.742,1.627-433.152c1.445-64.417,8.695-292.696-50.482-377.798      C743.549,138.116,684.424,108.21,661.669,92.033z"
             id="path66" /><path
             fill="#DBF74A"
             d="M582.771,1059.733c-4.727-96.295-30.656-759.231-30.32-855.474      c38.32-10.947,86.748-34.584,102.393-103.124c11.698,7.107,43.284,27.94,58.878,36.891      c20.592,11.809,49.297,27.146,71.037,40.568c50.5,88.311,47.225,295.84,44.51,361.523      c-2.711,65.591-2.713,330.036-1.084,448.378c0.145,10.521-2.715,23.883-21.172,30.939      C770.616,1035.699,669.244,1055.382,582.771,1059.733z"
             id="path68" /><linearGradient
             id="SVGID_5_"
             gradientUnits="userSpaceOnUse"
             x1="317.6738"
             y1="366.2031"
             x2="792.1014"
             y2="375.9183"><stop
               offset="0"
               style="stop-color:#949FA1"
               id="stop71" /><stop
               offset="1"
               style="stop-color:#B7C6C9"
               id="stop73" /></linearGradient><path
             fill="url(#SVGID_5_)"
             d="M788.252,515.516c2.475-100.792-7.836-267.984-26.834-350.492      c-19.412-11.787-74.428-44.894-80.34-48.312c22.797,141.673,24.967,327.325,22.908,405.96      c-47.981,3.615-96.167,6.405-141.866,7.64c0.328,29.751,4.123,64.545,4.6,97.924c112.05-4.876,216.732-16.092,261.285-22.801      c1.105-23.139,2.17-73.097,2.531-93.724C819.51,512.817,799.538,514.451,788.252,515.516z"
             id="path75" /><linearGradient
             id="SVGID_6_"
             gradientUnits="userSpaceOnUse"
             x1="218.5415"
             y1="886.0249"
             x2="963.7185"
             y2="827.5796"><stop
               offset="0"
               style="stop-color:#949FA1"
               id="stop78" /><stop
               offset="1"
               style="stop-color:#B7C6C9"
               id="stop80" /></linearGradient><path
             fill="url(#SVGID_6_)"
             d="M827.098,783.844c-73.168,10.992-174.671,24.56-255.669,27.146      c0.564,30.243,4.543,76.859,5.063,100.964c75.635-4.341,175.519-14.471,251.148-32.297      C828.184,854.143,827.098,799.587,827.098,783.844z"
             id="path82" /></g></g><g
         id="g84"><path
           fill="#93AB20"
           d="M512.63,219.423c-3.813-39.094-13.52-70.774-14.559-77.846c-3.119-15.168-29.822-25.433-48.863-33.367     c-66.86-27.86-89.484-72.38-92.473-87.579c-1.684-8.567,0.813-20.354-1.354-20.631c-13.031,10.136-34.056,50.583-42.378,66.76     C314.895,92.639,399.991,206.284,512.63,219.423z"
           id="path86" /><path
           fill="#DBF74A"
           d="M501.886,212.012c-99.121-6.405-171.21-88.636-175.932-143.482c1.852-3.941,13.05-26.095,23.183-38.398     c6.244,25.512,29.634,61.927,95.157,89.229l2.204,0.922c12.794,5.312,36.358,13.036,38.407,21.294     C487.329,146.296,499.05,185.504,501.886,212.012z"
           id="path88" /></g><g
         id="g90"><path
           fill="#93AB20"
           d="M544.485,218.076c-0.379-23.592-2.648-87.632,1.137-92.675c4.551-6.07,32.994-14.83,47.025-28.984     c21.131-21.319,25.047-38.006,26.184-70.358c18.205-4.046,38.285,58.897,47.39,76.087     C665.086,117.309,632.659,194.316,544.485,218.076z"
           id="path92" /><path
           fill="#DBF74A"
           d="M555.864,208.98c-0.377-20.898-2.275-73.471,1.898-76.163c10.617-5.057,32.598-16.05,40.197-23.593     c16.92-16.807,27.158-37.08,30.336-58.304c6.701,12.255,24.615,54.268,26.547,58.304     C658.257,138.542,630.95,192.129,555.864,208.98z"
           id="path94" /></g><g
         id="g96"><g
           id="g98"><path
             fill="#333333"
             d="M563.829,1073.715c-0.066-3.858-5.811-392.276-16.658-514.284l18.145-1.275      c10.896,122.514,18.525,510.069,18.596,513.93L563.829,1073.715z"
             id="path100" /></g><g
           id="g102"><path
             fill="#333333"
             d="M547.929,569.369c-1.365-10.42-4.555-36.059-8.697-69.349      c-12.539-100.722-35.877-288.208-40.152-305.687l8.893-1.719c4.381,17.893,26.865,198.568,40.305,306.521      c4.141,33.266,7.332,58.885,8.691,69.296L547.929,569.369z"
             id="path104" /></g><g
           id="g106"><path
             fill="#333333"
             d="M566.104,567.215h-9.104c0-10.951-2.299-74.087-4.955-147.186      c-3.676-101.14-7.846-215.775-7.176-227.103l9.09,0.426c-0.65,10.986,3.691,130.435,7.188,226.419      C563.804,492.941,566.104,556.135,566.104,567.215z"
             id="path108" /></g><path
           fill="#333333"
           d="M575.22,607.414c1.555,6.527-3.313,11.961-10.82,12.075l-6.268,0.094     c-7.506,0.111-13.289-5.245-12.852-11.909l2.395-36.435c0.434-6.663,4.244-11.997,8.473-11.858     c4.225,0.138,8.949,5.596,10.51,12.122L575.22,607.414z"
           id="path110" /></g></g></g></svg>