<?xml version="1.0" encoding="utf-8"?>
<!-- Generator: Adobe Illustrator 15.0.0, SVG Export Plug-In . SVG Version: 6.00 Build 0)  -->
<!DOCTYPE svg PUBLIC "-//W3C//DTD SVG 1.1//EN" "http://www.w3.org/Graphics/SVG/1.1/DTD/svg11.dtd">
<svg version="1.1" id="_x30_1_1_" xmlns="http://www.w3.org/2000/svg" xmlns:xlink="http://www.w3.org/1999/xlink" x="0px" y="0px"
	 width="1268.143px" height="1155.611px" viewBox="0 0 1268.143 1155.611" enable-background="new 0 0 1268.143 1155.611"
	 xml:space="preserve">
<g id="Fluo_x5F_Jacket_7_">
	<g>
		<path fill="#93AB20" d="M380.06,132.576c-37.571,3.221-83.178,24.013-118.082,78.364
			C186.832,327.95,71.969,516.885,41.912,561.971c24.689,9.661,263.004,98.761,284.475,104.129
			c21.469-35.425,82.659-142.775,95.54-166.391C491.704,377.331,491.704,113.253,380.06,132.576z"/>
		<path fill="#DBF74A" d="M320.531,650.813c-42.781-14.242-205.434-74.832-259.118-95.173
			c17.014-26.503,45.755-72.84,78.179-125.113c43.957-70.874,93.781-151.205,133.225-212.625
			c37.373-58.196,83.924-70.397,108.345-72.489l0.551-0.049l0.547-0.094c3.131-0.543,6.199-0.818,9.119-0.818
			c17.205,0,31.002,9.352,42.176,28.588c39.195,67.465,27.465,232.101-22.816,320.29
			C398.483,515.784,345.085,609.505,320.531,650.813z"/>
		<linearGradient id="SVGID_1_" gradientUnits="userSpaceOnUse" x1="153.0176" y1="432.6162" x2="427.2939" y2="432.6162">
			<stop  offset="0" style="stop-color:#949FA1"/>
			<stop  offset="1" style="stop-color:#B7C6C9"/>
		</linearGradient>
		<path fill="url(#SVGID_1_)" d="M410.737,493.329c7.234-12.689,10.955-21.222,16.557-36.56
			c-58.508-67.579-136.779-118.174-224.358-130.966c-18.563,29.699-31.662,52.966-49.918,82.391
			c86.773,18.159,166.928,69.688,227.042,131.234C394.544,514.006,405.591,502.764,410.737,493.329z"/>
	</g>
	<g>
		<g>
			<g>
				<path fill="#93AB20" d="M1082.123,996.734c6.799,41.151,25.049,100.908,27.91,105.202
					c44.369,18.605,134.545-3.579,150.289-32.205c-4.293-31.489-7.156-85.164-8.588-96.614
					C1215.234,977.411,1114.328,994.588,1082.123,996.734z"/>
				<path fill="#DBF74A" d="M1151.02,1095.899c-12.068,0-22.746-1.41-31.252-4.107c-4.531-12.822-15.807-50.855-22.422-83.566
					c22.398-2.536,56.426-7.705,89.551-12.734c19.803-3.009,38.789-5.892,53.186-7.876c0.266,3.491,0.555,7.414,0.859,11.549
					c1.475,20.074,3.451,46.997,5.973,67.349C1234.861,1080.487,1192.465,1095.899,1151.02,1095.899L1151.02,1095.899z"/>
			</g>
			<g>
				<path fill="#93AB20" d="M1026.303,170.147c57.967,12.883,118.082,55.821,145.992,130.966
					c17.176,83.732,42.227,344.233,42.227,362.839c7.154,42.94,60.117,286.265,52.959,346.381
					c-15.746,37.213-173.193,65.124-196.094,37.929c-17.174-34.353-47.232-100.908-55.82-122.379
					C1017,797.065,1019.146,211.655,1026.303,170.147z"/>
				<path fill="#DBF74A" d="M1127.605,1048.501c-28.592,0-41.775-4.753-45.596-7.809c-16.082-32.37-43.885-93.675-53.535-117.249
					c0.307-28.543,0.641-76.569,1.061-136.892c1.301-187.213,3.631-522.642,8.201-600.049
					c55.383,17.156,100.373,60.396,122.139,118.177c17.152,84.666,41.764,341.335,41.764,359.274v1.065l0.176,1.054
					c1.008,6.061,2.828,16.296,5.189,29.58c13.107,73.742,50.896,258.735,46.162,311.818
					C1244.078,1022.127,1184.529,1048.501,1127.605,1048.501z"/>
				<linearGradient id="SVGID_2_" gradientUnits="userSpaceOnUse" x1="1031.1309" y1="503.896" x2="1189.0566" y2="503.896">
					<stop  offset="0" style="stop-color:#949FA1"/>
					<stop  offset="1" style="stop-color:#B7C6C9"/>
				</linearGradient>
				<path fill="url(#SVGID_2_)" d="M1178.736,432.079c-21.877,15.263-95.896,44.371-146.693,47.093
					c-0.332,31.872-0.635,64.372-0.912,96.541c55.553-6.898,111.824-17.677,157.926-48.837
					C1186.031,498.177,1182.248,461.507,1178.736,432.079z"/>
				<linearGradient id="SVGID_3_" gradientUnits="userSpaceOnUse" x1="1029.5215" y1="912.406" x2="1247.6973" y2="912.406">
					<stop  offset="0" style="stop-color:#949FA1"/>
					<stop  offset="1" style="stop-color:#B7C6C9"/>
				</linearGradient>
				<path fill="url(#SVGID_3_)" d="M1234.559,841.436c-52.602,29.699-135.129,53.13-205.037,59.758
					c-0.096,11.813,14.439,58.186,25.395,82.139c76.586,1.236,152.447-24.527,192.781-53.09
					C1244.398,905.588,1239.33,869.232,1234.559,841.436z"/>
			</g>
		</g>
		<g>
			<path fill="#93AB20" d="M435.882,1021.783c8.588,37.214,10.021,62.976,20.041,78.722c80.151,51.528,465.178,78.724,629.778-4.294
				c8.588-25.764,11.451-51.527,14.313-72.996C1024.158,1027.51,485.979,1020.353,435.882,1021.783z"/>
			<path fill="#B7D130" d="M770.878,1136.29c-131.602,0-261.439-19.261-305.443-45.06c-4.561-8.743-7.108-22.358-10.262-39.207
				c-1.018-5.443-2.113-11.291-3.375-17.534c3.028-0.011,6.412-0.018,10.145-0.018c37.948,0,108.14,0.546,189.417,1.177
				c111.108,0.861,237.042,1.839,329.895,1.839c48.715,0,83.043-0.271,103.986-0.824c-2.168,15.935-4.916,33.185-10.148,50.408
				C1008.688,1118.837,901.013,1136.29,770.878,1136.29z"/>
			<path fill="#DBF74A" d="M520.688,1082.613c0,8.589,3.221,18.25,6.067,29.902c61.548,14.409,152.388,23.774,244.123,23.774
				c130.135,0,237.81-17.453,304.214-49.219c5.232-17.224,7.98-34.474,10.148-50.408
				C858.837,1140.582,557.186,1087.98,520.688,1082.613z"/>
			<path fill="#93AB20" d="M808.942,319.602c-38.453-27.944-64.734-69.035-91.62-109.219
				c-55.487-31.356-91.193-77.88-124.711-135.775c-45.802,7.872-170.685,40.792-225.433,61.189
				c38.647,27.194,107.349,199.669,17.176,373.573c2.146,105.202,8.588,465.894,32.205,532.451
				c34.352,25.763,235.452,57.253,433.689,53.674C848.327,951.308,841.233,562.693,808.942,319.602z"/>
			<path fill="#B7D130" d="M818.942,1082.892c-189.656-0.002-356.146-28.933-391.518-49.336
				c-21.074-71.536-27.73-402.229-29.947-512.339l-0.178-8.854c49.389-97.079,48.799-187.664,39.498-246.796
				c-8.691-55.275-27.834-99.723-46.451-124.248c55.648-18.586,149.747-43.428,195.713-52.403
				c28.799,48.675,64.101,97.431,122.232,131.142l2.711,4.06c24.621,36.888,50.049,74.984,85.875,102.548
				c28.643,220.083,37.549,562.324,40.313,756.134C831.108,1082.86,825.026,1082.892,818.942,1082.892z"/>
		</g>
		<g>
			<path fill="#93AB20" d="M1111.465,1038.958c-7.156-181.778,15.744-630.495-42.225-851.634
				c-48.307-35.426-115.221-77.647-140.983-91.603c0.186,25.342-12.842,59.309-32.125,88.432
				c-12.363,59.292-34.451,116.998-66.928,168.83c0.844,221.755,17.762,690.244,18.898,742.511
				C959.744,1093.348,1087.133,1063.291,1111.465,1038.958z"/>
			<path fill="#DBF74A" d="M860.636,1082.257c-0.486-16.748-1.379-44.524-2.508-79.593
				c-4.961-154.232-15.242-473.963-16.025-646.031c30.918-50.188,53.156-106.493,66.133-167.449
				c15.666-24.166,26.488-49.852,30.811-72.421c30.079,17.901,79.872,49.92,118.874,78.247
				c40.918,161.294,39.953,443.917,39.248,650.793c-0.254,74.41-0.477,139.108,1.189,187.285
				C1071.393,1051.633,967.268,1078.336,860.636,1082.257z"/>
		</g>
		<g>
			<linearGradient id="SVGID_4_" gradientUnits="userSpaceOnUse" x1="684.1143" y1="386.2217" x2="1020.4774" y2="351.8698">
				<stop  offset="0" style="stop-color:#949FA1"/>
				<stop  offset="1" style="stop-color:#B7C6C9"/>
			</linearGradient>
			<path fill="url(#SVGID_4_)" d="M1092.141,480.435c-13.455,2.197-26.938,4.225-40.434,6.176
				c-2.232-102.278-9.756-218.691-30.656-317.388c-30.033-20.35-60.91-39.907-82.046-52.482c-0.984,5.084-2.332,10.327-3.943,15.649
				c16.751,115.671,36.015,247.349,33.694,364.64c-41.425,4.356-82.966,7.477-124.54,9.24c0.686,33.8,1.502,69.144,2.393,104.946
				c83.598-4.462,167.013-15.673,248.935-32.794C1094.76,545.548,1093.67,512.708,1092.141,480.435z"/>
			<linearGradient id="SVGID_5_" gradientUnits="userSpaceOnUse" x1="411.5518" y1="976.3169" x2="836.4736" y2="976.3169">
				<stop  offset="0" style="stop-color:#949FA1"/>
				<stop  offset="1" style="stop-color:#B7C6C9"/>
			</linearGradient>
			<path fill="url(#SVGID_5_)" d="M836.474,1037.594c-0.529-30.271-1.186-62.662-2.016-96.612
				c-141.849,3.268-284.787-2.931-422.906-27.979c1.43,29.343,5.219,65.898,8.229,90.174
				C563.137,1036.17,699.96,1043.968,836.474,1037.594z"/>
			<linearGradient id="SVGID_6_" gradientUnits="userSpaceOnUse" x1="631.0449" y1="1003.5811" x2="1008.9126" y2="973.5234">
				<stop  offset="0" style="stop-color:#949FA1"/>
				<stop  offset="1" style="stop-color:#B7C6C9"/>
			</linearGradient>
			<path fill="url(#SVGID_6_)" d="M1096.996,914.447c-79.553,14.405-160.077,23.042-240.86,25.923
				c0.734,23.151,1.412,44.172,1.994,62.338c0.395,12.297,0.762,23.673,1.09,34.017c80.725-3.736,160.923-14.38,238.401-32.075
				C1097.113,978.003,1096.975,947.689,1096.996,914.447z"/>
			<linearGradient id="SVGID_7_" gradientUnits="userSpaceOnUse" x1="397.2998" y1="351.5801" x2="821.5615" y2="351.5801">
				<stop  offset="0" style="stop-color:#949FA1"/>
				<stop  offset="1" style="stop-color:#B7C6C9"/>
			</linearGradient>
			<path fill="url(#SVGID_7_)" d="M814.661,507.313c-54.451,1.462-108.907,0.513-163.192-2.998
				C638.94,368.339,627.555,219.285,581.752,89.79c-21.055,4.272-50.506,11.351-81.594,19.521
				c23.523,122.298,42.229,259.298,46.838,384.94c-44.111-5.687-88.028-13.172-131.634-22.671
				c-5.107,13.418-11.068,27.032-18.063,40.781l0.178,8.854c0.232,11.55,0.514,25.554,0.857,41.405
				c136.854,40.049,280.104,55.014,423.227,49.723C819.515,576.756,817.229,541.553,814.661,507.313z"/>
			<path fill="#DBF74A" d="M837.19,1082.798c-2.764-193.81-11.67-536.051-40.313-756.134
				c-35.826-27.563-61.254-65.66-85.875-102.548l-2.711-4.06C650.16,186.346,614.858,137.59,586.06,88.915
				c-45.966,8.976-140.064,33.817-195.713,52.403c18.617,24.525,37.76,68.973,46.451,124.248
				c3.836,24.381,6.178,54.117,4.158,87.443c19.805,235.551,12.297,475.568,68.422,703.722
				c74.076,14.063,186.95,26.157,309.564,26.159C825.026,1082.892,831.108,1082.86,837.19,1082.798z"/>
			<linearGradient id="SVGID_8_" gradientUnits="userSpaceOnUse" x1="411.5518" y1="976.3169" x2="836.4736" y2="976.3169">
				<stop  offset="0" style="stop-color:#949FA1"/>
				<stop  offset="1" style="stop-color:#B7C6C9"/>
			</linearGradient>
			<path fill="url(#SVGID_8_)" d="M836.474,1037.594c-0.529-30.271-1.186-62.662-2.016-96.612
				c-141.849,3.268-284.787-2.931-422.906-27.979c1.43,29.343,5.219,65.898,8.229,90.174
				C563.137,1036.17,699.96,1043.968,836.474,1037.594z"/>
			<linearGradient id="SVGID_9_" gradientUnits="userSpaceOnUse" x1="397.2998" y1="351.5801" x2="821.5615" y2="351.5801">
				<stop  offset="0" style="stop-color:#949FA1"/>
				<stop  offset="1" style="stop-color:#B7C6C9"/>
			</linearGradient>
			<path fill="url(#SVGID_9_)" d="M814.661,507.313c-54.451,1.462-108.907,0.513-163.192-2.998
				C638.94,368.339,627.555,219.285,581.752,89.79c-21.055,4.272-50.506,11.351-81.594,19.521
				c23.523,122.298,42.229,259.298,46.838,384.94c-44.111-5.687-88.028-13.172-131.634-22.671
				c-5.107,13.418-11.068,27.032-18.063,40.781l0.178,8.854c0.232,11.55,0.514,25.554,0.857,41.405
				c136.854,40.049,280.104,55.014,423.227,49.723C819.515,576.756,817.229,541.553,814.661,507.313z"/>
			<path fill="#868F98" d="M411.552,913.002c1.43,29.343,5.219,65.898,8.229,90.174c27.221,6.264,54.203,11.61,80.997,16.136
				c-6.787-31.481-12.502-63.162-17.313-95.015C459.372,921.049,435.386,917.326,411.552,913.002z"/>
			<path fill="#868F98" d="M415.362,471.581c-5.107,13.418-11.068,27.032-18.063,40.781l0.178,8.854
				c0.232,11.55,0.514,25.554,0.857,41.405c18.584,5.439,37.297,10.372,56.098,14.899c-1.617-32.987-3.221-65.986-5.029-98.956
				C438.036,476.364,426.688,474.048,415.362,471.581z"/>
			<path fill="#93AB20" d="M893.905,1143.446c-1.363-85.896-23.713-695.026-28.168-794.902c-5.014-0.407-15.049,2.007-17.205-0.27
				c-22.197,41.675-58.77,90.822-59.596,141.987c3.15,164.64,12.533,447.31,16.225,665.349
				C838.798,1153.464,861.644,1149.591,893.905,1143.446z"/>
			<path fill="#DBF74A" d="M818.044,1142.729c-4.445-251.482-17.713-588.272-17.713-689.18c3.286-7.211,36.805-68.768,55.824-92.108
				c0.541,0.026,1.063,0.047,1.58,0.067c8.758,117.503,26.508,659.759,29.012,771.203
				C865.995,1137.005,835.242,1140.385,818.044,1142.729z"/>
			<linearGradient id="SVGID_10_" gradientUnits="userSpaceOnUse" x1="627.5381" y1="560.4744" x2="851.2596" y2="559.0018">
				<stop  offset="0" style="stop-color:#949FA1"/>
				<stop  offset="1" style="stop-color:#B7C6C9"/>
			</linearGradient>
			<path fill="url(#SVGID_10_)" d="M867.065,505.436c-21.455,1.145-45.445,1.366-66.912,1.788
				c0.586,29.288,1.367,65.285,2.502,105.56c22.094-0.555,46.275-1.709,68.348-3.22C869.464,572.494,868.53,537.644,867.065,505.436
				z"/>
			<linearGradient id="SVGID_11_" gradientUnits="userSpaceOnUse" x1="693.8037" y1="994.7092" x2="906.9265" y2="986.2408">
				<stop  offset="0" style="stop-color:#949FA1"/>
				<stop  offset="1" style="stop-color:#B7C6C9"/>
			</linearGradient>
			<path fill="url(#SVGID_11_)" d="M881.112,939.84c-23.047,1.178-45.082,1.094-68.168,1.341c0.887,32.516,1.654,65.31,2.416,97.151
				c23.354-0.361,45.691-1.435,68.973-2.953C883.401,1006.731,882.335,974.788,881.112,939.84z"/>
		</g>
		<g>
			<path fill="#93AB20" d="M790.134,492.195c-13.959-149.933,118.801-285.551,107.348-392.183c0-21.47-0.713-65.124-0.713-85.162
				c37.928,16.459,119.517,71.565,148.14,131.682c-23.975,66.555-117.37,155.655-187.86,236.524
				C824.951,419.881,792.636,439.95,790.134,492.195z"/>
			<path fill="#DBF74A" d="M800.153,456.055c2.861-52.959,36.656-136.13,62.975-193.106
				c26.918-58.269,52.348-113.318,47.234-163.608c-0.008-10.959-0.188-27.33-0.365-43.422c-0.078-6.926-0.154-13.798-0.217-20.162
				c38.231,21.226,96.04,64.441,120.888,111.136c-25.861,56.037-98.505,141.166-149.288,193.941
				C840.226,383.6,802.692,451.553,800.153,456.055z"/>
		</g>
		<g>
			<path fill="#1A1A1A" d="M836.706,1111.201c-0.076,8.301,6.59,15.091,14.891,15.163c8.301,0.078,15.09-6.589,15.166-14.889
				c0.074-8.3-6.59-15.09-14.891-15.167C843.571,1096.233,836.785,1102.9,836.706,1111.201z"/>
			<path fill="#1A1A1A" d="M828.782,881.392c-0.074,8.3,6.592,15.088,14.891,15.167c8.303,0.074,15.092-6.592,15.166-14.892
				c0.078-8.302-6.588-15.09-14.888-15.166C835.649,866.427,828.862,873.093,828.782,881.392z"/>
			<path fill="#1A1A1A" d="M823.242,652.319c-0.079,8.301,6.591,15.092,14.89,15.168c8.301,0.075,15.09-6.591,15.168-14.892
				c0.072-8.3-6.592-15.091-14.893-15.165C830.106,637.353,823.317,644.018,823.242,652.319z"/>
			<circle fill="#1A1A1A" cx="832.862" cy="460.603" r="15.03"/>
		</g>
		<g>
			<path fill="#808080" d="M885.452,280.149c-0.057,6.526,5.184,11.866,11.711,11.927c6.525,0.059,11.865-5.185,11.926-11.711
				c0.059-6.526-5.184-11.865-11.707-11.926C890.854,268.381,885.515,273.623,885.452,280.149z"/>
			<path fill="#1A1A1A" d="M897.201,287.783c-4.147-0.038-7.491-3.444-7.454-7.597c0.039-4.11,3.414-7.453,7.525-7.453
				c4.217,0.037,7.559,3.445,7.521,7.593c-0.037,4.113-3.41,7.457-7.521,7.457H897.201z"/>
		</g>
		<g>
			<circle fill="#808080" cx="980.14" cy="146.53" r="11.818"/>
			<path fill="#1A1A1A" d="M980.07,154.056c-4.148-0.037-7.492-3.444-7.453-7.596c0.037-4.109,3.412-7.454,7.523-7.454
				c4.217,0.038,7.561,3.444,7.523,7.594c-0.039,4.113-3.412,7.456-7.523,7.456H980.07z"/>
		</g>
		<g>
			<path fill="#C3E02D" d="M1088.563,825.69c-2.717,12.882-24.441,79.797-24.441,79.797
				c-37.105-41.507-109.744-110.927-139.804-139.552c10.021-20.038,43.448-71.924,46.161-78.365
				C1011.988,727.647,1054.213,782.037,1088.563,825.69z"/>
			<path fill="#DBF74A" d="M1060.74,888.979c-35.699-38.874-93.059-95.892-123.539-125.191
				c5.387-10.286,35.426-61.189,35.426-61.189c36.293,34.943,76.852,87.898,107.348,125.956
				C1076.789,840.096,1067.115,870.392,1060.74,888.979z"/>
		</g>
		<g>
			<path fill="#C3E02D" d="M483.83,831.773c4.294,12.882,38.646,75.144,38.646,75.144
				c62.263-32.204,171.758-103.055,212.553-137.405c-15.03-30.059-45.088-77.292-49.382-83.733
				C608.355,750.188,558.975,784.54,483.83,831.773z"/>
			<path fill="#DBF74A" d="M525.944,895.392c-11.199-20.486-25.381-47.156-31.4-60.218c66.732-42.114,116.17-76.244,189.127-136.594
				c9.288,14.642,28.248,45.249,40.556,68.696C681.855,801.41,586.015,863.34,525.944,895.392z"/>
		</g>
		<g>
			<path fill="#93AB20" d="M808.022,327.595c-93.034-56.539-299.144-204.681-359.258-245.472
				C493.851,47.771,580.264,7.156,632.508,0c0.181,18.07,1.612,91.425,2.327,102.877
				C651.653,134.723,731.091,212.014,808.022,327.595z"/>
			<path fill="#DBF74A" d="M777.251,297.893C710.288,253.686,605.498,175.98,537.28,128.105
				c-25.71-18.042-48.793-34.242-66.012-46.157c40.386-26.88,103.211-56.611,148.299-66.76c0.245,9.022,0.522,20.49,0.809,32.344
				c0.616,25.525,1.196,49.636,1.603,56.147l0.172,2.764l1.294,2.448c7.571,14.337,25.201,35.262,49.606,64.225
				C697.249,201.835,745.188,254.507,777.251,297.893z"/>
		</g>
		<g>
			<circle fill="#808080" cx="515.646" cy="85.955" r="11.819"/>
			<path fill="#1A1A1A" d="M515.576,93.481c-4.147-0.038-7.492-3.444-7.454-7.596c0.038-4.109,3.413-7.454,7.524-7.454
				c4.217,0.038,7.561,3.445,7.523,7.595c-0.037,4.11-3.412,7.455-7.523,7.455H515.576z"/>
		</g>
	</g>
</g>
<g>
	<g>
		<path fill="#944D09" d="M402.532,725.531c-29.729,3.715-36.995-0.206-75.842,7.025c-90.591,16.849-182.28,36.234-242.278,3.51
			C21.211,693.927,1.465,629.182,13.838,603.339c15.801-33.005,65.837-110.251,144.838-103.227
			c39.328,4.915,74.266,37.393,74.266,37.393s130.09,37.392,157.478,43.187C392.526,610.187,406.747,683.393,402.532,725.531z"/>
		<linearGradient id="SVGID_12_" gradientUnits="userSpaceOnUse" x1="298.7773" y1="764.075" x2="226.4466" y2="667.8665">
			<stop  offset="0.0126" style="stop-color:#FFBD99"/>
			<stop  offset="1" style="stop-color:#E3A586"/>
		</linearGradient>
		<path fill="url(#SVGID_12_)" d="M186.592,741.856c-40.762,0-68.197-2.474-94.805-16.854
			c-39.715-26.644-61.762-64.144-65.836-86.901c-1.904-10.647-2.057-25.021,1.58-30.021c0,0,48.455-107.269,132.727-97.435
			c54.775,22.467,69.521,35.811,69.521,35.811s115.871,35.82,123.598,37.22c-5.619,16.857-16.855,120.088-19.313,136.588
			C289.291,728.861,229.779,739.046,186.592,741.856z"/>
		<linearGradient id="SVGID_13_" gradientUnits="userSpaceOnUse" x1="165.8525" y1="841.7903" x2="192.8903" y2="582.6765">
			<stop  offset="6.030000e-006" style="stop-color:#F3B190"/>
			<stop  offset="0.3556" style="stop-color:#F6B897"/>
			<stop  offset="0.8664" style="stop-color:#FDCBA9"/>
			<stop  offset="1" style="stop-color:#FFD1AF"/>
		</linearGradient>
		<path fill="url(#SVGID_13_)" d="M342.491,698.145c4.438-36.339,7.251-103.567,10.886-114.469
			c-7.727-1.4-123.598-37.22-123.598-37.22s-33.182-29.495-69.521-35.811c-84.271-9.834-130.619,94.802-130.619,94.802
			c-2.107,8.424-9.131,23.173,34.41,51.26C115.664,713.945,192.211,738.871,342.491,698.145z"/>
		<path fill="#944D09" d="M289.823,562.257c-23.175-5.615-83.569-22.821-130.62-30.544c42.135,0,66.363,7.547,71.982,7.723
			C235.398,542.946,278.585,557.342,289.823,562.257z"/>
	</g>
	<g>
		<g>
			<path fill="#944D09" d="M289.823,568.052c6.845-14.748,19.312-51.263,26.684-59.516c4.314-4.826,35.815-30.549,41.786-41.787
				c6.32-10.533,10.007-37.391,12.464-66.712c4.74-19.486,64.281-13.43,67.592,25.635c3.512,41.431-14.396,85.674-23.877,107.44
				C402.884,536.803,298.249,564.89,289.823,568.052z"/>
			<linearGradient id="SVGID_14_" gradientUnits="userSpaceOnUse" x1="328.8584" y1="466.5771" x2="392.0616" y2="487.1182">
				<stop  offset="0.0126" style="stop-color:#FFBD99"/>
				<stop  offset="1" style="stop-color:#E3A586"/>
			</linearGradient>
			<path fill="url(#SVGID_14_)" d="M309.485,549.618c4.536-12.228,10.158-28.146,14.925-34.764
				c2.42-3.362,16.927-14.718,24.225-22.119c7.908-8.021,14.361-13.053,16.441-15.989c8.841-12.454,15.513-45.107,16.214-72.493
				c7.373-8.429,41.609-3.69,46.348,19.485c4.313,21.084-7.725,65.659-16.852,87.432c0,0,19.461-0.03,20.541,4.742
				C428.694,516.646,338.252,542.162,309.485,549.618z"/>
			<linearGradient id="SVGID_15_" gradientUnits="userSpaceOnUse" x1="356.8057" y1="466.2139" x2="491.1909" y2="504.5303">
				<stop  offset="6.030000e-006" style="stop-color:#F3B190"/>
				<stop  offset="0.1127" style="stop-color:#F8BE9D"/>
				<stop  offset="0.2821" style="stop-color:#FDCCAA"/>
				<stop  offset="0.43" style="stop-color:#FFD1AF"/>
			</linearGradient>
			<path fill="url(#SVGID_15_)" d="M383.573,411.624c1.051,13.167-2.107,46.878-6.322,69.524
				c-14.22,15.273-26.007,28.726-32.653,59.513c36.188-9.997,84.921-24.245,86.729-24.749c-1.08-4.772-20.541-4.742-20.541-4.742
				c9.127-21.772,21.165-66.348,16.852-87.432c-3.217-15.729-20.012-22.945-32.783-23.335
				C389.892,400.037,383.573,405.305,383.573,411.624z"/>
		</g>
		<g>
			<path fill="#944D09" d="M279.815,552.779c18.961-5.267,43.716-13.166,43.716-13.166s8.952-12.643,23.7-25.286
				c15.249-13.071,27.811-19.801,35.287-22.292c37.57,1.753,58.283-1.057,99.017,5.967c19.297,48.748,30.958,112.641,21.068,187.5
				c-2.46,18.61-11.236,38.625-15.802,45.997c-20.365,14.747-65.836,20.019-87.428,18.962c-27.916-2.634-68.821-12.639-81.11-17.557
				C322.477,720.965,331.958,621.072,279.815,552.779z"/>
			<linearGradient id="SVGID_16_" gradientUnits="userSpaceOnUse" x1="290.3721" y1="760.6567" x2="361.5644" y2="671.4626">
				<stop  offset="0.0126" style="stop-color:#FFBD99"/>
				<stop  offset="1" style="stop-color:#E3A586"/>
			</linearGradient>
			<path fill="url(#SVGID_16_)" d="M408.151,740.28c-41.903,0-81.461-15.449-100.423-21.067
				c-20.013-20.019-42.135-100.074-20.365-155.199c21.066-18.261,83.954-59.965,94.103-60.392
				c38.191,1.301,70.592,1.396,107.442,7.725c8.957,54.685,4.567,185.391-10.533,214.185
				C471.354,730.098,439.05,737.47,408.151,740.28z"/>
			<linearGradient id="SVGID_17_" gradientUnits="userSpaceOnUse" x1="421.2402" y1="620.6074" x2="188.3432" y2="601.4827">
				<stop  offset="0.0126" style="stop-color:#FFBD99"/>
				<stop  offset="1" style="stop-color:#E3A586"/>
			</linearGradient>
			<path fill="url(#SVGID_17_)" d="M456.62,732.573c10.641-2.47,18.657-5.033,21.755-7.042
				c15.101-28.794,19.49-159.5,10.533-214.185c-36.851-6.328-69.251-6.424-107.442-7.725c-10.148,0.428-73.036,42.131-94.103,60.392
				c-19.662,49.858,7.726,125.704,25.633,146.77c12.64,7.373,55.126,22.82,93.048,24.929
				C426.41,736.066,440.312,734.795,456.62,732.573z"/>
			<linearGradient id="SVGID_18_" gradientUnits="userSpaceOnUse" x1="510.0557" y1="596.4243" x2="359.2504" y2="625.1497">
				<stop  offset="6.030000e-006" style="stop-color:#F3B190"/>
				<stop  offset="1" style="stop-color:#FFD1AF"/>
			</linearGradient>
			<path fill="url(#SVGID_18_)" d="M488.908,511.346c-36.851-6.328-67.669-14.152-105.862-15.453
				c-0.188,0.009-0.418,0.05-0.635,0.084c-3.268,61.727,39.959,145.986,23.633,193.388c3.514,23.524,3.514,36.867,0.703,46.001
				c10.533,1.047,58.637-3.515,72.683-9.486c3.862-7.724,9.831-22.82,11.938-35.463
				C498.014,650.534,497.448,563.481,488.908,511.346z"/>
			<path fill="#944D09" d="M403.06,565.419c6.145,2.104,81.284-9.834,93.223-9.481c6.321,1.58,17.029,8.248,21.419,10.18
				c5.619,12.643,6.672,40.559,0.703,59.869c-2.107,3.162-4.741,5.795-4.741,5.795s3.687,3.162,3.687,6.844
				c0.876,17.91-3.512,46.176-11.587,50.387c-28.44,8.78-72.33,11.942-86.377,10.533C415.173,689.012,404.64,582.272,403.06,565.419
				z"/>
			<linearGradient id="SVGID_19_" gradientUnits="userSpaceOnUse" x1="580.9453" y1="629.8113" x2="353.8773" y2="634.2636">
				<stop  offset="6.030000e-006" style="stop-color:#F3B190"/>
				<stop  offset="0.1055" style="stop-color:#F4B594"/>
				<stop  offset="0.9989" style="stop-color:#FFD1AF"/>
			</linearGradient>
			<path fill="url(#SVGID_19_)" d="M407.446,698.145c-11.232-18.261-11.232-45.649-10.707-58.992
				c-7.373-17.905-14.57-44.944-9.654-66.711c8.426,0,16.5,2.982,16.5,2.982s48.193-8.428,69.875-8.601
				c6.495,2.545,26.86,5.708,31.601,7.023c7.375,11.851,6.321,32.301,2.107,49.86c-2.808,4.562-16.853,7.724-16.853,7.724
				s7.021,2.104,14.045,2.809c3.512,12.638,2.106,37.924-6.322,48.458C476.973,691.822,420.089,699.194,407.446,698.145z"/>
			<path fill="#944D09" d="M417.456,635.468c-2.459,0.524,0.525,2.108,3.336,2.805c28.789,3.162,70.224-0.696,86.376-4.562
				c1.229-2.629,3.16-6.668,4.038-9.477C495.582,630.201,447.126,635.639,417.456,635.468z"/>
			<path fill="#944D09" d="M408.151,574.2c-1.758-0.353-7.727-3.515-9.131-3.515c0.965,4.038-0.525,10.27,1.053,17.905
				C402.884,581.571,407.097,576.304,408.151,574.2z"/>
			<path fill="#944D09" d="M379.358,493.088c18.961-4.566,76.545-5.619,94.102-4.215c10.27,2.105,28.354,7.02,34.938,11.238
				c7.727,11.146,10.707,53.717,2.28,72.68c-10.445,4.302-32.477,9.128-39.324,9.128c-6.847,0-61.095-3.334-72.157-4.739
				C390.069,568.404,367.597,532.765,379.358,493.088z"/>
			<linearGradient id="SVGID_20_" gradientUnits="userSpaceOnUse" x1="579.6699" y1="540.1968" x2="359.8586" y2="535.7501">
				<stop  offset="6.030000e-006" style="stop-color:#F3B190"/>
				<stop  offset="1" style="stop-color:#FFD1AF"/>
			</linearGradient>
			<path fill="url(#SVGID_20_)" d="M474.688,572.791c0,0-71.98,2.104-86.903,1.055c-4.038-14.572-15.099-50.211-1.405-70.225
				c22.123-3.161,76.721-4.566,84.621-2.721c5.794,1.845,22.912,8.16,28.179,11.851c4.74,13.426,0.527,46.344-3.95,54.512
				C489.698,569.368,474.688,572.791,474.688,572.791z"/>
			<linearGradient id="SVGID_21_" gradientUnits="userSpaceOnUse" x1="578.1885" y1="553.0234" x2="463.6896" y2="535.1335">
				<stop  offset="6.030000e-006" style="stop-color:#F3B190"/>
				<stop  offset="1" style="stop-color:#FFD1AF"/>
			</linearGradient>
			<path fill="url(#SVGID_21_)" d="M499.441,510.293c-5.267-3.69-19.224-8.076-28.967-9.658c14.921,14.22,10.71,61.269,4.391,71.803
				c8.954-0.524,19.31-2.81,25.631-4.915C505.763,552.076,506.223,522.579,499.441,510.293z"/>
		</g>
	</g>
</g>
<g>
	<g>
		<path fill="#93AB20" d="M0.047,613.498c-1.877-26.793,53.674-112.716,123.449-122.376c48.092-6.659,104.496,16.246,128.819,33.276
			c10.97,7.681,18.249,18.25,16.103,23.618c-42.939,33.278-41.865,157.265-1.074,200.205
			C239.434,760.031,15.074,828.196,0.047,613.498z"/>
		<path fill="#B7D130" d="M159.748,754.914c-90.834,0-140.242-47.881-146.852-142.314c-1.268-18.084,46.919-99.657,112.367-108.718
			c5.078-0.703,10.48-1.06,16.053-1.06c42.053,0,85.867,19.706,103.611,32.13c4.451,3.115,7.428,6.297,9.17,8.625
			c-22.023,22.51-28.145,60.687-29.811,82.607c-2.832,37.264,3.291,84.261,22.219,115.629
			C227.059,747.633,194.639,754.914,159.748,754.914z"/>
		<path fill="#DBF74A" d="M233.561,712.293c-8.676-27.447-11.313-59.286-9.273-86.109c1.666-21.919,7.787-60.097,29.811-82.607
			c-1.742-2.328-4.719-5.51-9.17-8.625c-17.744-12.424-61.559-32.13-103.611-32.13c-5.572,0-10.975,0.356-16.053,1.06
			C59.815,512.943,11.629,594.516,12.896,612.6c0.156,2.226,0.359,4.4,0.561,6.576c8.807,21.413,21.098,41.134,35.969,57.658
			C99.15,723.007,169.438,725.096,233.561,712.293z"/>
		<linearGradient id="SVGID_22_" gradientUnits="userSpaceOnUse" x1="111.2178" y1="833.9661" x2="122.0353" y2="515.9349">
			<stop  offset="0" style="stop-color:#949FA1"/>
			<stop  offset="1" style="stop-color:#B7C6C9"/>
		</linearGradient>
		<path fill="url(#SVGID_22_)" d="M100.953,530.84C38,576.625,27.211,662.609,60.876,726.215
			c22.175,18.766,52.884,27.781,90.173,29.343c-9.203-11.265-18.498-24.12-24.332-35.783
			C96.66,655.366,96.66,573.78,165.363,526.546c9.891-5.77,21.801-10.443,32.205-14.313c-13.592-4.339-29.355-8.865-44.373-10.018
			C135.541,508.854,117.545,518.771,100.953,530.84z"/>
		<path fill="#868F98" d="M43.328,669.647c2.35,19.686,8.24,38.983,17.548,56.568c22.175,18.766,52.884,27.781,90.173,29.343
			c-9.203-11.265-18.498-24.12-24.332-35.783c-0.803-1.724-1.574-3.465-2.336-5.208c-27.43-5.766-53.171-17.503-74.955-37.732
			C47.334,674.51,45.316,672.094,43.328,669.647z"/>
	</g>
	<g>
		<path fill="#93AB20" d="M317.798,741.959c-30.594-21.471-46.875-141.969-16.102-202.8c-9.84-0.717-34.353-4.024-45.804-4.742
			c-5.727-1.253-18.068,2.596-20.934,5.727c-54.252,59.297-46.16,166.753,5.803,205.159c2.609,1.931,8.33,3.456,14.773,4.17
			C269.132,748.4,308.137,744.106,317.798,741.959z"/>
		<path fill="#B7D130" d="M255.786,736.529c-4.353-0.573-6.87-1.426-7.626-1.776c-20.252-15.131-34.137-44.495-37.174-78.639
			c-3.627-40.807,8.625-80.569,32.797-106.549c1.857-1.023,6.717-2.514,9.474-2.514c7.03,1.472,17.814,1.954,28.248,2.42
			c0.393,0.017,0.786,0.033,1.179,0.051c-18.905,56.503-10.433,141.454,11.59,182.884
			C280.704,734.079,264.417,735.806,255.786,736.529z"/>
		<path fill="#DBF74A" d="M284.521,549.895c-0.393-0.019-22.411-3.598-30.059-3.758c-4.161-0.377-8.05,1.074-10.679,3.429
			c-24.172,25.98-36.424,65.741-32.797,106.549c2.072,23.302,9.205,44.369,19.957,60.213c18.145-1.621,36.513-3.156,54.844-3.955
			C270.411,667.469,268.292,598.398,284.521,549.895z"/>
	</g>
</g>
</svg>
