<?xml version="1.0" encoding="utf-8"?>
<!-- Generator: Adobe Illustrator 15.0.0, SVG Export Plug-In . SVG Version: 6.00 Build 0)  -->
<!DOCTYPE svg PUBLIC "-//W3C//DTD SVG 1.1//EN" "http://www.w3.org/Graphics/SVG/1.1/DTD/svg11.dtd">
<svg version="1.1" id="_x30_1_1_" xmlns="http://www.w3.org/2000/svg" xmlns:xlink="http://www.w3.org/1999/xlink" x="0px" y="0px"
	 width="1019.455px" height="1003.844px" viewBox="0 0 1019.455 1003.844" enable-background="new 0 0 1019.455 1003.844"
	 xml:space="preserve">
<g id="Fluo_x5F_Tshirt_2_">
	<g>
		<path fill="#93AB20" d="M916.043,126.67c37.929,18.25,95.183,84.45,98.043,154.583c1.432,67.271,3.936,174.622,5.368,214.697
			c-35.783,24.332-102.34,29.343-152.436,19.323C875.607,458.379,914.613,168.178,916.043,126.67z"/>
		<path fill="#DBF74A" d="M904.216,507.771c-9.333,0-17.962-0.528-25.773-1.57c-6.923-53.88,18.138-190.959,35.022-283.317
			c5.589-30.579,10.183-55.704,12.877-73.427c33.105,26.086,72.596,75.138,74.863,130.722c0.841,39.638,4.259,192.974,5.368,209.331
			C979.873,504.52,946.315,507.771,904.216,507.771z"/>
	</g>
	<g>
		<path fill="#93AB20" d="M227.579,70.849C270.519,62.262,461.241,10.734,473.048,0c57.969,90.172,257.282,102.696,275.53,13.596
			c33.279,26.836,133.469,92.679,177.482,117.369c11.283,20.64,1.517,49.984,7.516,78.365
			c24.312,74.604,28.273,191.262-13.239,338.148c-6.131,192.287,10.496,360.955,13.239,398.264
			c-18.609,45.802-388.247,111.643-600.081-17.175c5.724-52.958,32.563-188.575,13.955-310.238
			C275.886,498.097,177.125,312.385,227.579,70.849z"/>
		<path fill="#B7D130" d="M660.119,990.603c-87.475,0-211.317-12.139-309.984-69.2c1.009-7.999,2.344-17.437,3.826-27.917
			c9.335-65.975,22.266-175.55,6.752-276.969l-0.38-2.482l-1.283-2.158C299.075,511.118,190.704,323.681,238.18,80.58
			c42.964-9.729,185.233-46.055,230.58-64.395c37.719,48.331,110.807,70.091,169.405,70.091c58.183,0,101.692-19.956,118.955-53.243
			c39.427,30.847,115.177,87.095,158.603,106.863c50.058,98.417,41.74,228.85-7.78,404.078l-0.43,1.519l-0.051,1.575
			c-5.389,168.988,13.969,392.33,14.306,396.528C907.651,959.619,802.968,990.603,660.119,990.603z"/>
		<path fill="#DBF74A" d="M907.461,547.068l0.051-1.575l0.43-1.519c49.521-175.229,63.923-302.799,7.78-404.078
			C872.296,120.128,796.546,63.88,757.119,33.034c-17.262,33.287-60.772,53.243-118.955,53.243
			c-58.599,0-131.686-21.76-169.405-70.091c-38.786,15.687-148.435,44.519-206.244,58.625
			c-1.453,89.567,7.466,179.073,36.629,266.558c30.057,94.467,107.348,167.465,128.818,270.521
			c26.549,117.567-3.828,228.435-8.332,341.482c82.897,29.911,172.633,37.232,240.488,37.232
			c142.849,0,247.532-30.984,261.648-47.007C921.43,939.398,902.073,716.056,907.461,547.068z"/>
		<g>
			<path fill="#93AB20" d="M633.201,127.048c-1.147,0-2.296-0.006-3.458-0.019c-97.919-1.101-195.216-77.092-198.539-106.27
				l6.399-0.729c3.057,26.831,99.24,99.514,192.211,100.558c93.419,1.016,142.953-43.818,148.148-76.016l6.356,1.027
				C779.201,77.332,733.64,127.048,633.201,127.048z"/>
		</g>
		<path fill="#B7D130" d="M312.026,416.513c77.292,89.458,324.194,133.112,412.218,122.378
			c-118.083,42.939-280.538,33.637-323.478,31.49C362.121,516.706,327.054,437.982,312.026,416.513z"/>
		<linearGradient id="SVGID_1_" gradientUnits="userSpaceOnUse" x1="281.582" y1="395.3271" x2="676.6252" y2="282.2548">
			<stop  offset="0" style="stop-color:#949FA1"/>
			<stop  offset="1" style="stop-color:#B7C6C9"/>
		</linearGradient>
		<path fill="url(#SVGID_1_)" d="M912.859,449.995c5.36-117.388,6.59-260.012-25.442-325.827
			c-27.324-16.158-59.192-39.034-87.312-59.759c33.045,82.162,30.194,254.468,27.271,393.792
			c-91.244,5.562-211.062,4.771-329.076-6.531c-3.923-144.385-25.082-340.027-81.786-418.751
			c-26.913,8.055-58.477,16.457-88.386,24.333c59.76,117.446,65.041,273.297,67.664,381.669
			c-47.14-7.349-92.458-16.686-133.816-28.313c13.053,38.811,28.491,74.122,44.15,105.69
			c192.999,52.753,469.196,61.495,603.477,24.024c9.267-32.974,17.222-63.697,23.437-93.573
			C926.8,447.883,920.045,448.965,912.859,449.995z"/>
		<linearGradient id="SVGID_2_" gradientUnits="userSpaceOnUse" x1="363.1343" y1="794.709" x2="913.9839" y2="794.709">
			<stop  offset="0" style="stop-color:#949FA1"/>
			<stop  offset="1" style="stop-color:#B7C6C9"/>
		</linearGradient>
		<path fill="url(#SVGID_2_)" d="M367.132,719.596c0.002,30.822-1.621,60.796-3.998,88.433
			c161.74,74.383,404.319,82.296,550.85,20.032c-1.562-26.683-3.183-56.542-4.428-87.891
			C783.958,794.918,501.257,779.356,367.132,719.596z"/>
		<path fill="#868F98" d="M367.132,719.596c0.002,30.822-1.621,60.796-3.998,88.433c21.213,9.755,43.857,18.331,67.479,25.778
			c2.265-29.836,4.985-60.041,6.809-90.227C411.276,736.664,387.462,728.653,367.132,719.596z"/>
		<path fill="#868F98" d="M499.303,552.169c-42.394-11.609-81.078-26.714-116.631-46.444
			c-15.329-24.691-29.118-50.261-41.921-76.519c-27.401-5.412-53.824-11.582-78.776-18.598
			c13.053,38.811,28.491,74.122,44.15,105.69c30.799,8.418,63.769,15.696,97.956,21.847c-0.013-0.018-0.024-0.037-0.04-0.056
			C434.339,543.817,465.951,548.317,499.303,552.169z"/>
	</g>
	<g>
		<path fill="#93AB20" d="M0,344.23c46.159,37.572,210.403,100.193,231.873,104.487c15.901-29.352,51.527-124.524,62.978-233.305
			c18.607-77.292,21.826-119.155,23.257-139.91c-72.638-31.49-159.591,7.156-200.384,84.447C76.932,245.828,15.028,322.761,0,344.23
			z"/>
		<path fill="#DBF74A" d="M226.146,432.973c-38.791-12.636-156.865-56.378-207.541-90.172
			c2.438-3.081,78.132-108.746,110.637-177.071c29.409-55.491,94.416-94.224,158.184-94.224c11.133,0,21.849,1.213,31.946,3.617
			C331.188,126.017,257.629,363.798,226.146,432.973z"/>
	</g>
</g>
<g>
	<g>
		<path fill="#944D09" d="M135.91,490.223c6.845-14.749,19.312-51.263,26.684-59.516c4.314-4.826,35.815-30.548,41.787-41.787
			c6.319-10.533,10.006-37.391,12.463-66.712c4.74-19.486,64.281-13.43,67.592,25.635c3.512,41.43-14.396,85.673-23.877,107.44
			C248.971,458.974,144.335,487.061,135.91,490.223z"/>
		<linearGradient id="SVGID_3_" gradientUnits="userSpaceOnUse" x1="174.9448" y1="388.748" x2="238.1477" y2="409.289">
			<stop  offset="0.0126" style="stop-color:#FFBD99"/>
			<stop  offset="1" style="stop-color:#E3A586"/>
		</linearGradient>
		<path fill="url(#SVGID_3_)" d="M155.572,471.789c4.536-12.228,10.158-28.145,14.924-34.763
			c2.421-3.363,16.928-14.718,24.226-22.119c7.907-8.021,14.361-13.053,16.44-15.989c8.842-12.454,15.514-45.107,16.214-72.494
			c7.374-8.429,41.61-3.69,46.348,19.485c4.313,21.084-7.724,65.66-16.852,87.432c0,0,19.461-0.03,20.541,4.743
			C274.78,438.817,184.338,464.333,155.572,471.789z"/>
		<linearGradient id="SVGID_4_" gradientUnits="userSpaceOnUse" x1="202.8916" y1="388.3848" x2="337.2768" y2="426.7012">
			<stop  offset="6.030000e-006" style="stop-color:#F3B190"/>
			<stop  offset="0.1127" style="stop-color:#F8BE9D"/>
			<stop  offset="0.2821" style="stop-color:#FDCCAA"/>
			<stop  offset="0.43" style="stop-color:#FFD1AF"/>
		</linearGradient>
		<path fill="url(#SVGID_4_)" d="M229.659,333.795c1.052,13.167-2.107,46.877-6.321,69.524
			c-14.22,15.273-26.008,28.725-32.654,59.512c36.188-9.997,84.921-24.245,86.729-24.749c-1.08-4.773-20.541-4.743-20.541-4.743
			c9.128-21.772,21.165-66.348,16.852-87.432c-3.216-15.729-20.012-22.945-32.783-23.334
			C235.979,322.208,229.659,327.476,229.659,333.795z"/>
	</g>
	<g>
		<path fill="#944D09" d="M125.902,474.95c18.961-5.266,43.716-13.166,43.716-13.166s8.952-12.643,23.7-25.286
			c15.249-13.071,27.81-19.8,35.287-22.292c37.57,1.753,58.284-1.057,99.016,5.967c19.298,48.748,30.959,112.641,21.069,187.5
			c-2.46,18.61-11.236,38.625-15.802,45.997c-20.365,14.747-65.835,20.019-87.428,18.962c-27.915-2.635-68.821-12.638-81.11-17.558
			C168.563,643.136,178.044,543.243,125.902,474.95z"/>
		<linearGradient id="SVGID_5_" gradientUnits="userSpaceOnUse" x1="136.459" y1="682.8284" x2="207.6513" y2="593.6342">
			<stop  offset="0.0126" style="stop-color:#FFBD99"/>
			<stop  offset="1" style="stop-color:#E3A586"/>
		</linearGradient>
		<path fill="url(#SVGID_5_)" d="M254.237,662.451c-41.903,0-81.46-15.449-100.422-21.068
			c-20.013-20.019-42.135-100.073-20.365-155.199c21.066-18.262,83.955-59.965,94.102-60.392c38.192,1.3,70.593,1.396,107.443,7.724
			c8.957,54.685,4.567,185.391-10.533,214.186C317.44,652.27,285.137,659.641,254.237,662.451z"/>
		<linearGradient id="SVGID_6_" gradientUnits="userSpaceOnUse" x1="267.3262" y1="542.7786" x2="34.4297" y2="523.6539">
			<stop  offset="0.0126" style="stop-color:#FFBD99"/>
			<stop  offset="1" style="stop-color:#E3A586"/>
		</linearGradient>
		<path fill="url(#SVGID_6_)" d="M302.706,654.744c10.641-2.47,18.658-5.033,21.755-7.042c15.1-28.794,19.49-159.5,10.533-214.186
			c-36.85-6.328-69.25-6.424-107.443-7.724c-10.147,0.428-73.036,42.13-94.102,60.392c-19.662,49.858,7.726,125.704,25.633,146.77
			c12.64,7.373,55.126,22.82,93.048,24.929C272.495,658.237,286.397,656.966,302.706,654.744z"/>
		<linearGradient id="SVGID_7_" gradientUnits="userSpaceOnUse" x1="356.1411" y1="518.5955" x2="205.3356" y2="547.3209">
			<stop  offset="6.030000e-006" style="stop-color:#F3B190"/>
			<stop  offset="1" style="stop-color:#FFD1AF"/>
		</linearGradient>
		<path fill="url(#SVGID_7_)" d="M334.995,433.517c-36.85-6.328-67.669-14.152-105.862-15.453c-0.188,0.009-0.419,0.05-0.636,0.084
			c-3.267,61.726,39.96,145.987,23.634,193.388c3.513,23.525,3.513,36.867,0.702,46.001c10.534,1.047,58.638-3.515,72.683-9.486
			c3.862-7.724,9.831-22.82,11.938-35.463C344.1,572.705,343.535,485.652,334.995,433.517z"/>
		<path fill="#944D09" d="M249.146,487.59c6.146,2.104,81.285-9.834,93.223-9.481c6.321,1.58,17.029,8.248,21.419,10.18
			c5.619,12.643,6.672,40.559,0.703,59.869c-2.107,3.162-4.741,5.794-4.741,5.794s3.686,3.162,3.686,6.844
			c0.876,17.91-3.511,46.177-11.586,50.387c-28.44,8.781-72.33,11.942-86.377,10.533C261.26,611.184,250.726,504.443,249.146,487.59
			z"/>
		<linearGradient id="SVGID_8_" gradientUnits="userSpaceOnUse" x1="427.0317" y1="551.9822" x2="199.9628" y2="556.4345">
			<stop  offset="6.030000e-006" style="stop-color:#F3B190"/>
			<stop  offset="0.1055" style="stop-color:#F4B594"/>
			<stop  offset="0.9989" style="stop-color:#FFD1AF"/>
		</linearGradient>
		<path fill="url(#SVGID_8_)" d="M253.533,620.316c-11.233-18.261-11.233-45.648-10.707-58.992
			c-7.374-17.905-14.571-44.944-9.655-66.711c8.427,0,16.5,2.981,16.5,2.981s48.194-8.429,69.875-8.601
			c6.495,2.546,26.86,5.708,31.601,7.024c7.375,11.851,6.321,32.301,2.107,49.86c-2.808,4.562-16.853,7.724-16.853,7.724
			s7.021,2.104,14.045,2.809c3.512,12.638,2.106,37.924-6.322,48.458C323.059,613.993,266.175,621.365,253.533,620.316z"/>
		<path fill="#944D09" d="M263.543,557.639c-2.459,0.524,0.524,2.108,3.336,2.804c28.789,3.162,70.223-0.696,86.375-4.562
			c1.229-2.629,3.16-6.668,4.038-9.477C341.668,552.372,293.213,557.811,263.543,557.639z"/>
		<path fill="#944D09" d="M254.237,496.371c-1.757-0.353-7.726-3.515-9.13-3.515c0.965,4.038-0.526,10.27,1.052,17.906
			C248.971,503.742,253.183,498.475,254.237,496.371z"/>
		<path fill="#944D09" d="M225.444,415.259c18.961-4.567,76.545-5.62,94.102-4.215c10.27,2.106,28.354,7.02,34.938,11.238
			c7.727,11.146,10.707,53.717,2.28,72.68c-10.445,4.302-32.477,9.128-39.324,9.128c-6.846,0-61.095-3.334-72.157-4.739
			C236.156,490.575,213.683,454.936,225.444,415.259z"/>
		<linearGradient id="SVGID_9_" gradientUnits="userSpaceOnUse" x1="425.7573" y1="462.3677" x2="205.946" y2="457.921">
			<stop  offset="6.030000e-006" style="stop-color:#F3B190"/>
			<stop  offset="1" style="stop-color:#FFD1AF"/>
		</linearGradient>
		<path fill="url(#SVGID_9_)" d="M320.775,494.962c0,0-71.98,2.104-86.904,1.056c-4.038-14.572-15.098-50.211-1.404-70.225
			c22.122-3.162,76.721-4.567,84.621-2.721c5.794,1.845,22.912,8.16,28.179,11.851c4.74,13.426,0.527,46.344-3.95,54.512
			C335.785,491.54,320.775,494.962,320.775,494.962z"/>
		<linearGradient id="SVGID_10_" gradientUnits="userSpaceOnUse" x1="424.2769" y1="475.1953" x2="309.7753" y2="457.305">
			<stop  offset="6.030000e-006" style="stop-color:#F3B190"/>
			<stop  offset="1" style="stop-color:#FFD1AF"/>
		</linearGradient>
		<path fill="url(#SVGID_10_)" d="M345.528,432.464c-5.267-3.69-19.224-8.076-28.967-9.658c14.921,14.22,10.71,61.269,4.391,71.803
			c8.954-0.524,19.31-2.81,25.631-4.915C351.849,474.247,352.309,444.75,345.528,432.464z"/>
	</g>
</g>
</svg>
