<?xml version="1.0" encoding="utf-8"?>
<!-- Generator: Adobe Illustrator 15.0.0, SVG Export Plug-In . SVG Version: 6.00 Build 0)  -->
<!DOCTYPE svg PUBLIC "-//W3C//DTD SVG 1.1//EN" "http://www.w3.org/Graphics/SVG/1.1/DTD/svg11.dtd">
<svg version="1.1" id="_x30_1_1_" xmlns="http://www.w3.org/2000/svg" xmlns:xlink="http://www.w3.org/1999/xlink" x="0px" y="0px"
	 width="1248.111px" height="1003.844px" viewBox="0 0 1248.111 1003.844" enable-background="new 0 0 1248.111 1003.844"
	 xml:space="preserve">
<g id="Fluo_x5F_Tshirt_x5F_Long_3_">
	<g>
		<path fill="#93AB20" d="M1062.756,127.386c44.549,9.483,102.34,76.934,105.201,147.067c1.432,67.271,13.598,288.055,15.029,328.13
			c31.488,97.33,55.105,148.143,65.125,382.879c-35.426,12.881-114.455,12.893-139.553,7.873
			c-36.867-90.401-89.746-215.872-95.898-347.812C1001.379,403.525,1061.83,154.248,1062.756,127.386z"/>
		<path fill="#B7D130" d="M1167.854,987.95c-20.115,0-37.25-1.189-47.951-2.602c-37.234-91.368-86.32-214.426-92.227-341.14
			c-8.83-189.388,27.193-386.423,42.574-470.56c2.156-11.785,3.822-20.95,5.037-28.062c36.574,20.757,79.646,72.379,81.945,128.676
			c0.924,43.432,6.424,152.88,10.441,232.796c2.191,43.571,4.082,81.197,4.586,95.268l0.064,1.797c0,0,4.281,13.19,6.1,18.76
			c27.951,85.669,47.98,145.928,57.521,356.852C1219.678,983.725,1195.791,987.95,1167.854,987.95z"/>
		<path fill="#DBF74A" d="M1235.945,979.736c-9.541-210.924-29.57-271.183-57.521-356.852c-1.818-5.57-6.1-18.76-6.1-18.76
			l-0.064-1.797c-0.504-14.071-2.395-51.698-4.586-95.268c-4.018-79.916-9.518-189.365-10.441-232.796
			c-2.299-56.297-45.371-107.919-81.945-128.676c-1.215,7.111-2.881,16.276-5.037,28.062
			c-8.707,47.638-8.174,116.812-18.229,214.953c7.408,70.256,5.01,200.386,28.627,281.971
			c8.588,101.624,35.781,206.109,74.66,317.212c4.031,0.101,8.201,0.166,12.545,0.166
			C1195.791,987.95,1219.678,983.725,1235.945,979.736z"/>
		<linearGradient id="SVGID_1_" gradientUnits="userSpaceOnUse" x1="1026.332" y1="524.6008" x2="1169.9746" y2="524.6008">
			<stop  offset="0" style="stop-color:#949FA1"/>
			<stop  offset="1" style="stop-color:#B7C6C9"/>
		</linearGradient>
		<path fill="url(#SVGID_1_)" d="M1165.875,471.211c-44.736,10.315-90.578,16.481-136.725,19.022
			c-1.674,28.797-2.705,58.193-2.818,87.758c48.418-5.166,96.568-13.335,143.643-24.986c-0.688-13.832-1.473-29.458-2.301-45.946
			C1167.1,495.623,1166.494,483.573,1165.875,471.211z"/>
		<linearGradient id="SVGID_2_" gradientUnits="userSpaceOnUse" x1="1045.6816" y1="788.426" x2="1223.7148" y2="788.426">
			<stop  offset="0" style="stop-color:#949FA1"/>
			<stop  offset="1" style="stop-color:#B7C6C9"/>
		</linearGradient>
		<path fill="url(#SVGID_2_)" d="M1045.682,767.472c6.701,28.588,14.773,56.472,23.533,83.258
			c53.225-4.315,104.197-16.934,154.5-32.349c-4.42-36.746-9.574-66.256-15.418-92.259
			C1154.822,744.419,1101.004,760.14,1045.682,767.472z"/>
		<path fill="#868F98" d="M1045.682,767.472c6.701,28.588,14.773,56.472,23.533,83.258c13.861-1.124,27.564-2.834,41.148-4.988
			c-7.225-28.622-13.295-57.371-18.334-86.377C1076.68,762.625,1061.246,765.408,1045.682,767.472z"/>
	</g>
	<g>
		<g id="T_shirt_long_HV_3_">
			<g>
				<path fill="#93AB20" d="M379.302,70.849C422.241,62.262,612.963,10.734,624.771,0C682.739,90.172,882.054,102.696,900.3,13.596
					c33.279,26.837,133.472,92.679,177.483,117.369c11.283,20.64,1.518,49.984,7.516,78.364
					c24.313,74.604,28.273,191.262-13.238,338.149c-6.131,192.287,10.496,360.955,13.238,398.264
					c-18.609,45.802-388.247,111.643-600.081-17.175c5.724-52.958,32.563-188.575,13.955-310.238
					C427.608,498.097,328.848,312.385,379.302,70.849z"/>
				<path fill="#B7D130" d="M811.841,990.603c-87.475,0-211.317-12.14-309.984-69.2c1.009-7.999,2.345-17.436,3.826-27.917
					c9.335-65.975,22.266-175.549,6.752-276.969l-0.38-2.482l-1.283-2.158c-59.974-100.759-168.346-288.196-120.87-531.298
					c42.965-9.729,185.233-46.055,230.58-64.395c37.72,48.331,110.807,70.092,169.404,70.092
					c58.184,0,101.693-19.956,118.955-53.243c39.429,30.847,115.179,87.095,158.604,106.863
					c50.057,98.417,41.74,228.85-7.781,404.078l-0.43,1.518l-0.051,1.575c-5.389,168.988,13.969,392.331,14.307,396.528
					C1059.373,959.618,954.691,990.603,811.841,990.603z"/>
				<path fill="#DBF74A" d="M1059.184,547.068l0.051-1.575l0.43-1.518c49.521-175.229,63.924-302.8,7.781-404.078
					C1024.02,120.128,948.27,63.88,908.841,33.033c-17.262,33.287-60.771,53.243-118.955,53.243
					c-58.598,0-131.685-21.761-169.404-70.092c-38.786,15.688-148.435,44.519-206.244,58.626
					c-1.453,89.566,7.467,179.073,36.629,266.558c30.058,94.467,107.349,167.465,128.818,270.52
					c26.549,117.567-3.828,228.435-8.332,341.482c82.897,29.911,172.633,37.232,240.488,37.232
					c142.851,0,247.532-30.984,261.649-47.007C1073.152,939.398,1053.795,716.056,1059.184,547.068z"/>
				<g>
					<path fill="#93AB20" d="M784.923,127.048c-1.148,0-2.297-0.006-3.459-0.019c-97.918-1.101-195.215-77.092-198.538-106.27
						l6.399-0.729c3.057,26.831,99.239,99.514,192.211,100.558c93.42,1.016,142.953-43.818,148.148-76.016l6.355,1.027
						C930.923,77.332,885.362,127.048,784.923,127.048z"/>
				</g>
				<path fill="#B7D130" d="M463.749,416.513c77.291,89.458,324.193,133.112,412.219,122.378
					c-118.084,42.939-280.539,33.637-323.479,31.49C513.843,516.706,478.776,437.982,463.749,416.513z"/>
				<linearGradient id="SVGID_3_" gradientUnits="userSpaceOnUse" x1="270.875" y1="370.4507" x2="820.5002" y2="287.4337">
					<stop  offset="0" style="stop-color:#949FA1"/>
					<stop  offset="1" style="stop-color:#B7C6C9"/>
				</linearGradient>
				<path fill="url(#SVGID_3_)" d="M1064.582,449.994c5.359-117.388,6.59-260.012-25.443-325.826
					c-27.322-16.158-59.191-39.034-87.311-59.76c33.045,82.162,30.193,254.469,27.27,393.792
					c-91.243,5.562-211.062,4.771-329.076-6.53c-3.923-144.385-25.082-340.027-81.786-418.751
					c-26.913,8.055-58.477,16.457-88.386,24.333c59.76,117.446,65.041,273.297,67.664,381.67
					c-47.14-7.349-92.458-16.686-133.815-28.313c13.053,38.811,28.49,74.122,44.15,105.69
					c192.998,52.752,469.195,61.495,603.478,24.023c9.266-32.973,17.221-63.697,23.436-93.573
					C1078.523,447.883,1071.768,448.965,1064.582,449.994z"/>
				<linearGradient id="SVGID_4_" gradientUnits="userSpaceOnUse" x1="514.8564" y1="794.709" x2="1065.707" y2="794.709">
					<stop  offset="0" style="stop-color:#949FA1"/>
					<stop  offset="1" style="stop-color:#B7C6C9"/>
				</linearGradient>
				<path fill="url(#SVGID_4_)" d="M518.854,719.596c0.002,30.822-1.621,60.796-3.998,88.432
					c161.74,74.383,404.318,82.296,550.851,20.033c-1.563-26.684-3.184-56.542-4.428-87.891
					C935.681,794.918,652.979,779.356,518.854,719.596z"/>
				<path fill="#868F98" d="M518.854,719.596c0.002,30.822-1.621,60.796-3.998,88.432c21.213,9.755,43.857,18.331,67.479,25.778
					c2.265-29.836,4.985-60.041,6.809-90.227C562.998,736.664,539.185,728.653,518.854,719.596z"/>
				<path fill="#868F98" d="M651.025,552.169c-42.394-11.609-81.078-26.714-116.631-46.444
					c-15.329-24.692-29.118-50.261-41.921-76.519c-27.4-5.412-53.824-11.582-78.775-18.598c13.053,38.811,28.49,74.122,44.15,105.69
					c30.799,8.418,63.769,15.697,97.955,21.847c-0.013-0.018-0.024-0.037-0.04-0.056
					C586.062,543.817,617.673,548.317,651.025,552.169z"/>
			</g>
		</g>
		<g>
			<path fill="#93AB20" d="M70.852,461.6c63.336,17.176,249.05,77.291,270.52,81.585c13.955-31.131,99.835-158.877,105.202-327.772
				c18.606-77.292,24.33-118.082,25.763-138.837c-81.585-48.666-173.905,15.743-207.542,91.604
				C224.719,244.039,82.66,428.321,70.852,461.6z"/>
			<path fill="#DBF74A" d="M334.496,528.126c-19.948-5.589-63.938-19.251-106.734-32.544
				c-48.891-15.184-103.395-32.114-138.229-42.122c12.104-20.05,37.953-56.249,63.129-91.502
				c46.609-65.266,104.598-146.467,128.303-196.231c28.511-53.836,83.346-94.878,136.624-94.878c14.766,0,47.299-1.931,61.188,3.221
				c-2.298,22.116-8.655,48.254-24.689,114.863l-3.221,27.911C429.396,325.267,367.692,467.15,341.397,515.36
				C338.735,520.242,336.434,524.463,334.496,528.126z"/>
			<linearGradient id="SVGID_5_" gradientUnits="userSpaceOnUse" x1="176.5898" y1="342.1294" x2="412.8799" y2="342.1294">
				<stop  offset="0" style="stop-color:#949FA1"/>
				<stop  offset="1" style="stop-color:#B7C6C9"/>
			</linearGradient>
			<path fill="url(#SVGID_5_)" d="M176.59,326.876c73.419,18.55,145.816,52.558,206.935,97.6
				c9.77-23.453,19.863-49.263,29.355-75.873c-53.974-44.655-121.271-76.734-189.593-88.819
				C208.432,281.853,192.211,304.846,176.59,326.876z"/>
		</g>
	</g>
</g>
<g>
	<g>
		<path fill="#944D09" d="M400.341,647.702c-29.729,3.715-36.995-0.206-75.842,7.025c-90.591,16.849-182.28,36.234-242.278,3.51
			C19.02,616.097-0.727,551.353,11.646,525.51c15.801-33.005,65.837-110.251,144.838-103.227
			c39.328,4.915,74.266,37.393,74.266,37.393s130.09,37.392,157.478,43.187C390.335,532.357,404.556,605.564,400.341,647.702z"/>
		<linearGradient id="SVGID_6_" gradientUnits="userSpaceOnUse" x1="296.5869" y1="686.2468" x2="224.256" y2="590.038">
			<stop  offset="0.0126" style="stop-color:#FFBD99"/>
			<stop  offset="1" style="stop-color:#E3A586"/>
		</linearGradient>
		<path fill="url(#SVGID_6_)" d="M184.4,664.027c-40.762,0-68.197-2.474-94.805-16.854c-39.715-26.644-61.762-64.144-65.836-86.901
			c-1.904-10.647-2.057-25.021,1.58-30.021c0,0,48.455-107.269,132.727-97.435c54.775,22.467,69.521,35.811,69.521,35.811
			s115.871,35.82,123.598,37.22c-5.619,16.857-16.855,120.088-19.313,136.588C287.1,651.032,227.588,661.217,184.4,664.027z"/>
		<linearGradient id="SVGID_7_" gradientUnits="userSpaceOnUse" x1="163.6611" y1="763.9617" x2="190.6989" y2="504.8477">
			<stop  offset="6.030000e-006" style="stop-color:#F3B190"/>
			<stop  offset="0.3556" style="stop-color:#F6B897"/>
			<stop  offset="0.8664" style="stop-color:#FDCBA9"/>
			<stop  offset="1" style="stop-color:#FFD1AF"/>
		</linearGradient>
		<path fill="url(#SVGID_7_)" d="M340.3,620.316c4.438-36.339,7.251-103.567,10.886-114.469c-7.727-1.4-123.598-37.22-123.598-37.22
			s-33.182-29.495-69.521-35.811c-84.271-9.834-130.619,94.802-130.619,94.802c-2.107,8.424-9.131,23.173,34.41,51.26
			C113.473,636.116,190.02,661.042,340.3,620.316z"/>
		<path fill="#944D09" d="M287.632,484.428c-23.175-5.615-83.569-22.821-130.62-30.544c42.135,0,66.363,7.547,71.982,7.723
			C233.207,465.117,276.394,479.513,287.632,484.428z"/>
	</g>
	<g>
		<g>
			<path fill="#944D09" d="M287.632,490.223c6.845-14.748,19.312-51.263,26.684-59.516c4.314-4.826,35.815-30.549,41.786-41.787
				c6.32-10.533,10.007-37.391,12.464-66.712c4.74-19.486,64.281-13.43,67.592,25.635c3.512,41.431-14.396,85.674-23.877,107.44
				C400.692,458.974,296.058,487.061,287.632,490.223z"/>
			<linearGradient id="SVGID_8_" gradientUnits="userSpaceOnUse" x1="326.668" y1="388.748" x2="389.8705" y2="409.2889">
				<stop  offset="0.0126" style="stop-color:#FFBD99"/>
				<stop  offset="1" style="stop-color:#E3A586"/>
			</linearGradient>
			<path fill="url(#SVGID_8_)" d="M307.294,471.789c4.536-12.228,10.158-28.146,14.924-34.764
				c2.421-3.362,16.928-14.718,24.226-22.119c7.908-8.021,14.361-13.053,16.441-15.989c8.841-12.454,15.513-45.107,16.214-72.493
				c7.373-8.429,41.609-3.69,46.348,19.485c4.313,21.084-7.725,65.659-16.852,87.432c0,0,19.461-0.03,20.541,4.742
				C426.503,438.816,336.061,464.333,307.294,471.789z"/>
			<linearGradient id="SVGID_9_" gradientUnits="userSpaceOnUse" x1="354.6143" y1="388.3848" x2="488.9995" y2="426.7012">
				<stop  offset="6.030000e-006" style="stop-color:#F3B190"/>
				<stop  offset="0.1127" style="stop-color:#F8BE9D"/>
				<stop  offset="0.2821" style="stop-color:#FDCCAA"/>
				<stop  offset="0.43" style="stop-color:#FFD1AF"/>
			</linearGradient>
			<path fill="url(#SVGID_9_)" d="M381.382,333.795c1.051,13.167-2.107,46.878-6.322,69.524
				c-14.22,15.273-26.007,28.726-32.653,59.513c36.188-9.997,84.921-24.245,86.729-24.749c-1.08-4.772-20.541-4.742-20.541-4.742
				c9.127-21.772,21.164-66.348,16.852-87.432c-3.217-15.729-20.012-22.945-32.783-23.335
				C387.7,322.208,381.382,327.476,381.382,333.795z"/>
		</g>
		<g>
			<path fill="#944D09" d="M277.624,474.95c18.961-5.267,43.716-13.166,43.716-13.166s8.952-12.643,23.7-25.286
				c15.249-13.071,27.811-19.801,35.287-22.292c37.57,1.753,58.283-1.057,99.016,5.967c19.298,48.748,30.959,112.641,21.069,187.5
				c-2.46,18.61-11.236,38.625-15.802,45.997c-20.365,14.747-65.836,20.019-87.428,18.962c-27.916-2.634-68.821-12.639-81.11-17.557
				C320.285,643.136,329.767,543.242,277.624,474.95z"/>
			<linearGradient id="SVGID_10_" gradientUnits="userSpaceOnUse" x1="288.1807" y1="682.8279" x2="359.373" y2="593.6337">
				<stop  offset="0.0126" style="stop-color:#FFBD99"/>
				<stop  offset="1" style="stop-color:#E3A586"/>
			</linearGradient>
			<path fill="url(#SVGID_10_)" d="M405.96,662.451c-41.903,0-81.461-15.449-100.423-21.067
				c-20.013-20.019-42.135-100.074-20.365-155.199c21.066-18.261,83.954-59.965,94.103-60.392
				c38.191,1.301,70.592,1.396,107.442,7.725c8.957,54.685,4.567,185.391-10.533,214.185
				C469.162,652.269,436.858,659.641,405.96,662.451z"/>
			<linearGradient id="SVGID_11_" gradientUnits="userSpaceOnUse" x1="419.0488" y1="542.7786" x2="186.1518" y2="523.6539">
				<stop  offset="0.0126" style="stop-color:#FFBD99"/>
				<stop  offset="1" style="stop-color:#E3A586"/>
			</linearGradient>
			<path fill="url(#SVGID_11_)" d="M454.429,654.743c10.641-2.47,18.657-5.033,21.755-7.042
				c15.101-28.794,19.49-159.5,10.533-214.185c-36.851-6.328-69.251-6.424-107.442-7.725c-10.148,0.428-73.036,42.131-94.103,60.392
				c-19.662,49.858,7.726,125.704,25.633,146.77c12.64,7.373,55.126,22.82,93.048,24.929
				C424.218,658.237,438.12,656.966,454.429,654.743z"/>
			<linearGradient id="SVGID_12_" gradientUnits="userSpaceOnUse" x1="507.8633" y1="518.5955" x2="357.0592" y2="547.3206">
				<stop  offset="6.030000e-006" style="stop-color:#F3B190"/>
				<stop  offset="1" style="stop-color:#FFD1AF"/>
			</linearGradient>
			<path fill="url(#SVGID_12_)" d="M486.717,433.517c-36.851-6.328-67.669-14.152-105.862-15.453
				c-0.188,0.009-0.418,0.05-0.635,0.084c-3.268,61.727,39.959,145.986,23.633,193.388c3.514,23.524,3.514,36.867,0.703,46.001
				c10.533,1.047,58.637-3.515,72.683-9.486c3.862-7.724,9.831-22.82,11.938-35.463
				C495.822,572.705,495.257,485.652,486.717,433.517z"/>
			<path fill="#944D09" d="M400.868,487.59c6.145,2.104,81.284-9.834,93.223-9.481c6.321,1.58,17.029,8.248,21.419,10.18
				c5.619,12.643,6.672,40.559,0.703,59.869c-2.107,3.162-4.741,5.795-4.741,5.795s3.687,3.162,3.687,6.844
				c0.876,17.91-3.512,46.176-11.587,50.387c-28.44,8.78-72.33,11.942-86.377,10.533
				C412.981,611.183,402.448,504.443,400.868,487.59z"/>
			<linearGradient id="SVGID_13_" gradientUnits="userSpaceOnUse" x1="578.7539" y1="551.9822" x2="351.6859" y2="556.4345">
				<stop  offset="6.030000e-006" style="stop-color:#F3B190"/>
				<stop  offset="0.1055" style="stop-color:#F4B594"/>
				<stop  offset="0.9989" style="stop-color:#FFD1AF"/>
			</linearGradient>
			<path fill="url(#SVGID_13_)" d="M405.255,620.316c-11.232-18.261-11.232-45.649-10.707-58.992
				c-7.373-17.905-14.57-44.944-9.654-66.711c8.426,0,16.5,2.982,16.5,2.982s48.193-8.428,69.875-8.601
				c6.495,2.545,26.86,5.708,31.601,7.023c7.375,11.851,6.321,32.301,2.107,49.86c-2.808,4.562-16.853,7.724-16.853,7.724
				s7.021,2.104,14.045,2.809c3.512,12.638,2.106,37.924-6.322,48.458C474.781,613.992,417.897,621.365,405.255,620.316z"/>
			<path fill="#944D09" d="M415.265,557.639c-2.459,0.524,0.525,2.108,3.336,2.805c28.789,3.162,70.224-0.696,86.376-4.562
				c1.229-2.629,3.16-6.668,4.038-9.477C493.391,552.372,444.935,557.81,415.265,557.639z"/>
			<path fill="#944D09" d="M405.96,496.371c-1.758-0.353-7.727-3.515-9.131-3.515c0.965,4.038-0.525,10.27,1.053,17.905
				C400.692,503.742,404.905,498.475,405.96,496.371z"/>
			<path fill="#944D09" d="M377.167,415.259c18.961-4.566,76.545-5.619,94.102-4.215c10.27,2.105,28.354,7.02,34.938,11.238
				c7.727,11.146,10.707,53.717,2.28,72.68c-10.445,4.302-32.477,9.128-39.324,9.128c-6.847,0-61.095-3.334-72.157-4.739
				C387.878,490.575,365.405,454.936,377.167,415.259z"/>
			<linearGradient id="SVGID_14_" gradientUnits="userSpaceOnUse" x1="577.4795" y1="462.3677" x2="357.6682" y2="457.921">
				<stop  offset="6.030000e-006" style="stop-color:#F3B190"/>
				<stop  offset="1" style="stop-color:#FFD1AF"/>
			</linearGradient>
			<path fill="url(#SVGID_14_)" d="M472.497,494.962c0,0-71.98,2.104-86.904,1.055c-4.037-14.572-15.098-50.211-1.404-70.225
				c22.123-3.161,76.721-4.566,84.621-2.721c5.794,1.845,22.912,8.16,28.179,11.851c4.74,13.426,0.527,46.344-3.95,54.512
				C487.507,491.539,472.497,494.962,472.497,494.962z"/>
			<linearGradient id="SVGID_15_" gradientUnits="userSpaceOnUse" x1="575.9971" y1="475.1943" x2="461.4982" y2="457.3044">
				<stop  offset="6.030000e-006" style="stop-color:#F3B190"/>
				<stop  offset="1" style="stop-color:#FFD1AF"/>
			</linearGradient>
			<path fill="url(#SVGID_15_)" d="M497.25,432.464c-5.267-3.69-19.224-8.076-28.967-9.658c14.921,14.22,10.71,61.269,4.391,71.803
				c8.954-0.524,19.31-2.81,25.631-4.915C503.571,474.247,504.031,444.75,497.25,432.464z"/>
		</g>
	</g>
</g>
<g>
	<path fill="#93AB20" d="M117.369,418.659C68.293,428.201,2.863,500.244,0,543.184c7.16,47.233,27.197,93.034,84.451,124.525
		c65.838,27.195,217.56-5.725,230.44-8.588c-24.331-20.041-54.389-103.055-21.469-191.796
		c-21.471-4.295-50.161-10.118-68.704-20.038C191.838,429.7,168.896,408.642,117.369,418.659z"/>
	<path fill="#DBF74A" d="M157.543,665.519c-29.223,0-51.936-3.18-67.527-9.453c-44.797-24.843-68.613-59.864-77.049-113.333
		c3.713-35.75,62.932-102.888,106.863-111.43c8.145-1.582,15.566-2.354,22.68-2.354c24.545,0,41.137,9.632,60.348,20.785
		c5.041,2.925,10.25,5.949,15.785,8.911c16.275,8.706,38.511,14.272,57.921,18.385c-21.942,72.287-5.934,139.303,15.096,173.698
		c-29.504,5.651-84.837,14.79-134.11,14.79C157.543,665.519,157.549,665.519,157.543,665.519z"/>
	<linearGradient id="SVGID_16_" gradientUnits="userSpaceOnUse" x1="152.3018" y1="778.6995" x2="137.2349" y2="402.0249">
		<stop  offset="0" style="stop-color:#949FA1"/>
		<stop  offset="1" style="stop-color:#B7C6C9"/>
	</linearGradient>
	<path fill="url(#SVGID_16_)" d="M90.174,500.244c-22.805,51.314-17.316,118.919,16.641,161.56
		c14.027,3.233,63.871,5.905,77.85,2.887c-24.025-48.145-24.545-112.351-8.611-160.153c7.139-18.563,17.621-36.637,30.775-52.513
		c-6.084-5.456-30.775-22.631-55.42-22.633C124.576,446.35,102.592,470.753,90.174,500.244z"/>
</g>
</svg>
