<?xml version="1.0" encoding="UTF-8" standalone="no"?>
<!-- Generator: Adobe Illustrator 15.0.0, SVG Export Plug-In . SVG Version: 6.00 Build 0)  -->

<svg
   xmlns:dc="http://purl.org/dc/elements/1.1/"
   xmlns:cc="http://creativecommons.org/ns#"
   xmlns:rdf="http://www.w3.org/1999/02/22-rdf-syntax-ns#"
   xmlns:svg="http://www.w3.org/2000/svg"
   xmlns="http://www.w3.org/2000/svg"
   xmlns:sodipodi="http://sodipodi.sourceforge.net/DTD/sodipodi-0.dtd"
   xmlns:inkscape="http://www.inkscape.org/namespaces/inkscape"
   version="1.1"
   id="_x30_1_1_"
   x="0px"
   y="0px"
   width="1019.455px"
   height="1003.844px"
   viewBox="0 0 1019.455 1003.844"
   enable-background="new 0 0 1019.455 1003.844"
   xml:space="preserve"
   inkscape:version="0.91 r13725"
   sodipodi:docname="Fluo_Tshirt_NH_01.svg"><metadata
     id="metadata132"><rdf:RDF><cc:Work
         rdf:about=""><dc:format>image/svg+xml</dc:format><dc:type
           rdf:resource="http://purl.org/dc/dcmitype/StillImage" /><dc:title></dc:title></cc:Work></rdf:RDF></metadata><defs
     id="defs130" /><sodipodi:namedview
     pagecolor="#ffffff"
     bordercolor="#666666"
     borderopacity="1"
     objecttolerance="10"
     gridtolerance="10"
     guidetolerance="10"
     inkscape:pageopacity="0"
     inkscape:pageshadow="2"
     inkscape:window-width="1473"
     inkscape:window-height="704"
     id="namedview128"
     showgrid="false"
     inkscape:zoom="0.23509629"
     inkscape:cx="509.72751"
     inkscape:cy="501.922"
     inkscape:window-x="9"
     inkscape:window-y="30"
     inkscape:window-maximized="0"
     inkscape:current-layer="_x30_1_1_" /><g
     id="Fluo_x5F_Tshirt_2_"><g
       id="g4"><path
         fill="#93AB20"
         d="M916.043,126.67c37.929,18.25,95.183,84.45,98.043,154.583c1.432,67.271,3.936,174.622,5.368,214.697    c-35.783,24.332-102.34,29.343-152.436,19.323C875.607,458.379,914.613,168.178,916.043,126.67z"
         id="path6" /><path
         fill="#DBF74A"
         d="M904.216,507.771c-9.333,0-17.962-0.528-25.773-1.57c-6.923-53.88,18.138-190.959,35.022-283.317    c5.589-30.579,10.183-55.704,12.877-73.427c33.105,26.086,72.596,75.138,74.863,130.722c0.841,39.638,4.259,192.974,5.368,209.331    C979.873,504.52,946.315,507.771,904.216,507.771z"
         id="path8" /></g><g
       id="g10"><path
         fill="#93AB20"
         d="M227.579,70.849C270.519,62.262,461.241,10.734,473.048,0c57.969,90.172,257.282,102.696,275.53,13.596    c33.279,26.836,133.469,92.679,177.482,117.369c11.283,20.64,1.517,49.984,7.516,78.365    c24.312,74.604,28.273,191.262-13.239,338.148c-6.131,192.287,10.496,360.955,13.239,398.264    c-18.609,45.802-388.247,111.643-600.081-17.175c5.724-52.958,32.563-188.575,13.955-310.238    C275.886,498.097,177.125,312.385,227.579,70.849z"
         id="path12" /><path
         fill="#B7D130"
         d="M660.119,990.603c-87.475,0-211.317-12.139-309.984-69.2c1.009-7.999,2.344-17.437,3.826-27.917    c9.335-65.975,22.266-175.55,6.752-276.969l-0.38-2.482l-1.283-2.158C299.075,511.118,190.704,323.681,238.18,80.58    c42.964-9.729,185.233-46.055,230.58-64.395c37.719,48.331,110.807,70.091,169.405,70.091c58.183,0,101.692-19.956,118.955-53.243    c39.427,30.847,115.177,87.095,158.603,106.863c50.058,98.417,41.74,228.85-7.78,404.078l-0.43,1.519l-0.051,1.575    c-5.389,168.988,13.969,392.33,14.306,396.528C907.651,959.619,802.968,990.603,660.119,990.603z"
         id="path14" /><path
         fill="#DBF74A"
         d="M907.461,547.068l0.051-1.575l0.43-1.519c49.521-175.229,63.923-302.799,7.78-404.078    C872.296,120.128,796.546,63.88,757.119,33.034c-17.262,33.287-60.772,53.243-118.955,53.243    c-58.599,0-131.686-21.76-169.405-70.091c-38.786,15.687-148.435,44.519-206.244,58.625    c-1.453,89.567,7.466,179.073,36.629,266.558c30.057,94.467,107.348,167.465,128.818,270.521    c26.549,117.567-3.828,228.435-8.332,341.482c82.897,29.911,172.633,37.232,240.488,37.232    c142.849,0,247.532-30.984,261.648-47.007C921.43,939.398,902.073,716.056,907.461,547.068z"
         id="path16" /><g
         id="g18"><path
           fill="#93AB20"
           d="M633.201,127.048c-1.147,0-2.296-0.006-3.458-0.019c-97.919-1.101-195.216-77.092-198.539-106.27     l6.399-0.729c3.057,26.831,99.24,99.514,192.211,100.558c93.419,1.016,142.953-43.818,148.148-76.016l6.356,1.027     C779.201,77.332,733.64,127.048,633.201,127.048z"
           id="path20" /></g><path
         fill="#B7D130"
         d="M312.026,416.513c77.292,89.458,324.194,133.112,412.218,122.378    c-118.083,42.939-280.538,33.637-323.478,31.49C362.121,516.706,327.054,437.982,312.026,416.513z"
         id="path22" /><linearGradient
         id="SVGID_1_"
         gradientUnits="userSpaceOnUse"
         x1="281.582"
         y1="395.3271"
         x2="676.6252"
         y2="282.2548"><stop
           offset="0"
           style="stop-color:#949FA1"
           id="stop25" /><stop
           offset="1"
           style="stop-color:#B7C6C9"
           id="stop27" /></linearGradient><path
         fill="url(#SVGID_1_)"
         d="M912.859,449.995c5.36-117.388,6.59-260.012-25.442-325.827    c-27.324-16.158-59.192-39.034-87.312-59.759c33.045,82.162,30.194,254.468,27.271,393.792    c-91.244,5.562-211.062,4.771-329.076-6.531c-3.923-144.385-25.082-340.027-81.786-418.751    c-26.913,8.055-58.477,16.457-88.386,24.333c59.76,117.446,65.041,273.297,67.664,381.669    c-47.14-7.349-92.458-16.686-133.816-28.313c13.053,38.811,28.491,74.122,44.15,105.69    c192.999,52.753,469.196,61.495,603.477,24.024c9.267-32.974,17.222-63.697,23.437-93.573    C926.8,447.883,920.045,448.965,912.859,449.995z"
         id="path29" /><linearGradient
         id="SVGID_2_"
         gradientUnits="userSpaceOnUse"
         x1="363.1343"
         y1="794.709"
         x2="913.9839"
         y2="794.709"><stop
           offset="0"
           style="stop-color:#949FA1"
           id="stop32" /><stop
           offset="1"
           style="stop-color:#B7C6C9"
           id="stop34" /></linearGradient><path
         fill="url(#SVGID_2_)"
         d="M367.132,719.596c0.002,30.822-1.621,60.796-3.998,88.433    c161.74,74.383,404.319,82.296,550.85,20.032c-1.562-26.683-3.183-56.542-4.428-87.891    C783.958,794.918,501.257,779.356,367.132,719.596z"
         id="path36" /><path
         fill="#868F98"
         d="M367.132,719.596c0.002,30.822-1.621,60.796-3.998,88.433c21.213,9.755,43.857,18.331,67.479,25.778    c2.265-29.836,4.985-60.041,6.809-90.227C411.276,736.664,387.462,728.653,367.132,719.596z"
         id="path38" /><path
         fill="#868F98"
         d="M499.303,552.169c-42.394-11.609-81.078-26.714-116.631-46.444    c-15.329-24.691-29.118-50.261-41.921-76.519c-27.401-5.412-53.824-11.582-78.776-18.598    c13.053,38.811,28.491,74.122,44.15,105.69c30.799,8.418,63.769,15.696,97.956,21.847c-0.013-0.018-0.024-0.037-0.04-0.056    C434.339,543.817,465.951,548.317,499.303,552.169z"
         id="path40" /></g><g
       id="g42"><path
         fill="#93AB20"
         d="M0,344.23c46.159,37.572,210.403,100.193,231.873,104.487c15.901-29.352,51.527-124.524,62.978-233.305    c18.607-77.292,21.826-119.155,23.257-139.91c-72.638-31.49-159.591,7.156-200.384,84.447C76.932,245.828,15.028,322.761,0,344.23    z"
         id="path44" /><path
         fill="#DBF74A"
         d="M226.146,432.973c-38.791-12.636-156.865-56.378-207.541-90.172    c2.438-3.081,78.132-108.746,110.637-177.071c29.409-55.491,94.416-94.224,158.184-94.224c11.133,0,21.849,1.213,31.946,3.617    C331.188,126.017,257.629,363.798,226.146,432.973z"
         id="path46" /></g></g></svg>