<?xml version="1.0" encoding="UTF-8" standalone="no"?>
<!-- Generator: Adobe Illustrator 15.0.0, SVG Export Plug-In . SVG Version: 6.00 Build 0)  -->

<svg
   xmlns:dc="http://purl.org/dc/elements/1.1/"
   xmlns:cc="http://creativecommons.org/ns#"
   xmlns:rdf="http://www.w3.org/1999/02/22-rdf-syntax-ns#"
   xmlns:svg="http://www.w3.org/2000/svg"
   xmlns="http://www.w3.org/2000/svg"
   xmlns:sodipodi="http://sodipodi.sourceforge.net/DTD/sodipodi-0.dtd"
   xmlns:inkscape="http://www.inkscape.org/namespaces/inkscape"
   version="1.1"
   id="_x30_1_1_"
   x="0px"
   y="0px"
   width="210mm"
   height="297mm"
   viewBox="0 0 744.09448 1052.3622"
   enable-background="new 0 0 1019.455 1003.844"
   xml:space="preserve"
   inkscape:version="0.91 r13725"
   sodipodi:docname="hand_man_1_abs.svg"><metadata
     id="metadata132"><rdf:RDF><cc:Work
         rdf:about=""><dc:format>image/svg+xml</dc:format><dc:type
           rdf:resource="http://purl.org/dc/dcmitype/StillImage" /><dc:title></dc:title></cc:Work></rdf:RDF></metadata><defs
     id="defs130" /><sodipodi:namedview
     pagecolor="#ffffff"
     bordercolor="#666666"
     borderopacity="1"
     objecttolerance="10"
     gridtolerance="10"
     guidetolerance="10"
     inkscape:pageopacity="0"
     inkscape:pageshadow="2"
     inkscape:window-width="2056"
     inkscape:window-height="934"
     id="namedview128"
     showgrid="false"
     inkscape:zoom="0.24"
     inkscape:cx="-939.95228"
     inkscape:cy="539.48213"
     inkscape:window-x="146"
     inkscape:window-y="175"
     inkscape:window-maximized="0"
     inkscape:current-layer="_x30_1_1_"
     units="mm" /><g
     id="g48"
     transform="translate(155.75307,21.489333)"><g
       id="g50"><path
         d="M 135.91,490.223 C 142.755,475.474 155.222,438.96 162.594,430.707 166.908,425.881 198.409,400.159 204.381,388.92 210.7,378.387 214.387,351.529 216.844,322.208 221.584,302.722 281.125,308.778 284.436,347.843 287.948,389.273 270.04,433.516 260.559,455.283 248.971,458.974 144.335,487.061 135.91,490.223 Z"
         id="path52"
         inkscape:connector-curvature="0"
         style="fill:#944d09" /><linearGradient
         id="SVGID_3_"
         gradientUnits="userSpaceOnUse"
         x1="174.94479"
         y1="388.74799"
         x2="238.14771"
         y2="409.289"><stop
           offset="0.0126"
           style="stop-color:#FFBD99"
           id="stop55" /><stop
           offset="1"
           style="stop-color:#E3A586"
           id="stop57" /></linearGradient><path
         d="M 155.572,471.789 C 160.108,459.561 165.73,443.644 170.496,437.026 172.917,433.663 187.424,422.308 194.722,414.907 202.629,406.886 209.083,401.854 211.162,398.918 220.004,386.464 226.676,353.811 227.376,326.424 234.75,317.995 268.986,322.734 273.724,345.909 278.037,366.993 266,411.569 256.872,433.341 256.872,433.341 276.333,433.311 277.413,438.084 274.78,438.817 184.338,464.333 155.572,471.789 Z"
         id="path59"
         style="fill:url(#SVGID_3_)"
         inkscape:connector-curvature="0" /><linearGradient
         id="SVGID_4_"
         gradientUnits="userSpaceOnUse"
         x1="202.8916"
         y1="388.3848"
         x2="337.27679"
         y2="426.7012"><stop
           offset="6.030000e-006"
           style="stop-color:#F3B190"
           id="stop62" /><stop
           offset="0.1127"
           style="stop-color:#F8BE9D"
           id="stop64" /><stop
           offset="0.2821"
           style="stop-color:#FDCCAA"
           id="stop66" /><stop
           offset="0.43"
           style="stop-color:#FFD1AF"
           id="stop68" /></linearGradient><path
         d="M 229.659,333.795 C 230.711,346.962 227.552,380.672 223.338,403.319 209.118,418.592 197.33,432.044 190.684,462.831 226.872,452.834 275.605,438.586 277.413,438.082 276.333,433.309 256.872,433.339 256.872,433.339 266,411.567 278.037,366.991 273.724,345.907 270.508,330.178 253.712,322.962 240.941,322.573 235.979,322.208 229.659,327.476 229.659,333.795 Z"
         id="path70"
         style="fill:url(#SVGID_4_)"
         inkscape:connector-curvature="0" /></g><g
       id="g72"><path
         d="M 125.902,474.95 C 144.863,469.684 169.618,461.784 169.618,461.784 169.618,461.784 178.57,449.141 193.318,436.498 208.567,423.427 221.128,416.698 228.605,414.206 266.175,415.959 286.889,413.149 327.621,420.173 346.919,468.921 358.58,532.814 348.69,607.673 346.23,626.283 337.454,646.298 332.888,653.67 312.523,668.417 267.053,673.689 245.46,672.632 217.545,669.997 176.639,659.994 164.35,655.074 168.563,643.136 178.044,543.243 125.902,474.95 Z"
         id="path74"
         inkscape:connector-curvature="0"
         style="fill:#944d09" /><linearGradient
         id="SVGID_5_"
         gradientUnits="userSpaceOnUse"
         x1="136.459"
         y1="682.82843"
         x2="207.65131"
         y2="593.63422"><stop
           offset="0.0126"
           style="stop-color:#FFBD99"
           id="stop77" /><stop
           offset="1"
           style="stop-color:#E3A586"
           id="stop79" /></linearGradient><path
         d="M 254.237,662.451 C 212.334,662.451 172.777,647.002 153.815,641.383 133.802,621.364 111.68,541.31 133.45,486.184 154.516,467.922 217.405,426.219 227.552,425.792 265.744,427.092 298.145,427.188 334.995,433.516 343.952,488.201 339.562,618.907 324.462,647.702 317.44,652.27 285.137,659.641 254.237,662.451 Z"
         id="path81"
         style="fill:url(#SVGID_5_)"
         inkscape:connector-curvature="0" /><linearGradient
         id="SVGID_6_"
         gradientUnits="userSpaceOnUse"
         x1="267.3262"
         y1="542.77863"
         x2="34.429699"
         y2="523.65387"><stop
           offset="0.0126"
           style="stop-color:#FFBD99"
           id="stop84" /><stop
           offset="1"
           style="stop-color:#E3A586"
           id="stop86" /></linearGradient><path
         d="M 302.706,654.744 C 313.347,652.274 321.364,649.711 324.461,647.702 339.561,618.908 343.951,488.202 334.994,433.516 298.144,427.188 265.744,427.092 227.551,425.792 217.404,426.22 154.515,467.922 133.449,486.184 113.787,536.042 141.175,611.888 159.082,632.954 171.722,640.327 214.208,655.774 252.13,657.883 272.495,658.237 286.397,656.966 302.706,654.744 Z"
         id="path88"
         style="fill:url(#SVGID_6_)"
         inkscape:connector-curvature="0" /><linearGradient
         id="SVGID_7_"
         gradientUnits="userSpaceOnUse"
         x1="356.14111"
         y1="518.59552"
         x2="205.3356"
         y2="547.32092"><stop
           offset="6.030000e-006"
           style="stop-color:#F3B190"
           id="stop91" /><stop
           offset="1"
           style="stop-color:#FFD1AF"
           id="stop93" /></linearGradient><path
         d="M 334.995,433.517 C 298.145,427.189 267.326,419.365 229.133,418.064 228.945,418.073 228.714,418.114 228.497,418.148 225.23,479.874 268.457,564.135 252.131,611.536 255.644,635.061 255.644,648.403 252.833,657.537 263.367,658.584 311.471,654.022 325.516,648.051 329.378,640.327 335.347,625.231 337.454,612.588 344.1,572.705 343.535,485.652 334.995,433.517 Z"
         id="path95"
         style="fill:url(#SVGID_7_)"
         inkscape:connector-curvature="0" /><path
         d="M 249.146,487.59 C 255.292,489.694 330.431,477.756 342.369,478.109 348.69,479.689 359.398,486.357 363.788,488.289 369.407,500.932 370.46,528.848 364.491,548.158 362.384,551.32 359.75,553.952 359.75,553.952 359.75,553.952 363.436,557.114 363.436,560.796 364.312,578.706 359.925,606.973 351.85,611.183 323.41,619.964 279.52,623.125 265.473,621.716 261.26,611.184 250.726,504.443 249.146,487.59 Z"
         id="path97"
         inkscape:connector-curvature="0"
         style="fill:#944d09" /><linearGradient
         id="SVGID_8_"
         gradientUnits="userSpaceOnUse"
         x1="427.03171"
         y1="551.98218"
         x2="199.9628"
         y2="556.43451"><stop
           offset="6.030000e-006"
           style="stop-color:#F3B190"
           id="stop100" /><stop
           offset="0.1055"
           style="stop-color:#F4B594"
           id="stop102" /><stop
           offset="0.9989"
           style="stop-color:#FFD1AF"
           id="stop104" /></linearGradient><path
         d="M 253.533,620.316 C 242.3,602.055 242.3,574.668 242.826,561.324 235.452,543.419 228.255,516.38 233.171,494.613 241.598,494.613 249.671,497.594 249.671,497.594 249.671,497.594 297.865,489.165 319.546,488.993 326.041,491.539 346.406,494.701 351.147,496.017 358.522,507.868 357.468,528.318 353.254,545.877 350.446,550.439 336.401,553.601 336.401,553.601 336.401,553.601 343.422,555.705 350.446,556.41 353.958,569.048 352.552,594.334 344.124,604.868 323.059,613.993 266.175,621.365 253.533,620.316 Z"
         id="path106"
         style="fill:url(#SVGID_8_)"
         inkscape:connector-curvature="0" /><path
         d="M 263.543,557.639 C 261.084,558.163 264.067,559.747 266.879,560.443 295.668,563.605 337.102,559.747 353.254,555.881 354.483,553.252 356.414,549.213 357.292,546.404 341.668,552.372 293.213,557.811 263.543,557.639 Z"
         id="path108"
         inkscape:connector-curvature="0"
         style="fill:#944d09" /><path
         d="M 254.237,496.371 C 252.48,496.018 246.511,492.856 245.107,492.856 246.072,496.894 244.581,503.126 246.159,510.762 248.971,503.742 253.183,498.475 254.237,496.371 Z"
         id="path110"
         inkscape:connector-curvature="0"
         style="fill:#944d09" /><path
         d="M 225.444,415.259 C 244.405,410.692 301.989,409.639 319.546,411.044 329.816,413.15 347.9,418.064 354.484,422.282 362.211,433.428 365.191,475.999 356.764,494.962 346.319,499.264 324.287,504.09 317.44,504.09 310.594,504.09 256.345,500.756 245.283,499.351 236.156,490.575 213.683,454.936 225.444,415.259 Z"
         id="path112"
         inkscape:connector-curvature="0"
         style="fill:#944d09" /><linearGradient
         id="SVGID_9_"
         gradientUnits="userSpaceOnUse"
         x1="425.75729"
         y1="462.36771"
         x2="205.946"
         y2="457.92099"><stop
           offset="6.030000e-006"
           style="stop-color:#F3B190"
           id="stop115" /><stop
           offset="1"
           style="stop-color:#FFD1AF"
           id="stop117" /></linearGradient><path
         d="M 320.775,494.962 C 320.775,494.962 248.795,497.066 233.871,496.018 229.833,481.446 218.773,445.807 232.467,425.793 254.589,422.631 309.188,421.226 317.088,423.072 322.882,424.917 340,431.232 345.267,434.923 350.007,448.349 345.794,481.267 341.317,489.435 335.785,491.54 320.775,494.962 320.775,494.962 Z"
         id="path119"
         style="fill:url(#SVGID_9_)"
         inkscape:connector-curvature="0" /><linearGradient
         id="SVGID_10_"
         gradientUnits="userSpaceOnUse"
         x1="424.27689"
         y1="475.19531"
         x2="309.7753"
         y2="457.30499"><stop
           offset="6.030000e-006"
           style="stop-color:#F3B190"
           id="stop122" /><stop
           offset="1"
           style="stop-color:#FFD1AF"
           id="stop124" /></linearGradient><path
         d="M 345.528,432.464 C 340.261,428.774 326.304,424.388 316.561,422.806 331.482,437.026 327.271,484.075 320.952,494.609 329.906,494.085 340.262,491.799 346.583,489.694 351.849,474.247 352.309,444.75 345.528,432.464 Z"
         id="path126"
         style="fill:url(#SVGID_10_)"
         inkscape:connector-curvature="0" /></g></g></svg>