<?xml version="1.0" encoding="UTF-8" standalone="no"?>
<!-- Generator: Adobe Illustrator 15.0.0, SVG Export Plug-In . SVG Version: 6.00 Build 0)  -->

<svg
   xmlns:dc="http://purl.org/dc/elements/1.1/"
   xmlns:cc="http://creativecommons.org/ns#"
   xmlns:rdf="http://www.w3.org/1999/02/22-rdf-syntax-ns#"
   xmlns:svg="http://www.w3.org/2000/svg"
   xmlns="http://www.w3.org/2000/svg"
   xmlns:sodipodi="http://sodipodi.sourceforge.net/DTD/sodipodi-0.dtd"
   xmlns:inkscape="http://www.inkscape.org/namespaces/inkscape"
   version="1.1"
   id="_x30_1_1_"
   x="0px"
   y="0px"
   width="1248.111px"
   height="1003.844px"
   viewBox="0 0 1248.111 1003.844"
   enable-background="new 0 0 1248.111 1003.844"
   xml:space="preserve"
   inkscape:version="0.91 r13725"
   sodipodi:docname="Tshirt_Long_NH_01.svg"><metadata
     id="metadata148"><rdf:RDF><cc:Work
         rdf:about=""><dc:format>image/svg+xml</dc:format><dc:type
           rdf:resource="http://purl.org/dc/dcmitype/StillImage" /><dc:title></dc:title></cc:Work></rdf:RDF></metadata><defs
     id="defs146" /><sodipodi:namedview
     pagecolor="#ffffff"
     bordercolor="#666666"
     borderopacity="1"
     objecttolerance="10"
     gridtolerance="10"
     guidetolerance="10"
     inkscape:pageopacity="0"
     inkscape:pageshadow="2"
     inkscape:window-width="969"
     inkscape:window-height="480"
     id="namedview144"
     showgrid="false"
     inkscape:zoom="0.22594145"
     inkscape:cx="624.05548"
     inkscape:cy="501.922"
     inkscape:window-x="0"
     inkscape:window-y="21"
     inkscape:window-maximized="0"
     inkscape:current-layer="_x30_1_1_" /><g
     id="Tshirt_x5F_Long_6_"><g
       id="g4"><path
         fill="#999999"
         d="M1062.756,127.386c44.549,9.483,102.34,76.934,105.201,147.068    c1.432,67.271,13.598,288.054,15.029,328.129c31.488,97.33,55.105,148.144,65.125,382.879    c-35.426,12.882-114.455,12.893-139.553,7.873c-36.867-90.401-89.746-215.872-95.898-347.812    C1001.379,403.525,1061.83,154.248,1062.756,127.386z"
         id="path6" /><path
         fill="#E8EBED"
         d="M1167.854,987.95c-20.115,0-37.25-1.189-47.951-2.602c-37.234-91.368-86.32-214.426-92.227-341.141    c-8.83-189.387,27.193-386.423,42.574-470.559c2.156-11.785,3.822-20.95,5.037-28.062c36.574,20.757,79.646,72.379,81.945,128.676    c0.924,43.432,6.424,152.88,10.441,232.796c2.191,43.57,4.082,81.197,4.586,95.268l0.064,1.797c0,0,4.281,13.191,6.1,18.761    c27.951,85.669,47.98,145.927,57.521,356.851C1219.678,983.726,1195.791,987.95,1167.854,987.95z"
         id="path8" /><path
         fill="#FFFFFF"
         d="M1235.945,979.736c-9.541-210.924-29.57-271.183-57.521-356.851c-1.818-5.57-6.1-18.761-6.1-18.761    l-0.064-1.797c-0.504-14.071-2.395-51.698-4.586-95.268c-4.018-79.916-9.518-189.364-10.441-232.796    c-2.299-56.297-45.371-107.919-81.945-128.676c-1.215,7.111-2.881,16.277-5.037,28.062c-8.35,45.682-3.898,111.987-13.936,204.937    c11.518,66.365-4.293,150.285,19.322,246.185c6.441,107.349,57.969,300.577,76.852,362.939c4.873,0.152,10.002,0.241,15.365,0.241    C1195.791,987.95,1219.678,983.726,1235.945,979.736z"
         id="path10" /></g><g
       id="g12"><path
         fill="#999999"
         d="M379.302,70.849C422.241,62.262,612.963,10.734,624.771,0C682.739,90.172,882.054,102.696,900.3,13.596    c33.279,26.836,133.472,96.973,176.948,118.979c11.281,20.639,2.053,48.374,8.051,76.754    c24.313,74.604,28.273,191.262-13.238,338.148c-6.131,192.287,10.496,360.955,13.238,398.264    c-18.609,45.802-388.247,111.643-600.081-17.175c5.724-52.958,32.563-188.575,13.955-310.238    C427.608,498.097,328.848,312.385,379.302,70.849z"
         id="path14" /><path
         fill="#E8EBED"
         d="M811.841,990.603c-87.475,0-211.317-12.139-309.984-69.2c1.009-7.999,2.345-17.437,3.826-27.917    c9.335-65.975,22.266-175.55,6.752-276.969l-0.38-2.482l-1.283-2.158C450.798,511.118,342.426,323.681,389.901,80.58    c42.965-9.729,185.233-46.055,230.58-64.395c37.72,48.331,110.807,70.091,169.404,70.091c58.184,0,101.693-19.956,118.955-53.243    c39.429,30.847,115.179,87.095,158.604,106.863c50.057,98.417,41.74,228.85-7.781,404.078l-0.43,1.519l-0.051,1.575    c-5.389,168.988,13.969,392.33,14.307,396.528C1059.373,959.619,954.691,990.603,811.841,990.603z"
         id="path16" /><path
         fill="#FFFFFF"
         d="M1059.184,547.068l0.051-1.575l0.43-1.519c49.521-175.229,57.838-305.661,7.781-404.078    C1024.02,120.128,948.27,63.88,908.841,33.034c-17.262,33.287-60.771,53.243-118.955,53.243    c-58.598,0-131.685-21.76-169.404-70.091c-38.786,15.687-148.435,44.519-206.244,58.625    c-1.453,89.567,7.467,179.073,36.629,266.558c30.058,94.467,107.349,167.465,128.818,270.521    c26.549,117.567-3.828,228.435-8.332,341.482c82.897,29.911,172.633,37.232,240.488,37.232    c142.851,0,247.532-30.984,261.649-47.007C1073.152,939.398,1053.795,716.056,1059.184,547.068z"
         id="path18" /><g
         id="g20"><path
           fill="#999999"
           d="M784.923,127.048c-1.148,0-2.297-0.006-3.459-0.019c-97.918-1.101-195.215-77.092-198.538-106.27     l6.399-0.729c3.057,26.831,99.239,99.514,192.211,100.558c93.42,1.016,142.953-43.818,148.148-76.016l6.355,1.027     C930.923,77.332,885.362,127.048,784.923,127.048z"
           id="path22" /></g><path
         fill="#E8EBED"
         d="M463.749,416.513c81.584,79.438,324.193,113.79,412.219,103.055    c-118.084,42.94-287.694,38.646-330.635,36.498C506.688,502.392,478.776,437.982,463.749,416.513z"
         id="path24" /></g><g
       id="g26"><path
         fill="#999999"
         d="M70.852,461.6c63.336,17.176,249.05,77.291,270.52,81.585c13.955-31.131,99.835-158.877,105.202-327.773    c18.606-77.292,24.33-118.082,25.763-138.836c-78.724-45.801-166.749,14.313-207.542,91.604    C224.719,244.04,82.66,428.322,70.852,461.6z"
         id="path28" /><path
         fill="#FFFFFF"
         d="M334.496,528.126c-19.948-5.589-63.938-19.251-106.734-32.544    c-48.891-15.184-103.395-32.114-138.229-42.122c12.104-20.05,37.953-56.249,63.129-91.502    c46.609-65.265,104.598-146.466,128.303-196.231c28.511-53.836,83.346-94.878,136.624-94.878c14.766,0,47.299-1.931,61.188,3.221    c-2.298,22.116-8.655,48.254-24.689,114.863l-3.221,27.912c-21.471,108.422-83.174,250.307-109.469,298.516    C338.735,520.243,336.434,524.463,334.496,528.126z"
         id="path30" /></g></g><g
     id="g138"><path
       fill="#999999"
       d="M117.369,418.66C68.293,428.201,2.863,500.245,0,543.185c7.16,47.233,27.197,93.034,84.451,124.525   c65.838,27.195,217.56-5.725,230.44-8.588c-24.331-20.04-54.389-103.056-21.469-191.796c-21.471-4.295-50.161-10.118-68.704-20.039   C191.838,429.701,168.896,408.642,117.369,418.66z"
       id="path140" /><path
       fill="#FFFFFF"
       d="M157.543,665.52c-29.223,0-51.936-3.18-67.527-9.454c-44.797-24.842-68.613-59.863-77.049-113.333   c3.713-35.75,62.932-102.887,106.863-111.429c8.145-1.583,15.566-2.354,22.68-2.354c24.545,0,41.137,9.632,60.348,20.786   c5.041,2.925,10.25,5.949,15.785,8.911c16.275,8.706,38.511,14.272,57.921,18.384c-21.942,72.288-5.934,139.303,15.096,173.698   c-29.504,5.652-84.837,14.791-134.11,14.791C157.543,665.52,157.549,665.52,157.543,665.52z"
       id="path142" /></g></svg>