<?xml version="1.0" encoding="UTF-8" standalone="no"?>
<!-- Generator: Adobe Illustrator 15.0.0, SVG Export Plug-In . SVG Version: 6.00 Build 0)  -->

<svg
   xmlns:dc="http://purl.org/dc/elements/1.1/"
   xmlns:cc="http://creativecommons.org/ns#"
   xmlns:rdf="http://www.w3.org/1999/02/22-rdf-syntax-ns#"
   xmlns:svg="http://www.w3.org/2000/svg"
   xmlns="http://www.w3.org/2000/svg"
   xmlns:sodipodi="http://sodipodi.sourceforge.net/DTD/sodipodi-0.dtd"
   xmlns:inkscape="http://www.inkscape.org/namespaces/inkscape"
   version="1.1"
   id="_x30_1_1_"
   x="0px"
   y="0px"
   width="1021.603px"
   height="1003.844px"
   viewBox="0 0 1021.603 1003.844"
   enable-background="new 0 0 1021.603 1003.844"
   xml:space="preserve"
   inkscape:version="0.91 r13725"
   sodipodi:docname="Tshirt_NH_01.svg"><metadata
     id="metadata114"><rdf:RDF><cc:Work
         rdf:about=""><dc:format>image/svg+xml</dc:format><dc:type
           rdf:resource="http://purl.org/dc/dcmitype/StillImage" /><dc:title></dc:title></cc:Work></rdf:RDF></metadata><defs
     id="defs112" /><sodipodi:namedview
     pagecolor="#ffffff"
     bordercolor="#666666"
     borderopacity="1"
     objecttolerance="10"
     gridtolerance="10"
     guidetolerance="10"
     inkscape:pageopacity="0"
     inkscape:pageshadow="2"
     inkscape:window-width="1465"
     inkscape:window-height="712"
     id="namedview110"
     showgrid="false"
     inkscape:zoom="0.23509629"
     inkscape:cx="510.80151"
     inkscape:cy="501.922"
     inkscape:window-x="9"
     inkscape:window-y="30"
     inkscape:window-maximized="0"
     inkscape:current-layer="_x30_1_1_" /><g
     id="Tshirt_1_"><g
       id="g4"><path
         fill="#999999"
         d="M916.044,126.67c43.296,15.029,96.256,85.523,99.117,155.656c1.432,67.272,5.009,173.549,6.441,213.624    c-35.784,24.332-104.129,31.49-154.225,21.47C850.203,445.855,914.613,168.178,916.044,126.67z"
         id="path6" /><path
         fill="#FFFFFF"
         d="M904.217,507.771c-9.333,0-17.962-0.528-25.773-1.57c-6.923-53.88,18.138-190.959,35.022-283.317    c5.589-30.579,10.182-55.704,12.877-73.427c33.105,26.086,72.595,75.138,74.863,130.722c0.841,39.638,4.259,192.974,5.368,209.331    C979.873,504.52,946.315,507.771,904.217,507.771z"
         id="path8" /></g><g
       id="g10"><path
         fill="#999999"
         d="M227.579,70.849C270.519,62.262,461.241,10.734,473.049,0c57.969,90.172,257.282,102.696,275.53,13.596    c33.279,26.836,130.25,96.973,176.41,116.295c11.282,20.639,2.59,51.058,8.589,79.438    c24.312,74.604,28.273,191.262-13.239,338.148c-6.131,192.287,10.496,360.955,13.239,398.264    c-18.609,45.802-388.247,111.643-600.081-17.175c5.724-52.958,32.563-188.575,13.955-310.238    C275.886,498.097,177.126,312.385,227.579,70.849z"
         id="path12" /><path
         fill="#E8EBED"
         d="M660.119,990.603c-87.475,0-211.317-12.139-309.984-69.2c1.009-7.999,2.345-17.437,3.826-27.917    c9.335-65.975,22.266-175.55,6.752-276.969l-0.38-2.482l-1.283-2.158C299.075,511.118,190.704,323.681,238.18,80.58    c42.964-9.729,185.233-46.055,230.58-64.395c37.72,48.331,110.807,70.091,169.405,70.091c58.182,0,101.692-19.956,118.954-53.243    c39.427,30.847,115.177,87.095,158.603,106.863c50.058,98.417,41.74,228.85-7.78,404.078l-0.43,1.519l-0.051,1.575    c-5.389,168.988,13.969,392.33,14.306,396.528C907.651,959.619,802.968,990.603,660.119,990.603z"
         id="path14" /><path
         fill="#FFFFFF"
         d="M907.462,547.068l0.051-1.575l0.43-1.519c49.521-175.229,57.838-305.661,7.78-404.078    C872.297,120.128,796.546,63.88,757.119,33.034c-17.262,33.287-60.772,53.243-118.954,53.243    c-58.599,0-131.686-21.76-169.405-70.091c-38.786,15.687-148.435,44.519-206.244,58.625    c-1.453,89.567,7.466,179.073,36.629,266.558c30.058,94.467,107.349,167.465,128.818,270.521    c26.549,117.567-3.828,228.435-8.332,341.482c82.897,29.911,172.633,37.232,240.488,37.232    c142.849,0,247.532-30.984,261.648-47.007C921.43,939.398,902.073,716.056,907.462,547.068z"
         id="path16" /><g
         id="g18"><path
           fill="#999999"
           d="M633.201,127.048c-1.147,0-2.296-0.006-3.458-0.019c-97.919-1.101-195.216-77.092-198.539-106.27     l6.399-0.729c3.057,26.831,99.239,99.514,192.211,100.558c93.419,1.016,142.952-43.818,148.148-76.016l6.356,1.027     C779.201,77.332,733.64,127.048,633.201,127.048z"
           id="path20" /></g><path
         fill="#E8EBED"
         d="M312.026,416.513c81.585,79.438,324.194,113.79,412.219,103.055    c-118.083,42.94-287.693,38.646-330.634,36.498C354.966,502.392,327.055,437.982,312.026,416.513z"
         id="path22" /></g><g
       id="g24"><path
         fill="#999999"
         d="M0,344.23c46.159,37.572,210.403,100.193,231.873,104.487c15.901-29.352,51.527-124.524,62.978-233.305    c18.607-77.292,24.331-118.082,25.764-138.836c-75.859-34.352-162.097,6.082-202.89,83.374    C76.932,245.828,15.028,322.761,0,344.23z"
         id="path26" /><path
         fill="#FFFFFF"
         d="M226.146,432.973c-38.79-12.636-156.866-56.378-207.541-90.172    c2.438-3.081,78.132-108.746,110.638-177.071c29.409-55.491,94.415-94.224,158.184-94.224c11.133,0,21.849,1.213,31.946,3.617    C331.188,126.017,257.629,363.798,226.146,432.973z"
         id="path28" /></g></g></svg>