<?xml version="1.0" encoding="utf-8"?>
<!-- Generator: Adobe Illustrator 15.0.0, SVG Export Plug-In . SVG Version: 6.00 Build 0)  -->
<!DOCTYPE svg PUBLIC "-//W3C//DTD SVG 1.1//EN" "http://www.w3.org/Graphics/SVG/1.1/DTD/svg11.dtd">
<svg version="1.1" id="Capa_2" xmlns="http://www.w3.org/2000/svg" xmlns:xlink="http://www.w3.org/1999/xlink" x="0px" y="0px"
	 width="942.357px" height="1099.241px" viewBox="0 0 942.357 1099.241" enable-background="new 0 0 942.357 1099.241"
	 xml:space="preserve">
<g>
	<g>
		<path fill="#999999" d="M797.887,109.234c155.775,57.453,137.205,319.549,144.471,404.336
			c-24.225,2.422-150.6,15.422-164.73,16.229c-1.213-10.901-48.049-392.121-49.26-398.984
			C738.057,128.394,792.639,110.851,797.887,109.234z"/>
		<path fill="#FFFFFF" d="M790.363,514.162c-7.607-62.238-38.307-312.551-45.969-372.872c11.906-3.622,29.834-9.292,48.244-15.148
			c1.785-0.568,3.389-1.076,4.756-1.511C918.117,173.765,921.367,366.17,925.4,469.966c0.439,11.337,1.92,21.535,2.422,30.685
			C880.941,505.321,819.109,511.571,790.363,514.162z"/>
	</g>
	<g>
		<g>
			<path fill="#999999" d="M168.164,81.759C266.679,46.633,393.455,8.478,415.258,0c9.689,117.896,239.828,124.759,239.828,18.168
				c18.168,12.113,142.502,86.321,167.135,102.472c15.16,119.187,62.834,205.553,61.188,320.255
				c-7.166,63.568-52.32,198.132-46.027,254.362c16.957,151.537,42.432,298.007,50.068,340.767
				c-103.365,92.862-495.811,83.172-665.386-27.455c24.225-97.708,68.64-231.752,61.372-311.696
				C254.365,583.017,139.094,231.952,168.164,81.759z"/>
			<path fill="#E8EBED" d="M615.521,1084.706c-146.729,0-292.867-32.32-376.784-82.838c4.649-18.228,9.88-37.521,15.362-57.756
				c23.312-85.997,49.729-183.467,43.813-248.554l-0.107-1.156l-0.287-1.125c-5.189-20.326-13.136-48.264-22.336-80.617
				C232.74,463.438,162.332,215.889,181.04,92.613c57.876-20.42,123.919-41.521,172.729-57.115
				c20.742-6.629,37.93-12.121,50.143-16.168c15.734,58.341,81.816,88.733,144.697,88.733c59.91,0,104.621-26.135,117.34-65.917
				c15.33,9.43,37.217,22.7,59.904,36.45c32.871,19.926,66.73,40.452,82.844,50.638c12.936,30.65,36.684,83.565,48.063,125.128
				c16.021,58.516,19.381,128.392,12.123,185.605c-2.783,23.917-11.178,58.76-20.064,95.625
				c-14.75,61.198-29.998,124.479-25.885,161.281c15.605,139.456,38.279,274.234,48.725,333.381
				C827.201,1064.463,732.605,1084.706,615.521,1084.706z"/>
			<path fill="#FFFFFF" d="M848.818,535.593c8.887-36.864,17.281-71.707,20.064-95.625c7.258-57.213,3.898-127.09-12.123-185.605
				c-11.379-41.563-35.127-94.479-48.063-125.128c-16.113-10.186-49.973-30.712-82.844-50.638
				c-22.688-13.75-44.574-27.02-59.904-36.45c-12.719,39.782-57.43,65.917-117.34,65.917c-62.881,0-128.963-30.393-144.697-88.733
				c-12.213,4.047-29.4,9.539-50.143,16.168c-45.195,14.439-105.16,33.6-159.74,52.57c16.277,126.893,92.766,350.244,120.09,373.014
				c67.829,56.527,176.037,61.371,277.783,56.527c-66.211,48.449-156.658,64.601-219.643,58.14
				c20.994,125.97-22.609,384.37-42.276,466.46c80.903,26.718,183.065,42.497,285.538,42.497
				c117.084,0,211.68-20.243,256.137-54.452c-10.445-59.146-33.119-193.925-48.725-333.381
				C818.82,660.072,834.068,596.791,848.818,535.593z"/>
		</g>
		<g>
			<path fill="#999999" d="M544.881,148.205c-66.552,0.003-119.336-31.567-146.804-61.508
				c-20.122-21.93-29.997-45.683-27.816-66.881l7.229,0.743c-1.966,19.104,7.245,40.848,25.942,61.227
				c26.878,29.294,79.258,60.252,144.805,59.124c98.375-1.623,136.199-57.127,136.932-91.732l7.268,0.156
				c-0.789,37.308-40.605,97.135-144.076,98.844C547.195,148.197,546.031,148.205,544.881,148.205z"/>
		</g>
	</g>
	<g>
		<path fill="#999999" d="M168.164,81.759C123.548,98.516,83.486,194.71,50.066,285.855C27.457,336.728,8.078,375.488,0,392.445
			c40.374,12.922,167.153,75.099,176.844,84.789c22.611-45.221,87.212-172.807,98.516-208.335
			C278.588,186.532,223.074,88.22,168.164,81.759z"/>
		<path fill="#FFFFFF" d="M171.082,456.28c-34.277-19.776-111.198-56.179-151.021-71.947c9.664-19.91,25.616-52.816,43.285-92.575
			l0.2-0.443l0.164-0.457c19.156-52.238,63.374-172.835,106.299-194.07c92.43,7.379,103.735,97.82,90.892,169.542
			C249.561,299.71,196.926,404.735,171.082,456.28z"/>
	</g>
</g>
<g>
	<g>
		<path fill="#88512D" d="M218.344,588.514c6.106-13.081,14.103-37.267,20.287-44.443c3.632-4.185,32.272-34.719,37.514-44.647
			c5.488-9.279,11.499-31.912,14.881-58.347c4.696-17.44,48.493,0.777,48.819,37.503c0.335,37.664-15.293,68.203-23.815,87.523
			C306.766,568.972,225.105,585.986,218.344,588.514z"/>
		
			<linearGradient id="SVGID_1_" gradientUnits="userSpaceOnUse" x1="186.0459" y1="466.7036" x2="234.8894" y2="482.5778" gradientTransform="matrix(0.9986 0.053 -0.053 0.9986 94.0796 27.9192)">
			<stop  offset="6.030000e-006" style="stop-color:#B5744C"/>
			<stop  offset="0.309" style="stop-color:#BF8154"/>
			<stop  offset="1" style="stop-color:#D49A64"/>
		</linearGradient>
		<path fill="url(#SVGID_1_)" d="M234.667,572.607c4.183-10.878,11.672-21.842,15.735-27.646
			c2.076-2.954,11.504-13.653,17.602-20.059c6.592-6.945,12.109-13.454,13.887-16.025c7.553-10.916,14.883-35.269,16.797-60.027
			c6.207-7.337,27.668,5.482,30.225,26.648c2.317,19.253-4.686,47.028-12.92,66.362c0,0,15.247,0.748,15.86,5.108
			C329.75,547.537,257.594,567.002,234.667,572.607z"/>
	</g>
	<g>
		<path fill="#88512D" d="M193.979,578.601c15.474-10.33,45.251-31.751,45.251-31.751s7.94-2.372,14.033-5.264
			c14.413-6.798,25.158-5.866,41.048-9.028c33.355,3.295,52.425-4.488,88.331,3.707c14.735,44.997,11.424,91.201,11.974,159.618
			c0.128,16.238-2.116,37.001-6.552,43.464c-20.632,14.292-72.51,17.416-91.681,15.485c-24.722-3.655-89.314-21.19-100.021-26.198
			C214.225,716.722,236.979,642.791,193.979,578.601z"/>
		<linearGradient id="SVGID_2_" gradientUnits="userSpaceOnUse" x1="379.5654" y1="641.0669" x2="139.0349" y2="626.2396">
			<stop  offset="6.030000e-006" style="stop-color:#B5744C"/>
			<stop  offset="0.309" style="stop-color:#BF8154"/>
			<stop  offset="1" style="stop-color:#D49A64"/>
		</linearGradient>
		<path fill="url(#SVGID_2_)" d="M301.146,742.92c-38.102-6.344-80.242-18.652-96.837-24.598
			c-15.087-14.288-30.171-94.474-6.356-128.605c19.666-15.566,86.41-60.724,95.473-60.648c33.936,2.917,62.76,4.484,95.246,11.878
			c5.234,49.907-5.207,167.993-20.09,193.376C362.098,738.125,328.791,741.784,301.146,742.92z"/>
		
			<linearGradient id="SVGID_3_" gradientUnits="userSpaceOnUse" x1="341.9502" y1="579.9233" x2="197.5983" y2="607.4194" gradientTransform="matrix(0.9986 0.053 -0.053 0.9986 94.0796 27.9192)">
			<stop  offset="6.030000e-006" style="stop-color:#B5744C"/>
			<stop  offset="0.309" style="stop-color:#BF8154"/>
			<stop  offset="1" style="stop-color:#D49A64"/>
		</linearGradient>
		<path fill="url(#SVGID_3_)" d="M388.672,540.946c-32.486-7.394-48.791-6.467-82.721-9.383c-0.175,0-12.5,4.9-12.688,4.914
			c-5.998,55.719,1.535,98.496,6.297,167.155c-3.174,13.09-6.351,29.772,0.396,39.288c9.328,1.435,64.948-0.965,80.613-14.533
			c1.261-8.715,1.536-13.483,1.33-25.252C381.256,666.494,393.667,588.519,388.672,540.946z"/>
		<path fill="#88512D" d="M309.545,585.986c5.367,2.178,72.843-5.208,83.464-4.351c5.541,1.719,18.082,9.671,21.651,14.226
			c4.372,11.703,1.389,33.943-3.375,49.419c-2.027,2.774-5.357,5.96-5.357,5.96s4.355,3.209,4.166,6.542
			c-0.106,16.251-6.289,42.408-13.69,45.849c-25.751,6.646-65.952,5.879-78.387,3.972
			C313.056,698.875,310.122,601.306,309.545,585.986z"/>
		
			<linearGradient id="SVGID_4_" gradientUnits="userSpaceOnUse" x1="405.207" y1="604.8638" x2="199.5629" y2="608.896" gradientTransform="matrix(0.9986 0.053 -0.053 0.9986 94.0796 27.9192)">
			<stop  offset="6.030000e-006" style="stop-color:#B5744C"/>
			<stop  offset="0.309" style="stop-color:#BF8154"/>
			<stop  offset="1" style="stop-color:#D49A64"/>
		</linearGradient>
		<path fill="url(#SVGID_4_)" d="M301.947,705.616c0.791-22.231-1.893-36.376-2.387-51.602c-1.437-20.792-3.969-42.071-7.141-64.297
			c7.496,0.388,17.099,5.344,17.099,5.344s41.386,0.971,60.69,1.804c5.655,2.594,25.563-0.028,29.711,1.373
			c5.975,11.059,6.408,32.362-0.736,46.645c-4.682,2.419-15.273,4.81-15.273,4.81s6.146,2.22,12.36,3.186
			c2.497,11.589,2.014,34.464-6.02,43.61C371.045,703.789,313.143,707.149,301.947,705.616z"/>
		<path fill="#88512D" d="M316.625,653.622c-3.172,0.393-0.895,2.982,0.895,3.863c23.813,0,59.536,0.899,81.281-4.966
			c1.219-2.32,3.144-5.889,4.066-8.394C375.268,652.727,341.63,653.622,316.625,653.622z"/>
		<path fill="#88512D" d="M313.646,594.158c-1.55-0.398-6.705-3.527-7.955-3.589c-0.973,4.707-0.497,10.23,0.516,17.204
			C307.992,601.225,310.374,595.861,313.646,594.158z"/>
		<path fill="#88512D" d="M291.62,529.395c19.052-4.961,73.822-4.961,92.486-2.386c12.297,3.371,22.117,7.542,24.202,9.923
			c6.328,10.443,10.418,38.397,2.084,56.865c-8.338,6.534-19.021,10.411-26.196,10.411c-6.104,0-68.89-5.975-78.669-7.759
			C297.84,588.093,279.162,564.778,291.62,529.395z"/>
		<linearGradient id="SVGID_5_" gradientUnits="userSpaceOnUse" x1="413.5508" y1="568.043" x2="302.0968" y2="563.8843">
			<stop  offset="6.030000e-006" style="stop-color:#B5744C"/>
			<stop  offset="0.309" style="stop-color:#BF8154"/>
			<stop  offset="1" style="stop-color:#D49A64"/>
		</linearGradient>
		<path fill="url(#SVGID_5_)" d="M385.292,596.07c0,0-70.155,0.985-90.099-2.878c-7.879-15.097-13.775-39.354-0.599-56.856
			c19.452-1.785,72.971-1.453,88.048-0.071c6.744,2.191,11.08,3.934,17.332,6.613c3.543,12.375,4.982,39.852,0.594,47.038
			C395.21,593.5,385.292,596.07,385.292,596.07z"/>
		<linearGradient id="SVGID_6_" gradientUnits="userSpaceOnUse" x1="424.2939" y1="568.4551" x2="391.9066" y2="566.5694">
			<stop  offset="6.030000e-006" style="stop-color:#B5744C"/>
			<stop  offset="0.309" style="stop-color:#BF8154"/>
			<stop  offset="1" style="stop-color:#D49A64"/>
		</linearGradient>
		<path fill="url(#SVGID_6_)" d="M399.975,542.878c-6.344-3.968-16.848-6.703-17.061-6.741c7.737,11.111,8.53,44.06,1.982,59.933
			c4.289-0.407,10.313-2.57,15.672-6.154C404.957,582.729,403.518,555.252,399.975,542.878z"/>
	</g>
</g>
</svg>
