<?xml version="1.0" encoding="utf-8"?>
<!-- Generator: Adobe Illustrator 15.0.0, SVG Export Plug-In . SVG Version: 6.00 Build 0)  -->
<!DOCTYPE svg PUBLIC "-//W3C//DTD SVG 1.1//EN" "http://www.w3.org/Graphics/SVG/1.1/DTD/svg11.dtd">
<svg version="1.1" id="_x30_1_1_" xmlns="http://www.w3.org/2000/svg" xmlns:xlink="http://www.w3.org/1999/xlink" x="0px" y="0px"
	 width="843.994px" height="1127.013px" viewBox="0 0 843.994 1127.013" enable-background="new 0 0 843.994 1127.013"
	 xml:space="preserve">
<g>
	<g>
		<g>
			<g>
				<path fill="#93AB20" d="M161.765,998.317c8.439,36.85,9.795,62.352,19.717,77.963c79.564,51.205,457.124,82.135,621.038,0.434
					c12.234-8.373,20.215-56.32,23.123-77.561C750.199,1003.196,211.589,997.044,161.765,998.317z"/>
				<path fill="#B7D130" d="M494.587,1112.548c-130.871-0.363-259.932-19.771-303.625-45.424
					c-4.508-8.664-7.006-22.146-10.094-38.826c-0.998-5.385-2.074-11.178-3.309-17.359c3.01,0,6.379,0,10.086,0.012
					c37.74,0.105,107.535,0.834,188.361,1.68c110.488,1.152,235.722,2.469,328.06,2.719c48.443,0.137,82.58-0.039,103.408-0.533
					c-2.201,15.768-4.98,32.828-10.229,49.855C731.127,1095.923,624.002,1112.903,494.587,1112.548z"/>
				<path fill="#DBF74A" d="M245.935,1058.749c-0.025,8.496,3.15,18.068,5.951,29.605c61.166,14.424,151.475,23.941,242.701,24.193
					c129.415,0.355,236.54-16.625,302.659-47.877c9.707-14.541,10.313-35.705,10.229-49.855
					C582.045,1117.032,282.216,1064.157,245.935,1058.749z"/>
			</g>
			<polygon fill="#333333" points="563.826,1067.749 564.367,1111.712 584.451,1110.085 582.822,1067.204 			"/>
		</g>
		<polygon fill="#333333" points="564.367,1105.741 558.553,1126.546 589.336,1123.659 583.365,1104.661 		"/>
	</g>
	<g>
		<g id="Fluo_body-warmer_7_">
			<g>
				<path fill="#93AB20" d="M100.25,117.252c10.313-4.342,210.788-57.832,218.937-59.348
					c16.496,35.889,83.078,127.146,187.181,144.332c27.307,137.496,76.232,633.407,71.68,869.983
					c-126.289,10.109-369.778-6.645-423.517-47.355c-6.514-5.969-9.488-18.533-10.313-25.512
					c-14.414-122.231-27.761-370.086-26.599-517.318c39.083-87.933,40.169-230.159-10.857-346.864
					C104.916,130.94,94.82,121.055,100.25,117.252z"/>
				<path fill="#B7D130" d="M169.188,1018.896c-8.143-4.344-9.627-17.398-10.313-23.348
					c-14.133-121.771-28.156-366.447-27.143-513.514c35.484-81.836,45.6-230.159-14.114-357.18
					c40.626-11.085,161.821-44.438,195.208-53.072c10.746,19.707,30.916,48.002,58.977,74.054
					c37.352,34.678,88.125,56.819,132.308,65.871c13.439,72.116,34.49,223.802,48.855,386.495
					c16.586,187.862,14.555,357.32,13.309,462.867C538.438,1065.692,282.231,1068.407,169.188,1018.896z"/>
				<linearGradient id="SVGID_1_" gradientUnits="userSpaceOnUse" x1="150.7686" y1="372.3096" x2="444.6142" y2="350.3808">
					<stop  offset="0" style="stop-color:#949FA1"/>
					<stop  offset="1" style="stop-color:#B7C6C9"/>
				</linearGradient>
				<path fill="url(#SVGID_1_)" d="M547.328,530.817c-54.044,2.682-109.39,3.888-164.104,3.719
					c-6.133-148.038-49.559-371.684-96.246-456.363c-20.961,5.694-89.832,24.356-94.449,25.507
					c54.283,104.226,81.809,314.04,85.766,426.121c-56.613-0.256-98.791,2.176-147.102-1.628
					c-0.277,22.666,2.17,76.676,2.711,91.737c100.121,12.142,286.567,13.024,420.06,6.282
					C553.207,593.837,551.307,560.136,547.328,530.817z"/>
				<linearGradient id="SVGID_2_" gradientUnits="userSpaceOnUse" x1="140.417" y1="854.3936" x2="589.918" y2="854.3936">
					<stop  offset="0" style="stop-color:#949FA1"/>
					<stop  offset="1" style="stop-color:#B7C6C9"/>
				</linearGradient>
				<path fill="url(#SVGID_2_)" d="M589.918,910.827c-0.346-24.56-2.807-70.092-3.299-99.838
					c-80.188,4.193-306.55,11.619-446.202-18.457c0,4.211,7.057,87.937,7.6,93.909C253.325,916.3,480.228,922.269,589.918,910.827z"
					/>
				<path fill="#DBF74A" d="M552.967,598.202c-14.365-162.693-35.416-314.379-48.855-386.495
					c-44.183-9.052-94.956-31.193-132.308-65.871c-28.061-26.052-48.23-54.347-58.977-74.054
					c-33.387,8.634-154.582,41.987-195.208,53.072c34.999,74.45,46.003,156.214,41.976,227.622
					c6.963,139.194,15.559,278.017,26.418,418.344c3.258,53.196,6.516,105.305,16.289,159.591c1.084,5.43,2.17,10.859,3.258,16.283
					c5.287,30.229,9.533,63.078,21.875,90.881c125.48,29.992,315.112,27.438,338.841,23.494
					C567.521,955.522,569.553,786.064,552.967,598.202z"/>
				<linearGradient id="SVGID_3_" gradientUnits="userSpaceOnUse" x1="150.5605" y1="373.7266" x2="444.7208" y2="351.7743">
					<stop  offset="0" style="stop-color:#949FA1"/>
					<stop  offset="1" style="stop-color:#B7C6C9"/>
				</linearGradient>
				<path fill="url(#SVGID_3_)" d="M547.328,530.817c-54.044,2.682-109.39,3.888-164.104,3.719
					c-6.133-148.038-49.559-371.684-96.246-456.363c-20.961,5.694-89.832,24.356-94.449,25.507
					c54.283,104.226,81.809,314.04,85.766,426.121c-56.613-0.256-98.791,2.176-147.102-1.628
					c-0.277,22.666,2.17,81.381,2.711,96.447c100.121,12.127,287.021,11.079,420.509,4.343
					C553.656,596.607,551.307,560.136,547.328,530.817z"/>
				<linearGradient id="SVGID_4_" gradientUnits="userSpaceOnUse" x1="140.417" y1="854.3936" x2="589.918" y2="854.3936">
					<stop  offset="0" style="stop-color:#949FA1"/>
					<stop  offset="1" style="stop-color:#B7C6C9"/>
				</linearGradient>
				<path fill="url(#SVGID_4_)" d="M589.918,910.827c-0.346-24.56-2.807-70.092-3.299-99.838
					c-80.188,4.193-306.55,11.619-446.202-18.457c0,4.211,7.057,87.937,7.6,93.909C253.325,916.3,480.228,922.269,589.918,910.827z"
					/>
				<path fill="#868F98" d="M131.192,528.173c-0.277,22.666,2.17,81.381,2.711,96.447c12.652,1.531,26.693,2.852,41.832,3.979
					c-2.217-32.88-4.318-65.722-6.316-98.536C156.853,529.771,144.243,529.2,131.192,528.173z"/>
				<path fill="#868F98" d="M140.417,792.532c0,4.211,7.057,87.937,7.6,93.909c14.303,4.053,30.865,7.664,49.055,10.855
					c-4.469-32.426-7.047-64.308-9.162-96.356C171.282,798.529,155.351,795.745,140.417,792.532z"/>
			</g>
			<g>
				<path fill="#93AB20" d="M661.668,92.033c-6.826,83.919-71.676,98.071-112.637,110.203
					c-0.979,25.245,7.111,185.559,11.379,362.956c5.645,234.614,8.186,497.986,9.484,507.195
					c94.049-2.689,230.24-31.117,261.652-50.656c11.402-10.855,10.352-29.832,9.775-42.34
					c-5.434-116.708,0.176-368.742,1.627-433.152c1.445-64.416,8.695-292.696-50.482-377.798
					C743.549,138.116,684.422,108.211,661.668,92.033z"/>
				<path fill="#DBF74A" d="M582.768,1059.733c-4.727-96.295-30.656-759.231-30.32-855.474
					c38.32-10.947,86.75-34.585,102.395-103.125c11.697,7.107,43.283,27.94,58.877,36.892c20.592,11.81,49.297,27.146,71.037,40.567
					c50.498,88.312,47.223,295.841,44.508,361.523c-2.711,65.591-2.713,330.037-1.084,448.378
					c0.145,10.521-2.715,23.883-21.172,30.939C770.613,1035.7,669.242,1055.382,582.768,1059.733z"/>
				<linearGradient id="SVGID_5_" gradientUnits="userSpaceOnUse" x1="317.6733" y1="366.2041" x2="792.0975" y2="375.9192">
					<stop  offset="0" style="stop-color:#949FA1"/>
					<stop  offset="1" style="stop-color:#B7C6C9"/>
				</linearGradient>
				<path fill="url(#SVGID_5_)" d="M788.25,515.517c2.473-100.793-7.836-267.984-26.834-350.492
					c-19.41-11.787-74.428-44.894-80.34-48.312c22.797,141.672,24.967,327.324,22.908,405.96
					c-47.98,3.614-96.168,6.404-141.867,7.64c0.328,29.751,4.123,64.546,4.6,97.924C678.768,623.36,783.449,612.146,828,605.435
					c1.105-23.139,2.17-73.097,2.531-93.724C819.506,512.817,799.533,514.451,788.25,515.517z"/>
				<linearGradient id="SVGID_6_" gradientUnits="userSpaceOnUse" x1="218.54" y1="886.0254" x2="963.7128" y2="827.5804">
					<stop  offset="0" style="stop-color:#949FA1"/>
					<stop  offset="1" style="stop-color:#B7C6C9"/>
				</linearGradient>
				<path fill="url(#SVGID_6_)" d="M827.094,783.845c-73.164,10.992-174.668,24.561-255.668,27.145
					c0.564,30.242,4.543,76.858,5.063,100.965c75.637-4.342,175.521-14.472,251.146-32.296
					C828.18,854.144,827.094,799.588,827.094,783.845z"/>
			</g>
		</g>
		<g>
			<path fill="#93AB20" d="M512.627,219.424c-3.813-39.094-13.519-70.774-14.558-77.846c-3.119-15.168-29.822-25.433-48.864-33.367
				c-66.86-27.859-89.485-72.381-92.474-87.579c-1.684-8.567,0.814-20.354-1.354-20.632c-13.031,10.137-34.057,50.584-42.379,66.761
				C314.892,92.639,399.987,206.284,512.627,219.424z"/>
			<path fill="#DBF74A" d="M501.884,212.012c-99.123-6.404-171.211-88.635-175.934-143.482c1.852-3.941,13.051-26.094,23.184-38.397
				c6.244,25.513,29.633,61.927,95.157,89.229l2.203,0.922c12.796,5.313,36.36,13.036,38.409,21.295
				C487.327,146.297,499.048,185.504,501.884,212.012z"/>
		</g>
		<g>
			<path fill="#93AB20" d="M544.482,218.076c-0.379-23.592-2.648-87.631,1.137-92.674c4.551-6.07,32.994-14.83,47.025-28.984
				c21.131-21.318,25.047-38.006,26.184-70.357c18.207-4.047,38.287,58.896,47.391,76.087
				C665.084,117.309,632.658,194.316,544.482,218.076z"/>
			<path fill="#DBF74A" d="M555.861,208.98c-0.377-20.898-2.275-73.471,1.898-76.163c10.617-5.058,32.598-16.05,40.197-23.593
				c16.92-16.807,27.16-37.08,30.338-58.305c6.701,12.256,24.615,54.268,26.547,58.305
				C658.256,138.542,630.949,192.13,555.861,208.98z"/>
		</g>
		<g>
			<g>
				<path fill="#333333" d="M563.826,1073.716c-0.066-3.857-5.811-392.276-16.658-514.285l18.145-1.275
					c10.896,122.515,18.525,510.07,18.596,513.932L563.826,1073.716z"/>
			</g>
			<g>
				<path fill="#333333" d="M547.926,569.369c-1.365-10.42-4.555-36.059-8.697-69.349
					c-12.539-100.722-35.877-288.209-40.151-305.688l8.892-1.719c4.381,17.893,26.865,198.567,40.305,306.521
					c4.141,33.266,7.332,58.885,8.691,69.296L547.926,569.369z"/>
			</g>
			<g>
				<path fill="#333333" d="M566.102,567.216h-9.104c0-10.951-2.299-74.088-4.955-147.186
					c-3.676-101.141-7.846-215.776-7.176-227.104l9.09,0.426c-0.65,10.986,3.691,130.435,7.188,226.419
					C563.801,492.942,566.102,556.135,566.102,567.216z"/>
			</g>
			<path fill="#333333" d="M575.217,607.415c1.555,6.526-3.313,11.961-10.82,12.074l-6.268,0.095
				c-7.506,0.11-13.289-5.245-12.852-11.909l2.395-36.436c0.434-6.662,4.244-11.997,8.473-11.858
				c4.225,0.139,8.949,5.596,10.51,12.122L575.217,607.415z"/>
		</g>
	</g>
</g>
<g>
	<g>
		<path fill="#592E05" d="M11.447,562.099c6.844-14.749,19.314-51.264,26.686-59.517c4.311-4.826,35.813-30.548,41.783-41.786
			c6.324-10.533,10.006-37.392,12.463-66.712c4.738-19.486,64.284-13.431,67.597,25.634c3.504,41.431-14.4,85.674-23.877,107.441
			C124.507,530.849,19.875,558.937,11.447,562.099z"/>
		<linearGradient id="SVGID_7_" gradientUnits="userSpaceOnUse" x1="50.4795" y1="460.623" x2="113.6826" y2="481.1641">
			<stop  offset="0" style="stop-color:#86502D"/>
			<stop  offset="1" style="stop-color:#97613F"/>
		</linearGradient>
		<path fill="url(#SVGID_7_)" d="M31.105,543.664c4.537-12.228,10.164-28.146,14.93-34.763c2.422-3.363,16.924-14.719,24.229-22.119
			c7.9-8.021,14.357-13.054,16.438-15.99c8.838-12.453,15.514-45.107,16.211-72.493c7.371-8.429,41.616-3.689,46.353,19.485
			c4.311,21.084-7.723,65.66-16.855,87.432c0,0,19.465-0.03,20.539,4.742C150.313,510.692,59.871,536.208,31.105,543.664z"/>
		<linearGradient id="SVGID_8_" gradientUnits="userSpaceOnUse" x1="78.4297" y1="460.2598" x2="212.8098" y2="498.5747">
			<stop  offset="6.030000e-006" style="stop-color:#97613F"/>
			<stop  offset="0.1283" style="stop-color:#A6714A"/>
			<stop  offset="0.2893" style="stop-color:#B27F53"/>
			<stop  offset="0.43" style="stop-color:#B68456"/>
		</linearGradient>
		<path fill="url(#SVGID_8_)" d="M105.191,405.671c1.059,13.166-2.104,46.877-6.314,69.523
			c-14.223,15.273-26.006,28.726-32.656,59.513c36.188-9.997,84.923-24.245,86.728-24.749c-1.074-4.772-20.539-4.742-20.539-4.742
			c9.133-21.771,21.166-66.348,16.855-87.432c-3.221-15.729-20.018-22.945-32.784-23.335
			C111.516,394.084,105.191,399.352,105.191,405.671z"/>
	</g>
	<g>
		<path fill="#592E05" d="M1.441,546.825c18.955-5.266,43.713-13.166,43.713-13.166s8.955-12.643,23.699-25.286
			c15.248-13.071,27.811-19.8,35.291-22.292c37.563,1.754,58.28-1.057,99.013,5.967c19.297,48.748,30.963,112.642,21.066,187.5
			c-2.457,18.611-11.229,38.625-15.799,45.997c-20.363,14.747-65.836,20.019-87.432,18.962
			c-27.911-2.634-68.819-12.639-81.106-17.557C44.096,715.011,53.582,615.118,1.441,546.825z"/>
		<linearGradient id="SVGID_9_" gradientUnits="userSpaceOnUse" x1="11.9976" y1="754.7021" x2="83.189" y2="665.509">
			<stop  offset="0" style="stop-color:#86502D"/>
			<stop  offset="1" style="stop-color:#97613F"/>
		</linearGradient>
		<path fill="url(#SVGID_9_)" d="M129.774,734.326c-41.899,0-81.458-15.448-100.421-21.067
			C9.342,693.239-12.783,613.185,8.99,558.06c21.066-18.262,83.949-59.965,94.098-60.393c38.192,1.301,70.591,1.396,107.44,7.725
			c8.957,54.686,4.572,185.391-10.533,214.186C192.976,724.145,160.671,731.517,129.774,734.326z"/>
		<linearGradient id="SVGID_10_" gradientUnits="userSpaceOnUse" x1="142.8633" y1="614.6533" x2="-90.0306" y2="595.5289">
			<stop  offset="6.030000e-006" style="stop-color:#97613F"/>
			<stop  offset="0.6005" style="stop-color:#A8744C"/>
			<stop  offset="1" style="stop-color:#B68456"/>
		</linearGradient>
		<path fill="url(#SVGID_10_)" d="M178.241,726.618c10.643-2.47,18.658-5.032,21.754-7.041
			c15.105-28.795,19.49-159.5,10.533-214.186c-36.85-6.328-69.248-6.424-107.44-7.725c-10.148,0.428-73.031,42.131-94.098,60.393
			c-19.668,49.858,7.725,125.704,25.629,146.77c12.639,7.373,55.125,22.82,93.05,24.93
			C148.032,730.112,161.937,728.841,178.241,726.618z"/>
		<linearGradient id="SVGID_11_" gradientUnits="userSpaceOnUse" x1="231.6753" y1="590.4717" x2="80.8784" y2="619.1954">
			<stop  offset="6.030000e-006" style="stop-color:#97613F"/>
			<stop  offset="1" style="stop-color:#B68456"/>
		</linearGradient>
		<path fill="url(#SVGID_11_)" d="M210.528,505.392c-36.85-6.328-67.662-14.152-105.856-15.453c-0.191,0.01-0.418,0.051-0.637,0.084
			c-3.271,61.727,39.962,145.986,23.634,193.389c3.516,23.523,3.516,36.867,0.705,46c10.535,1.048,58.631-3.514,72.678-9.485
			c3.867-7.724,9.828-22.819,11.943-35.463C219.636,644.58,219.075,557.526,210.528,505.392z"/>
		<path fill="#592E05" d="M124.685,559.465c6.146,2.104,81.281-9.834,93.225-9.481c6.314,1.58,17.025,8.248,21.418,10.181
			c5.619,12.644,6.668,40.559,0.695,59.869c-2.104,3.161-4.736,5.794-4.736,5.794s3.689,3.162,3.689,6.844
			c0.871,17.91-3.514,46.177-11.59,50.388c-28.439,8.78-72.326,11.942-86.373,10.533
			C136.794,683.059,126.261,576.317,124.685,559.465z"/>
		<linearGradient id="SVGID_12_" gradientUnits="userSpaceOnUse" x1="302.5703" y1="623.8574" x2="75.4996" y2="628.3098">
			<stop  offset="6.030000e-006" style="stop-color:#97613F"/>
			<stop  offset="0.1754" style="stop-color:#9D6843"/>
			<stop  offset="0.9989" style="stop-color:#B68456"/>
		</linearGradient>
		<path fill="url(#SVGID_12_)" d="M129.069,692.19c-11.229-18.261-11.229-45.648-10.709-58.991
			c-7.372-17.905-14.567-44.944-9.653-66.711c8.428,0,16.505,2.981,16.505,2.981s48.189-8.429,69.869-8.601
			c6.5,2.546,26.861,5.708,31.6,7.023c7.381,11.851,6.324,32.302,2.115,49.86c-2.811,4.562-16.857,7.724-16.857,7.724
			s7.02,2.104,14.047,2.809c3.514,12.638,2.105,37.925-6.324,48.458C198.595,685.868,141.708,693.239,129.069,692.19z"/>
		<path fill="#592E05" d="M139.083,629.515c-2.465,0.523,0.521,2.107,3.33,2.805c28.791,3.162,70.229-0.697,86.383-4.563
			c1.225-2.629,3.152-6.668,4.033-9.477C217.204,624.247,168.747,629.686,139.083,629.515z"/>
		<path fill="#592E05" d="M129.774,568.245c-1.752-0.353-7.723-3.514-9.133-3.514c0.965,4.037-0.52,10.27,1.057,17.904
			C124.507,575.617,128.718,570.351,129.774,568.245z"/>
		<path fill="#592E05" d="M100.982,487.134c18.964-4.566,76.546-5.619,94.099-4.215c10.273,2.105,28.355,7.02,34.939,11.238
			c7.73,11.146,10.707,53.717,2.279,72.68c-10.441,4.302-32.473,9.129-39.324,9.129c-6.842,0-61.096-3.334-72.158-4.739
			C111.691,562.45,89.217,526.812,100.982,487.134z"/>
		<linearGradient id="SVGID_13_" gradientUnits="userSpaceOnUse" x1="301.2925" y1="534.2422" x2="81.4803" y2="529.7955">
			<stop  offset="6.030000e-006" style="stop-color:#97613F"/>
			<stop  offset="1" style="stop-color:#B68456"/>
		</linearGradient>
		<path fill="url(#SVGID_13_)" d="M196.313,566.837c0,0-71.982,2.104-86.903,1.056c-4.041-14.571-15.104-50.21-1.408-70.226
			c22.126-3.161,76.722-4.566,84.622-2.721c5.793,1.846,22.912,8.16,28.178,11.851c4.738,13.427,0.529,46.345-3.949,54.513
			C211.325,563.415,196.313,566.837,196.313,566.837z"/>
		<linearGradient id="SVGID_14_" gradientUnits="userSpaceOnUse" x1="174.1172" y1="529.167" x2="290.9016" y2="537.3624">
			<stop  offset="0" style="stop-color:#B68456"/>
			<stop  offset="0.4844" style="stop-color:#B38659"/>
			<stop  offset="0.8846" style="stop-color:#A98E63"/>
			<stop  offset="1" style="stop-color:#A59168"/>
		</linearGradient>
		<path fill="url(#SVGID_14_)" d="M221.062,504.339c-5.266-3.689-19.221-8.076-28.967-9.658
			c14.928,14.221,10.711,61.27,4.395,71.804c8.957-0.524,19.307-2.81,25.629-4.915C227.386,546.122,227.847,516.625,221.062,504.339
			z"/>
	</g>
</g>
</svg>
