<?xml version="1.0" encoding="utf-8"?>
<!-- Generator: Adobe Illustrator 15.0.0, SVG Export Plug-In . SVG Version: 6.00 Build 0)  -->
<!DOCTYPE svg PUBLIC "-//W3C//DTD SVG 1.1//EN" "http://www.w3.org/Graphics/SVG/1.1/DTD/svg11.dtd">
<svg version="1.1" id="_x30_1_1_" xmlns="http://www.w3.org/2000/svg" xmlns:xlink="http://www.w3.org/1999/xlink" x="0px" y="0px"
	 width="1268.144px" height="1155.613px" viewBox="0 0 1268.144 1155.613" enable-background="new 0 0 1268.144 1155.613"
	 xml:space="preserve">
<g id="Fluo_x5F_Jacket_6_">
	<g>
		<path fill="#93AB20" d="M380.06,132.577c-37.57,3.22-83.178,24.012-118.082,78.363C186.833,327.95,71.97,516.885,41.913,561.972
			c24.689,9.661,263.004,98.761,284.475,104.128c21.469-35.425,82.659-142.773,95.54-166.391
			C491.705,377.331,491.705,113.253,380.06,132.577z"/>
		<path fill="#DBF74A" d="M320.532,650.813C277.751,636.57,115.099,575.98,61.413,555.64c17.014-26.503,45.756-72.84,78.18-125.112
			c43.957-70.875,93.781-151.206,133.223-212.626c37.375-58.196,83.926-70.397,108.346-72.489l0.551-0.049l0.547-0.094
			c3.131-0.543,6.199-0.817,9.119-0.817c17.206,0,31.003,9.351,42.177,28.587c39.195,67.465,27.465,232.101-22.816,320.29
			C398.485,515.785,345.085,609.506,320.532,650.813z"/>
		<linearGradient id="SVGID_1_" gradientUnits="userSpaceOnUse" x1="153.0186" y1="432.6162" x2="427.2949" y2="432.6162">
			<stop  offset="0" style="stop-color:#949FA1"/>
			<stop  offset="1" style="stop-color:#B7C6C9"/>
		</linearGradient>
		<path fill="url(#SVGID_1_)" d="M410.738,493.329c7.234-12.688,10.955-21.222,16.557-36.56
			c-58.509-67.579-136.78-118.173-224.358-130.966c-18.563,29.699-31.662,52.967-49.918,82.391
			c86.773,18.159,166.928,69.688,227.041,131.234C394.544,514.006,405.592,502.764,410.738,493.329z"/>
	</g>
	<g>
		<g>
			<g>
				<path fill="#93AB20" d="M1082.122,996.734c6.799,41.152,25.049,100.908,27.91,105.201
					c44.369,18.605,134.547-3.578,150.291-32.203c-4.293-31.49-7.156-85.164-8.588-96.615
					C1215.235,977.412,1114.327,994.588,1082.122,996.734z"/>
				<path fill="#DBF74A" d="M1151.019,1095.9c-12.068,0-22.746-1.41-31.252-4.107c-4.531-12.822-15.807-50.855-22.422-83.566
					c22.398-2.537,56.426-7.705,89.553-12.734c19.803-3.01,38.789-5.893,53.186-7.877c0.266,3.492,0.555,7.414,0.859,11.549
					c1.475,20.074,3.451,46.998,5.973,67.35C1234.862,1080.488,1192.466,1095.9,1151.019,1095.9L1151.019,1095.9z"/>
			</g>
			<g>
				<path fill="#93AB20" d="M1026.306,170.147c57.963,12.883,118.078,55.822,145.99,130.967
					c17.176,83.732,42.227,344.232,42.227,362.839c7.154,42.939,60.117,286.266,52.959,346.381
					c-15.746,37.213-173.195,65.125-196.096,37.93c-17.172-34.354-47.229-100.908-55.816-122.379
					C1017.003,797.065,1019.149,211.655,1026.306,170.147z"/>
				<path fill="#DBF74A" d="M1127.604,1048.502c-28.592,0-41.775-4.754-45.596-7.809c-16.08-32.371-43.881-93.676-53.531-117.25
					c0.307-28.544,0.641-76.57,1.061-136.893c1.301-187.213,3.631-522.642,8.201-600.049
					c55.379,17.157,100.369,60.396,122.137,118.177c17.152,84.666,41.764,341.335,41.764,359.274v1.064l0.176,1.054
					c1.008,6.061,2.828,16.296,5.189,29.579c13.107,73.742,50.896,258.736,46.162,311.818
					C1244.079,1022.127,1184.53,1048.502,1127.604,1048.502z"/>
				<linearGradient id="SVGID_2_" gradientUnits="userSpaceOnUse" x1="1031.1338" y1="503.8965" x2="1189.0576" y2="503.8965">
					<stop  offset="0" style="stop-color:#949FA1"/>
					<stop  offset="1" style="stop-color:#B7C6C9"/>
				</linearGradient>
				<path fill="url(#SVGID_2_)" d="M1178.737,432.079c-21.879,15.263-95.898,44.372-146.691,47.093
					c-0.332,31.873-0.635,64.373-0.912,96.541c55.549-6.898,111.82-17.677,157.924-48.837
					C1186.032,498.177,1182.249,461.507,1178.737,432.079z"/>
				<linearGradient id="SVGID_3_" gradientUnits="userSpaceOnUse" x1="1029.5244" y1="912.4063" x2="1247.6982" y2="912.4063">
					<stop  offset="0" style="stop-color:#949FA1"/>
					<stop  offset="1" style="stop-color:#B7C6C9"/>
				</linearGradient>
				<path fill="url(#SVGID_3_)" d="M1234.56,841.436c-52.602,29.7-135.131,53.13-205.035,59.759
					c-0.096,11.813,14.438,58.187,25.393,82.14c76.584,1.236,152.447-24.527,192.781-53.09
					C1244.399,905.587,1239.331,869.233,1234.56,841.436z"/>
			</g>
		</g>
		<g>
			<path fill="#93AB20" d="M435.883,1021.783c8.588,37.215,10.021,62.977,20.041,78.723c80.15,51.525,465.179,78.723,629.776-4.293
				c8.588-25.764,11.451-51.527,14.313-72.996C1024.161,1027.51,485.98,1020.354,435.883,1021.783z"/>
			<path fill="#B7D130" d="M770.879,1136.289c-131.603,0-261.439-19.26-305.443-45.059c-4.561-8.742-7.109-22.357-10.262-39.207
				c-1.018-5.443-2.113-11.291-3.375-17.533c3.027-0.012,6.412-0.018,10.145-0.018c37.947,0,108.139,0.545,189.417,1.176
				c111.108,0.861,237.041,1.84,329.895,1.84c48.717,0,83.043-0.271,103.984-0.824c-2.168,15.934-4.916,33.184-10.148,50.408
				C1008.688,1118.836,901.015,1136.289,770.879,1136.289z"/>
			<path fill="#DBF74A" d="M520.688,1082.613c0,8.59,3.221,18.25,6.066,29.902c61.549,14.408,152.389,23.773,244.125,23.773
				c130.136,0,237.81-17.453,304.212-49.217c5.232-17.225,7.98-34.475,10.148-50.408
				C858.837,1140.582,557.186,1087.98,520.688,1082.613z"/>
			<path fill="#93AB20" d="M808.942,319.603c-38.452-27.945-64.733-69.035-91.62-109.22
				c-55.488-31.356-91.193-77.88-124.711-135.775c-45.803,7.872-170.684,40.792-225.433,61.189
				c38.647,27.194,107.349,199.669,17.176,373.574c2.146,105.201,8.588,465.895,32.206,532.451
				c34.352,25.762,235.451,57.252,433.688,53.674C848.327,951.309,841.233,562.693,808.942,319.603z"/>
			<path fill="#B7D130" d="M818.942,1082.893c-189.657-0.002-356.146-28.934-391.517-49.336
				c-21.074-71.537-27.73-402.229-29.947-512.34l-0.178-8.854c49.389-97.08,48.799-187.665,39.498-246.796
				c-8.69-55.276-27.834-99.723-46.452-124.248c55.649-18.587,149.747-43.428,195.712-52.404
				c28.8,48.675,64.1,97.431,122.234,131.143l2.711,4.059c24.621,36.889,50.049,74.984,85.874,102.548
				c28.643,220.084,37.549,562.323,40.313,756.135C831.108,1082.861,825.026,1082.893,818.942,1082.893z"/>
		</g>
		<g>
			<path fill="#93AB20" d="M1111.464,1038.959c-7.156-181.779,15.744-630.496-42.225-851.635
				c-48.303-35.425-115.219-77.647-140.98-91.603c0.186,25.342-12.842,59.309-32.127,88.432
				c-12.363,59.293-34.451,116.998-66.928,168.83c0.844,221.755,17.762,690.245,18.898,742.513
				C959.745,1093.35,1087.132,1063.291,1111.464,1038.959z"/>
			<path fill="#DBF74A" d="M860.636,1082.258c-0.486-16.748-1.379-44.525-2.508-79.594c-4.961-154.232-15.242-473.963-16.025-646.03
				c30.918-50.189,53.156-106.494,66.135-167.449c15.666-24.166,26.488-49.853,30.811-72.422
				c30.078,17.902,79.873,49.92,118.873,78.247c40.916,161.294,39.951,443.918,39.246,650.793
				c-0.254,74.41-0.477,139.109,1.189,187.285C1071.392,1051.633,967.269,1078.336,860.636,1082.258z"/>
		</g>
		<g>
			<linearGradient id="SVGID_4_" gradientUnits="userSpaceOnUse" x1="684.1143" y1="386.2227" x2="1020.4761" y2="351.8709">
				<stop  offset="0" style="stop-color:#949FA1"/>
				<stop  offset="1" style="stop-color:#B7C6C9"/>
			</linearGradient>
			<path fill="url(#SVGID_4_)" d="M1092.14,480.435c-13.455,2.197-26.936,4.225-40.432,6.177
				c-2.232-102.279-9.756-218.692-30.654-317.388c-30.035-20.351-60.912-39.908-82.047-52.482
				c-0.984,5.084-2.332,10.326-3.943,15.648c16.75,115.671,36.014,247.349,33.693,364.64c-41.424,4.357-82.967,7.477-124.541,9.24
				c0.686,33.801,1.502,69.145,2.393,104.946c83.6-4.462,167.014-15.673,248.934-32.794
				C1094.759,545.548,1093.669,512.709,1092.14,480.435z"/>
			<linearGradient id="SVGID_5_" gradientUnits="userSpaceOnUse" x1="411.5527" y1="976.3174" x2="836.4736" y2="976.3174">
				<stop  offset="0" style="stop-color:#949FA1"/>
				<stop  offset="1" style="stop-color:#B7C6C9"/>
			</linearGradient>
			<path fill="url(#SVGID_5_)" d="M836.474,1037.594c-0.529-30.271-1.186-62.662-2.016-96.611
				c-141.848,3.268-284.788-2.932-422.905-27.98c1.431,29.344,5.219,65.898,8.229,90.174
				C563.137,1036.17,699.96,1043.969,836.474,1037.594z"/>
			<linearGradient id="SVGID_6_" gradientUnits="userSpaceOnUse" x1="631.0459" y1="1003.5811" x2="1008.912" y2="973.5236">
				<stop  offset="0" style="stop-color:#949FA1"/>
				<stop  offset="1" style="stop-color:#B7C6C9"/>
			</linearGradient>
			<path fill="url(#SVGID_6_)" d="M1096.995,914.447c-79.549,14.406-160.074,23.043-240.859,25.924
				c0.734,23.15,1.412,44.172,1.994,62.338c0.395,12.297,0.762,23.672,1.09,34.016c80.727-3.734,160.926-14.379,238.4-32.074
				C1097.112,978.004,1096.974,947.689,1096.995,914.447z"/>
			<linearGradient id="SVGID_7_" gradientUnits="userSpaceOnUse" x1="397.3008" y1="351.5801" x2="821.5615" y2="351.5801">
				<stop  offset="0" style="stop-color:#949FA1"/>
				<stop  offset="1" style="stop-color:#B7C6C9"/>
			</linearGradient>
			<path fill="url(#SVGID_7_)" d="M814.661,507.313c-54.45,1.462-108.908,0.513-163.192-2.998
				c-12.529-135.976-23.914-285.029-69.717-414.524c-21.055,4.272-50.506,11.351-81.594,19.521
				c23.523,122.298,42.229,259.298,46.838,384.94c-44.111-5.686-88.027-13.172-131.633-22.671
				c-5.107,13.418-11.068,27.032-18.063,40.782l0.178,8.854c0.232,11.55,0.514,25.554,0.857,41.404
				c136.854,40.049,280.102,55.015,423.226,49.723C819.515,576.756,817.229,541.553,814.661,507.313z"/>
			<path fill="#DBF74A" d="M837.19,1082.799c-2.764-193.812-11.67-536.051-40.313-756.135
				c-35.825-27.563-61.253-65.659-85.874-102.548l-2.711-4.059c-58.135-33.712-93.435-82.468-122.234-131.143
				c-45.965,8.977-140.063,33.817-195.712,52.404c18.618,24.525,37.762,68.972,46.452,124.248
				c3.836,24.38,6.178,54.117,4.158,87.443c19.805,235.55,12.297,475.567,68.422,703.722c74.074,14.063,186.95,26.158,309.563,26.16
				C825.026,1082.893,831.108,1082.861,837.19,1082.799z"/>
			<linearGradient id="SVGID_8_" gradientUnits="userSpaceOnUse" x1="411.5527" y1="976.3174" x2="836.4736" y2="976.3174">
				<stop  offset="0" style="stop-color:#949FA1"/>
				<stop  offset="1" style="stop-color:#B7C6C9"/>
			</linearGradient>
			<path fill="url(#SVGID_8_)" d="M836.474,1037.594c-0.529-30.271-1.186-62.662-2.016-96.611
				c-141.848,3.268-284.788-2.932-422.905-27.98c1.431,29.344,5.219,65.898,8.229,90.174
				C563.137,1036.17,699.96,1043.969,836.474,1037.594z"/>
			<linearGradient id="SVGID_9_" gradientUnits="userSpaceOnUse" x1="397.3008" y1="351.5801" x2="821.5615" y2="351.5801">
				<stop  offset="0" style="stop-color:#949FA1"/>
				<stop  offset="1" style="stop-color:#B7C6C9"/>
			</linearGradient>
			<path fill="url(#SVGID_9_)" d="M814.661,507.313c-54.45,1.462-108.908,0.513-163.192-2.998
				c-12.529-135.976-23.914-285.029-69.717-414.524c-21.055,4.272-50.506,11.351-81.594,19.521
				c23.523,122.298,42.229,259.298,46.838,384.94c-44.111-5.686-88.027-13.172-131.633-22.671
				c-5.107,13.418-11.068,27.032-18.063,40.782l0.178,8.854c0.232,11.55,0.514,25.554,0.857,41.404
				c136.854,40.049,280.102,55.015,423.226,49.723C819.515,576.756,817.229,541.553,814.661,507.313z"/>
			<path fill="#868F98" d="M411.553,913.002c1.431,29.344,5.219,65.898,8.229,90.174c27.221,6.264,54.204,11.611,80.996,16.137
				c-6.787-31.482-12.501-63.162-17.313-95.016C459.373,921.049,435.387,917.326,411.553,913.002z"/>
			<path fill="#868F98" d="M415.363,471.581c-5.107,13.418-11.068,27.032-18.063,40.782l0.178,8.854
				c0.232,11.55,0.514,25.554,0.857,41.404c18.584,5.439,37.297,10.373,56.098,14.899c-1.616-32.987-3.221-65.986-5.029-98.956
				C438.037,476.365,426.689,474.048,415.363,471.581z"/>
			<path fill="#93AB20" d="M893.905,1143.445c-1.363-85.895-23.713-695.025-28.168-794.901c-5.014-0.406-15.049,2.007-17.205-0.27
				c-22.197,41.675-58.77,90.823-59.596,141.987c3.15,164.641,12.533,447.311,16.225,665.348
				C838.798,1153.463,861.644,1149.59,893.905,1143.445z"/>
			<path fill="#DBF74A" d="M818.044,1142.729c-4.445-251.481-17.713-588.271-17.713-689.18c3.285-7.211,36.805-68.768,55.824-92.108
				c0.541,0.026,1.063,0.047,1.58,0.067c8.758,117.504,26.508,659.76,29.012,771.203
				C865.995,1137.004,835.241,1140.385,818.044,1142.729z"/>
			<linearGradient id="SVGID_10_" gradientUnits="userSpaceOnUse" x1="627.5391" y1="560.4746" x2="851.2606" y2="559.002">
				<stop  offset="0" style="stop-color:#949FA1"/>
				<stop  offset="1" style="stop-color:#B7C6C9"/>
			</linearGradient>
			<path fill="url(#SVGID_10_)" d="M867.065,505.436c-21.455,1.145-45.445,1.367-66.912,1.788
				c0.586,29.288,1.367,65.286,2.502,105.561c22.094-0.556,46.275-1.71,68.348-3.22C869.464,572.494,868.53,537.644,867.065,505.436
				z"/>
			<linearGradient id="SVGID_11_" gradientUnits="userSpaceOnUse" x1="693.8037" y1="994.71" x2="906.9265" y2="986.2415">
				<stop  offset="0" style="stop-color:#949FA1"/>
				<stop  offset="1" style="stop-color:#B7C6C9"/>
			</linearGradient>
			<path fill="url(#SVGID_11_)" d="M881.112,939.84c-23.047,1.178-45.082,1.094-68.168,1.342c0.887,32.516,1.654,65.309,2.416,97.15
				c23.354-0.361,45.691-1.434,68.973-2.953C883.401,1006.732,882.335,974.789,881.112,939.84z"/>
		</g>
		<g>
			<path fill="#93AB20" d="M790.134,492.195c-13.958-149.933,118.803-285.551,107.348-392.183c0-21.469-0.713-65.124-0.713-85.162
				c37.93,16.459,119.52,71.565,148.141,131.682c-23.973,66.555-117.369,155.655-187.861,236.525
				C824.95,419.881,792.636,439.951,790.134,492.195z"/>
			<path fill="#DBF74A" d="M800.153,456.055c2.861-52.959,36.656-136.13,62.975-193.106c26.918-58.268,52.35-113.318,47.236-163.608
				c-0.008-10.959-0.188-27.33-0.365-43.422c-0.078-6.925-0.154-13.798-0.217-20.161c38.23,21.225,96.039,64.44,120.889,111.135
				c-25.863,56.037-98.506,141.166-149.291,193.941C840.226,383.601,802.692,451.553,800.153,456.055z"/>
		</g>
		<g>
			<path fill="#1A1A1A" d="M836.706,1111.201c-0.076,8.301,6.59,15.09,14.891,15.162c8.301,0.078,15.09-6.588,15.166-14.889
				c0.074-8.299-6.59-15.088-14.891-15.166C843.571,1096.234,836.784,1102.9,836.706,1111.201z"/>
			<path fill="#1A1A1A" d="M828.782,881.392c-0.074,8.299,6.592,15.088,14.891,15.166c8.303,0.074,15.092-6.592,15.166-14.891
				c0.078-8.303-6.588-15.09-14.889-15.166C835.649,866.427,828.862,873.093,828.782,881.392z"/>
			<path fill="#1A1A1A" d="M823.241,652.318c-0.078,8.301,6.592,15.092,14.891,15.168c8.301,0.075,15.09-6.591,15.168-14.891
				c0.072-8.301-6.592-15.092-14.893-15.165C830.106,637.354,823.317,644.018,823.241,652.318z"/>
			<circle fill="#1A1A1A" cx="832.862" cy="460.603" r="15.03"/>
		</g>
		<g>
			<path fill="#808080" d="M885.452,280.149c-0.057,6.527,5.184,11.867,11.711,11.928c6.527,0.059,11.867-5.186,11.928-11.712
				c0.059-6.526-5.184-11.864-11.709-11.925C890.854,268.381,885.515,273.623,885.452,280.149z"/>
			<path fill="#1A1A1A" d="M897.2,287.783c-4.146-0.038-7.49-3.444-7.453-7.597c0.039-4.109,3.414-7.453,7.525-7.453
				c4.219,0.037,7.561,3.445,7.523,7.594c-0.037,4.112-3.41,7.456-7.523,7.456H897.2z"/>
		</g>
		<g>
			<circle fill="#808080" cx="980.141" cy="146.531" r="11.818"/>
			<path fill="#1A1A1A" d="M980.071,154.056c-4.148-0.037-7.492-3.443-7.453-7.596c0.037-4.109,3.412-7.454,7.523-7.454
				c4.217,0.038,7.561,3.444,7.523,7.595c-0.039,4.112-3.412,7.455-7.523,7.455H980.071z"/>
		</g>
		<g>
			<path fill="#C3E02D" d="M1088.562,825.689c-2.717,12.883-24.439,79.798-24.439,79.798
				c-37.104-41.506-109.744-110.927-139.803-139.553c10.021-20.038,43.447-71.924,46.16-78.364
				C1011.989,727.647,1054.214,782.037,1088.562,825.689z"/>
			<path fill="#DBF74A" d="M1060.741,888.978c-35.697-38.874-93.059-95.892-123.539-125.19
				c5.387-10.285,35.426-61.188,35.426-61.188c36.293,34.942,76.852,87.897,107.346,125.956
				C1076.788,840.096,1067.114,870.392,1060.741,888.978z"/>
		</g>
		<g>
			<path fill="#C3E02D" d="M483.83,831.773c4.295,12.881,38.645,75.144,38.645,75.144
				c62.264-32.203,171.759-103.055,212.555-137.405c-15.031-30.059-45.09-77.291-49.383-83.732
				C608.355,750.188,558.975,784.54,483.83,831.773z"/>
			<path fill="#DBF74A" d="M525.943,895.392c-11.197-20.484-25.379-47.155-31.398-60.218
				c66.731-42.113,116.168-76.242,189.125-136.594c9.289,14.643,28.25,45.249,40.556,68.696
				C681.855,801.41,586.014,863.341,525.943,895.392z"/>
		</g>
		<g>
			<path fill="#93AB20" d="M808.022,327.595c-93.034-56.539-299.144-204.68-359.257-245.472C493.852,47.771,580.264,7.157,632.508,0
				c0.18,18.071,1.611,91.425,2.326,102.877C651.652,134.724,731.091,212.014,808.022,327.595z"/>
			<path fill="#DBF74A" d="M777.252,297.894c-66.963-44.207-171.754-121.912-239.973-169.787
				c-25.709-18.043-48.791-34.242-66.01-46.158c40.385-26.879,103.209-56.611,148.298-66.76c0.245,9.022,0.522,20.49,0.808,32.344
				c0.615,25.525,1.197,49.637,1.604,56.148l0.173,2.764l1.292,2.447c7.572,14.337,25.201,35.262,49.607,64.225
				C697.249,201.835,745.189,254.507,777.252,297.894z"/>
		</g>
		<g>
			<circle fill="#808080" cx="515.646" cy="85.955" r="11.818"/>
			<path fill="#1A1A1A" d="M515.574,93.481c-4.145-0.038-7.49-3.443-7.451-7.596c0.037-4.109,3.412-7.454,7.523-7.454
				c4.217,0.038,7.561,3.445,7.523,7.595c-0.037,4.111-3.412,7.455-7.523,7.455H515.574z"/>
		</g>
	</g>
</g>
<g>
	<path fill="#592E05" d="M402.533,725.531c-29.731,3.715-36.993-0.205-75.839,7.025c-90.594,16.848-182.283,36.234-242.281,3.51
		C21.21,693.927,1.468,629.182,13.839,603.339c15.801-33.005,65.834-110.251,144.836-103.228
		c39.334,4.916,74.264,37.393,74.264,37.393s130.094,37.392,157.484,43.188C392.526,610.187,406.752,683.394,402.533,725.531z"/>
	<linearGradient id="SVGID_12_" gradientUnits="userSpaceOnUse" x1="298.7803" y1="764.0752" x2="226.4498" y2="667.867">
		<stop  offset="0" style="stop-color:#86502D"/>
		<stop  offset="1" style="stop-color:#97613F"/>
	</linearGradient>
	<path fill="url(#SVGID_12_)" d="M186.595,741.856c-40.76,0-68.199-2.474-94.803-16.854c-39.719-26.644-61.768-64.145-65.836-86.901
		c-1.912-10.647-2.063-25.021,1.578-30.021c0,0,48.457-107.269,132.727-97.435c54.773,22.467,69.516,35.811,69.516,35.811
		s115.879,35.818,123.604,37.219c-5.619,16.857-16.857,120.088-19.314,136.589C289.288,728.861,229.776,739.047,186.595,741.856z"/>
	<linearGradient id="SVGID_13_" gradientUnits="userSpaceOnUse" x1="165.8535" y1="841.79" x2="192.8912" y2="582.6774">
		<stop  offset="6.030000e-006" style="stop-color:#97613F"/>
		<stop  offset="0.3348" style="stop-color:#9D6843"/>
		<stop  offset="0.8158" style="stop-color:#AE7B50"/>
		<stop  offset="1" style="stop-color:#B68456"/>
	</linearGradient>
	<path fill="url(#SVGID_13_)" d="M342.493,698.145c4.436-36.338,7.246-103.566,10.887-114.469
		c-7.725-1.4-123.604-37.219-123.604-37.219s-33.178-29.496-69.516-35.811c-84.27-9.834-130.621,94.801-130.621,94.801
		c-2.105,8.425-9.133,23.174,34.41,51.26C115.669,713.945,192.214,738.871,342.493,698.145z"/>
	<path fill="#592E05" d="M289.825,562.258c-23.174-5.616-83.572-22.822-130.621-30.545c42.135,0,66.363,7.547,71.982,7.723
		C235.396,542.947,278.587,557.342,289.825,562.258z"/>
</g>
<g>
	<g>
		<path fill="#592E05" d="M289.825,568.053c6.844-14.749,19.314-51.264,26.686-59.517c4.311-4.826,35.813-30.548,41.783-41.786
			c6.324-10.533,10.006-37.392,12.463-66.712c4.738-19.486,64.284-13.431,67.597,25.634c3.505,41.431-14.4,85.674-23.877,107.441
			C402.885,536.803,298.253,564.891,289.825,568.053z"/>
		<linearGradient id="SVGID_14_" gradientUnits="userSpaceOnUse" x1="328.8564" y1="466.5771" x2="392.0602" y2="487.1184">
			<stop  offset="0" style="stop-color:#86502D"/>
			<stop  offset="1" style="stop-color:#97613F"/>
		</linearGradient>
		<path fill="url(#SVGID_14_)" d="M309.483,549.618c4.537-12.228,10.164-28.146,14.93-34.763
			c2.422-3.363,16.924-14.719,24.229-22.119c7.9-8.021,14.357-13.054,16.438-15.99c8.838-12.453,15.514-45.107,16.211-72.493
			c7.371-8.429,41.616-3.689,46.353,19.485c4.311,21.084-7.723,65.66-16.855,87.432c0,0,19.465-0.03,20.539,4.742
			C428.692,516.646,338.249,542.162,309.483,549.618z"/>
		<linearGradient id="SVGID_15_" gradientUnits="userSpaceOnUse" x1="356.8076" y1="466.2139" x2="491.1877" y2="504.5288">
			<stop  offset="6.030000e-006" style="stop-color:#97613F"/>
			<stop  offset="0.1283" style="stop-color:#A6714A"/>
			<stop  offset="0.2893" style="stop-color:#B27F53"/>
			<stop  offset="0.43" style="stop-color:#B68456"/>
		</linearGradient>
		<path fill="url(#SVGID_15_)" d="M383.569,411.625c1.059,13.166-2.104,46.877-6.314,69.523
			c-14.223,15.273-26.006,28.726-32.656,59.513c36.188-9.997,84.923-24.245,86.728-24.749c-1.074-4.772-20.539-4.742-20.539-4.742
			c9.133-21.771,21.166-66.348,16.855-87.432c-3.221-15.729-20.018-22.945-32.784-23.335
			C389.894,400.038,383.569,405.306,383.569,411.625z"/>
	</g>
	<g>
		<path fill="#592E05" d="M279.819,552.779c18.955-5.266,43.713-13.166,43.713-13.166s8.955-12.643,23.699-25.286
			c15.248-13.071,27.811-19.8,35.291-22.292c37.563,1.754,58.28-1.057,99.013,5.967c19.297,48.748,30.963,112.642,21.066,187.5
			c-2.457,18.611-11.229,38.625-15.799,45.997c-20.363,14.747-65.836,20.019-87.432,18.962
			c-27.911-2.634-68.819-12.639-81.106-17.557C322.474,720.965,331.96,621.072,279.819,552.779z"/>
		<linearGradient id="SVGID_16_" gradientUnits="userSpaceOnUse" x1="290.374" y1="760.6553" x2="361.5656" y2="671.4621">
			<stop  offset="0" style="stop-color:#86502D"/>
			<stop  offset="1" style="stop-color:#97613F"/>
		</linearGradient>
		<path fill="url(#SVGID_16_)" d="M408.152,740.28c-41.899,0-81.458-15.448-100.421-21.067
			c-20.012-20.02-42.137-100.074-20.363-155.199c21.066-18.262,83.949-59.965,94.098-60.393c38.192,1.301,70.591,1.396,107.44,7.725
			c8.957,54.686,4.572,185.391-10.533,214.186C471.354,730.099,439.049,737.471,408.152,740.28z"/>
		<linearGradient id="SVGID_17_" gradientUnits="userSpaceOnUse" x1="421.2412" y1="620.6074" x2="188.3474" y2="601.483">
			<stop  offset="6.030000e-006" style="stop-color:#97613F"/>
			<stop  offset="0.6005" style="stop-color:#A8744C"/>
			<stop  offset="1" style="stop-color:#B68456"/>
		</linearGradient>
		<path fill="url(#SVGID_17_)" d="M456.619,732.572c10.643-2.47,18.658-5.032,21.754-7.041
			c15.105-28.795,19.49-159.5,10.533-214.186c-36.85-6.328-69.248-6.424-107.44-7.725c-10.148,0.428-73.031,42.131-94.098,60.393
			c-19.668,49.858,7.725,125.704,25.629,146.77c12.639,7.373,55.125,22.82,93.05,24.93
			C426.41,736.066,440.314,734.795,456.619,732.572z"/>
		<linearGradient id="SVGID_18_" gradientUnits="userSpaceOnUse" x1="510.0527" y1="596.4258" x2="359.2559" y2="625.1495">
			<stop  offset="6.030000e-006" style="stop-color:#97613F"/>
			<stop  offset="1" style="stop-color:#B68456"/>
		</linearGradient>
		<path fill="url(#SVGID_18_)" d="M488.906,511.346c-36.85-6.328-67.662-14.152-105.856-15.453c-0.191,0.01-0.418,0.051-0.637,0.084
			c-3.271,61.727,39.962,145.986,23.634,193.389c3.516,23.523,3.516,36.867,0.705,46c10.535,1.048,58.631-3.514,72.678-9.485
			c3.867-7.724,9.828-22.819,11.943-35.463C498.014,650.534,497.453,563.48,488.906,511.346z"/>
		<path fill="#592E05" d="M403.063,565.419c6.146,2.104,81.281-9.834,93.225-9.481c6.314,1.58,17.025,8.248,21.418,10.181
			c5.619,12.644,6.668,40.559,0.696,59.869c-2.104,3.161-4.737,5.794-4.737,5.794s3.689,3.162,3.689,6.844
			c0.871,17.91-3.514,46.177-11.59,50.388c-28.439,8.78-72.326,11.942-86.373,10.533
			C415.172,689.013,404.639,582.271,403.063,565.419z"/>
		<linearGradient id="SVGID_19_" gradientUnits="userSpaceOnUse" x1="580.9473" y1="629.8115" x2="353.8775" y2="634.2639">
			<stop  offset="6.030000e-006" style="stop-color:#97613F"/>
			<stop  offset="0.1754" style="stop-color:#9D6843"/>
			<stop  offset="0.9989" style="stop-color:#B68456"/>
		</linearGradient>
		<path fill="url(#SVGID_19_)" d="M407.447,698.145c-11.229-18.261-11.229-45.648-10.709-58.991
			c-7.372-17.905-14.567-44.944-9.653-66.711c8.428,0,16.505,2.981,16.505,2.981s48.189-8.429,69.869-8.601
			c6.5,2.546,26.861,5.708,31.6,7.023c7.381,11.851,6.324,32.302,2.115,49.86c-2.811,4.562-16.856,7.724-16.856,7.724
			s7.019,2.104,14.046,2.809c3.514,12.638,2.105,37.925-6.324,48.458C476.973,691.822,420.086,699.193,407.447,698.145z"/>
		<path fill="#592E05" d="M417.461,635.469c-2.465,0.523,0.522,2.107,3.33,2.805c28.791,3.162,70.229-0.697,86.383-4.563
			c1.225-2.629,3.152-6.668,4.033-9.477C495.582,630.201,447.125,635.64,417.461,635.469z"/>
		<path fill="#592E05" d="M408.152,574.199c-1.751-0.353-7.723-3.514-9.133-3.514c0.966,4.037-0.52,10.27,1.057,17.904
			C402.885,581.571,407.096,576.305,408.152,574.199z"/>
		<path fill="#592E05" d="M379.36,493.088c18.964-4.566,76.546-5.619,94.099-4.215c10.274,2.105,28.355,7.02,34.939,11.238
			c7.73,11.146,10.707,53.717,2.279,72.68c-10.441,4.302-32.473,9.129-39.324,9.129c-6.842,0-61.096-3.334-72.158-4.739
			C390.069,568.404,367.595,532.766,379.36,493.088z"/>
		<linearGradient id="SVGID_20_" gradientUnits="userSpaceOnUse" x1="579.6699" y1="540.1963" x2="359.8586" y2="535.7496">
			<stop  offset="6.030000e-006" style="stop-color:#97613F"/>
			<stop  offset="1" style="stop-color:#B68456"/>
		</linearGradient>
		<path fill="url(#SVGID_20_)" d="M474.692,572.791c0,0-71.983,2.104-86.904,1.056c-4.041-14.571-15.104-50.21-1.408-70.226
			c22.126-3.161,76.722-4.566,84.622-2.721c5.793,1.846,22.912,8.16,28.178,11.851c4.738,13.427,0.529,46.345-3.949,54.513
			C489.703,569.369,474.692,572.791,474.692,572.791z"/>
		<linearGradient id="SVGID_21_" gradientUnits="userSpaceOnUse" x1="452.4951" y1="535.1211" x2="569.2795" y2="543.3165">
			<stop  offset="0" style="stop-color:#B68456"/>
			<stop  offset="0.4844" style="stop-color:#B38659"/>
			<stop  offset="0.8846" style="stop-color:#A98E63"/>
			<stop  offset="1" style="stop-color:#A59168"/>
		</linearGradient>
		<path fill="url(#SVGID_21_)" d="M499.439,510.293c-5.266-3.689-19.221-8.076-28.967-9.658
			c14.929,14.221,10.711,61.27,4.395,71.804c8.957-0.524,19.307-2.81,25.629-4.915C505.764,552.076,506.225,522.579,499.439,510.293
			z"/>
	</g>
</g>
<g>
	<g>
		<path fill="#93AB20" d="M0.048,613.498c-1.877-26.793,53.674-112.715,123.449-122.376c48.092-6.659,104.496,16.247,128.818,33.276
			c10.969,7.681,18.248,18.25,16.102,23.618c-42.938,33.278-41.863,157.265-1.074,200.205
			C239.435,760.031,15.075,828.195,0.048,613.498z"/>
		<path fill="#B7D130" d="M159.749,754.914c-90.834,0-140.242-47.881-146.852-142.314c-1.268-18.084,46.918-99.656,112.367-108.718
			c5.078-0.703,10.48-1.06,16.053-1.06c42.053,0,85.867,19.707,103.611,32.13c4.449,3.116,7.426,6.297,9.168,8.625
			c-22.021,22.51-28.143,60.688-29.809,82.606c-2.832,37.265,3.291,84.262,22.219,115.629
			C227.06,747.633,194.64,754.914,159.749,754.914z"/>
		<path fill="#DBF74A" d="M233.562,712.293c-8.676-27.447-11.313-59.286-9.273-86.109c1.666-21.919,7.787-60.097,29.809-82.606
			c-1.742-2.328-4.719-5.509-9.168-8.625c-17.744-12.423-61.559-32.13-103.611-32.13c-5.572,0-10.975,0.356-16.053,1.06
			C59.815,512.943,11.63,594.516,12.897,612.6c0.156,2.227,0.359,4.4,0.561,6.577c8.807,21.413,21.098,41.134,35.969,57.657
			C99.151,723.008,169.438,725.096,233.562,712.293z"/>
		<linearGradient id="SVGID_22_" gradientUnits="userSpaceOnUse" x1="111.2188" y1="833.9648" x2="122.0362" y2="515.9346">
			<stop  offset="0" style="stop-color:#949FA1"/>
			<stop  offset="1" style="stop-color:#B7C6C9"/>
		</linearGradient>
		<path fill="url(#SVGID_22_)" d="M100.954,530.84c-62.953,45.785-73.742,131.77-40.078,195.375
			c22.176,18.766,52.885,27.781,90.174,29.343c-9.203-11.265-18.498-24.12-24.332-35.782
			c-30.057-64.41-30.057-145.996,38.646-193.229c9.891-5.77,21.801-10.442,32.205-14.313c-13.592-4.338-29.355-8.865-44.373-10.018
			C135.542,508.855,117.546,518.771,100.954,530.84z"/>
		<path fill="#868F98" d="M43.329,669.647c2.35,19.686,8.24,38.983,17.547,56.567c22.176,18.766,52.885,27.781,90.174,29.343
			c-9.203-11.265-18.498-24.12-24.332-35.782c-0.803-1.725-1.574-3.465-2.336-5.209c-27.43-5.766-53.172-17.503-74.955-37.732
			C47.335,674.51,45.317,672.095,43.329,669.647z"/>
	</g>
	<g>
		<path fill="#93AB20" d="M317.798,741.959c-30.594-21.471-46.875-141.969-16.102-202.799c-9.84-0.718-34.354-4.025-45.805-4.742
			c-5.727-1.254-18.066,2.596-20.932,5.727c-54.252,59.297-46.16,166.752,5.803,205.158c2.609,1.932,8.328,3.456,14.771,4.171
			C269.132,748.4,308.138,744.105,317.798,741.959z"/>
		<path fill="#B7D130" d="M255.786,736.529c-4.354-0.572-6.871-1.426-7.627-1.776c-20.25-15.132-34.135-44.495-37.172-78.639
			c-3.627-40.808,8.625-80.569,32.797-106.549c1.857-1.022,6.715-2.514,9.473-2.514c7.029,1.472,17.814,1.954,28.248,2.42
			c0.393,0.017,0.787,0.033,1.18,0.052c-18.906,56.503-10.434,141.453,11.59,182.883
			C280.704,734.08,264.417,735.807,255.786,736.529z"/>
		<path fill="#DBF74A" d="M284.521,549.895c-0.393-0.018-22.412-3.598-30.059-3.758c-4.162-0.377-8.049,1.074-10.678,3.429
			c-24.172,25.979-36.424,65.741-32.797,106.549c2.072,23.302,9.205,44.369,19.957,60.214c18.143-1.621,36.512-3.157,54.844-3.955
			C270.411,667.469,268.292,598.398,284.521,549.895z"/>
	</g>
</g>
</svg>
