<?xml version="1.0" encoding="utf-8"?>
<!-- Generator: Adobe Illustrator 15.0.0, SVG Export Plug-In . SVG Version: 6.00 Build 0)  -->
<!DOCTYPE svg PUBLIC "-//W3C//DTD SVG 1.1//EN" "http://www.w3.org/Graphics/SVG/1.1/DTD/svg11.dtd">
<svg version="1.1" id="_x30_1_1_" xmlns="http://www.w3.org/2000/svg" xmlns:xlink="http://www.w3.org/1999/xlink" x="0px" y="0px"
	 width="836.073px" height="1074.403px" viewBox="0 0 836.073 1074.403" enable-background="new 0 0 836.073 1074.403"
	 xml:space="preserve">
<g id="Fluo_x5F_no_x5F_sleeves_6_">
	<g>
		<path fill="#93AB20" d="M143.549,52.601C182.912,44.728,319.601,2.861,328.188,0c27.195,47.232,230.084,305.587,264.436,335.645
			c10.02,107.349,15.744,652.679,15.744,675.581c-2.863,27.195-27.91,57.969-75.145,62.26
			c-94.466,8.59-307.017-44.369-375.72-107.346c17.176-143.849,2.146-422.955-32.205-517.423
			C165.375,418.659,229.428,157.087,143.549,52.601z"/>
		<path fill="#B7D130" d="M511.101,1061.521c-99.009,0-275.092-46.893-340.031-100.648c15.031-137.913,2.723-404.233-30.967-508.667
			c22.783-26.69,45.455-98.096,54.704-175.035c6.568-54.648,10.598-151.405-29.632-216.387
			c45.122-11.404,128.351-36.534,157.343-45.502c41.396,63.553,216.573,285.616,257.702,326.366
			c9.65,116.551,15.174,636.195,15.266,668.863c-2.637,21.736-23.477,46.516-63.428,50.146
			C525.75,1061.231,518.701,1061.521,511.101,1061.521z"/>
		<path fill="#DBF74A" d="M580.22,341.647c-41.129-40.75-216.305-262.813-257.702-326.366
			c-28.992,8.968-112.221,34.098-157.343,45.502c40.229,64.981,36.2,161.738,29.632,216.387c-2.06,17.129-4.786,33.977-8.03,50.124
			c53.704,222.613,66.245,451.906,71.196,680.422c79.867,31.486,184.833,53.805,253.127,53.805c7.6,0,14.648-0.289,20.957-0.863
			c39.951-3.631,60.791-28.41,63.428-50.146C595.394,977.843,589.871,458.198,580.22,341.647z"/>
		<linearGradient id="SVGID_1_" gradientUnits="userSpaceOnUse" x1="-38.103" y1="559.9541" x2="405.6065" y2="322.3541">
			<stop  offset="0" style="stop-color:#949FA1"/>
			<stop  offset="1" style="stop-color:#B7C6C9"/>
		</linearGradient>
		<path fill="url(#SVGID_1_)" d="M586.845,497.202c-63.277,2.25-126.401,1.709-189.161-2.639
			c-4.793-165.572-24.314-364.938-85.063-477.388c-19.781,6.049-52.201,16.27-83.194,25.227
			c57.823,115.02,64.931,332.399,65.444,441.331c-51.82-7.411-103.311-17.844-154.319-32.083c-0.148,0.181-0.301,0.378-0.449,0.555
			c8.607,26.679,15.816,63.924,21.531,106.894c140.571,36.902,284.242,47.267,427.683,39.173
			C588.56,563.116,587.734,528.927,586.845,497.202z"/>
		<path fill="#868F98" d="M140.553,451.65c-0.148,0.181-0.301,0.378-0.449,0.555c8.607,26.679,15.816,63.924,21.531,106.894
			c23.994,6.298,44.708,10.961,68.866,15.754c-5.367-33.278-9.662-69.24-14.138-104.844
			C190.991,464.728,165.711,458.673,140.553,451.65z"/>
		<linearGradient id="SVGID_2_" gradientUnits="userSpaceOnUse" x1="175.7539" y1="838.7471" x2="594.3472" y2="838.7471">
			<stop  offset="0" style="stop-color:#949FA1"/>
			<stop  offset="1" style="stop-color:#B7C6C9"/>
		</linearGradient>
		<path fill="url(#SVGID_2_)" d="M594.347,902.663c-0.328-26.08-2.691-63.818-3.154-95.401
			c-139.793,11.479-279.415,6.564-415.439-38.646c0.762,33.093,1.1,65.828,0.357,96.256
			C311.212,908.001,453.24,916.751,594.347,902.663z"/>
		<path fill="#868F98" d="M175.754,768.616c0.762,33.093,1.1,65.828,0.357,96.256c25.9,8.268,52.059,15.25,78.413,21.072
			c-1.027-32.148-3.301-64.659-5.238-96.931C224.231,783.3,200.591,776.87,175.754,768.616z"/>
	</g>
	<g>
		<path fill="#93AB20" d="M662.044,33.277c-12.883,83.732-82.301,252.984-99.477,308.091c-2.148,62.262,6.439,638.367,8.588,655.543
			c10.734,25.766,41.508,70.135,86.594,67.988c49.381-6.441,145.994-49.379,167.465-64.408
			c-8.59-109.496-23.619-416.514-8.59-478.776c30.059-103.056,30.059-317.753-34.35-407.926
			C736.119,81.584,683.513,50.454,662.044,33.277z"/>
		<path fill="#DBF74A" d="M654.601,1052.093c-35.732-0.002-61.393-37.129-70.771-58.316c-2.023-36.479-10.557-576.111-8.441-650.23
			c5.053-15.919,14.313-41.169,24.977-70.247c24.58-67.025,57.285-156.212,70.572-217.617c11.213,7.697,25.066,16.642,40.221,26.423
			c19.428,12.542,41.375,26.706,61.887,40.956c59.801,86.584,60.316,295.272,31.215,395.048l-0.154,0.584
			c-15.346,63.564-1.115,358.105,7.67,475.045c-28.541,16.615-111.68,52.441-155.152,58.314
			C655.947,1052.081,655.273,1052.093,654.601,1052.093z"/>
		<linearGradient id="SVGID_3_" gradientUnits="userSpaceOnUse" x1="1277.1616" y1="317.0088" x2="738.99" y2="331.3202">
			<stop  offset="0" style="stop-color:#949FA1"/>
			<stop  offset="1" style="stop-color:#B7C6C9"/>
		</linearGradient>
		<path fill="url(#SVGID_3_)" d="M781.486,482.905c14.854-118.654,10.086-249.573-14.777-365.896
			c-18.311-12.509-67.416-44.139-72.996-47.771c28.896,153.8,15.709,337.855,8.275,421.08c-42.098,3.406-84.189,5.939-126.215,7.221
			c0.313,31.585,0.703,65.936,1.152,101.374c74.029-3.625,148.023-12.205,221.518-24.664c1.041-24.572,2.855-43.935,5.662-55.558
			l0.154-0.584c3.363-11.529,6.309-24.564,8.834-38.646C802.56,480.653,792.023,481.798,781.486,482.905z"/>
		<linearGradient id="SVGID_4_" gradientUnits="userSpaceOnUse" x1="1098.6353" y1="809.0371" x2="769.4363" y2="834.8005">
			<stop  offset="0" style="stop-color:#949FA1"/>
			<stop  offset="1" style="stop-color:#B7C6C9"/>
		</linearGradient>
		<path fill="url(#SVGID_4_)" d="M801.595,777.921c-62.459,13.06-148.725,25.517-222.566,30.772
			c0.535,32.112,2.154,69.569,2.645,95.163c74.443-6.707,148.883-19.848,222.383-37.738
			C802.699,838.847,802.656,806.754,801.595,777.921z"/>
	</g>
</g>
<g>
	<g>
		<path fill="#592E05" d="M11.447,490.224c6.843-14.749,19.313-51.264,26.686-59.517c4.311-4.826,35.812-30.548,41.782-41.786
			c6.324-10.533,10.007-37.392,12.464-66.712c4.738-19.486,64.283-13.431,67.596,25.634c3.504,41.431-14.4,85.674-23.877,107.441
			C124.506,458.974,19.875,487.062,11.447,490.224z"/>
		<linearGradient id="SVGID_5_" gradientUnits="userSpaceOnUse" x1="50.4795" y1="388.748" x2="113.6821" y2="409.2889">
			<stop  offset="0" style="stop-color:#86502D"/>
			<stop  offset="1" style="stop-color:#97613F"/>
		</linearGradient>
		<path fill="url(#SVGID_5_)" d="M31.105,471.789c4.537-12.228,10.164-28.146,14.929-34.763
			c2.422-3.363,16.924-14.719,24.229-22.119c7.9-8.021,14.357-13.054,16.438-15.99c8.839-12.453,15.515-45.107,16.212-72.493
			c7.371-8.429,41.615-3.689,46.352,19.485c4.311,21.084-7.723,65.66-16.855,87.432c0,0,19.465-0.03,20.539,4.742
			C150.313,438.817,59.871,464.333,31.105,471.789z"/>
		<linearGradient id="SVGID_6_" gradientUnits="userSpaceOnUse" x1="78.4287" y1="388.3848" x2="212.8088" y2="426.6997">
			<stop  offset="6.030000e-006" style="stop-color:#97613F"/>
			<stop  offset="0.1283" style="stop-color:#A6714A"/>
			<stop  offset="0.2893" style="stop-color:#B27F53"/>
			<stop  offset="0.43" style="stop-color:#B68456"/>
		</linearGradient>
		<path fill="url(#SVGID_6_)" d="M105.191,333.796c1.059,13.166-2.104,46.877-6.314,69.523
			c-14.224,15.273-26.007,28.726-32.657,59.513c36.188-9.997,84.923-24.245,86.728-24.749c-1.074-4.772-20.539-4.742-20.539-4.742
			c9.133-21.771,21.166-66.348,16.855-87.432c-3.221-15.729-20.018-22.945-32.783-23.335
			C111.516,322.209,105.191,327.477,105.191,333.796z"/>
	</g>
	<g>
		<path fill="#592E05" d="M1.441,474.95c18.954-5.266,43.712-13.166,43.712-13.166s8.956-12.643,23.7-25.286
			c15.247-13.071,27.811-19.8,35.291-22.292c37.563,1.754,58.279-1.057,99.012,5.967c19.298,48.748,30.964,112.642,21.066,187.5
			c-2.457,18.611-11.229,38.625-15.799,45.997c-20.363,14.747-65.836,20.019-87.432,18.962
			c-27.91-2.634-68.819-12.639-81.106-17.557C44.096,643.136,53.581,543.243,1.441,474.95z"/>
		<linearGradient id="SVGID_7_" gradientUnits="userSpaceOnUse" x1="11.9966" y1="682.8271" x2="83.1883" y2="593.6338">
			<stop  offset="0" style="stop-color:#86502D"/>
			<stop  offset="1" style="stop-color:#97613F"/>
		</linearGradient>
		<path fill="url(#SVGID_7_)" d="M129.773,662.451c-41.899,0-81.458-15.448-100.421-21.067
			C9.342,621.364-12.783,541.31,8.99,486.185c21.065-18.262,83.949-59.965,94.098-60.393c38.191,1.301,70.59,1.396,107.44,7.725
			c8.957,54.686,4.571,185.391-10.534,214.186C192.976,652.27,160.67,659.642,129.773,662.451z"/>
		<linearGradient id="SVGID_8_" gradientUnits="userSpaceOnUse" x1="142.8628" y1="542.7783" x2="-90.0305" y2="523.6539">
			<stop  offset="6.030000e-006" style="stop-color:#97613F"/>
			<stop  offset="0.6005" style="stop-color:#A8744C"/>
			<stop  offset="1" style="stop-color:#B68456"/>
		</linearGradient>
		<path fill="url(#SVGID_8_)" d="M178.24,654.743c10.643-2.47,18.659-5.032,21.754-7.041c15.105-28.795,19.491-159.5,10.534-214.186
			c-36.851-6.328-69.249-6.424-107.44-7.725c-10.148,0.428-73.032,42.131-94.098,60.393c-19.668,49.858,7.724,125.704,25.629,146.77
			c12.639,7.373,55.125,22.82,93.049,24.93C148.031,658.237,161.936,656.966,178.24,654.743z"/>
		<linearGradient id="SVGID_9_" gradientUnits="userSpaceOnUse" x1="231.6748" y1="518.5967" x2="80.8774" y2="547.3206">
			<stop  offset="6.030000e-006" style="stop-color:#97613F"/>
			<stop  offset="1" style="stop-color:#B68456"/>
		</linearGradient>
		<path fill="url(#SVGID_9_)" d="M210.528,433.517c-36.851-6.328-67.663-14.152-105.856-15.453c-0.191,0.01-0.418,0.051-0.637,0.084
			c-3.271,61.727,39.961,145.986,23.633,193.389c3.516,23.523,3.516,36.867,0.705,46c10.535,1.048,58.631-3.514,72.679-9.485
			c3.866-7.724,9.828-22.819,11.942-35.463C219.636,572.705,219.074,485.651,210.528,433.517z"/>
		<path fill="#592E05" d="M124.684,487.59c6.146,2.104,81.282-9.834,93.225-9.481c6.314,1.58,17.025,8.248,21.419,10.181
			c5.619,12.644,6.668,40.559,0.695,59.869c-2.104,3.161-4.737,5.794-4.737,5.794s3.69,3.162,3.69,6.844
			c0.871,17.91-3.514,46.177-11.591,50.388c-28.438,8.78-72.326,11.942-86.373,10.533
			C136.793,611.184,126.26,504.442,124.684,487.59z"/>
		<linearGradient id="SVGID_10_" gradientUnits="userSpaceOnUse" x1="302.5688" y1="551.9824" x2="75.4999" y2="556.4348">
			<stop  offset="6.030000e-006" style="stop-color:#97613F"/>
			<stop  offset="0.1754" style="stop-color:#9D6843"/>
			<stop  offset="0.9989" style="stop-color:#B68456"/>
		</linearGradient>
		<path fill="url(#SVGID_10_)" d="M129.068,620.315c-11.229-18.261-11.229-45.648-10.709-58.991
			c-7.371-17.905-14.566-44.944-9.652-66.711c8.428,0,16.504,2.981,16.504,2.981s48.189-8.429,69.869-8.601
			c6.5,2.546,26.862,5.708,31.601,7.023c7.381,11.851,6.323,32.302,2.114,49.86c-2.811,4.562-16.857,7.724-16.857,7.724
			s7.02,2.104,14.047,2.809c3.515,12.638,2.105,37.925-6.324,48.458C198.595,613.993,141.707,621.364,129.068,620.315z"/>
		<path fill="#592E05" d="M139.082,557.64c-2.465,0.523,0.521,2.107,3.33,2.805c28.791,3.162,70.229-0.697,86.383-4.563
			c1.225-2.629,3.153-6.668,4.033-9.477C217.204,552.372,168.746,557.811,139.082,557.64z"/>
		<path fill="#592E05" d="M129.773,496.37c-1.752-0.353-7.723-3.514-9.133-3.514c0.965,4.037-0.52,10.27,1.057,17.904
			C124.506,503.742,128.717,498.476,129.773,496.37z"/>
		<path fill="#592E05" d="M100.982,415.259c18.963-4.566,76.545-5.619,94.098-4.215c10.273,2.105,28.355,7.02,34.939,11.238
			c7.731,11.146,10.708,53.717,2.28,72.68c-10.441,4.302-32.473,9.129-39.324,9.129c-6.843,0-61.097-3.334-72.159-4.739
			C111.691,490.575,89.217,454.937,100.982,415.259z"/>
		<linearGradient id="SVGID_11_" gradientUnits="userSpaceOnUse" x1="301.292" y1="462.3672" x2="81.4807" y2="457.9205">
			<stop  offset="6.030000e-006" style="stop-color:#97613F"/>
			<stop  offset="1" style="stop-color:#B68456"/>
		</linearGradient>
		<path fill="url(#SVGID_11_)" d="M196.313,494.962c0,0-71.983,2.104-86.903,1.056c-4.041-14.571-15.104-50.21-1.408-70.226
			c22.125-3.161,76.721-4.566,84.621-2.721c5.794,1.846,22.912,8.16,28.179,11.851c4.738,13.427,0.528,46.345-3.95,54.513
			C211.325,491.54,196.313,494.962,196.313,494.962z"/>
		<linearGradient id="SVGID_12_" gradientUnits="userSpaceOnUse" x1="174.1172" y1="457.292" x2="290.9016" y2="465.4874">
			<stop  offset="0" style="stop-color:#B68456"/>
			<stop  offset="0.4844" style="stop-color:#B38659"/>
			<stop  offset="0.8846" style="stop-color:#A98E63"/>
			<stop  offset="1" style="stop-color:#A59168"/>
		</linearGradient>
		<path fill="url(#SVGID_12_)" d="M221.062,432.464c-5.266-3.689-19.222-8.076-28.967-9.658c14.928,14.221,10.71,61.27,4.395,71.804
			c8.956-0.524,19.307-2.81,25.629-4.915C227.385,474.247,227.847,444.75,221.062,432.464z"/>
	</g>
</g>
</svg>
