<?xml version="1.0" encoding="utf-8"?>
<!-- Generator: Adobe Illustrator 15.0.0, SVG Export Plug-In . SVG Version: 6.00 Build 0)  -->
<!DOCTYPE svg PUBLIC "-//W3C//DTD SVG 1.1//EN" "http://www.w3.org/Graphics/SVG/1.1/DTD/svg11.dtd">
<svg version="1.1" id="_x30_1_1_" xmlns="http://www.w3.org/2000/svg" xmlns:xlink="http://www.w3.org/1999/xlink" x="0px" y="0px"
	 width="1021.601px" height="1003.844px" viewBox="0 0 1021.601 1003.844" enable-background="new 0 0 1021.601 1003.844"
	 xml:space="preserve">
<g id="Tshirt_6_">
	<g>
		<path fill="#999999" d="M916.041,126.67c43.297,15.029,96.258,85.523,99.119,155.656c1.432,67.272,5.01,173.55,6.441,213.624
			c-35.785,24.332-104.131,31.49-154.221,21.471C850.203,445.854,914.611,168.178,916.041,126.67z"/>
		<path fill="#FFFFFF" d="M904.217,507.771c-9.334,0-17.963-0.528-25.771-1.57c-6.922-53.88,18.135-190.959,35.018-283.316
			c5.59-30.578,10.184-55.704,12.877-73.428c33.105,26.087,72.596,75.139,74.863,130.723c0.842,39.638,4.262,192.974,5.371,209.331
			C979.871,504.52,946.313,507.771,904.217,507.771z"/>
	</g>
	<g>
		<path fill="#999999" d="M227.579,70.85C270.519,62.262,461.24,10.734,473.047,0c57.969,90.172,257.284,102.696,275.531,13.596
			c33.279,26.837,130.252,96.973,176.408,116.296c11.281,20.64,2.59,51.058,8.588,79.438
			c24.313,74.604,28.273,191.261-13.238,338.147c-6.131,192.287,10.496,360.955,13.238,398.266
			c-18.609,45.801-388.246,111.641-600.079-17.176c5.724-52.957,32.563-188.576,13.955-310.238
			C275.886,498.097,177.125,312.385,227.579,70.85z"/>
		<path fill="#E8EBED" d="M660.117,990.603c-87.474,0-211.316-12.139-309.983-69.199c1.009-8,2.345-17.438,3.826-27.918
			c9.335-65.976,22.265-175.549,6.752-276.969l-0.38-2.482l-1.283-2.157C299.075,511.118,190.703,323.682,238.179,80.58
			c42.965-9.729,185.233-46.055,230.579-64.395c37.721,48.33,110.808,70.091,169.405,70.091c58.184,0,101.693-19.956,118.956-53.243
			c39.428,30.848,115.18,87.096,158.602,106.863c50.057,98.417,41.74,228.85-7.779,404.078l-0.43,1.519l-0.051,1.574
			c-5.389,168.988,13.967,392.332,14.305,396.529C907.65,959.618,802.969,990.603,660.117,990.603z"/>
		<path fill="#FFFFFF" d="M907.461,547.067l0.051-1.574l0.43-1.519c49.52-175.229,57.836-305.661,7.779-404.078
			c-43.422-19.768-119.174-76.016-158.602-106.863c-17.263,33.287-60.772,53.243-118.956,53.243
			c-58.598,0-131.685-21.761-169.405-70.091c-38.785,15.687-148.434,44.518-206.243,58.625
			c-1.453,89.566,7.467,179.073,36.629,266.558c30.058,94.467,107.349,167.465,128.817,270.521
			c26.549,117.567-3.828,228.437-8.332,341.481c82.898,29.912,172.634,37.232,240.488,37.232
			c142.852,0,247.533-30.984,261.648-47.006C921.428,939.399,902.072,716.056,907.461,547.067z"/>
		<g>
			<path fill="#999999" d="M633.2,127.049c-1.148,0-2.297-0.007-3.459-0.02c-97.919-1.1-195.216-77.092-198.538-106.27l6.398-0.729
				c3.057,26.83,99.24,99.514,192.212,100.557c93.42,1.016,142.954-43.818,148.149-76.016l6.355,1.027
				C779.201,77.332,733.64,127.049,633.2,127.049z"/>
		</g>
		<path fill="#E8EBED" d="M312.026,416.513c81.583,79.438,324.193,113.789,412.219,103.055
			c-118.084,42.94-287.694,38.646-330.636,36.498C354.965,502.392,327.054,437.982,312.026,416.513z"/>
	</g>
	<g>
		<path fill="#999999" d="M0,344.229c46.158,37.572,210.402,100.193,231.872,104.487c15.902-29.353,51.527-124.523,62.979-233.305
			c18.606-77.292,24.33-118.082,25.763-138.836c-75.858-34.353-162.097,6.082-202.89,83.373
			C76.932,245.828,15.028,322.761,0,344.229z"/>
		<path fill="#FFFFFF" d="M226.146,432.974c-38.79-12.637-156.864-56.379-207.54-90.173c2.438-3.081,78.129-108.746,110.636-177.071
			c29.409-55.491,94.415-94.224,158.185-94.224c11.133,0,21.848,1.213,31.945,3.616
			C331.188,126.017,257.628,363.798,226.146,432.974z"/>
	</g>
</g>
<g>
	<g>
		<path fill="#592E05" d="M135.911,490.224c6.843-14.749,19.313-51.264,26.686-59.517c4.311-4.826,35.812-30.548,41.782-41.786
			c6.324-10.533,10.007-37.392,12.464-66.712c4.738-19.486,64.283-13.431,67.596,25.634c3.504,41.431-14.4,85.674-23.877,107.441
			C248.97,458.974,144.339,487.062,135.911,490.224z"/>
		<linearGradient id="SVGID_1_" gradientUnits="userSpaceOnUse" x1="174.9434" y1="388.748" x2="238.1462" y2="409.289">
			<stop  offset="0" style="stop-color:#86502D"/>
			<stop  offset="1" style="stop-color:#97613F"/>
		</linearGradient>
		<path fill="url(#SVGID_1_)" d="M155.569,471.789c4.537-12.228,10.164-28.146,14.929-34.763
			c2.422-3.363,16.924-14.719,24.229-22.119c7.9-8.021,14.357-13.054,16.438-15.99c8.839-12.453,15.515-45.107,16.212-72.493
			c7.371-8.429,41.615-3.689,46.352,19.485c4.311,21.084-7.723,65.66-16.855,87.432c0,0,19.465-0.03,20.539,4.742
			C274.776,438.817,184.335,464.333,155.569,471.789z"/>
		<linearGradient id="SVGID_2_" gradientUnits="userSpaceOnUse" x1="202.8926" y1="388.3848" x2="337.2735" y2="426.7">
			<stop  offset="6.030000e-006" style="stop-color:#97613F"/>
			<stop  offset="0.1283" style="stop-color:#A6714A"/>
			<stop  offset="0.2893" style="stop-color:#B27F53"/>
			<stop  offset="0.43" style="stop-color:#B68456"/>
		</linearGradient>
		<path fill="url(#SVGID_2_)" d="M229.655,333.796c1.059,13.166-2.104,46.877-6.314,69.523
			c-14.224,15.273-26.007,28.726-32.657,59.513c36.188-9.997,84.923-24.245,86.728-24.749c-1.074-4.772-20.539-4.742-20.539-4.742
			c9.133-21.771,21.166-66.348,16.855-87.432c-3.221-15.729-20.018-22.945-32.783-23.335
			C235.979,322.209,229.655,327.477,229.655,333.796z"/>
	</g>
	<g>
		<path fill="#592E05" d="M125.905,474.95c18.954-5.266,43.712-13.166,43.712-13.166s8.956-12.643,23.7-25.286
			c15.247-13.071,27.811-19.8,35.291-22.292c37.563,1.754,58.279-1.057,99.012,5.967c19.298,48.748,30.964,112.642,21.066,187.5
			c-2.457,18.611-11.229,38.625-15.799,45.997c-20.363,14.747-65.836,20.019-87.432,18.962
			c-27.91-2.634-68.819-12.639-81.106-17.557C168.56,643.136,178.045,543.243,125.905,474.95z"/>
		<linearGradient id="SVGID_3_" gradientUnits="userSpaceOnUse" x1="136.46" y1="682.8271" x2="207.6516" y2="593.6338">
			<stop  offset="0" style="stop-color:#86502D"/>
			<stop  offset="1" style="stop-color:#97613F"/>
		</linearGradient>
		<path fill="url(#SVGID_3_)" d="M254.237,662.451c-41.899,0-81.458-15.448-100.42-21.067
			c-20.011-20.02-42.136-100.074-20.362-155.199c21.065-18.262,83.949-59.965,94.098-60.393c38.191,1.301,70.59,1.396,107.44,7.725
			c8.957,54.686,4.571,185.391-10.534,214.186C317.439,652.27,285.134,659.642,254.237,662.451z"/>
		<linearGradient id="SVGID_4_" gradientUnits="userSpaceOnUse" x1="267.3262" y1="542.7783" x2="34.4329" y2="523.6539">
			<stop  offset="6.030000e-006" style="stop-color:#97613F"/>
			<stop  offset="0.6005" style="stop-color:#A8744C"/>
			<stop  offset="1" style="stop-color:#B68456"/>
		</linearGradient>
		<path fill="url(#SVGID_4_)" d="M302.704,654.743c10.643-2.47,18.659-5.032,21.754-7.041
			c15.105-28.795,19.491-159.5,10.534-214.186c-36.851-6.328-69.249-6.424-107.44-7.725c-10.149,0.428-73.032,42.131-94.098,60.393
			c-19.668,49.858,7.724,125.704,25.629,146.77c12.639,7.373,55.125,22.82,93.049,24.93
			C272.495,658.237,286.399,656.966,302.704,654.743z"/>
		<linearGradient id="SVGID_5_" gradientUnits="userSpaceOnUse" x1="356.1387" y1="518.5967" x2="205.341" y2="547.3206">
			<stop  offset="6.030000e-006" style="stop-color:#97613F"/>
			<stop  offset="1" style="stop-color:#B68456"/>
		</linearGradient>
		<path fill="url(#SVGID_5_)" d="M334.992,433.517c-36.851-6.328-67.663-14.152-105.856-15.453c-0.191,0.01-0.418,0.051-0.637,0.084
			c-3.271,61.727,39.961,145.986,23.633,193.389c3.516,23.523,3.516,36.867,0.705,46c10.535,1.048,58.631-3.514,72.679-9.485
			c3.866-7.724,9.828-22.819,11.942-35.463C344.1,572.705,343.538,485.651,334.992,433.517z"/>
		<path fill="#592E05" d="M249.147,487.59c6.146,2.104,81.282-9.834,93.225-9.481c6.314,1.58,17.025,8.248,21.419,10.181
			c5.619,12.644,6.668,40.559,0.695,59.869c-2.104,3.161-4.737,5.794-4.737,5.794s3.69,3.162,3.69,6.844
			c0.871,17.91-3.514,46.177-11.591,50.388c-28.438,8.78-72.326,11.942-86.373,10.533
			C261.257,611.184,250.724,504.442,249.147,487.59z"/>
		<linearGradient id="SVGID_6_" gradientUnits="userSpaceOnUse" x1="427.0332" y1="551.9814" x2="199.9634" y2="556.4338">
			<stop  offset="6.030000e-006" style="stop-color:#97613F"/>
			<stop  offset="0.1754" style="stop-color:#9D6843"/>
			<stop  offset="0.9989" style="stop-color:#B68456"/>
		</linearGradient>
		<path fill="url(#SVGID_6_)" d="M253.532,620.315c-11.229-18.261-11.229-45.648-10.709-58.991
			c-7.371-17.905-14.566-44.944-9.652-66.711c8.428,0,16.504,2.981,16.504,2.981s48.189-8.429,69.869-8.601
			c6.5,2.546,26.862,5.708,31.601,7.023c7.381,11.851,6.323,32.302,2.114,49.86c-2.811,4.562-16.857,7.724-16.857,7.724
			s7.02,2.104,14.047,2.809c3.515,12.638,2.105,37.925-6.324,48.458C323.059,613.993,266.171,621.364,253.532,620.315z"/>
		<path fill="#592E05" d="M263.546,557.64c-2.465,0.523,0.521,2.107,3.33,2.805c28.791,3.162,70.229-0.697,86.383-4.563
			c1.225-2.629,3.153-6.668,4.033-9.477C341.668,552.372,293.21,557.811,263.546,557.64z"/>
		<path fill="#592E05" d="M254.237,496.37c-1.751-0.353-7.722-3.514-9.132-3.514c0.965,4.037-0.52,10.27,1.057,17.904
			C248.97,503.742,253.181,498.476,254.237,496.37z"/>
		<path fill="#592E05" d="M225.446,415.259c18.963-4.566,76.545-5.619,94.098-4.215c10.273,2.105,28.355,7.02,34.939,11.238
			c7.731,11.146,10.708,53.717,2.28,72.68c-10.441,4.302-32.473,9.129-39.324,9.129c-6.843,0-61.097-3.334-72.159-4.739
			C236.155,490.575,213.681,454.937,225.446,415.259z"/>
		<linearGradient id="SVGID_7_" gradientUnits="userSpaceOnUse" x1="425.7563" y1="462.3672" x2="205.9446" y2="457.9205">
			<stop  offset="6.030000e-006" style="stop-color:#97613F"/>
			<stop  offset="1" style="stop-color:#B68456"/>
		</linearGradient>
		<path fill="url(#SVGID_7_)" d="M320.777,494.962c0,0-71.983,2.104-86.903,1.056c-4.041-14.571-15.104-50.21-1.408-70.226
			c22.125-3.161,76.721-4.566,84.621-2.721c5.794,1.846,22.912,8.16,28.179,11.851c4.738,13.427,0.528,46.345-3.95,54.513
			C335.789,491.54,320.777,494.962,320.777,494.962z"/>
		<linearGradient id="SVGID_8_" gradientUnits="userSpaceOnUse" x1="298.5806" y1="457.292" x2="415.3658" y2="465.4875">
			<stop  offset="0" style="stop-color:#B68456"/>
			<stop  offset="0.4844" style="stop-color:#B38659"/>
			<stop  offset="0.8846" style="stop-color:#A98E63"/>
			<stop  offset="1" style="stop-color:#A59168"/>
		</linearGradient>
		<path fill="url(#SVGID_8_)" d="M345.525,432.464c-5.266-3.689-19.222-8.076-28.967-9.658c14.928,14.221,10.71,61.27,4.395,71.804
			c8.956-0.524,19.307-2.81,25.629-4.915C351.849,474.247,352.311,444.75,345.525,432.464z"/>
	</g>
</g>
</svg>
