<?xml version="1.0" encoding="utf-8"?>
<!-- Generator: Adobe Illustrator 15.0.0, SVG Export Plug-In . SVG Version: 6.00 Build 0)  -->
<!DOCTYPE svg PUBLIC "-//W3C//DTD SVG 1.1//EN" "http://www.w3.org/Graphics/SVG/1.1/DTD/svg11.dtd">
<svg version="1.1" id="_x30_1_1_" xmlns="http://www.w3.org/2000/svg" xmlns:xlink="http://www.w3.org/1999/xlink" x="0px" y="0px"
	 width="836.077px" height="1074.405px" viewBox="0 0 836.077 1074.405" enable-background="new 0 0 836.077 1074.405"
	 xml:space="preserve">
<g id="Fluo_x5F_no_x5F_sleeves_1_">
	<g>
		<path fill="#93AB20" d="M143.551,52.601C182.914,44.728,319.603,2.862,328.19,0c27.195,47.232,230.085,305.587,264.438,335.645
			c10.02,107.349,15.744,652.679,15.744,675.581c-2.863,27.195-27.91,57.969-75.146,62.262
			c-94.467,8.589-307.018-44.371-375.721-107.349c17.176-143.847,2.146-422.954-32.205-517.422
			C165.377,418.66,229.43,157.087,143.551,52.601z"/>
		<path fill="#B7D130" d="M511.104,1061.521c-99.008,0-275.093-46.894-340.031-100.649c15.031-137.912,2.723-404.233-30.967-508.667
			c22.783-26.69,45.455-98.096,54.704-175.035c6.568-54.649,10.598-151.406-29.632-216.387
			C210.3,49.379,293.528,24.249,322.521,15.281c41.396,63.552,216.572,285.616,257.702,326.366
			c9.65,116.551,15.174,636.195,15.266,668.863c-2.637,21.738-23.477,46.517-63.429,50.148
			C525.752,1061.232,518.703,1061.521,511.104,1061.521z"/>
		<path fill="#DBF74A" d="M580.224,341.647c-41.13-40.75-216.306-262.813-257.702-326.366
			C293.528,24.249,210.3,49.379,165.178,60.784c40.229,64.981,36.2,161.738,29.632,216.387c-2.06,17.128-4.786,33.977-8.03,50.124
			c53.704,222.614,66.246,451.906,71.197,680.421c79.866,31.488,184.832,53.807,253.127,53.807c7.6,0,14.648-0.289,20.957-0.863
			c39.952-3.632,60.792-28.41,63.429-50.148C595.397,977.842,589.874,458.198,580.224,341.647z"/>
		<linearGradient id="SVGID_1_" gradientUnits="userSpaceOnUse" x1="-38.1011" y1="559.9546" x2="405.6096" y2="322.354">
			<stop  offset="0" style="stop-color:#949FA1"/>
			<stop  offset="1" style="stop-color:#B7C6C9"/>
		</linearGradient>
		<path fill="url(#SVGID_1_)" d="M586.849,497.203c-63.278,2.25-126.403,1.708-189.162-2.64
			c-4.793-165.571-24.313-364.938-85.063-477.388c-19.781,6.049-52.2,16.27-83.194,25.227
			c57.824,115.02,64.932,332.399,65.445,441.331c-51.821-7.411-103.312-17.844-154.32-32.083c-0.148,0.181-0.301,0.378-0.449,0.555
			c8.607,26.679,15.816,63.924,21.531,106.894c140.571,36.903,284.242,47.267,427.685,39.173
			C588.563,563.116,587.737,528.927,586.849,497.203z"/>
		<path fill="#868F98" d="M140.555,451.65c-0.148,0.181-0.301,0.378-0.449,0.555c8.607,26.679,15.816,63.924,21.531,106.894
			c23.994,6.298,44.708,10.961,68.866,15.753c-5.367-33.278-9.662-69.24-14.138-104.843
			C190.993,464.728,165.713,458.673,140.555,451.65z"/>
		<linearGradient id="SVGID_2_" gradientUnits="userSpaceOnUse" x1="175.7559" y1="838.7466" x2="594.3506" y2="838.7466">
			<stop  offset="0" style="stop-color:#949FA1"/>
			<stop  offset="1" style="stop-color:#B7C6C9"/>
		</linearGradient>
		<path fill="url(#SVGID_2_)" d="M594.351,902.662c-0.328-26.08-2.691-63.818-3.154-95.4
			c-139.794,11.479-279.416,6.565-415.44-38.645c0.762,33.091,1.1,65.827,0.357,96.255
			C311.214,908.001,453.242,916.75,594.351,902.662z"/>
		<path fill="#868F98" d="M175.756,768.617c0.762,33.091,1.1,65.827,0.357,96.255c25.9,8.268,52.059,15.249,78.413,21.071
			c-1.027-32.148-3.301-64.658-5.237-96.931C224.233,783.3,200.593,776.871,175.756,768.617z"/>
	</g>
	<g>
		<path fill="#93AB20" d="M662.046,33.277c-12.883,83.732-82.299,252.984-99.476,308.091c-2.148,62.262,6.44,638.367,8.589,655.543
			c10.734,25.765,41.508,70.136,86.592,67.989c49.381-6.441,145.997-49.381,167.467-64.41
			c-8.59-109.496-23.619-416.513-8.59-478.775c30.059-103.055,30.059-317.753-34.35-407.926
			C736.121,81.584,683.515,50.454,662.046,33.277z"/>
		<path fill="#DBF74A" d="M654.603,1052.093c-35.73-0.001-61.391-37.129-70.77-58.316c-2.023-36.479-10.557-576.111-8.441-650.231
			c5.053-15.918,14.313-41.169,24.977-70.247c24.578-67.025,57.283-156.211,70.57-217.616c11.214,7.697,25.067,16.641,40.222,26.422
			c19.428,12.542,41.375,26.707,61.889,40.956c59.801,86.584,60.316,295.272,31.215,395.049l-0.154,0.583
			c-15.346,63.565-1.115,358.106,7.67,475.045c-28.541,16.615-111.682,52.441-155.155,58.315
			C655.948,1052.081,655.274,1052.093,654.603,1052.093z"/>
		<linearGradient id="SVGID_3_" gradientUnits="userSpaceOnUse" x1="1277.1665" y1="317.0083" x2="738.9938" y2="331.3198">
			<stop  offset="0" style="stop-color:#949FA1"/>
			<stop  offset="1" style="stop-color:#B7C6C9"/>
		</linearGradient>
		<path fill="url(#SVGID_3_)" d="M781.49,482.906c14.854-118.655,10.086-249.574-14.777-365.896
			c-18.313-12.509-67.418-44.139-72.998-47.771c28.896,153.8,15.709,337.856,8.275,421.08c-42.098,3.407-84.188,5.94-126.213,7.221
			c0.313,31.585,0.703,65.936,1.152,101.374c74.027-3.625,148.022-12.205,221.518-24.664c1.041-24.572,2.855-43.935,5.662-55.558
			l0.154-0.583c3.363-11.53,6.309-24.565,8.834-38.646C802.564,480.653,792.027,481.798,781.49,482.906z"/>
		<linearGradient id="SVGID_4_" gradientUnits="userSpaceOnUse" x1="1098.6401" y1="809.0361" x2="769.4404" y2="834.7996">
			<stop  offset="0" style="stop-color:#949FA1"/>
			<stop  offset="1" style="stop-color:#B7C6C9"/>
		</linearGradient>
		<path fill="url(#SVGID_4_)" d="M801.599,777.921c-62.461,13.059-148.727,25.516-222.567,30.773
			c0.535,32.11,2.154,69.567,2.645,95.161c74.441-6.707,148.881-19.847,222.383-37.737
			C802.703,838.847,802.66,806.754,801.599,777.921z"/>
	</g>
</g>
<g>
	<g>
		<path fill="#944D09" d="M11.449,490.223c6.843-14.749,19.31-51.263,26.682-59.516c4.314-4.826,35.815-30.548,41.786-41.787
			c6.32-10.533,10.007-37.391,12.464-66.712c4.738-19.486,64.283-13.43,67.592,25.635c3.508,41.43-14.396,85.673-23.877,107.44
			C124.508,458.974,19.873,487.061,11.449,490.223z"/>
		<linearGradient id="SVGID_5_" gradientUnits="userSpaceOnUse" x1="50.481" y1="388.748" x2="113.6838" y2="409.289">
			<stop  offset="0" style="stop-color:#CF7B46"/>
			<stop  offset="1" style="stop-color:#E0905E"/>
		</linearGradient>
		<path fill="url(#SVGID_5_)" d="M31.107,471.789c4.537-12.228,10.16-28.145,14.929-34.763c2.418-3.363,16.924-14.718,24.223-22.119
			c7.906-8.021,14.363-13.053,16.443-15.989c8.839-12.454,15.511-45.107,16.212-72.494c7.371-8.429,41.609-3.69,46.348,19.485
			c4.314,21.084-7.725,65.66-16.852,87.432c0,0,19.461-0.03,20.539,4.743C150.314,438.817,59.873,464.333,31.107,471.789z"/>
		<linearGradient id="SVGID_6_" gradientUnits="userSpaceOnUse" x1="78.4292" y1="388.3848" x2="212.8119" y2="426.7004">
			<stop  offset="6.030000e-006" style="stop-color:#E0905E"/>
			<stop  offset="0.1536" style="stop-color:#F1A66D"/>
			<stop  offset="0.3012" style="stop-color:#FBB476"/>
			<stop  offset="0.43" style="stop-color:#FFB979"/>
		</linearGradient>
		<path fill="url(#SVGID_6_)" d="M105.193,333.795c1.059,13.167-2.104,46.877-6.318,69.524
			c-14.22,15.273-26.007,28.725-32.653,59.512c36.188-9.997,84.923-24.245,86.728-24.749c-1.078-4.773-20.539-4.743-20.539-4.743
			c9.127-21.772,21.166-66.348,16.852-87.432c-3.217-15.729-20.014-22.945-32.783-23.334
			C111.518,322.208,105.193,327.476,105.193,333.795z"/>
	</g>
	<g>
		<path fill="#944D09" d="M1.439,474.95c18.958-5.266,43.716-13.166,43.716-13.166s8.952-12.643,23.7-25.286
			c15.247-13.071,27.811-19.8,35.287-22.292c37.566,1.753,58.283-1.057,99.016,5.967c19.298,48.748,30.959,112.641,21.066,187.5
			c-2.457,18.61-11.233,38.625-15.799,45.997c-20.363,14.747-65.836,20.019-87.432,18.962c-27.91-2.634-68.819-12.639-81.106-17.558
			C44.098,643.136,53.583,543.243,1.439,474.95z"/>
		<linearGradient id="SVGID_7_" gradientUnits="userSpaceOnUse" x1="11.9966" y1="682.8262" x2="83.1883" y2="593.6328">
			<stop  offset="0" style="stop-color:#CF7B46"/>
			<stop  offset="1" style="stop-color:#E0905E"/>
		</linearGradient>
		<path fill="url(#SVGID_7_)" d="M129.775,662.451c-41.903,0-81.458-15.449-100.421-21.067C9.34,621.365-12.78,541.31,8.987,486.185
			c21.066-18.262,83.954-59.964,94.103-60.392c38.191,1.3,70.59,1.396,107.44,7.724c8.957,54.685,4.571,185.391-10.534,214.186
			C192.978,652.27,160.672,659.641,129.775,662.451z"/>
		<linearGradient id="SVGID_8_" gradientUnits="userSpaceOnUse" x1="142.8633" y1="542.7788" x2="-90.0322" y2="523.6542">
			<stop  offset="6.030000e-006" style="stop-color:#E0905E"/>
			<stop  offset="0.5233" style="stop-color:#EFA36B"/>
			<stop  offset="1" style="stop-color:#FFB979"/>
		</linearGradient>
		<path fill="url(#SVGID_8_)" d="M178.242,654.744c10.643-2.47,18.659-5.033,21.754-7.042
			c15.105-28.794,19.491-159.5,10.534-214.186c-36.851-6.328-69.249-6.424-107.44-7.724c-10.148,0.428-73.036,42.13-94.103,60.392
			c-19.662,49.858,7.729,125.704,25.634,146.77c12.639,7.373,55.125,22.82,93.049,24.929
			C148.033,658.237,161.936,656.966,178.242,654.744z"/>
		<linearGradient id="SVGID_9_" gradientUnits="userSpaceOnUse" x1="231.6768" y1="518.5967" x2="80.8739" y2="547.3216">
			<stop  offset="6.030000e-006" style="stop-color:#E0905E"/>
			<stop  offset="1" style="stop-color:#FFB979"/>
		</linearGradient>
		<path fill="url(#SVGID_9_)" d="M210.53,433.517c-36.851-6.328-67.667-14.152-105.86-15.453c-0.188,0.009-0.418,0.05-0.633,0.084
			c-3.271,61.726,39.957,145.986,23.633,193.388c3.512,23.524,3.512,36.867,0.701,46.001c10.533,1.047,58.635-3.515,72.683-9.486
			c3.862-7.724,9.828-22.82,11.938-35.463C219.638,572.705,219.072,485.652,210.53,433.517z"/>
		<path fill="#944D09" d="M124.686,487.59c6.143,2.104,81.282-9.834,93.221-9.481c6.318,1.58,17.029,8.248,21.419,10.18
			c5.619,12.643,6.672,40.559,0.7,59.869c-2.104,3.162-4.738,5.794-4.738,5.794s3.687,3.162,3.687,6.844
			c0.876,17.91-3.51,46.176-11.587,50.387c-28.438,8.78-72.33,11.942-86.377,10.533C136.795,611.184,126.262,504.443,124.686,487.59
			z"/>
		<linearGradient id="SVGID_10_" gradientUnits="userSpaceOnUse" x1="302.5679" y1="551.9824" x2="75.5025" y2="556.4347">
			<stop  offset="6.030000e-006" style="stop-color:#E0905E"/>
			<stop  offset="0.2859" style="stop-color:#EA9D66"/>
			<stop  offset="0.9989" style="stop-color:#FFB979"/>
		</linearGradient>
		<path fill="url(#SVGID_10_)" d="M129.07,620.316c-11.232-18.261-11.232-45.648-10.709-58.992
			c-7.371-17.905-14.566-44.944-9.652-66.711c8.428,0,16.5,2.981,16.5,2.981s48.193-8.429,69.873-8.601
			c6.5,2.545,26.862,5.708,31.601,7.023c7.377,11.851,6.323,32.301,2.109,49.86c-2.806,4.562-16.853,7.724-16.853,7.724
			s7.02,2.104,14.047,2.809c3.51,12.638,2.105,37.924-6.324,48.458C198.597,613.993,141.709,621.365,129.07,620.316z"/>
		<path fill="#944D09" d="M139.08,557.639c-2.461,0.524,0.525,2.108,3.334,2.805c28.791,3.162,70.226-0.696,86.378-4.562
			c1.229-2.629,3.158-6.668,4.038-9.477C217.206,552.372,168.748,557.811,139.08,557.639z"/>
		<path fill="#944D09" d="M129.775,496.371c-1.758-0.353-7.723-3.515-9.133-3.515c0.965,4.038-0.523,10.27,1.057,17.905
			C124.508,503.742,128.719,498.475,129.775,496.371z"/>
		<path fill="#944D09" d="M100.984,415.259c18.959-4.567,76.545-5.62,94.098-4.215c10.273,2.106,28.355,7.02,34.939,11.238
			c7.727,11.146,10.709,53.717,2.28,72.68c-10.445,4.302-32.477,9.128-39.324,9.128c-6.843,0-61.097-3.334-72.159-4.739
			C111.693,490.575,89.219,454.936,100.984,415.259z"/>
		<linearGradient id="SVGID_11_" gradientUnits="userSpaceOnUse" x1="301.2944" y1="462.3672" x2="81.4822" y2="457.9205">
			<stop  offset="6.030000e-006" style="stop-color:#E0905E"/>
			<stop  offset="1" style="stop-color:#FFB979"/>
		</linearGradient>
		<path fill="url(#SVGID_11_)" d="M196.315,494.962c0,0-71.983,2.104-86.907,1.056c-4.037-14.571-15.1-50.21-1.404-70.225
			c22.125-3.162,76.721-4.567,84.621-2.721c5.794,1.845,22.912,8.16,28.179,11.851c4.738,13.426,0.528,46.344-3.95,54.512
			C211.322,491.54,196.315,494.962,196.315,494.962z"/>
		<linearGradient id="SVGID_12_" gradientUnits="userSpaceOnUse" x1="333.8892" y1="451.5693" x2="207.9318" y2="458.0103">
			<stop  offset="6.030000e-006" style="stop-color:#E0905E"/>
			<stop  offset="1" style="stop-color:#FFB979"/>
		</linearGradient>
		<path fill="url(#SVGID_12_)" d="M221.063,432.464c-5.266-3.69-19.222-8.076-28.967-9.658c14.923,14.22,10.71,61.269,4.395,71.803
			c8.952-0.524,19.307-2.81,25.629-4.915C227.387,474.247,227.849,444.75,221.063,432.464z"/>
	</g>
</g>
</svg>
