<?xml version="1.0" encoding="utf-8"?>
<!-- Generator: Adobe Illustrator 15.0.0, SVG Export Plug-In . SVG Version: 6.00 Build 0)  -->
<!DOCTYPE svg PUBLIC "-//W3C//DTD SVG 1.1//EN" "http://www.w3.org/Graphics/SVG/1.1/DTD/svg11.dtd">
<svg version="1.1" id="_x30_1_1_" xmlns="http://www.w3.org/2000/svg" xmlns:xlink="http://www.w3.org/1999/xlink" x="0px" y="0px"
	 width="1248.111px" height="1003.844px" viewBox="0 0 1248.111 1003.844" enable-background="new 0 0 1248.111 1003.844"
	 xml:space="preserve">
<g id="Tshirt_x5F_Long_8_">
	<g>
		<path fill="#999999" d="M1062.758,127.386c44.547,9.483,102.338,76.934,105.199,147.068
			c1.432,67.271,13.598,288.054,15.029,328.129c31.488,97.33,55.105,148.143,65.125,382.879
			c-35.426,12.881-114.455,12.893-139.553,7.872c-36.867-90.401-89.744-215.871-95.896-347.811
			C1001.379,403.525,1061.832,154.248,1062.758,127.386z"/>
		<path fill="#E8EBED" d="M1167.854,987.95c-20.115,0-37.25-1.189-47.951-2.602c-37.234-91.368-86.318-214.426-92.225-341.141
			c-8.83-189.387,27.193-386.423,42.572-470.56c2.156-11.785,3.822-20.95,5.037-28.062c36.574,20.757,79.646,72.379,81.945,128.676
			c0.924,43.432,6.424,152.88,10.441,232.796c2.191,43.57,4.082,81.197,4.586,95.268l0.064,1.797c0,0,4.281,13.19,6.1,18.76
			c27.951,85.669,47.98,145.927,57.521,356.851C1219.678,983.726,1195.791,987.95,1167.854,987.95z"/>
		<path fill="#FFFFFF" d="M1235.945,979.735c-9.541-210.924-29.57-271.182-57.521-356.851c-1.818-5.57-6.1-18.76-6.1-18.76
			l-0.064-1.797c-0.504-14.071-2.395-51.698-4.586-95.268c-4.018-79.916-9.518-189.364-10.441-232.796
			c-2.299-56.297-45.371-107.919-81.945-128.676c-1.215,7.111-2.881,16.277-5.037,28.062
			c-8.348,45.682-3.898,111.987-13.934,204.937c11.516,66.365-4.293,150.285,19.32,246.185
			c6.441,107.349,57.969,300.577,76.852,362.939c4.873,0.151,10.002,0.241,15.365,0.241
			C1195.791,987.95,1219.678,983.726,1235.945,979.735z"/>
	</g>
	<g>
		<path fill="#999999" d="M379.302,70.849C422.241,62.262,612.963,10.734,624.77,0c57.969,90.172,257.284,102.696,275.53,13.596
			c33.279,26.836,133.474,96.973,176.948,118.979c11.281,20.639,2.053,48.374,8.051,76.754
			c24.313,74.604,28.273,191.262-13.238,338.148c-6.131,192.287,10.496,360.955,13.238,398.264
			c-18.609,45.802-388.248,111.643-600.081-17.176c5.723-52.957,32.563-188.575,13.955-310.238
			C427.608,498.097,328.847,312.385,379.302,70.849z"/>
		<path fill="#E8EBED" d="M811.841,990.603c-87.476,0-211.317-12.14-309.984-69.2c1.008-7.999,2.344-17.437,3.826-27.917
			c9.335-65.976,22.265-175.549,6.752-276.969l-0.381-2.482l-1.283-2.158C450.798,511.118,342.425,323.681,389.901,80.58
			c42.965-9.729,185.233-46.055,230.579-64.395c37.721,48.331,110.807,70.091,169.404,70.091
			c58.185,0,101.694-19.956,118.956-53.243c39.428,30.847,115.181,87.095,158.604,106.863c50.057,98.417,41.74,228.85-7.779,404.078
			l-0.43,1.519l-0.051,1.575c-5.389,168.988,13.967,392.331,14.305,396.528C1059.375,959.618,954.69,990.603,811.841,990.603z"/>
		<path fill="#FFFFFF" d="M1059.186,547.068l0.051-1.575l0.43-1.519c49.52-175.229,57.836-305.661,7.779-404.078
			c-43.424-19.768-119.177-76.016-158.604-106.863c-17.262,33.287-60.771,53.243-118.956,53.243
			c-58.598,0-131.684-21.76-169.404-70.091c-38.785,15.687-148.435,44.519-206.243,58.625
			c-1.453,89.567,7.467,179.073,36.629,266.558c30.057,94.467,107.349,167.465,128.817,270.521
			c26.549,117.567-3.828,228.436-8.332,341.481c82.898,29.911,172.633,37.232,240.489,37.232
			c142.85,0,247.534-30.984,261.649-47.007C1073.152,939.398,1053.797,716.056,1059.186,547.068z"/>
		<g>
			<path fill="#999999" d="M784.922,127.048c-1.148,0-2.297-0.006-3.459-0.019c-97.918-1.101-195.215-77.092-198.537-106.27
				l6.398-0.729c3.057,26.831,99.24,99.514,192.211,100.558c93.421,1.016,142.954-43.818,148.149-76.016l6.356,1.027
				C930.923,77.332,885.362,127.048,784.922,127.048z"/>
		</g>
		<path fill="#E8EBED" d="M463.749,416.513c81.583,79.438,324.192,113.79,412.219,103.055
			c-118.085,42.94-287.694,38.646-330.636,36.498C506.687,502.392,478.776,437.982,463.749,416.513z"/>
	</g>
	<g>
		<path fill="#999999" d="M70.852,461.6c63.336,17.176,249.05,77.291,270.519,81.585c13.955-31.131,99.836-158.877,105.203-327.772
			c18.605-77.292,24.33-118.082,25.762-138.836c-78.723-45.801-166.748,14.313-207.541,91.604
			C224.718,244.04,82.66,428.322,70.852,461.6z"/>
		<path fill="#FFFFFF" d="M334.495,528.126c-19.947-5.589-63.938-19.251-106.734-32.544
			c-48.89-15.185-103.394-32.114-138.228-42.122c12.104-20.05,37.953-56.249,63.129-91.502
			c46.609-65.265,104.597-146.466,128.302-196.231c28.512-53.836,83.346-94.878,136.625-94.878c14.766,0,47.299-1.931,61.188,3.221
			c-2.299,22.116-8.656,48.254-24.689,114.863l-3.221,27.912c-21.471,108.422-83.174,250.307-109.469,298.516
			C338.735,520.243,336.433,524.463,334.495,528.126z"/>
	</g>
</g>
<g>
	<path fill="#944D09" d="M400.341,647.702c-29.73,3.715-36.994-0.206-75.84,7.025c-90.594,16.849-182.282,36.234-242.28,3.51
		C19.018,616.098-0.725,551.353,11.646,525.51c15.801-33.005,65.834-110.25,144.836-103.228
		c39.33,4.916,74.263,37.393,74.263,37.393s130.094,37.392,157.482,43.187C390.335,532.357,404.556,605.564,400.341,647.702z"/>
	<linearGradient id="SVGID_1_" gradientUnits="userSpaceOnUse" x1="296.5859" y1="686.2461" x2="224.2552" y2="590.0376">
		<stop  offset="0" style="stop-color:#CF7B46"/>
		<stop  offset="1" style="stop-color:#E0905E"/>
	</linearGradient>
	<path fill="url(#SVGID_1_)" d="M184.402,664.027c-40.764,0-68.199-2.474-94.807-16.854c-39.715-26.644-61.764-64.145-65.836-86.901
		c-1.908-10.647-2.059-25.021,1.582-30.021c0,0,48.453-107.269,132.727-97.435c54.773,22.467,69.515,35.811,69.515,35.811
		s115.875,35.819,123.604,37.22c-5.619,16.857-16.857,120.088-19.314,136.588C287.097,651.032,227.583,661.217,184.402,664.027z"/>
	<linearGradient id="SVGID_2_" gradientUnits="userSpaceOnUse" x1="163.6621" y1="763.9609" x2="190.6999" y2="504.8476">
		<stop  offset="6.030000e-006" style="stop-color:#E0905E"/>
		<stop  offset="0.3012" style="stop-color:#E59763"/>
		<stop  offset="0.7338" style="stop-color:#F4AA6F"/>
		<stop  offset="1" style="stop-color:#FFB979"/>
	</linearGradient>
	<path fill="url(#SVGID_2_)" d="M340.302,620.316c4.436-36.339,7.244-103.567,10.885-114.469
		c-7.729-1.4-123.604-37.22-123.604-37.22s-33.177-29.496-69.515-35.811c-84.273-9.834-130.621,94.802-130.621,94.802
		c-2.105,8.424-9.133,23.173,34.41,51.26C113.473,636.116,190.021,661.042,340.302,620.316z"/>
	<path fill="#944D09" d="M287.634,484.428c-23.178-5.616-83.573-22.821-130.622-30.544c42.135,0,66.362,7.547,71.981,7.723
		C233.202,465.118,276.394,479.513,287.634,484.428z"/>
</g>
<g>
	<g>
		<path fill="#944D09" d="M287.634,490.223c6.842-14.749,19.309-51.263,26.682-59.516c4.314-4.826,35.814-30.548,41.785-41.787
			c6.32-10.533,10.008-37.391,12.465-66.712c4.738-19.486,64.283-13.43,67.592,25.635c3.508,41.43-14.396,85.673-23.877,107.44
			C400.692,458.974,296.058,487.061,287.634,490.223z"/>
		<linearGradient id="SVGID_3_" gradientUnits="userSpaceOnUse" x1="326.666" y1="388.748" x2="389.8686" y2="409.2889">
			<stop  offset="0" style="stop-color:#CF7B46"/>
			<stop  offset="1" style="stop-color:#E0905E"/>
		</linearGradient>
		<path fill="url(#SVGID_3_)" d="M307.292,471.789c4.537-12.228,10.16-28.145,14.928-34.763
			c2.418-3.363,16.924-14.718,24.223-22.119c7.906-8.021,14.363-13.053,16.443-15.989c8.84-12.454,15.512-45.107,16.213-72.494
			c7.371-8.429,41.609-3.69,46.348,19.485c4.314,21.084-7.725,65.66-16.852,87.432c0,0,19.461-0.03,20.539,4.743
			C426.499,438.817,336.058,464.333,307.292,471.789z"/>
		<linearGradient id="SVGID_4_" gradientUnits="userSpaceOnUse" x1="354.6133" y1="388.3848" x2="488.9985" y2="426.7012">
			<stop  offset="6.030000e-006" style="stop-color:#E0905E"/>
			<stop  offset="0.1536" style="stop-color:#F1A66D"/>
			<stop  offset="0.3012" style="stop-color:#FBB476"/>
			<stop  offset="0.43" style="stop-color:#FFB979"/>
		</linearGradient>
		<path fill="url(#SVGID_4_)" d="M381.378,333.795c1.059,13.167-2.104,46.877-6.318,69.524
			c-14.221,15.273-26.008,28.725-32.654,59.512c36.189-9.997,84.924-24.245,86.729-24.749c-1.078-4.773-20.539-4.743-20.539-4.743
			c9.127-21.772,21.166-66.348,16.852-87.432c-3.217-15.729-20.014-22.945-32.783-23.334
			C387.702,322.208,381.378,327.476,381.378,333.795z"/>
	</g>
	<g>
		<path fill="#944D09" d="M277.624,474.95c18.957-5.266,43.715-13.166,43.715-13.166s8.953-12.643,23.701-25.286
			c15.246-13.071,27.811-19.8,35.287-22.292c37.566,1.753,58.283-1.057,99.016,5.967c19.297,48.748,30.959,112.641,21.066,187.5
			c-2.457,18.61-11.234,38.625-15.799,45.997c-20.363,14.747-65.836,20.019-87.432,18.962c-27.91-2.634-68.82-12.639-81.107-17.558
			C320.282,643.136,329.767,543.243,277.624,474.95z"/>
		<linearGradient id="SVGID_5_" gradientUnits="userSpaceOnUse" x1="288.1807" y1="682.8262" x2="359.3724" y2="593.6328">
			<stop  offset="0" style="stop-color:#CF7B46"/>
			<stop  offset="1" style="stop-color:#E0905E"/>
		</linearGradient>
		<path fill="url(#SVGID_5_)" d="M405.96,662.451c-41.904,0-81.459-15.449-100.422-21.067
			c-20.014-20.019-42.135-100.074-20.367-155.199c21.066-18.262,83.955-59.964,94.104-60.392c38.191,1.3,70.59,1.396,107.439,7.724
			c8.957,54.685,4.572,185.391-10.533,214.186C469.161,652.27,436.856,659.641,405.96,662.451z"/>
		<linearGradient id="SVGID_6_" gradientUnits="userSpaceOnUse" x1="419.0479" y1="542.7788" x2="186.1519" y2="523.6542">
			<stop  offset="6.030000e-006" style="stop-color:#E0905E"/>
			<stop  offset="0.5233" style="stop-color:#EFA36B"/>
			<stop  offset="1" style="stop-color:#FFB979"/>
		</linearGradient>
		<path fill="url(#SVGID_6_)" d="M454.427,654.744c10.643-2.47,18.658-5.033,21.754-7.042c15.105-28.794,19.49-159.5,10.533-214.186
			c-36.85-6.328-69.248-6.424-107.439-7.724c-10.148,0.428-73.037,42.13-94.104,60.392c-19.662,49.858,7.729,125.704,25.635,146.77
			c12.639,7.373,55.125,22.82,93.049,24.929C424.218,658.237,438.12,656.966,454.427,654.744z"/>
		<linearGradient id="SVGID_7_" gradientUnits="userSpaceOnUse" x1="507.8613" y1="518.5967" x2="357.0603" y2="547.3212">
			<stop  offset="6.030000e-006" style="stop-color:#E0905E"/>
			<stop  offset="1" style="stop-color:#FFB979"/>
		</linearGradient>
		<path fill="url(#SVGID_7_)" d="M486.714,433.517c-36.85-6.328-67.666-14.152-105.859-15.453c-0.188,0.009-0.418,0.05-0.633,0.084
			c-3.271,61.726,39.957,145.986,23.633,193.388c3.512,23.524,3.512,36.867,0.701,46.001c10.533,1.047,58.635-3.515,72.682-9.486
			c3.863-7.724,9.828-22.82,11.938-35.463C495.821,572.705,495.257,485.652,486.714,433.517z"/>
		<path fill="#944D09" d="M400.87,487.59c6.143,2.104,81.281-9.834,93.221-9.481c6.318,1.58,17.029,8.248,21.419,10.18
			c5.619,12.643,6.672,40.559,0.699,59.869c-2.104,3.162-4.737,5.794-4.737,5.794s3.687,3.162,3.687,6.844
			c0.875,17.91-3.511,46.176-11.587,50.387c-28.439,8.78-72.33,11.942-86.377,10.533C412.979,611.184,402.446,504.443,400.87,487.59
			z"/>
		<linearGradient id="SVGID_8_" gradientUnits="userSpaceOnUse" x1="578.7529" y1="551.9829" x2="351.6867" y2="556.4352">
			<stop  offset="6.030000e-006" style="stop-color:#E0905E"/>
			<stop  offset="0.2859" style="stop-color:#EA9D66"/>
			<stop  offset="0.9989" style="stop-color:#FFB979"/>
		</linearGradient>
		<path fill="url(#SVGID_8_)" d="M405.255,620.316c-11.232-18.261-11.232-45.648-10.709-58.992
			c-7.371-17.905-14.566-44.944-9.652-66.711c8.428,0,16.5,2.981,16.5,2.981s48.193-8.429,69.873-8.601
			c6.5,2.545,26.861,5.708,31.6,7.023c7.377,11.851,6.324,32.301,2.109,49.86c-2.805,4.562-16.852,7.724-16.852,7.724
			s7.02,2.104,14.047,2.809c3.51,12.638,2.105,37.924-6.324,48.458C474.78,613.993,417.894,621.365,405.255,620.316z"/>
		<path fill="#944D09" d="M415.265,557.639c-2.461,0.524,0.525,2.108,3.334,2.805c28.791,3.162,70.225-0.696,86.377-4.562
			c1.23-2.629,3.158-6.668,4.039-9.477C493.39,552.372,444.933,557.811,415.265,557.639z"/>
		<path fill="#944D09" d="M405.96,496.371c-1.758-0.353-7.723-3.515-9.133-3.515c0.965,4.038-0.523,10.27,1.057,17.905
			C400.692,503.742,404.903,498.475,405.96,496.371z"/>
		<path fill="#944D09" d="M377.169,415.259c18.959-4.567,76.545-5.62,94.098-4.215c10.273,2.106,28.355,7.02,34.939,11.238
			c7.727,11.146,10.708,53.717,2.279,72.68c-10.445,4.302-32.477,9.128-39.324,9.128c-6.842,0-61.096-3.334-72.158-4.739
			C387.878,490.575,365.403,454.936,377.169,415.259z"/>
		<linearGradient id="SVGID_9_" gradientUnits="userSpaceOnUse" x1="577.4766" y1="462.3672" x2="357.667" y2="457.9206">
			<stop  offset="6.030000e-006" style="stop-color:#E0905E"/>
			<stop  offset="1" style="stop-color:#FFB979"/>
		</linearGradient>
		<path fill="url(#SVGID_9_)" d="M472.499,494.962c0,0-71.982,2.104-86.906,1.056c-4.037-14.571-15.1-50.21-1.404-70.225
			c22.125-3.162,76.721-4.567,84.621-2.721c5.793,1.845,22.912,8.16,28.178,11.851c4.738,13.426,0.529,46.344-3.949,54.512
			C487.507,491.54,472.499,494.962,472.499,494.962z"/>
		<linearGradient id="SVGID_10_" gradientUnits="userSpaceOnUse" x1="610.0732" y1="451.5698" x2="484.1159" y2="458.0107">
			<stop  offset="6.030000e-006" style="stop-color:#E0905E"/>
			<stop  offset="1" style="stop-color:#FFB979"/>
		</linearGradient>
		<path fill="url(#SVGID_10_)" d="M497.247,432.464c-5.266-3.69-19.221-8.076-28.967-9.658c14.924,14.22,10.711,61.269,4.395,71.803
			c8.953-0.524,19.307-2.81,25.629-4.915C503.571,474.247,504.032,444.75,497.247,432.464z"/>
	</g>
</g>
<g>
	<path fill="#999999" d="M117.369,418.66C68.293,428.201,2.863,500.245,0,543.185c7.16,47.233,27.197,93.035,84.451,124.525
		c65.838,27.195,217.56-5.725,230.44-8.588c-24.332-20.041-54.389-103.056-21.469-191.796
		c-21.471-4.295-50.162-10.118-68.705-20.039C191.838,429.701,168.896,408.642,117.369,418.66z"/>
	<path fill="#FFFFFF" d="M157.543,665.52c-29.223,0-51.936-3.18-67.527-9.454c-44.797-24.842-68.613-59.863-77.049-113.333
		c3.713-35.75,62.932-102.887,106.863-111.429c8.145-1.583,15.566-2.354,22.68-2.354c24.545,0,41.137,9.632,60.348,20.786
		c5.041,2.925,10.25,5.949,15.784,8.911c16.275,8.706,38.512,14.272,57.922,18.384c-21.943,72.288-5.934,139.303,15.096,173.698
		c-29.504,5.651-84.837,14.791-134.11,14.791C157.543,665.52,157.549,665.52,157.543,665.52z"/>
</g>
</svg>
