<?xml version="1.0" encoding="utf-8"?>
<!-- Generator: Adobe Illustrator 15.0.0, SVG Export Plug-In . SVG Version: 6.00 Build 0)  -->
<!DOCTYPE svg PUBLIC "-//W3C//DTD SVG 1.1//EN" "http://www.w3.org/Graphics/SVG/1.1/DTD/svg11.dtd">
<svg version="1.1" xmlns="http://www.w3.org/2000/svg" xmlns:xlink="http://www.w3.org/1999/xlink" x="0px" y="0px"
	 width="840.173px" height="1663.056px" viewBox="0 0 840.173 1663.056" enable-background="new 0 0 840.173 1663.056"
	 xml:space="preserve">
<g id="Skin_x5F_01">
	<g id="Apron">
		<g>
			<path fill="#3C3B40" d="M122.083,54.749C152.14,46.161,293.127,8.589,318.89,0c7.363,26.511,67.263,147.068,208.972,147.068
				c95.541,0,128.818-77.291,132.04-120.23c39.003,33.279,116.292,80.153,137.047,91.246
				c38.646,62.978,70.492,182.137,7.516,442.636c-1.433,37.213-2.863,127.387,0.001,250.481c20.038,290.557,3.709,770.197,0,791.517
				c-134.542,80.154-416.516,71.568-642.663,25.765c-8.636-67.355-5.727-410.788,50.095-762.892
				c10.735-231.873-50.095-340.654-84.447-422.239C193.292,273.026,144.983,124.884,122.083,54.749z"/>
			<path fill="#806B56" d="M493.347,1650.175c-99.988,0-213.15-11.51-319.729-32.47c-7.74-88.602,0.101-421.417,52.435-751.529
				l0.114-0.707l0.031-0.714c9.654-208.532-38.876-317.83-74.311-397.636c-3.71-8.353-7.247-16.321-10.547-24.023
				c64.834-171.607,40.837-321.013,22.339-384.567l8.993-2.557c38.732-11,106.218-30.164,138.015-39.879
				c13.951,36.972,63.29,156.74,200.001,156.74c84.151,0,152.435-36.499,156.551-123.573c40.159,30.751,99.52,66.822,120.481,78.46
				c52.635,88.677,51.842,233.004,4.224,429.972l-0.303,1.25l-0.048,1.283c-1.684,43.708-2.692,135.741-0.004,251.277l0.028,0.587
				c18.786,272.404,5.407,722.979,0.737,782.751C727.661,1631.06,624.508,1650.175,493.347,1650.175z"/>
			<path fill="#8C785F" d="M791.588,811.502c-2.688-115.536-1.679-207.569,0.004-251.277l0.048-1.283l0.303-1.25
				c47.618-196.968,48.411-341.295-4.224-429.972c-20.961-11.638-80.322-47.709-120.481-78.46
				c-9.484,57.016-54.15,109.618-138.302,109.618c-136.71,0-204.299-105.813-218.25-142.785
				c-31.796,9.715-170.354,47.244-170.354,47.244c15.457,53.106,50.454,162.097,26.053,297.857
				c18.227,128.71,82.107,246.974,154.293,356.971c3.998,6.093-6.701,40.615-8.087,48.417c-2.876,16.2-5.92,32.372-9.097,48.515
				c-27.905,141.818-49.521,283.814-57.453,428.271c-6.392,116.476-8.215,234.486-5.652,351.144
				c0.056,2.555-0.929,34.791,2.805,35.369c85.135,13.179,171.696,20.294,250.152,20.294c131.161,0,234.314-19.115,299.006-55.335
				c4.67-59.772,18.049-510.347-0.737-782.751L791.588,811.502z"/>
			<path fill="#806B56" d="M261.995,487.723c164.602,44.369,395.044,38.646,513.843,21.469
				C711.428,569.309,465.958,610.101,261.995,487.723z"/>
			<path fill="#806B56" d="M513.907,534.957c48.307-1.432,213.983,18.249,224.718,21.47
				c-85.879,27.193-217.562,10.018-251.914,4.293C491.005,552.132,508.54,537.104,513.907,534.957z"/>
			<path fill="#806B56" d="M373.639,726.752c100.19,11.45,246.902,15.387,317.751,5.727
				C634.496,772.198,460.59,781.5,373.639,726.752z"/>
		</g>
		<g>
			<g>
				<path fill="#3C3B40" d="M203.132,713.334c2.281-3.892,6.844-5.636,6.844-5.636s0.804,14.089,1.46,17.149
					c30.878,32.5,94.455,63.668,184.387,79.197c70.135,12.167,86.594,183.925,0.714,189.651
					c-115.043,8.943-179.986-44.73-198.951-85.165C210.826,845.913,207.425,754.126,203.132,713.334z"/>
				<path fill="#806B56" d="M379.465,983.401c-85.606,0-144.233-35.233-166.231-71.509c7.252-43.438,10.892-114.978,8.311-162.789
					c36.167,30.905,95.463,54.404,172.087,67.634c33.335,6.477,49.944,59.975,46.747,106.04
					C438.227,953.796,424.27,982.779,379.465,983.401z"/>
				<path fill="#8C785F" d="M440.379,922.777c3.197-46.065-13.412-99.563-46.747-106.04c-33.127-5.72-62.943-13.394-89.116-22.726
					c-9.014,18.49-24.173,108.952-26.776,153.165c34.883,18.346,101.981,36.14,141.154,24.076
					C433.311,959.821,439.066,941.698,440.379,922.777z"/>
			</g>
			<path fill="#3C3B40" d="M807.327,726.752c-1.609-3.398-4.652-6.978-4.652-6.978s0.501,21.197-0.434,23.852
				c-10.301,26.603-27.353,44.478-84.371,60.417c-80.868,20.039-95.182,183.21-12.165,197.521
				c100.193-8.587,117.367-44.371,117.367-87.311C815.916,861.295,807.327,775.418,807.327,726.752z"/>
			<path fill="#8C785F" d="M706.337,988.58c-38.278-7.794-42.931-54.007-43.439-68.14c-1.576-43.604,19.714-94.387,58.071-103.892
				c39.239-10.965,61.386-21.474,75.54-36.968c3.121,47.471,9.155,101.87,13.679,135.525
				C810.045,947.726,801.306,980.058,706.337,988.58z"/>
		</g>
	</g>
</g>
<g id="_x30_6_1_">
	<g>
		<g>
			<path fill="#371C03" d="M11.452,489.151c6.842-14.749,19.305-51.263,26.677-59.516c4.318-4.826,35.819-30.548,41.791-41.787
				c6.315-10.533,10.006-37.391,12.463-66.712c4.739-19.486,64.283-13.43,67.588,25.635c3.513,41.43-14.392,85.673-23.877,107.44
				C124.51,457.902,19.871,485.989,11.452,489.151z"/>
			<linearGradient id="SVGID_1_" gradientUnits="userSpaceOnUse" x1="50.4829" y1="387.6768" x2="113.6855" y2="408.2177">
				<stop  offset="0" style="stop-color:#52311C"/>
				<stop  offset="1" style="stop-color:#634029"/>
			</linearGradient>
			<path fill="url(#SVGID_1_)" d="M31.109,470.717c4.537-12.228,10.156-28.145,14.929-34.763
				c2.415-3.363,16.924-14.718,24.221-22.119c7.908-8.021,14.365-13.053,16.446-15.989c8.839-12.454,15.507-45.107,16.211-72.494
				c7.372-8.429,41.606-3.69,46.345,19.485c4.318,21.084-7.726,65.66-16.849,87.432c0,0,19.456-0.03,20.539,4.743
				C150.316,437.745,59.875,463.261,31.109,470.717z"/>
			<linearGradient id="SVGID_2_" gradientUnits="userSpaceOnUse" x1="78.4307" y1="387.313" x2="212.8142" y2="425.6289">
				<stop  offset="6.030000e-006" style="stop-color:#634029"/>
				<stop  offset="0.1071" style="stop-color:#6F4C31"/>
				<stop  offset="0.2794" style="stop-color:#7D593B"/>
				<stop  offset="0.43" style="stop-color:#825E3E"/>
			</linearGradient>
			<path fill="url(#SVGID_2_)" d="M105.196,332.724c1.057,13.167-2.104,46.877-6.323,69.524
				c-14.215,15.273-26.007,28.725-32.65,59.512c36.188-9.997,84.923-24.245,86.727-24.749c-1.083-4.773-20.539-4.743-20.539-4.743
				c9.123-21.772,21.167-66.348,16.849-87.432c-3.213-15.729-20.011-22.945-32.784-23.334
				C111.521,321.137,105.196,326.404,105.196,332.724z"/>
		</g>
		<g>
			<path fill="#371C03" d="M1.438,473.878c18.962-5.266,43.72-13.166,43.72-13.166s8.948-12.643,23.7-25.286
				c15.248-13.071,27.81-19.8,35.283-22.292c37.572,1.753,58.287-1.057,99.021,5.967c19.298,48.748,30.956,112.641,21.067,187.5
				c-2.457,18.61-11.237,38.625-15.799,45.997c-20.363,14.747-65.836,20.019-87.431,18.962
				c-27.911-2.634-68.82-12.639-81.107-17.558C44.1,642.064,53.585,542.171,1.438,473.878z"/>
			<linearGradient id="SVGID_3_" gradientUnits="userSpaceOnUse" x1="11.998" y1="681.7534" x2="83.1898" y2="592.5599">
				<stop  offset="0" style="stop-color:#52311C"/>
				<stop  offset="1" style="stop-color:#634029"/>
			</linearGradient>
			<path fill="url(#SVGID_3_)" d="M129.777,661.379c-41.908,0-81.458-15.449-100.421-21.067
				C9.337,620.293-12.778,540.238,8.986,485.113c21.066-18.262,83.958-59.964,94.106-60.392c38.192,1.3,70.59,1.396,107.441,7.724
				c8.957,54.685,4.571,185.391-10.534,214.186C192.98,651.198,160.674,658.569,129.777,661.379z"/>
			<linearGradient id="SVGID_4_" gradientUnits="userSpaceOnUse" x1="142.8657" y1="541.707" x2="-90.0329" y2="522.5822">
				<stop  offset="6.030000e-006" style="stop-color:#634029"/>
				<stop  offset="0.6675" style="stop-color:#765336"/>
				<stop  offset="1" style="stop-color:#825E3E"/>
			</linearGradient>
			<path fill="url(#SVGID_4_)" d="M178.245,653.672c10.642-2.47,18.659-5.033,21.754-7.042
				c15.105-28.794,19.491-159.5,10.534-214.186c-36.851-6.328-69.249-6.424-107.441-7.724c-10.147,0.428-73.04,42.13-94.106,60.392
				c-19.658,49.858,7.732,125.704,25.637,146.77c12.639,7.373,55.125,22.82,93.05,24.929
				C148.035,657.165,161.932,655.894,178.245,653.672z"/>
			<linearGradient id="SVGID_5_" gradientUnits="userSpaceOnUse" x1="231.6797" y1="517.5244" x2="80.8708" y2="546.2504">
				<stop  offset="6.030000e-006" style="stop-color:#634029"/>
				<stop  offset="1" style="stop-color:#825E3E"/>
			</linearGradient>
			<path fill="url(#SVGID_5_)" d="M210.533,432.445c-36.851-6.328-67.672-14.152-105.865-15.453
				c-0.184,0.009-0.419,0.05-0.629,0.084c-3.271,61.726,39.954,145.986,23.634,193.388c3.506,23.524,3.506,36.867,0.696,46.001
				c10.534,1.047,58.64-3.515,72.688-9.486c3.857-7.724,9.828-22.82,11.934-35.463C219.641,571.633,219.07,484.58,210.533,432.445z"
				/>
			<path fill="#371C03" d="M124.688,486.518c6.139,2.104,81.283-9.834,93.217-9.481c6.323,1.58,17.034,8.248,21.42,10.18
				c5.619,12.643,6.675,40.559,0.704,59.869c-2.104,3.162-4.738,5.794-4.738,5.794s3.682,3.162,3.682,6.844
				c0.88,17.91-3.505,46.176-11.582,50.387c-28.439,8.78-72.334,11.942-86.382,10.533
				C136.798,610.112,126.264,503.371,124.688,486.518z"/>
			<linearGradient id="SVGID_6_" gradientUnits="userSpaceOnUse" x1="302.5679" y1="550.9106" x2="75.5043" y2="555.3629">
				<stop  offset="6.030000e-006" style="stop-color:#634029"/>
				<stop  offset="0.0794" style="stop-color:#66432B"/>
				<stop  offset="0.9989" style="stop-color:#825E3E"/>
			</linearGradient>
			<path fill="url(#SVGID_6_)" d="M129.073,619.244c-11.238-18.261-11.238-45.648-10.709-58.992
				c-7.373-17.905-14.568-44.944-9.653-66.711c8.428,0,16.497,2.981,16.497,2.981s48.198-8.429,69.877-8.601
				c6.5,2.545,26.862,5.708,31.601,7.023c7.372,11.851,6.323,32.301,2.105,49.86c-2.801,4.562-16.849,7.724-16.849,7.724
				s7.02,2.104,14.047,2.809c3.505,12.638,2.105,37.924-6.324,48.458C198.599,612.921,141.712,620.293,129.073,619.244z"/>
			<path fill="#371C03" d="M139.079,556.567c-2.458,0.524,0.528,2.108,3.338,2.805c28.791,3.162,70.221-0.696,86.374-4.562
				c1.233-2.629,3.162-6.668,4.042-9.477C217.208,551.3,168.751,556.739,139.079,556.567z"/>
			<path fill="#371C03" d="M129.777,495.299c-1.761-0.353-7.723-3.515-9.132-3.515c0.964,4.038-0.528,10.27,1.057,17.905
				C124.51,502.67,128.721,497.403,129.777,495.299z"/>
			<path fill="#371C03" d="M100.987,414.188c18.954-4.567,76.544-5.62,94.097-4.215c10.274,2.106,28.356,7.02,34.939,11.238
				c7.723,11.146,10.709,53.717,2.281,72.68c-10.45,4.302-32.481,9.128-39.325,9.128c-6.844,0-61.097-3.334-72.159-4.739
				C111.696,489.503,89.221,453.864,100.987,414.188z"/>
			<linearGradient id="SVGID_7_" gradientUnits="userSpaceOnUse" x1="301.2969" y1="461.2959" x2="81.4847" y2="456.8492">
				<stop  offset="6.030000e-006" style="stop-color:#634029"/>
				<stop  offset="1" style="stop-color:#825E3E"/>
			</linearGradient>
			<path fill="url(#SVGID_7_)" d="M196.318,493.89c0,0-71.983,2.104-86.911,1.056c-4.034-14.571-15.096-50.21-1.4-70.225
				c22.124-3.162,76.721-4.567,84.621-2.721c5.794,1.845,22.913,8.16,28.179,11.851c4.739,13.426,0.528,46.344-3.95,54.512
				C211.321,490.468,196.318,493.89,196.318,493.89z"/>
			<linearGradient id="SVGID_8_" gradientUnits="userSpaceOnUse" x1="129.9678" y1="453.1216" x2="432.3968" y2="474.3447">
				<stop  offset="0" style="stop-color:#825E3E"/>
				<stop  offset="0.4964" style="stop-color:#7F5F40"/>
				<stop  offset="0.9064" style="stop-color:#756245"/>
				<stop  offset="1" style="stop-color:#716347"/>
			</linearGradient>
			<path fill="url(#SVGID_8_)" d="M221.066,431.392c-5.266-3.69-19.222-8.076-28.967-9.658c14.919,14.22,10.71,61.269,4.395,71.803
				c8.948-0.524,19.307-2.81,25.629-4.915C227.39,473.175,227.852,443.678,221.066,431.392z"/>
		</g>
	</g>
</g>
</svg>
