<?xml version="1.0" encoding="utf-8"?>
<!-- Generator: Adobe Illustrator 15.0.0, SVG Export Plug-In . SVG Version: 6.00 Build 0)  -->
<!DOCTYPE svg PUBLIC "-//W3C//DTD SVG 1.1//EN" "http://www.w3.org/Graphics/SVG/1.1/DTD/svg11.dtd">
<svg version="1.1" id="_x30_1_1_" xmlns="http://www.w3.org/2000/svg" xmlns:xlink="http://www.w3.org/1999/xlink" x="0px" y="0px"
	 width="1268.142px" height="1155.613px" viewBox="0 0 1268.142 1155.613" enable-background="new 0 0 1268.142 1155.613"
	 xml:space="preserve">
<g id="Fluo_x5F_Jacket_11_">
	<g>
		<path fill="#93AB20" d="M380.06,132.577c-37.571,3.22-83.179,24.012-118.082,78.363C186.832,327.95,71.969,516.885,41.912,561.972
			c24.689,9.661,263.004,98.761,284.475,104.128c21.468-35.425,82.659-142.773,95.539-166.391
			C491.704,377.331,491.704,113.253,380.06,132.577z"/>
		<path fill="#DBF74A" d="M320.531,650.813C277.75,636.57,115.097,575.98,61.412,555.64c17.014-26.503,45.755-72.84,78.18-125.112
			c43.957-70.875,93.78-151.206,133.223-212.626c37.375-58.196,83.925-70.397,108.347-72.489l0.551-0.049l0.547-0.094
			c3.131-0.543,6.199-0.817,9.119-0.817c17.205,0,31.002,9.351,42.175,28.587c39.195,67.465,27.465,232.101-22.815,320.29
			C398.483,515.785,345.085,609.506,320.531,650.813z"/>
		<linearGradient id="SVGID_1_" gradientUnits="userSpaceOnUse" x1="153.0176" y1="432.6162" x2="427.293" y2="432.6162">
			<stop  offset="0" style="stop-color:#949FA1"/>
			<stop  offset="1" style="stop-color:#B7C6C9"/>
		</linearGradient>
		<path fill="url(#SVGID_1_)" d="M410.737,493.329c7.233-12.688,10.954-21.222,16.556-36.56
			c-58.507-67.579-136.779-118.173-224.357-130.966c-18.563,29.699-31.662,52.967-49.918,82.391
			c86.772,18.159,166.928,69.688,227.042,131.234C394.544,514.006,405.591,502.764,410.737,493.329z"/>
	</g>
	<g>
		<g>
			<g>
				<path fill="#93AB20" d="M1082.122,996.734c6.799,41.152,25.049,100.908,27.91,105.201
					c44.369,18.605,134.547-3.578,150.291-32.203c-4.293-31.49-7.156-85.164-8.588-96.615
					C1215.235,977.412,1114.327,994.588,1082.122,996.734z"/>
				<path fill="#DBF74A" d="M1151.019,1095.9c-12.068,0-22.746-1.41-31.252-4.107c-4.531-12.822-15.807-50.855-22.422-83.566
					c22.398-2.537,56.426-7.705,89.553-12.734c19.803-3.01,38.789-5.893,53.186-7.877c0.266,3.492,0.555,7.414,0.859,11.549
					c1.475,20.074,3.451,46.998,5.973,67.35C1234.862,1080.488,1192.466,1095.9,1151.019,1095.9L1151.019,1095.9z"/>
			</g>
			<g>
				<path fill="#93AB20" d="M1026.306,170.147c57.963,12.883,118.078,55.822,145.99,130.967
					c17.176,83.732,42.227,344.232,42.227,362.839c7.154,42.939,60.117,286.266,52.959,346.381
					c-15.746,37.213-173.195,65.125-196.096,37.93c-17.172-34.354-47.229-100.908-55.816-122.379
					C1017.003,797.065,1019.149,211.655,1026.306,170.147z"/>
				<path fill="#DBF74A" d="M1127.604,1048.502c-28.592,0-41.775-4.754-45.596-7.809c-16.08-32.371-43.881-93.676-53.531-117.25
					c0.307-28.544,0.641-76.57,1.061-136.893c1.301-187.213,3.631-522.642,8.201-600.049
					c55.379,17.157,100.369,60.396,122.137,118.177c17.152,84.666,41.764,341.335,41.764,359.274v1.064l0.176,1.054
					c1.008,6.061,2.828,16.296,5.189,29.579c13.107,73.742,50.896,258.736,46.162,311.818
					C1244.079,1022.127,1184.53,1048.502,1127.604,1048.502z"/>
				<linearGradient id="SVGID_2_" gradientUnits="userSpaceOnUse" x1="1031.1338" y1="503.8965" x2="1189.0576" y2="503.8965">
					<stop  offset="0" style="stop-color:#949FA1"/>
					<stop  offset="1" style="stop-color:#B7C6C9"/>
				</linearGradient>
				<path fill="url(#SVGID_2_)" d="M1178.737,432.079c-21.879,15.263-95.898,44.372-146.691,47.093
					c-0.332,31.873-0.635,64.373-0.912,96.541c55.549-6.898,111.82-17.677,157.924-48.837
					C1186.032,498.177,1182.249,461.507,1178.737,432.079z"/>
				<linearGradient id="SVGID_3_" gradientUnits="userSpaceOnUse" x1="1029.5244" y1="912.4063" x2="1247.6982" y2="912.4063">
					<stop  offset="0" style="stop-color:#949FA1"/>
					<stop  offset="1" style="stop-color:#B7C6C9"/>
				</linearGradient>
				<path fill="url(#SVGID_3_)" d="M1234.56,841.436c-52.602,29.7-135.131,53.13-205.035,59.759
					c-0.096,11.813,14.438,58.187,25.393,82.14c76.584,1.236,152.447-24.527,192.781-53.09
					C1244.399,905.587,1239.331,869.233,1234.56,841.436z"/>
			</g>
		</g>
		<g>
			<path fill="#93AB20" d="M435.881,1021.783c8.588,37.215,10.021,62.977,20.041,78.723c80.152,51.525,465.18,78.723,629.778-4.293
				c8.588-25.764,11.451-51.527,14.313-72.996C1024.161,1027.51,485.979,1020.354,435.881,1021.783z"/>
			<path fill="#B7D130" d="M770.878,1136.289c-131.604,0-261.439-19.26-305.444-45.059c-4.561-8.742-7.109-22.357-10.262-39.207
				c-1.018-5.443-2.113-11.291-3.375-17.533c3.027-0.012,6.412-0.018,10.145-0.018c37.948,0,108.141,0.545,189.417,1.176
				c111.108,0.861,237.042,1.84,329.896,1.84c48.717,0,83.043-0.271,103.984-0.824c-2.168,15.934-4.916,33.184-10.148,50.408
				C1008.688,1118.836,901.014,1136.289,770.878,1136.289z"/>
			<path fill="#DBF74A" d="M520.687,1082.613c0,8.59,3.221,18.25,6.066,29.902c61.55,14.408,152.39,23.773,244.125,23.773
				c130.136,0,237.811-17.453,304.213-49.217c5.232-17.225,7.98-34.475,10.148-50.408
				C858.837,1140.582,557.186,1087.98,520.687,1082.613z"/>
			<path fill="#93AB20" d="M808.941,319.603c-38.453-27.945-64.734-69.035-91.621-109.22
				c-55.487-31.356-91.192-77.88-124.709-135.775c-45.803,7.872-170.686,40.792-225.433,61.189
				c38.646,27.194,107.349,199.669,17.176,373.574c2.146,105.201,8.588,465.895,32.204,532.451
				c34.352,25.762,235.452,57.252,433.689,53.674C848.326,951.309,841.232,562.693,808.941,319.603z"/>
			<path fill="#B7D130" d="M818.941,1082.893c-189.657-0.002-356.146-28.934-391.518-49.336
				c-21.073-71.537-27.729-402.229-29.946-512.34l-0.178-8.854c49.388-97.08,48.798-187.665,39.497-246.796
				c-8.691-55.276-27.833-99.723-46.45-124.248c55.647-18.587,149.747-43.428,195.712-52.404
				c28.798,48.675,64.099,97.431,122.232,131.143l2.712,4.059c24.62,36.889,50.048,74.984,85.875,102.548
				c28.642,220.084,37.548,562.323,40.312,756.135C831.107,1082.861,825.025,1082.893,818.941,1082.893z"/>
		</g>
		<g>
			<path fill="#93AB20" d="M1111.464,1038.959c-7.156-181.779,15.744-630.496-42.225-851.635
				c-48.303-35.425-115.22-77.647-140.981-91.603c0.186,25.342-12.842,59.309-32.127,88.432
				c-12.363,59.293-34.451,116.998-66.928,168.83c0.844,221.755,17.762,690.245,18.898,742.513
				C959.744,1093.35,1087.132,1063.291,1111.464,1038.959z"/>
			<path fill="#DBF74A" d="M860.635,1082.258c-0.486-16.748-1.379-44.525-2.507-79.594c-4.962-154.232-15.243-473.963-16.026-646.03
				c30.918-50.189,53.156-106.494,66.135-167.449c15.666-24.166,26.488-49.853,30.811-72.422
				c30.078,17.902,79.874,49.92,118.874,78.247c40.916,161.294,39.951,443.918,39.246,650.793
				c-0.254,74.41-0.477,139.109,1.189,187.285C1071.392,1051.633,967.268,1078.336,860.635,1082.258z"/>
		</g>
		<g>
			<linearGradient id="SVGID_4_" gradientUnits="userSpaceOnUse" x1="684.1133" y1="386.2236" x2="1020.4764" y2="351.8718">
				<stop  offset="0" style="stop-color:#949FA1"/>
				<stop  offset="1" style="stop-color:#B7C6C9"/>
			</linearGradient>
			<path fill="url(#SVGID_4_)" d="M1092.14,480.435c-13.455,2.197-26.936,4.225-40.432,6.177
				c-2.232-102.279-9.756-218.692-30.654-317.388c-30.035-20.351-60.913-39.908-82.048-52.482
				c-0.984,5.084-2.332,10.326-3.943,15.648c16.75,115.671,36.015,247.349,33.693,364.64c-41.424,4.357-82.967,7.477-124.541,9.24
				c0.686,33.801,1.502,69.145,2.393,104.946c83.6-4.462,167.015-15.673,248.935-32.794
				C1094.759,545.548,1093.669,512.709,1092.14,480.435z"/>
			<linearGradient id="SVGID_5_" gradientUnits="userSpaceOnUse" x1="411.5518" y1="976.3174" x2="836.4727" y2="976.3174">
				<stop  offset="0" style="stop-color:#949FA1"/>
				<stop  offset="1" style="stop-color:#B7C6C9"/>
			</linearGradient>
			<path fill="url(#SVGID_5_)" d="M836.473,1037.594c-0.529-30.271-1.186-62.662-2.016-96.611
				c-141.848,3.268-284.786-2.932-422.905-27.98c1.43,29.344,5.218,65.898,8.228,90.174
				C563.137,1036.17,699.959,1043.969,836.473,1037.594z"/>
			<linearGradient id="SVGID_6_" gradientUnits="userSpaceOnUse" x1="631.0439" y1="1003.5811" x2="1008.9116" y2="973.5234">
				<stop  offset="0" style="stop-color:#949FA1"/>
				<stop  offset="1" style="stop-color:#B7C6C9"/>
			</linearGradient>
			<path fill="url(#SVGID_6_)" d="M1096.995,914.447c-79.549,14.406-160.074,23.043-240.86,25.924
				c0.734,23.15,1.412,44.172,1.995,62.338c0.394,12.297,0.761,23.672,1.089,34.016c80.727-3.734,160.927-14.379,238.401-32.074
				C1097.112,978.004,1096.974,947.689,1096.995,914.447z"/>
			<linearGradient id="SVGID_7_" gradientUnits="userSpaceOnUse" x1="397.2998" y1="351.5801" x2="821.5605" y2="351.5801">
				<stop  offset="0" style="stop-color:#949FA1"/>
				<stop  offset="1" style="stop-color:#B7C6C9"/>
			</linearGradient>
			<path fill="url(#SVGID_7_)" d="M814.66,507.313c-54.451,1.462-108.907,0.513-163.192-2.998
				c-12.529-135.976-23.914-285.029-69.715-414.524c-21.056,4.272-50.508,11.351-81.596,19.521
				c23.523,122.298,42.229,259.298,46.839,384.94c-44.112-5.686-88.029-13.172-131.635-22.671
				c-5.106,13.418-11.067,27.032-18.062,40.782l0.178,8.854c0.232,11.55,0.514,25.554,0.857,41.404
				c136.854,40.049,280.102,55.015,423.226,49.723C819.514,576.756,817.229,541.553,814.66,507.313z"/>
			<path fill="#DBF74A" d="M837.189,1082.799c-2.764-193.812-11.67-536.051-40.312-756.135
				c-35.827-27.563-61.255-65.659-85.875-102.548l-2.712-4.059c-58.134-33.712-93.435-82.468-122.232-131.143
				c-45.965,8.977-140.064,33.817-195.712,52.404c18.617,24.525,37.759,68.972,46.45,124.248c3.836,24.38,6.178,54.117,4.158,87.443
				c19.805,235.55,12.298,475.567,68.423,703.722c74.075,14.063,186.95,26.158,309.563,26.16
				C825.025,1082.893,831.107,1082.861,837.189,1082.799z"/>
			<linearGradient id="SVGID_8_" gradientUnits="userSpaceOnUse" x1="411.5518" y1="976.3174" x2="836.4727" y2="976.3174">
				<stop  offset="0" style="stop-color:#949FA1"/>
				<stop  offset="1" style="stop-color:#B7C6C9"/>
			</linearGradient>
			<path fill="url(#SVGID_8_)" d="M836.473,1037.594c-0.529-30.271-1.186-62.662-2.016-96.611
				c-141.848,3.268-284.786-2.932-422.905-27.98c1.43,29.344,5.218,65.898,8.228,90.174
				C563.137,1036.17,699.959,1043.969,836.473,1037.594z"/>
			<linearGradient id="SVGID_9_" gradientUnits="userSpaceOnUse" x1="397.2998" y1="351.5801" x2="821.5605" y2="351.5801">
				<stop  offset="0" style="stop-color:#949FA1"/>
				<stop  offset="1" style="stop-color:#B7C6C9"/>
			</linearGradient>
			<path fill="url(#SVGID_9_)" d="M814.66,507.313c-54.451,1.462-108.907,0.513-163.192-2.998
				c-12.529-135.976-23.914-285.029-69.715-414.524c-21.056,4.272-50.508,11.351-81.596,19.521
				c23.523,122.298,42.229,259.298,46.839,384.94c-44.112-5.686-88.029-13.172-131.635-22.671
				c-5.106,13.418-11.067,27.032-18.062,40.782l0.178,8.854c0.232,11.55,0.514,25.554,0.857,41.404
				c136.854,40.049,280.102,55.015,423.226,49.723C819.514,576.756,817.229,541.553,814.66,507.313z"/>
			<path fill="#868F98" d="M411.552,913.002c1.43,29.344,5.218,65.898,8.228,90.174c27.221,6.264,54.203,11.611,80.997,16.137
				c-6.787-31.482-12.502-63.162-17.313-95.016C459.371,921.049,435.385,917.326,411.552,913.002z"/>
			<path fill="#868F98" d="M415.361,471.581c-5.106,13.418-11.067,27.032-18.062,40.782l0.178,8.854
				c0.232,11.55,0.514,25.554,0.857,41.404c18.583,5.439,37.296,10.373,56.097,14.899c-1.617-32.987-3.22-65.986-5.029-98.956
				C438.035,476.365,426.688,474.048,415.361,471.581z"/>
			<path fill="#93AB20" d="M893.904,1143.445c-1.363-85.895-23.713-695.025-28.168-794.901c-5.014-0.406-15.049,2.007-17.205-0.27
				c-22.197,41.675-58.77,90.823-59.596,141.987c3.151,164.641,12.533,447.311,16.225,665.348
				C838.797,1153.463,861.643,1149.59,893.904,1143.445z"/>
			<path fill="#DBF74A" d="M818.043,1142.729c-4.445-251.481-17.713-588.271-17.713-689.18c3.285-7.211,36.805-68.768,55.824-92.108
				c0.541,0.026,1.063,0.047,1.58,0.067c8.758,117.504,26.508,659.76,29.012,771.203
				C865.994,1137.004,835.24,1140.385,818.043,1142.729z"/>
			<linearGradient id="SVGID_10_" gradientUnits="userSpaceOnUse" x1="627.5361" y1="560.4746" x2="851.2608" y2="559.002">
				<stop  offset="0" style="stop-color:#949FA1"/>
				<stop  offset="1" style="stop-color:#B7C6C9"/>
			</linearGradient>
			<path fill="url(#SVGID_10_)" d="M867.064,505.436c-21.455,1.145-45.445,1.367-66.912,1.788
				c0.586,29.288,1.367,65.286,2.502,105.561c22.094-0.556,46.275-1.71,68.349-3.22
				C869.463,572.494,868.529,537.644,867.064,505.436z"/>
			<linearGradient id="SVGID_11_" gradientUnits="userSpaceOnUse" x1="693.8027" y1="994.709" x2="906.9255" y2="986.2405">
				<stop  offset="0" style="stop-color:#949FA1"/>
				<stop  offset="1" style="stop-color:#B7C6C9"/>
			</linearGradient>
			<path fill="url(#SVGID_11_)" d="M881.111,939.84c-23.047,1.178-45.082,1.094-68.168,1.342c0.887,32.516,1.654,65.309,2.416,97.15
				c23.354-0.361,45.691-1.434,68.973-2.953C883.4,1006.732,882.334,974.789,881.111,939.84z"/>
		</g>
		<g>
			<path fill="#93AB20" d="M790.133,492.195C776.174,342.263,908.936,206.645,897.48,100.013c0-21.469-0.713-65.124-0.713-85.162
				c37.93,16.459,119.521,71.565,148.142,131.682c-23.973,66.555-117.37,155.655-187.862,236.525
				C824.949,419.881,792.635,439.951,790.133,492.195z"/>
			<path fill="#DBF74A" d="M800.152,456.055c2.861-52.959,36.656-136.13,62.976-193.106
				c26.918-58.268,52.349-113.318,47.235-163.608c-0.008-10.959-0.188-27.33-0.365-43.422c-0.077-6.925-0.154-13.798-0.217-20.161
				c38.23,21.225,96.04,64.44,120.89,111.135c-25.863,56.037-98.507,141.166-149.291,193.941
				C840.225,383.601,802.691,451.553,800.152,456.055z"/>
		</g>
		<g>
			<path fill="#1A1A1A" d="M836.705,1111.201c-0.075,8.301,6.591,15.09,14.891,15.162c8.301,0.078,15.09-6.588,15.166-14.889
				c0.075-8.299-6.59-15.088-14.891-15.166C843.57,1096.234,836.783,1102.9,836.705,1111.201z"/>
			<path fill="#1A1A1A" d="M828.781,881.392c-0.074,8.299,6.592,15.088,14.891,15.166c8.303,0.074,15.092-6.592,15.167-14.891
				c0.077-8.303-6.589-15.09-14.89-15.166C835.648,866.427,828.861,873.093,828.781,881.392z"/>
			<path fill="#1A1A1A" d="M823.24,652.318c-0.078,8.301,6.592,15.092,14.891,15.168c8.301,0.075,15.09-6.591,15.168-14.891
				c0.072-8.301-6.592-15.092-14.893-15.165C830.105,637.354,823.316,644.018,823.24,652.318z"/>
			<circle fill="#1A1A1A" cx="832.861" cy="460.603" r="15.03"/>
		</g>
		<g>
			<path fill="#808080" d="M885.451,280.149c-0.057,6.527,5.184,11.867,11.711,11.928c6.527,0.059,11.867-5.186,11.928-11.712
				c0.059-6.526-5.184-11.864-11.709-11.925C890.854,268.381,885.514,273.623,885.451,280.149z"/>
			<path fill="#1A1A1A" d="M897.199,287.783c-4.146-0.038-7.49-3.444-7.453-7.597c0.039-4.109,3.414-7.453,7.525-7.453
				c4.219,0.037,7.561,3.445,7.524,7.594c-0.038,4.112-3.411,7.456-7.524,7.456H897.199z"/>
		</g>
		<g>
			<circle fill="#808080" cx="980.14" cy="146.531" r="11.818"/>
			<path fill="#1A1A1A" d="M980.071,154.056c-4.148-0.037-7.492-3.443-7.453-7.596c0.037-4.109,3.412-7.454,7.523-7.454
				c4.217,0.038,7.561,3.444,7.523,7.595c-0.039,4.112-3.412,7.455-7.523,7.455H980.071z"/>
		</g>
		<g>
			<path fill="#C3E02D" d="M1088.562,825.689c-2.717,12.883-24.439,79.798-24.439,79.798
				c-37.104-41.506-109.744-110.927-139.804-139.553c10.021-20.038,43.447-71.924,46.16-78.364
				C1011.989,727.647,1054.214,782.037,1088.562,825.689z"/>
			<path fill="#DBF74A" d="M1060.741,888.978c-35.697-38.874-93.06-95.892-123.54-125.19c5.388-10.285,35.427-61.188,35.427-61.188
				c36.293,34.942,76.852,87.897,107.346,125.956C1076.788,840.096,1067.114,870.392,1060.741,888.978z"/>
		</g>
		<g>
			<path fill="#C3E02D" d="M483.83,831.773c4.294,12.881,38.644,75.144,38.644,75.144
				c62.265-32.203,171.759-103.055,212.554-137.405c-15.031-30.059-45.088-77.291-49.381-83.732
				C608.354,750.188,558.975,784.54,483.83,831.773z"/>
			<path fill="#DBF74A" d="M525.942,895.392c-11.197-20.484-25.379-47.155-31.398-60.218
				c66.731-42.113,116.168-76.242,189.127-136.594c9.288,14.643,28.248,45.249,40.554,68.696
				C681.855,801.41,586.014,863.341,525.942,895.392z"/>
		</g>
		<g>
			<path fill="#93AB20" d="M808.021,327.595c-93.035-56.539-299.144-204.68-359.258-245.472C493.851,47.771,580.264,7.157,632.507,0
				c0.18,18.071,1.611,91.425,2.326,102.877C651.651,134.724,731.09,212.014,808.021,327.595z"/>
			<path fill="#DBF74A" d="M777.25,297.894c-66.963-44.207-171.752-121.912-239.971-169.787
				c-25.71-18.043-48.792-34.242-66.012-46.158c40.386-26.879,103.211-56.611,148.298-66.76c0.246,9.022,0.523,20.49,0.809,32.344
				c0.615,25.525,1.197,49.637,1.604,56.148l0.172,2.764l1.293,2.447c7.572,14.337,25.201,35.262,49.607,64.225
				C697.248,201.835,745.188,254.507,777.25,297.894z"/>
		</g>
		<g>
			<circle fill="#808080" cx="515.645" cy="85.955" r="11.818"/>
			<path fill="#1A1A1A" d="M515.573,93.481c-4.145-0.038-7.49-3.443-7.451-7.596c0.037-4.109,3.412-7.454,7.523-7.454
				c4.217,0.038,7.561,3.445,7.523,7.595c-0.037,4.111-3.412,7.455-7.523,7.455H515.573z"/>
		</g>
	</g>
</g>
<g>
	<path fill="#371C03" d="M402.532,725.531c-29.73,3.715-36.994-0.205-75.839,7.025c-90.595,16.848-182.283,36.234-242.281,3.51
		c-63.203-42.14-82.945-106.885-70.573-132.728c15.8-33.005,65.833-110.251,144.835-103.228
		c39.326,4.916,74.263,37.393,74.263,37.393s130.094,37.392,157.477,43.188C392.526,610.187,406.743,683.394,402.532,725.531z"/>
	<linearGradient id="SVGID_12_" gradientUnits="userSpaceOnUse" x1="298.7773" y1="764.0752" x2="226.4466" y2="667.8667">
		<stop  offset="0" style="stop-color:#52311C"/>
		<stop  offset="1" style="stop-color:#634029"/>
	</linearGradient>
	<path fill="url(#SVGID_12_)" d="M186.594,741.856c-40.768,0-68.2-2.474-94.811-16.854c-39.711-26.644-61.76-64.145-65.836-86.901
		c-1.904-10.647-2.055-25.021,1.586-30.021c0,0,48.449-107.269,132.727-97.435c54.773,22.467,69.515,35.811,69.515,35.811
		s115.871,35.818,123.604,37.219c-5.619,16.857-16.856,120.088-19.313,136.589C289.287,728.861,229.774,739.047,186.594,741.856z"/>
	<linearGradient id="SVGID_13_" gradientUnits="userSpaceOnUse" x1="165.8525" y1="841.79" x2="192.8902" y2="582.6774">
		<stop  offset="6.030000e-006" style="stop-color:#634029"/>
		<stop  offset="0.3632" style="stop-color:#6A472E"/>
		<stop  offset="0.8849" style="stop-color:#7D593A"/>
		<stop  offset="1" style="stop-color:#825E3E"/>
	</linearGradient>
	<path fill="url(#SVGID_13_)" d="M342.492,698.145c4.437-36.338,7.245-103.566,10.886-114.469
		c-7.732-1.4-123.604-37.219-123.604-37.219s-33.177-29.496-69.515-35.811c-84.277-9.834-130.621,94.801-130.621,94.801
		c-2.105,8.425-9.133,23.174,34.41,51.26C115.659,713.945,192.213,738.871,342.492,698.145z"/>
	<path fill="#371C03" d="M289.824,562.258c-23.181-5.616-83.572-22.822-130.621-30.545c42.136,0,66.363,7.547,71.981,7.723
		C235.394,542.947,278.587,557.342,289.824,562.258z"/>
</g>
<g>
	<g>
		<path fill="#371C03" d="M289.824,568.053c6.844-14.749,19.306-51.264,26.679-59.517c4.317-4.826,35.818-30.548,41.789-41.786
			c6.316-10.533,10.008-37.392,12.465-66.712c4.738-19.486,64.282-13.431,67.587,25.634c3.512,41.431-14.393,85.674-23.878,107.441
			C402.884,536.803,298.244,564.891,289.824,568.053z"/>
		<linearGradient id="SVGID_14_" gradientUnits="userSpaceOnUse" x1="328.8564" y1="466.5781" x2="392.059" y2="487.119">
			<stop  offset="0" style="stop-color:#52311C"/>
			<stop  offset="1" style="stop-color:#634029"/>
		</linearGradient>
		<path fill="url(#SVGID_14_)" d="M309.482,549.618c4.537-12.228,10.156-28.146,14.93-34.763
			c2.414-3.363,16.925-14.719,24.22-22.119c7.908-8.021,14.365-13.054,16.445-15.99c8.84-12.453,15.508-45.107,16.213-72.493
			c7.371-8.429,41.604-3.689,46.343,19.485c4.318,21.084-7.725,65.66-16.847,87.432c0,0,19.454-0.03,20.538,4.742
			C428.689,516.646,338.248,542.162,309.482,549.618z"/>
		<linearGradient id="SVGID_15_" gradientUnits="userSpaceOnUse" x1="356.8037" y1="466.2139" x2="491.1889" y2="504.5303">
			<stop  offset="6.030000e-006" style="stop-color:#634029"/>
			<stop  offset="0.1071" style="stop-color:#6F4C31"/>
			<stop  offset="0.2794" style="stop-color:#7D593B"/>
			<stop  offset="0.43" style="stop-color:#825E3E"/>
		</linearGradient>
		<path fill="url(#SVGID_15_)" d="M383.569,411.625c1.059,13.166-2.104,46.877-6.322,69.523
			c-14.217,15.273-26.008,28.726-32.65,59.513c36.189-9.997,84.923-24.245,86.728-24.749c-1.084-4.772-20.538-4.742-20.538-4.742
			c9.122-21.771,21.165-66.348,16.847-87.432c-3.212-15.729-20.009-22.945-32.782-23.335
			C389.894,400.038,383.569,405.306,383.569,411.625z"/>
	</g>
	<g>
		<path fill="#371C03" d="M279.811,552.779c18.963-5.266,43.721-13.166,43.721-13.166s8.947-12.643,23.7-25.286
			c15.246-13.071,27.811-19.8,35.283-22.292c37.569,1.754,58.286-1.057,99.019,5.967c19.298,48.748,30.956,112.642,21.067,187.5
			c-2.457,18.611-11.238,38.625-15.799,45.997c-20.364,14.747-65.837,20.019-87.432,18.962
			c-27.91-2.634-68.819-12.639-81.106-17.557C322.473,720.965,331.959,621.072,279.811,552.779z"/>
		<linearGradient id="SVGID_16_" gradientUnits="userSpaceOnUse" x1="290.3711" y1="760.6533" x2="361.5626" y2="671.4601">
			<stop  offset="0" style="stop-color:#52311C"/>
			<stop  offset="1" style="stop-color:#634029"/>
		</linearGradient>
		<path fill="url(#SVGID_16_)" d="M408.151,740.28c-41.908,0-81.458-15.448-100.421-21.067
			c-20.019-20.02-42.136-100.074-20.371-155.199c21.066-18.262,83.958-59.965,94.106-60.393c38.19,1.301,70.589,1.396,107.439,7.725
			c8.957,54.686,4.572,185.391-10.534,214.186C471.354,730.099,439.047,737.471,408.151,740.28z"/>
		<linearGradient id="SVGID_17_" gradientUnits="userSpaceOnUse" x1="421.2383" y1="620.6074" x2="188.3402" y2="601.4827">
			<stop  offset="6.030000e-006" style="stop-color:#634029"/>
			<stop  offset="0.6675" style="stop-color:#765336"/>
			<stop  offset="1" style="stop-color:#825E3E"/>
		</linearGradient>
		<path fill="url(#SVGID_17_)" d="M456.617,732.572c10.643-2.47,18.66-5.032,21.754-7.041
			c15.106-28.795,19.491-159.5,10.534-214.186c-36.851-6.328-69.249-6.424-107.439-7.725c-10.148,0.428-73.04,42.131-94.106,60.393
			c-19.659,49.858,7.732,125.704,25.637,146.77c12.639,7.373,55.126,22.82,93.05,24.93
			C426.408,736.066,440.305,734.795,456.617,732.572z"/>
		<linearGradient id="SVGID_18_" gradientUnits="userSpaceOnUse" x1="510.0527" y1="596.4258" x2="359.2463" y2="625.1514">
			<stop  offset="6.030000e-006" style="stop-color:#634029"/>
			<stop  offset="1" style="stop-color:#825E3E"/>
		</linearGradient>
		<path fill="url(#SVGID_18_)" d="M488.905,511.346c-36.851-6.328-67.673-14.152-105.863-15.453c-0.184,0.01-0.42,0.051-0.629,0.084
			c-3.271,61.727,39.952,145.986,23.633,193.389c3.506,23.523,3.506,36.867,0.697,46c10.532,1.048,58.638-3.514,72.687-9.485
			c3.857-7.724,9.827-22.819,11.933-35.463C498.013,650.534,497.442,563.48,488.905,511.346z"/>
		<path fill="#371C03" d="M403.062,565.419c6.139,2.104,81.282-9.834,93.215-9.481c6.324,1.58,17.035,8.248,21.42,10.181
			c5.619,12.644,6.676,40.559,0.703,59.869c-2.104,3.161-4.736,5.794-4.736,5.794s3.68,3.162,3.68,6.844
			c0.881,17.91-3.504,46.177-11.58,50.388c-28.438,8.78-72.335,11.942-86.382,10.533
			C415.171,689.013,404.638,582.271,403.062,565.419z"/>
		<linearGradient id="SVGID_19_" gradientUnits="userSpaceOnUse" x1="580.9404" y1="629.8115" x2="353.8795" y2="634.2637">
			<stop  offset="6.030000e-006" style="stop-color:#634029"/>
			<stop  offset="0.0794" style="stop-color:#66432B"/>
			<stop  offset="0.9989" style="stop-color:#825E3E"/>
		</linearGradient>
		<path fill="url(#SVGID_19_)" d="M407.446,698.145c-11.236-18.261-11.236-45.648-10.709-58.991
			c-7.371-17.905-14.566-44.944-9.652-66.711c8.428,0,16.496,2.981,16.496,2.981s48.196-8.429,69.876-8.601
			c6.5,2.546,26.862,5.708,31.601,7.023c7.373,11.851,6.324,32.302,2.105,49.86c-2.801,4.562-16.848,7.724-16.848,7.724
			s7.02,2.104,14.047,2.809c3.506,12.638,2.105,37.925-6.324,48.458C476.973,691.822,420.084,699.193,407.446,698.145z"/>
		<path fill="#371C03" d="M417.451,635.469c-2.457,0.523,0.529,2.107,3.338,2.805c28.791,3.162,70.222-0.697,86.374-4.563
			c1.234-2.629,3.162-6.668,4.043-9.477C495.581,630.201,447.123,635.64,417.451,635.469z"/>
		<path fill="#371C03" d="M408.151,574.199c-1.762-0.353-7.723-3.514-9.133-3.514c0.965,4.037-0.527,10.27,1.057,17.904
			C402.884,581.571,407.095,576.305,408.151,574.199z"/>
		<path fill="#371C03" d="M379.36,493.088c18.955-4.566,76.544-5.619,94.097-4.215c10.273,2.105,28.356,7.02,34.94,11.238
			c7.721,11.146,10.707,53.717,2.279,72.68c-10.449,4.302-32.481,9.129-39.323,9.129c-6.844,0-61.097-3.334-72.159-4.739
			C390.069,568.404,367.595,532.766,379.36,493.088z"/>
		<linearGradient id="SVGID_20_" gradientUnits="userSpaceOnUse" x1="579.6699" y1="540.1973" x2="359.8586" y2="535.7506">
			<stop  offset="6.030000e-006" style="stop-color:#634029"/>
			<stop  offset="1" style="stop-color:#825E3E"/>
		</linearGradient>
		<path fill="url(#SVGID_20_)" d="M474.691,572.791c0,0-71.983,2.104-86.911,1.056c-4.033-14.571-15.096-50.21-1.4-70.226
			c22.125-3.161,76.72-4.566,84.62-2.721c5.796,1.846,22.913,8.16,28.179,11.851c4.738,13.427,0.529,46.345-3.949,54.513
			C489.694,569.369,474.691,572.791,474.691,572.791z"/>
		<linearGradient id="SVGID_21_" gradientUnits="userSpaceOnUse" x1="408.3418" y1="532.0234" x2="710.7668" y2="553.2463">
			<stop  offset="0" style="stop-color:#825E3E"/>
			<stop  offset="0.4964" style="stop-color:#7F5F40"/>
			<stop  offset="0.9064" style="stop-color:#756245"/>
			<stop  offset="1" style="stop-color:#716347"/>
		</linearGradient>
		<path fill="url(#SVGID_21_)" d="M499.438,510.293c-5.266-3.689-19.222-8.076-28.966-9.658
			c14.918,14.221,10.709,61.27,4.395,71.804c8.947-0.524,19.306-2.81,25.628-4.915C505.763,552.076,506.224,522.579,499.438,510.293
			z"/>
	</g>
</g>
<g>
	<g>
		<path fill="#93AB20" d="M0.047,613.498c-1.876-26.793,53.674-112.715,123.448-122.376c48.094-6.659,104.496,16.247,128.82,33.276
			c10.969,7.681,18.248,18.25,16.102,23.618c-42.938,33.278-41.864,157.265-1.074,200.205
			C239.433,760.031,15.074,828.195,0.047,613.498z"/>
		<path fill="#B7D130" d="M159.748,754.914c-90.834,0-140.242-47.881-146.852-142.314c-1.267-18.084,46.918-99.656,112.366-108.718
			c5.078-0.703,10.481-1.06,16.054-1.06c42.053,0,85.867,19.707,103.61,32.13c4.451,3.116,7.428,6.297,9.17,8.625
			c-22.023,22.51-28.144,60.688-29.81,82.606c-2.832,37.265,3.29,84.262,22.218,115.629
			C227.059,747.633,194.639,754.914,159.748,754.914z"/>
		<path fill="#DBF74A" d="M233.56,712.293c-8.675-27.447-11.312-59.286-9.272-86.109c1.666-21.919,7.786-60.097,29.81-82.606
			c-1.742-2.328-4.719-5.509-9.17-8.625c-17.743-12.423-61.558-32.13-103.61-32.13c-5.572,0-10.976,0.356-16.054,1.06
			C59.814,512.943,11.63,594.516,12.896,612.6c0.156,2.227,0.359,4.4,0.561,6.577c8.807,21.413,21.098,41.134,35.969,57.657
			C99.15,723.008,169.438,725.096,233.56,712.293z"/>
		<linearGradient id="SVGID_22_" gradientUnits="userSpaceOnUse" x1="111.2178" y1="833.9668" x2="122.0353" y2="515.9353">
			<stop  offset="0" style="stop-color:#949FA1"/>
			<stop  offset="1" style="stop-color:#B7C6C9"/>
		</linearGradient>
		<path fill="url(#SVGID_22_)" d="M100.953,530.84C38,576.625,27.212,662.609,60.875,726.215
			c22.176,18.766,52.884,27.781,90.174,29.343c-9.203-11.265-18.498-24.12-24.333-35.782
			c-30.056-64.41-30.056-145.996,38.647-193.229c9.892-5.77,21.801-10.442,32.205-14.313c-13.592-4.338-29.355-8.865-44.373-10.018
			C135.541,508.855,117.544,518.771,100.953,530.84z"/>
		<path fill="#868F98" d="M43.328,669.647c2.35,19.686,8.24,38.983,17.547,56.567c22.176,18.766,52.884,27.781,90.174,29.343
			c-9.203-11.265-18.498-24.12-24.333-35.782c-0.803-1.725-1.574-3.465-2.336-5.209c-27.429-5.766-53.171-17.503-74.954-37.732
			C47.334,674.51,45.316,672.095,43.328,669.647z"/>
	</g>
	<g>
		<path fill="#93AB20" d="M317.797,741.959c-30.594-21.471-46.875-141.969-16.102-202.799c-9.84-0.718-34.353-4.025-45.804-4.742
			c-5.727-1.254-18.068,2.596-20.934,5.727c-54.251,59.297-46.159,166.752,5.803,205.158c2.609,1.932,8.33,3.456,14.773,4.171
			C269.132,748.4,308.137,744.105,317.797,741.959z"/>
		<path fill="#B7D130" d="M255.786,736.529c-4.354-0.572-6.871-1.426-7.627-1.776c-20.252-15.132-34.136-44.495-37.173-78.639
			c-3.627-40.808,8.625-80.569,32.796-106.549c1.857-1.022,6.717-2.514,9.475-2.514c7.029,1.472,17.813,1.954,28.248,2.42
			c0.392,0.017,0.786,0.033,1.179,0.052c-18.905,56.503-10.434,141.453,11.59,182.883
			C280.703,734.08,264.417,735.807,255.786,736.529z"/>
		<path fill="#DBF74A" d="M284.52,549.895c-0.392-0.018-22.411-3.598-30.058-3.758c-4.162-0.377-8.051,1.074-10.68,3.429
			c-24.171,25.979-36.423,65.741-32.796,106.549c2.072,23.302,9.205,44.369,19.956,60.214c18.145-1.621,36.514-3.157,54.845-3.955
			C270.411,667.469,268.292,598.398,284.52,549.895z"/>
	</g>
</g>
</svg>
