<?xml version="1.0" encoding="utf-8"?>
<!-- Generator: Adobe Illustrator 15.0.0, SVG Export Plug-In . SVG Version: 6.00 Build 0)  -->
<!DOCTYPE svg PUBLIC "-//W3C//DTD SVG 1.1//EN" "http://www.w3.org/Graphics/SVG/1.1/DTD/svg11.dtd">
<svg version="1.1" id="_x30_1_1_" xmlns="http://www.w3.org/2000/svg" xmlns:xlink="http://www.w3.org/1999/xlink" x="0px" y="0px"
	 width="836.078px" height="1074.403px" viewBox="0 0 836.078 1074.403" enable-background="new 0 0 836.078 1074.403"
	 xml:space="preserve">
<g id="Fluo_x5F_no_x5F_sleeves_8_">
	<g>
		<path fill="#93AB20" d="M143.553,52.601C182.916,44.728,319.605,2.861,328.192,0c27.195,47.232,230.085,305.587,264.437,335.645
			c10.02,107.349,15.744,652.679,15.744,675.581c-2.863,27.195-27.91,57.969-75.145,62.26
			c-94.467,8.59-307.017-44.369-375.721-107.346c17.176-143.849,2.146-422.955-32.204-517.423
			C165.379,418.659,229.433,157.087,143.553,52.601z"/>
		<path fill="#B7D130" d="M511.105,1061.521c-99.008,0-275.093-46.893-340.031-100.648c15.031-137.913,2.723-404.233-30.967-508.667
			c22.783-26.69,45.455-98.096,54.705-175.035c6.568-54.648,10.598-151.405-29.633-216.387
			c45.122-11.404,128.352-36.534,157.344-45.502c41.396,63.553,216.572,285.616,257.701,326.366
			c9.65,116.551,15.174,636.195,15.266,668.863c-2.637,21.736-23.477,46.516-63.428,50.146
			C525.754,1061.231,518.705,1061.521,511.105,1061.521z"/>
		<path fill="#DBF74A" d="M580.225,341.647c-41.129-40.75-216.306-262.813-257.701-326.366
			c-28.992,8.968-112.222,34.098-157.344,45.502c40.23,64.981,36.201,161.738,29.633,216.387
			c-2.061,17.129-4.787,33.977-8.031,50.124c53.704,222.613,66.245,451.906,71.197,680.422
			c79.866,31.486,184.832,53.805,253.127,53.805c7.6,0,14.648-0.289,20.957-0.863c39.951-3.631,60.791-28.41,63.428-50.146
			C595.398,977.843,589.875,458.198,580.225,341.647z"/>
		<linearGradient id="SVGID_1_" gradientUnits="userSpaceOnUse" x1="-38.0991" y1="559.9541" x2="405.6109" y2="322.3539">
			<stop  offset="0" style="stop-color:#949FA1"/>
			<stop  offset="1" style="stop-color:#B7C6C9"/>
		</linearGradient>
		<path fill="url(#SVGID_1_)" d="M586.85,497.202c-63.277,2.25-126.402,1.709-189.161-2.639
			c-4.793-165.572-24.314-364.938-85.062-477.388c-19.781,6.049-52.201,16.27-83.194,25.227
			c57.823,115.02,64.931,332.399,65.444,441.331c-51.821-7.411-103.311-17.844-154.32-32.083c-0.148,0.181-0.301,0.378-0.449,0.555
			c8.607,26.679,15.816,63.924,21.531,106.894c140.572,36.902,284.242,47.267,427.684,39.173
			C588.564,563.116,587.738,528.927,586.85,497.202z"/>
		<path fill="#868F98" d="M140.557,451.65c-0.148,0.181-0.301,0.378-0.449,0.555c8.607,26.679,15.816,63.924,21.531,106.894
			c23.994,6.298,44.709,10.961,68.866,15.754c-5.367-33.278-9.662-69.24-14.137-104.844
			C190.996,464.728,165.715,458.673,140.557,451.65z"/>
		<linearGradient id="SVGID_2_" gradientUnits="userSpaceOnUse" x1="175.7578" y1="838.7471" x2="594.3516" y2="838.7471">
			<stop  offset="0" style="stop-color:#949FA1"/>
			<stop  offset="1" style="stop-color:#B7C6C9"/>
		</linearGradient>
		<path fill="url(#SVGID_2_)" d="M594.352,902.663c-0.328-26.08-2.691-63.818-3.154-95.401
			c-139.793,11.479-279.414,6.564-415.439-38.646c0.762,33.093,1.1,65.828,0.357,96.256
			C311.217,908.001,453.244,916.751,594.352,902.663z"/>
		<path fill="#868F98" d="M175.758,768.616c0.762,33.093,1.1,65.828,0.357,96.256c25.9,8.268,52.06,15.25,78.413,21.072
			c-1.027-32.148-3.301-64.659-5.238-96.931C224.235,783.3,200.596,776.87,175.758,768.616z"/>
	</g>
	<g>
		<path fill="#93AB20" d="M662.049,33.277c-12.883,83.732-82.301,252.984-99.477,308.091c-2.148,62.262,6.439,638.367,8.588,655.543
			c10.734,25.766,41.508,70.135,86.594,67.988c49.382-6.441,145.995-49.379,167.466-64.408
			c-8.59-109.496-23.619-416.514-8.59-478.776c30.059-103.056,30.059-317.753-34.35-407.926
			C736.124,81.584,683.518,50.454,662.049,33.277z"/>
		<path fill="#DBF74A" d="M654.605,1052.093c-35.732-0.002-61.393-37.129-70.771-58.316c-2.023-36.479-10.557-576.111-8.441-650.23
			c5.053-15.919,14.313-41.169,24.977-70.247c24.58-67.025,57.285-156.212,70.572-217.617c11.213,7.697,25.067,16.642,40.222,26.423
			c19.428,12.542,41.375,26.706,61.887,40.956c59.801,86.584,60.316,295.272,31.215,395.048l-0.154,0.584
			c-15.346,63.564-1.115,358.105,7.67,475.045c-28.541,16.615-111.68,52.441-155.153,58.314
			C655.951,1052.081,655.277,1052.093,654.605,1052.093z"/>
		<linearGradient id="SVGID_3_" gradientUnits="userSpaceOnUse" x1="1277.1689" y1="317.0078" x2="738.9951" y2="331.3193">
			<stop  offset="0" style="stop-color:#949FA1"/>
			<stop  offset="1" style="stop-color:#B7C6C9"/>
		</linearGradient>
		<path fill="url(#SVGID_3_)" d="M781.491,482.905c14.854-118.654,10.086-249.573-14.777-365.896
			c-18.311-12.509-67.416-44.139-72.996-47.771c28.896,153.8,15.709,337.855,8.275,421.08c-42.099,3.406-84.19,5.939-126.216,7.221
			c0.313,31.585,0.703,65.936,1.152,101.374c74.029-3.625,148.024-12.205,221.519-24.664c1.041-24.572,2.855-43.935,5.662-55.558
			l0.154-0.584c3.363-11.529,6.309-24.564,8.834-38.646C802.565,480.653,792.028,481.798,781.491,482.905z"/>
		<linearGradient id="SVGID_4_" gradientUnits="userSpaceOnUse" x1="1098.6421" y1="809.0361" x2="769.4417" y2="834.7996">
			<stop  offset="0" style="stop-color:#949FA1"/>
			<stop  offset="1" style="stop-color:#B7C6C9"/>
		</linearGradient>
		<path fill="url(#SVGID_4_)" d="M801.601,777.921c-62.459,13.06-148.726,25.517-222.567,30.772
			c0.535,32.112,2.154,69.569,2.645,95.163c74.443-6.707,148.884-19.848,222.384-37.738
			C802.704,838.847,802.661,806.754,801.601,777.921z"/>
	</g>
</g>
<g>
	<g>
		<path fill="#371C03" d="M11.451,490.224c6.844-14.749,19.305-51.264,26.678-59.517c4.318-4.826,35.819-30.548,41.79-41.786
			c6.316-10.533,10.008-37.392,12.465-66.712c4.738-19.486,64.282-13.431,67.587,25.634c3.512,41.431-14.393,85.674-23.878,107.441
			C124.511,458.974,19.871,487.062,11.451,490.224z"/>
		<linearGradient id="SVGID_5_" gradientUnits="userSpaceOnUse" x1="50.4834" y1="388.749" x2="113.686" y2="409.2899">
			<stop  offset="0" style="stop-color:#52311C"/>
			<stop  offset="1" style="stop-color:#634029"/>
		</linearGradient>
		<path fill="url(#SVGID_5_)" d="M31.109,471.789c4.537-12.228,10.156-28.146,14.93-34.763c2.414-3.363,16.924-14.719,24.22-22.119
			c7.908-8.021,14.365-13.054,16.445-15.99c8.84-12.453,15.508-45.107,16.213-72.493c7.371-8.429,41.604-3.689,46.343,19.485
			c4.318,21.084-7.725,65.66-16.847,87.432c0,0,19.454-0.03,20.538,4.742C150.316,438.817,59.875,464.333,31.109,471.789z"/>
		<linearGradient id="SVGID_6_" gradientUnits="userSpaceOnUse" x1="78.4307" y1="388.3848" x2="212.8142" y2="426.7007">
			<stop  offset="6.030000e-006" style="stop-color:#634029"/>
			<stop  offset="0.1071" style="stop-color:#6F4C31"/>
			<stop  offset="0.2794" style="stop-color:#7D593B"/>
			<stop  offset="0.43" style="stop-color:#825E3E"/>
		</linearGradient>
		<path fill="url(#SVGID_6_)" d="M105.196,333.796c1.059,13.166-2.104,46.877-6.322,69.523
			c-14.217,15.273-26.008,28.726-32.65,59.513c36.189-9.997,84.923-24.245,86.728-24.749c-1.084-4.772-20.538-4.742-20.538-4.742
			c9.122-21.771,21.165-66.348,16.847-87.432c-3.213-15.729-20.009-22.945-32.782-23.335
			C111.521,322.209,105.196,327.477,105.196,333.796z"/>
	</g>
	<g>
		<path fill="#371C03" d="M1.438,474.95c18.963-5.266,43.721-13.166,43.721-13.166s8.947-12.643,23.7-25.286
			c15.246-13.071,27.811-19.8,35.283-22.292c37.569,1.754,58.286-1.057,99.019,5.967c19.298,48.748,30.956,112.642,21.067,187.5
			c-2.457,18.611-11.238,38.625-15.799,45.997c-20.364,14.747-65.837,20.019-87.432,18.962
			c-27.91-2.634-68.819-12.639-81.106-17.557C44.1,643.136,53.586,543.243,1.438,474.95z"/>
		<linearGradient id="SVGID_7_" gradientUnits="userSpaceOnUse" x1="11.9985" y1="682.8252" x2="83.1901" y2="593.632">
			<stop  offset="0" style="stop-color:#52311C"/>
			<stop  offset="1" style="stop-color:#634029"/>
		</linearGradient>
		<path fill="url(#SVGID_7_)" d="M129.778,662.451c-41.908,0-81.458-15.448-100.421-21.067
			C9.338,621.364-12.778,541.31,8.986,486.185c21.066-18.262,83.958-59.965,94.106-60.393c38.19,1.301,70.589,1.396,107.439,7.725
			c8.957,54.686,4.572,185.391-10.534,214.186C192.98,652.27,160.674,659.642,129.778,662.451z"/>
		<linearGradient id="SVGID_8_" gradientUnits="userSpaceOnUse" x1="142.8652" y1="542.7793" x2="-90.0323" y2="523.6545">
			<stop  offset="6.030000e-006" style="stop-color:#634029"/>
			<stop  offset="0.6675" style="stop-color:#765336"/>
			<stop  offset="1" style="stop-color:#825E3E"/>
		</linearGradient>
		<path fill="url(#SVGID_8_)" d="M178.244,654.743c10.643-2.47,18.66-5.032,21.754-7.041c15.106-28.795,19.491-159.5,10.534-214.186
			c-36.851-6.328-69.249-6.424-107.439-7.725c-10.148,0.428-73.04,42.131-94.106,60.393c-19.659,49.858,7.732,125.704,25.637,146.77
			c12.639,7.373,55.126,22.82,93.05,24.93C148.035,658.237,161.932,656.966,178.244,654.743z"/>
		<linearGradient id="SVGID_9_" gradientUnits="userSpaceOnUse" x1="231.6792" y1="518.5967" x2="80.873" y2="547.3222">
			<stop  offset="6.030000e-006" style="stop-color:#634029"/>
			<stop  offset="1" style="stop-color:#825E3E"/>
		</linearGradient>
		<path fill="url(#SVGID_9_)" d="M210.532,433.517c-36.851-6.328-67.673-14.152-105.863-15.453c-0.184,0.01-0.42,0.051-0.629,0.084
			c-3.271,61.727,39.952,145.986,23.633,193.389c3.506,23.523,3.506,36.867,0.697,46c10.532,1.048,58.638-3.514,72.687-9.485
			c3.857-7.724,9.827-22.819,11.933-35.463C219.64,572.705,219.069,485.651,210.532,433.517z"/>
		<path fill="#371C03" d="M124.688,487.59c6.139,2.104,81.282-9.834,93.215-9.481c6.324,1.58,17.035,8.248,21.42,10.181
			c5.619,12.644,6.676,40.559,0.703,59.869c-2.104,3.161-4.736,5.794-4.736,5.794s3.68,3.162,3.68,6.844
			c0.881,17.91-3.504,46.177-11.58,50.388c-28.438,8.78-72.335,11.942-86.382,10.533
			C136.797,611.184,126.265,504.442,124.688,487.59z"/>
		<linearGradient id="SVGID_10_" gradientUnits="userSpaceOnUse" x1="302.5679" y1="551.9824" x2="75.5061" y2="556.4346">
			<stop  offset="6.030000e-006" style="stop-color:#634029"/>
			<stop  offset="0.0794" style="stop-color:#66432B"/>
			<stop  offset="0.9989" style="stop-color:#825E3E"/>
		</linearGradient>
		<path fill="url(#SVGID_10_)" d="M129.073,620.315c-11.236-18.261-11.236-45.648-10.709-58.991
			c-7.371-17.905-14.566-44.944-9.652-66.711c8.428,0,16.496,2.981,16.496,2.981s48.196-8.429,69.876-8.601
			c6.5,2.546,26.862,5.708,31.601,7.023c7.373,11.851,6.324,32.302,2.105,49.86c-2.801,4.562-16.848,7.724-16.848,7.724
			s7.02,2.104,14.047,2.809c3.506,12.638,2.105,37.925-6.324,48.458C198.6,613.993,141.711,621.364,129.073,620.315z"/>
		<path fill="#371C03" d="M139.078,557.64c-2.457,0.523,0.529,2.107,3.338,2.805c28.791,3.162,70.222-0.697,86.374-4.563
			c1.234-2.629,3.162-6.668,4.043-9.477C217.208,552.372,168.75,557.811,139.078,557.64z"/>
		<path fill="#371C03" d="M129.778,496.37c-1.762-0.353-7.723-3.514-9.133-3.514c0.965,4.037-0.527,10.27,1.057,17.904
			C124.511,503.742,128.722,498.476,129.778,496.37z"/>
		<path fill="#371C03" d="M100.987,415.259c18.955-4.566,76.544-5.619,94.097-4.215c10.273,2.105,28.356,7.02,34.94,11.238
			c7.721,11.146,10.707,53.717,2.279,72.68c-10.449,4.302-32.481,9.129-39.323,9.129c-6.844,0-61.097-3.334-72.159-4.739
			C111.696,490.575,89.222,454.937,100.987,415.259z"/>
		<linearGradient id="SVGID_11_" gradientUnits="userSpaceOnUse" x1="301.2964" y1="462.3672" x2="81.4851" y2="457.9205">
			<stop  offset="6.030000e-006" style="stop-color:#634029"/>
			<stop  offset="1" style="stop-color:#825E3E"/>
		</linearGradient>
		<path fill="url(#SVGID_11_)" d="M196.318,494.962c0,0-71.983,2.104-86.911,1.056c-4.033-14.571-15.096-50.21-1.4-70.226
			c22.125-3.161,76.72-4.566,84.62-2.721c5.795,1.846,22.913,8.16,28.179,11.851c4.738,13.427,0.529,46.345-3.949,54.513
			C211.321,491.54,196.318,494.962,196.318,494.962z"/>
		<linearGradient id="SVGID_12_" gradientUnits="userSpaceOnUse" x1="129.9697" y1="454.1934" x2="432.3907" y2="475.4159">
			<stop  offset="0" style="stop-color:#825E3E"/>
			<stop  offset="0.4964" style="stop-color:#7F5F40"/>
			<stop  offset="0.9064" style="stop-color:#756245"/>
			<stop  offset="1" style="stop-color:#716347"/>
		</linearGradient>
		<path fill="url(#SVGID_12_)" d="M221.065,432.464c-5.266-3.689-19.222-8.076-28.966-9.658
			c14.918,14.221,10.709,61.27,4.395,71.804c8.947-0.524,19.306-2.81,25.628-4.915C227.39,474.247,227.851,444.75,221.065,432.464z"
			/>
	</g>
</g>
</svg>
