<?xml version="1.0" encoding="utf-8"?>
<!-- Generator: Adobe Illustrator 15.0.0, SVG Export Plug-In . SVG Version: 6.00 Build 0)  -->
<!DOCTYPE svg PUBLIC "-//W3C//DTD SVG 1.1//EN" "http://www.w3.org/Graphics/SVG/1.1/DTD/svg11.dtd">
<svg version="1.1" id="_x30_1_1_" xmlns="http://www.w3.org/2000/svg" xmlns:xlink="http://www.w3.org/1999/xlink" x="0px" y="0px"
	 width="1248.112px" height="1003.844px" viewBox="0 0 1248.112 1003.844" enable-background="new 0 0 1248.112 1003.844"
	 xml:space="preserve">
<g id="Fluo_x5F_Tshirt_x5F_Long_12_">
	<g>
		<path fill="#93AB20" d="M1062.757,127.386c44.547,9.483,102.34,76.935,105.201,147.067c1.432,67.272,13.598,288.055,15.029,328.13
			c31.488,97.33,55.105,148.143,65.125,382.879c-35.425,12.881-114.457,12.893-139.555,7.873
			c-36.867-90.402-89.742-215.873-95.895-347.813C1001.38,403.525,1061.831,154.248,1062.757,127.386z"/>
		<path fill="#B7D130" d="M1167.854,987.95c-20.117,0-37.252-1.189-47.953-2.602c-37.234-91.367-86.316-214.426-92.223-341.141
			c-8.83-189.387,27.191-386.423,42.57-470.56c2.156-11.785,3.822-20.95,5.037-28.062c36.574,20.757,79.646,72.379,81.947,128.676
			c0.924,43.433,6.424,152.881,10.441,232.797c2.191,43.57,4.082,81.197,4.586,95.268l0.064,1.797c0,0,4.281,13.19,6.1,18.76
			c27.951,85.67,47.98,145.928,57.521,356.852C1219.679,983.726,1195.792,987.95,1167.854,987.95z"/>
		<path fill="#DBF74A" d="M1235.946,979.735c-9.541-210.924-29.57-271.182-57.521-356.852c-1.818-5.569-6.1-18.76-6.1-18.76
			l-0.064-1.797c-0.504-14.07-2.395-51.697-4.586-95.268c-4.018-79.916-9.518-189.364-10.441-232.797
			c-2.301-56.297-45.373-107.919-81.947-128.676c-1.215,7.111-2.881,16.276-5.037,28.062
			c-8.705,47.639-8.172,116.812-18.227,214.954c7.408,70.256,5.01,200.386,28.625,281.971
			c8.588,101.623,35.781,206.109,74.66,317.211c4.033,0.102,8.203,0.166,12.547,0.166
			C1195.792,987.95,1219.679,983.726,1235.946,979.735z"/>
		<linearGradient id="SVGID_1_" gradientUnits="userSpaceOnUse" x1="1026.335" y1="524.6006" x2="1169.9756" y2="524.6006">
			<stop  offset="0" style="stop-color:#949FA1"/>
			<stop  offset="1" style="stop-color:#B7C6C9"/>
		</linearGradient>
		<path fill="url(#SVGID_1_)" d="M1165.876,471.211c-44.738,10.315-90.58,16.481-136.723,19.022
			c-1.674,28.797-2.705,58.193-2.818,87.758c48.414-5.166,96.564-13.336,143.641-24.986c-0.688-13.832-1.473-29.458-2.301-45.945
			C1167.101,495.624,1166.495,483.573,1165.876,471.211z"/>
		<linearGradient id="SVGID_2_" gradientUnits="userSpaceOnUse" x1="1045.6826" y1="788.4268" x2="1223.7158" y2="788.4268">
			<stop  offset="0" style="stop-color:#949FA1"/>
			<stop  offset="1" style="stop-color:#B7C6C9"/>
		</linearGradient>
		<path fill="url(#SVGID_2_)" d="M1045.683,767.472c6.701,28.589,14.773,56.472,23.531,83.26
			c53.225-4.316,104.199-16.936,154.502-32.351c-4.42-36.747-9.574-66.257-15.418-92.259
			C1154.821,744.419,1101.003,760.14,1045.683,767.472z"/>
		<path fill="#868F98" d="M1045.683,767.472c6.701,28.589,14.773,56.472,23.531,83.26c13.861-1.125,27.564-2.836,41.148-4.988
			c-7.225-28.622-13.295-57.372-18.334-86.379C1076.679,762.624,1061.247,765.407,1045.683,767.472z"/>
	</g>
	<g>
		<g id="T_shirt_long_HV_12_">
			<g>
				<path fill="#93AB20" d="M379.302,70.85C422.24,62.262,612.962,10.734,624.769,0c57.97,90.172,257.284,102.696,275.532,13.596
					c33.279,26.837,133.474,92.68,177.481,117.369c11.283,20.64,1.518,49.984,7.516,78.365
					c24.313,74.604,28.273,191.261-13.238,338.147c-6.131,192.287,10.496,360.955,13.238,398.266
					c-18.609,45.801-388.247,111.641-600.08-17.176c5.723-52.957,32.563-188.576,13.955-310.238
					C427.607,498.097,328.848,312.385,379.302,70.85z"/>
				<path fill="#B7D130" d="M811.84,990.603c-87.475,0-211.316-12.139-309.983-69.199c1.008-8,2.344-17.438,3.826-27.918
					c9.334-65.976,22.264-175.549,6.752-276.969l-0.381-2.482l-1.282-2.157C450.797,511.118,342.425,323.682,389.901,80.58
					c42.964-9.729,185.233-46.055,230.578-64.395c37.721,48.33,110.808,70.091,169.405,70.091
					c58.184,0,101.693-19.956,118.957-53.243c39.428,30.848,115.181,87.096,158.603,106.863
					c50.057,98.417,41.74,228.85-7.779,404.078l-0.43,1.519l-0.051,1.574c-5.389,168.988,13.967,392.332,14.305,396.529
					C1059.374,959.618,954.691,990.603,811.84,990.603z"/>
				<path fill="#DBF74A" d="M1059.185,547.067l0.051-1.574l0.43-1.519c49.52-175.229,63.922-302.799,7.779-404.078
					c-43.422-19.768-119.175-76.016-158.603-106.863c-17.264,33.287-60.773,53.243-118.957,53.243
					c-58.598,0-131.685-21.761-169.405-70.091c-38.784,15.687-148.433,44.518-206.243,58.625
					c-1.453,89.566,7.467,179.073,36.629,266.558c30.059,94.467,107.35,167.465,128.818,270.521
					c26.548,117.567-3.828,228.437-8.332,341.481c82.897,29.912,172.633,37.232,240.488,37.232
					c142.852,0,247.534-30.984,261.649-47.006C1073.151,939.399,1053.796,716.056,1059.185,547.067z"/>
				<g>
					<path fill="#93AB20" d="M784.922,127.049c-1.148,0-2.297-0.007-3.459-0.02c-97.918-1.1-195.215-77.092-198.537-106.27
						l6.398-0.729c3.057,26.83,99.24,99.514,192.211,100.557c93.42,1.016,142.955-43.818,148.15-76.016l6.355,1.027
						C930.924,77.332,885.361,127.049,784.922,127.049z"/>
				</g>
				<path fill="#B7D130" d="M463.748,416.513c77.291,89.458,324.193,133.112,412.219,122.378
					c-118.084,42.938-280.539,33.637-323.479,31.49C513.841,516.706,478.775,437.982,463.748,416.513z"/>
				<linearGradient id="SVGID_3_" gradientUnits="userSpaceOnUse" x1="270.875" y1="370.4502" x2="820.5002" y2="287.4332">
					<stop  offset="0" style="stop-color:#949FA1"/>
					<stop  offset="1" style="stop-color:#B7C6C9"/>
				</linearGradient>
				<path fill="url(#SVGID_3_)" d="M1064.583,449.995c5.357-117.389,6.588-260.013-25.443-325.827
					c-27.322-16.158-59.191-39.034-87.312-59.76c33.046,82.162,30.194,254.469,27.271,393.792
					c-91.245,5.563-211.063,4.771-329.077-6.53c-3.925-144.385-25.083-340.027-81.787-418.751
					c-26.912,8.055-58.476,16.457-88.385,24.333c59.76,117.447,65.041,273.298,67.664,381.67
					c-47.14-7.349-92.459-16.686-133.816-28.313c13.053,38.811,28.49,74.123,44.15,105.69
					c192.997,52.753,469.197,61.495,603.479,24.023c9.264-32.974,17.219-63.696,23.434-93.573
					C1078.522,447.884,1071.767,448.965,1064.583,449.995z"/>
				<linearGradient id="SVGID_4_" gradientUnits="userSpaceOnUse" x1="514.8545" y1="794.709" x2="1065.7061" y2="794.709">
					<stop  offset="0" style="stop-color:#949FA1"/>
					<stop  offset="1" style="stop-color:#B7C6C9"/>
				</linearGradient>
				<path fill="url(#SVGID_4_)" d="M518.853,719.596c0.002,30.821-1.621,60.796-3.998,88.434
					c161.741,74.382,404.321,82.296,550.852,20.031c-1.561-26.684-3.182-56.542-4.426-87.892
					C935.682,794.918,652.978,779.356,518.853,719.596z"/>
				<path fill="#868F98" d="M518.853,719.596c0.002,30.821-1.621,60.796-3.998,88.434c21.214,9.754,43.858,18.328,67.481,25.776
					c2.264-29.835,4.984-60.041,6.809-90.227C562.998,736.663,539.184,728.653,518.853,719.596z"/>
				<path fill="#868F98" d="M651.024,552.169c-42.395-11.609-81.077-26.714-116.63-46.443
					c-15.331-24.691-29.118-50.262-41.921-76.52c-27.401-5.412-53.825-11.582-78.776-18.598
					c13.053,38.811,28.49,74.123,44.15,105.69c30.8,8.418,63.769,15.696,97.955,21.847c-0.012-0.018-0.023-0.037-0.039-0.057
					C586.061,543.817,617.671,548.317,651.024,552.169z"/>
			</g>
		</g>
		<g>
			<path fill="#93AB20" d="M70.852,461.6c63.336,17.176,249.049,77.291,270.519,81.585
				c13.955-31.131,99.835-158.877,105.202-327.772c18.607-77.292,24.33-118.082,25.764-138.836
				C390.751,27.91,298.43,92.318,264.794,168.18C224.719,244.039,82.66,428.321,70.852,461.6z"/>
			<path fill="#DBF74A" d="M334.496,528.126c-19.949-5.589-63.939-19.251-106.735-32.544
				c-48.89-15.185-103.395-32.114-138.228-42.122c12.103-20.05,37.952-56.249,63.129-91.502
				c46.609-65.265,104.597-146.466,128.303-196.231c28.51-53.836,83.345-94.877,136.623-94.877c14.766,0,47.299-1.932,61.188,3.221
				c-2.297,22.115-8.654,48.254-24.689,114.862l-3.221,27.911c-21.471,108.423-83.173,250.308-109.468,298.517
				C338.734,520.243,336.434,524.463,334.496,528.126z"/>
			<linearGradient id="SVGID_5_" gradientUnits="userSpaceOnUse" x1="176.5898" y1="342.1299" x2="412.8789" y2="342.1299">
				<stop  offset="0" style="stop-color:#949FA1"/>
				<stop  offset="1" style="stop-color:#B7C6C9"/>
			</linearGradient>
			<path fill="url(#SVGID_5_)" d="M176.59,326.876c73.419,18.551,145.816,52.558,206.935,97.6
				c9.77-23.453,19.863-49.263,29.354-75.873c-53.974-44.655-121.27-76.733-189.592-88.819
				C208.432,281.853,192.211,304.846,176.59,326.876z"/>
		</g>
	</g>
</g>
<g>
	<path fill="#371C03" d="M400.341,647.702c-29.73,3.715-36.994-0.205-75.839,7.025c-90.595,16.848-182.283,36.234-242.281,3.51
		C19.018,616.098-0.725,551.353,11.646,525.51c15.801-33.005,65.834-110.251,144.836-103.228
		c39.326,4.916,74.263,37.393,74.263,37.393s130.094,37.392,157.477,43.188C390.335,532.357,404.552,605.564,400.341,647.702z"/>
	<linearGradient id="SVGID_6_" gradientUnits="userSpaceOnUse" x1="296.5859" y1="686.2461" x2="224.2552" y2="590.0376">
		<stop  offset="0" style="stop-color:#52311C"/>
		<stop  offset="1" style="stop-color:#634029"/>
	</linearGradient>
	<path fill="url(#SVGID_6_)" d="M184.402,664.027c-40.768,0-68.2-2.474-94.811-16.854c-39.711-26.644-61.76-64.145-65.836-86.901
		c-1.904-10.647-2.055-25.021,1.586-30.021c0,0,48.449-107.269,132.727-97.435c54.773,22.467,69.515,35.811,69.515,35.811
		s115.871,35.818,123.604,37.219c-5.619,16.857-16.856,120.088-19.313,136.589C287.096,651.032,227.583,661.218,184.402,664.027z"/>
	<linearGradient id="SVGID_7_" gradientUnits="userSpaceOnUse" x1="163.6611" y1="763.9609" x2="190.6988" y2="504.8483">
		<stop  offset="6.030000e-006" style="stop-color:#634029"/>
		<stop  offset="0.3632" style="stop-color:#6A472E"/>
		<stop  offset="0.8849" style="stop-color:#7D593A"/>
		<stop  offset="1" style="stop-color:#825E3E"/>
	</linearGradient>
	<path fill="url(#SVGID_7_)" d="M340.301,620.315c4.437-36.338,7.245-103.566,10.886-114.469
		c-7.732-1.4-123.604-37.219-123.604-37.219s-33.177-29.496-69.515-35.811c-84.277-9.834-130.621,94.801-130.621,94.801
		c-2.105,8.425-9.133,23.174,34.41,51.26C113.468,636.116,190.021,661.042,340.301,620.315z"/>
	<path fill="#371C03" d="M287.633,484.429c-23.181-5.616-83.572-22.822-130.621-30.545c42.135,0,66.363,7.547,71.981,7.723
		C233.202,465.118,276.395,479.513,287.633,484.429z"/>
</g>
<g>
	<g>
		<path fill="#371C03" d="M287.633,490.224c6.844-14.749,19.305-51.264,26.678-59.517c4.318-4.826,35.819-30.548,41.79-41.786
			c6.316-10.533,10.008-37.392,12.465-66.712c4.738-19.486,64.282-13.431,67.587,25.634c3.512,41.431-14.393,85.674-23.878,107.441
			C400.692,458.974,296.053,487.062,287.633,490.224z"/>
		<linearGradient id="SVGID_8_" gradientUnits="userSpaceOnUse" x1="326.6641" y1="388.749" x2="389.8672" y2="409.2901">
			<stop  offset="0" style="stop-color:#52311C"/>
			<stop  offset="1" style="stop-color:#634029"/>
		</linearGradient>
		<path fill="url(#SVGID_8_)" d="M307.291,471.789c4.537-12.228,10.156-28.146,14.93-34.763c2.414-3.363,16.924-14.719,24.22-22.119
			c7.908-8.021,14.365-13.054,16.445-15.99c8.84-12.453,15.508-45.107,16.213-72.493c7.371-8.429,41.604-3.689,46.343,19.485
			c4.318,21.084-7.725,65.66-16.847,87.432c0,0,19.454-0.03,20.538,4.742C426.498,438.817,336.057,464.333,307.291,471.789z"/>
		<linearGradient id="SVGID_9_" gradientUnits="userSpaceOnUse" x1="354.6123" y1="388.3848" x2="488.9975" y2="426.7012">
			<stop  offset="6.030000e-006" style="stop-color:#634029"/>
			<stop  offset="0.1071" style="stop-color:#6F4C31"/>
			<stop  offset="0.2794" style="stop-color:#7D593B"/>
			<stop  offset="0.43" style="stop-color:#825E3E"/>
		</linearGradient>
		<path fill="url(#SVGID_9_)" d="M381.378,333.796c1.059,13.166-2.104,46.877-6.322,69.523
			c-14.217,15.273-26.008,28.726-32.65,59.513c36.189-9.997,84.923-24.245,86.728-24.749c-1.084-4.772-20.538-4.742-20.538-4.742
			c9.122-21.771,21.165-66.348,16.847-87.432c-3.213-15.729-20.009-22.945-32.782-23.335
			C387.702,322.209,381.378,327.477,381.378,333.796z"/>
	</g>
	<g>
		<path fill="#371C03" d="M277.619,474.95c18.963-5.266,43.721-13.166,43.721-13.166s8.947-12.643,23.7-25.286
			c15.246-13.071,27.811-19.8,35.283-22.292c37.569,1.754,58.286-1.057,99.019,5.967c19.298,48.748,30.956,112.642,21.067,187.5
			c-2.457,18.611-11.238,38.625-15.799,45.997c-20.364,14.747-65.837,20.019-87.432,18.962
			c-27.91-2.634-68.819-12.639-81.106-17.557C320.281,643.136,329.768,543.243,277.619,474.95z"/>
		<linearGradient id="SVGID_10_" gradientUnits="userSpaceOnUse" x1="288.1797" y1="682.8242" x2="359.3712" y2="593.631">
			<stop  offset="0" style="stop-color:#52311C"/>
			<stop  offset="1" style="stop-color:#634029"/>
		</linearGradient>
		<path fill="url(#SVGID_10_)" d="M405.96,662.451c-41.908,0-81.458-15.448-100.421-21.067
			c-20.02-20.02-42.136-100.074-20.371-155.199c21.066-18.262,83.958-59.965,94.106-60.393c38.19,1.301,70.589,1.396,107.439,7.725
			c8.957,54.686,4.572,185.391-10.534,214.186C469.162,652.27,436.855,659.642,405.96,662.451z"/>
		<linearGradient id="SVGID_11_" gradientUnits="userSpaceOnUse" x1="419.0469" y1="542.7793" x2="186.1498" y2="523.6546">
			<stop  offset="6.030000e-006" style="stop-color:#634029"/>
			<stop  offset="0.6675" style="stop-color:#765336"/>
			<stop  offset="1" style="stop-color:#825E3E"/>
		</linearGradient>
		<path fill="url(#SVGID_11_)" d="M454.426,654.743c10.643-2.47,18.66-5.032,21.754-7.041
			c15.106-28.795,19.491-159.5,10.534-214.186c-36.851-6.328-69.249-6.424-107.439-7.725c-10.148,0.428-73.04,42.131-94.106,60.393
			c-19.659,49.858,7.732,125.704,25.637,146.77c12.639,7.373,55.126,22.82,93.05,24.93
			C424.217,658.237,438.113,656.966,454.426,654.743z"/>
		<linearGradient id="SVGID_12_" gradientUnits="userSpaceOnUse" x1="507.8613" y1="518.5967" x2="357.0549" y2="547.3223">
			<stop  offset="6.030000e-006" style="stop-color:#634029"/>
			<stop  offset="1" style="stop-color:#825E3E"/>
		</linearGradient>
		<path fill="url(#SVGID_12_)" d="M486.714,433.517c-36.851-6.328-67.673-14.152-105.863-15.453c-0.184,0.01-0.42,0.051-0.629,0.084
			c-3.271,61.727,39.952,145.986,23.633,193.389c3.506,23.523,3.506,36.867,0.697,46c10.532,1.048,58.638-3.514,72.687-9.485
			c3.857-7.724,9.827-22.819,11.933-35.463C495.821,572.705,495.251,485.651,486.714,433.517z"/>
		<path fill="#371C03" d="M400.87,487.59c6.139,2.104,81.282-9.834,93.215-9.481c6.324,1.58,17.035,8.248,21.42,10.181
			c5.619,12.644,6.676,40.559,0.703,59.869c-2.104,3.161-4.736,5.794-4.736,5.794s3.68,3.162,3.68,6.844
			c0.881,17.91-3.504,46.177-11.58,50.388c-28.438,8.78-72.335,11.942-86.382,10.533C412.979,611.184,402.446,504.442,400.87,487.59
			z"/>
		<linearGradient id="SVGID_13_" gradientUnits="userSpaceOnUse" x1="578.749" y1="551.9824" x2="351.6881" y2="556.4346">
			<stop  offset="6.030000e-006" style="stop-color:#634029"/>
			<stop  offset="0.0794" style="stop-color:#66432B"/>
			<stop  offset="0.9989" style="stop-color:#825E3E"/>
		</linearGradient>
		<path fill="url(#SVGID_13_)" d="M405.255,620.315c-11.236-18.261-11.236-45.648-10.709-58.991
			c-7.371-17.905-14.566-44.944-9.652-66.711c8.428,0,16.496,2.981,16.496,2.981s48.196-8.429,69.876-8.601
			c6.5,2.546,26.862,5.708,31.601,7.023c7.373,11.851,6.324,32.302,2.105,49.86c-2.801,4.562-16.848,7.724-16.848,7.724
			s7.02,2.104,14.047,2.809c3.506,12.638,2.105,37.925-6.324,48.458C474.781,613.993,417.893,621.364,405.255,620.315z"/>
		<path fill="#371C03" d="M415.26,557.64c-2.457,0.523,0.529,2.107,3.338,2.805c28.791,3.162,70.222-0.697,86.374-4.563
			c1.234-2.629,3.162-6.668,4.043-9.477C493.39,552.372,444.932,557.811,415.26,557.64z"/>
		<path fill="#371C03" d="M405.96,496.37c-1.762-0.353-7.723-3.514-9.133-3.514c0.965,4.037-0.527,10.27,1.057,17.904
			C400.692,503.742,404.903,498.476,405.96,496.37z"/>
		<path fill="#371C03" d="M377.169,415.259c18.955-4.566,76.544-5.619,94.097-4.215c10.273,2.105,28.356,7.02,34.94,11.238
			c7.721,11.146,10.707,53.717,2.279,72.68c-10.449,4.302-32.481,9.129-39.323,9.129c-6.844,0-61.097-3.334-72.159-4.739
			C387.878,490.575,365.403,454.937,377.169,415.259z"/>
		<linearGradient id="SVGID_14_" gradientUnits="userSpaceOnUse" x1="577.4785" y1="462.3682" x2="357.6672" y2="457.9215">
			<stop  offset="6.030000e-006" style="stop-color:#634029"/>
			<stop  offset="1" style="stop-color:#825E3E"/>
		</linearGradient>
		<path fill="url(#SVGID_14_)" d="M472.5,494.962c0,0-71.983,2.104-86.911,1.056c-4.033-14.571-15.096-50.21-1.4-70.226
			c22.125-3.161,76.72-4.566,84.62-2.721c5.795,1.846,22.913,8.16,28.179,11.851c4.738,13.427,0.529,46.345-3.949,54.513
			C487.503,491.54,472.5,494.962,472.5,494.962z"/>
		<linearGradient id="SVGID_15_" gradientUnits="userSpaceOnUse" x1="406.1523" y1="454.1934" x2="708.5693" y2="475.4156">
			<stop  offset="0" style="stop-color:#825E3E"/>
			<stop  offset="0.4964" style="stop-color:#7F5F40"/>
			<stop  offset="0.9064" style="stop-color:#756245"/>
			<stop  offset="1" style="stop-color:#716347"/>
		</linearGradient>
		<path fill="url(#SVGID_15_)" d="M497.247,432.464c-5.266-3.689-19.222-8.076-28.966-9.658
			c14.918,14.221,10.709,61.27,4.395,71.804c8.947-0.524,19.306-2.81,25.628-4.915C503.571,474.247,504.032,444.75,497.247,432.464z
			"/>
	</g>
</g>
<g>
	<path fill="#93AB20" d="M117.368,418.659C68.293,428.201,2.863,500.245,0,543.185c7.16,47.233,27.197,93.035,84.451,124.525
		c65.838,27.195,217.559-5.725,230.439-8.588c-24.33-20.041-54.388-103.057-21.469-191.797
		c-21.471-4.295-50.161-10.117-68.703-20.038C191.838,429.7,168.896,408.642,117.368,418.659z"/>
	<path fill="#DBF74A" d="M157.543,665.52c-29.224,0-51.937-3.181-67.527-9.454c-44.797-24.842-68.613-59.863-77.049-113.332
		c3.713-35.75,62.932-102.887,106.862-111.43c8.145-1.582,15.567-2.354,22.681-2.354c24.545,0,41.137,9.633,60.348,20.785
		c5.041,2.926,10.25,5.949,15.785,8.912c16.274,8.705,38.511,14.271,57.92,18.384c-21.942,72.288-5.934,139.304,15.096,173.698
		c-29.503,5.65-84.836,14.79-134.109,14.79H157.543z"/>
	<linearGradient id="SVGID_16_" gradientUnits="userSpaceOnUse" x1="152.3018" y1="778.6992" x2="137.2349" y2="402.0254">
		<stop  offset="0" style="stop-color:#949FA1"/>
		<stop  offset="1" style="stop-color:#B7C6C9"/>
	</linearGradient>
	<path fill="url(#SVGID_16_)" d="M90.174,500.245c-22.805,51.314-17.316,118.918,16.64,161.56
		c14.027,3.233,63.872,5.905,77.851,2.887c-24.025-48.145-24.545-112.351-8.611-160.153c7.139-18.563,17.621-36.637,30.775-52.512
		c-6.084-5.457-30.775-22.632-55.42-22.633C124.575,446.351,102.591,470.753,90.174,500.245z"/>
</g>
</svg>
