<?xml version="1.0" encoding="utf-8"?>
<!-- Generator: Adobe Illustrator 15.0.0, SVG Export Plug-In . SVG Version: 6.00 Build 0)  -->
<!DOCTYPE svg PUBLIC "-//W3C//DTD SVG 1.1//EN" "http://www.w3.org/Graphics/SVG/1.1/DTD/svg11.dtd">
<svg version="1.1" id="_x30_1_1_" xmlns="http://www.w3.org/2000/svg" xmlns:xlink="http://www.w3.org/1999/xlink" x="0px" y="0px"
	 width="844px" height="1127.013px" viewBox="0 0 844 1127.013" enable-background="new 0 0 844 1127.013" xml:space="preserve">
<g>
	<g>
		<g>
			<g>
				<path fill="#93AB20" d="M161.768,998.317c8.439,36.85,9.795,62.352,19.717,77.963c79.566,51.205,457.125,82.135,621.04,0.434
					c12.234-8.373,20.215-56.32,23.123-77.561C750.204,1003.196,211.593,997.044,161.768,998.317z"/>
				<path fill="#B7D130" d="M494.59,1112.548c-130.87-0.363-259.931-19.771-303.623-45.424c-4.51-8.664-7.008-22.146-10.096-38.826
					c-0.998-5.385-2.074-11.178-3.309-17.359c3.01,0,6.379,0,10.086,0.012c37.741,0.105,107.537,0.834,188.362,1.68
					c110.487,1.152,235.722,2.469,328.061,2.719c48.443,0.137,82.58-0.039,103.408-0.533c-2.201,15.768-4.98,32.828-10.229,49.855
					C731.132,1095.923,624.006,1112.903,494.59,1112.548z"/>
				<path fill="#DBF74A" d="M245.938,1058.749c-0.025,8.496,3.15,18.068,5.951,29.605c61.167,14.424,151.476,23.941,242.7,24.193
					c129.416,0.355,236.542-16.625,302.661-47.877c9.707-14.541,10.313-35.705,10.229-49.855
					C582.049,1117.032,282.221,1064.157,245.938,1058.749z"/>
			</g>
			<polygon fill="#333333" points="563.83,1067.749 564.371,1111.712 584.455,1110.085 582.826,1067.204 			"/>
		</g>
		<polygon fill="#333333" points="564.371,1105.741 558.557,1126.546 589.34,1123.659 583.369,1104.661 		"/>
	</g>
	<g>
		<g id="Fluo_body-warmer_8_">
			<g>
				<path fill="#93AB20" d="M100.255,117.252c10.313-4.342,210.788-57.832,218.937-59.348
					c16.495,35.889,83.078,127.146,187.18,144.332c27.307,137.496,76.232,633.407,71.68,869.983
					c-126.289,10.109-369.778-6.645-423.518-47.355c-6.514-5.969-9.488-18.533-10.313-25.512
					c-14.413-122.231-27.759-370.086-26.597-517.318c39.081-87.933,40.167-230.159-10.857-346.864
					C104.921,130.94,94.825,121.055,100.255,117.252z"/>
				<path fill="#B7D130" d="M169.191,1018.896c-8.143-4.344-9.627-17.398-10.313-23.348
					c-14.133-121.771-28.155-366.447-27.142-513.514c35.483-81.836,45.599-230.159-14.113-357.18
					c40.624-11.085,161.821-44.438,195.208-53.072c10.746,19.707,30.915,48.002,58.976,74.054
					c37.353,34.678,88.124,56.819,132.308,65.871c13.439,72.116,34.49,223.802,48.855,386.495
					c16.586,187.862,14.555,357.32,13.309,462.867C538.441,1065.692,282.236,1068.407,169.191,1018.896z"/>
				<linearGradient id="SVGID_1_" gradientUnits="userSpaceOnUse" x1="150.7729" y1="372.3105" x2="444.6182" y2="350.3818">
					<stop  offset="0" style="stop-color:#949FA1"/>
					<stop  offset="1" style="stop-color:#B7C6C9"/>
				</linearGradient>
				<path fill="url(#SVGID_1_)" d="M547.332,530.817c-54.045,2.682-109.391,3.888-164.104,3.719
					c-6.133-148.038-49.559-371.684-96.245-456.363c-20.961,5.694-89.834,24.356-94.449,25.507
					c54.282,104.226,81.809,314.04,85.766,426.121c-56.614-0.256-98.793,2.176-147.103-1.628
					c-0.277,22.666,2.17,76.676,2.711,91.737c100.121,12.142,286.567,13.024,420.06,6.282
					C553.211,593.837,551.311,560.136,547.332,530.817z"/>
				<linearGradient id="SVGID_2_" gradientUnits="userSpaceOnUse" x1="140.4199" y1="854.3936" x2="589.9219" y2="854.3936">
					<stop  offset="0" style="stop-color:#949FA1"/>
					<stop  offset="1" style="stop-color:#B7C6C9"/>
				</linearGradient>
				<path fill="url(#SVGID_2_)" d="M589.922,910.827c-0.346-24.56-2.807-70.092-3.299-99.838
					c-80.188,4.193-306.549,11.619-446.203-18.457c0,4.211,7.057,87.937,7.6,93.909C253.329,916.3,480.23,922.269,589.922,910.827z"
					/>
				<path fill="#DBF74A" d="M552.971,598.202c-14.365-162.693-35.416-314.379-48.855-386.495
					c-44.184-9.052-94.955-31.193-132.308-65.871c-28.061-26.052-48.229-54.347-58.976-74.054
					c-33.387,8.634-154.584,41.987-195.208,53.072c34.997,74.45,46.001,156.214,41.974,227.622
					c6.963,139.194,15.559,278.017,26.418,418.344c3.26,53.196,6.518,105.305,16.289,159.591c1.084,5.43,2.17,10.859,3.26,16.283
					c5.286,30.229,9.532,63.078,21.874,90.881c125.48,29.992,315.112,27.438,338.841,23.494
					C567.525,955.522,569.557,786.064,552.971,598.202z"/>
				<linearGradient id="SVGID_3_" gradientUnits="userSpaceOnUse" x1="150.5645" y1="373.7275" x2="444.7244" y2="351.7753">
					<stop  offset="0" style="stop-color:#949FA1"/>
					<stop  offset="1" style="stop-color:#B7C6C9"/>
				</linearGradient>
				<path fill="url(#SVGID_3_)" d="M547.332,530.817c-54.045,2.682-109.391,3.888-164.104,3.719
					c-6.133-148.038-49.559-371.684-96.245-456.363c-20.961,5.694-89.834,24.356-94.449,25.507
					c54.282,104.226,81.809,314.04,85.766,426.121c-56.614-0.256-98.793,2.176-147.103-1.628
					c-0.277,22.666,2.17,81.381,2.711,96.447c100.121,12.127,287.021,11.079,420.509,4.343
					C553.66,596.607,551.311,560.136,547.332,530.817z"/>
				<linearGradient id="SVGID_4_" gradientUnits="userSpaceOnUse" x1="140.4199" y1="854.3936" x2="589.9219" y2="854.3936">
					<stop  offset="0" style="stop-color:#949FA1"/>
					<stop  offset="1" style="stop-color:#B7C6C9"/>
				</linearGradient>
				<path fill="url(#SVGID_4_)" d="M589.922,910.827c-0.346-24.56-2.807-70.092-3.299-99.838
					c-80.188,4.193-306.549,11.619-446.203-18.457c0,4.211,7.057,87.937,7.6,93.909C253.329,916.3,480.23,922.269,589.922,910.827z"
					/>
				<path fill="#868F98" d="M131.196,528.173c-0.277,22.666,2.17,81.381,2.711,96.447c12.651,1.531,26.692,2.852,41.831,3.979
					c-2.217-32.88-4.318-65.722-6.316-98.536C156.855,529.771,144.246,529.2,131.196,528.173z"/>
				<path fill="#868F98" d="M140.42,792.532c0,4.211,7.057,87.937,7.6,93.909c14.303,4.053,30.865,7.664,49.055,10.855
					c-4.469-32.426-7.047-64.308-9.162-96.356C171.285,798.529,155.354,795.745,140.42,792.532z"/>
			</g>
			<g>
				<path fill="#93AB20" d="M661.672,92.033c-6.826,83.919-71.676,98.071-112.637,110.203
					c-0.979,25.245,7.111,185.559,11.379,362.956c5.645,234.614,8.186,497.986,9.484,507.195
					c94.049-2.689,230.241-31.117,261.653-50.656c11.402-10.855,10.352-29.832,9.775-42.34
					c-5.434-116.708,0.176-368.742,1.627-433.152c1.445-64.416,8.695-292.696-50.482-377.798
					C743.554,138.116,684.426,108.211,661.672,92.033z"/>
				<path fill="#DBF74A" d="M582.771,1059.733c-4.727-96.295-30.656-759.231-30.32-855.474
					c38.32-10.947,86.75-34.585,102.395-103.125c11.697,7.107,43.284,27.94,58.878,36.892c20.592,11.81,49.297,27.146,71.037,40.567
					c50.498,88.312,47.223,295.841,44.508,361.523c-2.711,65.591-2.713,330.037-1.084,448.378
					c0.145,10.521-2.715,23.883-21.172,30.939C770.618,1035.7,669.246,1055.382,582.771,1059.733z"/>
				<linearGradient id="SVGID_5_" gradientUnits="userSpaceOnUse" x1="317.6758" y1="366.2041" x2="792.1017" y2="375.9193">
					<stop  offset="0" style="stop-color:#949FA1"/>
					<stop  offset="1" style="stop-color:#B7C6C9"/>
				</linearGradient>
				<path fill="url(#SVGID_5_)" d="M788.255,515.517c2.473-100.793-7.836-267.984-26.834-350.492
					c-19.41-11.787-74.429-44.894-80.341-48.312c22.798,141.672,24.968,327.324,22.909,405.96
					c-47.981,3.614-96.169,6.404-141.868,7.64c0.328,29.751,4.123,64.546,4.6,97.924c112.051-4.876,216.733-16.091,261.284-22.802
					c1.105-23.139,2.17-73.097,2.531-93.724C819.511,512.817,799.538,514.451,788.255,515.517z"/>
				<linearGradient id="SVGID_6_" gradientUnits="userSpaceOnUse" x1="218.5435" y1="886.0254" x2="963.7177" y2="827.5803">
					<stop  offset="0" style="stop-color:#949FA1"/>
					<stop  offset="1" style="stop-color:#B7C6C9"/>
				</linearGradient>
				<path fill="url(#SVGID_6_)" d="M827.099,783.845c-73.164,10.992-174.669,24.561-255.669,27.145
					c0.564,30.242,4.543,76.858,5.063,100.965c75.637-4.342,175.522-14.472,251.147-32.296
					C828.185,854.144,827.099,799.588,827.099,783.845z"/>
			</g>
		</g>
		<g>
			<path fill="#93AB20" d="M512.631,219.424c-3.813-39.094-13.52-70.774-14.559-77.846c-3.119-15.168-29.822-25.433-48.863-33.367
				c-66.86-27.859-89.485-72.381-92.474-87.579C355.052,12.064,357.55,0.277,355.382,0c-13.031,10.137-34.056,50.584-42.378,66.761
				C314.896,92.639,399.991,206.284,512.631,219.424z"/>
			<path fill="#DBF74A" d="M501.887,212.012c-99.121-6.404-171.21-88.635-175.932-143.482c1.852-3.941,13.05-26.094,23.183-38.397
				c6.244,25.513,29.633,61.927,95.157,89.229l2.203,0.922c12.795,5.313,36.359,13.036,38.408,21.295
				C487.33,146.297,499.051,185.504,501.887,212.012z"/>
		</g>
		<g>
			<path fill="#93AB20" d="M544.486,218.076c-0.379-23.592-2.648-87.631,1.137-92.674c4.551-6.07,32.994-14.83,47.025-28.984
				c21.131-21.318,25.047-38.006,26.184-70.357c18.207-4.047,38.287,58.896,47.391,76.087
				C665.088,117.309,632.662,194.316,544.486,218.076z"/>
			<path fill="#DBF74A" d="M555.865,208.98c-0.377-20.898-2.275-73.471,1.898-76.163c10.617-5.058,32.598-16.05,40.197-23.593
				c16.92-16.807,27.16-37.08,30.338-58.305c6.701,12.256,24.615,54.268,26.547,58.305
				C658.26,138.542,630.953,192.13,555.865,208.98z"/>
		</g>
		<g>
			<g>
				<path fill="#333333" d="M563.83,1073.716c-0.066-3.857-5.811-392.276-16.658-514.285l18.145-1.275
					c10.896,122.515,18.525,510.07,18.596,513.932L563.83,1073.716z"/>
			</g>
			<g>
				<path fill="#333333" d="M547.93,569.369c-1.365-10.42-4.555-36.059-8.697-69.349c-12.539-100.722-35.877-288.209-40.152-305.688
					l8.893-1.719c4.381,17.893,26.865,198.567,40.305,306.521c4.141,33.266,7.332,58.885,8.691,69.296L547.93,569.369z"/>
			</g>
			<g>
				<path fill="#333333" d="M566.105,567.216h-9.104c0-10.951-2.299-74.088-4.955-147.186
					c-3.676-101.141-7.846-215.776-7.176-227.104l9.09,0.426c-0.65,10.986,3.691,130.435,7.188,226.419
					C563.805,492.942,566.105,556.135,566.105,567.216z"/>
			</g>
			<path fill="#333333" d="M575.221,607.415c1.555,6.526-3.313,11.961-10.82,12.074l-6.268,0.095
				c-7.506,0.11-13.289-5.245-12.852-11.909l2.395-36.436c0.434-6.662,4.244-11.997,8.473-11.858
				c4.225,0.139,8.949,5.596,10.51,12.122L575.221,607.415z"/>
		</g>
	</g>
</g>
<g>
	<g>
		<path fill="#371C03" d="M11.451,562.099c6.844-14.749,19.305-51.264,26.678-59.517c4.318-4.826,35.819-30.548,41.79-41.786
			c6.316-10.533,10.008-37.392,12.465-66.712c4.738-19.486,64.282-13.431,67.587,25.634c3.512,41.431-14.393,85.674-23.878,107.441
			C124.511,530.849,19.871,558.937,11.451,562.099z"/>
		<linearGradient id="SVGID_7_" gradientUnits="userSpaceOnUse" x1="50.4824" y1="460.623" x2="113.6856" y2="481.1641">
			<stop  offset="0" style="stop-color:#52311C"/>
			<stop  offset="1" style="stop-color:#634029"/>
		</linearGradient>
		<path fill="url(#SVGID_7_)" d="M31.109,543.664c4.537-12.228,10.156-28.146,14.93-34.763c2.414-3.363,16.924-14.719,24.22-22.119
			c7.908-8.021,14.365-13.054,16.445-15.99c8.84-12.453,15.508-45.107,16.213-72.493c7.371-8.429,41.604-3.689,46.343,19.485
			c4.318,21.084-7.725,65.66-16.847,87.432c0,0,19.454-0.03,20.538,4.742C150.316,510.692,59.875,536.208,31.109,543.664z"/>
		<linearGradient id="SVGID_8_" gradientUnits="userSpaceOnUse" x1="78.4307" y1="460.2598" x2="212.8142" y2="498.5757">
			<stop  offset="6.030000e-006" style="stop-color:#634029"/>
			<stop  offset="0.1071" style="stop-color:#6F4C31"/>
			<stop  offset="0.2794" style="stop-color:#7D593B"/>
			<stop  offset="0.43" style="stop-color:#825E3E"/>
		</linearGradient>
		<path fill="url(#SVGID_8_)" d="M105.196,405.671c1.059,13.166-2.104,46.877-6.322,69.523
			c-14.217,15.273-26.008,28.726-32.65,59.513c36.189-9.997,84.923-24.245,86.728-24.749c-1.084-4.772-20.538-4.742-20.538-4.742
			c9.122-21.771,21.165-66.348,16.847-87.432c-3.213-15.729-20.009-22.945-32.782-23.335
			C111.521,394.084,105.196,399.352,105.196,405.671z"/>
	</g>
	<g>
		<path fill="#371C03" d="M1.438,546.825c18.963-5.266,43.721-13.166,43.721-13.166s8.947-12.643,23.7-25.286
			c15.246-13.071,27.811-19.8,35.283-22.292c37.569,1.754,58.286-1.057,99.019,5.967c19.298,48.748,30.956,112.642,21.067,187.5
			c-2.457,18.611-11.238,38.625-15.799,45.997c-20.364,14.747-65.837,20.019-87.432,18.962
			c-27.91-2.634-68.819-12.639-81.106-17.557C44.1,715.011,53.586,615.118,1.438,546.825z"/>
		<linearGradient id="SVGID_9_" gradientUnits="userSpaceOnUse" x1="11.998" y1="754.6992" x2="83.1896" y2="665.506">
			<stop  offset="0" style="stop-color:#52311C"/>
			<stop  offset="1" style="stop-color:#634029"/>
		</linearGradient>
		<path fill="url(#SVGID_9_)" d="M129.778,734.326c-41.908,0-81.458-15.448-100.421-21.067
			C9.338,693.239-12.778,613.185,8.986,558.06c21.066-18.262,83.958-59.965,94.106-60.393c38.19,1.301,70.589,1.396,107.439,7.725
			c8.957,54.686,4.572,185.391-10.534,214.186C192.98,724.145,160.674,731.517,129.778,734.326z"/>
		<linearGradient id="SVGID_10_" gradientUnits="userSpaceOnUse" x1="142.8652" y1="614.6523" x2="-90.0329" y2="595.5276">
			<stop  offset="6.030000e-006" style="stop-color:#634029"/>
			<stop  offset="0.6675" style="stop-color:#765336"/>
			<stop  offset="1" style="stop-color:#825E3E"/>
		</linearGradient>
		<path fill="url(#SVGID_10_)" d="M178.244,726.618c10.643-2.47,18.66-5.032,21.754-7.041
			c15.106-28.795,19.491-159.5,10.534-214.186c-36.851-6.328-69.249-6.424-107.439-7.725c-10.148,0.428-73.04,42.131-94.106,60.393
			c-19.659,49.858,7.732,125.704,25.637,146.77c12.639,7.373,55.126,22.82,93.05,24.93
			C148.035,730.112,161.932,728.841,178.244,726.618z"/>
		<linearGradient id="SVGID_11_" gradientUnits="userSpaceOnUse" x1="231.6792" y1="590.4717" x2="80.8733" y2="619.1971">
			<stop  offset="6.030000e-006" style="stop-color:#634029"/>
			<stop  offset="1" style="stop-color:#825E3E"/>
		</linearGradient>
		<path fill="url(#SVGID_11_)" d="M210.532,505.392c-36.851-6.328-67.673-14.152-105.863-15.453c-0.184,0.01-0.42,0.051-0.629,0.084
			c-3.271,61.727,39.952,145.986,23.633,193.389c3.506,23.523,3.506,36.867,0.697,46c10.532,1.048,58.638-3.514,72.687-9.485
			c3.857-7.724,9.827-22.819,11.933-35.463C219.64,644.58,219.069,557.526,210.532,505.392z"/>
		<path fill="#371C03" d="M124.688,559.465c6.139,2.104,81.282-9.834,93.215-9.481c6.324,1.58,17.035,8.248,21.42,10.181
			c5.619,12.644,6.676,40.559,0.703,59.869c-2.104,3.161-4.736,5.794-4.736,5.794s3.68,3.162,3.68,6.844
			c0.881,17.91-3.504,46.177-11.58,50.388c-28.438,8.78-72.335,11.942-86.382,10.533
			C136.797,683.059,126.265,576.317,124.688,559.465z"/>
		<linearGradient id="SVGID_12_" gradientUnits="userSpaceOnUse" x1="302.5679" y1="623.8574" x2="75.5061" y2="628.3096">
			<stop  offset="6.030000e-006" style="stop-color:#634029"/>
			<stop  offset="0.0794" style="stop-color:#66432B"/>
			<stop  offset="0.9989" style="stop-color:#825E3E"/>
		</linearGradient>
		<path fill="url(#SVGID_12_)" d="M129.073,692.19c-11.236-18.261-11.236-45.648-10.709-58.991
			c-7.371-17.905-14.566-44.944-9.652-66.711c8.428,0,16.496,2.981,16.496,2.981s48.196-8.429,69.876-8.601
			c6.5,2.546,26.862,5.708,31.601,7.023c7.373,11.851,6.324,32.302,2.105,49.86c-2.801,4.562-16.848,7.724-16.848,7.724
			s7.02,2.104,14.047,2.809c3.506,12.638,2.105,37.925-6.324,48.458C198.6,685.868,141.711,693.239,129.073,692.19z"/>
		<path fill="#371C03" d="M139.078,629.515c-2.457,0.523,0.529,2.107,3.338,2.805c28.791,3.162,70.222-0.697,86.374-4.563
			c1.234-2.629,3.162-6.668,4.043-9.477C217.208,624.247,168.75,629.686,139.078,629.515z"/>
		<path fill="#371C03" d="M129.778,568.245c-1.762-0.353-7.723-3.514-9.133-3.514c0.965,4.037-0.527,10.27,1.057,17.904
			C124.511,575.617,128.722,570.351,129.778,568.245z"/>
		<path fill="#371C03" d="M100.987,487.134c18.955-4.566,76.544-5.619,94.097-4.215c10.273,2.105,28.356,7.02,34.94,11.238
			c7.721,11.146,10.707,53.717,2.279,72.68c-10.449,4.302-32.481,9.129-39.323,9.129c-6.844,0-61.097-3.334-72.159-4.739
			C111.696,562.45,89.222,526.812,100.987,487.134z"/>
		<linearGradient id="SVGID_13_" gradientUnits="userSpaceOnUse" x1="301.2964" y1="534.2422" x2="81.4851" y2="529.7955">
			<stop  offset="6.030000e-006" style="stop-color:#634029"/>
			<stop  offset="1" style="stop-color:#825E3E"/>
		</linearGradient>
		<path fill="url(#SVGID_13_)" d="M196.318,566.837c0,0-71.983,2.104-86.911,1.056c-4.033-14.571-15.096-50.21-1.4-70.226
			c22.125-3.161,76.72-4.566,84.62-2.721c5.795,1.846,22.913,8.16,28.179,11.851c4.738,13.427,0.529,46.345-3.949,54.513
			C211.321,563.415,196.318,566.837,196.318,566.837z"/>
		<linearGradient id="SVGID_14_" gradientUnits="userSpaceOnUse" x1="129.9683" y1="526.0684" x2="432.3933" y2="547.2912">
			<stop  offset="0" style="stop-color:#825E3E"/>
			<stop  offset="0.4964" style="stop-color:#7F5F40"/>
			<stop  offset="0.9064" style="stop-color:#756245"/>
			<stop  offset="1" style="stop-color:#716347"/>
		</linearGradient>
		<path fill="url(#SVGID_14_)" d="M221.065,504.339c-5.266-3.689-19.222-8.076-28.966-9.658
			c14.918,14.221,10.709,61.27,4.395,71.804c8.947-0.524,19.306-2.81,25.628-4.915C227.39,546.122,227.851,516.625,221.065,504.339z
			"/>
	</g>
</g>
</svg>
