<?xml version="1.0" encoding="utf-8"?>
<!-- Generator: Adobe Illustrator 15.0.0, SVG Export Plug-In . SVG Version: 6.00 Build 0)  -->
<!DOCTYPE svg PUBLIC "-//W3C//DTD SVG 1.1//EN" "http://www.w3.org/Graphics/SVG/1.1/DTD/svg11.dtd">
<svg version="1.1" id="_x30_1_1_" xmlns="http://www.w3.org/2000/svg" xmlns:xlink="http://www.w3.org/1999/xlink" x="0px" y="0px"
	 width="1021.602px" height="1003.844px" viewBox="0 0 1021.602 1003.844" enable-background="new 0 0 1021.602 1003.844"
	 xml:space="preserve">
<g id="Tshirt_7_">
	<g>
		<path fill="#999999" d="M916.041,126.67c43.297,15.029,96.258,85.523,99.119,155.656c1.432,67.272,5.01,173.55,6.441,213.624
			c-35.785,24.332-104.131,31.49-154.221,21.471C850.203,445.854,914.612,168.178,916.041,126.67z"/>
		<path fill="#FFFFFF" d="M904.217,507.771c-9.334,0-17.963-0.528-25.771-1.57c-6.922-53.88,18.135-190.959,35.018-283.316
			c5.59-30.578,10.184-55.704,12.877-73.428c33.105,26.087,72.596,75.139,74.863,130.723c0.842,39.638,4.262,192.974,5.371,209.331
			C979.871,504.52,946.313,507.771,904.217,507.771z"/>
	</g>
	<g>
		<path fill="#999999" d="M227.579,70.85C270.518,62.262,461.239,10.734,473.046,0c57.97,90.172,257.284,102.696,275.532,13.596
			c33.279,26.837,130.252,96.973,176.409,116.296c11.281,20.64,2.59,51.058,8.588,79.438
			c24.313,74.604,28.273,191.261-13.238,338.147c-6.131,192.287,10.496,360.955,13.238,398.266
			c-18.609,45.801-388.246,111.641-600.079-17.176c5.723-52.957,32.563-188.576,13.955-310.238
			C275.885,498.097,177.125,312.385,227.579,70.85z"/>
		<path fill="#E8EBED" d="M660.117,990.603c-87.474,0-211.316-12.139-309.983-69.199c1.008-8,2.344-17.438,3.826-27.918
			c9.334-65.976,22.264-175.549,6.752-276.969l-0.381-2.482l-1.283-2.157C299.074,511.118,190.702,323.682,238.179,80.58
			c42.964-9.729,185.233-46.055,230.578-64.395c37.721,48.33,110.808,70.091,169.405,70.091c58.183,0,101.693-19.956,118.957-53.243
			c39.428,30.848,115.18,87.096,158.602,106.863c50.057,98.417,41.74,228.85-7.779,404.078l-0.43,1.519l-0.051,1.574
			c-5.389,168.988,13.967,392.332,14.305,396.529C907.651,959.618,802.969,990.603,660.117,990.603z"/>
		<path fill="#FFFFFF" d="M907.461,547.067l0.051-1.574l0.43-1.519c49.52-175.229,57.836-305.661,7.779-404.078
			c-43.422-19.768-119.174-76.016-158.602-106.863c-17.264,33.287-60.773,53.243-118.957,53.243
			c-58.598,0-131.685-21.761-169.405-70.091c-38.784,15.687-148.433,44.518-206.243,58.625
			c-1.453,89.566,7.467,179.073,36.629,266.558c30.059,94.467,107.35,167.465,128.818,270.521
			c26.548,117.567-3.828,228.437-8.332,341.481c82.897,29.912,172.633,37.232,240.488,37.232
			c142.852,0,247.534-30.984,261.649-47.006C921.428,939.399,902.073,716.056,907.461,547.067z"/>
		<g>
			<path fill="#999999" d="M633.199,127.049c-1.148,0-2.297-0.007-3.459-0.02c-97.918-1.1-195.215-77.092-198.537-106.27
				l6.398-0.729c3.057,26.83,99.24,99.514,192.211,100.557c93.42,1.016,142.955-43.818,148.15-76.016l6.355,1.027
				C779.201,77.332,733.638,127.049,633.199,127.049z"/>
		</g>
		<path fill="#E8EBED" d="M312.025,416.513c81.583,79.438,324.193,113.789,412.219,103.055
			c-118.084,42.94-287.693,38.646-330.635,36.498C354.964,502.392,327.053,437.982,312.025,416.513z"/>
	</g>
	<g>
		<path fill="#999999" d="M0,344.229c46.158,37.572,210.401,100.193,231.872,104.487c15.902-29.353,51.526-124.523,62.978-233.305
			c18.607-77.292,24.33-118.082,25.764-138.836c-75.858-34.353-162.098,6.082-202.891,83.373
			C76.931,245.828,15.027,322.761,0,344.229z"/>
		<path fill="#FFFFFF" d="M226.146,432.974c-38.79-12.637-156.864-56.379-207.54-90.173c2.438-3.081,78.13-108.746,110.637-177.071
			c29.408-55.491,94.415-94.224,158.184-94.224c11.133,0,21.848,1.213,31.945,3.616
			C331.188,126.017,257.628,363.798,226.146,432.974z"/>
	</g>
</g>
<g>
	<g>
		<path fill="#371C03" d="M135.91,490.224c6.844-14.749,19.305-51.264,26.678-59.517c4.318-4.826,35.819-30.548,41.79-41.786
			c6.316-10.533,10.008-37.392,12.465-66.712c4.738-19.486,64.282-13.431,67.587,25.634c3.512,41.431-14.393,85.674-23.878,107.441
			C248.97,458.974,144.33,487.062,135.91,490.224z"/>
		<linearGradient id="SVGID_1_" gradientUnits="userSpaceOnUse" x1="174.9414" y1="388.749" x2="238.1443" y2="409.29">
			<stop  offset="0" style="stop-color:#52311C"/>
			<stop  offset="1" style="stop-color:#634029"/>
		</linearGradient>
		<path fill="url(#SVGID_1_)" d="M155.568,471.789c4.537-12.228,10.156-28.146,14.93-34.763c2.414-3.363,16.924-14.719,24.22-22.119
			c7.908-8.021,14.365-13.054,16.445-15.99c8.84-12.453,15.508-45.107,16.213-72.493c7.371-8.429,41.604-3.689,46.343,19.485
			c4.318,21.084-7.725,65.66-16.847,87.432c0,0,19.454-0.03,20.538,4.742C274.775,438.817,184.334,464.333,155.568,471.789z"/>
		<linearGradient id="SVGID_2_" gradientUnits="userSpaceOnUse" x1="202.8892" y1="388.3848" x2="337.2735" y2="426.7009">
			<stop  offset="6.030000e-006" style="stop-color:#634029"/>
			<stop  offset="0.1071" style="stop-color:#6F4C31"/>
			<stop  offset="0.2794" style="stop-color:#7D593B"/>
			<stop  offset="0.43" style="stop-color:#825E3E"/>
		</linearGradient>
		<path fill="url(#SVGID_2_)" d="M229.655,333.796c1.059,13.166-2.104,46.877-6.322,69.523
			c-14.217,15.273-26.008,28.726-32.65,59.513c36.189-9.997,84.923-24.245,86.728-24.749c-1.084-4.772-20.538-4.742-20.538-4.742
			c9.122-21.771,21.165-66.348,16.847-87.432c-3.213-15.729-20.009-22.945-32.782-23.335
			C235.979,322.209,229.655,327.477,229.655,333.796z"/>
	</g>
	<g>
		<path fill="#371C03" d="M125.896,474.95c18.962-5.266,43.721-13.166,43.721-13.166s8.947-12.643,23.7-25.286
			c15.247-13.071,27.811-19.8,35.284-22.292c37.569,1.754,58.286-1.057,99.019,5.967c19.298,48.748,30.956,112.642,21.067,187.5
			c-2.457,18.611-11.238,38.625-15.799,45.997c-20.364,14.747-65.837,20.019-87.432,18.962
			c-27.91-2.634-68.819-12.639-81.106-17.557C168.559,643.136,178.045,543.243,125.896,474.95z"/>
		<linearGradient id="SVGID_3_" gradientUnits="userSpaceOnUse" x1="136.457" y1="682.8242" x2="207.6486" y2="593.631">
			<stop  offset="0" style="stop-color:#52311C"/>
			<stop  offset="1" style="stop-color:#634029"/>
		</linearGradient>
		<path fill="url(#SVGID_3_)" d="M254.237,662.451c-41.908,0-81.458-15.448-100.421-21.067
			c-20.02-20.02-42.136-100.074-20.371-155.199c21.066-18.262,83.958-59.965,94.106-60.393c38.19,1.301,70.589,1.396,107.439,7.725
			c8.957,54.686,4.572,185.391-10.534,214.186C317.439,652.27,285.133,659.642,254.237,662.451z"/>
		<linearGradient id="SVGID_4_" gradientUnits="userSpaceOnUse" x1="267.3242" y1="542.7773" x2="34.4261" y2="523.6526">
			<stop  offset="6.030000e-006" style="stop-color:#634029"/>
			<stop  offset="0.6675" style="stop-color:#765336"/>
			<stop  offset="1" style="stop-color:#825E3E"/>
		</linearGradient>
		<path fill="url(#SVGID_4_)" d="M302.703,654.743c10.643-2.47,18.66-5.032,21.754-7.041c15.106-28.795,19.491-159.5,10.534-214.186
			c-36.851-6.328-69.249-6.424-107.439-7.725c-10.148,0.428-73.04,42.131-94.106,60.393c-19.659,49.858,7.732,125.704,25.637,146.77
			c12.639,7.373,55.126,22.82,93.05,24.93C272.494,658.237,286.391,656.966,302.703,654.743z"/>
		<linearGradient id="SVGID_5_" gradientUnits="userSpaceOnUse" x1="356.1377" y1="518.5967" x2="205.3318" y2="547.3221">
			<stop  offset="6.030000e-006" style="stop-color:#634029"/>
			<stop  offset="1" style="stop-color:#825E3E"/>
		</linearGradient>
		<path fill="url(#SVGID_5_)" d="M334.991,433.517c-36.851-6.328-67.673-14.152-105.863-15.453c-0.184,0.01-0.42,0.051-0.629,0.084
			c-3.271,61.727,39.952,145.986,23.633,193.389c3.506,23.523,3.506,36.867,0.697,46c10.532,1.048,58.638-3.514,72.687-9.485
			c3.857-7.724,9.827-22.819,11.933-35.463C344.099,572.705,343.528,485.651,334.991,433.517z"/>
		<path fill="#371C03" d="M249.147,487.59c6.139,2.104,81.282-9.834,93.215-9.481c6.324,1.58,17.035,8.248,21.42,10.181
			c5.619,12.644,6.676,40.559,0.703,59.869c-2.104,3.161-4.736,5.794-4.736,5.794s3.68,3.162,3.68,6.844
			c0.881,17.91-3.504,46.177-11.58,50.388c-28.438,8.78-72.335,11.942-86.382,10.533
			C261.256,611.184,250.724,504.442,249.147,487.59z"/>
		<linearGradient id="SVGID_6_" gradientUnits="userSpaceOnUse" x1="427.0264" y1="551.9824" x2="199.965" y2="556.4346">
			<stop  offset="6.030000e-006" style="stop-color:#634029"/>
			<stop  offset="0.0794" style="stop-color:#66432B"/>
			<stop  offset="0.9989" style="stop-color:#825E3E"/>
		</linearGradient>
		<path fill="url(#SVGID_6_)" d="M253.532,620.315c-11.236-18.261-11.236-45.648-10.709-58.991
			c-7.371-17.905-14.566-44.944-9.652-66.711c8.428,0,16.496,2.981,16.496,2.981s48.196-8.429,69.876-8.601
			c6.5,2.546,26.862,5.708,31.601,7.023c7.373,11.851,6.324,32.302,2.105,49.86c-2.801,4.562-16.848,7.724-16.848,7.724
			s7.02,2.104,14.047,2.809c3.506,12.638,2.105,37.925-6.324,48.458C323.059,613.993,266.17,621.364,253.532,620.315z"/>
		<path fill="#371C03" d="M263.537,557.64c-2.457,0.523,0.529,2.107,3.338,2.805c28.791,3.162,70.222-0.697,86.374-4.563
			c1.234-2.629,3.162-6.668,4.043-9.477C341.667,552.372,293.209,557.811,263.537,557.64z"/>
		<path fill="#371C03" d="M254.237,496.37c-1.762-0.353-7.723-3.514-9.133-3.514c0.965,4.037-0.527,10.27,1.057,17.904
			C248.97,503.742,253.181,498.476,254.237,496.37z"/>
		<path fill="#371C03" d="M225.446,415.259c18.955-4.566,76.544-5.619,94.097-4.215c10.273,2.105,28.356,7.02,34.94,11.238
			c7.721,11.146,10.707,53.717,2.279,72.68c-10.449,4.302-32.481,9.129-39.323,9.129c-6.844,0-61.097-3.334-72.159-4.739
			C236.155,490.575,213.681,454.937,225.446,415.259z"/>
		<linearGradient id="SVGID_7_" gradientUnits="userSpaceOnUse" x1="425.7554" y1="462.3672" x2="205.944" y2="457.9205">
			<stop  offset="6.030000e-006" style="stop-color:#634029"/>
			<stop  offset="1" style="stop-color:#825E3E"/>
		</linearGradient>
		<path fill="url(#SVGID_7_)" d="M320.777,494.962c0,0-71.983,2.104-86.911,1.056c-4.033-14.571-15.096-50.21-1.4-70.226
			c22.125-3.161,76.72-4.566,84.62-2.721c5.795,1.846,22.913,8.16,28.179,11.851c4.738,13.427,0.529,46.345-3.949,54.513
			C335.78,491.54,320.777,494.962,320.777,494.962z"/>
		<linearGradient id="SVGID_8_" gradientUnits="userSpaceOnUse" x1="254.4287" y1="454.1934" x2="556.8497" y2="475.4159">
			<stop  offset="0" style="stop-color:#825E3E"/>
			<stop  offset="0.4964" style="stop-color:#7F5F40"/>
			<stop  offset="0.9064" style="stop-color:#756245"/>
			<stop  offset="1" style="stop-color:#716347"/>
		</linearGradient>
		<path fill="url(#SVGID_8_)" d="M345.524,432.464c-5.266-3.689-19.222-8.076-28.966-9.658c14.918,14.221,10.709,61.27,4.395,71.804
			c8.947-0.524,19.306-2.81,25.628-4.915C351.849,474.247,352.31,444.75,345.524,432.464z"/>
	</g>
</g>
</svg>
