<?xml version="1.0" encoding="utf-8"?>
<!-- Generator: Adobe Illustrator 15.0.0, SVG Export Plug-In . SVG Version: 6.00 Build 0)  -->
<!DOCTYPE svg PUBLIC "-//W3C//DTD SVG 1.1//EN" "http://www.w3.org/Graphics/SVG/1.1/DTD/svg11.dtd">
<svg version="1.1" id="_x30_1_1_" xmlns="http://www.w3.org/2000/svg" xmlns:xlink="http://www.w3.org/1999/xlink" x="0px" y="0px"
	 width="1248.112px" height="1003.844px" viewBox="0 0 1248.112 1003.844" enable-background="new 0 0 1248.112 1003.844"
	 xml:space="preserve">
<g id="Tshirt_x5F_Long_10_">
	<g>
		<path fill="#999999" d="M1062.757,127.386c44.547,9.483,102.34,76.935,105.201,147.067c1.432,67.272,13.598,288.055,15.029,328.13
			c31.488,97.33,55.105,148.143,65.125,382.879c-35.426,12.881-114.457,12.893-139.555,7.873
			c-36.867-90.402-89.742-215.873-95.895-347.813C1001.38,403.525,1061.831,154.248,1062.757,127.386z"/>
		<path fill="#E8EBED" d="M1167.854,987.95c-20.117,0-37.252-1.189-47.953-2.602c-37.234-91.367-86.316-214.426-92.223-341.141
			c-8.83-189.387,27.191-386.423,42.57-470.56c2.156-11.785,3.822-20.95,5.037-28.062c36.574,20.757,79.646,72.379,81.947,128.676
			c0.924,43.433,6.424,152.881,10.441,232.797c2.191,43.57,4.082,81.197,4.586,95.268l0.064,1.797c0,0,4.281,13.19,6.1,18.76
			c27.951,85.67,47.98,145.928,57.521,356.852C1219.679,983.726,1195.792,987.95,1167.854,987.95z"/>
		<path fill="#FFFFFF" d="M1235.946,979.735c-9.541-210.924-29.57-271.182-57.521-356.852c-1.818-5.569-6.1-18.76-6.1-18.76
			l-0.064-1.797c-0.504-14.07-2.395-51.697-4.586-95.268c-4.018-79.916-9.518-189.364-10.441-232.797
			c-2.301-56.297-45.373-107.919-81.947-128.676c-1.215,7.111-2.881,16.276-5.037,28.062
			c-8.348,45.682-3.898,111.986-13.934,204.937c11.516,66.365-4.293,150.285,19.32,246.185
			c6.441,107.349,57.969,300.577,76.852,362.94c4.875,0.15,10.004,0.24,15.367,0.24
			C1195.792,987.95,1219.679,983.726,1235.946,979.735z"/>
	</g>
	<g>
		<path fill="#999999" d="M379.302,70.85C422.24,62.262,612.962,10.734,624.769,0c57.97,90.172,257.284,102.696,275.532,13.596
			c33.279,26.837,133.474,96.973,176.946,118.979c11.281,20.64,2.053,48.374,8.051,76.755
			c24.313,74.604,28.273,191.261-13.238,338.147c-6.131,192.287,10.496,360.955,13.238,398.266
			c-18.609,45.801-388.247,111.641-600.08-17.176c5.723-52.957,32.563-188.576,13.955-310.238
			C427.607,498.097,328.848,312.385,379.302,70.85z"/>
		<path fill="#E8EBED" d="M811.84,990.603c-87.475,0-211.316-12.139-309.983-69.199c1.008-8,2.344-17.438,3.826-27.918
			c9.334-65.976,22.264-175.549,6.752-276.969l-0.381-2.482l-1.283-2.157C450.797,511.118,342.425,323.682,389.901,80.58
			c42.964-9.729,185.233-46.055,230.578-64.395c37.721,48.33,110.808,70.091,169.405,70.091c58.184,0,101.693-19.956,118.957-53.243
			c39.428,30.848,115.181,87.096,158.603,106.863c50.057,98.417,41.74,228.85-7.779,404.078l-0.43,1.519l-0.051,1.574
			c-5.389,168.988,13.967,392.332,14.305,396.529C1059.374,959.618,954.691,990.603,811.84,990.603z"/>
		<path fill="#FFFFFF" d="M1059.185,547.067l0.051-1.574l0.43-1.519c49.52-175.229,57.836-305.661,7.779-404.078
			c-43.422-19.768-119.175-76.016-158.603-106.863c-17.264,33.287-60.773,53.243-118.957,53.243
			c-58.598,0-131.685-21.761-169.405-70.091c-38.784,15.687-148.433,44.518-206.243,58.625
			c-1.453,89.566,7.467,179.073,36.629,266.558c30.059,94.467,107.35,167.465,128.818,270.521
			c26.548,117.567-3.828,228.437-8.332,341.481c82.897,29.912,172.633,37.232,240.488,37.232
			c142.852,0,247.534-30.984,261.649-47.006C1073.151,939.399,1053.796,716.056,1059.185,547.067z"/>
		<g>
			<path fill="#999999" d="M784.922,127.049c-1.148,0-2.297-0.007-3.459-0.02c-97.918-1.1-195.215-77.092-198.537-106.27
				l6.398-0.729c3.057,26.83,99.24,99.514,192.211,100.557c93.42,1.016,142.955-43.818,148.15-76.016l6.355,1.027
				C930.924,77.332,885.361,127.049,784.922,127.049z"/>
		</g>
		<path fill="#E8EBED" d="M463.748,416.513c81.584,79.438,324.193,113.789,412.219,103.055
			c-118.084,42.94-287.693,38.646-330.635,36.498C506.687,502.392,478.775,437.982,463.748,416.513z"/>
	</g>
	<g>
		<path fill="#999999" d="M70.852,461.6c63.336,17.176,249.049,77.291,270.519,81.585c13.955-31.131,99.835-158.877,105.202-327.772
			c18.607-77.292,24.33-118.082,25.764-138.836c-78.724-45.802-166.75,14.313-207.542,91.604
			C224.719,244.039,82.66,428.321,70.852,461.6z"/>
		<path fill="#FFFFFF" d="M334.496,528.126c-19.949-5.589-63.939-19.251-106.735-32.544
			c-48.89-15.185-103.395-32.114-138.228-42.122c12.103-20.05,37.952-56.249,63.129-91.502
			c46.609-65.265,104.597-146.466,128.303-196.231c28.51-53.836,83.345-94.877,136.623-94.877c14.766,0,47.299-1.932,61.188,3.221
			c-2.297,22.115-8.654,48.254-24.689,114.862l-3.221,27.911c-21.471,108.423-83.173,250.308-109.468,298.517
			C338.734,520.243,336.434,524.463,334.496,528.126z"/>
	</g>
</g>
<g>
	<path fill="#371C03" d="M400.341,647.702c-29.73,3.715-36.994-0.205-75.839,7.025c-90.595,16.848-182.283,36.234-242.281,3.51
		C19.018,616.098-0.725,551.353,11.646,525.51c15.801-33.005,65.834-110.251,144.836-103.228
		c39.326,4.916,74.263,37.393,74.263,37.393s130.094,37.392,157.477,43.188C390.335,532.357,404.552,605.564,400.341,647.702z"/>
	<linearGradient id="SVGID_1_" gradientUnits="userSpaceOnUse" x1="296.5859" y1="686.2471" x2="224.255" y2="590.0383">
		<stop  offset="0" style="stop-color:#52311C"/>
		<stop  offset="1" style="stop-color:#634029"/>
	</linearGradient>
	<path fill="url(#SVGID_1_)" d="M184.402,664.027c-40.768,0-68.2-2.474-94.811-16.854c-39.711-26.644-61.76-64.145-65.836-86.901
		c-1.904-10.647-2.055-25.021,1.586-30.021c0,0,48.449-107.269,132.727-97.435c54.773,22.467,69.515,35.811,69.515,35.811
		s115.871,35.818,123.604,37.219c-5.619,16.857-16.856,120.088-19.313,136.589C287.096,651.032,227.583,661.218,184.402,664.027z"/>
	<linearGradient id="SVGID_2_" gradientUnits="userSpaceOnUse" x1="163.6611" y1="763.9609" x2="190.6988" y2="504.8483">
		<stop  offset="6.030000e-006" style="stop-color:#634029"/>
		<stop  offset="0.3632" style="stop-color:#6A472E"/>
		<stop  offset="0.8849" style="stop-color:#7D593A"/>
		<stop  offset="1" style="stop-color:#825E3E"/>
	</linearGradient>
	<path fill="url(#SVGID_2_)" d="M340.301,620.315c4.437-36.338,7.245-103.566,10.886-114.469
		c-7.732-1.4-123.604-37.219-123.604-37.219s-33.177-29.496-69.515-35.811c-84.277-9.834-130.621,94.801-130.621,94.801
		c-2.105,8.425-9.133,23.174,34.41,51.26C113.468,636.116,190.021,661.042,340.301,620.315z"/>
	<path fill="#371C03" d="M287.633,484.429c-23.181-5.616-83.572-22.822-130.621-30.545c42.135,0,66.363,7.547,71.981,7.723
		C233.202,465.118,276.395,479.513,287.633,484.429z"/>
</g>
<g>
	<g>
		<path fill="#371C03" d="M287.633,490.224c6.844-14.749,19.305-51.264,26.678-59.517c4.318-4.826,35.819-30.548,41.79-41.786
			c6.316-10.533,10.008-37.392,12.465-66.712c4.738-19.486,64.282-13.431,67.587,25.634c3.512,41.431-14.393,85.674-23.878,107.441
			C400.692,458.974,296.053,487.062,287.633,490.224z"/>
		<linearGradient id="SVGID_3_" gradientUnits="userSpaceOnUse" x1="326.6641" y1="388.748" x2="389.8672" y2="409.2891">
			<stop  offset="0" style="stop-color:#52311C"/>
			<stop  offset="1" style="stop-color:#634029"/>
		</linearGradient>
		<path fill="url(#SVGID_3_)" d="M307.291,471.789c4.537-12.228,10.156-28.146,14.93-34.763c2.414-3.363,16.924-14.719,24.22-22.119
			c7.908-8.021,14.365-13.054,16.445-15.99c8.84-12.453,15.508-45.107,16.213-72.493c7.371-8.429,41.604-3.689,46.343,19.485
			c4.318,21.084-7.725,65.66-16.847,87.432c0,0,19.454-0.03,20.538,4.742C426.498,438.817,336.057,464.333,307.291,471.789z"/>
		<linearGradient id="SVGID_4_" gradientUnits="userSpaceOnUse" x1="354.6123" y1="388.3848" x2="488.9975" y2="426.7012">
			<stop  offset="6.030000e-006" style="stop-color:#634029"/>
			<stop  offset="0.1071" style="stop-color:#6F4C31"/>
			<stop  offset="0.2794" style="stop-color:#7D593B"/>
			<stop  offset="0.43" style="stop-color:#825E3E"/>
		</linearGradient>
		<path fill="url(#SVGID_4_)" d="M381.378,333.796c1.059,13.166-2.104,46.877-6.322,69.523
			c-14.217,15.273-26.008,28.726-32.65,59.513c36.189-9.997,84.923-24.245,86.728-24.749c-1.084-4.772-20.538-4.742-20.538-4.742
			c9.122-21.771,21.165-66.348,16.847-87.432c-3.213-15.729-20.009-22.945-32.782-23.335
			C387.702,322.209,381.378,327.477,381.378,333.796z"/>
	</g>
	<g>
		<path fill="#371C03" d="M277.619,474.95c18.963-5.266,43.721-13.166,43.721-13.166s8.947-12.643,23.7-25.286
			c15.246-13.071,27.811-19.8,35.283-22.292c37.569,1.754,58.286-1.057,99.019,5.967c19.298,48.748,30.956,112.642,21.067,187.5
			c-2.457,18.611-11.238,38.625-15.799,45.997c-20.364,14.747-65.837,20.019-87.432,18.962
			c-27.91-2.634-68.819-12.639-81.106-17.557C320.281,643.136,329.768,543.243,277.619,474.95z"/>
		<linearGradient id="SVGID_5_" gradientUnits="userSpaceOnUse" x1="288.1797" y1="682.8242" x2="359.3712" y2="593.631">
			<stop  offset="0" style="stop-color:#52311C"/>
			<stop  offset="1" style="stop-color:#634029"/>
		</linearGradient>
		<path fill="url(#SVGID_5_)" d="M405.96,662.451c-41.908,0-81.458-15.448-100.421-21.067
			c-20.02-20.02-42.136-100.074-20.371-155.199c21.066-18.262,83.958-59.965,94.106-60.393c38.19,1.301,70.589,1.396,107.439,7.725
			c8.957,54.686,4.572,185.391-10.534,214.186C469.162,652.27,436.855,659.642,405.96,662.451z"/>
		<linearGradient id="SVGID_6_" gradientUnits="userSpaceOnUse" x1="419.0469" y1="542.7773" x2="186.1488" y2="523.6526">
			<stop  offset="6.030000e-006" style="stop-color:#634029"/>
			<stop  offset="0.6675" style="stop-color:#765336"/>
			<stop  offset="1" style="stop-color:#825E3E"/>
		</linearGradient>
		<path fill="url(#SVGID_6_)" d="M454.426,654.743c10.643-2.47,18.66-5.032,21.754-7.041c15.106-28.795,19.491-159.5,10.534-214.186
			c-36.851-6.328-69.249-6.424-107.439-7.725c-10.148,0.428-73.04,42.131-94.106,60.393c-19.659,49.858,7.732,125.704,25.637,146.77
			c12.639,7.373,55.126,22.82,93.05,24.93C424.217,658.237,438.113,656.966,454.426,654.743z"/>
		<linearGradient id="SVGID_7_" gradientUnits="userSpaceOnUse" x1="507.8604" y1="518.5967" x2="357.0545" y2="547.3221">
			<stop  offset="6.030000e-006" style="stop-color:#634029"/>
			<stop  offset="1" style="stop-color:#825E3E"/>
		</linearGradient>
		<path fill="url(#SVGID_7_)" d="M486.714,433.517c-36.851-6.328-67.673-14.152-105.863-15.453c-0.184,0.01-0.42,0.051-0.629,0.084
			c-3.271,61.727,39.952,145.986,23.633,193.389c3.506,23.523,3.506,36.867,0.697,46c10.532,1.048,58.638-3.514,72.687-9.485
			c3.857-7.724,9.827-22.819,11.933-35.463C495.821,572.705,495.251,485.651,486.714,433.517z"/>
		<path fill="#371C03" d="M400.87,487.59c6.139,2.104,81.282-9.834,93.215-9.481c6.324,1.58,17.035,8.248,21.42,10.181
			c5.619,12.644,6.676,40.559,0.703,59.869c-2.104,3.161-4.736,5.794-4.736,5.794s3.68,3.162,3.68,6.844
			c0.881,17.91-3.504,46.177-11.58,50.388c-28.438,8.78-72.335,11.942-86.382,10.533C412.979,611.184,402.446,504.442,400.87,487.59
			z"/>
		<linearGradient id="SVGID_8_" gradientUnits="userSpaceOnUse" x1="578.749" y1="551.9834" x2="351.6881" y2="556.4355">
			<stop  offset="6.030000e-006" style="stop-color:#634029"/>
			<stop  offset="0.0794" style="stop-color:#66432B"/>
			<stop  offset="0.9989" style="stop-color:#825E3E"/>
		</linearGradient>
		<path fill="url(#SVGID_8_)" d="M405.255,620.315c-11.236-18.261-11.236-45.648-10.709-58.991
			c-7.371-17.905-14.566-44.944-9.652-66.711c8.428,0,16.496,2.981,16.496,2.981s48.196-8.429,69.876-8.601
			c6.5,2.546,26.862,5.708,31.601,7.023c7.373,11.851,6.324,32.302,2.105,49.86c-2.801,4.562-16.848,7.724-16.848,7.724
			s7.02,2.104,14.047,2.809c3.506,12.638,2.105,37.925-6.324,48.458C474.781,613.993,417.893,621.364,405.255,620.315z"/>
		<path fill="#371C03" d="M415.26,557.64c-2.457,0.523,0.529,2.107,3.338,2.805c28.791,3.162,70.222-0.697,86.374-4.563
			c1.234-2.629,3.162-6.668,4.043-9.477C493.39,552.372,444.932,557.811,415.26,557.64z"/>
		<path fill="#371C03" d="M405.96,496.37c-1.762-0.353-7.723-3.514-9.133-3.514c0.965,4.037-0.527,10.27,1.057,17.904
			C400.692,503.742,404.903,498.476,405.96,496.37z"/>
		<path fill="#371C03" d="M377.169,415.259c18.955-4.566,76.544-5.619,94.097-4.215c10.273,2.105,28.356,7.02,34.94,11.238
			c7.721,11.146,10.707,53.717,2.279,72.68c-10.449,4.302-32.481,9.129-39.323,9.129c-6.844,0-61.097-3.334-72.159-4.739
			C387.878,490.575,365.403,454.937,377.169,415.259z"/>
		<linearGradient id="SVGID_9_" gradientUnits="userSpaceOnUse" x1="577.4766" y1="462.3682" x2="357.667" y2="457.9215">
			<stop  offset="6.030000e-006" style="stop-color:#634029"/>
			<stop  offset="1" style="stop-color:#825E3E"/>
		</linearGradient>
		<path fill="url(#SVGID_9_)" d="M472.5,494.962c0,0-71.983,2.104-86.911,1.056c-4.033-14.571-15.096-50.21-1.4-70.226
			c22.125-3.161,76.72-4.566,84.62-2.721c5.795,1.846,22.913,8.16,28.179,11.851c4.738,13.427,0.529,46.345-3.949,54.513
			C487.503,491.54,472.5,494.962,472.5,494.962z"/>
		<linearGradient id="SVGID_10_" gradientUnits="userSpaceOnUse" x1="406.1523" y1="454.1934" x2="708.5693" y2="475.4156">
			<stop  offset="0" style="stop-color:#825E3E"/>
			<stop  offset="0.4964" style="stop-color:#7F5F40"/>
			<stop  offset="0.9064" style="stop-color:#756245"/>
			<stop  offset="1" style="stop-color:#716347"/>
		</linearGradient>
		<path fill="url(#SVGID_10_)" d="M497.247,432.464c-5.266-3.689-19.222-8.076-28.966-9.658
			c14.918,14.221,10.709,61.27,4.395,71.804c8.947-0.524,19.306-2.81,25.628-4.915C503.571,474.247,504.032,444.75,497.247,432.464z
			"/>
	</g>
</g>
<g>
	<path fill="#999999" d="M117.368,418.659C68.293,428.201,2.863,500.245,0,543.185c7.16,47.233,27.197,93.035,84.451,124.525
		c65.838,27.195,217.559-5.725,230.439-8.588c-24.33-20.041-54.388-103.057-21.469-191.797
		c-21.471-4.295-50.161-10.117-68.703-20.038C191.838,429.7,168.896,408.642,117.368,418.659z"/>
	<path fill="#FFFFFF" d="M157.543,665.52c-29.224,0-51.937-3.181-67.527-9.454c-44.797-24.842-68.613-59.863-77.049-113.332
		c3.713-35.75,62.932-102.887,106.862-111.43c8.145-1.582,15.567-2.354,22.681-2.354c24.545,0,41.137,9.633,60.348,20.785
		c5.041,2.926,10.25,5.949,15.785,8.912c16.274,8.705,38.511,14.271,57.92,18.384c-21.942,72.288-5.934,139.304,15.096,173.698
		c-29.503,5.65-84.836,14.79-134.109,14.79C157.543,665.52,157.549,665.52,157.543,665.52z"/>
</g>
</svg>
