<?xml version="1.0" encoding="utf-8"?>
<!-- Generator: Adobe Illustrator 15.0.0, SVG Export Plug-In . SVG Version: 6.00 Build 0)  -->
<!DOCTYPE svg PUBLIC "-//W3C//DTD SVG 1.1//EN" "http://www.w3.org/Graphics/SVG/1.1/DTD/svg11.dtd">
<svg version="1.1" id="Clothes" xmlns="http://www.w3.org/2000/svg" xmlns:xlink="http://www.w3.org/1999/xlink" x="0px" y="0px"
	 width="795.781px" height="1766.813px" viewBox="0 0 795.781 1766.813" enable-background="new 0 0 795.781 1766.813"
	 xml:space="preserve">
<g>
	<path fill="#93AB20" d="M766.412,29.071c87.209,377.91-43.607,971.424-84.789,1107.084
		c-21.008,172.896-14.16,359.037-12.916,440.09c-8.072,19.381-11.311,40.375-11.311,40.375s6.924,43.152,9.691,54.912
		c-46.029,9.691-187.336,41.984-211.562,51.678c-1.455-15.453-6.461-72.676-6.461-72.676s-14.537-16.152-20.994-29.07
		c-11.106-78.785-21.818-247.295-25.035-298.775c-7.105-113.725,23.523-238.17,29.07-285.855
		c8.078-147.771-46.027-949.622-43.605-976.27C606.525,87.211,722.804,43.606,766.412,29.071z"/>
	<path fill="#B7D130" d="M755.703,47.996c-40.223,13.334-115.42,35.55-234.82,35.55c-37.484,0-76.963-2.229-117.584-6.643
		c1.328,33.518,6.069,116.177,11.401,209.042c14.888,259.475,37.393,651.592,31.918,751.684l-0.076,0.885
		c-1.402,12.074-4.348,28.852-7.764,48.279c-10.551,60.047-26.496,150.783-21.234,234.986
		c8.738,139.826,17.223,241.744,24.568,295.154c4.959,8.869,14.332,20.07,17.758,23.883l3.252,3.615l0.42,4.836
		c0,0,2.801,32.023,4.824,54.598c43.068-12.332,137-33.797,181.695-43.539c-3.086-16.955-6.805-40.092-7.014-41.398l-0.363-2.264
		l0.35-2.256c0.138-0.887,3.293-20.994,11.095-40.873c-0.136-8.348-0.332-17.74-0.537-28.041
		c-1.811-89.66-5.172-256.555,13.602-411.094l0.156-1.254l0.363-1.211C718.283,965.349,831.052,404.899,755.703,47.996z"/>
	<linearGradient id="SVGID_1_" gradientUnits="userSpaceOnUse" x1="415.6479" y1="1248.5264" x2="661.6362" y2="1248.5264">
		<stop  offset="0" style="stop-color:#949FA1"/>
		<stop  offset="1" style="stop-color:#B7C6C9"/>
	</linearGradient>
	<path fill="url(#SVGID_1_)" d="M655.58,1289.985c1.389-31.84,3.223-64.359,6.057-96.902
		c-62.492,16.701-162.213,19.949-240.432,6.662c-3.559,32.266-6.115,65.178-5.451,98.717
		C494.328,1307.312,577.308,1306.198,655.58,1289.985z"/>
	<linearGradient id="SVGID_2_" gradientUnits="userSpaceOnUse" x1="424.2319" y1="1469.7666" x2="653.1597" y2="1469.7666">
		<stop  offset="0" style="stop-color:#949FA1"/>
		<stop  offset="1" style="stop-color:#B7C6C9"/>
	</linearGradient>
	<path fill="url(#SVGID_2_)" d="M653.16,1504.981c-0.438-26.139-0.082-55.988,0-88.424
		c-59.557,14.338-146.766,22.414-228.928,17.564c2.326,31.938,4.428,59.791,6.662,85.395
		C489.435,1527.798,598.447,1520.528,653.16,1504.981z"/>
	<path fill="#DBF74A" d="M755.703,47.996c-40.223,13.334-115.42,35.55-234.82,35.55c-0.059,0-0.113-0.002-0.166-0.002
		c-15.061,325,1.969,629.663-20.779,957.325c3.633,21.801,33.914,86.404,36.336,93.674c-2.422,10.498-25.436,4.035-38.76-5.656
		c-3.063,35.143-5.422,61.586-9.689,96.902c-16.314,159.057,5.137,311.242,29.67,465.238
		c45.328-11.193,101.125-23.852,132.566-30.701c-3.086-16.955-6.805-40.092-7.014-41.398l-0.363-2.264l0.35-2.256
		c0.138-0.887,3.293-20.994,11.095-40.873c-0.136-8.348-0.332-17.74-0.537-28.041c-1.811-89.66-5.172-256.555,13.602-411.094
		l0.156-1.254l0.363-1.211C718.283,965.349,831.052,404.899,755.703,47.996z"/>
	<linearGradient id="SVGID_3_" gradientUnits="userSpaceOnUse" x1="415.6479" y1="1248.5264" x2="661.6362" y2="1248.5264">
		<stop  offset="0" style="stop-color:#949FA1"/>
		<stop  offset="1" style="stop-color:#B7C6C9"/>
	</linearGradient>
	<path fill="url(#SVGID_3_)" d="M655.58,1289.985c1.389-31.84,3.223-64.359,6.057-96.902
		c-62.492,16.701-162.213,19.949-240.432,6.662c-3.559,32.266-6.115,65.178-5.451,98.717
		C494.328,1307.312,577.308,1306.198,655.58,1289.985z"/>
	<linearGradient id="SVGID_4_" gradientUnits="userSpaceOnUse" x1="424.2319" y1="1469.7666" x2="653.1597" y2="1469.7666">
		<stop  offset="0" style="stop-color:#949FA1"/>
		<stop  offset="1" style="stop-color:#B7C6C9"/>
	</linearGradient>
	<path fill="url(#SVGID_4_)" d="M653.16,1504.981c-0.438-26.139-0.082-55.988,0-88.424
		c-59.557,14.338-146.766,22.414-228.928,17.564c2.326,31.938,4.428,59.791,6.662,85.395
		C489.435,1527.798,598.447,1520.528,653.16,1504.981z"/>
	<path fill="#868F98" d="M489.962,1207.003c-23.732-1.207-47.08-3.576-68.758-7.258c-3.559,32.266-6.115,65.178-5.451,98.717
		c22.045,2.482,44.438,4.146,66.973,4.949c0.801-25.721,2.424-51.576,5.098-77.623
		C488.58,1219.519,489.246,1213.261,489.962,1207.003z"/>
	<path fill="#868F98" d="M424.232,1434.122c2.326,31.938,4.428,59.791,6.662,85.395c17.365,2.455,39.18,3.535,62.691,3.443
		c-3.342-29.102-6.131-58.252-8.119-87.512C465.074,1435.722,444.501,1435.321,424.232,1434.122z"/>
	<path fill="#93AB20" d="M187.432,0C17.856,331.885,50.965,897.94,54.194,1056.21c-7.268,96.902-48.893,237.266-53.296,356.109
		c-2.81,75.885,1.05,200.438,10.5,267.285c7.267,21.803,17.764,30.688,17.764,30.688s6.959,50.357,7.268,56.521
		c75.098-24.225,134.866-28.26,193.801-12.914c0.002-14.266,0.807-62.988,0.807-62.988s9.285-22.213,14.535-35.531
		c2.884-50.002,3.232-143.732,8.077-222.871c5.692-92.959,24.224-222.869,35.527-306.043
		c41.183-109.014,134.048-471.58,198.647-697.683c12.113-6.457,41.99-13.726,58.138-26.646
		c25.844-75.899,25.436-285.856,25.436-334.306C374.074,72.285,271.42,35.531,187.432,0z"/>
	<path fill="#B7D130" d="M48.854,1747.8c-1.914-14.961-4.548-34.105-5.294-39.498l-0.762-5.51l-4.243-3.594v0.004
		c0.011,0-7.354-6.918-12.953-22.98c-9.417-67.924-12.872-190.617-10.176-263.363c2.423-65.451,16.237-137.061,29.596-206.318
		c10.494-54.398,20.406-105.775,23.667-149.24l0.051-0.689l-0.013-0.697c-0.271-13.199-0.748-29.23-1.297-47.717
		C61.28,801.312,46.978,320.48,194.375,18.625c73.984,30.152,186.857,70.203,385.501,62.129
		c-2.984,64.005-23.658,241.231-46.258,312.391c-8.914,5.873-22.133,10.741-33.008,14.745c-7.791,2.868-14.524,5.344-19.623,8.066
		l-5.447,2.905l-1.695,5.928c-21.904,76.679-47.539,170.772-72.32,261.769c-48.65,178.626-98.958,363.332-125.943,434.765
		l-0.584,1.549l-3.683,26.975c-11.393,83.246-26.998,197.26-32.175,281.771c-2.777,45.387-4.078,95.287-5.226,139.313
		c-0.841,32.252-1.57,60.262-2.72,81.283c-5.236,13.154-13.479,32.885-13.567,33.092l-1.076,2.574l-0.044,2.791
		c-0.025,1.434-0.429,26.01-0.656,45.043c-18.552-3.631-37.123-5.41-56.303-5.41C125.66,1730.304,89.303,1736.038,48.854,1747.8z"/>
	<linearGradient id="SVGID_5_" gradientUnits="userSpaceOnUse" x1="30.7759" y1="1244.4141" x2="264.3472" y2="1244.4141">
		<stop  offset="0" style="stop-color:#949FA1"/>
		<stop  offset="1" style="stop-color:#B7C6C9"/>
	</linearGradient>
	<path fill="url(#SVGID_5_)" d="M251.628,1310.575c3.798-32.748,8.55-71.635,12.719-102.957
		c-67.225,10.297-173.546-7.6-213.786-30.887c-1.917,10.117-15.854,80.316-19.785,102.352
		C73.575,1305.729,177.712,1316.333,251.628,1310.575z"/>
	<linearGradient id="SVGID_6_" gradientUnits="userSpaceOnUse" x1="13.3306" y1="1496.7393" x2="238.3049" y2="1496.7393">
		<stop  offset="0" style="stop-color:#949FA1"/>
		<stop  offset="1" style="stop-color:#B7C6C9"/>
	</linearGradient>
	<path fill="url(#SVGID_6_)" d="M234.494,1549.058c0.88-32.625,2.072-62.436,3.811-95.555
		c-76.152,8.918-172.069,2.01-223.676-15.346c-2.828,32.908-0.32,66.695,0.806,100.938
		C85.982,1555.437,162.135,1560.671,234.494,1549.058z"/>
	<path fill="#DBF74A" d="M264.339,44.251c-95.026,309.866-113.088,635.782-145.191,958.916
		c2.876,36.088,22.256,82.113,53.748,111.184c-16.402,0-44.473-19.273-58.138-31.492c-6.222,84.965-25.172,144.074-38.761,230.141
		c-30.488,148.074-26.946,290.117-6.056,428.779c21.334-3.814,70.195-11.475,89.604-11.475c19.18,0,37.751,1.779,56.303,5.41
		c0.228-19.033,0.631-43.609,0.656-45.043l0.044-2.791l1.076-2.574c0.088-0.207,8.332-19.938,13.567-33.092
		c1.15-21.021,1.879-49.031,2.72-81.283c1.148-44.025,2.449-93.926,5.226-139.313c5.177-84.512,20.782-198.525,32.175-281.771
		l3.683-26.975l0.584-1.549c26.985-71.434,77.293-256.139,125.943-434.765c24.781-90.996,50.416-185.09,72.32-261.769l1.695-5.928
		l5.447-2.905c5.099-2.723,11.832-5.198,19.623-8.066c10.875-4.004,24.094-8.872,33.008-14.745
		c22.6-71.159,43.273-248.385,46.258-312.391C435.255,86.632,336.127,66.997,264.339,44.251z"/>
	<linearGradient id="SVGID_7_" gradientUnits="userSpaceOnUse" x1="30.7759" y1="1244.4141" x2="264.3472" y2="1244.4141">
		<stop  offset="0" style="stop-color:#949FA1"/>
		<stop  offset="1" style="stop-color:#B7C6C9"/>
	</linearGradient>
	<path fill="url(#SVGID_7_)" d="M251.628,1310.575c3.798-32.748,8.55-71.635,12.719-102.957
		c-67.225,10.297-173.546-7.6-213.786-30.887c-1.917,10.117-15.854,80.316-19.785,102.352
		C73.575,1305.729,177.712,1316.333,251.628,1310.575z"/>
	<linearGradient id="SVGID_8_" gradientUnits="userSpaceOnUse" x1="13.3306" y1="1496.7393" x2="238.3049" y2="1496.7393">
		<stop  offset="0" style="stop-color:#949FA1"/>
		<stop  offset="1" style="stop-color:#B7C6C9"/>
	</linearGradient>
	<path fill="url(#SVGID_8_)" d="M234.494,1549.058c0.88-32.625,2.072-62.436,3.811-95.555
		c-76.152,8.918-172.069,2.01-223.676-15.346c-2.828,32.908-0.32,66.695,0.806,100.938
		C85.982,1555.437,162.135,1560.671,234.494,1549.058z"/>
	<path fill="#868F98" d="M50.561,1176.731c-1.917,10.117-15.854,80.316-19.785,102.352c11.85,7.377,28.415,13.523,47.729,18.434
		c5.831-35.342,12.218-69.396,18.047-103.281C77.691,1189.118,61.62,1183.134,50.561,1176.731z"/>
	<path fill="#868F98" d="M56.617,1448.657c-15.224-2.768-30.478-6.629-41.988-10.5c-2.828,32.908-0.32,66.695,0.806,100.938
		c12.761,2.957,25.713,5.521,38.787,7.717C52.983,1523.755,54.8,1471.065,56.617,1448.657z"/>
</g>
</svg>
