<?xml version="1.0" encoding="utf-8"?>
<!-- Generator: Adobe Illustrator 15.0.0, SVG Export Plug-In . SVG Version: 6.00 Build 0)  -->
<!DOCTYPE svg PUBLIC "-//W3C//DTD SVG 1.1//EN" "http://www.w3.org/Graphics/SVG/1.1/DTD/svg11.dtd">
<svg version="1.1" id="Clothes" xmlns="http://www.w3.org/2000/svg" xmlns:xlink="http://www.w3.org/1999/xlink" x="0px" y="0px"
	 width="795.781px" height="1766.813px" viewBox="0 0 795.781 1766.813" enable-background="new 0 0 795.781 1766.813"
	 xml:space="preserve">
<g>
	<g>
		<path fill="#00395E" d="M763.988,36.338c87.213,377.91-47.641,966.579-88.824,1102.239
			c-41.992,345.613-19.379,491.77-9.689,532.951c-46.027,9.691-182.496,32.303-206.721,41.988
			c-12.115-128.389-43.605-310.078-48.451-387.598c-7.105-113.725,23.525-233.324,29.07-281.01
			c8.076-147.773-53.295-957.698-50.873-984.346C610.56,92.056,720.382,50.874,763.988,36.338z"/>
		<path fill="#004878" d="M471.488,1694.647c-6.281-60.662-16.25-131.641-25.137-194.926
			c-9.846-70.098-19.143-136.311-21.541-174.711c-5.23-83.664,10.576-171.572,21.033-229.744c3.504-19.51,6.539-36.355,7.965-48.678
			l0.074-0.885c5.488-100.406-20.379-497.263-37.49-759.867c-6.027-92.484-11.4-174.832-12.977-208.592
			c48.66,6.257,95.199,9.425,138.563,9.425c0.006,0,0.02,0,0.029,0c106.932,0,174.195-19.252,210.857-31.285
			c82.994,396.008-61.446,979.605-91.61,1078.97l-0.365,1.211l-0.156,1.256c-38.619,317.867-22.418,469.223-12.453,523.334
			c-14.332,2.793-32.803,6.195-52.057,9.74C540.666,1680.132,496.675,1688.388,471.488,1694.647z"/>
		<path fill="#005C99" d="M524.216,169.327c-0.188,357.602-14.908,757.575,12.057,869.928c0,19.379,14.535,109.014,46.025,121.125
			c26.651,14.535,65.41-2.424,77.707-17.402c0.25-2.072,0.473-4.068,0.729-6.154l0.156-1.256l0.365-1.211
			C689.4,1041.647,816.996,527.42,766.55,137.3C689.701,163.117,606.126,168.672,524.216,169.327z"/>
		<g>
			<path fill="#00395E" d="M718.396,208.336l-8.508-1.617c21.396,80.349,56.121,134.447,72.268,155.444l-1.457-16.149
				C761.566,317.349,731.285,256.787,718.396,208.336z"/>
		</g>
	</g>
	<g>
		<path fill="#00395E" d="M184.194,4.845C25.919,350.456,54.989,896.327,58.219,1054.597
			c-7.267,96.902-50.495,231.611-54.897,350.455c-4.845,130.816,34.1,331.795,35.518,360.145
			c75.096-24.227,131.634-28.262,190.57-12.918c0.015-61.369,4.375-168.727,21.009-308.467
			c11.009-92.48,14.535-225.291,38.758-317.346c41.183-109.014,127.591-469.156,192.188-695.26
			c12.113-6.459,48.449-16.148,64.597-29.069c25.844-75.899,46.836-283.081,46.836-331.531
			C395.472,75.06,268.182,40.376,184.194,4.845z"/>
		<path fill="#004878" d="M51.272,1746.157c-1.247-8.951-2.99-20.453-5.107-34.402c-11.143-73.404-31.878-210.039-28.317-306.162
			c2.411-65.061,16.6-134.625,30.321-201.896c10.933-53.594,21.259-104.215,24.544-148.01l0.052-0.689l-0.014-0.695
			c-0.248-12.166-0.65-26.615-1.106-43.086C66.047,809.187,53.029,339.71,191.686,23.665C264.953,56.93,417.47,90.792,599.16,84.736
			c1.613,79.134-45.121,236.656-66.727,309.118c-9.637,5.874-24.9,11.508-36.504,15.79c-8.754,3.231-16.313,6.02-21.402,8.735
			l-5.445,2.905l-1.693,5.928c-25.402,88.924-54.277,198.915-82.195,305.288c-43.643,166.272-84.869,323.325-109.614,388.823
			l-0.265,0.713l-0.193,0.729c-17.036,64.734-24.063,149.656-30.266,224.582c-2.822,34.109-5.488,66.326-8.871,94.748
			c-16.652,139.91-20.32,241.891-20.982,291.982c-18.387-3.619-36.585-5.393-55.175-5.393
			C126.71,1728.685,91.861,1734.269,51.272,1746.157z"/>
		<path fill="#005C99" d="M240.728,129.202c-12.927,56.527-26.993,125.908-38.664,186.615
			c52.915-20.445,92.922-62.173,125.874-107.48c-25.413,61.715-72.588,109.822-131.33,136.187
			c-30.62,162.939-53.324,314.885-54.405,348.31c0.423,122.211-25.83,339.155,32.31,442.512
			c34.723,29.881,80.75,15.346,101.417-14.963c24.783-66.043,65.821-222.381,109.264-387.881
			c27.918-106.373,56.793-216.364,82.195-305.288l1.693-5.928l5.445-2.905c5.09-2.716,12.648-5.504,21.402-8.735
			c11.604-4.282,26.867-9.916,36.504-15.79c15.516-52.038,43.99-147.94,58.209-227.178
			C473.724,175.062,326.324,151.812,240.728,129.202z"/>
		<g>
			<path fill="#00395E" d="M328.038,55.24c-9.729,22.035-18.081,72.486-18.305,93.243c11.82,3.591,40.537,6.986,43.69,8.403
				c3.879-29.016,8.278-70.144,15.638-92.205C357.22,62.477,338.281,58.811,328.038,55.24z"/>
			<path fill="#005C99" d="M317,152.079c1.183-20.58,9.904-69.32,16.695-89.859c7.088,1.849,18.043,4.167,26.037,5.734
				c-5.008,19.29-14.397,87.619-14.621,89.36C343.785,157.075,323.078,153.424,317,152.079z"/>
		</g>
		<g>
			<path fill="#00395E" d="M736.687,54.566c4.928,24.721,7.396,74.809,5.037,96.389c-11.623,2.439-38.455,5.275-41.611,6.403
				c-0.08-30.558,0.832-73.753-3.41-97.469C708.185,58.893,726.556,57.154,736.687,54.566z"/>
			<path fill="#005C99" d="M735.16,156.345c1.429-21.502-0.805-73.076-4.689-95.146c-8.877,1.806-17.27,4.719-25.023,5.472
				c2.351,20.581,2.479,90.205,2.471,92.039C709.207,158.604,729.253,157.082,735.16,156.345z"/>
		</g>
		<g>
			<path fill="#4D4D4D" d="M546.431,122.017c-1.447,12.991,6.754,24.559,18.305,25.851c11.564,1.29,22.111-8.188,23.558-21.175
				c1.448-12.986-6.746-24.563-18.301-25.846C558.431,99.554,547.878,109.037,546.431,122.017z"/>
			<path fill="#B3B3B3" d="M566.732,143.844c-4.404-0.488-8.354-2.911-11.125-6.825c-2.873-4.058-4.133-9.197-3.549-14.471
				c1.148-10.284,9.074-18.022,18.029-17.623c0.324,0.019,0.66,0.044,0.99,0.08c4.404,0.49,8.354,2.915,11.129,6.825
				c2.875,4.057,4.135,9.198,3.549,14.476c-1.156,10.278-9.07,18.017-18.035,17.617C567.72,143.924,567.07,143.884,566.732,143.844z
				"/>
		</g>
		<g>
			<path fill="#00395E" d="M178.667,372.934l-7.198-0.219l0.69-22.815l2.898-0.499c13.265-2.296,110.546-43.016,151.454-154.483
				l6.767,2.485C293.114,306.82,201.951,349.535,179.186,355.821L178.667,372.934z"/>
		</g>
	</g>
</g>
</svg>
