<?xml version="1.0" encoding="utf-8"?>
<!-- Generator: Adobe Illustrator 15.0.0, SVG Export Plug-In . SVG Version: 6.00 Build 0)  -->
<!DOCTYPE svg PUBLIC "-//W3C//DTD SVG 1.1//EN" "http://www.w3.org/Graphics/SVG/1.1/DTD/svg11.dtd">
<svg version="1.1" xmlns="http://www.w3.org/2000/svg" xmlns:xlink="http://www.w3.org/1999/xlink" x="0px" y="0px"
	 width="840.175px" height="1663.056px" viewBox="0 0 840.175 1663.056" enable-background="new 0 0 840.175 1663.056"
	 xml:space="preserve">
<g id="Skin_x5F_01">
	<g id="Apron">
		<g>
			<path fill="#3C3B40" d="M122.085,54.749C152.142,46.161,293.129,8.589,318.892,0c7.363,26.511,67.263,147.068,208.972,147.068
				c95.541,0,128.818-77.291,132.04-120.23c39.003,33.279,116.292,80.153,137.047,91.246
				c38.646,62.978,70.492,182.137,7.516,442.636c-1.433,37.213-2.863,127.387,0.001,250.481c20.038,290.557,3.709,770.197,0,791.517
				c-134.542,80.154-416.516,71.568-642.663,25.765c-8.636-67.355-5.727-410.788,50.095-762.892
				c10.735-231.873-50.095-340.654-84.447-422.239C193.294,273.026,144.985,124.884,122.085,54.749z"/>
			<path fill="#806B56" d="M493.349,1650.175c-99.988,0-213.15-11.51-319.729-32.47c-7.74-88.602,0.101-421.417,52.435-751.529
				l0.114-0.707l0.031-0.714c9.654-208.532-38.876-317.83-74.311-397.636c-3.71-8.353-7.247-16.321-10.547-24.023
				c64.834-171.607,40.837-321.013,22.339-384.567l8.993-2.557c38.732-11,106.218-30.164,138.015-39.879
				c13.951,36.972,63.29,156.74,200.001,156.74c84.151,0,152.435-36.499,156.551-123.573c40.159,30.751,99.52,66.822,120.481,78.46
				c52.635,88.677,51.842,233.004,4.224,429.972l-0.303,1.25l-0.048,1.283c-1.684,43.708-2.692,135.741-0.004,251.277l0.028,0.587
				c18.786,272.404,5.407,722.979,0.737,782.751C727.663,1631.06,624.51,1650.175,493.349,1650.175z"/>
			<path fill="#8C785F" d="M791.59,811.502c-2.688-115.536-1.679-207.569,0.004-251.277l0.048-1.283l0.303-1.25
				c47.618-196.968,48.411-341.295-4.224-429.972c-20.961-11.638-80.322-47.709-120.481-78.46
				c-9.484,57.016-54.15,109.618-138.302,109.618c-136.71,0-204.299-105.813-218.25-142.785
				c-31.796,9.715-170.354,47.244-170.354,47.244c15.457,53.106,50.454,162.097,26.053,297.857
				c18.227,128.71,82.107,246.974,154.293,356.971c3.998,6.093-6.701,40.615-8.087,48.417c-2.876,16.2-5.92,32.372-9.097,48.515
				c-27.905,141.818-49.521,283.814-57.453,428.271c-6.392,116.476-8.215,234.486-5.652,351.144
				c0.056,2.555-0.929,34.791,2.805,35.369c85.135,13.179,171.696,20.294,250.152,20.294c131.161,0,234.314-19.115,299.006-55.335
				c4.67-59.772,18.049-510.347-0.737-782.751L791.59,811.502z"/>
			<path fill="#806B56" d="M261.997,487.723c164.602,44.369,395.044,38.646,513.843,21.469
				C711.43,569.309,465.959,610.101,261.997,487.723z"/>
			<path fill="#806B56" d="M513.909,534.957c48.307-1.432,213.983,18.249,224.718,21.47
				c-85.879,27.193-217.562,10.018-251.914,4.293C491.007,552.132,508.542,537.104,513.909,534.957z"/>
			<path fill="#806B56" d="M373.641,726.752c100.19,11.45,246.902,15.387,317.751,5.727
				C634.498,772.198,460.592,781.5,373.641,726.752z"/>
		</g>
		<g>
			<g>
				<path fill="#3C3B40" d="M203.134,713.334c2.281-3.892,6.844-5.636,6.844-5.636s0.804,14.089,1.46,17.149
					c30.878,32.5,94.455,63.668,184.387,79.197c70.135,12.167,86.594,183.925,0.714,189.651
					c-115.043,8.943-179.986-44.73-198.951-85.165C210.828,845.913,207.427,754.126,203.134,713.334z"/>
				<path fill="#806B56" d="M379.467,983.401c-85.606,0-144.233-35.233-166.231-71.509c7.252-43.438,10.892-114.978,8.311-162.789
					c36.167,30.905,95.463,54.404,172.087,67.634c33.335,6.477,49.944,59.975,46.747,106.04
					C438.229,953.796,424.272,982.779,379.467,983.401z"/>
				<path fill="#8C785F" d="M440.381,922.777c3.197-46.065-13.412-99.563-46.747-106.04c-33.127-5.72-62.943-13.394-89.116-22.726
					c-9.014,18.49-24.173,108.952-26.776,153.165c34.883,18.346,101.981,36.14,141.154,24.076
					C433.313,959.821,439.068,941.698,440.381,922.777z"/>
			</g>
			<path fill="#3C3B40" d="M807.329,726.752c-1.609-3.398-4.652-6.978-4.652-6.978s0.501,21.197-0.434,23.852
				c-10.301,26.603-27.353,44.478-84.371,60.417c-80.868,20.039-95.182,183.21-12.165,197.521
				c100.193-8.587,117.367-44.371,117.367-87.311C815.917,861.295,807.329,775.418,807.329,726.752z"/>
			<path fill="#8C785F" d="M706.339,988.58c-38.278-7.794-42.931-54.007-43.439-68.14c-1.576-43.604,19.714-94.387,58.071-103.892
				c39.239-10.965,61.386-21.474,75.54-36.968c3.121,47.471,9.155,101.87,13.679,135.525
				C810.047,947.726,801.308,980.058,706.339,988.58z"/>
		</g>
	</g>
</g>
<g id="_x30_2">
	<g>
		<g>
			<path fill="#944D09" d="M11.449,489.151c6.844-14.749,19.31-51.263,26.682-59.516c4.315-4.826,35.815-30.548,41.787-41.787
				c6.319-10.533,10.005-37.391,12.462-66.712c4.739-19.486,64.284-13.43,67.592,25.635c3.509,41.43-14.396,85.673-23.877,107.44
				C124.509,457.902,19.873,485.989,11.449,489.151z"/>
			<linearGradient id="SVGID_1_" gradientUnits="userSpaceOnUse" x1="50.4805" y1="387.6763" x2="113.683" y2="408.2172">
				<stop  offset="0" style="stop-color:#D4984C"/>
				<stop  offset="1" style="stop-color:#EAAD60"/>
			</linearGradient>
			<path fill="url(#SVGID_1_)" d="M31.107,470.717c4.537-12.228,10.16-28.145,14.928-34.763
				c2.419-3.363,16.924-14.718,24.225-22.119c7.904-8.021,14.361-13.053,16.442-15.989c8.839-12.454,15.511-45.107,16.21-72.494
				c7.372-8.429,41.611-3.69,46.35,19.485c4.314,21.084-7.726,65.66-16.853,87.432c0,0,19.46-0.03,20.539,4.743
				C150.314,437.745,59.873,463.261,31.107,470.717z"/>
			<linearGradient id="SVGID_2_" gradientUnits="userSpaceOnUse" x1="78.4297" y1="387.313" x2="212.8115" y2="425.6284">
				<stop  offset="6.030000e-006" style="stop-color:#EAAD60"/>
				<stop  offset="0.0699" style="stop-color:#F0B96F"/>
				<stop  offset="0.2001" style="stop-color:#F8CB86"/>
				<stop  offset="0.3229" style="stop-color:#FDD694"/>
				<stop  offset="0.43" style="stop-color:#FFDA99"/>
			</linearGradient>
			<path fill="url(#SVGID_2_)" d="M105.194,332.724c1.057,13.167-2.105,46.877-6.319,69.524
				c-14.22,15.273-26.007,28.725-32.654,59.512c36.188-9.997,84.923-24.245,86.727-24.749c-1.078-4.773-20.539-4.743-20.539-4.743
				c9.127-21.772,21.167-66.348,16.853-87.432c-3.217-15.729-20.015-22.945-32.784-23.334
				C111.518,321.137,105.194,326.404,105.194,332.724z"/>
		</g>
		<g>
			<path fill="#944D09" d="M1.439,473.878c18.958-5.266,43.715-13.166,43.715-13.166s8.953-12.643,23.7-25.286
				c15.248-13.071,27.811-19.8,35.287-22.292c37.567,1.753,58.283-1.057,99.017,5.967c19.297,48.748,30.959,112.641,21.067,187.5
				c-2.458,18.61-11.234,38.625-15.801,45.997c-20.363,14.747-65.834,20.019-87.431,18.962c-27.91-2.634-68.82-12.639-81.107-17.558
				C44.098,642.064,53.583,542.171,1.439,473.878z"/>
			<linearGradient id="SVGID_3_" gradientUnits="userSpaceOnUse" x1="11.9976" y1="681.7549" x2="83.1892" y2="592.5615">
				<stop  offset="0" style="stop-color:#D4984C"/>
				<stop  offset="1" style="stop-color:#EAAD60"/>
			</linearGradient>
			<path fill="url(#SVGID_3_)" d="M129.775,661.379c-41.904,0-81.458-15.449-100.421-21.067
				C9.339,620.293-12.78,540.238,8.988,485.113c21.066-18.262,83.954-59.964,94.101-60.392c38.193,1.3,70.591,1.396,107.441,7.724
				c8.957,54.685,4.571,185.391-10.533,214.186C192.978,651.198,160.672,658.569,129.775,661.379z"/>
			<linearGradient id="SVGID_4_" gradientUnits="userSpaceOnUse" x1="142.8643" y1="541.707" x2="-90.0317" y2="522.5824">
				<stop  offset="6.030000e-006" style="stop-color:#EAAD60"/>
				<stop  offset="0.394" style="stop-color:#F1BC74"/>
				<stop  offset="1" style="stop-color:#FFDA99"/>
			</linearGradient>
			<path fill="url(#SVGID_4_)" d="M178.242,653.672c10.642-2.47,18.661-5.033,21.755-7.042
				c15.104-28.794,19.49-159.5,10.533-214.186c-36.851-6.328-69.248-6.424-107.441-7.724c-10.147,0.428-73.035,42.13-94.101,60.392
				c-19.663,49.858,7.727,125.704,25.633,146.77c12.639,7.373,55.125,22.82,93.051,24.929
				C148.034,657.165,161.934,655.894,178.242,653.672z"/>
			<linearGradient id="SVGID_5_" gradientUnits="userSpaceOnUse" x1="231.6772" y1="517.5254" x2="80.8738" y2="546.2504">
				<stop  offset="6.030000e-006" style="stop-color:#EAAD60"/>
				<stop  offset="1" style="stop-color:#FFDA99"/>
			</linearGradient>
			<path fill="url(#SVGID_5_)" d="M210.53,432.445c-36.851-6.328-67.668-14.152-105.86-15.453c-0.189,0.009-0.419,0.05-0.633,0.084
				c-3.27,61.726,39.958,145.986,23.635,193.388c3.509,23.524,3.509,36.867,0.699,46.001c10.534,1.047,58.635-3.515,72.683-9.486
				c3.862-7.724,9.829-22.82,11.938-35.463C219.638,571.633,219.072,484.58,210.53,432.445z"/>
			<path fill="#944D09" d="M124.686,486.518c6.143,2.104,81.283-9.834,93.221-9.481c6.32,1.58,17.029,8.248,21.42,10.18
				c5.619,12.643,6.671,40.559,0.699,59.869c-2.104,3.162-4.737,5.794-4.737,5.794s3.686,3.162,3.686,6.844
				c0.876,17.91-3.509,46.176-11.586,50.387c-28.438,8.78-72.33,11.942-86.377,10.533
				C136.795,610.112,126.262,503.371,124.686,486.518z"/>
			<linearGradient id="SVGID_6_" gradientUnits="userSpaceOnUse" x1="302.5693" y1="550.9106" x2="75.5013" y2="555.363">
				<stop  offset="6.030000e-006" style="stop-color:#EAAD60"/>
				<stop  offset="0.4705" style="stop-color:#F5C47D"/>
				<stop  offset="0.9989" style="stop-color:#FFDA99"/>
			</linearGradient>
			<path fill="url(#SVGID_6_)" d="M129.071,619.244c-11.234-18.261-11.234-45.648-10.709-58.992
				c-7.372-17.905-14.568-44.944-9.654-66.711c8.429,0,16.501,2.981,16.501,2.981s48.193-8.429,69.873-8.601
				c6.5,2.545,26.862,5.708,31.601,7.023c7.376,11.851,6.323,32.301,2.109,49.86c-2.806,4.562-16.852,7.724-16.852,7.724
				s7.019,2.104,14.046,2.809c3.51,12.638,2.105,37.924-6.322,48.458C198.597,612.921,141.709,620.293,129.071,619.244z"/>
			<path fill="#944D09" d="M139.081,556.567c-2.462,0.524,0.524,2.108,3.333,2.805c28.792,3.162,70.225-0.696,86.378-4.562
				c1.229-2.629,3.158-6.668,4.038-9.477C217.206,551.3,168.749,556.739,139.081,556.567z"/>
			<path fill="#944D09" d="M129.775,495.299c-1.757-0.353-7.724-3.515-9.133-3.515c0.964,4.038-0.524,10.27,1.057,17.905
				C124.509,502.67,128.719,497.403,129.775,495.299z"/>
			<path fill="#944D09" d="M100.985,414.188c18.958-4.567,76.544-5.62,94.098-4.215c10.273,2.106,28.355,7.02,34.939,11.238
				c7.728,11.146,10.709,53.717,2.281,72.68c-10.446,4.302-32.478,9.128-39.325,9.128c-6.844,0-61.097-3.334-72.159-4.739
				C111.694,489.503,89.218,453.864,100.985,414.188z"/>
			<linearGradient id="SVGID_7_" gradientUnits="userSpaceOnUse" x1="301.2949" y1="461.2959" x2="81.4818" y2="456.8492">
				<stop  offset="6.030000e-006" style="stop-color:#EAAD60"/>
				<stop  offset="0.9726" style="stop-color:#FED997"/>
				<stop  offset="1" style="stop-color:#FFDA99"/>
			</linearGradient>
			<path fill="url(#SVGID_7_)" d="M196.315,493.89c0,0-71.982,2.104-86.906,1.056c-4.038-14.571-15.1-50.21-1.404-70.225
				c22.124-3.162,76.721-4.567,84.621-2.721c5.795,1.845,22.912,8.16,28.178,11.851c4.74,13.426,0.529,46.344-3.949,54.512
				C211.323,490.468,196.315,493.89,196.315,493.89z"/>
			<linearGradient id="SVGID_8_" gradientUnits="userSpaceOnUse" x1="266.9189" y1="463.9512" x2="185.5688" y2="456.8773">
				<stop  offset="6.030000e-006" style="stop-color:#EAAD60"/>
				<stop  offset="0.9726" style="stop-color:#FED997"/>
				<stop  offset="1" style="stop-color:#FFDA99"/>
			</linearGradient>
			<path fill="url(#SVGID_8_)" d="M221.064,431.392c-5.266-3.69-19.222-8.076-28.967-9.658c14.923,14.22,10.709,61.269,4.394,71.803
				c8.953-0.524,19.307-2.81,25.629-4.915C227.387,473.175,227.849,443.678,221.064,431.392z"/>
		</g>
	</g>
</g>
</svg>
