<?xml version="1.0" encoding="utf-8"?>
<!-- Generator: Adobe Illustrator 15.0.0, SVG Export Plug-In . SVG Version: 6.00 Build 0)  -->
<!DOCTYPE svg PUBLIC "-//W3C//DTD SVG 1.1//EN" "http://www.w3.org/Graphics/SVG/1.1/DTD/svg11.dtd">
<svg version="1.1" id="_x30_1_1_" xmlns="http://www.w3.org/2000/svg" xmlns:xlink="http://www.w3.org/1999/xlink" x="0px" y="0px"
	 width="1248.109px" height="1003.844px" viewBox="0 0 1248.109 1003.844" enable-background="new 0 0 1248.109 1003.844"
	 xml:space="preserve">
<g id="Fluo_x5F_Tshirt_x5F_Long_5_">
	<g>
		<path fill="#93AB20" d="M1062.756,127.386c44.547,9.483,102.338,76.934,105.199,147.068
			c1.432,67.271,13.598,288.054,15.029,328.129c31.488,97.33,55.105,148.143,65.125,382.879
			c-35.426,12.881-114.455,12.893-139.553,7.872c-36.867-90.401-89.744-215.871-95.896-347.811
			C1001.379,403.525,1061.83,154.248,1062.756,127.386z"/>
		<path fill="#B7D130" d="M1167.852,987.95c-20.114,0-37.25-1.189-47.951-2.602c-37.234-91.368-86.318-214.426-92.225-341.141
			c-8.83-189.387,27.193-386.423,42.572-470.56c2.156-11.785,3.822-20.95,5.037-28.062c36.574,20.757,79.646,72.379,81.945,128.676
			c0.924,43.432,6.424,152.88,10.441,232.796c2.191,43.57,4.082,81.197,4.586,95.268l0.064,1.797c0,0,4.281,13.19,6.1,18.76
			c27.951,85.669,47.98,145.927,57.521,356.851C1219.676,983.726,1195.789,987.95,1167.852,987.95z"/>
		<path fill="#DBF74A" d="M1235.943,979.735c-9.541-210.924-29.57-271.182-57.521-356.851c-1.818-5.57-6.1-18.76-6.1-18.76
			l-0.064-1.797c-0.504-14.071-2.395-51.698-4.586-95.268c-4.018-79.916-9.518-189.364-10.441-232.796
			c-2.299-56.297-45.371-107.919-81.945-128.676c-1.215,7.111-2.881,16.277-5.037,28.062
			c-8.705,47.638-8.172,116.812-18.227,214.954c7.408,70.256,5.01,200.386,28.625,281.971
			c8.588,101.624,35.781,206.109,74.66,317.211c4.031,0.101,8.201,0.166,12.545,0.166
			C1195.789,987.95,1219.676,983.726,1235.943,979.735z"/>
		<linearGradient id="SVGID_1_" gradientUnits="userSpaceOnUse" x1="1026.332" y1="524.6006" x2="1169.9727" y2="524.6006">
			<stop  offset="0" style="stop-color:#949FA1"/>
			<stop  offset="1" style="stop-color:#B7C6C9"/>
		</linearGradient>
		<path fill="url(#SVGID_1_)" d="M1165.873,471.211c-44.736,10.315-90.578,16.481-136.723,19.022
			c-1.674,28.797-2.705,58.193-2.818,87.758c48.416-5.166,96.566-13.335,143.641-24.985c-0.688-13.832-1.473-29.458-2.301-45.946
			C1167.098,495.624,1166.492,483.573,1165.873,471.211z"/>
		<linearGradient id="SVGID_2_" gradientUnits="userSpaceOnUse" x1="1045.6816" y1="788.4263" x2="1223.7129" y2="788.4263">
			<stop  offset="0" style="stop-color:#949FA1"/>
			<stop  offset="1" style="stop-color:#B7C6C9"/>
		</linearGradient>
		<path fill="url(#SVGID_2_)" d="M1045.682,767.472c6.701,28.589,14.773,56.472,23.531,83.259
			c53.225-4.315,104.197-16.935,154.5-32.35c-4.42-36.746-9.574-66.256-15.418-92.259
			C1154.82,744.419,1101.002,760.141,1045.682,767.472z"/>
		<path fill="#868F98" d="M1045.682,767.472c6.701,28.589,14.773,56.472,23.531,83.259c13.861-1.124,27.564-2.835,41.148-4.988
			c-7.225-28.621-13.295-57.371-18.334-86.377C1076.678,762.624,1061.246,765.408,1045.682,767.472z"/>
	</g>
	<g>
		<g id="T_shirt_long_HV_5_">
			<g>
				<path fill="#93AB20" d="M379.301,70.849C422.24,62.262,612.962,10.734,624.77,0c57.969,90.172,257.284,102.696,275.53,13.596
					c33.279,26.836,133.472,92.679,177.481,117.369c11.283,20.64,1.518,49.984,7.516,78.365
					c24.313,74.604,28.273,191.262-13.238,338.148c-6.131,192.288,10.496,360.955,13.238,398.265
					c-18.609,45.802-388.246,111.643-600.079-17.176c5.723-52.957,32.563-188.575,13.955-310.238
					C427.607,498.097,328.847,312.385,379.301,70.849z"/>
				<path fill="#B7D130" d="M811.841,990.603c-87.476,0-211.318-12.14-309.984-69.2c1.008-7.999,2.344-17.437,3.826-27.917
					c9.334-65.976,22.266-175.549,6.752-276.969l-0.381-2.482l-1.283-2.158C450.797,511.118,342.425,323.681,389.9,80.58
					c42.965-9.729,185.233-46.055,230.58-64.395c37.72,48.331,110.807,70.091,169.405,70.091
					c58.184,0,101.693-19.956,118.955-53.243c39.428,30.847,115.179,87.095,158.603,106.863
					c50.057,98.417,41.74,228.85-7.779,404.078l-0.43,1.519l-0.051,1.575c-5.389,168.988,13.967,392.331,14.305,396.528
					C1059.373,959.618,954.69,990.603,811.841,990.603z"/>
				<path fill="#DBF74A" d="M1059.184,547.068l0.051-1.575l0.43-1.519c49.52-175.229,63.922-302.799,7.779-404.078
					C1024.02,120.128,948.269,63.88,908.841,33.034c-17.262,33.287-60.771,53.243-118.955,53.243
					c-58.599,0-131.686-21.76-169.405-70.091c-38.786,15.687-148.435,44.519-206.244,58.625
					c-1.453,89.567,7.467,179.073,36.629,266.558c30.058,94.467,107.349,167.465,128.819,270.521
					c26.549,117.567-3.828,228.436-8.332,341.481c82.896,29.911,172.633,37.232,240.488,37.232
					c142.85,0,247.532-30.984,261.647-47.007C1073.15,939.398,1053.795,716.056,1059.184,547.068z"/>
				<g>
					<path fill="#93AB20" d="M784.923,127.048c-1.148,0-2.297-0.006-3.459-0.019c-97.919-1.101-195.215-77.092-198.539-106.27
						l6.4-0.729c3.057,26.831,99.238,99.514,192.211,100.558c93.42,1.016,142.953-43.819,148.148-76.016l6.355,1.027
						C930.923,77.332,885.362,127.048,784.923,127.048z"/>
				</g>
				<path fill="#B7D130" d="M463.749,416.513c77.291,89.458,324.193,133.112,412.219,122.378
					c-118.084,42.939-280.539,33.637-323.479,31.49C513.843,516.706,478.776,437.982,463.749,416.513z"/>
				<linearGradient id="SVGID_3_" gradientUnits="userSpaceOnUse" x1="270.875" y1="370.4502" x2="820.4994" y2="287.4333">
					<stop  offset="0" style="stop-color:#949FA1"/>
					<stop  offset="1" style="stop-color:#B7C6C9"/>
				</linearGradient>
				<path fill="url(#SVGID_3_)" d="M1064.582,449.995c5.357-117.388,6.588-260.012-25.443-325.827
					c-27.322-16.158-59.191-39.034-87.312-59.759c33.045,82.162,30.194,254.468,27.271,393.792
					c-91.243,5.562-211.062,4.771-329.077-6.531c-3.923-144.385-25.082-340.027-81.785-418.751
					c-26.914,8.055-58.477,16.457-88.387,24.333c59.76,117.446,65.041,273.297,67.664,381.669
					c-47.139-7.349-92.457-16.686-133.815-28.313c13.053,38.811,28.49,74.123,44.151,105.69
					c192.997,52.752,469.195,61.495,603.478,24.023c9.264-32.974,17.219-63.697,23.434-93.573
					C1078.521,447.883,1071.766,448.965,1064.582,449.995z"/>
				<linearGradient id="SVGID_4_" gradientUnits="userSpaceOnUse" x1="514.8564" y1="794.709" x2="1065.7051" y2="794.709">
					<stop  offset="0" style="stop-color:#949FA1"/>
					<stop  offset="1" style="stop-color:#B7C6C9"/>
				</linearGradient>
				<path fill="url(#SVGID_4_)" d="M518.854,719.596c0.002,30.822-1.621,60.796-3.998,88.433
					c161.739,74.383,404.318,82.296,550.849,20.032c-1.561-26.684-3.182-56.542-4.426-87.891
					C935.681,794.918,652.979,779.356,518.854,719.596z"/>
				<path fill="#868F98" d="M518.854,719.596c0.002,30.822-1.621,60.796-3.998,88.433c21.213,9.755,43.857,18.33,67.479,25.777
					c2.266-29.836,4.986-60.04,6.809-90.227C562.997,736.664,539.185,728.653,518.854,719.596z"/>
				<path fill="#868F98" d="M651.024,552.169c-42.394-11.609-81.078-26.714-116.631-46.444
					c-15.328-24.691-29.117-50.261-41.92-76.519c-27.4-5.412-53.825-11.582-78.776-18.598c13.053,38.811,28.49,74.123,44.151,105.69
					c30.799,8.418,63.768,15.696,97.955,21.847c-0.014-0.018-0.025-0.037-0.041-0.056
					C586.062,543.817,617.672,548.317,651.024,552.169z"/>
			</g>
		</g>
		<g>
			<path fill="#93AB20" d="M70.851,461.6c63.337,17.176,249.05,77.291,270.52,81.585c13.955-31.131,99.835-158.877,105.202-327.772
				c18.606-77.292,24.331-118.082,25.763-138.836C390.75,27.91,298.43,92.319,264.793,168.18
				C224.718,244.04,82.659,428.322,70.851,461.6z"/>
			<path fill="#DBF74A" d="M334.495,528.126c-19.948-5.589-63.938-19.251-106.734-32.544
				c-48.89-15.185-103.394-32.114-138.229-42.122c12.104-20.05,37.954-56.249,63.13-91.502
				c46.609-65.265,104.597-146.466,128.302-196.231c28.511-53.836,83.346-94.878,136.624-94.878c14.766,0,47.3-1.931,61.188,3.221
				c-2.299,22.116-8.656,48.254-24.689,114.863l-3.222,27.912c-21.471,108.422-83.174,250.307-109.469,298.516
				C338.734,520.243,336.433,524.463,334.495,528.126z"/>
			<linearGradient id="SVGID_5_" gradientUnits="userSpaceOnUse" x1="176.5898" y1="342.1299" x2="412.8789" y2="342.1299">
				<stop  offset="0" style="stop-color:#949FA1"/>
				<stop  offset="1" style="stop-color:#B7C6C9"/>
			</linearGradient>
			<path fill="url(#SVGID_5_)" d="M176.59,326.876c73.418,18.55,145.815,52.558,206.934,97.6
				c9.77-23.454,19.863-49.263,29.355-75.874c-53.974-44.655-121.271-76.734-189.593-88.819
				C208.432,281.853,192.211,304.846,176.59,326.876z"/>
		</g>
	</g>
</g>
<g>
	<path fill="#944D09" d="M400.336,647.702c-29.73,3.715-36.993-0.206-75.84,7.025c-90.593,16.849-182.283,36.234-242.28,3.51
		C19.014,616.098-0.729,551.353,11.643,525.51c15.798-33.005,65.834-110.25,144.836-103.228
		c39.33,4.916,74.263,37.393,74.263,37.393s130.094,37.392,157.479,43.187C390.33,532.357,404.551,605.564,400.336,647.702z"/>
	<linearGradient id="SVGID_6_" gradientUnits="userSpaceOnUse" x1="296.582" y1="686.2461" x2="224.2513" y2="590.0376">
		<stop  offset="0" style="stop-color:#D4984C"/>
		<stop  offset="1" style="stop-color:#EAAD60"/>
	</linearGradient>
	<path fill="url(#SVGID_6_)" d="M184.398,664.027c-40.764,0-68.201-2.474-94.808-16.854c-39.715-26.644-61.764-64.145-65.836-86.901
		c-1.908-10.647-2.059-25.021,1.582-30.021c0,0,48.453-107.269,132.728-97.435c54.772,22.467,69.515,35.811,69.515,35.811
		s115.875,35.819,123.604,37.22c-5.621,16.857-16.858,120.088-19.314,136.588C287.091,651.032,227.579,661.217,184.398,664.027z"/>
	<linearGradient id="SVGID_7_" gradientUnits="userSpaceOnUse" x1="163.6563" y1="763.9614" x2="190.694" y2="504.8478">
		<stop  offset="6.030000e-006" style="stop-color:#EAAD60"/>
		<stop  offset="0.2416" style="stop-color:#EDB267"/>
		<stop  offset="0.5893" style="stop-color:#F4C17A"/>
		<stop  offset="1" style="stop-color:#FFDA99"/>
	</linearGradient>
	<path fill="url(#SVGID_7_)" d="M340.296,620.316c4.437-36.339,7.246-103.567,10.887-114.469
		c-7.729-1.4-123.604-37.22-123.604-37.22s-33.177-29.496-69.515-35.811C73.79,422.983,27.44,527.619,27.44,527.619
		c-2.104,8.424-9.132,23.173,34.411,51.26C113.468,636.116,190.018,661.042,340.296,620.316z"/>
	<path fill="#944D09" d="M287.628,484.428c-23.177-5.616-83.571-22.821-130.62-30.544c42.133,0,66.362,7.547,71.981,7.723
		C233.2,465.118,276.39,479.513,287.628,484.428z"/>
</g>
<g>
	<g>
		<path fill="#944D09" d="M287.628,490.223c6.844-14.749,19.31-51.263,26.683-59.516c4.314-4.826,35.815-30.548,41.786-41.787
			c6.32-10.533,10.005-37.391,12.462-66.712c4.74-19.486,64.285-13.43,67.594,25.635c3.508,41.43-14.396,85.673-23.879,107.44
			C400.689,458.974,296.053,487.061,287.628,490.223z"/>
		<linearGradient id="SVGID_8_" gradientUnits="userSpaceOnUse" x1="326.6602" y1="388.748" x2="389.8622" y2="409.2887">
			<stop  offset="0" style="stop-color:#D4984C"/>
			<stop  offset="1" style="stop-color:#EAAD60"/>
		</linearGradient>
		<path fill="url(#SVGID_8_)" d="M307.287,471.789c4.536-12.228,10.16-28.145,14.928-34.763
			c2.419-3.363,16.924-14.718,24.226-22.119c7.904-8.021,14.361-13.053,16.441-15.989c8.839-12.454,15.511-45.107,16.21-72.494
			c7.373-8.429,41.611-3.69,46.35,19.485c4.314,21.084-7.725,65.66-16.852,87.432c0,0,19.459-0.03,20.537,4.743
			C426.494,438.817,336.053,464.333,307.287,471.789z"/>
		<linearGradient id="SVGID_9_" gradientUnits="userSpaceOnUse" x1="354.6094" y1="388.3848" x2="488.9895" y2="426.6997">
			<stop  offset="6.030000e-006" style="stop-color:#EAAD60"/>
			<stop  offset="0.0699" style="stop-color:#F0B96F"/>
			<stop  offset="0.2001" style="stop-color:#F8CB86"/>
			<stop  offset="0.3229" style="stop-color:#FDD694"/>
			<stop  offset="0.43" style="stop-color:#FFDA99"/>
		</linearGradient>
		<path fill="url(#SVGID_9_)" d="M381.373,333.795c1.057,13.167-2.105,46.877-6.318,69.524
			c-14.22,15.273-26.007,28.725-32.653,59.512c36.188-9.997,84.923-24.245,86.726-24.749c-1.078-4.773-20.537-4.743-20.537-4.743
			c9.127-21.772,21.166-66.348,16.852-87.432c-3.217-15.729-20.014-22.945-32.783-23.334
			C387.697,322.208,381.373,327.476,381.373,333.795z"/>
	</g>
	<g>
		<path fill="#944D09" d="M277.619,474.95c18.957-5.266,43.715-13.166,43.715-13.166s8.953-12.643,23.7-25.286
			c15.248-13.071,27.812-19.8,35.288-22.292c37.566,1.753,58.281-1.057,99.017,5.967c19.297,48.748,30.959,112.641,21.066,187.5
			c-2.457,18.61-11.234,38.625-15.801,45.997c-20.361,14.747-65.835,20.019-87.431,18.962c-27.91-2.634-68.82-12.639-81.106-17.558
			C320.277,643.136,329.762,543.243,277.619,474.95z"/>
		<linearGradient id="SVGID_10_" gradientUnits="userSpaceOnUse" x1="288.1758" y1="682.8262" x2="359.3675" y2="593.6328">
			<stop  offset="0" style="stop-color:#D4984C"/>
			<stop  offset="1" style="stop-color:#EAAD60"/>
		</linearGradient>
		<path fill="url(#SVGID_10_)" d="M405.955,662.451c-41.903,0-81.459-15.449-100.421-21.067
			c-20.016-20.019-42.135-100.074-20.367-155.199c21.066-18.262,83.954-59.964,94.101-60.392c38.193,1.3,70.592,1.396,107.442,7.724
			c8.957,54.685,4.57,185.391-10.533,214.186C469.157,652.27,436.852,659.641,405.955,662.451z"/>
		<linearGradient id="SVGID_11_" gradientUnits="userSpaceOnUse" x1="419.043" y1="542.7783" x2="186.147" y2="523.6537">
			<stop  offset="6.030000e-006" style="stop-color:#EAAD60"/>
			<stop  offset="0.394" style="stop-color:#F1BC74"/>
			<stop  offset="1" style="stop-color:#FFDA99"/>
		</linearGradient>
		<path fill="url(#SVGID_11_)" d="M454.423,654.744c10.643-2.47,18.66-5.033,21.754-7.042c15.104-28.794,19.49-159.5,10.533-214.186
			c-36.851-6.328-69.249-6.424-107.442-7.724c-10.146,0.428-73.034,42.13-94.101,60.392c-19.662,49.858,7.728,125.704,25.633,146.77
			c12.639,7.373,55.126,22.82,93.052,24.929C424.213,658.237,438.113,656.966,454.423,654.744z"/>
		<linearGradient id="SVGID_12_" gradientUnits="userSpaceOnUse" x1="507.8574" y1="518.5967" x2="357.0546" y2="547.3216">
			<stop  offset="6.030000e-006" style="stop-color:#EAAD60"/>
			<stop  offset="1" style="stop-color:#FFDA99"/>
		</linearGradient>
		<path fill="url(#SVGID_12_)" d="M486.71,433.517c-36.851-6.328-67.669-14.152-105.86-15.453c-0.189,0.009-0.42,0.05-0.633,0.084
			c-3.271,61.726,39.957,145.986,23.635,193.388c3.508,23.524,3.508,36.867,0.699,46.001c10.533,1.047,58.636-3.515,72.683-9.486
			c3.861-7.724,9.828-22.82,11.938-35.463C495.817,572.705,495.251,485.652,486.71,433.517z"/>
		<path fill="#944D09" d="M400.865,487.59c6.143,2.104,81.282-9.834,93.22-9.481c6.32,1.58,17.029,8.248,21.422,10.18
			c5.619,12.643,6.67,40.559,0.697,59.869c-2.104,3.162-4.736,5.794-4.736,5.794s3.686,3.162,3.686,6.844
			c0.877,17.91-3.51,46.176-11.586,50.387c-28.439,8.78-72.331,11.942-86.378,10.533
			C412.975,611.184,402.441,504.443,400.865,487.59z"/>
		<linearGradient id="SVGID_13_" gradientUnits="userSpaceOnUse" x1="578.749" y1="551.9819" x2="351.6792" y2="556.4343">
			<stop  offset="6.030000e-006" style="stop-color:#EAAD60"/>
			<stop  offset="0.4705" style="stop-color:#F5C47D"/>
			<stop  offset="0.9989" style="stop-color:#FFDA99"/>
		</linearGradient>
		<path fill="url(#SVGID_13_)" d="M405.25,620.316c-11.232-18.261-11.232-45.648-10.709-58.992
			c-7.371-17.905-14.568-44.944-9.654-66.711c8.43,0,16.502,2.981,16.502,2.981s48.193-8.429,69.874-8.601
			c6.498,2.545,26.861,5.708,31.6,7.023c7.377,11.851,6.324,32.301,2.109,49.86c-2.805,4.562-16.852,7.724-16.852,7.724
			s7.02,2.104,14.047,2.809c3.51,12.638,2.104,37.924-6.322,48.458C474.776,613.993,417.889,621.365,405.25,620.316z"/>
		<path fill="#944D09" d="M415.26,557.639c-2.461,0.524,0.525,2.108,3.334,2.805c28.791,3.162,70.226-0.696,86.378-4.562
			c1.229-2.629,3.158-6.668,4.039-9.477C493.386,552.372,444.928,557.811,415.26,557.639z"/>
		<path fill="#944D09" d="M405.955,496.371c-1.758-0.353-7.725-3.515-9.133-3.515c0.965,4.038-0.523,10.27,1.057,17.905
			C400.689,503.742,404.898,498.475,405.955,496.371z"/>
		<path fill="#944D09" d="M377.164,415.259c18.959-4.567,76.546-5.62,94.099-4.215c10.273,2.106,28.355,7.02,34.938,11.238
			c7.729,11.146,10.709,53.717,2.281,72.68c-10.445,4.302-32.477,9.128-39.324,9.128c-6.842,0-61.097-3.334-72.159-4.739
			C387.873,490.575,365.396,454.936,377.164,415.259z"/>
		<linearGradient id="SVGID_14_" gradientUnits="userSpaceOnUse" x1="577.4756" y1="462.3677" x2="357.6625" y2="457.921">
			<stop  offset="6.030000e-006" style="stop-color:#EAAD60"/>
			<stop  offset="0.9726" style="stop-color:#FED997"/>
			<stop  offset="1" style="stop-color:#FFDA99"/>
		</linearGradient>
		<path fill="url(#SVGID_14_)" d="M472.495,494.962c0,0-71.983,2.104-86.907,1.056c-4.037-14.571-15.1-50.21-1.404-70.225
			c22.125-3.162,76.722-4.567,84.62-2.721c5.795,1.845,22.912,8.16,28.18,11.851c4.738,13.426,0.529,46.344-3.949,54.512
			C487.503,491.54,472.495,494.962,472.495,494.962z"/>
		<linearGradient id="SVGID_15_" gradientUnits="userSpaceOnUse" x1="543.1006" y1="465.0229" x2="461.7473" y2="457.9488">
			<stop  offset="6.030000e-006" style="stop-color:#EAAD60"/>
			<stop  offset="0.9726" style="stop-color:#FED997"/>
			<stop  offset="1" style="stop-color:#FFDA99"/>
		</linearGradient>
		<path fill="url(#SVGID_15_)" d="M497.243,432.464c-5.266-3.69-19.223-8.076-28.967-9.658c14.924,14.22,10.709,61.269,4.395,71.803
			c8.953-0.524,19.307-2.81,25.629-4.915C503.567,474.247,504.028,444.75,497.243,432.464z"/>
	</g>
</g>
<g>
	<path fill="#93AB20" d="M117.369,418.66C68.292,428.201,2.863,500.245,0,543.185c7.16,47.233,27.196,93.035,84.45,124.525
		c65.839,27.195,217.56-5.725,230.44-8.588c-24.331-20.041-54.389-103.056-21.469-191.796
		c-21.471-4.295-50.161-10.118-68.704-20.039C191.838,429.701,168.896,408.642,117.369,418.66z"/>
	<path fill="#DBF74A" d="M157.543,665.52c-29.223,0-51.937-3.18-67.528-9.454c-44.797-24.842-68.613-59.863-77.048-113.333
		c3.713-35.75,62.931-102.887,106.863-111.429c8.145-1.583,15.566-2.354,22.68-2.354c24.545,0,41.137,9.632,60.348,20.786
		c5.041,2.925,10.249,5.949,15.784,8.911c16.275,8.706,38.511,14.272,57.921,18.384c-21.942,72.288-5.934,139.303,15.096,173.697
		c-29.504,5.652-84.836,14.791-134.109,14.791C157.543,665.52,157.549,665.52,157.543,665.52z"/>
	<linearGradient id="SVGID_16_" gradientUnits="userSpaceOnUse" x1="152.3008" y1="778.6992" x2="137.2339" y2="402.0254">
		<stop  offset="0" style="stop-color:#949FA1"/>
		<stop  offset="1" style="stop-color:#B7C6C9"/>
	</linearGradient>
	<path fill="url(#SVGID_16_)" d="M90.173,500.245c-22.805,51.314-17.316,118.919,16.641,161.56
		c14.028,3.233,63.872,5.905,77.851,2.887c-24.025-48.145-24.545-112.351-8.611-160.153c7.139-18.563,17.621-36.637,30.775-52.513
		c-6.084-5.456-30.775-22.631-55.42-22.633C124.576,446.35,102.591,470.753,90.173,500.245z"/>
</g>
</svg>
