<?xml version="1.0" encoding="utf-8"?>
<!-- Generator: Adobe Illustrator 15.0.0, SVG Export Plug-In . SVG Version: 6.00 Build 0)  -->
<!DOCTYPE svg PUBLIC "-//W3C//DTD SVG 1.1//EN" "http://www.w3.org/Graphics/SVG/1.1/DTD/svg11.dtd">
<svg version="1.1" id="_x30_1_1_" xmlns="http://www.w3.org/2000/svg" xmlns:xlink="http://www.w3.org/1999/xlink" x="0px" y="0px"
	 width="836.08px" height="1074.404px" viewBox="0 0 836.08 1074.404" enable-background="new 0 0 836.08 1074.404"
	 xml:space="preserve">
<g id="Fluo_x5F_no_x5F_sleeves_2_">
	<g>
		<path fill="#93AB20" d="M143.555,52.601C182.919,44.728,319.607,2.862,328.195,0C355.39,47.232,558.28,305.587,592.632,335.645
			c10.02,107.349,15.744,652.679,15.744,675.581c-2.863,27.195-27.91,57.969-75.145,62.262
			c-94.467,8.589-307.018-44.371-375.721-107.349c17.176-143.847,2.146-422.954-32.205-517.422
			C165.381,418.66,229.435,157.087,143.555,52.601z"/>
		<path fill="#B7D130" d="M511.108,1061.521c-99.008,0-275.093-46.894-340.032-100.649c15.032-137.912,2.723-404.233-30.967-508.667
			c22.783-26.69,45.456-98.096,54.705-175.035c6.568-54.649,10.598-151.406-29.632-216.387
			c45.123-11.405,128.351-36.535,157.344-45.502c41.396,63.552,216.572,285.616,257.701,326.366
			c9.65,116.551,15.174,636.195,15.266,668.863c-2.637,21.738-23.477,46.517-63.428,50.148
			C525.757,1061.232,518.708,1061.521,511.108,1061.521z"/>
		<path fill="#DBF74A" d="M580.228,341.647c-41.129-40.75-216.305-262.813-257.701-326.366
			c-28.993,8.968-112.222,34.098-157.344,45.502c40.23,64.981,36.201,161.738,29.632,216.387c-2.06,17.128-4.786,33.977-8.03,50.124
			c53.704,222.614,66.246,451.906,71.197,680.421c79.866,31.488,184.832,53.807,253.127,53.807c7.6,0,14.648-0.289,20.957-0.863
			c39.951-3.632,60.791-28.41,63.428-50.148C595.401,977.842,589.878,458.198,580.228,341.647z"/>
		<linearGradient id="SVGID_1_" gradientUnits="userSpaceOnUse" x1="-38.0967" y1="559.9546" x2="405.6137" y2="322.3542">
			<stop  offset="0" style="stop-color:#949FA1"/>
			<stop  offset="1" style="stop-color:#B7C6C9"/>
		</linearGradient>
		<path fill="url(#SVGID_1_)" d="M586.853,497.203c-63.277,2.25-126.403,1.708-189.162-2.64
			c-4.793-165.571-24.313-364.937-85.062-477.387c-19.781,6.049-52.2,16.27-83.194,25.227
			c57.824,115.02,64.932,332.399,65.445,441.331c-51.821-7.411-103.312-17.844-154.321-32.083c-0.148,0.181-0.301,0.378-0.449,0.555
			c8.607,26.679,15.816,63.924,21.531,106.894c140.572,36.903,284.242,47.267,427.684,39.173
			C588.567,563.116,587.741,528.927,586.853,497.203z"/>
		<path fill="#868F98" d="M140.559,451.65c-0.148,0.181-0.301,0.378-0.449,0.555c8.607,26.679,15.816,63.924,21.531,106.894
			c23.995,6.298,44.708,10.961,68.867,15.753c-5.367-33.278-9.662-69.24-14.138-104.843
			C190.998,464.728,165.717,458.673,140.559,451.65z"/>
		<linearGradient id="SVGID_2_" gradientUnits="userSpaceOnUse" x1="175.7607" y1="838.7466" x2="594.3545" y2="838.7466">
			<stop  offset="0" style="stop-color:#949FA1"/>
			<stop  offset="1" style="stop-color:#B7C6C9"/>
		</linearGradient>
		<path fill="url(#SVGID_2_)" d="M594.354,902.662c-0.328-26.08-2.691-63.818-3.154-95.4
			c-139.793,11.479-279.415,6.565-415.439-38.645c0.762,33.091,1.1,65.827,0.357,96.255
			C311.219,908.001,453.247,916.75,594.354,902.662z"/>
		<path fill="#868F98" d="M175.761,768.617c0.762,33.091,1.1,65.827,0.357,96.255c25.9,8.268,52.059,15.249,78.413,21.071
			c-1.027-32.148-3.301-64.658-5.237-96.931C224.238,783.3,200.598,776.871,175.761,768.617z"/>
	</g>
	<g>
		<path fill="#93AB20" d="M662.05,33.277c-12.883,83.732-82.299,252.984-99.475,308.091c-2.148,62.262,6.439,638.367,8.588,655.543
			c10.734,25.765,41.508,70.136,86.592,67.989c49.381-6.441,145.996-49.381,167.466-64.41
			c-8.59-109.496-23.619-416.513-8.59-478.775c30.059-103.055,30.059-317.753-34.35-407.926
			C736.124,81.584,683.52,50.454,662.05,33.277z"/>
		<path fill="#DBF74A" d="M654.606,1052.093c-35.73-0.001-61.391-37.129-70.77-58.316c-2.023-36.479-10.557-576.111-8.441-650.231
			c5.053-15.918,14.313-41.169,24.977-70.247c24.578-67.025,57.283-156.211,70.571-217.616c11.213,7.697,25.067,16.641,40.22,26.422
			c19.429,12.542,41.374,26.707,61.888,40.956c59.801,86.584,60.316,295.272,31.215,395.049l-0.154,0.583
			c-15.346,63.565-1.115,358.106,7.67,475.045c-28.541,16.615-111.68,52.441-155.154,58.315
			C655.952,1052.081,655.278,1052.093,654.606,1052.093z"/>
		<linearGradient id="SVGID_3_" gradientUnits="userSpaceOnUse" x1="1277.1665" y1="317.0083" x2="738.9971" y2="331.3197">
			<stop  offset="0" style="stop-color:#949FA1"/>
			<stop  offset="1" style="stop-color:#B7C6C9"/>
		</linearGradient>
		<path fill="url(#SVGID_3_)" d="M781.493,482.906c14.854-118.655,10.086-249.574-14.777-365.896
			c-18.313-12.509-67.416-44.139-72.997-47.771c28.897,153.8,15.708,337.856,8.276,421.08c-42.099,3.407-84.189,5.94-126.214,7.221
			c0.313,31.585,0.703,65.936,1.152,101.374c74.027-3.625,148.023-12.205,221.517-24.664c1.041-24.572,2.855-43.935,5.662-55.558
			l0.154-0.583c3.363-11.53,6.309-24.565,8.834-38.646C802.567,480.653,792.03,481.798,781.493,482.906z"/>
		<linearGradient id="SVGID_4_" gradientUnits="userSpaceOnUse" x1="1098.6416" y1="809.0361" x2="769.4434" y2="834.7994">
			<stop  offset="0" style="stop-color:#949FA1"/>
			<stop  offset="1" style="stop-color:#B7C6C9"/>
		</linearGradient>
		<path fill="url(#SVGID_4_)" d="M801.602,777.921c-62.461,13.059-148.726,25.516-222.566,30.773
			c0.535,32.11,2.154,69.567,2.645,95.161c74.441-6.707,148.882-19.847,222.382-37.737
			C802.706,838.847,802.663,806.754,801.602,777.921z"/>
	</g>
</g>
<g>
	<g>
		<path fill="#944D09" d="M11.449,490.223c6.844-14.749,19.31-51.263,26.683-59.516c4.314-4.826,35.815-30.548,41.786-41.787
			c6.32-10.533,10.005-37.391,12.462-66.712c4.74-19.486,64.285-13.43,67.594,25.635c3.508,41.43-14.396,85.673-23.879,107.44
			C124.51,458.974,19.874,487.061,11.449,490.223z"/>
		<linearGradient id="SVGID_5_" gradientUnits="userSpaceOnUse" x1="50.4819" y1="388.7485" x2="113.6839" y2="409.2892">
			<stop  offset="0" style="stop-color:#D4984C"/>
			<stop  offset="1" style="stop-color:#EAAD60"/>
		</linearGradient>
		<path fill="url(#SVGID_5_)" d="M31.108,471.789c4.536-12.228,10.16-28.145,14.928-34.763c2.419-3.363,16.924-14.718,24.226-22.119
			c7.904-8.021,14.361-13.053,16.441-15.989c8.839-12.454,15.511-45.107,16.21-72.494c7.373-8.429,41.611-3.69,46.35,19.485
			c4.314,21.084-7.725,65.66-16.852,87.432c0,0,19.459-0.03,20.537,4.743C150.315,438.817,59.874,464.333,31.108,471.789z"/>
		<linearGradient id="SVGID_6_" gradientUnits="userSpaceOnUse" x1="78.4302" y1="388.3848" x2="212.8094" y2="426.6995">
			<stop  offset="6.030000e-006" style="stop-color:#EAAD60"/>
			<stop  offset="0.0699" style="stop-color:#F0B96F"/>
			<stop  offset="0.2001" style="stop-color:#F8CB86"/>
			<stop  offset="0.3229" style="stop-color:#FDD694"/>
			<stop  offset="0.43" style="stop-color:#FFDA99"/>
		</linearGradient>
		<path fill="url(#SVGID_6_)" d="M105.194,333.795c1.057,13.167-2.105,46.877-6.318,69.524
			c-14.22,15.273-26.007,28.725-32.653,59.512c36.188-9.997,84.923-24.245,86.726-24.749c-1.078-4.773-20.537-4.743-20.537-4.743
			c9.127-21.772,21.166-66.348,16.852-87.432c-3.217-15.729-20.014-22.945-32.783-23.334
			C111.518,322.208,105.194,327.476,105.194,333.795z"/>
	</g>
	<g>
		<path fill="#944D09" d="M1.44,474.95c18.957-5.266,43.715-13.166,43.715-13.166s8.953-12.643,23.7-25.286
			c15.248-13.071,27.812-19.8,35.288-22.292c37.566,1.753,58.281-1.057,99.016,5.967c19.297,48.748,30.959,112.641,21.067,187.5
			c-2.458,18.61-11.234,38.625-15.801,45.997c-20.362,14.747-65.835,20.019-87.431,18.962c-27.91-2.634-68.82-12.639-81.106-17.558
			C44.098,643.136,53.583,543.243,1.44,474.95z"/>
		<linearGradient id="SVGID_7_" gradientUnits="userSpaceOnUse" x1="11.9976" y1="682.8262" x2="83.1892" y2="593.6329">
			<stop  offset="0" style="stop-color:#D4984C"/>
			<stop  offset="1" style="stop-color:#EAAD60"/>
		</linearGradient>
		<path fill="url(#SVGID_7_)" d="M129.776,662.451c-41.903,0-81.459-15.449-100.421-21.067
			C9.339,621.365-12.78,541.31,8.988,486.185c21.066-18.262,83.954-59.964,94.101-60.392c38.193,1.3,70.592,1.396,107.442,7.724
			c8.957,54.685,4.571,185.391-10.533,214.186C192.979,652.27,160.672,659.641,129.776,662.451z"/>
		<linearGradient id="SVGID_8_" gradientUnits="userSpaceOnUse" x1="142.8643" y1="542.7783" x2="-90.0317" y2="523.6537">
			<stop  offset="6.030000e-006" style="stop-color:#EAAD60"/>
			<stop  offset="0.394" style="stop-color:#F1BC74"/>
			<stop  offset="1" style="stop-color:#FFDA99"/>
		</linearGradient>
		<path fill="url(#SVGID_8_)" d="M178.243,654.744c10.643-2.47,18.66-5.033,21.754-7.042c15.104-28.794,19.49-159.5,10.533-214.186
			c-36.85-6.328-69.249-6.424-107.442-7.724c-10.146,0.428-73.034,42.13-94.101,60.392c-19.662,49.858,7.728,125.704,25.633,146.77
			c12.639,7.373,55.126,22.82,93.052,24.929C148.034,658.237,161.934,656.966,178.243,654.744z"/>
		<linearGradient id="SVGID_9_" gradientUnits="userSpaceOnUse" x1="231.6772" y1="518.5967" x2="80.875" y2="547.3215">
			<stop  offset="6.030000e-006" style="stop-color:#EAAD60"/>
			<stop  offset="1" style="stop-color:#FFDA99"/>
		</linearGradient>
		<path fill="url(#SVGID_9_)" d="M210.53,433.517c-36.85-6.328-67.668-14.152-105.86-15.453c-0.189,0.009-0.42,0.05-0.633,0.084
			c-3.271,61.726,39.957,145.986,23.635,193.388c3.508,23.524,3.508,36.867,0.699,46.001c10.533,1.047,58.635-3.515,72.682-9.486
			c3.862-7.724,9.829-22.82,11.938-35.463C219.639,572.705,219.072,485.652,210.53,433.517z"/>
		<path fill="#944D09" d="M124.686,487.59c6.143,2.104,81.283-9.834,93.22-9.481c6.32,1.58,17.029,8.248,21.421,10.18
			c5.619,12.643,6.671,40.559,0.698,59.869c-2.104,3.162-4.737,5.794-4.737,5.794s3.686,3.162,3.686,6.844
			c0.877,17.91-3.509,46.176-11.586,50.387c-28.438,8.78-72.331,11.942-86.377,10.533
			C136.795,611.184,126.262,504.443,124.686,487.59z"/>
		<linearGradient id="SVGID_10_" gradientUnits="userSpaceOnUse" x1="302.5698" y1="551.9824" x2="75.5009" y2="556.4348">
			<stop  offset="6.030000e-006" style="stop-color:#EAAD60"/>
			<stop  offset="0.4705" style="stop-color:#F5C47D"/>
			<stop  offset="0.9989" style="stop-color:#FFDA99"/>
		</linearGradient>
		<path fill="url(#SVGID_10_)" d="M129.071,620.316c-11.232-18.261-11.232-45.648-10.709-58.992
			c-7.371-17.905-14.568-44.944-9.654-66.711c8.43,0,16.502,2.981,16.502,2.981s48.193-8.429,69.874-8.601
			c6.499,2.545,26.862,5.708,31.601,7.023c7.376,11.851,6.323,32.301,2.109,49.86c-2.806,4.562-16.853,7.724-16.853,7.724
			s7.02,2.104,14.047,2.809c3.51,12.638,2.104,37.924-6.322,48.458C198.597,613.993,141.709,621.365,129.071,620.316z"/>
		<path fill="#944D09" d="M139.081,557.639c-2.461,0.524,0.525,2.108,3.334,2.805c28.791,3.162,70.225-0.696,86.378-4.562
			c1.229-2.629,3.157-6.668,4.038-9.477C217.206,552.372,168.749,557.811,139.081,557.639z"/>
		<path fill="#944D09" d="M129.776,496.371c-1.758-0.353-7.725-3.515-9.133-3.515c0.965,4.038-0.523,10.27,1.057,17.905
			C124.51,503.742,128.719,498.475,129.776,496.371z"/>
		<path fill="#944D09" d="M100.985,415.259c18.959-4.567,76.545-5.62,94.098-4.215c10.273,2.106,28.355,7.02,34.938,11.238
			c7.728,11.146,10.709,53.717,2.281,72.68c-10.445,4.302-32.478,9.128-39.324,9.128c-6.843,0-61.097-3.334-72.16-4.739
			C111.694,490.575,89.217,454.936,100.985,415.259z"/>
		<linearGradient id="SVGID_11_" gradientUnits="userSpaceOnUse" x1="301.2954" y1="462.3682" x2="81.4832" y2="457.9215">
			<stop  offset="6.030000e-006" style="stop-color:#EAAD60"/>
			<stop  offset="0.9726" style="stop-color:#FED997"/>
			<stop  offset="1" style="stop-color:#FFDA99"/>
		</linearGradient>
		<path fill="url(#SVGID_11_)" d="M196.315,494.962c0,0-71.983,2.104-86.907,1.056c-4.037-14.571-15.1-50.21-1.404-70.225
			c22.125-3.162,76.721-4.567,84.621-2.721c5.795,1.845,22.912,8.16,28.179,11.851c4.739,13.426,0.529,46.344-3.949,54.512
			C211.323,491.54,196.315,494.962,196.315,494.962z"/>
		<linearGradient id="SVGID_12_" gradientUnits="userSpaceOnUse" x1="266.9199" y1="465.0229" x2="185.5687" y2="457.949">
			<stop  offset="6.030000e-006" style="stop-color:#EAAD60"/>
			<stop  offset="0.9726" style="stop-color:#FED997"/>
			<stop  offset="1" style="stop-color:#FFDA99"/>
		</linearGradient>
		<path fill="url(#SVGID_12_)" d="M221.064,432.464c-5.267-3.69-19.223-8.076-28.967-9.658c14.923,14.22,10.709,61.269,4.394,71.803
			c8.953-0.524,19.307-2.81,25.63-4.915C227.388,474.247,227.85,444.75,221.064,432.464z"/>
	</g>
</g>
</svg>
