<?xml version="1.0" encoding="utf-8"?>
<!-- Generator: Adobe Illustrator 15.0.0, SVG Export Plug-In . SVG Version: 6.00 Build 0)  -->
<!DOCTYPE svg PUBLIC "-//W3C//DTD SVG 1.1//EN" "http://www.w3.org/Graphics/SVG/1.1/DTD/svg11.dtd">
<svg version="1.1" id="_x30_1_1_" xmlns="http://www.w3.org/2000/svg" xmlns:xlink="http://www.w3.org/1999/xlink" x="0px" y="0px"
	 width="1268.142px" height="1155.611px" viewBox="0 0 1268.142 1155.611" enable-background="new 0 0 1268.142 1155.611"
	 xml:space="preserve">
<g id="Fluo_x5F_Jacket_8_">
	<g>
		<path fill="#93AB20" d="M380.059,132.577c-37.571,3.22-83.178,24.012-118.082,78.364
			C186.832,327.951,71.968,516.885,41.911,561.972c24.689,9.661,263.004,98.761,284.475,104.128
			c21.469-35.425,82.659-142.774,95.54-166.39C491.704,377.331,491.704,113.253,380.059,132.577z"/>
		<path fill="#DBF74A" d="M320.53,650.813c-42.781-14.242-205.434-74.832-259.118-95.173c17.014-26.502,45.755-72.84,78.18-125.113
			c43.957-70.875,93.78-151.206,133.224-212.625c37.373-58.197,83.924-70.398,108.345-72.49l0.551-0.049l0.547-0.094
			c3.131-0.543,6.199-0.818,9.119-0.818c17.205,0,31.002,9.351,42.176,28.587c39.196,67.465,27.466,232.101-22.816,320.29
			C398.482,515.785,345.084,609.505,320.53,650.813z"/>
		<linearGradient id="SVGID_1_" gradientUnits="userSpaceOnUse" x1="153.0176" y1="432.6162" x2="427.293" y2="432.6162">
			<stop  offset="0" style="stop-color:#949FA1"/>
			<stop  offset="1" style="stop-color:#B7C6C9"/>
		</linearGradient>
		<path fill="url(#SVGID_1_)" d="M410.736,493.329c7.234-12.689,10.955-21.222,16.557-36.56
			c-58.508-67.579-136.779-118.173-224.357-130.966c-18.563,29.7-31.662,52.966-49.918,82.391
			c86.772,18.16,166.927,69.688,227.041,131.234C394.543,514.006,405.59,502.764,410.736,493.329z"/>
	</g>
	<g>
		<g>
			<g>
				<path fill="#93AB20" d="M1082.121,996.734c6.799,41.151,25.049,100.908,27.91,105.202
					c44.369,18.605,134.545-3.579,150.289-32.205c-4.293-31.489-7.156-85.164-8.588-96.614
					C1215.232,977.411,1114.326,994.588,1082.121,996.734z"/>
				<path fill="#DBF74A" d="M1151.018,1095.899c-12.068,0-22.746-1.41-31.252-4.107c-4.531-12.822-15.807-50.855-22.422-83.566
					c22.398-2.536,56.426-7.705,89.551-12.734c19.803-3.009,38.789-5.892,53.186-7.876c0.266,3.491,0.555,7.414,0.859,11.549
					c1.475,20.074,3.451,46.997,5.973,67.349C1234.859,1080.487,1192.463,1095.899,1151.018,1095.899L1151.018,1095.899z"/>
			</g>
			<g>
				<path fill="#93AB20" d="M1026.303,170.148c57.965,12.882,118.08,55.821,145.99,130.966
					c17.176,83.732,42.227,344.233,42.227,362.839c7.154,42.94,60.117,286.265,52.959,346.381
					c-15.746,37.213-173.193,65.124-196.094,37.929c-17.172-34.353-47.23-100.908-55.818-122.379
					C1017,797.065,1019.146,211.655,1026.303,170.148z"/>
				<path fill="#DBF74A" d="M1127.604,1048.501c-28.592,0-41.775-4.753-45.596-7.809c-16.08-32.37-43.883-93.676-53.533-117.249
					c0.307-28.544,0.641-76.569,1.061-136.892c1.301-187.213,3.631-522.642,8.201-600.049
					c55.381,17.157,100.371,60.396,122.137,118.177c17.152,84.667,41.764,341.335,41.764,359.274v1.065l0.176,1.054
					c1.008,6.061,2.828,16.296,5.189,29.58c13.107,73.742,50.896,258.735,46.162,311.818
					C1244.076,1022.127,1184.527,1048.501,1127.604,1048.501z"/>
				<linearGradient id="SVGID_2_" gradientUnits="userSpaceOnUse" x1="1031.1309" y1="503.8965" x2="1189.0547" y2="503.8965">
					<stop  offset="0" style="stop-color:#949FA1"/>
					<stop  offset="1" style="stop-color:#B7C6C9"/>
				</linearGradient>
				<path fill="url(#SVGID_2_)" d="M1178.734,432.079c-21.877,15.263-95.896,44.372-146.691,47.093
					c-0.332,31.873-0.635,64.373-0.912,96.542c55.551-6.898,111.822-17.677,157.924-48.837
					C1186.029,498.177,1182.246,461.507,1178.734,432.079z"/>
				<linearGradient id="SVGID_3_" gradientUnits="userSpaceOnUse" x1="1029.5215" y1="912.4063" x2="1247.6953" y2="912.4063">
					<stop  offset="0" style="stop-color:#949FA1"/>
					<stop  offset="1" style="stop-color:#B7C6C9"/>
				</linearGradient>
				<path fill="url(#SVGID_3_)" d="M1234.557,841.437c-52.602,29.699-135.129,53.13-205.035,59.758
					c-0.096,11.813,14.439,58.186,25.395,82.139c76.584,1.236,152.445-24.526,192.779-53.09
					C1244.396,905.588,1239.328,869.232,1234.557,841.437z"/>
			</g>
		</g>
		<g>
			<path fill="#93AB20" d="M435.881,1021.783c8.588,37.214,10.021,62.977,20.042,78.723c80.15,51.527,465.178,78.724,629.776-4.294
				c8.588-25.764,11.451-51.527,14.313-72.996C1024.158,1027.51,485.979,1020.354,435.881,1021.783z"/>
			<path fill="#B7D130" d="M770.878,1136.29c-131.603,0-261.439-19.261-305.443-45.06c-4.561-8.743-7.109-22.358-10.262-39.207
				c-1.018-5.443-2.114-11.291-3.376-17.534c3.028-0.011,6.413-0.018,10.146-0.018c37.947,0,108.139,0.546,189.416,1.177
				c111.109,0.861,237.043,1.839,329.896,1.839c48.715,0,83.043-0.271,103.984-0.824c-2.168,15.935-4.916,33.185-10.148,50.408
				C1008.688,1118.837,901.014,1136.29,770.878,1136.29z"/>
			<path fill="#DBF74A" d="M520.687,1082.613c0,8.589,3.221,18.25,6.068,29.902c61.547,14.409,152.387,23.774,244.123,23.774
				c130.136,0,237.81-17.453,304.212-49.219c5.232-17.224,7.98-34.474,10.148-50.408
				C858.837,1140.582,557.185,1087.98,520.687,1082.613z"/>
			<path fill="#93AB20" d="M808.942,319.602c-38.453-27.945-64.734-69.035-91.621-109.219
				c-55.487-31.356-91.193-77.88-124.711-135.775C546.81,82.48,421.926,115.4,367.178,135.797
				c38.646,27.195,107.349,199.669,17.176,373.574c2.146,105.202,8.588,465.894,32.205,532.451
				c34.352,25.763,235.452,57.253,433.69,53.674C848.327,951.308,841.233,562.693,808.942,319.602z"/>
			<path fill="#B7D130" d="M818.942,1082.892c-189.657-0.002-356.146-28.933-391.519-49.336
				c-21.074-71.536-27.73-402.229-29.947-512.338l-0.178-8.854c49.389-97.079,48.799-187.664,39.498-246.796
				c-8.691-55.276-27.834-99.722-46.451-124.248c55.648-18.586,149.747-43.428,195.714-52.404
				c28.798,48.675,64.099,97.431,122.231,131.142l2.711,4.06c24.621,36.888,50.05,74.984,85.876,102.547
				c28.643,220.083,37.549,562.324,40.313,756.134C831.108,1082.86,825.026,1082.892,818.942,1082.892z"/>
		</g>
		<g>
			<path fill="#93AB20" d="M1111.463,1038.958c-7.156-181.777,15.744-630.495-42.225-851.634
				c-48.305-35.425-115.22-77.647-140.981-91.603c0.186,25.342-12.842,59.309-32.125,88.432
				c-12.363,59.292-34.45,116.998-66.928,168.83c0.844,221.755,17.762,690.244,18.898,742.512
				C959.743,1093.349,1087.131,1063.291,1111.463,1038.958z"/>
			<path fill="#DBF74A" d="M860.636,1082.257c-0.486-16.748-1.379-44.524-2.508-79.593
				c-4.961-154.232-15.242-473.962-16.025-646.031c30.918-50.189,53.156-106.493,66.133-167.45
				c15.666-24.166,26.488-49.852,30.811-72.42c30.078,17.901,79.872,49.919,118.874,78.247
				c40.916,161.294,39.951,443.917,39.246,650.793c-0.254,74.41-0.477,139.108,1.189,187.285
				C1071.391,1051.633,967.267,1078.336,860.636,1082.257z"/>
		</g>
		<g>
			<linearGradient id="SVGID_4_" gradientUnits="userSpaceOnUse" x1="684.1152" y1="386.2217" x2="1020.4758" y2="351.8701">
				<stop  offset="0" style="stop-color:#949FA1"/>
				<stop  offset="1" style="stop-color:#B7C6C9"/>
			</linearGradient>
			<path fill="url(#SVGID_4_)" d="M1092.139,480.435c-13.455,2.197-26.936,4.225-40.432,6.176
				c-2.232-102.279-9.756-218.691-30.656-317.388c-30.034-20.35-60.911-39.907-82.046-52.482
				c-0.984,5.084-2.332,10.327-3.943,15.649c16.75,115.671,36.014,247.349,33.693,364.64c-41.424,4.357-82.965,7.477-124.539,9.241
				c0.686,33.8,1.502,69.144,2.393,104.946c83.598-4.462,167.013-15.672,248.933-32.793
				C1094.758,545.548,1093.668,512.708,1092.139,480.435z"/>
			<linearGradient id="SVGID_5_" gradientUnits="userSpaceOnUse" x1="411.5508" y1="976.3174" x2="836.4736" y2="976.3174">
				<stop  offset="0" style="stop-color:#949FA1"/>
				<stop  offset="1" style="stop-color:#B7C6C9"/>
			</linearGradient>
			<path fill="url(#SVGID_5_)" d="M836.474,1037.594c-0.529-30.271-1.186-62.662-2.016-96.612
				c-141.85,3.268-284.787-2.931-422.907-27.979c1.43,29.343,5.219,65.898,8.229,90.174
				C563.136,1036.17,699.959,1043.968,836.474,1037.594z"/>
			<linearGradient id="SVGID_6_" gradientUnits="userSpaceOnUse" x1="631.0469" y1="1003.5811" x2="1008.9115" y2="973.5237">
				<stop  offset="0" style="stop-color:#949FA1"/>
				<stop  offset="1" style="stop-color:#B7C6C9"/>
			</linearGradient>
			<path fill="url(#SVGID_6_)" d="M1096.994,914.447c-79.551,14.405-160.075,23.042-240.858,25.923
				c0.734,23.151,1.412,44.172,1.994,62.338c0.395,12.297,0.762,23.673,1.09,34.017c80.725-3.735,160.923-14.38,238.399-32.074
				C1097.111,978.003,1096.973,947.689,1096.994,914.447z"/>
			<linearGradient id="SVGID_7_" gradientUnits="userSpaceOnUse" x1="397.2988" y1="351.5801" x2="821.5615" y2="351.5801">
				<stop  offset="0" style="stop-color:#949FA1"/>
				<stop  offset="1" style="stop-color:#B7C6C9"/>
			</linearGradient>
			<path fill="url(#SVGID_7_)" d="M814.661,507.313c-54.451,1.462-108.908,0.513-163.193-2.998
				c-12.528-135.976-23.914-285.03-69.717-414.525c-21.055,4.272-50.506,11.351-81.594,19.521
				c23.524,122.298,42.231,259.298,46.838,384.94c-44.111-5.686-88.027-13.172-131.634-22.671
				c-5.107,13.418-11.068,27.032-18.063,40.782l0.178,8.854c0.232,11.549,0.514,25.553,0.857,41.404
				c136.854,40.048,280.104,55.014,423.228,49.723C819.516,576.756,817.229,541.553,814.661,507.313z"/>
			<path fill="#DBF74A" d="M837.19,1082.798c-2.764-193.81-11.67-536.05-40.313-756.134c-35.826-27.563-61.255-65.66-85.876-102.547
				l-2.711-4.06c-58.133-33.711-93.434-82.467-122.231-131.142c-45.967,8.976-140.065,33.817-195.714,52.404
				c18.617,24.526,37.76,68.972,46.451,124.248c3.836,24.38,6.178,54.117,4.158,87.443c19.806,235.55,12.297,475.568,68.423,703.722
				c74.076,14.063,186.949,26.157,309.564,26.159C825.026,1082.892,831.108,1082.86,837.19,1082.798z"/>
			<linearGradient id="SVGID_8_" gradientUnits="userSpaceOnUse" x1="411.5508" y1="976.3174" x2="836.4736" y2="976.3174">
				<stop  offset="0" style="stop-color:#949FA1"/>
				<stop  offset="1" style="stop-color:#B7C6C9"/>
			</linearGradient>
			<path fill="url(#SVGID_8_)" d="M836.474,1037.594c-0.529-30.271-1.186-62.662-2.016-96.612
				c-141.85,3.268-284.787-2.931-422.907-27.979c1.43,29.343,5.219,65.898,8.229,90.174
				C563.136,1036.17,699.959,1043.968,836.474,1037.594z"/>
			<linearGradient id="SVGID_9_" gradientUnits="userSpaceOnUse" x1="397.2988" y1="351.5801" x2="821.5615" y2="351.5801">
				<stop  offset="0" style="stop-color:#949FA1"/>
				<stop  offset="1" style="stop-color:#B7C6C9"/>
			</linearGradient>
			<path fill="url(#SVGID_9_)" d="M814.661,507.313c-54.451,1.462-108.908,0.513-163.193-2.998
				c-12.528-135.976-23.914-285.03-69.717-414.525c-21.055,4.272-50.506,11.351-81.594,19.521
				c23.524,122.298,42.231,259.298,46.838,384.94c-44.111-5.686-88.027-13.172-131.634-22.671
				c-5.107,13.418-11.068,27.032-18.063,40.782l0.178,8.854c0.232,11.549,0.514,25.553,0.857,41.404
				c136.854,40.048,280.104,55.014,423.228,49.723C819.516,576.756,817.229,541.553,814.661,507.313z"/>
			<path fill="#868F98" d="M411.551,913.002c1.43,29.343,5.219,65.898,8.229,90.174c27.221,6.264,54.204,11.61,80.997,16.136
				c-6.787-31.481-12.502-63.162-17.313-95.015C459.372,921.049,435.385,917.326,411.551,913.002z"/>
			<path fill="#868F98" d="M415.361,471.581c-5.107,13.418-11.068,27.032-18.063,40.782l0.178,8.854
				c0.232,11.549,0.514,25.553,0.857,41.404c18.584,5.439,37.297,10.372,56.099,14.899c-1.618-32.987-3.222-65.986-5.03-98.956
				C438.035,476.365,426.688,474.048,415.361,471.581z"/>
			<path fill="#93AB20" d="M893.905,1143.446c-1.363-85.896-23.713-695.026-28.168-794.902c-5.014-0.407-15.049,2.006-17.205-0.27
				c-22.197,41.674-58.769,90.822-59.596,141.987c3.15,164.64,12.533,447.311,16.225,665.35
				C838.798,1153.464,861.644,1149.591,893.905,1143.446z"/>
			<path fill="#DBF74A" d="M818.044,1142.729c-4.445-251.482-17.713-588.272-17.713-689.18c3.285-7.211,36.805-68.768,55.824-92.108
				c0.541,0.026,1.063,0.046,1.58,0.067c8.758,117.503,26.508,659.759,29.012,771.203
				C865.995,1137.005,835.241,1140.385,818.044,1142.729z"/>
			<linearGradient id="SVGID_10_" gradientUnits="userSpaceOnUse" x1="627.5391" y1="560.4751" x2="851.2606" y2="559.0025">
				<stop  offset="0" style="stop-color:#949FA1"/>
				<stop  offset="1" style="stop-color:#B7C6C9"/>
			</linearGradient>
			<path fill="url(#SVGID_10_)" d="M867.065,505.436c-21.455,1.145-45.445,1.367-66.912,1.788
				c0.586,29.288,1.367,65.286,2.502,105.561c22.094-0.556,46.276-1.709,68.348-3.22
				C869.464,572.495,868.53,537.644,867.065,505.436z"/>
			<linearGradient id="SVGID_11_" gradientUnits="userSpaceOnUse" x1="693.8037" y1="994.7085" x2="906.9265" y2="986.2401">
				<stop  offset="0" style="stop-color:#949FA1"/>
				<stop  offset="1" style="stop-color:#B7C6C9"/>
			</linearGradient>
			<path fill="url(#SVGID_11_)" d="M881.112,939.84c-23.047,1.178-45.082,1.094-68.168,1.341c0.887,32.516,1.654,65.31,2.416,97.151
				c23.354-0.361,45.691-1.435,68.973-2.953C883.401,1006.731,882.335,974.788,881.112,939.84z"/>
		</g>
		<g>
			<path fill="#93AB20" d="M790.134,492.195c-13.959-149.932,118.801-285.551,107.348-392.183c0-21.469-0.713-65.124-0.713-85.162
				c37.928,16.459,119.517,71.565,148.14,131.682c-23.975,66.555-117.37,155.655-187.86,236.524
				C824.95,419.881,792.636,439.951,790.134,492.195z"/>
			<path fill="#DBF74A" d="M800.153,456.055c2.862-52.959,36.656-136.13,62.975-193.107
				c26.918-58.268,52.348-113.318,47.234-163.608c-0.008-10.959-0.188-27.33-0.365-43.422c-0.078-6.925-0.154-13.797-0.217-20.162
				c38.23,21.226,96.04,64.441,120.888,111.135c-25.861,56.038-98.505,141.166-149.288,193.942
				C840.226,383.6,802.692,451.553,800.153,456.055z"/>
		</g>
		<g>
			<path fill="#1A1A1A" d="M836.706,1111.201c-0.076,8.301,6.59,15.091,14.892,15.163c8.3,0.078,15.089-6.589,15.166-14.889
				c0.073-8.3-6.591-15.09-14.892-15.167C843.571,1096.233,836.784,1102.9,836.706,1111.201z"/>
			<path fill="#1A1A1A" d="M828.782,881.392c-0.074,8.3,6.592,15.088,14.891,15.167c8.303,0.074,15.093-6.592,15.166-14.893
				c0.078-8.302-6.588-15.09-14.889-15.166C835.649,866.427,828.862,873.093,828.782,881.392z"/>
			<path fill="#1A1A1A" d="M823.241,652.319c-0.078,8.301,6.592,15.092,14.891,15.168c8.301,0.075,15.091-6.591,15.168-14.892
				c0.072-8.3-6.592-15.091-14.893-15.165C830.106,637.353,823.317,644.018,823.241,652.319z"/>
			<circle fill="#1A1A1A" cx="832.862" cy="460.603" r="15.03"/>
		</g>
		<g>
			<path fill="#808080" d="M885.452,280.15c-0.057,6.526,5.184,11.866,11.711,11.928c6.525,0.059,11.865-5.186,11.926-11.712
				c0.059-6.526-5.184-11.865-11.707-11.925C890.854,268.381,885.516,273.623,885.452,280.15z"/>
			<path fill="#1A1A1A" d="M897.2,287.783c-4.146-0.038-7.49-3.444-7.453-7.597c0.039-4.109,3.414-7.453,7.525-7.453
				c4.217,0.038,7.559,3.445,7.521,7.594c-0.037,4.112-3.41,7.456-7.521,7.456H897.2z"/>
		</g>
		<g>
			<circle fill="#808080" cx="980.139" cy="146.531" r="11.818"/>
			<path fill="#1A1A1A" d="M980.07,154.056c-4.148-0.038-7.492-3.444-7.453-7.596c0.037-4.11,3.412-7.455,7.523-7.455
				c4.217,0.039,7.56,3.445,7.522,7.594c-0.039,4.113-3.411,7.457-7.522,7.457H980.07z"/>
		</g>
		<g>
			<path fill="#C3E02D" d="M1088.561,825.69c-2.717,12.882-24.439,79.797-24.439,79.797
				c-37.105-41.507-109.745-110.927-139.804-139.553c10.021-20.038,43.448-71.924,46.16-78.364
				C1011.988,727.647,1054.213,782.037,1088.561,825.69z"/>
			<path fill="#DBF74A" d="M1060.74,888.979c-35.699-38.874-93.059-95.892-123.54-125.191c5.387-10.286,35.427-61.189,35.427-61.189
				c36.293,34.943,76.852,87.898,107.346,125.956C1076.787,840.096,1067.113,870.392,1060.74,888.979z"/>
		</g>
		<g>
			<path fill="#C3E02D" d="M483.829,831.773c4.295,12.882,38.646,75.144,38.646,75.144
				c62.262-32.204,171.757-103.055,212.552-137.405c-15.03-30.059-45.088-77.292-49.382-83.733
				C608.354,750.188,558.974,784.54,483.829,831.773z"/>
			<path fill="#DBF74A" d="M525.944,895.393c-11.199-20.486-25.381-47.156-31.4-60.218
				c66.732-42.114,116.169-76.244,189.126-136.594c9.288,14.642,28.248,45.249,40.556,68.696
				C681.854,801.41,586.016,863.34,525.944,895.393z"/>
		</g>
		<g>
			<path fill="#93AB20" d="M808.022,327.595c-93.035-56.539-299.145-204.68-359.259-245.472C493.851,47.771,580.264,7.157,632.507,0
				c0.181,18.071,1.612,91.425,2.327,102.877C651.652,134.723,731.09,212.014,808.022,327.595z"/>
			<path fill="#DBF74A" d="M777.251,297.893c-66.964-44.207-171.754-121.912-239.971-169.787
				c-25.711-18.042-48.793-34.242-66.012-46.157c40.385-26.88,103.211-56.612,148.298-66.76c0.245,9.022,0.522,20.491,0.809,32.344
				c0.615,25.525,1.196,49.636,1.603,56.148l0.172,2.764l1.294,2.448c7.572,14.337,25.201,35.262,49.606,64.225
				C697.248,201.835,745.188,254.507,777.251,297.893z"/>
		</g>
		<g>
			<circle fill="#808080" cx="515.646" cy="85.955" r="11.819"/>
			<path fill="#1A1A1A" d="M515.575,93.482c-4.146-0.039-7.492-3.444-7.453-7.596c0.037-4.109,3.412-7.455,7.523-7.455
				c4.217,0.038,7.561,3.445,7.523,7.595c-0.037,4.111-3.412,7.456-7.523,7.456H515.575z"/>
		</g>
	</g>
</g>
<g>
	<path fill="#944D09" d="M402.527,725.531c-29.73,3.715-36.993-0.206-75.84,7.025c-90.593,16.849-182.283,36.234-242.28,3.51
		C21.205,693.927,1.463,629.182,13.834,603.339c15.798-33.005,65.834-110.25,144.836-103.228
		c39.33,4.916,74.263,37.393,74.263,37.393s130.094,37.392,157.479,43.187C392.521,610.187,406.742,683.394,402.527,725.531z"/>
	<linearGradient id="SVGID_12_" gradientUnits="userSpaceOnUse" x1="298.7734" y1="764.0757" x2="226.4427" y2="667.8672">
		<stop  offset="0" style="stop-color:#D4984C"/>
		<stop  offset="1" style="stop-color:#EAAD60"/>
	</linearGradient>
	<path fill="url(#SVGID_12_)" d="M186.59,741.856c-40.764,0-68.201-2.474-94.808-16.854c-39.715-26.644-61.764-64.145-65.836-86.901
		c-1.908-10.647-2.059-25.021,1.582-30.021c0,0,48.453-107.269,132.728-97.435c54.772,22.467,69.515,35.811,69.515,35.811
		s115.875,35.819,123.604,37.22c-5.621,16.857-16.858,120.088-19.314,136.588C289.282,728.861,229.771,739.046,186.59,741.856z"/>
	<linearGradient id="SVGID_13_" gradientUnits="userSpaceOnUse" x1="165.8477" y1="841.79" x2="192.8854" y2="582.6765">
		<stop  offset="6.030000e-006" style="stop-color:#EAAD60"/>
		<stop  offset="0.2416" style="stop-color:#EDB267"/>
		<stop  offset="0.5893" style="stop-color:#F4C17A"/>
		<stop  offset="1" style="stop-color:#FFDA99"/>
	</linearGradient>
	<path fill="url(#SVGID_13_)" d="M342.487,698.145c4.437-36.339,7.246-103.567,10.887-114.469
		c-7.729-1.4-123.604-37.22-123.604-37.22s-33.177-29.496-69.515-35.811c-84.274-9.834-130.624,94.802-130.624,94.802
		c-2.104,8.424-9.132,23.173,34.411,51.26C115.659,713.945,192.209,738.871,342.487,698.145z"/>
	<path fill="#944D09" d="M289.819,562.257c-23.177-5.616-83.571-22.821-130.62-30.544c42.133,0,66.362,7.547,71.982,7.723
		C235.392,542.947,278.581,557.342,289.819,562.257z"/>
</g>
<g>
	<g>
		<path fill="#944D09" d="M289.819,568.052c6.844-14.749,19.31-51.263,26.683-59.516c4.314-4.826,35.815-30.548,41.786-41.787
			c6.32-10.533,10.005-37.391,12.462-66.712c4.74-19.486,64.285-13.43,67.594,25.635c3.508,41.43-14.396,85.673-23.879,107.44
			C402.881,536.803,298.244,564.89,289.819,568.052z"/>
		<linearGradient id="SVGID_14_" gradientUnits="userSpaceOnUse" x1="328.8525" y1="466.5771" x2="392.0545" y2="487.1178">
			<stop  offset="0" style="stop-color:#D4984C"/>
			<stop  offset="1" style="stop-color:#EAAD60"/>
		</linearGradient>
		<path fill="url(#SVGID_14_)" d="M309.479,549.618c4.537-12.228,10.16-28.145,14.928-34.763
			c2.419-3.363,16.924-14.718,24.226-22.119c7.904-8.021,14.361-13.053,16.441-15.989c8.839-12.454,15.511-45.107,16.21-72.494
			c7.373-8.429,41.611-3.69,46.35,19.485c4.314,21.084-7.725,65.66-16.852,87.432c0,0,19.459-0.03,20.537,4.743
			C428.686,516.646,338.244,542.162,309.479,549.618z"/>
		<linearGradient id="SVGID_15_" gradientUnits="userSpaceOnUse" x1="356.8008" y1="466.2139" x2="491.1792" y2="504.5283">
			<stop  offset="6.030000e-006" style="stop-color:#EAAD60"/>
			<stop  offset="0.0699" style="stop-color:#F0B96F"/>
			<stop  offset="0.2001" style="stop-color:#F8CB86"/>
			<stop  offset="0.3229" style="stop-color:#FDD694"/>
			<stop  offset="0.43" style="stop-color:#FFDA99"/>
		</linearGradient>
		<path fill="url(#SVGID_15_)" d="M383.564,411.625c1.057,13.167-2.105,46.877-6.318,69.524
			c-14.22,15.273-26.007,28.725-32.653,59.512c36.188-9.997,84.923-24.245,86.726-24.749c-1.078-4.773-20.537-4.743-20.537-4.743
			c9.127-21.772,21.166-66.348,16.852-87.432c-3.217-15.729-20.014-22.945-32.783-23.334
			C389.889,400.038,383.564,405.305,383.564,411.625z"/>
	</g>
	<g>
		<path fill="#944D09" d="M279.811,552.779c18.957-5.266,43.715-13.166,43.715-13.166s8.953-12.643,23.7-25.286
			c15.248-13.071,27.812-19.8,35.288-22.292c37.566,1.753,58.281-1.057,99.017,5.967c19.297,48.748,30.959,112.641,21.067,187.5
			c-2.458,18.61-11.235,38.625-15.802,45.997c-20.361,14.747-65.835,20.019-87.431,18.962c-27.91-2.634-68.82-12.639-81.106-17.558
			C322.469,720.965,331.953,621.072,279.811,552.779z"/>
		<linearGradient id="SVGID_16_" gradientUnits="userSpaceOnUse" x1="290.3672" y1="760.6553" x2="361.5589" y2="671.4619">
			<stop  offset="0" style="stop-color:#D4984C"/>
			<stop  offset="1" style="stop-color:#EAAD60"/>
		</linearGradient>
		<path fill="url(#SVGID_16_)" d="M408.146,740.28c-41.903,0-81.459-15.449-100.421-21.067
			c-20.016-20.019-42.135-100.074-20.367-155.199c21.066-18.262,83.954-59.964,94.101-60.392c38.193,1.3,70.592,1.396,107.442,7.724
			c8.957,54.685,4.571,185.391-10.533,214.186C471.349,730.099,439.043,737.47,408.146,740.28z"/>
		<linearGradient id="SVGID_17_" gradientUnits="userSpaceOnUse" x1="421.2354" y1="620.6079" x2="188.3383" y2="601.4832">
			<stop  offset="6.030000e-006" style="stop-color:#EAAD60"/>
			<stop  offset="0.394" style="stop-color:#F1BC74"/>
			<stop  offset="1" style="stop-color:#FFDA99"/>
		</linearGradient>
		<path fill="url(#SVGID_17_)" d="M456.614,732.573c10.643-2.47,18.66-5.033,21.754-7.042c15.104-28.794,19.49-159.5,10.533-214.186
			c-36.851-6.328-69.249-6.424-107.442-7.724c-10.146,0.428-73.034,42.13-94.101,60.392c-19.662,49.858,7.728,125.704,25.633,146.77
			c12.639,7.373,55.126,22.82,93.052,24.929C426.404,736.066,440.305,734.795,456.614,732.573z"/>
		<linearGradient id="SVGID_18_" gradientUnits="userSpaceOnUse" x1="510.0488" y1="596.4258" x2="359.2472" y2="625.1505">
			<stop  offset="6.030000e-006" style="stop-color:#EAAD60"/>
			<stop  offset="1" style="stop-color:#FFDA99"/>
		</linearGradient>
		<path fill="url(#SVGID_18_)" d="M488.901,511.346c-36.851-6.328-67.669-14.152-105.86-15.453c-0.189,0.009-0.42,0.05-0.633,0.084
			c-3.271,61.726,39.957,145.986,23.635,193.388c3.508,23.524,3.508,36.867,0.699,46.001c10.533,1.047,58.636-3.515,72.683-9.486
			c3.861-7.724,9.828-22.82,11.938-35.463C498.009,650.534,497.442,563.481,488.901,511.346z"/>
		<path fill="#944D09" d="M403.057,565.419c6.143,2.104,81.282-9.834,93.22-9.481c6.321,1.58,17.03,8.248,21.422,10.18
			c5.619,12.643,6.67,40.559,0.697,59.869c-2.104,3.162-4.736,5.794-4.736,5.794s3.686,3.162,3.686,6.844
			c0.878,17.91-3.51,46.176-11.586,50.387c-28.439,8.78-72.331,11.942-86.378,10.533
			C415.166,689.013,404.633,582.272,403.057,565.419z"/>
		<linearGradient id="SVGID_19_" gradientUnits="userSpaceOnUse" x1="580.9404" y1="629.8115" x2="353.8706" y2="634.2639">
			<stop  offset="6.030000e-006" style="stop-color:#EAAD60"/>
			<stop  offset="0.4705" style="stop-color:#F5C47D"/>
			<stop  offset="0.9989" style="stop-color:#FFDA99"/>
		</linearGradient>
		<path fill="url(#SVGID_19_)" d="M407.441,698.145c-11.232-18.261-11.232-45.648-10.709-58.992
			c-7.371-17.905-14.568-44.944-9.654-66.711c8.43,0,16.502,2.981,16.502,2.981s48.193-8.429,69.874-8.601
			c6.498,2.545,26.861,5.708,31.6,7.023c7.378,11.851,6.324,32.301,2.109,49.86c-2.805,4.562-16.852,7.724-16.852,7.724
			s7.02,2.104,14.047,2.809c3.51,12.638,2.104,37.924-6.322,48.458C476.968,691.822,420.08,699.194,407.441,698.145z"/>
		<path fill="#944D09" d="M417.451,635.468c-2.461,0.524,0.525,2.108,3.334,2.805c28.791,3.162,70.226-0.696,86.378-4.562
			c1.229-2.629,3.158-6.668,4.039-9.477C495.577,630.201,447.119,635.64,417.451,635.468z"/>
		<path fill="#944D09" d="M408.146,574.2c-1.758-0.353-7.725-3.515-9.133-3.515c0.965,4.038-0.523,10.27,1.057,17.905
			C402.881,581.571,407.09,576.304,408.146,574.2z"/>
		<path fill="#944D09" d="M379.355,493.088c18.959-4.567,76.546-5.62,94.099-4.215c10.273,2.106,28.355,7.02,34.938,11.238
			c7.729,11.146,10.709,53.717,2.281,72.68c-10.445,4.302-32.477,9.128-39.324,9.128c-6.842,0-61.097-3.334-72.159-4.739
			C390.064,568.404,367.588,532.765,379.355,493.088z"/>
		<linearGradient id="SVGID_20_" gradientUnits="userSpaceOnUse" x1="579.667" y1="540.1968" x2="359.8539" y2="535.7501">
			<stop  offset="6.030000e-006" style="stop-color:#EAAD60"/>
			<stop  offset="0.9726" style="stop-color:#FED997"/>
			<stop  offset="1" style="stop-color:#FFDA99"/>
		</linearGradient>
		<path fill="url(#SVGID_20_)" d="M474.687,572.791c0,0-71.983,2.104-86.907,1.056c-4.037-14.571-15.1-50.21-1.404-70.225
			c22.125-3.162,76.723-4.567,84.62-2.721c5.795,1.845,22.912,8.16,28.18,11.851c4.738,13.426,0.529,46.344-3.949,54.512
			C489.694,569.369,474.687,572.791,474.687,572.791z"/>
		<linearGradient id="SVGID_21_" gradientUnits="userSpaceOnUse" x1="545.29" y1="542.8521" x2="463.9388" y2="535.7781">
			<stop  offset="6.030000e-006" style="stop-color:#EAAD60"/>
			<stop  offset="0.9726" style="stop-color:#FED997"/>
			<stop  offset="1" style="stop-color:#FFDA99"/>
		</linearGradient>
		<path fill="url(#SVGID_21_)" d="M499.435,510.293c-5.266-3.69-19.223-8.076-28.967-9.658c14.924,14.22,10.709,61.269,4.395,71.803
			c8.953-0.524,19.307-2.81,25.629-4.915C505.759,552.076,506.22,522.579,499.435,510.293z"/>
	</g>
</g>
<g>
	<g>
		<path fill="#93AB20" d="M0.047,613.499c-1.878-26.793,53.673-112.716,123.449-122.376c48.092-6.659,104.495,16.247,128.818,33.277
			c10.97,7.68,18.249,18.25,16.103,23.618c-42.939,33.278-41.865,157.265-1.074,200.205
			C239.433,760.031,15.074,828.196,0.047,613.499z"/>
		<path fill="#B7D130" d="M159.748,754.914c-90.835,0-140.242-47.881-146.852-142.314c-1.268-18.084,46.918-99.656,112.367-108.718
			c5.078-0.703,10.48-1.06,16.053-1.06c42.053,0,85.866,19.707,103.61,32.13c4.451,3.116,7.428,6.297,9.171,8.625
			c-22.024,22.51-28.146,60.688-29.812,82.607c-2.832,37.264,3.291,84.261,22.219,115.628
			C227.058,747.633,194.639,754.914,159.748,754.914z"/>
		<path fill="#DBF74A" d="M233.56,712.293c-8.676-27.447-11.313-59.286-9.273-86.109c1.666-21.919,7.787-60.097,29.812-82.607
			c-1.743-2.328-4.72-5.509-9.171-8.625c-17.744-12.423-61.558-32.13-103.61-32.13c-5.572,0-10.975,0.356-16.053,1.06
			C59.814,512.944,11.629,594.516,12.896,612.6c0.156,2.227,0.359,4.4,0.561,6.577c8.806,21.413,21.097,41.134,35.968,57.658
			C99.149,723.007,169.438,725.096,233.56,712.293z"/>
		<linearGradient id="SVGID_22_" gradientUnits="userSpaceOnUse" x1="111.2168" y1="833.9663" x2="122.0343" y2="515.9354">
			<stop  offset="0" style="stop-color:#949FA1"/>
			<stop  offset="1" style="stop-color:#B7C6C9"/>
		</linearGradient>
		<path fill="url(#SVGID_22_)" d="M100.952,530.84c-62.953,45.785-73.742,131.77-40.077,195.375
			c22.175,18.766,52.884,27.781,90.174,29.342c-9.203-11.265-18.498-24.12-24.332-35.783
			c-30.058-64.409-30.058-145.995,38.646-193.229c9.891-5.77,21.801-10.443,32.205-14.313c-13.592-4.338-29.355-8.865-44.373-10.017
			C135.541,508.855,117.544,518.771,100.952,530.84z"/>
		<path fill="#868F98" d="M43.327,669.647c2.35,19.686,8.24,38.983,17.548,56.568c22.175,18.766,52.884,27.781,90.174,29.342
			c-9.203-11.265-18.498-24.12-24.332-35.783c-0.803-1.724-1.574-3.464-2.336-5.208c-27.431-5.766-53.172-17.503-74.956-37.732
			C47.333,674.51,45.315,672.095,43.327,669.647z"/>
	</g>
	<g>
		<path fill="#93AB20" d="M317.797,741.959c-30.594-21.471-46.875-141.969-16.102-202.8c-9.84-0.717-34.353-4.025-45.804-4.742
			c-5.727-1.253-18.068,2.596-20.934,5.727c-54.251,59.297-46.159,166.753,5.803,205.159c2.609,1.931,8.33,3.456,14.772,4.17
			C269.131,748.4,308.136,744.106,317.797,741.959z"/>
		<path fill="#B7D130" d="M255.785,736.529c-4.353-0.572-6.87-1.426-7.626-1.776c-20.252-15.131-34.137-44.495-37.173-78.639
			c-3.627-40.808,8.624-80.569,32.796-106.549c1.857-1.023,6.717-2.514,9.474-2.514c7.03,1.472,17.814,1.954,28.248,2.42
			c0.393,0.017,0.786,0.033,1.179,0.051c-18.905,56.503-10.433,141.454,11.59,182.883
			C280.703,734.08,264.416,735.806,255.785,736.529z"/>
		<path fill="#DBF74A" d="M284.52,549.895c-0.393-0.019-22.411-3.598-30.059-3.758c-4.161-0.377-8.05,1.075-10.679,3.429
			c-24.172,25.98-36.423,65.741-32.796,106.549c2.072,23.302,9.204,44.369,19.956,60.213c18.145-1.621,36.513-3.157,54.844-3.955
			C270.41,667.469,268.291,598.398,284.52,549.895z"/>
	</g>
</g>
</svg>
