<?xml version="1.0" encoding="utf-8"?>
<!-- Generator: Adobe Illustrator 15.0.0, SVG Export Plug-In . SVG Version: 6.00 Build 0)  -->
<!DOCTYPE svg PUBLIC "-//W3C//DTD SVG 1.1//EN" "http://www.w3.org/Graphics/SVG/1.1/DTD/svg11.dtd">
<svg version="1.1" id="_x30_1_1_" xmlns="http://www.w3.org/2000/svg" xmlns:xlink="http://www.w3.org/1999/xlink" x="0px" y="0px"
	 width="844.001px" height="1127.013px" viewBox="0 0 844.001 1127.013" enable-background="new 0 0 844.001 1127.013"
	 xml:space="preserve">
<g>
	<g>
		<g>
			<g>
				<path fill="#93AB20" d="M161.77,998.317c8.439,36.85,9.795,62.351,19.718,77.963c79.566,51.205,457.123,82.136,621.038,0.434
					c12.234-8.374,20.215-56.321,23.123-77.562C750.204,1003.196,211.595,997.042,161.77,998.317z"/>
				<path fill="#B7D130" d="M494.593,1112.547c-130.871-0.362-259.932-19.771-303.625-45.424
					c-4.508-8.664-7.006-22.147-10.094-38.826c-0.998-5.386-2.074-11.178-3.309-17.36c3.01,0,6.379,0,10.086,0.013
					c37.74,0.104,107.535,0.834,188.361,1.68c110.488,1.151,235.723,2.468,328.06,2.719c48.441,0.136,82.58-0.04,103.408-0.534
					c-2.201,15.768-4.98,32.829-10.229,49.856C731.133,1095.923,624.007,1112.904,494.593,1112.547z"/>
				<path fill="#DBF74A" d="M245.941,1058.748c-0.025,8.497,3.152,18.068,5.953,29.605c61.166,14.426,151.473,23.942,242.699,24.194
					c129.414,0.356,236.54-16.624,302.659-47.877c9.707-14.541,10.313-35.706,10.229-49.856
					C582.052,1117.033,282.222,1064.157,245.941,1058.748z"/>
			</g>
			<polygon fill="#333333" points="563.833,1067.748 564.375,1111.712 584.458,1110.084 582.83,1067.204 			"/>
		</g>
		<polygon fill="#333333" points="564.375,1105.742 558.56,1126.546 589.343,1123.66 583.373,1104.661 		"/>
	</g>
	<g>
		<g id="Fluo_body-warmer_3_">
			<g>
				<path fill="#93AB20" d="M100.256,117.251c10.313-4.342,210.788-57.832,218.938-59.348
					c16.495,35.889,83.077,127.146,187.18,144.332c27.307,137.496,76.232,633.409,71.68,869.983
					c-126.29,10.11-369.779-6.645-423.519-47.354c-6.514-5.97-9.488-18.533-10.313-25.513
					c-14.414-122.231-27.76-370.085-26.598-517.317c39.082-87.933,40.168-230.16-10.857-346.864
					C104.922,130.94,94.827,121.055,100.256,117.251z"/>
				<path fill="#B7D130" d="M169.194,1018.894c-8.143-4.343-9.627-17.398-10.313-23.347
					c-14.133-121.771-28.156-366.447-27.143-513.514c35.484-81.836,45.601-230.16-14.113-357.18
					c40.625-11.085,161.823-44.439,195.21-53.072c10.744,19.707,30.914,48.002,58.976,74.054
					c37.351,34.677,88.123,56.819,132.308,65.87c13.439,72.117,34.49,223.802,48.855,386.496
					c16.586,187.862,14.555,357.32,13.309,462.866C538.445,1065.691,282.238,1068.407,169.194,1018.894z"/>
				<linearGradient id="SVGID_1_" gradientUnits="userSpaceOnUse" x1="150.7739" y1="372.3101" x2="444.6209" y2="350.3812">
					<stop  offset="0" style="stop-color:#949FA1"/>
					<stop  offset="1" style="stop-color:#B7C6C9"/>
				</linearGradient>
				<path fill="url(#SVGID_1_)" d="M547.335,530.817c-54.045,2.682-109.391,3.887-164.104,3.719
					c-6.134-148.039-49.56-371.684-96.245-456.364c-20.963,5.694-89.834,24.356-94.451,25.507
					c54.283,104.226,81.811,314.041,85.768,426.121c-56.615-0.256-98.793,2.176-147.104-1.627
					c-0.277,22.665,2.17,76.676,2.711,91.737c100.122,12.141,286.568,13.024,420.062,6.283
					C553.214,593.836,551.314,560.135,547.335,530.817z"/>
				<linearGradient id="SVGID_2_" gradientUnits="userSpaceOnUse" x1="140.4224" y1="854.3931" x2="589.9253" y2="854.3931">
					<stop  offset="0" style="stop-color:#949FA1"/>
					<stop  offset="1" style="stop-color:#B7C6C9"/>
				</linearGradient>
				<path fill="url(#SVGID_2_)" d="M589.925,910.826c-0.346-24.558-2.807-70.091-3.299-99.836
					c-80.188,4.193-306.549,11.619-446.204-18.458c0,4.211,7.057,87.936,7.6,93.909
					C253.332,916.299,480.234,922.268,589.925,910.826z"/>
				<path fill="#DBF74A" d="M552.974,598.202c-14.365-162.694-35.416-314.379-48.855-386.496
					c-44.185-9.051-94.957-31.193-132.308-65.87c-28.062-26.052-48.231-54.347-58.976-74.054
					c-33.387,8.633-154.585,41.987-195.21,53.072c34.998,74.45,46.002,156.213,41.975,227.622
					c6.963,139.194,15.559,278.017,26.419,418.344c3.258,53.196,6.516,105.305,16.289,159.591c1.084,5.429,2.17,10.858,3.258,16.282
					c5.287,30.229,9.533,63.078,21.875,90.881c125.481,29.992,315.113,27.438,338.842,23.494
					C567.529,955.522,569.56,786.064,552.974,598.202z"/>
				<linearGradient id="SVGID_3_" gradientUnits="userSpaceOnUse" x1="150.5664" y1="373.7266" x2="444.728" y2="351.7742">
					<stop  offset="0" style="stop-color:#949FA1"/>
					<stop  offset="1" style="stop-color:#B7C6C9"/>
				</linearGradient>
				<path fill="url(#SVGID_3_)" d="M547.335,530.817c-54.045,2.682-109.391,3.887-164.104,3.719
					c-6.134-148.039-49.56-371.684-96.245-456.364c-20.963,5.694-89.834,24.356-94.451,25.507
					c54.283,104.226,81.811,314.041,85.768,426.121c-56.615-0.256-98.793,2.176-147.104-1.627
					c-0.277,22.665,2.17,81.38,2.711,96.447c100.122,12.126,287.021,11.079,420.511,4.343
					C553.664,596.607,551.314,560.135,547.335,530.817z"/>
				<linearGradient id="SVGID_4_" gradientUnits="userSpaceOnUse" x1="140.4224" y1="854.3931" x2="589.9253" y2="854.3931">
					<stop  offset="0" style="stop-color:#949FA1"/>
					<stop  offset="1" style="stop-color:#B7C6C9"/>
				</linearGradient>
				<path fill="url(#SVGID_4_)" d="M589.925,910.826c-0.346-24.558-2.807-70.091-3.299-99.836
					c-80.188,4.193-306.549,11.619-446.204-18.458c0,4.211,7.057,87.936,7.6,93.909
					C253.332,916.299,480.234,922.268,589.925,910.826z"/>
				<path fill="#868F98" d="M131.198,528.173c-0.277,22.665,2.17,81.38,2.711,96.447c12.652,1.531,26.693,2.851,41.833,3.979
					c-2.218-32.88-4.319-65.722-6.317-98.537C156.858,529.77,144.249,529.199,131.198,528.173z"/>
				<path fill="#868F98" d="M140.422,792.532c0,4.211,7.057,87.936,7.6,93.909c14.303,4.053,30.866,7.664,49.056,10.855
					c-4.469-32.427-7.047-64.308-9.162-96.356C171.288,798.529,155.356,795.744,140.422,792.532z"/>
			</g>
			<g>
				<path fill="#93AB20" d="M661.673,92.033c-6.826,83.919-71.674,98.071-112.635,110.203
					c-0.979,25.246,7.111,185.559,11.379,362.957c5.645,234.614,8.186,497.986,9.484,507.195
					c94.047-2.69,230.239-31.117,261.651-50.657c11.402-10.855,10.352-29.831,9.775-42.339
					c-5.434-116.709,0.176-368.742,1.627-433.152c1.445-64.417,8.695-292.696-50.482-377.798
					C743.553,138.116,684.427,108.21,661.673,92.033z"/>
				<path fill="#DBF74A" d="M582.775,1059.733c-4.727-96.295-30.656-759.231-30.32-855.474
					c38.32-10.947,86.748-34.584,102.393-103.124c11.697,7.107,43.284,27.94,58.877,36.891
					c20.593,11.809,49.298,27.146,71.038,40.568c50.498,88.311,47.223,295.84,44.508,361.523
					c-2.711,65.591-2.713,330.036-1.084,448.378c0.145,10.521-2.715,23.883-21.172,30.938
					C770.62,1035.699,669.248,1055.381,582.775,1059.733z"/>
				<linearGradient id="SVGID_5_" gradientUnits="userSpaceOnUse" x1="317.6807" y1="366.2031" x2="792.104" y2="375.9182">
					<stop  offset="0" style="stop-color:#949FA1"/>
					<stop  offset="1" style="stop-color:#B7C6C9"/>
				</linearGradient>
				<path fill="url(#SVGID_5_)" d="M788.256,515.516c2.473-100.792-7.836-267.984-26.834-350.492
					c-19.412-11.787-74.429-44.894-80.341-48.312c22.798,141.673,24.967,327.325,22.909,405.96
					c-47.981,3.615-96.167,6.405-141.866,7.64c0.328,29.751,4.123,64.545,4.6,97.924c112.049-4.876,216.731-16.092,261.282-22.801
					c1.105-23.139,2.17-73.097,2.531-93.724C819.512,512.817,799.54,514.451,788.256,515.516z"/>
				<linearGradient id="SVGID_6_" gradientUnits="userSpaceOnUse" x1="218.5498" y1="886.0244" x2="963.7184" y2="827.5798">
					<stop  offset="0" style="stop-color:#949FA1"/>
					<stop  offset="1" style="stop-color:#B7C6C9"/>
				</linearGradient>
				<path fill="url(#SVGID_6_)" d="M827.1,783.844c-73.166,10.992-174.669,24.56-255.667,27.146
					c0.564,30.242,4.543,76.858,5.063,100.964c75.635-4.342,175.519-14.472,251.146-32.297
					C828.186,854.143,827.1,799.587,827.1,783.844z"/>
			</g>
		</g>
		<g>
			<path fill="#93AB20" d="M512.634,219.423c-3.813-39.094-13.52-70.774-14.559-77.846c-3.119-15.168-29.822-25.433-48.864-33.367
				c-66.86-27.86-89.484-72.38-92.473-87.579c-1.684-8.567,0.813-20.354-1.354-20.631c-13.031,10.136-34.055,50.583-42.377,66.76
				C314.898,92.639,399.995,206.284,512.634,219.423z"/>
			<path fill="#DBF74A" d="M501.89,212.012c-99.122-6.405-171.211-88.636-175.932-143.482c1.852-3.941,13.049-26.095,23.182-38.398
				c6.244,25.512,29.634,61.927,95.157,89.229l2.204,0.922c12.794,5.312,36.359,13.036,38.408,21.294
				C487.333,146.296,499.054,185.504,501.89,212.012z"/>
		</g>
		<g>
			<path fill="#93AB20" d="M544.49,218.076c-0.379-23.592-2.648-87.632,1.137-92.675c4.551-6.07,32.994-14.83,47.025-28.984
				c21.131-21.319,25.047-38.006,26.184-70.358c18.205-4.046,38.285,58.897,47.389,76.087
				C665.089,117.309,632.664,194.316,544.49,218.076z"/>
			<path fill="#DBF74A" d="M555.869,208.98c-0.377-20.898-2.275-73.471,1.898-76.163c10.617-5.057,32.598-16.05,40.197-23.593
				c16.92-16.807,27.158-37.08,30.336-58.304c6.701,12.255,24.615,54.267,26.547,58.304
				C658.261,138.542,630.955,192.129,555.869,208.98z"/>
		</g>
		<g>
			<g>
				<path fill="#333333" d="M563.833,1073.715c-0.066-3.858-5.811-392.276-16.658-514.285l18.145-1.275
					c10.896,122.514,18.525,510.069,18.596,513.93L563.833,1073.715z"/>
			</g>
			<g>
				<path fill="#333333" d="M547.933,569.369c-1.365-10.42-4.555-36.059-8.697-69.35c-12.539-100.721-35.877-288.208-40.152-305.687
					l8.893-1.719c4.381,17.893,26.865,198.568,40.305,306.521c4.141,33.266,7.332,58.885,8.691,69.296L547.933,569.369z"/>
			</g>
			<g>
				<path fill="#333333" d="M566.109,567.215h-9.104c0-10.951-2.299-74.087-4.955-147.186
					c-3.676-101.14-7.846-215.775-7.176-227.103l9.09,0.426c-0.65,10.986,3.691,130.435,7.188,226.419
					C563.808,492.941,566.109,556.134,566.109,567.215z"/>
			</g>
			<path fill="#333333" d="M575.224,607.415c1.555,6.526-3.313,11.961-10.82,12.075l-6.268,0.094
				c-7.506,0.111-13.289-5.246-12.852-11.909l2.395-36.436c0.434-6.663,4.244-11.997,8.473-11.858
				c4.225,0.139,8.949,5.596,10.51,12.122L575.224,607.415z"/>
		</g>
	</g>
</g>
<g>
	<g>
		<path fill="#944D09" d="M11.449,562.098c6.844-14.749,19.31-51.263,26.683-59.516c4.314-4.826,35.815-30.548,41.786-41.787
			c6.32-10.533,10.005-37.391,12.462-66.712c4.74-19.486,64.285-13.43,67.594,25.635c3.508,41.43-14.396,85.673-23.879,107.44
			C124.51,530.849,19.874,558.936,11.449,562.098z"/>
		<linearGradient id="SVGID_7_" gradientUnits="userSpaceOnUse" x1="50.4814" y1="460.6226" x2="113.6834" y2="481.1632">
			<stop  offset="0" style="stop-color:#D4984C"/>
			<stop  offset="1" style="stop-color:#EAAD60"/>
		</linearGradient>
		<path fill="url(#SVGID_7_)" d="M31.108,543.664c4.536-12.228,10.16-28.145,14.928-34.763c2.419-3.363,16.924-14.718,24.226-22.119
			c7.904-8.021,14.361-13.053,16.441-15.989c8.839-12.454,15.511-45.107,16.21-72.494c7.373-8.429,41.611-3.69,46.35,19.485
			c4.314,21.084-7.725,65.66-16.852,87.432c0,0,19.459-0.03,20.537,4.743C150.315,510.691,59.874,536.208,31.108,543.664z"/>
		<linearGradient id="SVGID_8_" gradientUnits="userSpaceOnUse" x1="78.4302" y1="460.2593" x2="212.8103" y2="498.5742">
			<stop  offset="6.030000e-006" style="stop-color:#EAAD60"/>
			<stop  offset="0.0699" style="stop-color:#F0B96F"/>
			<stop  offset="0.2001" style="stop-color:#F8CB86"/>
			<stop  offset="0.3229" style="stop-color:#FDD694"/>
			<stop  offset="0.43" style="stop-color:#FFDA99"/>
		</linearGradient>
		<path fill="url(#SVGID_8_)" d="M105.194,405.67c1.057,13.167-2.105,46.877-6.318,69.524
			c-14.22,15.273-26.007,28.725-32.653,59.512c36.188-9.997,84.923-24.245,86.726-24.749c-1.078-4.773-20.537-4.743-20.537-4.743
			c9.127-21.772,21.166-66.348,16.852-87.432c-3.217-15.729-20.014-22.945-32.783-23.334
			C111.518,394.083,105.194,399.351,105.194,405.67z"/>
	</g>
	<g>
		<path fill="#944D09" d="M1.44,546.825c18.957-5.266,43.715-13.166,43.715-13.166s8.953-12.643,23.7-25.286
			c15.248-13.071,27.812-19.8,35.288-22.292c37.566,1.753,58.281-1.057,99.017,5.967c19.297,48.748,30.959,112.641,21.066,187.5
			c-2.457,18.61-11.234,38.625-15.801,45.997c-20.361,14.747-65.835,20.019-87.431,18.962c-27.91-2.634-68.82-12.639-81.106-17.558
			C44.098,715.011,53.583,615.117,1.44,546.825z"/>
		<linearGradient id="SVGID_9_" gradientUnits="userSpaceOnUse" x1="11.9976" y1="754.7012" x2="83.1893" y2="665.5078">
			<stop  offset="0" style="stop-color:#D4984C"/>
			<stop  offset="1" style="stop-color:#EAAD60"/>
		</linearGradient>
		<path fill="url(#SVGID_9_)" d="M129.776,734.326c-41.903,0-81.459-15.449-100.421-21.067
			C9.339,693.239-12.78,613.185,8.988,558.059c21.066-18.262,83.954-59.964,94.101-60.392c38.193,1.3,70.592,1.396,107.442,7.724
			c8.957,54.685,4.57,185.391-10.533,214.186C192.978,724.144,160.672,731.516,129.776,734.326z"/>
		<linearGradient id="SVGID_10_" gradientUnits="userSpaceOnUse" x1="142.8643" y1="614.6533" x2="-90.0317" y2="595.5287">
			<stop  offset="6.030000e-006" style="stop-color:#EAAD60"/>
			<stop  offset="0.394" style="stop-color:#F1BC74"/>
			<stop  offset="1" style="stop-color:#FFDA99"/>
		</linearGradient>
		<path fill="url(#SVGID_10_)" d="M178.244,726.618c10.643-2.47,18.66-5.033,21.754-7.042c15.104-28.794,19.49-159.5,10.533-214.186
			c-36.851-6.328-69.249-6.424-107.442-7.724c-10.146,0.428-73.034,42.13-94.101,60.392c-19.662,49.858,7.728,125.704,25.633,146.77
			c12.639,7.373,55.126,22.82,93.052,24.929C148.034,730.111,161.934,728.84,178.244,726.618z"/>
		<linearGradient id="SVGID_11_" gradientUnits="userSpaceOnUse" x1="231.6777" y1="590.4712" x2="80.8749" y2="619.1961">
			<stop  offset="6.030000e-006" style="stop-color:#EAAD60"/>
			<stop  offset="1" style="stop-color:#FFDA99"/>
		</linearGradient>
		<path fill="url(#SVGID_11_)" d="M210.531,505.391c-36.851-6.328-67.669-14.152-105.86-15.453c-0.189,0.009-0.42,0.05-0.633,0.084
			c-3.271,61.726,39.957,145.986,23.635,193.388c3.508,23.524,3.508,36.867,0.699,46.001c10.533,1.047,58.636-3.515,72.683-9.486
			c3.861-7.724,9.828-22.82,11.938-35.463C219.638,644.58,219.072,557.526,210.531,505.391z"/>
		<path fill="#944D09" d="M124.686,559.464c6.143,2.104,81.282-9.834,93.22-9.481c6.32,1.58,17.029,8.248,21.422,10.18
			c5.619,12.643,6.67,40.559,0.697,59.869c-2.104,3.162-4.736,5.794-4.736,5.794s3.686,3.162,3.686,6.844
			c0.877,17.91-3.51,46.176-11.586,50.387c-28.439,8.78-72.331,11.942-86.378,10.533
			C136.795,683.058,126.262,576.317,124.686,559.464z"/>
		<linearGradient id="SVGID_12_" gradientUnits="userSpaceOnUse" x1="302.5703" y1="623.8569" x2="75.5005" y2="628.3093">
			<stop  offset="6.030000e-006" style="stop-color:#EAAD60"/>
			<stop  offset="0.4705" style="stop-color:#F5C47D"/>
			<stop  offset="0.9989" style="stop-color:#FFDA99"/>
		</linearGradient>
		<path fill="url(#SVGID_12_)" d="M129.071,692.19c-11.232-18.261-11.232-45.648-10.709-58.992
			c-7.371-17.905-14.568-44.944-9.654-66.711c8.43,0,16.502,2.981,16.502,2.981s48.193-8.429,69.874-8.601
			c6.498,2.545,26.861,5.708,31.6,7.023c7.377,11.851,6.324,32.301,2.109,49.86c-2.805,4.562-16.852,7.724-16.852,7.724
			s7.02,2.104,14.047,2.809c3.51,12.638,2.104,37.924-6.322,48.458C198.597,685.867,141.709,693.239,129.071,692.19z"/>
		<path fill="#944D09" d="M139.081,629.514c-2.461,0.524,0.525,2.108,3.334,2.805c28.791,3.162,70.226-0.696,86.378-4.562
			c1.229-2.629,3.158-6.668,4.039-9.477C217.207,624.247,168.749,629.685,139.081,629.514z"/>
		<path fill="#944D09" d="M129.776,568.245c-1.758-0.353-7.725-3.515-9.133-3.515c0.965,4.038-0.523,10.27,1.057,17.905
			C124.51,575.617,128.719,570.35,129.776,568.245z"/>
		<path fill="#944D09" d="M100.985,487.134c18.959-4.567,76.546-5.62,94.099-4.215c10.273,2.106,28.355,7.02,34.938,11.238
			c7.729,11.146,10.709,53.717,2.281,72.68c-10.445,4.302-32.477,9.128-39.324,9.128c-6.842,0-61.097-3.334-72.159-4.739
			C111.694,562.449,89.217,526.811,100.985,487.134z"/>
		<linearGradient id="SVGID_13_" gradientUnits="userSpaceOnUse" x1="301.2954" y1="534.2427" x2="81.4823" y2="529.796">
			<stop  offset="6.030000e-006" style="stop-color:#EAAD60"/>
			<stop  offset="0.9726" style="stop-color:#FED997"/>
			<stop  offset="1" style="stop-color:#FFDA99"/>
		</linearGradient>
		<path fill="url(#SVGID_13_)" d="M196.316,566.836c0,0-71.983,2.104-86.907,1.056c-4.037-14.571-15.1-50.21-1.404-70.225
			c22.125-3.162,76.722-4.567,84.62-2.721c5.795,1.845,22.912,8.16,28.18,11.851c4.738,13.426,0.529,46.344-3.949,54.512
			C211.324,563.414,196.316,566.836,196.316,566.836z"/>
		<linearGradient id="SVGID_14_" gradientUnits="userSpaceOnUse" x1="266.9204" y1="536.8975" x2="185.5681" y2="529.8234">
			<stop  offset="6.030000e-006" style="stop-color:#EAAD60"/>
			<stop  offset="0.9726" style="stop-color:#FED997"/>
			<stop  offset="1" style="stop-color:#FFDA99"/>
		</linearGradient>
		<path fill="url(#SVGID_14_)" d="M221.064,504.338c-5.266-3.69-19.223-8.076-28.967-9.658c14.924,14.22,10.709,61.269,4.395,71.803
			c8.953-0.524,19.307-2.81,25.629-4.915C227.388,546.122,227.849,516.625,221.064,504.338z"/>
	</g>
</g>
</svg>
