<?xml version="1.0" encoding="utf-8"?>
<!-- Generator: Adobe Illustrator 15.0.0, SVG Export Plug-In . SVG Version: 6.00 Build 0)  -->
<!DOCTYPE svg PUBLIC "-//W3C//DTD SVG 1.1//EN" "http://www.w3.org/Graphics/SVG/1.1/DTD/svg11.dtd">
<svg version="1.1" id="_x30_1_1_" xmlns="http://www.w3.org/2000/svg" xmlns:xlink="http://www.w3.org/1999/xlink" x="0px" y="0px"
	 width="1019.454px" height="1003.844px" viewBox="0 0 1019.454 1003.844" enable-background="new 0 0 1019.454 1003.844"
	 xml:space="preserve">
<g id="Fluo_x5F_Tshirt_4_">
	<g>
		<path fill="#93AB20" d="M916.042,126.67c37.93,18.25,95.184,84.45,98.043,154.583c1.434,67.271,3.936,174.622,5.369,214.697
			c-35.783,24.332-102.34,29.343-152.435,19.323C875.607,458.379,914.612,168.178,916.042,126.67z"/>
		<path fill="#DBF74A" d="M904.217,507.771c-9.334,0-17.963-0.528-25.773-1.57c-6.922-53.879,18.137-190.959,35.021-283.316
			c5.59-30.579,10.184-55.704,12.877-73.427c33.105,26.086,72.596,75.138,74.863,130.722c0.842,39.638,4.26,192.974,5.369,209.331
			C979.872,504.52,946.313,507.771,904.217,507.771z"/>
	</g>
	<g>
		<path fill="#93AB20" d="M227.578,70.849C270.518,62.262,461.24,10.734,473.047,0c57.969,90.172,257.284,102.696,275.53,13.596
			c33.279,26.836,133.472,92.679,177.482,117.369c11.283,20.64,1.518,49.984,7.516,78.365
			c24.313,74.604,28.273,191.262-13.238,338.148c-6.131,192.288,10.496,360.955,13.238,398.265
			c-18.609,45.802-388.247,111.643-600.08-17.176c5.724-52.957,32.563-188.575,13.955-310.238
			C275.885,498.097,177.125,312.385,227.578,70.849z"/>
		<path fill="#B7D130" d="M660.118,990.603c-87.475,0-211.317-12.14-309.984-69.2c1.009-7.999,2.345-17.437,3.826-27.917
			c9.335-65.976,22.266-175.549,6.752-276.969l-0.38-2.482l-1.283-2.158C299.075,511.118,190.702,323.681,238.178,80.58
			c42.965-9.729,185.234-46.055,230.58-64.395c37.72,48.331,110.807,70.091,169.405,70.091c58.184,0,101.693-19.956,118.955-53.243
			c39.429,30.847,115.179,87.095,158.604,106.863c50.057,98.417,41.74,228.85-7.78,404.078l-0.43,1.519l-0.051,1.575
			c-5.389,168.988,13.968,392.331,14.306,396.528C907.65,959.618,802.969,990.603,660.118,990.603z"/>
		<path fill="#DBF74A" d="M907.461,547.068l0.051-1.575l0.43-1.519c49.521-175.229,63.923-302.799,7.78-404.078
			C872.297,120.128,796.547,63.88,757.118,33.034c-17.262,33.287-60.771,53.243-118.955,53.243
			c-58.598,0-131.685-21.76-169.405-70.091c-38.786,15.687-148.434,44.519-206.244,58.625
			c-1.453,89.567,7.467,179.073,36.629,266.558c30.058,94.467,107.349,167.465,128.819,270.521
			c26.549,117.567-3.828,228.436-8.332,341.481c82.897,29.911,172.633,37.232,240.488,37.232
			c142.851,0,247.532-30.984,261.648-47.007C921.429,939.398,902.072,716.056,907.461,547.068z"/>
		<g>
			<path fill="#93AB20" d="M633.2,127.048c-1.148,0-2.297-0.006-3.459-0.019c-97.918-1.101-195.215-77.092-198.538-106.27
				l6.399-0.729c3.057,26.831,99.239,99.514,192.211,100.558c93.42,1.016,142.953-43.819,148.148-76.016l6.355,1.027
				C779.2,77.332,733.64,127.048,633.2,127.048z"/>
		</g>
		<path fill="#B7D130" d="M312.026,416.513c77.291,89.458,324.193,133.112,412.219,122.378
			c-118.084,42.939-280.539,33.637-323.479,31.49C362.12,516.706,327.054,437.982,312.026,416.513z"/>
		<linearGradient id="SVGID_1_" gradientUnits="userSpaceOnUse" x1="281.582" y1="395.3276" x2="676.6251" y2="282.2553">
			<stop  offset="0" style="stop-color:#949FA1"/>
			<stop  offset="1" style="stop-color:#B7C6C9"/>
		</linearGradient>
		<path fill="url(#SVGID_1_)" d="M912.859,449.995c5.358-117.388,6.589-260.012-25.443-325.827
			c-27.322-16.158-59.191-39.034-87.311-59.759c33.045,82.162,30.193,254.468,27.27,393.792
			c-91.243,5.562-211.062,4.771-329.077-6.531c-3.923-144.385-25.082-340.027-81.786-418.751
			c-26.913,8.055-58.477,16.457-88.386,24.333c59.76,117.446,65.041,273.297,67.664,381.669
			c-47.14-7.349-92.458-16.686-133.816-28.313c13.053,38.811,28.49,74.123,44.151,105.69
			c192.998,52.752,469.195,61.495,603.478,24.023c9.265-32.974,17.22-63.697,23.435-93.573
			C926.8,447.883,920.044,448.965,912.859,449.995z"/>
		<linearGradient id="SVGID_2_" gradientUnits="userSpaceOnUse" x1="363.1338" y1="794.709" x2="913.9834" y2="794.709">
			<stop  offset="0" style="stop-color:#949FA1"/>
			<stop  offset="1" style="stop-color:#B7C6C9"/>
		</linearGradient>
		<path fill="url(#SVGID_2_)" d="M367.132,719.596c0.002,30.822-1.621,60.796-3.998,88.433
			c161.74,74.383,404.318,82.296,550.85,20.032c-1.562-26.684-3.183-56.542-4.427-87.891
			C783.958,794.918,501.256,779.356,367.132,719.596z"/>
		<path fill="#868F98" d="M367.132,719.596c0.002,30.822-1.621,60.796-3.998,88.433c21.213,9.755,43.857,18.33,67.479,25.777
			c2.265-29.836,4.985-60.04,6.809-90.227C411.275,736.664,387.462,728.653,367.132,719.596z"/>
		<path fill="#868F98" d="M499.302,552.169c-42.394-11.609-81.078-26.714-116.63-46.444c-15.329-24.691-29.118-50.261-41.921-76.519
			c-27.4-5.412-53.825-11.582-78.776-18.598c13.053,38.811,28.49,74.123,44.151,105.69c30.799,8.418,63.769,15.696,97.955,21.847
			c-0.013-0.018-0.024-0.037-0.04-0.056C434.339,543.817,465.95,548.317,499.302,552.169z"/>
	</g>
	<g>
		<path fill="#93AB20" d="M0,344.229c46.158,37.572,210.402,100.194,231.872,104.487c15.902-29.352,51.527-124.524,62.979-233.305
			c18.607-77.292,21.826-119.155,23.257-139.91c-72.638-31.49-159.591,7.156-200.384,84.447
			C76.931,245.828,15.027,322.761,0,344.229z"/>
		<path fill="#DBF74A" d="M226.145,432.973c-38.79-12.636-156.864-56.378-207.54-90.172c2.438-3.081,78.13-108.746,110.636-177.071
			c29.409-55.491,94.415-94.224,158.185-94.224c11.133,0,21.848,1.213,31.946,3.617
			C331.188,126.017,257.627,363.798,226.145,432.973z"/>
	</g>
</g>
<g>
	<g>
		<path fill="#944D09" d="M135.906,490.223c6.844-14.749,19.31-51.263,26.683-59.516c4.314-4.826,35.815-30.548,41.786-41.787
			c6.32-10.533,10.005-37.391,12.462-66.712c4.74-19.486,64.285-13.43,67.594,25.635c3.508,41.43-14.396,85.673-23.879,107.44
			C248.967,458.974,144.331,487.061,135.906,490.223z"/>
		<linearGradient id="SVGID_3_" gradientUnits="userSpaceOnUse" x1="174.939" y1="388.748" x2="238.1409" y2="409.2887">
			<stop  offset="0" style="stop-color:#D4984C"/>
			<stop  offset="1" style="stop-color:#EAAD60"/>
		</linearGradient>
		<path fill="url(#SVGID_3_)" d="M155.565,471.789c4.536-12.228,10.16-28.145,14.928-34.763
			c2.418-3.363,16.924-14.718,24.226-22.119c7.904-8.021,14.361-13.053,16.441-15.989c8.839-12.454,15.511-45.107,16.209-72.494
			c7.374-8.429,41.612-3.69,46.35,19.485c4.314,21.084-7.725,65.66-16.852,87.432c0,0,19.459-0.03,20.537,4.743
			C274.772,438.817,184.331,464.333,155.565,471.789z"/>
		<linearGradient id="SVGID_4_" gradientUnits="userSpaceOnUse" x1="202.8872" y1="388.3848" x2="337.2664" y2="426.6995">
			<stop  offset="6.030000e-006" style="stop-color:#EAAD60"/>
			<stop  offset="0.0699" style="stop-color:#F0B96F"/>
			<stop  offset="0.2001" style="stop-color:#F8CB86"/>
			<stop  offset="0.3229" style="stop-color:#FDD694"/>
			<stop  offset="0.43" style="stop-color:#FFDA99"/>
		</linearGradient>
		<path fill="url(#SVGID_4_)" d="M229.651,333.795c1.057,13.167-2.105,46.877-6.318,69.524
			c-14.22,15.273-26.007,28.725-32.653,59.512c36.188-9.997,84.923-24.245,86.726-24.749c-1.078-4.773-20.537-4.743-20.537-4.743
			c9.127-21.772,21.166-66.348,16.852-87.432c-3.217-15.729-20.014-22.945-32.783-23.334
			C235.975,322.208,229.651,327.476,229.651,333.795z"/>
	</g>
	<g>
		<path fill="#944D09" d="M125.897,474.95c18.957-5.266,43.715-13.166,43.715-13.166s8.953-12.643,23.7-25.286
			c15.248-13.071,27.812-19.8,35.288-22.292c37.566,1.753,58.281-1.057,99.016,5.967c19.297,48.748,30.959,112.641,21.067,187.5
			c-2.458,18.61-11.234,38.625-15.801,45.997c-20.362,14.747-65.835,20.019-87.431,18.962c-27.91-2.634-68.82-12.639-81.106-17.558
			C168.555,643.136,178.04,543.243,125.897,474.95z"/>
		<linearGradient id="SVGID_5_" gradientUnits="userSpaceOnUse" x1="136.4541" y1="682.8262" x2="207.6457" y2="593.6329">
			<stop  offset="0" style="stop-color:#D4984C"/>
			<stop  offset="1" style="stop-color:#EAAD60"/>
		</linearGradient>
		<path fill="url(#SVGID_5_)" d="M254.233,662.451c-41.903,0-81.459-15.449-100.421-21.067
			c-20.016-20.019-42.135-100.074-20.367-155.199c21.066-18.262,83.954-59.964,94.101-60.392c38.193,1.3,70.592,1.396,107.442,7.724
			c8.957,54.685,4.571,185.391-10.533,214.186C317.436,652.27,285.129,659.641,254.233,662.451z"/>
		<linearGradient id="SVGID_6_" gradientUnits="userSpaceOnUse" x1="267.3208" y1="542.7788" x2="34.4254" y2="523.6542">
			<stop  offset="6.030000e-006" style="stop-color:#EAAD60"/>
			<stop  offset="0.394" style="stop-color:#F1BC74"/>
			<stop  offset="1" style="stop-color:#FFDA99"/>
		</linearGradient>
		<path fill="url(#SVGID_6_)" d="M302.7,654.744c10.643-2.47,18.66-5.033,21.754-7.042c15.104-28.794,19.49-159.5,10.533-214.186
			c-36.85-6.328-69.249-6.424-107.442-7.724c-10.146,0.428-73.034,42.13-94.101,60.392c-19.662,49.858,7.728,125.704,25.632,146.77
			c12.639,7.373,55.126,22.82,93.052,24.929C272.491,658.237,286.391,656.966,302.7,654.744z"/>
		<linearGradient id="SVGID_7_" gradientUnits="userSpaceOnUse" x1="356.1343" y1="518.5962" x2="205.3317" y2="547.321">
			<stop  offset="6.030000e-006" style="stop-color:#EAAD60"/>
			<stop  offset="1" style="stop-color:#FFDA99"/>
		</linearGradient>
		<path fill="url(#SVGID_7_)" d="M334.987,433.517c-36.85-6.328-67.668-14.152-105.86-15.453c-0.189,0.009-0.42,0.05-0.633,0.084
			c-3.271,61.726,39.957,145.986,23.635,193.388c3.508,23.524,3.508,36.867,0.699,46.001c10.534,1.047,58.636-3.515,72.683-9.486
			c3.862-7.724,9.829-22.82,11.938-35.463C344.096,572.705,343.529,485.652,334.987,433.517z"/>
		<path fill="#944D09" d="M249.143,487.59c6.142,2.104,81.283-9.834,93.22-9.481c6.32,1.58,17.029,8.248,21.421,10.18
			c5.619,12.643,6.671,40.559,0.698,59.869c-2.104,3.162-4.737,5.794-4.737,5.794s3.686,3.162,3.686,6.844
			c0.877,17.91-3.509,46.176-11.586,50.387c-28.438,8.78-72.331,11.942-86.377,10.533
			C261.252,611.184,250.719,504.443,249.143,487.59z"/>
		<linearGradient id="SVGID_8_" gradientUnits="userSpaceOnUse" x1="427.0273" y1="551.9824" x2="199.9576" y2="556.4348">
			<stop  offset="6.030000e-006" style="stop-color:#EAAD60"/>
			<stop  offset="0.4705" style="stop-color:#F5C47D"/>
			<stop  offset="0.9989" style="stop-color:#FFDA99"/>
		</linearGradient>
		<path fill="url(#SVGID_8_)" d="M253.528,620.316c-11.232-18.261-11.232-45.648-10.709-58.992
			c-7.371-17.905-14.568-44.944-9.654-66.711c8.43,0,16.502,2.981,16.502,2.981s48.193-8.429,69.874-8.601
			c6.499,2.545,26.862,5.708,31.601,7.023c7.376,11.851,6.323,32.301,2.109,49.86c-2.806,4.562-16.853,7.724-16.853,7.724
			s7.02,2.104,14.047,2.809c3.51,12.638,2.104,37.924-6.322,48.458C323.054,613.993,266.167,621.365,253.528,620.316z"/>
		<path fill="#944D09" d="M263.538,557.639c-2.461,0.524,0.525,2.108,3.334,2.805c28.791,3.162,70.225-0.696,86.378-4.562
			c1.229-2.629,3.157-6.668,4.038-9.477C341.663,552.372,293.206,557.811,263.538,557.639z"/>
		<path fill="#944D09" d="M254.233,496.371c-1.758-0.353-7.725-3.515-9.133-3.515c0.965,4.038-0.523,10.27,1.057,17.905
			C248.967,503.742,253.176,498.475,254.233,496.371z"/>
		<path fill="#944D09" d="M225.442,415.259c18.959-4.567,76.545-5.62,94.098-4.215c10.273,2.106,28.355,7.02,34.938,11.238
			c7.728,11.146,10.709,53.717,2.281,72.68c-10.445,4.302-32.478,9.128-39.324,9.128c-6.843,0-61.097-3.334-72.16-4.739
			C236.151,490.575,213.674,454.936,225.442,415.259z"/>
		<linearGradient id="SVGID_9_" gradientUnits="userSpaceOnUse" x1="425.7524" y1="462.3677" x2="205.9402" y2="457.921">
			<stop  offset="6.030000e-006" style="stop-color:#EAAD60"/>
			<stop  offset="0.9726" style="stop-color:#FED997"/>
			<stop  offset="1" style="stop-color:#FFDA99"/>
		</linearGradient>
		<path fill="url(#SVGID_9_)" d="M320.772,494.962c0,0-71.983,2.104-86.907,1.056c-4.038-14.571-15.1-50.21-1.404-70.225
			c22.125-3.162,76.721-4.567,84.621-2.721c5.795,1.845,22.912,8.16,28.179,11.851c4.739,13.426,0.529,46.344-3.949,54.512
			C335.78,491.54,320.772,494.962,320.772,494.962z"/>
		<linearGradient id="SVGID_10_" gradientUnits="userSpaceOnUse" x1="391.377" y1="465.0229" x2="310.0258" y2="457.949">
			<stop  offset="6.030000e-006" style="stop-color:#EAAD60"/>
			<stop  offset="0.9726" style="stop-color:#FED997"/>
			<stop  offset="1" style="stop-color:#FFDA99"/>
		</linearGradient>
		<path fill="url(#SVGID_10_)" d="M345.521,432.464c-5.267-3.69-19.223-8.076-28.967-9.658c14.923,14.22,10.709,61.269,4.394,71.803
			c8.953-0.524,19.307-2.81,25.63-4.915C351.845,474.247,352.307,444.75,345.521,432.464z"/>
	</g>
</g>
</svg>
