<?xml version="1.0" encoding="utf-8"?>
<!-- Generator: Adobe Illustrator 15.0.0, SVG Export Plug-In . SVG Version: 6.00 Build 0)  -->
<!DOCTYPE svg PUBLIC "-//W3C//DTD SVG 1.1//EN" "http://www.w3.org/Graphics/SVG/1.1/DTD/svg11.dtd">
<svg version="1.1" id="_x30_1_1_" xmlns="http://www.w3.org/2000/svg" xmlns:xlink="http://www.w3.org/1999/xlink" x="0px" y="0px"
	 width="843.999px" height="1127.011px" viewBox="0 0 843.999 1127.011" enable-background="new 0 0 843.999 1127.011"
	 xml:space="preserve">
<g>
	<g>
		<g>
			<g>
				<path fill="#93AB20" d="M161.768,998.315c8.439,36.85,9.795,62.352,19.717,77.963c79.566,51.205,457.124,82.135,621.039,0.434
					c12.234-8.373,20.215-56.32,23.123-77.561C750.203,1003.194,211.592,997.042,161.768,998.315z"/>
				<path fill="#B7D130" d="M494.59,1112.546c-130.87-0.363-259.932-19.771-303.624-45.424c-4.509-8.664-7.007-22.146-10.095-38.826
					c-0.998-5.385-2.074-11.178-3.309-17.359c3.01,0,6.379,0,10.086,0.012c37.741,0.105,107.536,0.834,188.362,1.68
					c110.487,1.152,235.723,2.469,328.059,2.719c48.443,0.137,82.581-0.039,103.409-0.533c-2.201,15.768-4.98,32.828-10.229,49.855
					C731.13,1095.921,624.005,1112.901,494.59,1112.546z"/>
				<path fill="#DBF74A" d="M245.939,1058.747c-0.025,8.496,3.151,18.068,5.952,29.605c61.166,14.424,151.474,23.941,242.699,24.193
					c129.415,0.355,236.54-16.625,302.66-47.877c9.707-14.541,10.313-35.705,10.229-49.855
					C582.05,1117.03,282.22,1064.155,245.939,1058.747z"/>
			</g>
			<polygon fill="#333333" points="563.831,1067.747 564.372,1111.71 584.457,1110.083 582.828,1067.202 			"/>
		</g>
		<polygon fill="#333333" points="564.372,1105.739 558.557,1126.544 589.341,1123.657 583.371,1104.659 		"/>
	</g>
	<g>
		<g id="Fluo_body-warmer_6_">
			<g>
				<path fill="#93AB20" d="M100.254,117.251c10.313-4.342,210.788-57.832,218.938-59.348
					c16.496,35.889,83.078,127.146,187.18,144.332c27.307,137.496,76.233,633.408,71.681,869.982
					c-126.29,10.109-369.779-6.645-423.519-47.355c-6.514-5.969-9.488-18.533-10.313-25.512
					c-14.414-122.23-27.76-370.084-26.598-517.317c39.082-87.933,40.168-230.16-10.857-346.864
					C104.92,130.94,94.825,121.055,100.254,117.251z"/>
				<path fill="#B7D130" d="M169.192,1018.894c-8.143-4.344-9.627-17.398-10.313-23.348
					c-14.133-121.77-28.156-366.445-27.143-513.512c35.484-81.836,45.6-230.16-14.113-357.18
					c40.625-11.085,161.822-44.439,195.209-53.072c10.745,19.707,30.915,48.002,58.977,74.054
					c37.351,34.677,88.123,56.819,132.307,65.87c13.439,72.117,34.49,223.802,48.855,386.496
					c16.587,187.862,14.555,357.319,13.309,462.866C538.442,1065.69,282.236,1068.405,169.192,1018.894z"/>
				<linearGradient id="SVGID_1_" gradientUnits="userSpaceOnUse" x1="150.772" y1="372.3101" x2="444.6183" y2="350.3813">
					<stop  offset="0" style="stop-color:#949FA1"/>
					<stop  offset="1" style="stop-color:#B7C6C9"/>
				</linearGradient>
				<path fill="url(#SVGID_1_)" d="M547.333,530.817c-54.045,2.682-109.39,3.887-164.104,3.719
					c-6.134-148.039-49.56-371.684-96.246-456.364c-20.962,5.694-89.834,24.356-94.45,25.507
					c54.283,104.226,81.81,314.041,85.767,426.121c-56.614-0.256-98.793,2.176-147.104-1.627
					c-0.277,22.665,2.17,76.676,2.711,91.737c100.121,12.141,286.568,13.024,420.061,6.283
					C553.211,593.836,551.311,560.135,547.333,530.817z"/>
				<linearGradient id="SVGID_2_" gradientUnits="userSpaceOnUse" x1="140.4204" y1="854.3926" x2="589.9233" y2="854.3926">
					<stop  offset="0" style="stop-color:#949FA1"/>
					<stop  offset="1" style="stop-color:#B7C6C9"/>
				</linearGradient>
				<path fill="url(#SVGID_2_)" d="M589.923,910.825c-0.346-24.559-2.807-70.09-3.299-99.836
					c-80.188,4.193-306.55,11.619-446.204-18.457c0,4.211,7.057,87.936,7.6,93.908C253.33,916.298,480.231,922.267,589.923,910.825z
					"/>
				<path fill="#DBF74A" d="M552.971,598.202c-14.365-162.694-35.416-314.379-48.855-386.496
					c-44.184-9.051-94.956-31.193-132.307-65.87c-28.062-26.052-48.231-54.347-58.977-74.054
					c-33.387,8.633-154.584,41.987-195.209,53.072c34.998,74.45,46.002,156.213,41.975,227.622
					c6.963,139.194,15.559,278.017,26.418,418.344c3.259,53.197,6.517,105.304,16.289,159.589c1.084,5.43,2.17,10.859,3.259,16.283
					c5.287,30.229,9.533,63.078,21.874,90.881c125.482,29.992,315.113,27.438,338.842,23.494
					C567.526,955.521,569.558,786.064,552.971,598.202z"/>
				<linearGradient id="SVGID_3_" gradientUnits="userSpaceOnUse" x1="150.5649" y1="373.7271" x2="444.7256" y2="351.7748">
					<stop  offset="0" style="stop-color:#949FA1"/>
					<stop  offset="1" style="stop-color:#B7C6C9"/>
				</linearGradient>
				<path fill="url(#SVGID_3_)" d="M547.333,530.817c-54.045,2.682-109.39,3.887-164.104,3.719
					c-6.134-148.039-49.56-371.684-96.246-456.364c-20.962,5.694-89.834,24.356-94.45,25.507
					c54.283,104.226,81.81,314.041,85.767,426.121c-56.614-0.256-98.793,2.176-147.104-1.627c-0.277,22.665,2.17,81.38,2.711,96.447
					c100.121,12.126,287.021,11.079,420.51,4.343C553.661,596.607,551.311,560.135,547.333,530.817z"/>
				<linearGradient id="SVGID_4_" gradientUnits="userSpaceOnUse" x1="140.4204" y1="854.3926" x2="589.9233" y2="854.3926">
					<stop  offset="0" style="stop-color:#949FA1"/>
					<stop  offset="1" style="stop-color:#B7C6C9"/>
				</linearGradient>
				<path fill="url(#SVGID_4_)" d="M589.923,910.825c-0.346-24.559-2.807-70.09-3.299-99.836
					c-80.188,4.193-306.55,11.619-446.204-18.457c0,4.211,7.057,87.936,7.6,93.908C253.33,916.298,480.231,922.267,589.923,910.825z
					"/>
				<path fill="#868F98" d="M131.196,528.173c-0.277,22.665,2.17,81.38,2.711,96.447c12.652,1.531,26.693,2.851,41.832,3.979
					c-2.217-32.88-4.318-65.722-6.316-98.537C156.856,529.771,144.247,529.199,131.196,528.173z"/>
				<path fill="#868F98" d="M140.42,792.532c0,4.211,7.057,87.936,7.6,93.908c14.303,4.053,30.865,7.664,49.055,10.855
					c-4.469-32.426-7.047-64.307-9.162-96.356C171.286,798.529,155.354,795.744,140.42,792.532z"/>
			</g>
			<g>
				<path fill="#93AB20" d="M661.671,92.033c-6.826,83.919-71.674,98.071-112.636,110.203
					c-0.979,25.246,7.111,185.559,11.379,362.957c5.645,234.614,8.187,497.985,9.485,507.194
					c94.047-2.689,230.239-31.117,261.651-50.656c11.402-10.855,10.352-29.832,9.775-42.34
					c-5.434-116.707,0.176-368.741,1.627-433.151c1.445-64.417,8.695-292.696-50.482-377.798
					C743.552,138.116,684.425,108.21,661.671,92.033z"/>
				<path fill="#DBF74A" d="M582.773,1059.731c-4.727-96.295-30.657-759.23-30.321-855.473
					c38.321-10.947,86.749-34.584,102.394-103.124c11.697,7.107,43.283,27.94,58.877,36.891
					c20.592,11.809,49.298,27.146,71.038,40.568c50.498,88.311,47.223,295.84,44.508,361.523
					c-2.711,65.591-2.713,330.037-1.084,448.376c0.145,10.521-2.715,23.883-21.172,30.939
					C770.618,1035.698,669.246,1055.38,582.773,1059.731z"/>
				<linearGradient id="SVGID_5_" gradientUnits="userSpaceOnUse" x1="317.6777" y1="366.2031" x2="792.1019" y2="375.9182">
					<stop  offset="0" style="stop-color:#949FA1"/>
					<stop  offset="1" style="stop-color:#B7C6C9"/>
				</linearGradient>
				<path fill="url(#SVGID_5_)" d="M788.254,515.516c2.473-100.792-7.836-267.984-26.834-350.492
					c-19.411-11.787-74.429-44.894-80.341-48.312c22.797,141.673,24.967,327.325,22.908,405.96
					c-47.98,3.615-96.166,6.405-141.866,7.64c0.328,29.751,4.123,64.545,4.6,97.924c112.05-4.876,216.732-16.091,261.283-22.801
					c1.105-23.139,2.17-73.097,2.531-93.724C819.51,512.817,799.538,514.451,788.254,515.516z"/>
				<linearGradient id="SVGID_6_" gradientUnits="userSpaceOnUse" x1="218.5464" y1="886.0244" x2="963.7164" y2="827.5797">
					<stop  offset="0" style="stop-color:#949FA1"/>
					<stop  offset="1" style="stop-color:#B7C6C9"/>
				</linearGradient>
				<path fill="url(#SVGID_6_)" d="M827.098,783.844c-73.165,10.992-174.669,24.56-255.667,27.145
					c0.564,30.242,4.543,76.857,5.063,100.963c75.635-4.342,175.52-14.471,251.146-32.295
					C828.184,854.144,827.098,799.587,827.098,783.844z"/>
			</g>
		</g>
		<g>
			<path fill="#93AB20" d="M512.631,219.423c-3.813-39.094-13.52-70.774-14.559-77.846c-3.119-15.168-29.822-25.433-48.863-33.367
				c-66.86-27.86-89.484-72.38-92.473-87.579C355.053,12.064,357.55,0.277,355.382,0c-13.031,10.136-34.056,50.583-42.378,66.76
				C314.896,92.639,399.993,206.284,512.631,219.423z"/>
			<path fill="#DBF74A" d="M501.887,212.012c-99.121-6.405-171.21-88.636-175.932-143.482c1.852-3.941,13.05-26.095,23.183-38.398
				c6.244,25.512,29.634,61.927,95.157,89.229l2.204,0.922c12.794,5.312,36.358,13.036,38.407,21.294
				C487.331,146.296,499.051,185.504,501.887,212.012z"/>
		</g>
		<g>
			<path fill="#93AB20" d="M544.487,218.076c-0.379-23.592-2.648-87.632,1.137-92.675c4.551-6.07,32.995-14.83,47.026-28.984
				c21.131-21.319,25.047-38.006,26.184-70.358c18.205-4.046,38.285,58.897,47.389,76.087
				C665.087,117.309,632.662,194.316,544.487,218.076z"/>
			<path fill="#DBF74A" d="M555.866,208.98c-0.377-20.898-2.275-73.471,1.898-76.163c10.618-5.057,32.599-16.05,40.198-23.593
				c16.92-16.807,27.158-37.08,30.336-58.304c6.701,12.255,24.615,54.268,26.547,58.304
				C658.259,138.542,630.953,192.129,555.866,208.98z"/>
		</g>
		<g>
			<g>
				<path fill="#333333" d="M563.831,1073.714c-0.066-3.857-5.811-392.275-16.658-514.283l18.145-1.275
					c10.897,122.514,18.526,510.068,18.597,513.93L563.831,1073.714z"/>
			</g>
			<g>
				<path fill="#333333" d="M547.93,569.369c-1.365-10.42-4.555-36.059-8.697-69.349c-12.539-100.722-35.877-288.208-40.152-305.687
					l8.893-1.719c4.381,17.893,26.865,198.568,40.305,306.521c4.141,33.266,7.332,58.886,8.691,69.296L547.93,569.369z"/>
			</g>
			<g>
				<path fill="#333333" d="M566.106,567.215h-9.104c0-10.951-2.299-74.087-4.955-147.186
					c-3.676-101.14-7.846-215.775-7.176-227.103l9.09,0.426c-0.65,10.986,3.691,130.435,7.188,226.419
					C563.805,492.941,566.106,556.134,566.106,567.215z"/>
			</g>
			<path fill="#333333" d="M575.222,607.415c1.555,6.526-3.313,11.961-10.821,12.075l-6.268,0.094
				c-7.506,0.111-13.289-5.246-12.852-11.909l2.395-36.436c0.434-6.663,4.244-11.997,8.473-11.858
				c4.225,0.139,8.949,5.596,10.51,12.122L575.222,607.415z"/>
		</g>
	</g>
</g>
<g>
	<g>
		<path fill="#793F07" d="M11.452,562.098c6.843-14.749,19.305-51.263,26.678-59.516c4.318-4.826,35.819-30.548,41.79-41.787
			c6.316-10.533,10.007-37.391,12.464-66.712c4.738-19.486,64.283-13.43,67.588,25.635c3.512,41.43-14.393,85.673-23.879,107.44
			C124.51,530.849,19.872,558.936,11.452,562.098z"/>
		<linearGradient id="SVGID_7_" gradientUnits="userSpaceOnUse" x1="50.4829" y1="460.6226" x2="113.6861" y2="481.1636">
			<stop  offset="0" style="stop-color:#AD673B"/>
			<stop  offset="1" style="stop-color:#BE7A50"/>
		</linearGradient>
		<path fill="url(#SVGID_7_)" d="M31.11,543.664c4.537-12.228,10.156-28.145,14.929-34.763c2.414-3.363,16.924-14.718,24.221-22.119
			c7.908-8.021,14.365-13.053,16.445-15.989c8.839-12.454,15.507-45.107,16.212-72.494c7.371-8.429,41.605-3.69,46.344,19.485
			c4.318,21.084-7.725,65.66-16.848,87.432c0,0,19.455-0.03,20.539,4.743C150.317,510.691,59.875,536.208,31.11,543.664z"/>
		<linearGradient id="SVGID_8_" gradientUnits="userSpaceOnUse" x1="78.4312" y1="460.2593" x2="212.8164" y2="498.5757">
			<stop  offset="6.030000e-006" style="stop-color:#BE7A50"/>
			<stop  offset="0.146" style="stop-color:#CE8E5D"/>
			<stop  offset="0.2976" style="stop-color:#D99C66"/>
			<stop  offset="0.43" style="stop-color:#DDA169"/>
		</linearGradient>
		<path fill="url(#SVGID_8_)" d="M105.196,405.67c1.059,13.167-2.104,46.877-6.322,69.524
			c-14.216,15.273-26.007,28.725-32.649,59.512c36.188-9.997,84.923-24.245,86.728-24.749c-1.084-4.773-20.539-4.743-20.539-4.743
			c9.123-21.772,21.166-66.348,16.848-87.432c-3.213-15.729-20.01-22.945-32.783-23.334
			C111.52,394.083,105.196,399.351,105.196,405.67z"/>
	</g>
	<g>
		<path fill="#793F07" d="M1.438,546.825c18.962-5.266,43.72-13.166,43.72-13.166s8.948-12.643,23.7-25.286
			c15.247-13.071,27.811-19.8,35.283-22.292c37.57,1.753,58.287-1.057,99.02,5.967c19.298,48.748,30.955,112.641,21.066,187.5
			c-2.457,18.61-11.237,38.625-15.799,45.997c-20.363,14.747-65.836,20.019-87.432,18.962c-27.91-2.634-68.819-12.639-81.106-17.558
			C44.1,715.011,53.585,615.117,1.438,546.825z"/>
		<linearGradient id="SVGID_9_" gradientUnits="userSpaceOnUse" x1="11.9985" y1="754.6997" x2="83.1902" y2="665.5063">
			<stop  offset="0" style="stop-color:#AD673B"/>
			<stop  offset="1" style="stop-color:#BE7A50"/>
		</linearGradient>
		<path fill="url(#SVGID_9_)" d="M129.778,734.326c-41.907,0-81.458-15.449-100.421-21.067
			C9.337,693.239-12.778,613.185,8.986,558.059c21.066-18.262,83.958-59.964,94.106-60.392c38.191,1.3,70.59,1.396,107.44,7.724
			c8.957,54.685,4.571,185.391-10.534,214.186C192.98,724.144,160.674,731.516,129.778,734.326z"/>
		<linearGradient id="SVGID_10_" gradientUnits="userSpaceOnUse" x1="142.8652" y1="614.6528" x2="-90.0329" y2="595.5281">
			<stop  offset="6.030000e-006" style="stop-color:#BE7A50"/>
			<stop  offset="0.5466" style="stop-color:#CD8D5C"/>
			<stop  offset="1" style="stop-color:#DDA169"/>
		</linearGradient>
		<path fill="url(#SVGID_10_)" d="M178.245,726.618c10.643-2.47,18.659-5.033,21.754-7.042
			c15.105-28.794,19.491-159.5,10.534-214.186c-36.851-6.328-69.249-6.424-107.44-7.724c-10.148,0.428-73.04,42.13-94.106,60.392
			c-19.658,49.858,7.732,125.704,25.638,146.77c12.639,7.373,55.125,22.82,93.049,24.929
			C148.036,730.111,161.932,728.84,178.245,726.618z"/>
		<linearGradient id="SVGID_11_" gradientUnits="userSpaceOnUse" x1="231.6797" y1="590.4717" x2="80.8726" y2="619.1974">
			<stop  offset="6.030000e-006" style="stop-color:#BE7A50"/>
			<stop  offset="1" style="stop-color:#DDA169"/>
		</linearGradient>
		<path fill="url(#SVGID_11_)" d="M210.533,505.391c-36.851-6.328-67.673-14.152-105.864-15.453c-0.184,0.009-0.42,0.05-0.629,0.084
			c-3.271,61.726,39.953,145.986,23.633,193.388c3.506,23.524,3.506,36.867,0.697,46.001c10.533,1.047,58.639-3.515,72.687-9.486
			c3.857-7.724,9.828-22.82,11.934-35.463C219.64,644.58,219.07,557.526,210.533,505.391z"/>
		<path fill="#793F07" d="M124.688,559.464c6.139,2.104,81.282-9.834,93.216-9.481c6.323,1.58,17.034,8.248,21.421,10.18
			c5.619,12.643,6.675,40.559,0.703,59.869c-2.104,3.162-4.738,5.794-4.738,5.794s3.682,3.162,3.682,6.844
			c0.881,17.91-3.505,46.176-11.582,50.387c-28.438,8.78-72.334,11.942-86.381,10.533
			C136.797,683.058,126.264,576.317,124.688,559.464z"/>
		<linearGradient id="SVGID_12_" gradientUnits="userSpaceOnUse" x1="302.5674" y1="623.8569" x2="75.5056" y2="628.3091">
			<stop  offset="6.030000e-006" style="stop-color:#BE7A50"/>
			<stop  offset="0.2526" style="stop-color:#C78557"/>
			<stop  offset="0.9989" style="stop-color:#DDA169"/>
		</linearGradient>
		<path fill="url(#SVGID_12_)" d="M129.073,692.19c-11.236-18.261-11.236-45.648-10.709-58.992
			c-7.371-17.905-14.566-44.944-9.652-66.711c8.428,0,16.496,2.981,16.496,2.981s48.197-8.429,69.877-8.601
			c6.5,2.545,26.862,5.708,31.601,7.023c7.372,11.851,6.323,32.301,2.105,49.86c-2.802,4.562-16.849,7.724-16.849,7.724
			s7.02,2.104,14.047,2.809c3.506,12.638,2.105,37.924-6.324,48.458C198.599,685.867,141.711,693.239,129.073,692.19z"/>
		<path fill="#793F07" d="M139.079,629.514c-2.457,0.524,0.529,2.108,3.338,2.805c28.791,3.162,70.221-0.696,86.374-4.562
			c1.233-2.629,3.162-6.668,4.042-9.477C217.208,624.247,168.75,629.685,139.079,629.514z"/>
		<path fill="#793F07" d="M129.778,568.245c-1.762-0.353-7.723-3.515-9.133-3.515c0.965,4.038-0.527,10.27,1.057,17.905
			C124.51,575.617,128.721,570.35,129.778,568.245z"/>
		<path fill="#793F07" d="M100.987,487.134c18.955-4.567,76.545-5.62,94.098-4.215c10.273,2.106,28.355,7.02,34.939,11.238
			c7.723,11.146,10.709,53.717,2.28,72.68c-10.449,4.302-32.481,9.128-39.324,9.128s-61.097-3.334-72.159-4.739
			C111.696,562.449,89.221,526.811,100.987,487.134z"/>
		<linearGradient id="SVGID_13_" gradientUnits="userSpaceOnUse" x1="301.2969" y1="534.2422" x2="81.4847" y2="529.7955">
			<stop  offset="6.030000e-006" style="stop-color:#BE7A50"/>
			<stop  offset="1" style="stop-color:#DDA169"/>
		</linearGradient>
		<path fill="url(#SVGID_13_)" d="M196.318,566.836c0,0-71.983,2.104-86.911,1.056c-4.033-14.571-15.096-50.21-1.4-70.225
			c22.125-3.162,76.721-4.567,84.621-2.721c5.794,1.845,22.912,8.16,28.179,11.851c4.738,13.426,0.528,46.344-3.95,54.512
			C211.321,563.414,196.318,566.836,196.318,566.836z"/>
		<linearGradient id="SVGID_14_" gradientUnits="userSpaceOnUse" x1="177.3291" y1="529.3916" x2="276.2864" y2="536.336">
			<stop  offset="0" style="stop-color:#DDA169"/>
			<stop  offset="0.4286" style="stop-color:#DBA36C"/>
			<stop  offset="0.7826" style="stop-color:#D3AB76"/>
			<stop  offset="1" style="stop-color:#CCB381"/>
		</linearGradient>
		<path fill="url(#SVGID_14_)" d="M221.066,504.338c-5.266-3.69-19.222-8.076-28.967-9.658c14.919,14.22,10.71,61.269,4.395,71.803
			c8.948-0.524,19.307-2.81,25.629-4.915C227.389,546.122,227.851,516.625,221.066,504.338z"/>
	</g>
</g>
</svg>
