<?xml version="1.0" encoding="utf-8"?>
<!-- Generator: Adobe Illustrator 15.0.0, SVG Export Plug-In . SVG Version: 6.00 Build 0)  -->
<!DOCTYPE svg PUBLIC "-//W3C//DTD SVG 1.1//EN" "http://www.w3.org/Graphics/SVG/1.1/DTD/svg11.dtd">
<svg version="1.1" id="_x30_1_1_" xmlns="http://www.w3.org/2000/svg" xmlns:xlink="http://www.w3.org/1999/xlink" x="0px" y="0px"
	 width="836.078px" height="1074.402px" viewBox="0 0 836.078 1074.402" enable-background="new 0 0 836.078 1074.402"
	 xml:space="preserve">
<g id="Fluo_x5F_no_x5F_sleeves_7_">
	<g>
		<path fill="#93AB20" d="M143.553,52.601C182.917,44.728,319.605,2.862,328.193,0c27.195,47.232,230.085,305.587,264.438,335.645
			c10.02,107.349,15.744,652.677,15.744,675.58c-2.863,27.195-27.91,57.969-75.146,62.26
			c-94.467,8.59-307.018-44.369-375.721-107.346c17.176-143.848,2.146-422.954-32.205-517.421
			C165.379,418.66,229.432,157.087,143.553,52.601z"/>
		<path fill="#B7D130" d="M511.106,1061.519c-99.008,0-275.093-46.893-340.031-100.648c15.031-137.912,2.723-404.232-30.967-508.666
			c22.783-26.69,45.455-98.096,54.704-175.035c6.568-54.649,10.598-151.406-29.632-216.387
			c45.122-11.405,128.351-36.535,157.344-45.502c41.396,63.552,216.572,285.616,257.702,326.366
			c9.65,116.551,15.174,636.194,15.266,668.862c-2.637,21.736-23.477,46.516-63.429,50.146
			C525.754,1061.23,518.706,1061.519,511.106,1061.519z"/>
		<path fill="#DBF74A" d="M580.226,341.647c-41.13-40.75-216.306-262.813-257.702-326.366
			c-28.993,8.968-112.222,34.098-157.344,45.502c40.229,64.981,36.2,161.738,29.632,216.387c-2.06,17.128-4.786,33.977-8.03,50.124
			c53.704,222.614,66.246,451.907,71.197,680.42c79.866,31.486,184.832,53.805,253.127,53.805c7.6,0,14.648-0.289,20.957-0.863
			c39.952-3.631,60.792-28.41,63.429-50.146C595.4,977.841,589.876,458.198,580.226,341.647z"/>
		<linearGradient id="SVGID_1_" gradientUnits="userSpaceOnUse" x1="-38.0986" y1="559.9546" x2="405.6122" y2="322.3539">
			<stop  offset="0" style="stop-color:#949FA1"/>
			<stop  offset="1" style="stop-color:#B7C6C9"/>
		</linearGradient>
		<path fill="url(#SVGID_1_)" d="M586.851,497.203c-63.278,2.25-126.403,1.708-189.162-2.64
			c-4.793-165.571-24.313-364.938-85.063-477.388c-19.781,6.049-52.2,16.27-83.194,25.227
			c57.824,115.02,64.932,332.399,65.445,441.331c-51.821-7.411-103.312-17.844-154.32-32.083c-0.148,0.181-0.301,0.378-0.449,0.555
			c8.607,26.679,15.816,63.924,21.531,106.894c140.571,36.903,284.242,47.267,427.685,39.173
			C588.566,563.116,587.74,528.927,586.851,497.203z"/>
		<path fill="#868F98" d="M140.557,451.65c-0.148,0.181-0.301,0.378-0.449,0.555c8.607,26.679,15.816,63.924,21.531,106.894
			c23.994,6.298,44.708,10.961,68.866,15.753c-5.367-33.278-9.662-69.24-14.138-104.843
			C190.996,464.728,165.715,458.673,140.557,451.65z"/>
		<linearGradient id="SVGID_2_" gradientUnits="userSpaceOnUse" x1="175.7583" y1="838.7456" x2="594.353" y2="838.7456">
			<stop  offset="0" style="stop-color:#949FA1"/>
			<stop  offset="1" style="stop-color:#B7C6C9"/>
		</linearGradient>
		<path fill="url(#SVGID_2_)" d="M594.353,902.662c-0.328-26.08-2.691-63.818-3.154-95.4
			c-139.794,11.479-279.416,6.564-415.44-38.645c0.762,33.092,1.1,65.826,0.357,96.254C311.216,908,453.245,916.75,594.353,902.662z
			"/>
		<path fill="#868F98" d="M175.758,768.617c0.762,33.092,1.1,65.826,0.357,96.254c25.9,8.268,52.059,15.25,78.413,21.072
			c-1.027-32.148-3.301-64.658-5.237-96.93C224.236,783.3,200.595,776.871,175.758,768.617z"/>
	</g>
	<g>
		<path fill="#93AB20" d="M662.048,33.277c-12.883,83.732-82.299,252.984-99.476,308.091c-2.148,62.262,6.44,638.366,8.589,655.542
			c10.734,25.766,41.508,70.135,86.592,67.988c49.381-6.441,145.995-49.379,167.466-64.408
			c-8.59-109.496-23.619-416.513-8.59-478.775c30.059-103.055,30.059-317.753-34.35-407.926
			C736.123,81.584,683.517,50.454,662.048,33.277z"/>
		<path fill="#DBF74A" d="M654.605,1052.091c-35.73-0.002-61.391-37.129-70.77-58.316c-2.023-36.479-10.557-576.109-8.441-650.229
			c5.053-15.918,14.313-41.169,24.977-70.247c24.578-67.025,57.283-156.211,70.57-217.616c11.213,7.697,25.066,16.641,40.221,26.422
			c19.428,12.542,41.375,26.707,61.888,40.956c59.801,86.584,60.316,295.272,31.215,395.049l-0.154,0.583
			c-15.346,63.565-1.115,358.104,7.67,475.044c-28.541,16.615-111.681,52.441-155.153,58.314
			C655.951,1052.08,655.277,1052.091,654.605,1052.091z"/>
		<linearGradient id="SVGID_3_" gradientUnits="userSpaceOnUse" x1="1277.1646" y1="317.0083" x2="738.9951" y2="331.3197">
			<stop  offset="0" style="stop-color:#949FA1"/>
			<stop  offset="1" style="stop-color:#B7C6C9"/>
		</linearGradient>
		<path fill="url(#SVGID_3_)" d="M781.491,482.906c14.854-118.655,10.086-249.574-14.777-365.896
			c-18.312-12.509-67.417-44.139-72.997-47.771c28.896,153.8,15.709,337.856,8.275,421.08c-42.098,3.407-84.188,5.94-126.213,7.221
			c0.313,31.585,0.703,65.936,1.152,101.374c74.027-3.625,148.021-12.205,221.517-24.664c1.041-24.572,2.855-43.935,5.662-55.558
			l0.154-0.583c3.363-11.53,6.309-24.565,8.834-38.646C802.565,480.653,792.028,481.798,781.491,482.906z"/>
		<linearGradient id="SVGID_4_" gradientUnits="userSpaceOnUse" x1="1098.6387" y1="809.0366" x2="769.4411" y2="834.7999">
			<stop  offset="0" style="stop-color:#949FA1"/>
			<stop  offset="1" style="stop-color:#B7C6C9"/>
		</linearGradient>
		<path fill="url(#SVGID_4_)" d="M801.6,777.921c-62.46,13.059-148.726,25.516-222.565,30.771
			c0.535,32.111,2.154,69.568,2.645,95.162c74.441-6.707,148.881-19.848,222.382-37.738
			C802.704,838.845,802.661,806.753,801.6,777.921z"/>
	</g>
</g>
<g>
	<g>
		<path fill="#793F07" d="M11.452,490.223c6.843-14.749,19.305-51.263,26.678-59.516c4.318-4.826,35.819-30.548,41.79-41.787
			c6.316-10.533,10.007-37.391,12.464-66.712c4.738-19.486,64.283-13.43,67.588,25.635c3.512,41.43-14.393,85.673-23.879,107.44
			C124.51,458.974,19.872,487.061,11.452,490.223z"/>
		<linearGradient id="SVGID_5_" gradientUnits="userSpaceOnUse" x1="50.4839" y1="388.7485" x2="113.6865" y2="409.2894">
			<stop  offset="0" style="stop-color:#AD673B"/>
			<stop  offset="1" style="stop-color:#BE7A50"/>
		</linearGradient>
		<path fill="url(#SVGID_5_)" d="M31.11,471.789c4.537-12.228,10.156-28.145,14.929-34.763c2.414-3.363,16.924-14.718,24.221-22.119
			c7.908-8.021,14.365-13.053,16.445-15.989c8.839-12.454,15.507-45.107,16.212-72.494c7.371-8.429,41.605-3.69,46.344,19.485
			c4.318,21.084-7.725,65.66-16.848,87.432c0,0,19.455-0.03,20.539,4.743C150.317,438.817,59.875,464.333,31.11,471.789z"/>
		<linearGradient id="SVGID_6_" gradientUnits="userSpaceOnUse" x1="78.4307" y1="388.3848" x2="212.815" y2="426.7009">
			<stop  offset="6.030000e-006" style="stop-color:#BE7A50"/>
			<stop  offset="0.146" style="stop-color:#CE8E5D"/>
			<stop  offset="0.2976" style="stop-color:#D99C66"/>
			<stop  offset="0.43" style="stop-color:#DDA169"/>
		</linearGradient>
		<path fill="url(#SVGID_6_)" d="M105.196,333.795c1.059,13.167-2.104,46.877-6.322,69.524
			c-14.216,15.273-26.007,28.725-32.649,59.512c36.188-9.997,84.923-24.245,86.728-24.749c-1.084-4.773-20.539-4.743-20.539-4.743
			c9.123-21.772,21.166-66.348,16.848-87.432c-3.213-15.729-20.01-22.945-32.783-23.334
			C111.52,322.208,105.196,327.476,105.196,333.795z"/>
	</g>
	<g>
		<path fill="#793F07" d="M1.438,474.95c18.962-5.266,43.72-13.166,43.72-13.166s8.948-12.643,23.7-25.286
			c15.247-13.071,27.811-19.8,35.283-22.292c37.57,1.753,58.287-1.057,99.02,5.967c19.298,48.748,30.955,112.641,21.066,187.5
			c-2.457,18.61-11.237,38.625-15.799,45.997c-20.363,14.747-65.836,20.019-87.432,18.962c-27.91-2.634-68.819-12.639-81.106-17.558
			C44.1,643.136,53.585,543.243,1.438,474.95z"/>
		<linearGradient id="SVGID_7_" gradientUnits="userSpaceOnUse" x1="11.9976" y1="682.8247" x2="83.1892" y2="593.6313">
			<stop  offset="0" style="stop-color:#AD673B"/>
			<stop  offset="1" style="stop-color:#BE7A50"/>
		</linearGradient>
		<path fill="url(#SVGID_7_)" d="M129.778,662.451c-41.907,0-81.458-15.449-100.421-21.067
			C9.337,621.365-12.778,541.31,8.986,486.185c21.066-18.262,83.958-59.964,94.106-60.392c38.191,1.3,70.59,1.396,107.44,7.724
			c8.957,54.685,4.571,185.391-10.534,214.186C192.98,652.27,160.674,659.641,129.778,662.451z"/>
		<linearGradient id="SVGID_8_" gradientUnits="userSpaceOnUse" x1="142.8657" y1="542.7788" x2="-90.0324" y2="523.6541">
			<stop  offset="6.030000e-006" style="stop-color:#BE7A50"/>
			<stop  offset="0.5466" style="stop-color:#CD8D5C"/>
			<stop  offset="1" style="stop-color:#DDA169"/>
		</linearGradient>
		<path fill="url(#SVGID_8_)" d="M178.245,654.744c10.643-2.47,18.659-5.033,21.754-7.042
			c15.105-28.794,19.491-159.5,10.534-214.186c-36.851-6.328-69.249-6.424-107.44-7.724c-10.148,0.428-73.04,42.13-94.106,60.392
			c-19.658,49.858,7.732,125.704,25.638,146.77c12.639,7.373,55.125,22.82,93.049,24.929
			C148.036,658.237,161.932,656.966,178.245,654.744z"/>
		<linearGradient id="SVGID_9_" gradientUnits="userSpaceOnUse" x1="231.6797" y1="518.5957" x2="80.8726" y2="547.3214">
			<stop  offset="6.030000e-006" style="stop-color:#BE7A50"/>
			<stop  offset="1" style="stop-color:#DDA169"/>
		</linearGradient>
		<path fill="url(#SVGID_9_)" d="M210.533,433.517c-36.851-6.328-67.673-14.152-105.864-15.453c-0.184,0.009-0.42,0.05-0.629,0.084
			c-3.271,61.726,39.953,145.986,23.633,193.388c3.506,23.524,3.506,36.867,0.697,46.001c10.533,1.047,58.639-3.515,72.687-9.486
			c3.857-7.724,9.828-22.82,11.934-35.463C219.64,572.705,219.07,485.652,210.533,433.517z"/>
		<path fill="#793F07" d="M124.688,487.59c6.139,2.104,81.282-9.834,93.216-9.481c6.323,1.58,17.034,8.248,21.421,10.18
			c5.619,12.643,6.675,40.559,0.703,59.869c-2.104,3.162-4.738,5.794-4.738,5.794s3.682,3.162,3.682,6.844
			c0.881,17.91-3.505,46.176-11.582,50.387c-28.438,8.78-72.334,11.942-86.381,10.533
			C136.797,611.184,126.264,504.443,124.688,487.59z"/>
		<linearGradient id="SVGID_10_" gradientUnits="userSpaceOnUse" x1="302.5674" y1="551.9824" x2="75.5056" y2="556.4346">
			<stop  offset="6.030000e-006" style="stop-color:#BE7A50"/>
			<stop  offset="0.2526" style="stop-color:#C78557"/>
			<stop  offset="0.9989" style="stop-color:#DDA169"/>
		</linearGradient>
		<path fill="url(#SVGID_10_)" d="M129.073,620.316c-11.236-18.261-11.236-45.648-10.709-58.992
			c-7.371-17.905-14.566-44.944-9.652-66.711c8.428,0,16.496,2.981,16.496,2.981s48.197-8.429,69.877-8.601
			c6.5,2.545,26.862,5.708,31.601,7.023c7.372,11.851,6.323,32.301,2.105,49.86c-2.802,4.562-16.849,7.724-16.849,7.724
			s7.02,2.104,14.047,2.809c3.506,12.638,2.105,37.924-6.324,48.458C198.599,613.993,141.711,621.365,129.073,620.316z"/>
		<path fill="#793F07" d="M139.079,557.639c-2.457,0.524,0.529,2.108,3.338,2.805c28.791,3.162,70.221-0.696,86.374-4.562
			c1.233-2.629,3.162-6.668,4.042-9.477C217.208,552.372,168.75,557.811,139.079,557.639z"/>
		<path fill="#793F07" d="M129.778,496.371c-1.762-0.353-7.723-3.515-9.133-3.515c0.965,4.038-0.527,10.27,1.057,17.905
			C124.51,503.742,128.721,498.475,129.778,496.371z"/>
		<path fill="#793F07" d="M100.987,415.259c18.955-4.567,76.545-5.62,94.098-4.215c10.273,2.106,28.355,7.02,34.939,11.238
			c7.723,11.146,10.709,53.717,2.28,72.68c-10.449,4.302-32.481,9.128-39.324,9.128s-61.097-3.334-72.159-4.739
			C111.696,490.575,89.221,454.936,100.987,415.259z"/>
		<linearGradient id="SVGID_11_" gradientUnits="userSpaceOnUse" x1="301.2969" y1="462.3677" x2="81.4847" y2="457.921">
			<stop  offset="6.030000e-006" style="stop-color:#BE7A50"/>
			<stop  offset="1" style="stop-color:#DDA169"/>
		</linearGradient>
		<path fill="url(#SVGID_11_)" d="M196.318,494.962c0,0-71.983,2.104-86.911,1.056c-4.033-14.571-15.096-50.21-1.4-70.225
			c22.125-3.162,76.721-4.567,84.621-2.721c5.794,1.845,22.912,8.16,28.179,11.851c4.738,13.426,0.528,46.344-3.95,54.512
			C211.321,491.54,196.318,494.962,196.318,494.962z"/>
		<linearGradient id="SVGID_12_" gradientUnits="userSpaceOnUse" x1="177.3301" y1="457.5171" x2="276.2874" y2="464.4615">
			<stop  offset="0" style="stop-color:#DDA169"/>
			<stop  offset="0.4286" style="stop-color:#DBA36C"/>
			<stop  offset="0.7826" style="stop-color:#D3AB76"/>
			<stop  offset="1" style="stop-color:#CCB381"/>
		</linearGradient>
		<path fill="url(#SVGID_12_)" d="M221.066,432.464c-5.266-3.69-19.222-8.076-28.967-9.658c14.919,14.22,10.71,61.269,4.395,71.803
			c8.948-0.524,19.307-2.81,25.629-4.915C227.389,474.247,227.851,444.75,221.066,432.464z"/>
	</g>
</g>
</svg>
