<?xml version="1.0" encoding="utf-8"?>
<!-- Generator: Adobe Illustrator 15.0.0, SVG Export Plug-In . SVG Version: 6.00 Build 0)  -->
<!DOCTYPE svg PUBLIC "-//W3C//DTD SVG 1.1//EN" "http://www.w3.org/Graphics/SVG/1.1/DTD/svg11.dtd">
<svg version="1.1" id="_x30_1_1_" xmlns="http://www.w3.org/2000/svg" xmlns:xlink="http://www.w3.org/1999/xlink" x="0px" y="0px"
	 width="1268.143px" height="1155.612px" viewBox="0 0 1268.143 1155.612" enable-background="new 0 0 1268.143 1155.612"
	 xml:space="preserve">
<g id="Fluo_x5F_Jacket_10_">
	<g>
		<path fill="#93AB20" d="M380.06,132.577c-37.571,3.22-83.178,24.012-118.082,78.364
			C186.832,327.951,71.969,516.885,41.912,561.972c24.689,9.661,263.004,98.761,284.475,104.128
			c21.469-35.425,82.659-142.774,95.54-166.391C491.704,377.331,491.704,113.253,380.06,132.577z"/>
		<path fill="#DBF74A" d="M320.531,650.813c-42.781-14.242-205.434-74.832-259.118-95.173
			c17.014-26.502,45.755-72.84,78.179-125.113c43.957-70.875,93.781-151.206,133.225-212.625
			c37.373-58.197,83.924-70.398,108.345-72.49l0.551-0.049l0.547-0.094c3.131-0.543,6.199-0.818,9.119-0.818
			c17.205,0,31.002,9.351,42.176,28.587c39.195,67.465,27.465,232.101-22.816,320.29
			C398.483,515.785,345.085,609.505,320.531,650.813z"/>
		<linearGradient id="SVGID_1_" gradientUnits="userSpaceOnUse" x1="153.0176" y1="432.6162" x2="427.2939" y2="432.6162">
			<stop  offset="0" style="stop-color:#949FA1"/>
			<stop  offset="1" style="stop-color:#B7C6C9"/>
		</linearGradient>
		<path fill="url(#SVGID_1_)" d="M410.737,493.329c7.234-12.689,10.955-21.222,16.557-36.56
			c-58.508-67.579-136.779-118.173-224.358-130.966c-18.563,29.7-31.662,52.966-49.918,82.391
			c86.773,18.16,166.929,69.688,227.042,131.234C394.544,514.006,405.591,502.764,410.737,493.329z"/>
	</g>
	<g>
		<g>
			<g>
				<path fill="#93AB20" d="M1082.122,996.733c6.799,41.152,25.049,100.908,27.91,105.201
					c44.369,18.605,134.545-3.578,150.289-32.203c-4.293-31.49-7.156-85.164-8.588-96.615
					C1215.233,977.411,1114.327,994.586,1082.122,996.733z"/>
				<path fill="#DBF74A" d="M1151.019,1095.899c-12.068,0-22.746-1.41-31.252-4.107c-4.531-12.822-15.807-50.855-22.422-83.566
					c22.398-2.537,56.426-7.705,89.551-12.734c19.803-3.01,38.789-5.893,53.186-7.877c0.266,3.492,0.555,7.414,0.859,11.549
					c1.475,20.074,3.451,46.998,5.973,67.35C1234.86,1080.487,1192.464,1095.899,1151.019,1095.899L1151.019,1095.899z"/>
			</g>
			<g>
				<path fill="#93AB20" d="M1026.305,170.148c57.964,12.882,118.079,55.821,145.989,130.966
					c17.176,83.732,42.227,344.233,42.227,362.839c7.154,42.94,60.117,286.265,52.959,346.38
					c-15.746,37.213-173.193,65.125-196.094,37.93c-17.172-34.354-47.229-100.908-55.816-122.379
					C1017.002,797.065,1019.148,211.655,1026.305,170.148z"/>
				<path fill="#DBF74A" d="M1127.604,1048.5c-28.592,0-41.775-4.754-45.596-7.809c-16.08-32.371-43.882-93.676-53.532-117.25
					c0.307-28.543,0.641-76.568,1.061-136.891c1.301-187.213,3.631-522.642,8.201-600.049
					c55.38,17.157,100.37,60.396,122.136,118.177c17.152,84.667,41.764,341.335,41.764,359.274v1.065l0.176,1.054
					c1.008,6.061,2.828,16.296,5.189,29.58c13.107,73.742,50.896,258.734,46.162,311.816
					C1244.077,1022.125,1184.528,1048.5,1127.604,1048.5z"/>
				<linearGradient id="SVGID_2_" gradientUnits="userSpaceOnUse" x1="1031.1328" y1="503.896" x2="1189.0557" y2="503.896">
					<stop  offset="0" style="stop-color:#949FA1"/>
					<stop  offset="1" style="stop-color:#B7C6C9"/>
				</linearGradient>
				<path fill="url(#SVGID_2_)" d="M1178.735,432.079c-21.877,15.263-95.896,44.372-146.69,47.093
					c-0.332,31.873-0.635,64.373-0.912,96.542c55.55-6.898,111.821-17.677,157.923-48.837
					C1186.03,498.177,1182.247,461.507,1178.735,432.079z"/>
				<linearGradient id="SVGID_3_" gradientUnits="userSpaceOnUse" x1="1029.5234" y1="912.4058" x2="1247.6963" y2="912.4058">
					<stop  offset="0" style="stop-color:#949FA1"/>
					<stop  offset="1" style="stop-color:#B7C6C9"/>
				</linearGradient>
				<path fill="url(#SVGID_3_)" d="M1234.558,841.436c-52.602,29.699-135.129,53.129-205.034,59.758
					c-0.096,11.813,14.438,58.186,25.394,82.139c76.584,1.236,152.445-24.527,192.779-53.09
					C1244.397,905.586,1239.329,869.233,1234.558,841.436z"/>
			</g>
		</g>
		<g>
			<path fill="#93AB20" d="M435.882,1021.782c8.588,37.215,10.021,62.977,20.041,78.723c80.151,51.525,465.179,78.723,629.777-4.293
				c8.588-25.764,11.451-51.527,14.313-72.996C1024.16,1027.508,485.979,1020.352,435.882,1021.782z"/>
			<path fill="#B7D130" d="M770.878,1136.288c-131.602,0-261.439-19.26-305.443-45.059c-4.561-8.742-7.109-22.357-10.262-39.207
				c-1.018-5.443-2.113-11.291-3.375-17.533c3.027-0.012,6.412-0.018,10.145-0.018c37.948,0,108.14,0.545,189.417,1.176
				c111.108,0.861,237.044,1.84,329.895,1.84c48.717,0,83.044-0.271,103.985-0.824c-2.168,15.934-4.916,33.184-10.148,50.408
				C1008.688,1118.834,901.014,1136.288,770.878,1136.288z"/>
			<path fill="#DBF74A" d="M520.688,1082.612c0,8.59,3.221,18.25,6.067,29.902c61.548,14.408,152.388,23.773,244.123,23.773
				c130.136,0,237.81-17.453,304.213-49.217c5.232-17.225,7.98-34.475,10.148-50.408
				C858.838,1140.581,557.186,1087.979,520.688,1082.612z"/>
			<path fill="#93AB20" d="M808.942,319.602c-38.453-27.945-64.734-69.035-91.62-109.219
				c-55.487-31.356-91.193-77.88-124.71-135.775C546.81,82.48,421.927,115.4,367.179,135.797
				c38.646,27.195,107.35,199.669,17.176,373.574c2.146,105.202,8.588,465.894,32.205,532.45
				c34.352,25.762,235.452,57.252,433.69,53.674C848.328,951.307,841.233,562.693,808.942,319.602z"/>
			<path fill="#B7D130" d="M818.942,1082.891c-189.656-0.002-356.146-28.934-391.518-49.336
				c-21.074-71.537-27.73-402.228-29.947-512.338l-0.178-8.854c49.389-97.079,48.799-187.664,39.498-246.796
				c-8.691-55.276-27.834-99.723-46.451-124.248c55.648-18.586,149.747-43.428,195.713-52.404
				c28.799,48.675,64.1,97.431,122.232,131.142l2.711,4.06c24.621,36.888,50.049,74.984,85.875,102.547
				c28.643,220.083,37.549,562.323,40.313,756.133C831.108,1082.86,825.026,1082.891,818.942,1082.891z"/>
		</g>
		<g>
			<path fill="#93AB20" d="M1111.464,1038.958c-7.156-181.777,15.744-630.495-42.225-851.633
				c-48.304-35.425-115.22-77.647-140.981-91.603c0.187,25.342-12.842,59.309-32.125,88.432
				c-12.363,59.292-34.451,116.998-66.929,168.83c0.844,221.755,17.763,690.244,18.899,742.511
				C959.744,1093.348,1087.132,1063.29,1111.464,1038.958z"/>
			<path fill="#DBF74A" d="M860.637,1082.256c-0.486-16.748-1.379-44.525-2.508-79.594c-4.961-154.23-15.243-473.961-16.026-646.029
				c30.919-50.189,53.157-106.493,66.135-167.449c15.666-24.166,26.487-49.852,30.81-72.421
				c30.078,17.901,79.873,49.919,118.874,78.247c40.916,161.294,39.951,443.917,39.246,650.793
				c-0.254,74.408-0.477,139.107,1.189,187.283C1071.392,1051.631,967.268,1078.334,860.637,1082.256z"/>
		</g>
		<g>
			<linearGradient id="SVGID_4_" gradientUnits="userSpaceOnUse" x1="684.1152" y1="386.2217" x2="1020.4758" y2="351.8701">
				<stop  offset="0" style="stop-color:#949FA1"/>
				<stop  offset="1" style="stop-color:#B7C6C9"/>
			</linearGradient>
			<path fill="url(#SVGID_4_)" d="M1092.14,480.435c-13.455,2.197-26.936,4.225-40.432,6.176
				c-2.232-102.279-9.756-218.691-30.655-317.388c-30.035-20.35-60.912-39.907-82.047-52.482
				c-0.984,5.084-2.332,10.327-3.943,15.649c16.75,115.671,36.014,247.349,33.693,364.64c-41.424,4.357-82.965,7.477-124.54,9.241
				c0.686,33.8,1.502,69.144,2.394,104.946c83.598-4.462,167.012-15.672,248.933-32.793
				C1094.759,545.548,1093.669,512.708,1092.14,480.435z"/>
			<linearGradient id="SVGID_5_" gradientUnits="userSpaceOnUse" x1="411.5518" y1="976.3159" x2="836.4736" y2="976.3159">
				<stop  offset="0" style="stop-color:#949FA1"/>
				<stop  offset="1" style="stop-color:#B7C6C9"/>
			</linearGradient>
			<path fill="url(#SVGID_5_)" d="M836.474,1037.592c-0.529-30.271-1.186-62.662-2.016-96.611
				c-141.849,3.268-284.787-2.932-422.906-27.98c1.43,29.344,5.219,65.898,8.229,90.174
				C563.137,1036.168,699.96,1043.967,836.474,1037.592z"/>
			<linearGradient id="SVGID_6_" gradientUnits="userSpaceOnUse" x1="631.0479" y1="1003.5796" x2="1008.9125" y2="973.5222">
				<stop  offset="0" style="stop-color:#949FA1"/>
				<stop  offset="1" style="stop-color:#B7C6C9"/>
			</linearGradient>
			<path fill="url(#SVGID_6_)" d="M1096.995,914.446c-79.549,14.406-160.075,23.043-240.858,25.924
				c0.734,23.15,1.412,44.172,1.994,62.338c0.395,12.297,0.762,23.672,1.09,34.016c80.726-3.734,160.924-14.379,238.399-32.074
				C1097.112,978.002,1096.974,947.688,1096.995,914.446z"/>
			<linearGradient id="SVGID_7_" gradientUnits="userSpaceOnUse" x1="397.2998" y1="351.5806" x2="821.5615" y2="351.5806">
				<stop  offset="0" style="stop-color:#949FA1"/>
				<stop  offset="1" style="stop-color:#B7C6C9"/>
			</linearGradient>
			<path fill="url(#SVGID_7_)" d="M814.661,507.313c-54.451,1.462-108.907,0.513-163.192-2.998
				c-12.528-135.976-23.914-285.03-69.717-414.525c-21.055,4.272-50.506,11.351-81.594,19.521
				c23.523,122.298,42.229,259.298,46.838,384.94c-44.111-5.686-88.028-13.172-131.634-22.671
				c-5.107,13.418-11.068,27.032-18.063,40.782l0.178,8.854c0.232,11.549,0.514,25.553,0.857,41.404
				c136.854,40.048,280.104,55.014,423.227,49.723C819.515,576.756,817.229,541.553,814.661,507.313z"/>
			<path fill="#DBF74A" d="M837.19,1082.797c-2.764-193.811-11.67-536.05-40.313-756.133
				c-35.826-27.563-61.254-65.66-85.875-102.547l-2.711-4.06c-58.133-33.711-93.434-82.467-122.232-131.142
				c-45.966,8.976-140.064,33.817-195.713,52.404c18.617,24.525,37.76,68.972,46.451,124.248c3.836,24.38,6.178,54.117,4.158,87.443
				c19.805,235.55,12.297,475.568,68.422,703.721c74.076,14.063,186.95,26.158,309.564,26.16
				C825.026,1082.891,831.108,1082.86,837.19,1082.797z"/>
			<linearGradient id="SVGID_8_" gradientUnits="userSpaceOnUse" x1="411.5518" y1="976.3159" x2="836.4736" y2="976.3159">
				<stop  offset="0" style="stop-color:#949FA1"/>
				<stop  offset="1" style="stop-color:#B7C6C9"/>
			</linearGradient>
			<path fill="url(#SVGID_8_)" d="M836.474,1037.592c-0.529-30.271-1.186-62.662-2.016-96.611
				c-141.849,3.268-284.787-2.932-422.906-27.98c1.43,29.344,5.219,65.898,8.229,90.174
				C563.137,1036.168,699.96,1043.967,836.474,1037.592z"/>
			<linearGradient id="SVGID_9_" gradientUnits="userSpaceOnUse" x1="397.2998" y1="351.5806" x2="821.5615" y2="351.5806">
				<stop  offset="0" style="stop-color:#949FA1"/>
				<stop  offset="1" style="stop-color:#B7C6C9"/>
			</linearGradient>
			<path fill="url(#SVGID_9_)" d="M814.661,507.313c-54.451,1.462-108.907,0.513-163.192-2.998
				c-12.528-135.976-23.914-285.03-69.717-414.525c-21.055,4.272-50.506,11.351-81.594,19.521
				c23.523,122.298,42.229,259.298,46.838,384.94c-44.111-5.686-88.028-13.172-131.634-22.671
				c-5.107,13.418-11.068,27.032-18.063,40.782l0.178,8.854c0.232,11.549,0.514,25.553,0.857,41.404
				c136.854,40.048,280.104,55.014,423.227,49.723C819.515,576.756,817.229,541.553,814.661,507.313z"/>
			<path fill="#868F98" d="M411.552,913c1.43,29.344,5.219,65.898,8.229,90.174c27.221,6.264,54.203,11.611,80.998,16.137
				c-6.788-31.482-12.503-63.162-17.314-95.016C459.372,921.047,435.386,917.325,411.552,913z"/>
			<path fill="#868F98" d="M415.362,471.581c-5.107,13.418-11.068,27.032-18.063,40.782l0.178,8.854
				c0.232,11.549,0.514,25.553,0.857,41.404c18.584,5.439,37.297,10.372,56.098,14.899c-1.617-32.987-3.221-65.986-5.029-98.956
				C438.036,476.365,426.688,474.048,415.362,471.581z"/>
			<path fill="#93AB20" d="M893.906,1143.444c-1.363-85.895-23.712-695.023-28.168-794.899c-5.014-0.407-15.049,2.006-17.205-0.27
				c-22.198,41.674-58.771,90.822-59.597,141.987c3.15,164.64,12.533,447.309,16.225,665.346
				C838.798,1153.461,861.645,1149.588,893.906,1143.444z"/>
			<path fill="#DBF74A" d="M818.044,1142.727c-4.445-251.48-17.713-588.27-17.713-689.178c3.285-7.211,36.805-68.768,55.825-92.108
				c0.541,0.026,1.063,0.046,1.581,0.067c8.757,117.503,26.507,659.758,29.011,771.202
				C865.996,1137.002,835.241,1140.383,818.044,1142.727z"/>
			<linearGradient id="SVGID_10_" gradientUnits="userSpaceOnUse" x1="627.5391" y1="560.4746" x2="851.2606" y2="559.002">
				<stop  offset="0" style="stop-color:#949FA1"/>
				<stop  offset="1" style="stop-color:#B7C6C9"/>
			</linearGradient>
			<path fill="url(#SVGID_10_)" d="M867.066,505.436c-21.456,1.145-45.446,1.367-66.913,1.788
				c0.586,29.288,1.367,65.286,2.502,105.561c22.094-0.556,46.276-1.709,68.349-3.22
				C869.465,572.495,868.531,537.644,867.066,505.436z"/>
			<linearGradient id="SVGID_11_" gradientUnits="userSpaceOnUse" x1="693.8018" y1="994.7075" x2="906.9276" y2="986.239">
				<stop  offset="0" style="stop-color:#949FA1"/>
				<stop  offset="1" style="stop-color:#B7C6C9"/>
			</linearGradient>
			<path fill="url(#SVGID_11_)" d="M881.113,939.838c-23.047,1.178-45.083,1.094-68.169,1.342
				c0.887,32.516,1.654,65.309,2.416,97.15c23.354-0.361,45.692-1.434,68.974-2.953
				C883.403,1006.731,882.336,974.788,881.113,939.838z"/>
		</g>
		<g>
			<path fill="#93AB20" d="M790.134,492.195c-13.959-149.932,118.802-285.551,107.349-392.183c0-21.469-0.713-65.124-0.713-85.162
				c37.928,16.459,119.518,71.565,148.14,131.682c-23.974,66.555-117.37,155.655-187.86,236.525
				C824.95,419.881,792.636,439.951,790.134,492.195z"/>
			<path fill="#DBF74A" d="M800.153,456.055c2.861-52.959,36.656-136.13,62.976-193.107
				c26.918-58.268,52.348-113.318,47.234-163.608c-0.008-10.959-0.188-27.33-0.365-43.422c-0.078-6.925-0.154-13.797-0.217-20.162
				c38.23,21.226,96.04,64.441,120.889,111.135c-25.863,56.038-98.506,141.167-149.289,193.942
				C840.226,383.6,802.692,451.553,800.153,456.055z"/>
		</g>
		<g>
			<path fill="#1A1A1A" d="M836.706,1111.2c-0.076,8.301,6.59,15.09,14.892,15.162c8.301,0.078,15.09-6.588,15.166-14.889
				c0.074-8.299-6.59-15.088-14.891-15.166C843.571,1096.233,836.784,1102.899,836.706,1111.2z"/>
			<path fill="#1A1A1A" d="M828.782,881.391c-0.074,8.299,6.592,15.088,14.891,15.166c8.304,0.074,15.093-6.592,15.167-14.891
				c0.078-8.303-6.588-15.09-14.89-15.166C835.649,866.426,828.862,873.092,828.782,881.391z"/>
			<path fill="#1A1A1A" d="M823.241,652.319c-0.078,8.301,6.592,15.092,14.891,15.168c8.302,0.075,15.091-6.591,15.169-14.892
				c0.072-8.3-6.592-15.091-14.894-15.165C830.106,637.353,823.317,644.018,823.241,652.319z"/>
			<circle fill="#1A1A1A" cx="832.863" cy="460.603" r="15.03"/>
		</g>
		<g>
			<path fill="#808080" d="M885.453,280.15c-0.057,6.526,5.184,11.866,11.711,11.928c6.525,0.059,11.865-5.186,11.926-11.712
				c0.059-6.526-5.184-11.865-11.707-11.925C890.855,268.381,885.516,273.623,885.453,280.15z"/>
			<path fill="#1A1A1A" d="M897.201,287.783c-4.146-0.038-7.49-3.444-7.453-7.597c0.039-4.109,3.414-7.453,7.525-7.453
				c4.217,0.038,7.559,3.445,7.521,7.594c-0.037,4.112-3.41,7.456-7.521,7.456H897.201z"/>
		</g>
		<g>
			<circle fill="#808080" cx="980.14" cy="146.531" r="11.818"/>
			<path fill="#1A1A1A" d="M980.071,154.056c-4.149-0.038-7.493-3.444-7.454-7.596c0.038-4.11,3.412-7.455,7.523-7.455
				c4.217,0.039,7.561,3.445,7.523,7.594c-0.039,4.113-3.412,7.456-7.523,7.456H980.071z"/>
		</g>
		<g>
			<path fill="#C3E02D" d="M1088.562,825.69c-2.717,12.883-24.439,79.797-24.439,79.797
				c-37.104-41.506-109.745-110.927-139.803-139.552c10.021-20.038,43.446-71.924,46.159-78.364
				C1011.988,727.647,1054.214,782.037,1088.562,825.69z"/>
			<path fill="#DBF74A" d="M1060.741,888.977c-35.698-38.873-93.06-95.891-123.54-125.189c5.387-10.286,35.426-61.189,35.426-61.189
				c36.293,34.943,76.853,87.898,107.347,125.957C1076.788,840.096,1067.114,870.391,1060.741,888.977z"/>
		</g>
		<g>
			<path fill="#C3E02D" d="M483.83,831.774c4.294,12.881,38.646,75.143,38.646,75.143
				c62.263-32.203,171.758-103.054,212.553-137.404c-15.03-30.059-45.088-77.292-49.382-83.733
				C608.355,750.188,558.975,784.54,483.83,831.774z"/>
			<path fill="#DBF74A" d="M525.944,895.391c-11.199-20.484-25.381-47.154-31.4-60.217c66.732-42.113,116.17-76.243,189.127-136.594
				c9.288,14.642,28.248,45.249,40.556,68.696C681.855,801.41,586.015,863.34,525.944,895.391z"/>
		</g>
		<g>
			<path fill="#93AB20" d="M808.022,327.595c-93.034-56.539-299.144-204.68-359.258-245.472C493.851,47.771,580.264,7.157,632.508,0
				c0.181,18.071,1.612,91.425,2.327,102.877C651.653,134.723,731.091,212.014,808.022,327.595z"/>
			<path fill="#DBF74A" d="M777.251,297.893c-66.963-44.207-171.753-121.912-239.971-169.787
				c-25.709-18.042-48.793-34.242-66.012-46.157c40.387-26.88,103.211-56.612,148.299-66.76c0.245,9.022,0.522,20.491,0.809,32.344
				c0.615,25.526,1.196,49.636,1.603,56.148l0.172,2.764l1.294,2.448c7.571,14.336,25.201,35.261,49.606,64.225
				C697.249,201.835,745.188,254.507,777.251,297.893z"/>
		</g>
		<g>
			<circle fill="#808080" cx="515.646" cy="85.955" r="11.819"/>
			<path fill="#1A1A1A" d="M515.575,93.482c-4.146-0.039-7.491-3.444-7.453-7.596c0.038-4.109,3.413-7.455,7.524-7.455
				c4.217,0.038,7.561,3.445,7.523,7.595c-0.037,4.111-3.412,7.456-7.523,7.456H515.575z"/>
		</g>
	</g>
</g>
<g>
	<path fill="#793F07" d="M402.532,725.531c-29.73,3.715-36.993-0.206-75.839,7.025c-90.594,16.849-182.283,36.234-242.281,3.51
		C21.209,693.927,1.467,629.182,13.838,603.339c15.801-33.005,65.835-110.25,144.836-103.228
		c39.326,4.916,74.264,37.393,74.264,37.393s130.094,37.392,157.476,43.187C392.526,610.187,406.743,683.394,402.532,725.531z"/>
	<linearGradient id="SVGID_12_" gradientUnits="userSpaceOnUse" x1="298.7773" y1="764.0752" x2="226.4466" y2="667.8667">
		<stop  offset="0" style="stop-color:#AD673B"/>
		<stop  offset="1" style="stop-color:#BE7A50"/>
	</linearGradient>
	<path fill="url(#SVGID_12_)" d="M186.594,741.856c-40.768,0-68.199-2.474-94.811-16.854c-39.711-26.644-61.76-64.145-65.836-86.901
		c-1.904-10.647-2.055-25.021,1.586-30.021c0,0,48.449-107.269,132.727-97.435c54.773,22.467,69.516,35.811,69.516,35.811
		s115.871,35.819,123.604,37.22c-5.619,16.857-16.857,120.088-19.314,136.588C289.288,728.861,229.775,739.046,186.594,741.856z"/>
	<linearGradient id="SVGID_13_" gradientUnits="userSpaceOnUse" x1="165.8525" y1="841.7896" x2="192.8903" y2="582.6763">
		<stop  offset="6.030000e-006" style="stop-color:#BE7A50"/>
		<stop  offset="0.3114" style="stop-color:#C38154"/>
		<stop  offset="0.7587" style="stop-color:#D39461"/>
		<stop  offset="1" style="stop-color:#DDA169"/>
	</linearGradient>
	<path fill="url(#SVGID_13_)" d="M342.493,698.145c4.436-36.339,7.245-103.567,10.886-114.469
		c-7.732-1.4-123.604-37.22-123.604-37.22s-33.178-29.496-69.516-35.811c-84.277-9.834-130.621,94.802-130.621,94.802
		c-2.105,8.424-9.133,23.173,34.41,51.26C115.66,713.945,192.213,738.871,342.493,698.145z"/>
	<path fill="#793F07" d="M289.825,562.257c-23.182-5.616-83.573-22.821-130.622-30.544c42.135,0,66.363,7.547,71.982,7.723
		C235.395,542.947,278.586,557.342,289.825,562.257z"/>
</g>
<g>
	<g>
		<path fill="#793F07" d="M289.825,568.052c6.843-14.749,19.305-51.263,26.678-59.516c4.318-4.826,35.819-30.548,41.79-41.787
			c6.316-10.533,10.007-37.391,12.464-66.712c4.738-19.486,64.283-13.43,67.588,25.635c3.512,41.43-14.393,85.673-23.879,107.44
			C402.884,536.803,298.245,564.89,289.825,568.052z"/>
		<linearGradient id="SVGID_14_" gradientUnits="userSpaceOnUse" x1="328.8564" y1="466.5771" x2="392.0596" y2="487.1182">
			<stop  offset="0" style="stop-color:#AD673B"/>
			<stop  offset="1" style="stop-color:#BE7A50"/>
		</linearGradient>
		<path fill="url(#SVGID_14_)" d="M309.483,549.618c4.537-12.228,10.156-28.145,14.929-34.763
			c2.414-3.363,16.924-14.718,24.221-22.119c7.908-8.021,14.365-13.053,16.445-15.989c8.839-12.454,15.507-45.107,16.212-72.494
			c7.371-8.429,41.605-3.69,46.344,19.485c4.318,21.084-7.725,65.66-16.848,87.432c0,0,19.455-0.03,20.539,4.743
			C428.69,516.646,338.249,542.162,309.483,549.618z"/>
		<linearGradient id="SVGID_15_" gradientUnits="userSpaceOnUse" x1="356.8037" y1="466.2139" x2="491.1889" y2="504.5303">
			<stop  offset="6.030000e-006" style="stop-color:#BE7A50"/>
			<stop  offset="0.146" style="stop-color:#CE8E5D"/>
			<stop  offset="0.2976" style="stop-color:#D99C66"/>
			<stop  offset="0.43" style="stop-color:#DDA169"/>
		</linearGradient>
		<path fill="url(#SVGID_15_)" d="M383.569,411.625c1.059,13.167-2.104,46.877-6.322,69.524
			c-14.216,15.273-26.007,28.725-32.649,59.512c36.188-9.997,84.923-24.245,86.728-24.749c-1.084-4.773-20.539-4.743-20.539-4.743
			c9.123-21.772,21.166-66.348,16.848-87.432c-3.213-15.729-20.01-22.945-32.783-23.334
			C389.894,400.038,383.569,405.305,383.569,411.625z"/>
	</g>
	<g>
		<path fill="#793F07" d="M279.812,552.779c18.962-5.266,43.72-13.166,43.72-13.166s8.948-12.643,23.7-25.286
			c15.247-13.071,27.811-19.8,35.283-22.292c37.57,1.753,58.287-1.057,99.02,5.967c19.298,48.748,30.955,112.641,21.066,187.5
			c-2.457,18.61-11.237,38.625-15.799,45.997c-20.363,14.747-65.836,20.019-87.432,18.962c-27.91-2.634-68.819-12.639-81.106-17.558
			C322.474,720.965,331.959,621.072,279.812,552.779z"/>
		<linearGradient id="SVGID_16_" gradientUnits="userSpaceOnUse" x1="290.3701" y1="760.6533" x2="361.5618" y2="671.46">
			<stop  offset="0" style="stop-color:#AD673B"/>
			<stop  offset="1" style="stop-color:#BE7A50"/>
		</linearGradient>
		<path fill="url(#SVGID_16_)" d="M408.151,740.28c-41.907,0-81.458-15.449-100.421-21.067
			c-20.02-20.019-42.135-100.074-20.371-155.199c21.066-18.262,83.958-59.964,94.106-60.392c38.191,1.3,70.59,1.396,107.44,7.724
			c8.957,54.685,4.571,185.391-10.534,214.186C471.354,730.099,439.048,737.47,408.151,740.28z"/>
		<linearGradient id="SVGID_17_" gradientUnits="userSpaceOnUse" x1="421.2393" y1="620.6074" x2="188.3401" y2="601.4825">
			<stop  offset="6.030000e-006" style="stop-color:#BE7A50"/>
			<stop  offset="0.5466" style="stop-color:#CD8D5C"/>
			<stop  offset="1" style="stop-color:#DDA169"/>
		</linearGradient>
		<path fill="url(#SVGID_17_)" d="M456.618,732.573c10.643-2.47,18.66-5.033,21.754-7.042
			c15.105-28.794,19.491-159.5,10.534-214.186c-36.851-6.328-69.249-6.424-107.44-7.724c-10.148,0.428-73.04,42.13-94.106,60.392
			c-19.658,49.858,7.732,125.704,25.638,146.77c12.639,7.373,55.125,22.82,93.049,24.929
			C426.409,736.066,440.306,734.795,456.618,732.573z"/>
		<linearGradient id="SVGID_18_" gradientUnits="userSpaceOnUse" x1="510.0537" y1="596.4253" x2="359.2461" y2="625.1511">
			<stop  offset="6.030000e-006" style="stop-color:#BE7A50"/>
			<stop  offset="1" style="stop-color:#DDA169"/>
		</linearGradient>
		<path fill="url(#SVGID_18_)" d="M488.906,511.346c-36.851-6.328-67.673-14.152-105.864-15.453c-0.184,0.009-0.42,0.05-0.629,0.084
			c-3.271,61.726,39.953,145.986,23.633,193.388c3.506,23.524,3.506,36.867,0.697,46.001c10.533,1.047,58.639-3.515,72.687-9.486
			c3.857-7.724,9.828-22.82,11.934-35.463C498.014,650.534,497.444,563.481,488.906,511.346z"/>
		<path fill="#793F07" d="M403.062,565.419c6.139,2.104,81.282-9.834,93.217-9.481c6.322,1.58,17.033,8.248,21.42,10.18
			c5.619,12.643,6.675,40.559,0.703,59.869c-2.104,3.162-4.738,5.794-4.738,5.794s3.682,3.162,3.682,6.844
			c0.881,17.91-3.505,46.176-11.582,50.387c-28.438,8.78-72.334,11.942-86.381,10.533
			C415.171,689.013,404.638,582.272,403.062,565.419z"/>
		<linearGradient id="SVGID_19_" gradientUnits="userSpaceOnUse" x1="580.9404" y1="629.8115" x2="353.8795" y2="634.2637">
			<stop  offset="6.030000e-006" style="stop-color:#BE7A50"/>
			<stop  offset="0.2526" style="stop-color:#C78557"/>
			<stop  offset="0.9989" style="stop-color:#DDA169"/>
		</linearGradient>
		<path fill="url(#SVGID_19_)" d="M407.446,698.145c-11.236-18.261-11.236-45.648-10.709-58.992
			c-7.371-17.905-14.566-44.944-9.652-66.711c8.428,0,16.496,2.981,16.496,2.981s48.197-8.429,69.877-8.601
			c6.5,2.545,26.863,5.708,31.601,7.023c7.372,11.851,6.323,32.301,2.105,49.86c-2.802,4.562-16.849,7.724-16.849,7.724
			s7.02,2.104,14.047,2.809c3.506,12.638,2.105,37.924-6.324,48.458C476.973,691.822,420.085,699.194,407.446,698.145z"/>
		<path fill="#793F07" d="M417.452,635.468c-2.457,0.524,0.529,2.108,3.338,2.805c28.791,3.162,70.221-0.696,86.374-4.562
			c1.233-2.629,3.162-6.668,4.042-9.477C495.582,630.201,447.124,635.64,417.452,635.468z"/>
		<path fill="#793F07" d="M408.151,574.2c-1.762-0.353-7.723-3.515-9.133-3.515c0.965,4.038-0.527,10.27,1.057,17.905
			C402.884,581.571,407.095,576.304,408.151,574.2z"/>
		<path fill="#793F07" d="M379.36,493.088c18.955-4.567,76.545-5.62,94.098-4.215c10.273,2.106,28.355,7.02,34.939,11.238
			c7.723,11.146,10.709,53.717,2.28,72.68c-10.449,4.302-32.481,9.128-39.324,9.128s-61.097-3.334-72.159-4.739
			C390.069,568.404,367.595,532.765,379.36,493.088z"/>
		<linearGradient id="SVGID_20_" gradientUnits="userSpaceOnUse" x1="579.6719" y1="540.1968" x2="359.8588" y2="535.7501">
			<stop  offset="6.030000e-006" style="stop-color:#BE7A50"/>
			<stop  offset="1" style="stop-color:#DDA169"/>
		</linearGradient>
		<path fill="url(#SVGID_20_)" d="M474.691,572.791c0,0-71.983,2.104-86.911,1.056c-4.033-14.571-15.096-50.21-1.4-70.225
			c22.125-3.162,76.721-4.567,84.621-2.721c5.794,1.845,22.912,8.16,28.179,11.851c4.738,13.426,0.528,46.344-3.95,54.512
			C489.694,569.369,474.691,572.791,474.691,572.791z"/>
		<linearGradient id="SVGID_21_" gradientUnits="userSpaceOnUse" x1="455.7021" y1="535.3462" x2="554.6594" y2="542.2906">
			<stop  offset="0" style="stop-color:#DDA169"/>
			<stop  offset="0.4286" style="stop-color:#DBA36C"/>
			<stop  offset="0.7826" style="stop-color:#D3AB76"/>
			<stop  offset="1" style="stop-color:#CCB381"/>
		</linearGradient>
		<path fill="url(#SVGID_21_)" d="M499.439,510.293c-5.266-3.69-19.222-8.076-28.967-9.658c14.919,14.22,10.71,61.269,4.395,71.803
			c8.948-0.524,19.307-2.81,25.629-4.915C505.763,552.076,506.225,522.579,499.439,510.293z"/>
	</g>
</g>
<g>
	<g>
		<path fill="#93AB20" d="M0.047,613.499c-1.877-26.793,53.674-112.716,123.449-122.376c48.092-6.659,104.496,16.247,128.819,33.277
			c10.97,7.68,18.249,18.25,16.103,23.618c-42.939,33.278-41.865,157.265-1.074,200.205
			C239.434,760.031,15.074,828.196,0.047,613.499z"/>
		<path fill="#B7D130" d="M159.748,754.914c-90.834,0-140.242-47.881-146.852-142.314c-1.268-18.084,46.919-99.656,112.367-108.718
			c5.078-0.703,10.48-1.06,16.053-1.06c42.053,0,85.867,19.707,103.611,32.13c4.451,3.116,7.428,6.297,9.17,8.625
			c-22.023,22.51-28.145,60.688-29.811,82.607c-2.832,37.264,3.291,84.261,22.219,115.628
			C227.059,747.633,194.639,754.914,159.748,754.914z"/>
		<path fill="#DBF74A" d="M233.561,712.293c-8.676-27.447-11.313-59.286-9.273-86.109c1.666-21.919,7.787-60.097,29.811-82.607
			c-1.742-2.328-4.719-5.509-9.17-8.625c-17.744-12.423-61.559-32.13-103.611-32.13c-5.572,0-10.975,0.356-16.053,1.06
			C59.815,512.944,11.629,594.516,12.896,612.6c0.156,2.227,0.359,4.4,0.561,6.577c8.807,21.413,21.098,41.134,35.969,57.658
			C99.15,723.007,169.438,725.096,233.561,712.293z"/>
		<linearGradient id="SVGID_22_" gradientUnits="userSpaceOnUse" x1="111.2178" y1="833.9653" x2="122.0352" y2="515.9351">
			<stop  offset="0" style="stop-color:#949FA1"/>
			<stop  offset="1" style="stop-color:#B7C6C9"/>
		</linearGradient>
		<path fill="url(#SVGID_22_)" d="M100.953,530.84C38,576.625,27.211,662.609,60.876,726.215
			c22.175,18.766,52.884,27.781,90.173,29.342c-9.203-11.265-18.498-24.12-24.332-35.783
			C96.66,655.366,96.66,573.78,165.363,526.546c9.891-5.77,21.801-10.443,32.205-14.313c-13.592-4.338-29.355-8.865-44.372-10.017
			C135.541,508.855,117.545,518.771,100.953,530.84z"/>
		<path fill="#868F98" d="M43.328,669.647c2.35,19.686,8.24,38.983,17.548,56.568c22.175,18.766,52.884,27.781,90.173,29.342
			c-9.203-11.265-18.498-24.12-24.332-35.783c-0.803-1.724-1.574-3.464-2.336-5.208c-27.43-5.766-53.171-17.503-74.955-37.732
			C47.334,674.51,45.316,672.095,43.328,669.647z"/>
	</g>
	<g>
		<path fill="#93AB20" d="M317.798,741.959c-30.594-21.471-46.875-141.969-16.102-202.8c-9.84-0.717-34.353-4.025-45.804-4.742
			c-5.727-1.253-18.068,2.596-20.934,5.727c-54.252,59.297-46.16,166.753,5.803,205.159c2.609,1.931,8.33,3.456,14.772,4.17
			C269.132,748.4,308.137,744.106,317.798,741.959z"/>
		<path fill="#B7D130" d="M255.786,736.529c-4.353-0.572-6.87-1.426-7.626-1.776c-20.252-15.131-34.137-44.495-37.173-78.639
			c-3.628-40.807,8.625-80.569,32.796-106.549c1.857-1.023,6.717-2.514,9.474-2.514c7.03,1.472,17.814,1.954,28.248,2.42
			c0.393,0.017,0.786,0.033,1.179,0.051c-18.905,56.503-10.433,141.454,11.59,182.883
			C280.704,734.08,264.417,735.806,255.786,736.529z"/>
		<path fill="#DBF74A" d="M284.521,549.895c-0.393-0.019-22.411-3.598-30.059-3.758c-4.161-0.377-8.05,1.075-10.679,3.429
			c-24.171,25.98-36.424,65.742-32.796,106.549c2.071,23.302,9.204,44.369,19.956,60.213c18.145-1.621,36.513-3.157,54.844-3.955
			C270.411,667.469,268.292,598.398,284.521,549.895z"/>
	</g>
</g>
</svg>
