<?xml version="1.0" encoding="utf-8"?>
<!-- Generator: Adobe Illustrator 15.0.0, SVG Export Plug-In . SVG Version: 6.00 Build 0)  -->
<!DOCTYPE svg PUBLIC "-//W3C//DTD SVG 1.1//EN" "http://www.w3.org/Graphics/SVG/1.1/DTD/svg11.dtd">
<svg version="1.1" id="_x30_1_1_" xmlns="http://www.w3.org/2000/svg" xmlns:xlink="http://www.w3.org/1999/xlink" x="0px" y="0px"
	 width="1248.11px" height="1003.842px" viewBox="0 0 1248.11 1003.842" enable-background="new 0 0 1248.11 1003.842"
	 xml:space="preserve">
<g id="Tshirt_x5F_Long_5_">
	<g>
		<path fill="#999999" d="M1062.757,127.386c44.547,9.483,102.338,76.934,105.199,147.068
			c1.432,67.271,13.598,288.054,15.029,328.129c31.488,97.33,55.105,148.143,65.125,382.877
			c-35.426,12.881-114.455,12.893-139.553,7.873c-36.867-90.402-89.743-215.871-95.896-347.811
			C1001.379,403.525,1061.831,154.248,1062.757,127.386z"/>
		<path fill="#E8EBED" d="M1167.853,987.949c-20.115,0-37.25-1.189-47.951-2.602c-37.234-91.367-86.317-214.424-92.224-341.139
			c-8.83-189.387,27.192-386.423,42.571-470.56c2.156-11.785,3.822-20.95,5.037-28.062c36.574,20.757,79.646,72.379,81.945,128.676
			c0.924,43.432,6.424,152.88,10.441,232.796c2.191,43.57,4.082,81.197,4.586,95.268l0.064,1.797c0,0,4.281,13.19,6.1,18.76
			c27.951,85.669,47.98,145.928,57.521,356.85C1219.677,983.724,1195.79,987.949,1167.853,987.949z"/>
		<path fill="#FFFFFF" d="M1235.944,979.734c-9.541-210.922-29.57-271.181-57.521-356.85c-1.818-5.57-6.1-18.76-6.1-18.76
			l-0.064-1.797c-0.504-14.071-2.395-51.698-4.586-95.268c-4.018-79.916-9.518-189.364-10.441-232.796
			c-2.299-56.297-45.371-107.919-81.945-128.676c-1.215,7.111-2.881,16.277-5.037,28.062
			c-8.348,45.682-3.898,111.987-13.934,204.937c11.516,66.365-4.293,150.285,19.32,246.185
			c6.441,107.349,57.969,300.576,76.852,362.939c4.873,0.15,10.002,0.24,15.365,0.24
			C1195.79,987.949,1219.677,983.724,1235.944,979.734z"/>
	</g>
	<g>
		<path fill="#999999" d="M379.302,70.849C422.241,62.262,612.963,10.734,624.771,0c57.969,90.172,257.284,102.696,275.53,13.596
			c33.279,26.836,133.473,96.973,176.946,118.979c11.281,20.639,2.053,48.374,8.051,76.754
			c24.313,74.604,28.273,191.262-13.238,338.148c-6.131,192.287,10.496,360.953,13.238,398.264
			c-18.609,45.801-388.246,111.641-600.08-17.176c5.724-52.957,32.563-188.574,13.955-310.237
			C427.608,498.097,328.848,312.385,379.302,70.849z"/>
		<path fill="#E8EBED" d="M811.841,990.601c-87.475,0-211.317-12.139-309.984-69.199c1.009-8,2.345-17.438,3.826-27.918
			c9.335-65.975,22.266-175.548,6.752-276.967l-0.38-2.482l-1.283-2.158C450.798,511.118,342.426,323.681,389.901,80.58
			c42.965-9.729,185.233-46.055,230.58-64.395c37.72,48.331,110.807,70.091,169.404,70.091c58.185,0,101.694-19.956,118.956-53.243
			c39.428,30.847,115.18,87.095,158.603,106.863c50.057,98.417,41.74,228.85-7.779,404.078l-0.43,1.519l-0.051,1.575
			c-5.389,168.988,13.967,392.33,14.305,396.527C1059.374,959.617,954.691,990.601,811.841,990.601z"/>
		<path fill="#FFFFFF" d="M1059.185,547.068l0.051-1.575l0.43-1.519c49.52-175.229,57.836-305.661,7.779-404.078
			C1024.021,120.128,948.27,63.88,908.842,33.034C891.58,66.321,848.07,86.276,789.886,86.276
			c-58.598,0-131.685-21.76-169.404-70.091c-38.786,15.687-148.435,44.519-206.244,58.625
			c-1.453,89.567,7.467,179.073,36.629,266.558c30.058,94.467,107.349,167.465,128.818,270.521
			c26.549,117.567-3.828,228.435-8.332,341.48c82.897,29.912,172.633,37.232,240.488,37.232
			c142.851,0,247.533-30.984,261.648-47.006C1073.151,939.398,1053.796,716.056,1059.185,547.068z"/>
		<g>
			<path fill="#999999" d="M784.923,127.048c-1.148,0-2.297-0.006-3.459-0.019c-97.918-1.101-195.215-77.092-198.538-106.27
				l6.399-0.729c3.057,26.831,99.239,99.514,192.211,100.558c93.421,1.016,142.954-43.818,148.149-76.016l6.355,1.027
				C930.924,77.332,885.363,127.048,784.923,127.048z"/>
		</g>
		<path fill="#E8EBED" d="M463.749,416.513c81.584,79.438,324.193,113.79,412.22,103.055
			c-118.085,42.94-287.695,38.646-330.636,36.498C506.688,502.392,478.776,437.982,463.749,416.513z"/>
	</g>
	<g>
		<path fill="#999999" d="M70.852,461.6c63.336,17.176,249.05,77.291,270.52,81.585c13.955-31.131,99.835-158.877,105.202-327.772
			c18.606-77.292,24.33-118.082,25.763-138.836c-78.724-45.801-166.749,14.313-207.542,91.604
			C224.719,244.04,82.66,428.322,70.852,461.6z"/>
		<path fill="#FFFFFF" d="M334.496,528.126c-19.948-5.589-63.938-19.251-106.734-32.544
			c-48.891-15.185-103.395-32.114-138.229-42.122c12.104-20.05,37.953-56.249,63.129-91.502
			c46.609-65.265,104.598-146.466,128.303-196.231c28.511-53.836,83.346-94.878,136.624-94.878c14.766,0,47.299-1.931,61.188,3.221
			c-2.298,22.116-8.655,48.254-24.689,114.863l-3.221,27.912c-21.471,108.422-83.174,250.307-109.469,298.516
			C338.735,520.243,336.434,524.463,334.496,528.126z"/>
	</g>
</g>
<g>
	<path fill="#793F07" d="M400.341,647.702c-29.73,3.715-36.993-0.206-75.839,7.025c-90.594,16.849-182.283,36.234-242.281,3.51
		C19.018,616.098-0.725,551.353,11.646,525.51c15.801-33.005,65.835-110.25,144.836-103.228
		c39.326,4.916,74.264,37.393,74.264,37.393s130.094,37.392,157.476,43.187C390.335,532.357,404.552,605.564,400.341,647.702z"/>
	<linearGradient id="SVGID_1_" gradientUnits="userSpaceOnUse" x1="296.5869" y1="686.2466" x2="224.256" y2="590.0378">
		<stop  offset="0" style="stop-color:#AD673B"/>
		<stop  offset="1" style="stop-color:#BE7A50"/>
	</linearGradient>
	<path fill="url(#SVGID_1_)" d="M184.402,664.027c-40.768,0-68.199-2.474-94.811-16.854c-39.711-26.644-61.76-64.145-65.836-86.901
		c-1.904-10.647-2.055-25.021,1.586-30.021c0,0,48.449-107.269,132.727-97.435c54.773,22.467,69.516,35.811,69.516,35.811
		s115.871,35.819,123.604,37.22c-5.619,16.857-16.857,120.088-19.314,136.588C287.097,651.032,227.584,661.217,184.402,664.027z"/>
	<linearGradient id="SVGID_2_" gradientUnits="userSpaceOnUse" x1="163.6611" y1="763.9614" x2="190.6989" y2="504.8481">
		<stop  offset="6.030000e-006" style="stop-color:#BE7A50"/>
		<stop  offset="0.3114" style="stop-color:#C38154"/>
		<stop  offset="0.7587" style="stop-color:#D39461"/>
		<stop  offset="1" style="stop-color:#DDA169"/>
	</linearGradient>
	<path fill="url(#SVGID_2_)" d="M340.302,620.316c4.436-36.339,7.245-103.567,10.886-114.469
		c-7.732-1.4-123.604-37.22-123.604-37.22s-33.178-29.496-69.516-35.811c-84.277-9.834-130.621,94.802-130.621,94.802
		c-2.105,8.424-9.133,23.173,34.41,51.26C113.469,636.116,190.021,661.042,340.302,620.316z"/>
	<path fill="#793F07" d="M287.634,484.428c-23.182-5.616-83.573-22.821-130.622-30.544c42.135,0,66.363,7.547,71.982,7.723
		C233.203,465.118,276.395,479.513,287.634,484.428z"/>
</g>
<g>
	<g>
		<path fill="#793F07" d="M287.634,490.223c6.843-14.749,19.305-51.263,26.678-59.516c4.318-4.826,35.819-30.548,41.79-41.787
			c6.316-10.533,10.007-37.391,12.464-66.712c4.738-19.486,64.283-13.43,67.588,25.635c3.512,41.43-14.393,85.673-23.879,107.44
			C400.692,458.974,296.054,487.061,287.634,490.223z"/>
		<linearGradient id="SVGID_3_" gradientUnits="userSpaceOnUse" x1="326.666" y1="388.7485" x2="389.8692" y2="409.2896">
			<stop  offset="0" style="stop-color:#AD673B"/>
			<stop  offset="1" style="stop-color:#BE7A50"/>
		</linearGradient>
		<path fill="url(#SVGID_3_)" d="M307.292,471.789c4.537-12.228,10.156-28.145,14.929-34.763
			c2.414-3.363,16.924-14.718,24.221-22.119c7.908-8.021,14.365-13.053,16.445-15.989c8.839-12.454,15.507-45.107,16.212-72.494
			c7.371-8.429,41.605-3.69,46.344,19.485c4.318,21.084-7.725,65.66-16.848,87.432c0,0,19.455-0.03,20.539,4.743
			C426.499,438.817,336.058,464.333,307.292,471.789z"/>
		<linearGradient id="SVGID_4_" gradientUnits="userSpaceOnUse" x1="354.6133" y1="388.3848" x2="488.9968" y2="426.7007">
			<stop  offset="6.030000e-006" style="stop-color:#BE7A50"/>
			<stop  offset="0.146" style="stop-color:#CE8E5D"/>
			<stop  offset="0.2976" style="stop-color:#D99C66"/>
			<stop  offset="0.43" style="stop-color:#DDA169"/>
		</linearGradient>
		<path fill="url(#SVGID_4_)" d="M381.378,333.795c1.059,13.167-2.104,46.877-6.322,69.524
			c-14.216,15.273-26.007,28.725-32.649,59.512c36.188-9.997,84.923-24.245,86.728-24.749c-1.084-4.773-20.539-4.743-20.539-4.743
			c9.123-21.772,21.166-66.348,16.848-87.432c-3.213-15.729-20.01-22.945-32.783-23.334
			C387.702,322.208,381.378,327.476,381.378,333.795z"/>
	</g>
	<g>
		<path fill="#793F07" d="M277.62,474.95c18.962-5.266,43.72-13.166,43.72-13.166s8.948-12.643,23.7-25.286
			c15.247-13.071,27.811-19.8,35.283-22.292c37.57,1.753,58.287-1.057,99.02,5.967c19.298,48.748,30.955,112.641,21.066,187.5
			c-2.457,18.61-11.237,38.625-15.799,45.997c-20.363,14.747-65.836,20.019-87.432,18.962c-27.91-2.634-68.819-12.639-81.106-17.558
			C320.282,643.136,329.768,543.243,277.62,474.95z"/>
		<linearGradient id="SVGID_5_" gradientUnits="userSpaceOnUse" x1="288.1797" y1="682.8252" x2="359.3714" y2="593.6318">
			<stop  offset="0" style="stop-color:#AD673B"/>
			<stop  offset="1" style="stop-color:#BE7A50"/>
		</linearGradient>
		<path fill="url(#SVGID_5_)" d="M405.96,662.451c-41.907,0-81.458-15.449-100.421-21.067
			c-20.02-20.019-42.135-100.074-20.371-155.199c21.066-18.262,83.958-59.964,94.106-60.392c38.191,1.3,70.59,1.396,107.44,7.724
			c8.957,54.685,4.571,185.391-10.534,214.186C469.162,652.27,436.856,659.641,405.96,662.451z"/>
		<linearGradient id="SVGID_6_" gradientUnits="userSpaceOnUse" x1="419.0469" y1="542.7783" x2="186.1488" y2="523.6536">
			<stop  offset="6.030000e-006" style="stop-color:#BE7A50"/>
			<stop  offset="0.5466" style="stop-color:#CD8D5C"/>
			<stop  offset="1" style="stop-color:#DDA169"/>
		</linearGradient>
		<path fill="url(#SVGID_6_)" d="M454.427,654.744c10.643-2.47,18.659-5.033,21.754-7.042
			c15.105-28.794,19.491-159.5,10.534-214.186c-36.851-6.328-69.249-6.424-107.44-7.724c-10.148,0.428-73.04,42.13-94.106,60.392
			c-19.658,49.858,7.732,125.704,25.638,146.77c12.639,7.373,55.125,22.82,93.049,24.929
			C424.218,658.237,438.114,656.966,454.427,654.744z"/>
		<linearGradient id="SVGID_7_" gradientUnits="userSpaceOnUse" x1="507.8623" y1="518.5972" x2="357.0552" y2="547.3229">
			<stop  offset="6.030000e-006" style="stop-color:#BE7A50"/>
			<stop  offset="1" style="stop-color:#DDA169"/>
		</linearGradient>
		<path fill="url(#SVGID_7_)" d="M486.715,433.517c-36.851-6.328-67.673-14.152-105.864-15.453c-0.184,0.009-0.42,0.05-0.629,0.084
			c-3.271,61.726,39.953,145.986,23.633,193.388c3.506,23.524,3.506,36.867,0.697,46.001c10.533,1.047,58.639-3.515,72.687-9.486
			c3.857-7.724,9.828-22.82,11.934-35.463C495.822,572.705,495.252,485.652,486.715,433.517z"/>
		<path fill="#793F07" d="M400.87,487.59c6.139,2.104,81.282-9.834,93.216-9.481c6.323,1.58,17.034,8.248,21.421,10.18
			c5.619,12.643,6.675,40.559,0.703,59.869c-2.104,3.162-4.738,5.794-4.738,5.794s3.682,3.162,3.682,6.844
			c0.881,17.91-3.505,46.176-11.582,50.387c-28.438,8.78-72.334,11.942-86.381,10.533
			C412.979,611.184,402.446,504.443,400.87,487.59z"/>
		<linearGradient id="SVGID_8_" gradientUnits="userSpaceOnUse" x1="578.749" y1="551.9824" x2="351.6881" y2="556.4346">
			<stop  offset="6.030000e-006" style="stop-color:#BE7A50"/>
			<stop  offset="0.2526" style="stop-color:#C78557"/>
			<stop  offset="0.9989" style="stop-color:#DDA169"/>
		</linearGradient>
		<path fill="url(#SVGID_8_)" d="M405.255,620.316c-11.236-18.261-11.236-45.648-10.709-58.992
			c-7.371-17.905-14.566-44.944-9.652-66.711c8.428,0,16.496,2.981,16.496,2.981s48.197-8.429,69.877-8.601
			c6.5,2.545,26.862,5.708,31.601,7.023c7.372,11.851,6.323,32.301,2.105,49.86c-2.802,4.562-16.849,7.724-16.849,7.724
			s7.02,2.104,14.047,2.809c3.506,12.638,2.105,37.924-6.324,48.458C474.781,613.993,417.894,621.365,405.255,620.316z"/>
		<path fill="#793F07" d="M415.261,557.639c-2.457,0.524,0.529,2.108,3.338,2.805c28.791,3.162,70.221-0.696,86.374-4.562
			c1.233-2.629,3.162-6.668,4.042-9.477C493.391,552.372,444.933,557.811,415.261,557.639z"/>
		<path fill="#793F07" d="M405.96,496.371c-1.762-0.353-7.723-3.515-9.133-3.515c0.965,4.038-0.527,10.27,1.057,17.905
			C400.692,503.742,404.903,498.475,405.96,496.371z"/>
		<path fill="#793F07" d="M377.169,415.259c18.955-4.567,76.545-5.62,94.098-4.215c10.273,2.106,28.355,7.02,34.939,11.238
			c7.723,11.146,10.709,53.717,2.28,72.68c-10.449,4.302-32.481,9.128-39.324,9.128s-61.097-3.334-72.159-4.739
			C387.878,490.575,365.403,454.936,377.169,415.259z"/>
		<linearGradient id="SVGID_9_" gradientUnits="userSpaceOnUse" x1="577.4795" y1="462.3677" x2="357.6664" y2="457.921">
			<stop  offset="6.030000e-006" style="stop-color:#BE7A50"/>
			<stop  offset="1" style="stop-color:#DDA169"/>
		</linearGradient>
		<path fill="url(#SVGID_9_)" d="M472.5,494.962c0,0-71.983,2.104-86.911,1.056c-4.033-14.571-15.096-50.21-1.4-70.225
			c22.125-3.162,76.721-4.567,84.621-2.721c5.794,1.845,22.912,8.16,28.179,11.851c4.738,13.426,0.528,46.344-3.95,54.512
			C487.503,491.54,472.5,494.962,472.5,494.962z"/>
		<linearGradient id="SVGID_10_" gradientUnits="userSpaceOnUse" x1="453.5127" y1="457.5171" x2="552.4673" y2="464.4613">
			<stop  offset="0" style="stop-color:#DDA169"/>
			<stop  offset="0.4286" style="stop-color:#DBA36C"/>
			<stop  offset="0.7826" style="stop-color:#D3AB76"/>
			<stop  offset="1" style="stop-color:#CCB381"/>
		</linearGradient>
		<path fill="url(#SVGID_10_)" d="M497.248,432.464c-5.266-3.69-19.222-8.076-28.967-9.658c14.919,14.22,10.71,61.269,4.395,71.803
			c8.948-0.524,19.307-2.81,25.629-4.915C503.571,474.247,504.033,444.75,497.248,432.464z"/>
	</g>
</g>
<g>
	<path fill="#999999" d="M117.369,418.66C68.293,428.201,2.863,500.245,0,543.185c7.16,47.233,27.197,93.035,84.451,124.525
		c65.838,27.195,217.56-5.725,230.44-8.588c-24.331-20.041-54.389-103.056-21.469-191.796
		c-21.471-4.295-50.161-10.118-68.704-20.039C191.838,429.701,168.896,408.642,117.369,418.66z"/>
	<path fill="#FFFFFF" d="M157.543,665.52c-29.223,0-51.936-3.18-67.527-9.454c-44.797-24.842-68.613-59.863-77.049-113.333
		c3.713-35.75,62.932-102.887,106.863-111.429c8.145-1.583,15.566-2.354,22.68-2.354c24.545,0,41.137,9.632,60.348,20.786
		c5.041,2.925,10.25,5.949,15.785,8.911c16.275,8.706,38.511,14.272,57.921,18.384c-21.942,72.288-5.934,139.303,15.096,173.698
		c-29.504,5.651-84.837,14.791-134.11,14.791C157.543,665.52,157.549,665.52,157.543,665.52z"/>
</g>
</svg>
