<?xml version="1.0" encoding="utf-8"?>
<!-- Generator: Adobe Illustrator 15.0.0, SVG Export Plug-In . SVG Version: 6.00 Build 0)  -->
<!DOCTYPE svg PUBLIC "-//W3C//DTD SVG 1.1//EN" "http://www.w3.org/Graphics/SVG/1.1/DTD/svg11.dtd">
<svg version="1.1" id="_x30_1_1_" xmlns="http://www.w3.org/2000/svg" xmlns:xlink="http://www.w3.org/1999/xlink" x="0px" y="0px"
	 width="1021.601px" height="1003.842px" viewBox="0 0 1021.601 1003.842" enable-background="new 0 0 1021.601 1003.842"
	 xml:space="preserve">
<g id="Tshirt_5_">
	<g>
		<path fill="#999999" d="M916.042,126.67c43.297,15.029,96.256,85.523,99.117,155.656c1.432,67.272,5.01,173.549,6.441,213.624
			c-35.783,24.332-104.129,31.49-154.22,21.47C850.203,445.855,914.612,168.178,916.042,126.67z"/>
		<path fill="#FFFFFF" d="M904.218,507.771c-9.334,0-17.963-0.528-25.772-1.57c-6.922-53.879,18.136-190.959,35.019-283.316
			c5.59-30.579,10.184-55.704,12.877-73.427c33.105,26.086,72.596,75.138,74.863,130.722c0.842,39.638,4.26,192.974,5.369,209.331
			C979.872,504.52,946.313,507.771,904.218,507.771z"/>
	</g>
	<g>
		<path fill="#999999" d="M227.579,70.849C270.519,62.262,461.24,10.734,473.048,0c57.969,90.172,257.284,102.696,275.53,13.596
			c33.279,26.836,130.252,96.973,176.409,116.295c11.281,20.639,2.59,51.058,8.588,79.438
			c24.313,74.604,28.273,191.262-13.238,338.148c-6.131,192.287,10.496,360.953,13.238,398.264
			c-18.609,45.801-388.246,111.641-600.08-17.176c5.724-52.957,32.563-188.574,13.955-310.237
			C275.886,498.097,177.125,312.385,227.579,70.849z"/>
		<path fill="#E8EBED" d="M660.118,990.601c-87.475,0-211.317-12.139-309.984-69.199c1.009-8,2.345-17.438,3.826-27.918
			c9.335-65.975,22.266-175.548,6.752-276.967l-0.38-2.482l-1.283-2.158C299.075,511.118,190.703,323.681,238.179,80.58
			c42.965-9.729,185.233-46.055,230.58-64.395c37.72,48.331,110.807,70.091,169.404,70.091c58.185,0,101.694-19.956,118.956-53.243
			c39.428,30.847,115.18,87.095,158.603,106.863c50.056,98.417,41.74,228.85-7.779,404.078l-0.43,1.519l-0.051,1.575
			c-5.389,168.988,13.967,392.33,14.305,396.527C907.651,959.617,802.969,990.601,660.118,990.601z"/>
		<path fill="#FFFFFF" d="M907.462,547.068l0.051-1.575l0.43-1.519c49.52-175.229,57.836-305.661,7.779-404.078
			C872.299,120.128,796.547,63.88,757.119,33.034c-17.262,33.287-60.771,53.243-118.956,53.243
			c-58.598,0-131.685-21.76-169.404-70.091c-38.786,15.687-148.435,44.519-206.244,58.625
			c-1.453,89.567,7.467,179.073,36.629,266.558c30.058,94.467,107.349,167.465,128.818,270.521
			c26.549,117.567-3.828,228.435-8.332,341.48c82.897,29.912,172.633,37.232,240.488,37.232
			c142.851,0,247.533-30.984,261.648-47.006C921.429,939.398,902.073,716.056,907.462,547.068z"/>
		<g>
			<path fill="#999999" d="M633.2,127.048c-1.148,0-2.297-0.006-3.459-0.019c-97.918-1.101-195.215-77.092-198.538-106.27
				l6.399-0.729c3.057,26.831,99.239,99.514,192.211,100.558c93.421,1.016,142.954-43.818,148.149-76.016l6.355,1.027
				C779.201,77.332,733.641,127.048,633.2,127.048z"/>
		</g>
		<path fill="#E8EBED" d="M312.026,416.513c81.584,79.438,324.193,113.79,412.22,103.055
			c-118.085,42.94-287.695,38.646-330.636,36.498C354.965,502.392,327.054,437.982,312.026,416.513z"/>
	</g>
	<g>
		<path fill="#999999" d="M0,344.23c46.158,37.572,210.402,100.193,231.872,104.487c15.902-29.352,51.527-124.524,62.979-233.305
			c18.606-77.292,24.33-118.082,25.763-138.836c-75.858-34.352-162.097,6.082-202.89,83.374C76.932,245.828,15.027,322.761,0,344.23
			z"/>
		<path fill="#FFFFFF" d="M226.146,432.973c-38.79-12.636-156.864-56.378-207.54-90.172c2.438-3.081,78.131-108.746,110.637-177.071
			c29.409-55.491,94.415-94.224,158.185-94.224c11.133,0,21.848,1.213,31.945,3.617
			C331.188,126.017,257.628,363.798,226.146,432.973z"/>
	</g>
</g>
<g>
	<g>
		<path fill="#793F07" d="M135.911,490.223c6.843-14.749,19.305-51.263,26.678-59.516c4.318-4.826,35.819-30.548,41.79-41.787
			c6.316-10.533,10.007-37.391,12.464-66.712c4.738-19.486,64.283-13.43,67.588,25.635c3.512,41.43-14.393,85.673-23.879,107.44
			C248.97,458.974,144.331,487.061,135.911,490.223z"/>
		<linearGradient id="SVGID_1_" gradientUnits="userSpaceOnUse" x1="174.9429" y1="388.7485" x2="238.1457" y2="409.2895">
			<stop  offset="0" style="stop-color:#AD673B"/>
			<stop  offset="1" style="stop-color:#BE7A50"/>
		</linearGradient>
		<path fill="url(#SVGID_1_)" d="M155.569,471.789c4.537-12.228,10.156-28.145,14.929-34.763
			c2.414-3.363,16.924-14.718,24.221-22.119c7.908-8.021,14.365-13.053,16.445-15.989c8.839-12.454,15.507-45.107,16.212-72.494
			c7.371-8.429,41.605-3.69,46.344,19.485c4.318,21.084-7.725,65.66-16.848,87.432c0,0,19.455-0.03,20.539,4.743
			C274.776,438.817,184.335,464.333,155.569,471.789z"/>
		<linearGradient id="SVGID_2_" gradientUnits="userSpaceOnUse" x1="202.8901" y1="388.3843" x2="337.2745" y2="426.7004">
			<stop  offset="6.030000e-006" style="stop-color:#BE7A50"/>
			<stop  offset="0.146" style="stop-color:#CE8E5D"/>
			<stop  offset="0.2976" style="stop-color:#D99C66"/>
			<stop  offset="0.43" style="stop-color:#DDA169"/>
		</linearGradient>
		<path fill="url(#SVGID_2_)" d="M229.655,333.795c1.059,13.167-2.104,46.877-6.322,69.524
			c-14.216,15.273-26.007,28.725-32.649,59.512c36.188-9.997,84.923-24.245,86.728-24.749c-1.084-4.773-20.539-4.743-20.539-4.743
			c9.123-21.772,21.166-66.348,16.848-87.432c-3.213-15.729-20.01-22.945-32.783-23.334
			C235.979,322.208,229.655,327.476,229.655,333.795z"/>
	</g>
	<g>
		<path fill="#793F07" d="M125.897,474.95c18.962-5.266,43.72-13.166,43.72-13.166s8.948-12.643,23.7-25.286
			c15.247-13.071,27.811-19.8,35.283-22.292c37.57,1.753,58.287-1.057,99.02,5.967c19.298,48.748,30.955,112.641,21.066,187.5
			c-2.457,18.61-11.237,38.625-15.799,45.997c-20.363,14.747-65.836,20.019-87.432,18.962c-27.91-2.634-68.819-12.639-81.106-17.558
			C168.56,643.136,178.045,543.243,125.897,474.95z"/>
		<linearGradient id="SVGID_3_" gradientUnits="userSpaceOnUse" x1="136.458" y1="682.8252" x2="207.6497" y2="593.6318">
			<stop  offset="0" style="stop-color:#AD673B"/>
			<stop  offset="1" style="stop-color:#BE7A50"/>
		</linearGradient>
		<path fill="url(#SVGID_3_)" d="M254.237,662.451c-41.907,0-81.458-15.449-100.42-21.067
			c-20.02-20.019-42.135-100.074-20.371-155.199c21.066-18.262,83.958-59.964,94.106-60.392c38.191,1.3,70.59,1.396,107.44,7.724
			c8.957,54.685,4.571,185.391-10.534,214.186C317.439,652.27,285.134,659.641,254.237,662.451z"/>
		<linearGradient id="SVGID_4_" gradientUnits="userSpaceOnUse" x1="267.3252" y1="542.7788" x2="34.4268" y2="523.654">
			<stop  offset="6.030000e-006" style="stop-color:#BE7A50"/>
			<stop  offset="0.5466" style="stop-color:#CD8D5C"/>
			<stop  offset="1" style="stop-color:#DDA169"/>
		</linearGradient>
		<path fill="url(#SVGID_4_)" d="M302.704,654.744c10.643-2.47,18.659-5.033,21.754-7.042
			c15.105-28.794,19.491-159.5,10.534-214.186c-36.851-6.328-69.249-6.424-107.44-7.724c-10.149,0.428-73.04,42.13-94.106,60.392
			c-19.658,49.858,7.732,125.704,25.638,146.77c12.639,7.373,55.125,22.82,93.049,24.929
			C272.495,658.237,286.392,656.966,302.704,654.744z"/>
		<linearGradient id="SVGID_5_" gradientUnits="userSpaceOnUse" x1="356.1387" y1="518.5967" x2="205.3313" y2="547.3224">
			<stop  offset="6.030000e-006" style="stop-color:#BE7A50"/>
			<stop  offset="1" style="stop-color:#DDA169"/>
		</linearGradient>
		<path fill="url(#SVGID_5_)" d="M334.992,433.517c-36.851-6.328-67.673-14.152-105.864-15.453c-0.184,0.009-0.42,0.05-0.629,0.084
			c-3.271,61.726,39.953,145.986,23.633,193.388c3.506,23.524,3.506,36.867,0.697,46.001c10.533,1.047,58.639-3.515,72.687-9.486
			c3.857-7.724,9.828-22.82,11.934-35.463C344.1,572.705,343.529,485.652,334.992,433.517z"/>
		<path fill="#793F07" d="M249.147,487.59c6.139,2.104,81.282-9.834,93.216-9.481c6.323,1.58,17.034,8.248,21.421,10.18
			c5.619,12.643,6.675,40.559,0.703,59.869c-2.104,3.162-4.738,5.794-4.738,5.794s3.682,3.162,3.682,6.844
			c0.881,17.91-3.505,46.176-11.582,50.387c-28.438,8.78-72.334,11.942-86.381,10.533
			C261.257,611.184,250.724,504.443,249.147,487.59z"/>
		<linearGradient id="SVGID_6_" gradientUnits="userSpaceOnUse" x1="427.0264" y1="551.9824" x2="199.9646" y2="556.4346">
			<stop  offset="6.030000e-006" style="stop-color:#BE7A50"/>
			<stop  offset="0.2526" style="stop-color:#C78557"/>
			<stop  offset="0.9989" style="stop-color:#DDA169"/>
		</linearGradient>
		<path fill="url(#SVGID_6_)" d="M253.532,620.316c-11.236-18.261-11.236-45.648-10.709-58.992
			c-7.371-17.905-14.566-44.944-9.652-66.711c8.428,0,16.496,2.981,16.496,2.981s48.197-8.429,69.877-8.601
			c6.5,2.545,26.862,5.708,31.601,7.023c7.372,11.851,6.323,32.301,2.105,49.86c-2.802,4.562-16.849,7.724-16.849,7.724
			s7.02,2.104,14.047,2.809c3.506,12.638,2.105,37.924-6.324,48.458C323.059,613.993,266.171,621.365,253.532,620.316z"/>
		<path fill="#793F07" d="M263.538,557.639c-2.457,0.524,0.529,2.108,3.338,2.805c28.791,3.162,70.221-0.696,86.374-4.562
			c1.233-2.629,3.162-6.668,4.042-9.477C341.668,552.372,293.21,557.811,263.538,557.639z"/>
		<path fill="#793F07" d="M254.237,496.371c-1.761-0.353-7.722-3.515-9.132-3.515c0.965,4.038-0.527,10.27,1.057,17.905
			C248.97,503.742,253.181,498.475,254.237,496.371z"/>
		<path fill="#793F07" d="M225.446,415.259c18.955-4.567,76.545-5.62,94.098-4.215c10.273,2.106,28.355,7.02,34.939,11.238
			c7.723,11.146,10.709,53.717,2.28,72.68c-10.449,4.302-32.481,9.128-39.324,9.128s-61.097-3.334-72.159-4.739
			C236.155,490.575,213.681,454.936,225.446,415.259z"/>
		<linearGradient id="SVGID_7_" gradientUnits="userSpaceOnUse" x1="425.7568" y1="462.3677" x2="205.9442" y2="457.921">
			<stop  offset="6.030000e-006" style="stop-color:#BE7A50"/>
			<stop  offset="1" style="stop-color:#DDA169"/>
		</linearGradient>
		<path fill="url(#SVGID_7_)" d="M320.777,494.962c0,0-71.983,2.104-86.911,1.056c-4.033-14.571-15.096-50.21-1.4-70.225
			c22.125-3.162,76.721-4.567,84.621-2.721c5.794,1.845,22.912,8.16,28.179,11.851c4.738,13.426,0.528,46.344-3.95,54.512
			C335.78,491.54,320.777,494.962,320.777,494.962z"/>
		<linearGradient id="SVGID_8_" gradientUnits="userSpaceOnUse" x1="301.7891" y1="457.5171" x2="400.7464" y2="464.4615">
			<stop  offset="0" style="stop-color:#DDA169"/>
			<stop  offset="0.4286" style="stop-color:#DBA36C"/>
			<stop  offset="0.7826" style="stop-color:#D3AB76"/>
			<stop  offset="1" style="stop-color:#CCB381"/>
		</linearGradient>
		<path fill="url(#SVGID_8_)" d="M345.525,432.464c-5.266-3.69-19.222-8.076-28.967-9.658c14.919,14.22,10.71,61.269,4.395,71.803
			c8.948-0.524,19.307-2.81,25.629-4.915C351.849,474.247,352.311,444.75,345.525,432.464z"/>
	</g>
</g>
</svg>
